<svg width="107" height="20" viewBox="0 0 107 20" fill="none" xmlns="http://www.w3.org/2000/svg">
<path d="M10 0L12.9389 5.95492L19.5106 6.90983L14.7553 11.5451L15.8779 18.0902L10 15L4.12215 18.0902L5.24472 11.5451L0.489435 6.90983L7.06107 5.95492L10 0Z" fill="#FFC34E"/>
<path d="M31 0L33.9389 5.95492L40.5106 6.90983L35.7553 11.5451L36.8779 18.0902L31 15L25.1221 18.0902L26.2447 11.5451L21.4894 6.90983L28.0611 5.95492L31 0Z" fill="#FFC34E"/>
<path d="M75 0L77.9389 5.95492L84.5106 6.90983L79.7553 11.5451L80.8779 18.0902L75 15L69.1221 18.0902L70.2447 11.5451L65.4894 6.90983L72.0611 5.95492L75 0Z" fill="#FFC34E"/>
<path d="M97 0L99.9389 5.95492L106.511 6.90983L101.755 11.5451L102.878 18.0902L97 15L91.1221 18.0902L92.2447 11.5451L87.4894 6.90983L94.0611 5.95492L97 0Z" fill="white"/>
<path d="M53 0L55.9389 5.95492L62.5106 6.90983L57.7553 11.5451L58.8779 18.0902L53 15L47.1221 18.0902L48.2447 11.5451L43.4894 6.90983L50.0611 5.95492L53 0Z" fill="#FFC34E"/>
</svg>
