<svg width="63" height="63" viewBox="0 0 63 63" fill="none" xmlns="http://www.w3.org/2000/svg">
<path d="M56.7009 37.849V9.45023C56.7009 7.13057 54.8205 5.25023 52.5009 5.25023H48.3009V3.15024C48.3009 1.41025 46.8906 0 45.1507 0H44.1009C42.3609 0 40.9507 1.41025 40.9507 3.15024V5.25023H31.5004V3.15024C31.5004 1.41025 30.0902 0 28.3507 0H27.3004C25.5609 0 24.1502 1.41025 24.1502 3.15024V5.25023H15.7502V3.15024C15.7502 1.41025 14.34 0 12.6005 0H11.5502C9.81072 0 8.39999 1.41025 8.39999 3.15024V5.25023H4.19999C1.88034 5.25023 0 7.13057 0 9.45023V49.3507C0 51.6703 1.88034 53.5507 4.19999 53.5507H36.3609C38.2124 59.2748 43.5928 63.1114 49.6073 62.9975C55.6223 62.8836 60.8533 58.8451 62.4866 53.0556C64.1194 47.2656 61.7694 41.0891 56.7009 37.849ZM43.0507 3.15024C43.0507 2.57008 43.5207 2.1 44.1009 2.1H45.1507C45.7308 2.1 46.2009 2.57008 46.2009 3.15024V9.45023C46.2009 10.0299 45.7308 10.5 45.1507 10.5H44.1009C43.5207 10.5 43.0507 10.0299 43.0507 9.45023V3.15024ZM26.2502 3.15024C26.2502 2.57008 26.7208 2.1 27.3004 2.1H28.3507C28.9304 2.1 29.4004 2.57008 29.4004 3.15024V9.45023C29.4004 10.0299 28.9304 10.5 28.3507 10.5H27.3004C26.7208 10.5 26.2502 10.0299 26.2502 9.45023V3.15024ZM10.5 3.15024C10.5 2.57008 10.9706 2.1 11.5502 2.1H12.6005C13.1801 2.1 13.6502 2.57008 13.6502 3.15024V9.45023C13.6502 10.0299 13.1801 10.5 12.6005 10.5H11.5502C10.9706 10.5 10.5 10.0299 10.5 9.45023V3.15024ZM2.1 9.45023C2.1 8.2904 3.04017 7.35023 4.19999 7.35023H8.39999V9.45023C8.39999 11.1897 9.81072 12.6 11.5502 12.6H12.6005C14.34 12.6 15.7502 11.1897 15.7502 9.45023V7.35023H24.1502V9.45023C24.1502 11.1897 25.5609 12.6 27.3004 12.6H28.3507C30.0902 12.6 31.5004 11.1897 31.5004 9.45023V7.35023H40.9507V9.45023C40.9507 11.1897 42.3609 12.6 44.1009 12.6H45.1507C46.8906 12.6 48.3009 11.1897 48.3009 9.45023V7.35023H52.5009C53.6607 7.35023 54.6009 8.2904 54.6009 9.45023V16.8005H2.1V9.45023ZM4.19999 51.4507C3.04017 51.4507 2.1 50.5105 2.1 49.3507V18.9005H54.6009V36.743C54.5672 36.7295 54.5317 36.719 54.4956 36.7055C54.2774 36.6161 54.0549 36.5373 53.8323 36.4608C53.7271 36.4229 53.6223 36.3811 53.5098 36.3464C53.1757 36.2412 52.8388 36.1446 52.4985 36.0648C48.4374 35.1083 44.1615 36.0595 40.8887 38.6478C37.6159 41.2362 35.7052 45.1781 35.7004 49.3507C35.7038 49.8693 35.7365 50.387 35.7994 50.9018C35.811 51.0065 35.8216 51.1118 35.836 51.2166C35.8466 51.2945 35.8518 51.3742 35.8634 51.4507H4.19999ZM49.3507 60.9009C44.3412 60.9172 39.8971 57.6896 38.3633 52.9205C38.2984 52.7057 38.2321 52.4923 38.1725 52.2289C37.9225 51.2901 37.7975 50.3221 37.8004 49.3507C37.8048 45.8193 39.4222 42.4835 42.1927 40.2931C44.9627 38.1028 48.5816 37.2986 52.0188 38.109C52.3336 38.1826 52.6427 38.2729 52.9493 38.3739C53.7069 38.6195 54.4375 38.9439 55.1282 39.341C59.6632 41.9519 61.8761 47.2858 60.5216 52.3404C59.1671 57.395 54.5836 60.9071 49.3507 60.9009Z" fill="#1C54C7"/>
<path d="M16.8001 22H10.1999C8.9854 22 8 22.9849 8 24.1999V30.7996C8 32.0146 8.9854 33 10.1999 33H16.8001C18.0151 33 19 32.0146 19 30.7996V24.1999C19 22.9849 18.0151 22 16.8001 22ZM10.1999 30.7996V24.1999H16.8001V30.7996H10.1999Z" fill="#1C54C7"/>
<path d="M31 22H25C23.8954 22 23 22.9849 23 24.1999V30.7996C23 32.0146 23.8954 33 25 33H31C32.1046 33 33 32.0146 33 30.7996V24.1999C33 22.9849 32.1046 22 31 22ZM25 30.7996V24.1999H31V30.7996H25Z" fill="#1C54C7"/>
<path d="M16.8001 35H10.1999C8.9854 35 8 35.8954 8 37V43C8 44.1046 8.9854 45 10.1999 45H16.8001C18.0151 45 19 44.1046 19 43V37C19 35.8954 18.0151 35 16.8001 35ZM10.1999 43V37H16.8001V43H10.1999Z" fill="#1C54C7"/>
<path d="M31 35H25C23.8954 35 23 35.8954 23 37V43C23 44.1046 23.8954 45 25 45H31C32.1046 45 33 44.1046 33 43V37C33 35.8954 32.1046 35 31 35ZM25 43V37H31V43H25Z" fill="#1C54C7"/>
<path d="M40.1999 33H46.8001C48.0151 33 49 32.0146 49 30.7996V24.1999C49 22.9849 48.0151 22 46.8001 22H40.1999C38.9849 22 38 22.9849 38 24.1999V30.7996C38 32.0146 38.9849 33 40.1999 33ZM40.1999 24.1999H46.8001V30.7996H40.1999V24.1999Z" fill="#1C54C7"/>
<path d="M54.1146 44.36L47.0388 52.2646L44.8851 49.859C44.4825 49.4099 43.7971 49.3767 43.3543 49.7855C42.912 50.1943 42.8792 50.8901 43.2819 51.3397L46.2359 54.639C46.4412 54.8691 46.7328 55 47.0383 55C47.3437 55 47.6348 54.8691 47.8406 54.639L55.7178 45.8402C55.9787 45.5497 56.0665 45.1399 55.9484 44.7653C55.8309 44.3907 55.5254 44.1088 55.1471 44.0252C54.7687 43.9416 54.3755 44.069 54.1146 44.36Z" fill="#1C54C7"/>
</svg>
