<svg width="62" height="62" viewBox="0 0 62 62" fill="none" xmlns="http://www.w3.org/2000/svg">
<path d="M42.7685 39H20.2313C19.2917 39.0003 18.4529 39.5671 18.1333 40.4178C17.8136 41.2684 18.0815 42.2209 18.8033 42.8L22.1704 45.5C22.5716 45.822 23.0772 45.9988 23.5995 46H39.4005C39.9228 45.9988 40.4283 45.822 40.8296 45.5L44.1967 42.8C44.9186 42.2209 45.1864 41.2684 44.8667 40.4178C44.5469 39.567 43.7081 39.0002 42.7685 39ZM42.8724 41.264L39.5063 43.964C39.4769 43.9869 39.4402 43.9993 39.4024 43.9991H23.6015C23.5637 43.9997 23.5268 43.9873 23.4976 43.964L20.1306 41.264C20.0794 41.2236 20.0607 41.1562 20.0839 41.0966C20.1071 41.037 20.1672 40.9981 20.2334 40.9999H42.7705C42.8369 40.9977 42.8973 41.0363 42.9208 41.0961C42.9443 41.1558 42.9256 41.2234 42.8744 41.264H42.8724Z" fill="#1C54C7"/>
<path d="M49.029 39.5L45.777 42.2C45.0796 42.7781 44.82 43.7317 45.1282 44.5835C45.4365 45.4354 46.2462 46.0021 47.152 46H55C56.1046 46 57 45.1046 57 44V41C57 39.8954 56.1046 39 55 39H50.405C49.9021 39.0014 49.4155 39.1781 49.029 39.5ZM55 40.9999V43.9999H47.152C47.0867 44.0063 47.0267 43.9637 47.011 43.8999C46.9843 43.8421 47.0034 43.7736 47.056 43.7379L50.309 41.0319C50.337 41.0087 50.3726 40.9966 50.409 40.9979L55 40.9999Z" fill="#1C54C7"/>
<path d="M11.9717 39.5C11.5866 39.1793 11.1018 39.0026 10.6006 39H6.00019C4.89552 39 4 39.8954 4 41V44C4 45.1046 4.89552 46 6.00019 46H13.8468C14.753 46.0025 15.5631 45.4359 15.8716 44.584C16.1801 43.7321 15.9205 42.7782 15.223 42.2001L11.9717 39.5ZM13.9899 43.8999C13.9743 43.9637 13.9142 44.0063 13.8489 43.9999H6.00019V40.9999H10.6006C10.637 40.9985 10.6726 41.0106 10.7006 41.0339L13.9549 43.7408C14.0027 43.7789 14.0174 43.8454 13.9899 43.8999Z" fill="#1C54C7"/>
<path fill-rule="evenodd" clip-rule="evenodd" d="M13 50H5.99997C5.44772 50 5 50.4477 5 51C5 51.5523 5.44772 52 5.99997 52H13C13.5523 52 14 51.5523 14 51C14 50.4477 13.5523 50 13 50Z" fill="#1C54C7"/>
<path fill-rule="evenodd" clip-rule="evenodd" d="M56 50H49C48.4477 50 48 50.4477 48 51C48 51.5523 48.4477 52 49 52H56C56.5523 52 57 51.5523 57 51C57 50.4477 56.5523 50 56 50Z" fill="#1C54C7"/>
<path fill-rule="evenodd" clip-rule="evenodd" d="M40.95 50H22.05C21.4701 50 21 50.4477 21 51C21 51.5523 21.4701 52 22.05 52H40.95C41.5299 52 42 51.5523 42 51C42 50.4477 41.5299 50 40.95 50Z" fill="#1C54C7"/>
<path d="M62 30.2618C62 28.5655 60.6121 27.1904 58.9 27.1904H56.8333C55.9329 27.1933 55.0789 27.5865 54.4959 28.2665L52.5553 22.5004C51.8541 20.4088 49.8787 18.998 47.6542 19H14.3457C12.1212 18.998 10.1458 20.4088 9.44458 22.5004L7.504 28.2665C6.92105 27.5866 6.06705 27.1934 5.16658 27.1904H3.1C1.38794 27.1904 1.24609e-05 28.5655 1.24609e-05 30.2618C1.24609e-05 31.9581 1.38794 33.3332 3.1 33.3332H4.73882L0.908314 37.1286C0.324747 37.703 -0.00232669 38.485 1.24609e-05 39.3V52.7856C0.00540268 54.0826 0.832546 55.2363 2.0667 55.6687V58.9286C2.0667 60.6249 3.45463 62 5.16669 62H12.4C14.1121 62 15.5 60.6249 15.5 58.9286V55.8572H46.5V58.9286C46.5 60.6249 47.8879 62 49.6 62H56.8333C58.5454 62 59.9333 60.6249 59.9333 58.9286V55.6687C61.1675 55.2364 61.9945 54.0826 62 52.7856V39.3C62.0023 38.485 61.6753 37.703 61.0917 37.1286L57.2612 33.3332H58.9C60.6121 33.3332 62 31.9581 62 30.2618ZM11.4049 23.1484C11.8265 21.894 13.0113 21.0476 14.3457 21.0475H47.6542C48.9887 21.0476 50.1733 21.894 50.595 23.1484L53.3323 31.2857H8.66758L11.4049 23.1484ZM3.1 31.2857C2.52935 31.2857 2.0667 30.8273 2.0667 30.2619C2.0667 29.6965 2.52935 29.2381 3.1 29.2381H5.16669C5.73734 29.2381 6.19998 29.6965 6.19998 30.2619V31.2857H3.1ZM13.4333 58.9286C13.4333 59.494 12.9707 59.9524 12.4 59.9524H5.16669C4.59603 59.9524 4.13339 59.494 4.13339 58.9286V55.8572H13.4333V58.9286ZM57.8666 58.9286C57.8666 59.494 57.404 59.9524 56.8333 59.9524H49.6C49.0293 59.9524 48.5667 59.494 48.5667 58.9286V55.8572H57.8666V58.9286ZM59.6305 38.5762C59.8235 38.7688 59.9322 39.0288 59.9333 39.3V52.7856C59.9333 53.351 59.4707 53.8094 58.9 53.8094H3.1C2.52935 53.8094 2.0667 53.351 2.0667 52.7856V39.3C2.06782 39.0287 2.17654 38.7687 2.36947 38.5762L7.66113 33.3333H54.3389L59.6305 38.5762ZM55.8 31.2857V30.2619C55.8 29.6965 56.2627 29.2381 56.8333 29.2381H58.9C59.4707 29.2381 59.9333 29.6965 59.9333 30.2619C59.9333 30.8273 59.4707 31.2857 58.9 31.2857H55.8Z" fill="#1C54C7"/>
<path d="M12.9388 17H22.3183C23.6139 16.9944 24.7664 16.144 25.1983 14.875H26.5791C27.3961 14.8728 28.1793 14.5356 28.7585 13.9367L29.6002 13.0623C29.7926 12.8618 30.0539 12.7494 30.3264 12.7499H34.1677C34.7105 12.7515 35.2313 12.5273 35.6139 12.1273L36.6366 11.0649L37.6592 12.1273C38.0418 12.5272 38.5627 12.7515 39.1054 12.7499H41.3267C41.8695 12.7515 42.3903 12.5273 42.7729 12.1273L43.7956 11.0649L44.8183 12.1273C45.2009 12.5272 45.7217 12.7515 46.2644 12.7499H48.224C48.6663 12.7483 49.0965 12.5994 49.4512 12.325L52.1818 10.1999C52.6969 9.79858 53 9.16874 53 8.49989C53 7.83104 52.6969 7.2012 52.1818 6.79985L49.4512 4.67483C49.0967 4.39991 48.6664 4.25089 48.224 4.24985H30.3262C30.0509 4.24828 29.7872 4.13377 29.5929 3.93111L28.7512 3.05667C28.1767 2.45852 27.3963 2.12315 26.583 2.12482H25.1982C24.7664 0.856042 23.6138 0.00565663 22.3182 9.69685e-06H12.9387C12.1243 -0.00208176 11.3429 0.334224 10.7685 0.933949L8.89899 2.87618C8.32141 3.47235 7.9977 4.28394 8.00001 5.12972V11.8702C7.9977 12.716 8.32141 13.5275 8.89899 14.1237L10.7685 16.0659C11.3427 16.6663 12.1243 17.0027 12.9388 17ZM25.3865 4.25006H26.5831C26.8556 4.24953 27.1169 4.36195 27.3092 4.56241L28.1509 5.43685C28.73 6.03564 29.5133 6.37278 30.3304 6.37508H48.2282L50.9548 8.5001L48.2242 10.6251H46.2646L45.2419 9.56267C44.4432 8.73309 43.1485 8.73309 42.3496 9.56267L41.3269 10.6251H39.1056L38.0829 9.56267C37.2842 8.73309 35.9894 8.73309 35.1906 9.56267L34.1679 10.6251H30.3266C29.5113 10.6231 28.7292 10.9598 28.1543 11.5601L27.3116 12.4345C27.1177 12.6373 26.8544 12.7519 26.5793 12.7533H25.3865V4.25006ZM10.0455 11.8703V5.12972C10.0466 4.84821 10.1542 4.57831 10.3452 4.37858L12.2147 2.43635C12.4066 2.23682 12.6672 2.12482 12.9388 2.12503H22.3183C22.8831 2.12503 23.341 2.60073 23.341 3.18749V13.8125C23.341 14.3993 22.8831 14.875 22.3183 14.875H12.9388C12.6672 14.8752 12.4067 14.7632 12.2147 14.5636L10.3452 12.6214C10.1542 12.4217 10.0465 12.1518 10.0455 11.8703Z" fill="#1C54C7"/>
<path d="M14 12H16C17.1046 12 18 11.1046 18 10V6C18 4.89543 17.1046 4 16 4H14C12.8954 4 12 4.89543 12 6V10C12.0001 11.1046 12.8955 12 14 12ZM14 6H16V10H14V6Z" fill="#1C54C7"/>
</svg>
