<svg width="9" height="6" viewBox="0 0 9 6"  xmlns="http://www.w3.org/2000/svg">
<path d="M4.92922 5.33709L8.82427 1.79221C8.93758 1.6871 9 1.54677 9 1.39715C9 1.24753 8.93758 1.10721 8.82427 1.00209L8.46387 0.667391C8.22902 0.4496 7.84733 0.4496 7.61285 0.667391L4.50228 3.48384L1.38715 0.663156C1.27384 0.558038 1.1228 0.5 0.961732 0.5C0.800489 0.5 0.649442 0.558038 0.536044 0.663156L0.17573 0.997855C0.0624218 1.10306 -3.24905e-08 1.24329 -3.90307e-08 1.39292C-4.55708e-08 1.54254 0.0624217 1.68286 0.17573 1.78798L4.07525 5.33709C4.18892 5.44246 4.34068 5.50033 4.50201 5.5C4.66397 5.50033 4.81564 5.44246 4.92922 5.33709Z" />
</svg>