<svg width="53" height="70" viewBox="0 0 53 70" fill="none" xmlns="http://www.w3.org/2000/svg">
<path d="M26.5 8C22.8411 8 19.2643 9.08501 16.222 11.1178C13.1796 13.1506 10.8085 16.0399 9.40824 19.4204C8.00802 22.8008 7.64165 26.5205 8.35548 30.1092C9.06931 33.6978 10.8313 36.9942 13.4185 39.5815C16.0058 42.1687 19.3022 43.9307 22.8908 44.6445C26.4795 45.3583 30.1992 44.992 33.5796 43.5918C36.9601 42.1915 39.8494 39.8204 41.8822 36.778C43.915 33.7357 45 30.1589 45 26.5C44.9942 21.5953 43.0432 16.8931 39.5751 13.4249C36.1069 9.95678 31.4047 8.00581 26.5 8ZM26.5 42.6875C23.2984 42.6875 20.1687 41.7381 17.5067 39.9594C14.8447 38.1807 12.7699 35.6526 11.5447 32.6947C10.3195 29.7368 9.99895 26.482 10.6235 23.342C11.2481 20.2019 12.7899 17.3176 15.0537 15.0537C17.3176 12.7898 20.2019 11.2481 23.342 10.6235C26.482 9.99894 29.7368 10.3195 32.6947 11.5447C35.6526 12.7699 38.1807 14.8447 39.9594 17.5067C41.7381 20.1687 42.6875 23.2984 42.6875 26.5C42.6829 30.7918 40.976 34.9065 37.9412 37.9412C34.9065 40.976 30.7918 42.6829 26.5 42.6875Z" fill="#1C54C7"/>
<path d="M51.2482 22.3142L48.8575 21.3483C48.2995 19.0039 47.3816 16.7628 46.1372 14.7068L47.1488 12.3083C47.3464 11.8617 47.4164 11.368 47.3508 10.8832C47.2852 10.3984 47.0867 9.94188 46.7778 9.56558C46.3572 9.05344 45.8745 8.51563 45.2327 7.84834C44.5967 7.22071 44.0644 6.7319 43.5713 6.31776C43.1994 6.00098 42.7472 5.79619 42.2661 5.72669C41.785 5.65719 41.2944 5.72577 40.8498 5.92461L38.4798 6.95005C36.4472 5.69073 34.2318 4.76246 31.9147 4.19921L30.9584 1.77501C30.7812 1.32267 30.4853 0.927901 30.1028 0.633295C29.7203 0.33869 29.2655 0.155424 28.7877 0.103266C27.2695 -0.0344219 25.7421 -0.0344219 24.2239 0.103266C23.7433 0.153203 23.2853 0.335237 22.8995 0.629682C22.5136 0.924126 22.2146 1.31978 22.0348 1.77384L21.0842 4.19921C18.769 4.76434 16.5556 5.69375 14.5249 6.95355L12.1549 5.92344C11.7141 5.72331 11.2266 5.65242 10.748 5.71882C10.2693 5.78523 9.81868 5.98627 9.44727 6.29909C8.93916 6.7249 8.41031 7.21487 7.75127 7.86234C7.1314 8.5063 6.64748 9.04527 6.24076 9.54458C5.92657 9.92057 5.7233 10.3786 5.65422 10.8661C5.58514 11.3536 5.65305 11.851 5.85018 12.3013L6.86294 14.701C5.61816 16.7592 4.69949 19.0021 4.14035 21.3483L1.74612 22.3177C1.3003 22.4979 0.911535 22.798 0.621787 23.1855C0.332038 23.5731 0.152301 24.0334 0.101969 24.5168C-0.0339895 26.0532 -0.0339895 27.5989 0.101969 29.1353C0.150544 29.6222 0.330043 30.0863 0.620942 30.4771C0.911841 30.8679 1.303 31.1705 1.75188 31.3519L4.1415 32.319C4.70085 34.663 5.61911 36.904 6.86294 38.9605L5.85133 41.359C5.65448 41.8048 5.5848 42.2976 5.65016 42.7815C5.71552 43.2653 5.91332 43.721 6.22118 44.097C6.64172 44.6115 7.12564 45.1469 7.76625 45.8142C8.40109 46.4419 8.9334 46.9318 9.42653 47.3448C9.46686 47.3798 9.5164 47.3973 9.55903 47.43L3.74284 60.9766C3.51528 61.5233 3.42486 62.1185 3.47963 62.7091C3.5344 63.2998 3.73267 63.8675 4.05676 64.3617C4.38084 64.856 4.82067 65.2613 5.33704 65.5417C5.85341 65.822 6.43026 65.9686 7.01618 65.9685H11.959C12.0217 65.9677 12.084 65.9796 12.1421 66.0035C12.2003 66.0273 12.2532 66.0626 12.2978 66.1073L15.1079 68.9456C15.5168 69.3592 16.0189 69.6658 16.571 69.8388C17.1231 70.0119 17.7085 70.0462 18.2767 69.9388C18.8448 69.8314 19.3785 69.5855 19.8318 69.2224C20.285 68.8594 20.6441 68.39 20.878 67.8549L26.4995 55.3162L32.1152 67.8339C32.3458 68.372 32.7031 68.8447 33.1558 69.2108C33.6085 69.5768 34.1429 69.825 34.7122 69.9337C34.9294 69.9755 35.1501 69.9962 35.3712 69.9956C36.3135 69.9966 37.2177 69.619 37.8853 68.9456L40.7001 66.1073C40.7902 66.0191 40.9111 65.9704 41.0365 65.972H45.9793C46.5663 65.9722 47.1442 65.8251 47.6613 65.5438C48.1784 65.2625 48.6186 64.8558 48.9424 64.3601C49.2662 63.8644 49.4637 63.2951 49.517 62.7032C49.5703 62.1113 49.4779 61.5153 49.248 60.9684L43.4284 47.4382C43.4676 47.4078 43.516 47.3915 43.554 47.3588C44.0598 46.933 44.5909 46.4442 45.25 45.7944C45.8699 45.1504 46.3526 44.6115 46.7616 44.1122C47.0752 43.7361 47.278 43.2782 47.3466 42.7909C47.4153 42.3036 47.3471 41.8066 47.1499 41.3567L46.1372 38.957C47.3817 36.9005 48.2996 34.659 48.8575 32.3143L51.2517 31.346C51.6975 31.1657 52.0863 30.8656 52.3762 30.4781C52.6661 30.0906 52.8462 29.6304 52.897 29.147C52.9702 28.3774 53.0044 27.6045 52.9995 26.8313C53.0045 26.0601 52.9703 25.2891 52.897 24.5214C52.8462 24.0365 52.6658 23.5749 52.3753 23.186C52.0848 22.7971 51.6952 22.4957 51.2482 22.3142ZM18.7718 66.9006C18.69 67.0902 18.5637 67.2566 18.4038 67.3855C18.2439 67.5143 18.0553 67.6016 17.8545 67.6398C17.6537 67.678 17.4467 67.6659 17.2515 67.6046C17.0563 67.5432 16.879 67.4345 16.7348 67.2879L13.9269 64.4565C13.4029 63.9323 12.6957 63.6388 11.959 63.6399H7.01618C6.81039 63.6409 6.60765 63.5897 6.42649 63.4908C6.24533 63.392 6.09155 63.2487 5.97922 63.0741C5.86462 62.9041 5.79402 62.7076 5.77389 62.5028C5.75376 62.2979 5.78474 62.0913 5.864 61.9017L11.9152 47.8068C11.9947 47.7811 12.0754 47.7741 12.1537 47.7403L14.5238 46.7149C16.5548 47.9748 18.7686 48.9042 21.0842 49.4692L22.0406 51.8946C22.2191 52.3456 22.5156 52.7389 22.8982 53.0322C23.2809 53.3255 23.7352 53.5077 24.2124 53.5593C24.3818 53.5768 24.565 53.585 24.7413 53.5978L18.7718 66.9006ZM47.1338 61.8842C47.2135 62.0762 47.2451 62.2852 47.2256 62.4926C47.206 62.7 47.1361 62.8992 47.022 63.0725C46.9079 63.2459 46.7531 63.3879 46.5716 63.4858C46.39 63.5838 46.1874 63.6348 45.9816 63.6341H41.0399C40.3064 63.6351 39.6028 63.9284 39.0812 64.4507L36.2676 67.2879C36.1221 67.4347 35.9431 67.5432 35.7465 67.6037C35.5499 67.6642 35.3417 67.675 35.14 67.635C34.9383 67.5951 34.7494 67.5056 34.5899 67.3745C34.4303 67.2434 34.305 67.0747 34.2248 66.8831L28.2646 53.5955C28.4363 53.5826 28.6103 53.5756 28.7808 53.5581C29.2614 53.5082 29.7194 53.3262 30.1053 53.0317C30.4911 52.7373 30.7901 52.3416 30.9699 51.8876L31.9251 49.4669C34.2404 48.9019 36.4538 47.9725 38.4844 46.7125L40.8533 47.7368C40.927 47.7695 41.0054 47.7753 41.0837 47.801L47.1338 61.8842ZM50.603 28.9312C50.5926 28.9883 50.5679 29.0417 50.5311 29.0862C50.4944 29.1308 50.4469 29.165 50.3933 29.1855L47.4414 30.3801C47.2657 30.4517 47.1099 30.5657 46.9878 30.7124C46.8657 30.859 46.7809 31.0337 46.7409 31.2212C46.217 33.7125 45.2453 36.0852 43.8743 38.2208C43.7716 38.3814 43.7095 38.5651 43.6934 38.7557C43.6773 38.9463 43.7078 39.138 43.7821 39.3139L45.0322 42.2783C45.058 42.3321 45.0686 42.3921 45.0627 42.4516C45.0568 42.5112 45.0347 42.5679 44.9988 42.6154C44.6209 43.0821 44.1762 43.5744 43.6162 44.1495C43.0263 44.7328 42.5378 45.1831 42.0665 45.5763C42.0197 45.6084 41.9652 45.6274 41.9088 45.6312C41.8523 45.6351 41.7958 45.6238 41.7451 45.5984L38.8278 44.3303C38.6541 44.2554 38.465 44.2249 38.2769 44.2414C38.0889 44.2578 37.9077 44.3208 37.7493 44.4248C35.6401 45.813 33.2968 46.7969 30.8363 47.3273C30.6511 47.3678 30.4786 47.4536 30.3337 47.5773C30.1889 47.7009 30.0762 47.8587 30.0055 48.0366L28.8269 51.022C28.8057 51.0789 28.7698 51.1291 28.723 51.1672C28.6762 51.2054 28.6202 51.2301 28.5607 51.2389C27.8779 51.3043 27.1922 51.3347 26.5064 51.3299H26.4926C25.8036 51.334 25.1149 51.3029 24.429 51.2366C24.3727 51.226 24.32 51.2009 24.276 51.1637C24.232 51.1265 24.1982 51.0785 24.1778 51.0243L22.998 48.0355C22.928 47.8573 22.8156 47.6994 22.6709 47.5757C22.5262 47.4519 22.3536 47.3663 22.1684 47.3262C19.7077 46.7963 17.3643 45.8124 15.2554 44.4237C15.0687 44.3011 14.8511 44.2359 14.6286 44.2358C14.4713 44.2352 14.3156 44.2674 14.1712 44.3303L11.2435 45.5961C11.1908 45.6231 11.1315 45.6342 11.0727 45.6282C11.0139 45.6222 10.9581 45.5993 10.9117 45.5623C10.4508 45.1784 9.9646 44.7281 9.39657 44.1623C8.82049 43.5662 8.37805 43.0727 7.98631 42.5933C7.95465 42.546 7.93603 42.491 7.93238 42.434C7.92873 42.3769 7.94019 42.32 7.96557 42.2689L9.21683 39.3139C9.2908 39.1381 9.32098 38.9466 9.3047 38.7562C9.28843 38.5658 9.22621 38.3823 9.12351 38.222C7.75212 36.0864 6.78005 33.7138 6.25574 31.2224C6.21643 31.0348 6.13205 30.8599 6.01006 30.7132C5.88807 30.5665 5.73225 30.4525 5.55637 30.3813L2.6091 29.1843C2.55338 29.1621 2.50433 29.1255 2.46676 29.0783C2.42919 29.031 2.4044 28.9747 2.3948 28.9148C2.33373 28.2954 2.30378 27.6141 2.30378 26.8313C2.30378 26.0485 2.33373 25.3672 2.39595 24.7314C2.40672 24.6746 2.43163 24.6216 2.46833 24.5773C2.50503 24.533 2.55229 24.4989 2.60565 24.4783L5.55752 23.2837C5.7334 23.2125 5.88923 23.0985 6.01121 22.9517C6.1332 22.805 6.21758 22.6301 6.25689 22.4425C6.7812 19.9511 7.75327 17.5785 9.12466 15.4429C9.22756 15.2822 9.2898 15.0983 9.30588 14.9075C9.32195 14.7166 9.29137 14.5247 9.21683 14.3486L7.96903 11.389C7.943 11.335 7.93234 11.2748 7.93824 11.215C7.94414 11.1552 7.96637 11.0983 8.00244 11.0507C8.38151 10.584 8.82509 10.0929 9.38505 9.51658C9.97381 8.93328 10.4623 8.4853 10.9359 8.08982C10.9822 8.05728 11.0363 8.03812 11.0926 8.03442C11.1488 8.03072 11.205 8.04262 11.255 8.06883L14.1712 9.33226C14.345 9.40735 14.5344 9.43801 14.7226 9.42153C14.9109 9.40506 15.0923 9.34194 15.2508 9.23776C17.3597 7.849 19.7031 6.86511 22.1638 6.33526C22.349 6.29516 22.5216 6.20947 22.6663 6.08575C22.811 5.96204 22.9234 5.80411 22.9934 5.62596L24.1709 2.64179C24.1922 2.58461 24.2283 2.53424 24.2753 2.49589C24.3223 2.45753 24.3785 2.43259 24.4382 2.42364C25.8112 2.29998 27.1923 2.29998 28.5653 2.42364C28.6217 2.43414 28.6744 2.45921 28.7185 2.49641C28.7625 2.5336 28.7962 2.58167 28.8165 2.63596L29.9963 5.62479C30.067 5.80276 30.1797 5.96046 30.3245 6.08412C30.4693 6.20777 30.6419 6.2936 30.8271 6.33409C33.2876 6.86455 35.6309 7.8484 37.7401 9.2366C37.8995 9.34235 38.0822 9.40645 38.272 9.42314C38.4619 9.43984 38.6528 9.40861 38.8278 9.33226L41.7554 8.06649C41.8086 8.04037 41.8679 8.0297 41.9267 8.03568C41.9855 8.04165 42.0415 8.06403 42.0884 8.10032C42.5493 8.48297 43.0355 8.93328 43.6035 9.50025C44.1796 10.0975 44.6244 10.5922 45.0126 11.0693C45.0449 11.1165 45.064 11.1717 45.0679 11.229C45.0717 11.2863 45.0602 11.3436 45.0345 11.3948L43.7821 14.3486C43.7082 14.5245 43.678 14.716 43.6943 14.9064C43.7105 15.0968 43.7727 15.2802 43.8754 15.4406C45.2465 17.5762 46.2182 19.9489 46.7421 22.4402C46.7821 22.6277 46.8668 22.8024 46.9889 22.949C47.1111 23.0957 47.2668 23.2098 47.4426 23.2813L50.391 24.4748C50.4454 24.495 50.4936 24.5292 50.5309 24.574C50.5683 24.6187 50.5935 24.6726 50.6042 24.7302V24.7442C50.6697 25.4379 50.7001 26.1345 50.6952 26.8313C50.6999 27.5324 50.6691 28.2333 50.603 28.9312Z" fill="#1C54C7"/>
<path d="M34.2028 20.262L23.3609 30.5376L20.3726 27.1114C19.8138 26.4717 18.8155 26.3789 18.1425 26.905C17.4703 27.4311 17.3774 28.3766 17.9361 29.017L22.035 33.716C22.3198 34.0437 22.737 34.2422 23.183 34.2634C23.6289 34.2846 24.0623 34.1265 24.3777 33.8274L36.4475 22.3895C36.8471 22.0119 37.0017 21.4598 36.8537 20.9413C36.7064 20.423 36.2787 20.0177 35.7318 19.8776C35.1848 19.7375 34.6025 19.8837 34.2028 20.262Z" fill="#1C54C7"/>
</svg>
