<svg width="74" height="74" viewBox="0 0 74 74" fill="none" xmlns="http://www.w3.org/2000/svg">
<path d="M72.3145 73.5H1.18548C0.871074 73.5 0.569541 73.3751 0.34722 73.1528C0.124899 72.9305 0 72.6289 0 72.3145V1.18549C0 0.871078 0.124899 0.569542 0.34722 0.347221C0.569541 0.124901 0.871074 0 1.18548 0H72.3145C72.6289 0 72.9305 0.124901 73.1528 0.347221C73.3751 0.569542 73.5 0.871078 73.5 1.18549V72.3145C73.5 72.6289 73.3751 72.9305 73.1528 73.1528C72.9305 73.3751 72.6289 73.5 72.3145 73.5ZM71.129 39.6118L64.2995 46.4413C65.6067 47.4809 66.6795 48.7849 67.4477 50.268C68.2158 51.751 68.6619 53.3797 68.7567 55.0471C68.8515 56.7146 68.5929 58.3833 67.9978 59.9439C67.4027 61.5045 66.4846 62.9217 65.3036 64.1027C64.1226 65.2837 62.7054 66.2018 61.1448 66.7969C59.5842 67.392 57.9155 67.6506 56.248 67.5558C54.5806 67.461 52.9519 67.0149 51.4688 66.2468C49.9858 65.4787 48.6818 64.4058 47.6422 63.0986L39.6118 71.129H71.129V39.6118ZM60.4597 46.9238V51.0066C61.4549 51.7531 62.1901 52.7937 62.561 53.9812C62.932 55.1687 62.9199 56.4428 62.5265 57.623C62.1331 58.8032 61.3783 59.8297 60.369 60.5571C59.3598 61.2846 58.1473 61.676 56.9032 61.676C55.6592 61.676 54.4466 61.2846 53.4374 60.5571C52.4282 59.8297 51.6734 58.8032 51.28 57.623C50.8866 56.4428 50.8745 55.1687 51.2454 53.9812C51.6164 52.7937 52.3515 51.7531 53.3468 51.0066V46.9238C51.3065 47.7492 49.6168 49.2584 48.5672 51.1929C47.5176 53.1275 47.1736 55.3668 47.594 57.5272C48.0144 59.6876 49.1731 61.6345 50.8715 63.0342C52.5699 64.434 54.7023 65.1995 56.9032 65.1995C59.1041 65.1995 61.2365 64.434 62.9349 63.0342C64.6333 61.6345 65.7921 59.6876 66.2125 57.5272C66.6329 55.3668 66.2888 53.1275 65.2393 51.1929C64.1897 49.2584 62.5 47.7492 60.4597 46.9238ZM56.9032 52.1613C56.1998 52.1613 55.5122 52.3699 54.9274 52.7607C54.3425 53.1514 53.8867 53.7069 53.6175 54.3567C53.3483 55.0066 53.2779 55.7217 53.4151 56.4116C53.5523 57.1015 53.8911 57.7352 54.3884 58.2325C54.8858 58.7299 55.5195 59.0686 56.2094 59.2059C56.8993 59.3431 57.6144 59.2727 58.2642 59.0035C58.9141 58.7343 59.4695 58.2785 59.8603 57.6936C60.2511 57.1087 60.4597 56.4211 60.4597 55.7177C60.4597 54.7745 60.085 53.8699 59.418 53.203C58.751 52.536 57.8465 52.1613 56.9032 52.1613ZM56.9032 20.1532C57.6066 20.1532 58.2942 19.9446 58.8791 19.5539C59.4639 19.1631 59.9198 18.6076 60.189 17.9578C60.4581 17.3079 60.5286 16.5928 60.3913 15.903C60.2541 15.2131 59.9154 14.5794 59.418 14.082C58.9206 13.5846 58.2869 13.2459 57.597 13.1087C56.9072 12.9714 56.1921 13.0419 55.5422 13.311C54.8924 13.5802 54.3369 14.0361 53.9461 14.6209C53.5554 15.2058 53.3468 15.8934 53.3468 16.5968C53.3468 17.54 53.7215 18.4446 54.3884 19.1116C55.0554 19.7785 55.96 20.1532 56.9032 20.1532ZM56.9032 22.5242C56.5051 22.5246 56.1079 22.4849 55.7177 22.4057V49.9089C56.5 49.7492 57.3064 49.7492 58.0887 49.9089V22.4057C57.6985 22.4849 57.3014 22.5246 56.9032 22.5242ZM53.3468 44.4082V27.9063C51.7777 27.4139 50.3284 26.6001 49.0911 25.5168C47.8537 24.4336 46.8555 23.1045 46.16 21.6143C45.4645 20.1241 45.0869 18.5054 45.0512 16.8613C45.0156 15.2172 45.3226 13.5836 45.9529 12.0647L36.75 2.86176L2.86176 36.75L36.75 70.6382L46.3323 61.0524C45.5537 59.5194 45.1187 57.8351 45.0576 56.1168C44.9964 54.3985 45.3107 52.6875 45.9785 51.1031C46.6462 49.5187 47.6513 48.0989 48.9239 46.9427C50.1964 45.7864 51.7058 44.9215 53.3468 44.4082ZM47.4194 16.5968C47.4104 18.4882 47.971 20.3385 49.0282 21.907C50.0854 23.4754 51.5902 24.6893 53.3468 25.3907V21.3079C52.3515 20.5615 51.6164 19.5208 51.2454 18.3333C50.8745 17.1458 50.8866 15.8718 51.28 14.6915C51.6734 13.5113 52.4282 12.4848 53.4374 11.7574C54.4466 11.03 55.6592 10.6385 56.9032 10.6385C58.1473 10.6385 59.3598 11.03 60.369 11.7574C61.3783 12.4848 62.1331 13.5113 62.5265 14.6915C62.9199 15.8718 62.932 17.1458 62.561 18.3333C62.1901 19.5208 61.4549 20.5615 60.4597 21.3079V25.3907C62.0548 24.7454 63.4443 23.6784 64.4793 22.3038C65.5144 20.9293 66.156 19.2991 66.3354 17.5878C66.5148 15.8765 66.2253 14.1486 65.4978 12.5893C64.7703 11.03 63.6323 9.69794 62.2058 8.7359C60.7792 7.77386 59.1177 7.21805 57.3994 7.12803C55.6811 7.03801 53.9707 7.41716 52.4513 8.22487C50.932 9.03259 49.6611 10.2384 48.7747 11.7132C47.8882 13.188 47.4197 14.8761 47.4194 16.5968ZM60.4597 27.9063V44.4082C61.0766 44.6012 61.6768 44.8438 62.2545 45.1337L70.6382 36.75L61.4424 27.5542C61.1224 27.6846 60.794 27.802 60.4597 27.9063ZM33.8882 71.129L2.37097 39.6118V71.129H33.8882ZM2.37097 33.8882L33.8882 2.37097H2.37097V33.8882ZM39.6118 2.37097L47.1348 9.89405C48.1185 8.45651 49.4068 7.2534 50.9083 6.37029C52.4097 5.48719 54.0872 4.9458 55.8216 4.78463C57.556 4.62347 59.3046 4.84649 60.943 5.43783C62.5815 6.02917 64.0694 6.9743 65.3011 8.20599C66.5328 9.43767 67.4779 10.9256 68.0693 12.5641C68.6606 14.2025 68.8836 15.9511 68.7225 17.6855C68.5613 19.4199 68.0199 21.0975 67.1368 22.5989C66.2537 24.1003 65.0506 25.3886 63.6131 26.3723L71.129 33.8882V2.37097H39.6118Z" fill="#1C54C7"/>
<path d="M36.7515 45.0483C35.1102 45.0483 33.5058 44.5616 32.1412 43.6498C30.7765 42.738 29.7129 41.4419 29.0848 39.9256C28.4567 38.4093 28.2924 36.7407 28.6126 35.131C28.9328 33.5213 29.7231 32.0427 30.8837 30.8821C32.0442 29.7216 33.5229 28.9312 35.1326 28.611C36.7423 28.2908 38.4108 28.4552 39.9272 29.0832C41.4435 29.7113 42.7395 30.775 43.6514 32.1396C44.5632 33.5043 45.0499 35.1087 45.0499 36.75C45.0474 38.9501 44.1723 41.0593 42.6166 42.615C41.0609 44.1707 38.9516 45.0458 36.7515 45.0483ZM36.7515 30.8225C35.5792 30.8225 34.4332 31.1702 33.4584 31.8215C32.4837 32.4728 31.7239 33.3985 31.2753 34.4816C30.8267 35.5647 30.7093 36.7565 30.938 37.9063C31.1667 39.0561 31.7312 40.1123 32.5602 40.9413C33.3892 41.7702 34.4453 42.3348 35.5951 42.5635C36.7449 42.7922 37.9367 42.6748 39.0198 42.2262C40.1029 41.7775 41.0287 41.0178 41.68 40.0431C42.3313 39.0683 42.6789 37.9223 42.6789 36.75C42.6771 35.1785 42.052 33.6719 40.9408 32.5607C39.8296 31.4495 38.323 30.8244 36.7515 30.8225Z" fill="#1C54C7"/>
</svg>
