<svg width="77" height="78" viewBox="0 0 77 78" fill="none" xmlns="http://www.w3.org/2000/svg">
<path d="M72.6481 37.0584C72.2627 29.1598 69.1581 21.6374 63.8606 15.766L73.5028 6.47236L71.8432 4.7215L62.1512 14.0317C56.0552 8.12993 47.9861 4.70004 39.5063 4.40618V0H37.0667V4.40618C28.4606 4.72053 20.2845 8.24727 14.1499 14.2913C8.01531 20.3352 4.36729 28.458 3.9249 37.0584H0V39.5478H3.90001C4.09549 48.3322 7.64145 56.7096 13.8119 62.965C19.9824 69.2203 28.3107 72.8803 37.0916 73.1957V78.0002H39.5312V73.1542C48.3121 72.8388 56.6403 69.1788 62.8108 62.9235C68.9813 56.6681 72.5273 48.2907 72.7227 39.5063H76.6228V37.0169L72.6481 37.0584ZM70.1587 37.0584H64.1095C63.7361 31.378 61.489 25.982 57.7202 21.7156L62.0931 17.4837C66.9526 22.8907 69.8137 29.7989 70.2002 37.0584H70.1587ZM53.6542 39.5478H61.67C61.4818 45.4158 59.1016 51.0004 54.9988 55.2C50.8959 59.3996 45.3684 61.9093 39.5063 62.2342V54.1604C43.2486 53.86 46.7533 52.2067 49.3649 49.5096C51.9765 46.8124 53.5161 43.2563 53.6957 39.5063L53.6542 39.5478ZM53.5878 37.0584C53.2544 34.0878 52.0669 31.2775 50.1691 28.968L55.9195 23.4084C59.25 27.2188 61.2483 32.0107 61.6119 37.0584H53.5878ZM39.4814 6.84576C47.314 7.14569 54.7615 10.3214 60.4004 15.766L56.0274 19.9896C51.5383 15.7462 45.6767 13.2526 39.5063 12.9613L39.4814 6.84576ZM39.4814 15.376C44.9884 15.6584 50.2178 17.8807 54.2433 21.6492L48.4348 27.2254C45.9515 25.017 42.8182 23.6746 39.5063 23.4001L39.4814 15.376ZM37.0667 6.84576V12.9281C30.7208 13.235 24.7087 15.8624 20.1729 20.311C15.637 24.7597 12.8934 30.7196 12.4634 37.0584H6.37278C6.81261 29.1062 10.2016 21.6037 15.8775 16.0168C21.5535 10.4298 29.1086 7.15986 37.0667 6.84576ZM37.0667 15.376V23.4001C33.4973 23.6904 30.1394 25.211 27.5666 27.702C24.9938 30.1931 23.3656 33.5002 22.9603 37.0584H14.9196C15.3434 31.3693 17.8258 26.0296 21.9023 22.0387C25.9788 18.0477 31.3699 15.6791 37.0667 15.376ZM37.0667 70.7147C28.9422 70.386 21.2474 66.9774 15.545 61.181C9.8426 55.3846 6.56022 47.6351 6.36449 39.5063H12.4468C12.6357 46.0282 15.2786 52.2388 19.8474 56.8968C24.4162 61.5549 30.5745 64.3174 37.0916 64.6323L37.0667 70.7147ZM37.0667 62.1927C31.1973 61.8779 25.6595 59.3725 21.548 55.1719C17.4365 50.9713 15.0505 45.3811 14.8615 39.5063H22.8773C23.0569 43.2563 24.5965 46.8124 27.2081 49.5096C29.8197 52.2067 33.3244 53.86 37.0667 54.1604V62.1927ZM38.2865 51.7789C36.1884 51.7827 34.1206 51.2787 32.2596 50.31C30.3986 49.3414 28.7995 47.9368 27.5991 46.2161C26.3986 44.4954 25.6323 42.5098 25.3657 40.4288C25.099 38.3478 25.3398 36.2331 26.0677 34.2654C26.7955 32.2976 27.9886 30.5352 29.5453 29.1286C31.102 27.7219 32.9759 26.7129 35.0071 26.1875C37.0383 25.6622 39.1665 25.6361 41.2099 26.1116C43.2534 26.5871 45.1514 27.55 46.742 28.9182L39.5063 35.905V30.6275H37.0667V40.0042H46.7171V37.5148H41.3069L48.4348 30.7022C49.9602 32.6122 50.9151 34.9141 51.1897 37.3429C51.4643 39.7718 51.0474 42.2288 49.987 44.4311C48.9266 46.6334 47.2658 48.4915 45.1958 49.7914C43.1258 51.0914 40.7308 51.7803 38.2865 51.7789ZM39.5063 70.7147V64.6323C46.0234 64.3174 52.1816 61.5549 56.7504 56.8968C61.3193 52.2388 63.9622 46.0282 64.151 39.5063H70.2334C70.0373 47.6392 66.7514 55.3922 61.0438 61.1892C55.3362 66.9863 47.6352 70.3922 39.5063 70.7147Z" fill="#1C54C7"/>
</svg>
