<svg width="72" height="72" viewBox="0 0 72 72" fill="none" xmlns="http://www.w3.org/2000/svg">
<mask id="mask0_256_17608" style="mask-type:luminance" maskUnits="userSpaceOnUse" x="0" y="0" width="72" height="72">
<path d="M0 -7.94728e-07H72V72H0V-7.94728e-07Z" fill="white"/>
</mask>
<g mask="url(#mask0_256_17608)">
<path fill-rule="evenodd" clip-rule="evenodd" d="M3.03849 69.3981C6.51154 72.8712 12.1427 72.8712 15.6157 69.3981L32.9918 52.0221C33.2555 51.7584 33.4037 51.4007 33.4037 51.0277C33.4036 50.6548 33.2555 50.2971 32.9918 50.0333L22.4031 39.4448C21.8539 38.8957 20.9636 38.8957 20.4144 39.4449L3.03851 56.8209C-0.434725 60.2939 -0.43469 65.925 3.03849 69.3981ZM13.627 67.4094C11.2523 69.7841 7.40192 69.7841 5.02722 67.4094C2.65237 65.0346 2.6524 61.1843 5.0272 58.8097L5.02723 58.8096L21.4088 42.428L30.0087 51.0277L13.627 67.4094Z" fill="#1C54C7"/>
<path fill-rule="evenodd" clip-rule="evenodd" d="M29.2279 50.2454C29.7771 50.7945 30.6674 50.7945 31.2166 50.2454L35.071 46.3911C35.6202 45.8419 35.6202 44.9516 35.071 44.4024C34.5219 43.8532 33.6315 43.8532 33.0823 44.4023L30.2223 47.2623L25.1762 42.2163L30.8488 36.5438C31.3979 35.9947 31.3979 35.1043 30.8488 34.5551C30.2996 34.0059 29.4092 34.0059 28.86 34.5551L22.1931 41.222C21.9294 41.4857 21.7812 41.8434 21.7813 42.2164C21.7813 42.5893 21.9294 42.947 22.1931 43.2107L29.2279 50.2454Z" fill="#1C54C7"/>
<path fill-rule="evenodd" clip-rule="evenodd" d="M44.2806 35.1936C44.8298 35.7428 45.7202 35.7428 46.2694 35.1936L52.5798 28.8832C52.8435 28.6195 52.9917 28.2618 52.9917 27.8888C52.9917 27.5158 52.8435 27.1582 52.5798 26.8944L45.545 19.8598C44.9958 19.3106 44.1055 19.3106 43.5563 19.8598L34.5916 28.8244C34.0424 29.3735 34.0424 30.2639 34.5916 30.8131C35.1407 31.3623 36.0311 31.3623 36.5803 30.8131L44.5506 22.8429L49.5967 27.8888L44.2806 33.2049C43.7315 33.754 43.7315 34.6444 44.2806 35.1936Z" fill="#1C54C7"/>
<path fill-rule="evenodd" clip-rule="evenodd" d="M59.0539 34.2014C60.4614 35.6087 62.7433 35.6087 64.1508 34.2014L64.1509 34.2013L70.9467 27.4054L70.9468 27.4054C72.3541 25.9978 72.3541 23.7159 70.9468 22.3084L67.6876 19.0493C67.3335 18.6952 66.8178 18.5562 66.3337 18.6842L64.6268 19.1355L63.6885 18.1972L64.2953 17.0846C64.594 16.5369 64.4962 15.858 64.0551 15.4169L52.7627 4.12425C47.2634 -1.3749 38.3472 -1.37494 32.848 4.12422C32.848 4.12423 32.848 4.12422 32.848 4.12422L29.2224 7.74968C28.9587 8.0134 28.8106 8.37109 28.8105 8.74405C28.8105 9.11702 28.9587 9.47471 29.2224 9.73844L32.2615 12.7775C32.8106 13.3267 33.701 13.3267 34.2502 12.7775C35.9503 11.0774 38.7068 11.0774 40.4069 12.7775L43.554 15.9245C43.554 15.9245 43.5541 15.9245 43.554 15.9245C44.6406 17.0112 44.6406 18.7732 43.5541 19.8598C43.0049 20.4089 43.0049 21.2993 43.5541 21.8485L50.5887 28.8833C51.082 29.3765 51.8623 29.4336 52.4222 29.0174L55.0575 27.0578L55.881 27.8813L55.4296 29.5883C55.3016 30.0724 55.4407 30.588 55.7948 30.9421L59.0539 34.2014ZM61.0425 32.2126C61.0425 32.2125 61.0425 32.2125 61.0424 32.2125L58.3554 29.5254L58.8068 27.8183C58.9348 27.3342 58.7957 26.8186 58.4416 26.4645L56.1874 24.2103C55.6941 23.717 54.9138 23.6599 54.354 24.0762L51.7186 26.0357L46.4112 20.7281C47.6738 18.5834 47.3843 15.7774 45.5429 13.9358L42.3956 10.7887C42.3956 10.7887 42.3956 10.7888 42.3956 10.7887C39.9375 8.33063 36.1378 8.03167 33.3534 9.89191L32.2056 8.74409L34.8367 6.113C39.2376 1.71219 46.3729 1.71214 50.7739 6.11297C50.7739 6.11297 50.7739 6.11298 50.7739 6.11297L61.3224 16.6616L60.7155 17.7743C60.4168 18.3219 60.5146 19.0009 60.9557 19.442L63.2099 21.6962C63.564 22.0503 64.0797 22.1894 64.5638 22.0614L66.2708 21.61L68.9579 24.297C68.9579 24.297 68.958 24.297 68.958 24.2971C69.2671 24.6063 69.267 25.1075 68.958 25.4167M68.9579 25.4168L62.1622 32.2125C62.1622 32.2125 62.1622 32.2125 62.1621 32.2125C61.853 32.5216 61.3517 32.5216 61.0425 32.2126" fill="#1C54C7"/>
<path fill-rule="evenodd" clip-rule="evenodd" d="M67.4052 67.404C65.0306 69.7787 61.1803 69.7788 58.8055 67.4039L55.3385 63.937C54.7893 63.3878 53.899 63.3878 53.3498 63.937C52.8006 64.4861 52.8006 65.3765 53.3498 65.9257L56.8168 69.3927C60.2899 72.8658 65.9209 72.8659 69.394 69.3926C72.8672 65.9196 72.8672 60.2884 69.394 56.8154L50.8641 38.2854C50.6004 38.0217 50.2427 37.8735 49.8697 37.8735C49.4968 37.8735 49.1391 38.0217 48.8754 38.2854L38.2869 48.8741C37.7377 49.4232 37.7377 50.3136 38.2869 50.8628L44.4007 56.9766C44.9499 57.5258 45.8403 57.5258 46.3894 56.9766C46.9386 56.4274 46.9386 55.537 46.3894 54.9879L41.27 49.8684L49.8698 41.2685L67.4053 58.8042L67.4053 58.8042C69.7801 61.1789 69.7801 65.0292 67.4053 67.4039L67.4052 67.404Z" fill="#1C54C7"/>
<path fill-rule="evenodd" clip-rule="evenodd" d="M38.2874 50.8625C38.8366 51.4117 39.727 51.4117 40.2761 50.8625L50.8646 40.274C51.1284 40.0103 51.2765 39.6526 51.2765 39.2797C51.2765 38.9067 51.1284 38.549 50.8646 38.2853L45.8443 33.2649C44.4129 31.8333 42.092 31.8334 40.6606 33.2648L33.267 40.6585C31.8355 42.0899 31.8355 44.4106 33.267 45.8421L38.2874 50.8625ZM39.2818 47.8794L35.2557 43.8533C34.9226 43.5202 34.9226 42.9803 35.2557 42.6472L42.6493 35.2536C42.9825 34.9204 43.5225 34.9205 43.8554 35.2535L43.8555 35.2536L47.8815 39.2797L39.2818 47.8794Z" fill="#1C54C7"/>
<path fill-rule="evenodd" clip-rule="evenodd" d="M35.3121 42.0098C35.685 42.0098 36.0427 41.8616 36.3064 41.5979L41.6007 36.3036C42.1499 35.7545 42.1499 34.8641 41.6007 34.3149L15.3941 8.1083C14.8449 7.55913 13.9545 7.55913 13.4053 8.1083L8.1111 13.4026C7.56193 13.9517 7.56193 14.8421 8.1111 15.3913L34.3177 41.5979C34.5814 41.8616 34.9391 42.0098 35.3121 42.0098ZM11.0942 14.3969L14.3997 11.0914L38.6176 35.3093L35.3121 38.6148L11.0942 14.3969Z" fill="#1C54C7"/>
<path fill-rule="evenodd" clip-rule="evenodd" d="M8.37522 15.5985C8.92915 15.9348 9.64121 15.8491 10.0995 15.3908L15.3937 10.0966C15.8519 9.63833 15.9377 8.92627 15.6013 8.37234L13.2142 4.44103C13.0864 4.23042 12.9054 4.05711 12.6895 3.93846L5.83356 0.171113C5.28542 -0.130094 4.60422 -0.0330782 4.16196 0.40918L0.411916 4.15923C-0.0303507 4.60149 -0.12736 5.28271 0.173866 5.83085L3.94135 12.6866C4.06001 12.9025 4.23331 13.0835 4.4439 13.2114L8.37522 15.5985ZM6.22508 11.0025L3.14712 5.4015L5.40426 3.14436L11.0054 6.22222L12.6243 8.88845L8.89133 12.6215L6.22508 11.0025Z" fill="#1C54C7"/>
</g>
</svg>
