<svg width="80" height="69" viewBox="0 0 80 69" fill="none" xmlns="http://www.w3.org/2000/svg">
<path fill-rule="evenodd" clip-rule="evenodd" d="M57.3846 29.5005C58.0318 29.5005 58.5565 28.9758 58.5565 28.3286V13.5433C58.5565 12.6918 58.3727 11.8587 58.0241 11.0974C57.7341 10.4596 57.332 9.87595 56.8296 9.37156L49.1882 1.73015C49.1876 1.72964 49.1871 1.72912 49.1866 1.72861C49.1866 1.72859 49.1866 1.72863 49.1866 1.72861C48.6818 1.22225 48.0953 0.819984 47.4579 0.531782C46.697 0.183861 45.8647 0.000156403 45.0134 0.000156403H12.753C10.3037 0.000156403 8.31836 1.98545 8.31836 4.43485V11.9527C8.31836 12.5999 8.84303 13.1245 9.49024 13.1245C10.1374 13.1245 10.6621 12.5999 10.6621 11.9527V4.43485C10.6621 3.27987 11.5981 2.34391 12.753 2.34391H45.0134C45.5274 2.34391 46.0279 2.45481 46.4848 2.66396L46.4904 2.66652C46.8743 2.83979 47.2255 3.08093 47.5277 3.38423L47.5293 3.38583L55.1691 11.0256C55.1695 11.0261 55.1699 11.0265 55.1703 11.0269C55.4749 11.3329 55.7167 11.6847 55.8911 12.0687L55.8927 12.0722C56.1018 12.5286 56.2128 13.0294 56.2128 13.5433V28.3286C56.2128 28.9758 56.7374 29.5005 57.3846 29.5005Z" fill="#1C54C7"/>
<path fill-rule="evenodd" clip-rule="evenodd" d="M9.49024 51.9844C10.1374 51.9844 10.6621 51.4597 10.6621 50.8125V17.7156C10.6621 17.0684 10.1374 16.5437 9.49024 16.5437C8.84303 16.5437 8.31836 17.0684 8.31836 17.7156V50.8125C8.31836 51.4597 8.84303 51.9844 9.49024 51.9844Z" fill="#1C54C7"/>
<path fill-rule="evenodd" clip-rule="evenodd" d="M45.8008 8.47304C45.8008 10.8374 47.7192 12.7559 50.0836 12.7559H56.9586C57.357 12.7559 57.7281 12.5535 57.9438 12.2185C58.1595 11.8836 58.1903 11.462 58.0255 11.0993C57.7349 10.4595 57.3329 9.87634 56.8295 9.371L49.1888 1.73037C49.1885 1.73006 49.1882 1.72976 49.1879 1.72945C48.6818 1.22158 48.095 0.818803 47.4546 0.529868C47.092 0.366232 46.6711 0.397774 46.3369 0.613632C46.0026 0.82949 45.8008 1.20018 45.8008 1.59804V8.47304ZM50.0836 10.4121C49.0136 10.4121 48.1445 9.54302 48.1445 8.47304V4.00063L54.556 10.4121H50.0836Z" fill="#1C54C7"/>
<path fill-rule="evenodd" clip-rule="evenodd" d="M69.9808 48.7683C70.3182 48.7456 70.6294 48.5782 70.8343 48.3092C71.8114 47.0263 72.5793 45.7789 73.2992 44.6063C74.537 42.6104 74.2373 40.0249 72.5768 38.3644L62.5238 28.3114C60.864 26.6516 58.2804 26.3517 56.2849 27.587C55.1623 28.2673 53.5165 29.3163 52.5645 30.0653C52.3012 30.2724 52.1391 30.5823 52.1193 30.9167C52.0994 31.2511 52.2235 31.5781 52.4604 31.8149L69.0734 48.4278C69.3126 48.6669 69.6434 48.7911 69.9808 48.7683ZM55.0911 31.131C55.8657 30.6041 56.7748 30.0305 57.5045 29.5884C57.5082 29.5862 57.5119 29.584 57.5155 29.5817C58.5865 28.9168 59.9748 29.077 60.8665 29.9687L70.9195 40.0217C71.8113 40.9134 71.9715 42.3018 71.3064 43.3725L71.3032 43.3778C70.804 44.1909 70.3104 44.9921 69.7577 45.7975L55.0911 31.131Z" fill="#1C54C7"/>
<path fill-rule="evenodd" clip-rule="evenodd" d="M68.7286 37.3467C69.0394 37.3467 69.3375 37.2232 69.5572 37.0034L79.6572 26.902C80.1148 26.4443 80.1148 25.7023 79.6571 25.2447C79.1994 24.7871 78.4574 24.7871 77.9998 25.2448L68.7285 34.5175L66.3702 32.1592L79.6572 18.8722C80.1148 18.4145 80.1148 17.6725 79.6572 17.2149C79.1995 16.7573 78.4575 16.7573 77.9999 17.2149L63.8843 31.3305C63.4266 31.7882 63.4266 32.5302 63.8843 32.9878L67.8999 37.0034C68.1197 37.2232 68.4177 37.3467 68.7286 37.3467Z" fill="#1C54C7"/>
<path fill-rule="evenodd" clip-rule="evenodd" d="M61.4147 63.2928C61.984 63.6006 62.6951 63.3886 63.0029 62.8193L70.9304 48.1563C71.1768 47.7004 71.0946 47.1368 70.7281 46.7704L54.1152 30.1575C53.7487 29.7911 53.1851 29.7088 52.7292 29.9553L35.0878 39.493C33.6542 40.2681 32.7383 41.5752 32.4058 43.0036C32.259 43.634 32.6511 44.2639 33.2814 44.4107C33.9118 44.5574 34.5418 44.1654 34.6885 43.535C34.8769 42.7256 35.3901 41.9939 36.2024 41.5547C36.2024 41.5547 36.2024 41.5547 36.2024 41.5547L53.0755 32.4324L68.4532 47.81L60.9411 61.7046C60.6333 62.274 60.8453 62.985 61.4147 63.2928Z" fill="#1C54C7"/>
<path fill-rule="evenodd" clip-rule="evenodd" d="M9.49032 66.2773C5.54329 66.2773 2.34375 63.0778 2.34375 59.1309C2.34375 55.1841 5.54329 51.9845 9.49032 51.9845C10.1375 51.9845 10.6622 51.4599 10.6622 50.8126C10.6622 44.4658 15.8072 39.3206 22.1541 39.3206C24.0892 39.3206 25.9089 39.7986 27.5054 40.6417C28.0778 40.9439 28.7867 40.725 29.0889 40.1527C29.3912 39.5804 29.1722 38.8714 28.5999 38.5692C26.6743 37.5523 24.4799 36.9769 22.1541 36.9769C14.8849 36.9769 8.92518 42.5828 8.36196 49.7071C3.65244 50.265 0 54.2714 0 59.1309C0 64.3722 4.2489 68.6211 9.49032 68.6211H57.3844C60.5855 68.6211 63.1805 66.0261 63.1805 62.825C63.1805 59.6239 60.5855 57.0289 57.3844 57.0289H52.9355C52.8439 51.6266 48.4358 47.2755 43.0117 47.2755C42.5028 47.2755 42.0031 47.3146 41.5154 47.3891C40.5489 44.2999 37.6673 42.058 34.2586 42.058C33.527 42.058 32.8208 42.1634 32.153 42.3555C31.531 42.5344 31.1718 43.1836 31.3507 43.8056C31.5296 44.4276 32.1788 44.7868 32.8008 44.6079C33.2651 44.4744 33.7534 44.4017 34.2586 44.4017C36.9171 44.4017 39.1158 46.3755 39.4683 48.938C39.5145 49.2738 39.7039 49.5732 39.9876 49.7589C40.2713 49.9445 40.6215 49.9982 40.9478 49.906C41.6053 49.7203 42.2967 49.6192 43.0117 49.6192C47.1988 49.6192 50.5932 53.0135 50.5932 57.2005C50.5932 57.4898 50.575 57.7786 50.5421 58.0684C50.5044 58.4002 50.6099 58.7322 50.8323 58.9812C51.0546 59.2303 51.3726 59.3727 51.7064 59.3727H57.3844C59.2911 59.3727 60.8368 60.9183 60.8368 62.825C60.8368 64.7317 59.2911 66.2773 57.3844 66.2773H9.49032Z" fill="#1C54C7"/>
<path fill-rule="evenodd" clip-rule="evenodd" d="M13.1124 59.7562C13.6123 59.3451 13.6843 58.6066 13.2732 58.1067C11.6411 56.1221 10.6621 53.5832 10.6621 50.8128C10.6621 50.1655 10.1374 49.6409 9.49024 49.6409C8.84303 49.6409 8.31836 50.1655 8.31836 50.8128C8.31836 54.146 9.4987 57.2068 11.4629 59.5954C11.874 60.0953 12.6125 60.1673 13.1124 59.7562Z" fill="#1C54C7"/>
<path fill-rule="evenodd" clip-rule="evenodd" d="M28.1916 52.1069C28.8257 51.9772 29.2346 51.3581 29.1049 50.724C29.035 50.382 28.998 50.0272 28.998 49.6623C28.998 47.2643 30.6036 45.2381 32.8009 44.6059C33.4228 44.4269 33.7819 43.7776 33.603 43.1556C33.424 42.5337 32.7747 42.1745 32.1528 42.3535C28.9784 43.2669 26.6543 46.1917 26.6543 49.6623C26.6543 50.1859 26.7074 50.698 26.8087 51.1935C26.9383 51.8276 27.5575 52.2365 28.1916 52.1069Z" fill="#1C54C7"/>
<path fill-rule="evenodd" clip-rule="evenodd" d="M35.7398 52.1876C36.219 52.6225 36.9601 52.5866 37.3951 52.1074C38.3377 51.0689 39.5625 50.2942 40.946 49.9037C41.5689 49.7279 41.9313 49.0805 41.7555 48.4576C41.5797 47.8347 40.9322 47.4723 40.3093 47.6481C38.4931 48.1607 36.8904 49.1761 35.6596 50.5322C35.2246 51.0115 35.2605 51.7526 35.7398 52.1876Z" fill="#1C54C7"/>
<path fill-rule="evenodd" clip-rule="evenodd" d="M54.1805 59.1802C54.7212 59.5358 55.4479 59.3857 55.8035 58.8449L62.7747 48.2437C63.1304 47.7029 62.9802 46.9762 62.4395 46.6206C61.8987 46.265 61.1721 46.4151 60.8165 46.9559L53.8452 57.5572C53.4896 58.0979 53.6397 58.8246 54.1805 59.1802Z" fill="#1C54C7"/>
<path fill-rule="evenodd" clip-rule="evenodd" d="M39.396 48.3176C39.7516 48.8584 40.4783 49.0084 41.019 48.6528L45.5454 45.6761C46.0862 45.3205 46.2363 44.5938 45.8807 44.0531C45.525 43.5123 44.7984 43.3622 44.2576 43.7179L39.7312 46.6946C39.1905 47.0502 39.0404 47.7768 39.396 48.3176Z" fill="#1C54C7"/>
<path fill-rule="evenodd" clip-rule="evenodd" d="M48.728 42.1818C49.0836 42.7226 49.8103 42.8727 50.351 42.5171L53.987 40.1262C54.5277 39.7706 54.6778 39.0439 54.3222 38.5031C53.9666 37.9624 53.24 37.8123 52.6992 38.1679L49.0633 40.5588C48.5225 40.9144 48.3724 41.6411 48.728 42.1818Z" fill="#1C54C7"/>
<path fill-rule="evenodd" clip-rule="evenodd" d="M48.73 52.2124C49.1876 52.6701 49.9296 52.6701 50.3872 52.2124L58.2935 44.3062C58.7511 43.8485 58.7511 43.1065 58.2935 42.6489C57.8358 42.1912 57.0939 42.1912 56.6362 42.6489L48.73 50.5551C48.2723 51.0128 48.2723 51.7548 48.73 52.2124Z" fill="#1C54C7"/>
<path fill-rule="evenodd" clip-rule="evenodd" d="M16.4551 12.3047C16.4551 12.9519 16.9797 13.4766 17.627 13.4766H30.2063C30.8535 13.4766 31.3782 12.9519 31.3782 12.3047C31.3782 11.6575 30.8535 11.1328 30.2063 11.1328H17.627C16.9797 11.1328 16.4551 11.6575 16.4551 12.3047Z" fill="#1C54C7"/>
<path fill-rule="evenodd" clip-rule="evenodd" d="M16.4551 21.3022C16.4551 21.9495 16.9797 22.4741 17.627 22.4741H44.9031C45.5503 22.4741 46.0749 21.9495 46.0749 21.3022C46.0749 20.655 45.5503 20.1304 44.9031 20.1304H17.627C16.9797 20.1304 16.4551 20.655 16.4551 21.3022Z" fill="#1C54C7"/>
<path fill-rule="evenodd" clip-rule="evenodd" d="M16.4551 27.1094C16.4551 27.7566 16.9797 28.2812 17.627 28.2812H44.9031C45.5503 28.2812 46.0749 27.7566 46.0749 27.1094C46.0749 26.4622 45.5503 25.9375 44.9031 25.9375H17.627C16.9797 25.9375 16.4551 26.4622 16.4551 27.1094Z" fill="#1C54C7"/>
<path fill-rule="evenodd" clip-rule="evenodd" d="M16.4551 32.9165C16.4551 33.5637 16.9797 34.0884 17.627 34.0884H36.5293C37.1765 34.0884 37.7012 33.5637 37.7012 32.9165C37.7012 32.2693 37.1765 31.7446 36.5293 31.7446H17.627C16.9797 31.7446 16.4551 32.2693 16.4551 32.9165Z" fill="#1C54C7"/>
</svg>
