<svg width="86" height="85" viewBox="0 0 86 85" fill="none" xmlns="http://www.w3.org/2000/svg">
<path d="M42.75 84.9953C31.5239 84.9953 20.7576 80.5358 12.8195 72.5977C4.88143 64.6597 0.421875 53.8933 0.421875 42.6672C0.421875 31.4411 4.88143 20.6748 12.8195 12.7367C20.7576 4.79865 31.5239 0.339095 42.75 0.339094C49.3464 0.317258 55.8528 1.86961 61.7287 4.86722C62.0752 5.04303 62.3836 5.28535 62.6364 5.58035C62.8892 5.87535 63.0814 6.21726 63.2021 6.58655C63.3227 6.95583 63.3695 7.34527 63.3396 7.73262C63.3098 8.11997 63.2039 8.49765 63.0281 8.84409C62.8523 9.19054 62.61 9.49896 62.315 9.75175C62.02 10.0045 61.6781 10.1968 61.3088 10.3174C60.9395 10.4381 60.5501 10.4848 60.1627 10.455C59.7754 10.4251 59.3977 10.3193 59.0512 10.1435C54.0108 7.54565 48.4205 6.19534 42.75 6.20597C35.5481 6.20597 28.5079 8.34109 22.5192 12.3414C16.5305 16.3418 11.8622 22.0278 9.10436 28.6807C6.34652 35.3336 5.62295 42.6549 7.02511 49.7189C8.42727 56.783 11.8922 63.2728 16.982 68.3681C22.0717 73.4633 28.5578 76.9353 35.6203 78.3451C42.6829 79.7549 50.0049 79.0392 56.6608 76.2885C63.3167 73.5379 69.0077 68.8758 73.0145 62.8914C77.0214 56.907 79.1641 49.8691 79.1719 42.6672C79.1924 42.3394 79.1924 42.0106 79.1719 41.6828C79.0988 40.8996 79.3398 40.1194 79.8419 39.5139C80.3441 38.9084 81.0662 38.5272 81.8494 38.4541C82.6326 38.381 83.4128 38.622 84.0183 39.1241C84.6238 39.6263 85.005 40.3484 85.0781 41.1316V42.6672C85.0677 53.8901 80.6048 64.6504 72.669 72.5862C64.7332 80.522 53.9729 84.9849 42.75 84.9953Z" fill="#149859"/>
<path d="M42.0416 56.094C41.6589 56.0997 41.2791 56.0256 40.9266 55.8765C40.5741 55.7273 40.2565 55.5064 39.9941 55.2277L20.976 36.564C20.4229 36.0103 20.1123 35.2597 20.1123 34.4771C20.1123 33.6945 20.4229 32.944 20.976 32.3902C21.5412 31.8441 22.2965 31.5389 23.0825 31.5389C23.8685 31.5389 24.6238 31.8441 25.1891 32.3902L42.081 49.0459L80.0778 11.679C80.6431 11.1329 81.3984 10.8276 82.1844 10.8276C82.9704 10.8276 83.7257 11.1329 84.291 11.679C84.844 12.2327 85.1546 12.9833 85.1546 13.7659C85.1546 14.5484 84.844 15.299 84.291 15.8527L44.2072 55.2277C43.9254 55.5135 43.5875 55.738 43.2149 55.887C42.8422 56.0361 42.4428 56.1065 42.0416 56.094Z" fill="#149859"/>
</svg>
