<svg width="64" height="61" viewBox="0 0 64 61" fill="none" xmlns="http://www.w3.org/2000/svg">
<path d="M58.6541 38.125C59.4824 35.4338 59.8588 32.5931 59.8588 29.7524C59.8588 13.3811 46.4565 0 29.8918 0C13.3271 0 0 13.3811 0 29.7524C0 46.1238 13.4024 59.5049 29.9671 59.5049C34.1835 59.5049 38.2494 58.6078 42.0894 56.9632C44.4235 59.4301 47.7365 61 51.3506 61C58.3529 61 64 55.3186 64 48.4412C64 44.1801 61.8918 40.3676 58.6541 38.125ZM29.8918 57.1127C14.6824 57.1127 2.33412 44.8529 2.33412 29.7524C2.33412 14.652 14.6824 2.39216 29.8918 2.39216C45.1012 2.39216 57.4494 14.652 57.4494 29.7524C57.4494 32.2194 57.1482 34.6115 56.4706 36.9289C54.8894 36.2561 53.1576 35.8076 51.3506 35.8076C44.3482 35.8076 38.7012 41.489 38.7012 48.3664C38.7012 50.7586 39.3788 53.076 40.5835 54.9448C37.1953 56.3652 33.6565 57.1127 29.8918 57.1127ZM51.3506 58.6078C45.7035 58.6078 41.0353 54.0478 41.0353 48.3664C41.0353 42.7598 45.6282 38.125 51.3506 38.125C56.9976 38.125 61.6659 42.685 61.6659 48.3664C61.6659 54.0478 56.9976 58.6078 51.3506 58.6078Z" fill="#1C54C7"/>
<path d="M31.2132 24.2861V13.1771C31.2132 12.515 30.6834 12 30.0022 12C29.321 12 28.7912 12.515 28.7912 13.1771V24.2861C26.5963 24.8011 25.0068 26.7139 25.0068 28.9946C25.0068 30.0245 25.3853 30.9809 25.9151 31.7902L21.2982 37.0872C20.8441 37.6022 20.9197 38.3379 21.4496 38.7057C21.6766 38.9264 21.9794 39 22.2064 39C22.5092 39 22.8876 38.8529 23.1147 38.5586L27.7316 33.3352C28.4128 33.703 29.1696 33.8501 30.0022 33.8501C32.8026 33.8501 34.9975 31.6431 34.9975 28.9946C35.0732 26.7139 33.4081 24.8011 31.2132 24.2861ZM30.0022 31.5695C28.5641 31.5695 27.4288 30.4659 27.4288 29.0681C27.4288 27.6703 28.5641 26.5668 30.0022 26.5668C31.4402 26.5668 32.5755 27.6703 32.5755 29.0681C32.6512 30.3924 31.4402 31.5695 30.0022 31.5695Z" fill="#1C54C7"/>
<path d="M9.83333 29H5.16667C4.51042 29 4 29.4375 4 30C4 30.5625 4.51042 31 5.16667 31H9.83333C10.4896 31 11 30.5625 11 30C11 29.4375 10.4896 29 9.83333 29Z" fill="#1C54C7"/>
<path d="M30 4C29.4375 4 29 4.51042 29 5.16667V9.83333C29 10.4896 29.5 11 30 11C30.5625 11 31 10.4896 31 9.83333V5.16667C31 4.51042 30.5625 4 30 4Z" fill="#1C54C7"/>
<path d="M54.8333 29H50.1667C49.5104 29 49 29.4375 49 30C49 30.5625 49.5104 31 50.1667 31H54.8333C55.4896 31 56 30.5625 56 30C56 29.4375 55.4896 29 54.8333 29Z" fill="#1C54C7"/>
<path d="M30 48C29.4375 48 29 48.5104 29 49.1667V53.8333C29 54.4896 29.4375 55 30 55C30.5625 55 31 54.4896 31 53.8333V49.1667C31 48.5104 30.5625 48 30 48Z" fill="#1C54C7"/>
<path d="M47.2614 51.2283L48.1364 50.5197C49.5682 49.3858 50.7614 48.1811 50.7614 46.7638C50.7614 45.1339 49.5682 44 47.2614 44C45.9091 44 44.7955 44.4252 44 44.9213L44.6364 46.4094C45.1136 46.0551 45.9091 45.7008 46.7841 45.7008C47.8977 45.7008 48.375 46.2677 48.375 46.9764C48.375 47.9685 47.2614 48.9606 45.1136 50.7323L44 51.7244V53H51V51.2992L47.2614 51.2283Z" fill="#1C54C7"/>
<path d="M57.9175 49.256V44H55.3918L52 49.472V50.84H55.9691V53H57.9175V50.84H59V49.256H57.9175ZM55.8969 47.312V49.256H53.8763L55.1031 47.312C55.3918 46.736 55.6082 46.232 55.8969 45.656H55.9691C55.8969 46.232 55.8969 46.736 55.8969 47.312Z" fill="#1C54C7"/>
</svg>
