<svg width="512" height="512" viewBox="0 0 512 512" fill="none" xmlns="http://www.w3.org/2000/svg">
<rect width="512" height="512" rx="100" fill="#0A0B0F"/>
<path d="M358.642 248.686V247.949C407.282 241.398 431.602 221.392 431.602 187.982C431.602 166.318 421.347 150.887 400.858 141.755C380.368 132.573 349.664 127.999 308.665 127.999H284.872C305.32 130.998 324.817 135.455 332.579 142.09C333.046 142.475 333.471 142.827 333.856 143.229C334.667 144.017 335.417 144.871 336.085 145.759C341.415 152.947 344.071 165.547 344.071 183.592V200.766C344.071 216.617 341.193 228.446 335.011 236.07C325.608 247.58 291.458 250.915 291.458 250.915C291.458 250.915 332.782 254.969 344.071 266.614C351.914 274.74 356.028 286.72 356.028 302.805V322.174C356.028 340.219 352.765 353.875 346.3 363.14C339.835 372.389 328.445 377.047 312.252 377.047H291.478V384H306.496C351.873 384 386.692 378.689 410.869 368.066C435.047 357.477 447.147 338.896 447.147 312.305C447.106 275.98 417.619 254.785 358.642 248.686Z" fill="white"/>
<path d="M245.405 248.686V247.949C294.044 241.398 318.364 221.392 318.364 187.982C318.364 166.318 308.11 150.887 287.62 141.755C267.13 132.573 236.386 127.999 195.387 127.999H63.1465V134.952H91.9049V377.03H63.1465V383.983H193.218C238.595 383.983 273.413 378.672 297.591 368.049C321.769 357.46 333.869 338.878 333.869 312.288C333.848 275.98 304.34 254.785 245.405 248.686ZM178.14 134.952H192.306C207.324 134.952 217.518 138.588 222.807 145.776C228.097 152.964 230.793 165.564 230.793 183.609V200.783C230.793 216.633 227.773 228.395 221.733 236.087C215.694 243.744 204.972 247.597 189.671 247.597H178.14V134.952ZM242.709 322.174C242.709 340.219 239.507 353.875 232.981 363.14C226.516 372.389 215.167 377.047 198.933 377.047H178.14V254.567H188.333C208.641 254.567 222.807 258.588 230.793 266.631C238.717 274.673 242.689 286.737 242.689 302.822V322.174H242.709Z" fill="white"/>
</svg>
