<svg width="100" height="100" viewBox="0 0 100 100" fill="none" xmlns="http://www.w3.org/2000/svg">
<rect width="100" height="100" rx="20" fill="#0A0B0F"/>
<path d="M70.0469 48.5717V48.4277C79.5469 47.1482 84.2969 43.2409 84.2969 36.7155C84.2969 32.4842 82.294 29.4702 78.2921 27.6867C74.2902 25.8934 68.2933 25 60.2857 25H55.6387C59.6325 25.5858 63.4404 26.4563 64.9564 27.7522C65.0476 27.8274 65.1307 27.8961 65.2059 27.9747C65.3642 28.1285 65.5108 28.2954 65.6413 28.4688C66.6823 29.8727 67.2009 32.3336 67.2009 35.8581V39.2124C67.2009 42.3082 66.6389 44.6186 65.4315 46.1075C63.5948 48.3557 56.9251 49.007 56.9251 49.007C56.9251 49.007 64.9962 49.7989 67.2009 52.0732C68.7327 53.6603 69.5364 56.0002 69.5364 59.1418V62.9248C69.5364 66.4493 68.8989 69.1164 67.6363 70.926C66.3736 72.7325 64.149 73.6422 60.9864 73.6422H56.9289V75.0003H59.8621C68.7248 75.0003 75.5253 73.9629 80.2475 71.8881C84.9698 69.8199 87.333 66.1907 87.333 60.9973C87.3251 53.9026 81.5658 49.7629 70.0469 48.5717Z" fill="white"/>
<path d="M47.9303 48.5717V48.4277C57.4303 47.1482 62.1803 43.2409 62.1803 36.7155C62.1803 32.4842 60.1774 29.4702 56.1755 27.6867C52.1736 25.8934 46.1688 25 38.1612 25H12.333V26.3581H17.9499V73.6388H12.333V74.9969H37.7376C46.6003 74.9969 53.4006 73.9595 58.123 71.8848C62.8452 69.8166 65.2085 66.1874 65.2085 60.994C65.2044 53.9026 59.4411 49.7629 47.9303 48.5717ZM34.7927 26.3581H37.5594C40.4926 26.3581 42.4837 27.0682 43.5168 28.4721C44.5498 29.876 45.0764 32.3369 45.0764 35.8614V39.2157C45.0764 42.3114 44.4866 44.6087 43.307 46.1109C42.1274 47.6063 40.0333 48.359 37.0448 48.359H34.7927V26.3581ZM47.4038 62.9248C47.4038 66.4493 46.7785 69.1164 45.5038 70.926C44.2411 72.7325 42.0245 73.6422 38.8538 73.6422H34.7927V49.7203H36.7836C40.7498 49.7203 43.5168 50.5057 45.0764 52.0765C46.624 53.6473 47.3999 56.0035 47.3999 59.1451V62.9248H47.4038Z" fill="white"/>
</svg>
