<svg width="384" height="256" viewBox="0 0 384 256" fill="none" xmlns="http://www.w3.org/2000/svg">
<path d="M295.496 120.687V119.95C344.136 113.399 368.456 93.3933 368.456 59.9833C368.456 38.319 358.201 22.8875 337.711 13.756C317.221 4.57415 286.518 0 245.518 0H221.726C242.174 2.99916 261.67 7.45602 269.433 14.0911C269.899 14.4764 270.325 14.8283 270.71 15.2304C271.52 16.0178 272.271 16.8724 272.939 17.7604C278.269 24.9484 280.924 37.5482 280.924 55.5935V72.7674C280.924 88.6181 278.047 100.447 271.865 108.07C262.461 119.581 228.312 122.916 228.312 122.916C228.312 122.916 269.636 126.97 280.924 138.615C288.767 146.741 292.882 158.721 292.882 174.806V194.175C292.882 212.22 289.618 225.876 283.153 235.141C276.688 244.39 265.298 249.048 249.106 249.048H228.332V256.001H243.35C288.727 256.001 323.545 250.69 347.723 240.067C371.901 229.478 384 210.897 384 184.306C383.96 147.981 354.472 126.786 295.496 120.687Z" fill="white"/>
<path d="M182.258 120.687V119.95C230.898 113.399 255.218 93.3933 255.218 59.9833C255.218 38.319 244.963 22.8875 224.473 13.756C203.984 4.57415 173.239 0 132.24 0H0V6.95337H28.7584V249.031H0V255.984H130.071C175.449 255.984 210.266 250.673 234.445 240.05C258.623 229.461 270.722 210.879 270.722 184.289C270.702 147.981 241.193 126.786 182.258 120.687ZM114.993 6.95337H129.159C144.177 6.95337 154.372 10.5892 159.661 17.7772C164.95 24.9651 167.646 37.5649 167.646 55.6102V72.7842C167.646 88.6345 164.626 100.396 158.587 108.088C152.547 115.745 141.826 119.598 126.525 119.598H114.993V6.95337ZM179.562 194.175C179.562 212.22 176.361 225.876 169.835 235.141C163.37 244.39 152.02 249.048 135.786 249.048H114.993V126.568H125.187C145.494 126.568 159.661 130.589 167.646 138.632C175.57 146.674 179.542 158.738 179.542 174.823V194.175H179.562Z" fill="white"/>
</svg>
