<svg width="120" height="56" viewBox="0 0 120 56" fill="none" xmlns="http://www.w3.org/2000/svg">
<path d="M87.2912 28.0002C87.2912 42.7183 75.0724 54.6496 59.9996 54.6496C44.9269 54.6496 32.708 42.7183 32.708 28.0002C32.708 13.2821 44.9269 1.35071 59.9996 1.35071C75.0724 1.35071 87.2912 13.2821 87.2912 28.0002Z" fill="#1E1D51"/>
<path d="M59.894 9.29541C57.5631 9.33822 55.3269 9.7433 53.2481 10.4518V25.0817H59.894V9.29541ZM47.8055 13.6554C44.3398 16.5277 41.8958 20.4891 41.0648 24.9771H47.8055V13.6554ZM53.013 30.2722V45.5669C55.1464 46.2742 57.4411 46.6787 59.8333 46.7214V30.2722H53.013ZM41.043 30.3139C41.7339 35.0934 44.2296 39.321 47.8481 42.3429V30.3139H41.043Z" fill="url(#paint0_linear_655_5483)"/>
<path d="M60.377 9.48291C70.6748 9.67955 78.9625 17.8971 78.9625 27.9996C78.9625 38.1022 70.6748 46.3152 60.377 46.5117V9.48291Z" fill="url(#paint1_linear_655_5483)"/>
<path d="M52.7517 10.6836V25.4959H59.7889V29.8684H52.7517V45.3544C51.1375 44.7037 49.6207 43.843 48.2426 42.7956V29.8684H40.9113C40.8493 29.2545 40.8183 28.6379 40.8184 28.0209C40.8182 27.1764 40.8764 26.3328 40.9926 25.4959H48.2426V13.2434C49.6207 12.1956 51.1374 11.3346 52.7517 10.6836Z" fill="url(#paint2_linear_655_5483)"/>
<path d="M65.1777 15.7195H71.7013V16.6083H65.1777V15.7195Z" fill="#9D0D16"/>
<path d="M60.0799 3.54738e-05C50.1518 -0.0154008 40.4852 5.0075 35.168 14.0003C27.2542 27.385 31.9564 44.52 45.6636 52.2476C59.3708 59.9752 76.9187 55.3837 84.8325 41.999C92.7463 28.6143 88.0441 11.4793 74.3369 3.75171C69.8393 1.21607 64.9285 0.00756105 60.0799 3.54738e-05ZM60.0002 1.34996C75.0652 1.34996 87.2921 13.2892 87.2921 27.9996C87.2921 42.7102 75.0652 54.6493 60.0002 54.6493C44.9353 54.6493 32.7084 42.7102 32.7084 27.9996C32.7084 13.2892 44.9353 1.34996 60.0002 1.34996ZM58.357 2.28325V7.80708H60.0808V5.94607L61.4728 7.80708L63.7409 8.13115L61.7753 5.6507C62.2066 5.56318 63.0155 5.11597 63.0155 4.17391C63.0155 2.76355 61.7149 2.3129 60.8982 2.3129L58.357 2.28325ZM60.535 3.4943C61.0039 3.4943 61.3363 3.80463 61.3514 4.14429C61.3666 4.48397 61.1259 4.85258 60.5957 4.85258H60.0505L60.0211 3.52393L60.535 3.4943ZM68.661 3.80818C68.6304 3.80801 68.5995 3.80851 68.5691 3.8091C67.0819 3.83867 65.8245 4.71916 65.5235 6.15714C65.2237 7.58934 66.5558 9.28407 68.1841 9.64495C69.9508 10.0365 71.5995 9.21738 71.9712 7.358C72.2895 5.76584 71.091 4.20248 69.3115 3.87111C69.0926 3.83037 68.8751 3.80946 68.661 3.80818ZM47.8008 5.26646L46.2581 6.06363L46.9835 12.2958L48.6172 11.1143L48.4057 10.1699L50.1902 9.13573L51.0066 9.72645L52.8821 8.98853L47.8008 5.26646ZM68.7009 5.33496C68.8057 5.33525 68.9121 5.34461 69.0195 5.36458C69.8781 5.52446 70.4231 6.24934 70.273 7.0182C70.1229 7.78708 69.3338 8.31043 68.4752 8.15056C67.6166 7.99068 67.1929 7.17878 67.3431 6.4099C67.4744 5.73716 67.9669 5.333 68.7009 5.33496ZM47.8615 7.24506L49.1614 8.22001L48.2237 8.75148L47.8615 7.24506ZM76.6268 8.04316L71.7872 11.3217L73.2086 12.4142L75.5383 10.6421L74.3578 13.5068L74.9628 14.0679L77.9278 12.8865L76.1433 15.2493L77.2318 16.7558L80.65 11.9708L79.5605 10.7014L76.7776 11.7939L77.8974 9.04681L76.6268 8.04316ZM60.0002 8.74129C49.1176 8.74129 40.2769 17.374 40.2769 28.0006C40.2769 38.6271 49.1176 47.2589 60.0002 47.2589C70.8829 47.2589 79.7236 38.6271 79.7236 28.0006C79.7236 17.374 70.8829 8.74129 60.0002 8.74129ZM41.9324 9.3718L39.5733 12.03L43.6866 15.6039L44.8367 14.3049L43.2637 12.9457L44.4129 11.7347L43.4144 10.8486L42.2652 12.0893L41.6906 11.5578L42.9309 10.2282L41.9324 9.3718ZM59.6191 9.48383V24.7683H53.4833V10.6032C55.4027 9.91717 57.467 9.52531 59.6191 9.48383ZM60.3776 9.48383C67.5998 9.62172 73.8329 13.7051 76.9122 19.6167C76.8727 19.5651 76.8322 19.5142 76.7908 19.4639C76.0364 18.5488 75.0859 17.9419 74.2762 17.4335C74.2118 17.3932 74.1365 17.3729 74.0601 17.3751C74.0018 17.3768 73.9448 17.3915 73.8933 17.4182C73.8418 17.4448 73.7973 17.4827 73.7633 17.5288C73.5749 17.7836 73.2191 17.9955 72.7553 17.9955H69.2613C69.0859 17.9955 68.9194 18.0421 68.7758 18.1436C68.6322 18.2452 68.5046 18.4268 68.5046 18.6417V19.0306C68.5028 19.0329 68.4997 19.0388 68.4847 19.05C68.4505 19.0757 68.3833 19.1028 68.3083 19.1028H65.2978L65.3007 18.8575V18.8528C65.3007 18.4053 65.0669 17.9987 64.7061 17.7418L64.7004 17.7372L64.6957 17.7344L63.3796 16.8631L63.3777 16.8613L63.3758 16.8604C63.1663 16.7253 62.9322 16.6613 62.7112 16.6659C62.6386 16.6675 62.5664 16.6769 62.4959 16.6937C62.2183 16.7602 61.9924 16.9314 61.8464 17.1502C61.5545 17.5878 61.6216 18.2794 62.183 18.6714L62.8003 19.1325L62.805 19.1362L62.8098 19.139C62.9397 19.2297 63.0117 19.3394 63.0117 19.3695L62.9966 20.3463V20.3519C62.9966 20.3638 62.9947 20.3668 62.9937 20.3713C62.9764 20.3713 62.9432 20.3675 62.8742 20.3454C62.7283 20.2987 62.6175 20.2385 62.4456 20.1751C62.2738 20.1117 62.0529 20.0612 61.7687 20.0612C61.2682 20.0612 60.8571 20.2817 60.5995 20.575C60.5121 20.6746 60.4376 20.7844 60.3777 20.9019V9.48383H60.3776ZM52.7248 10.893V25.509H59.6191V29.8236H52.7248V45.1044C51.1421 44.4617 49.656 43.6123 48.3071 42.5795V29.8236H41.1246C41.0639 29.2177 41.0335 28.6093 41.0335 28.0006C41.0334 27.1673 41.0904 26.3349 41.2042 25.509H48.3071V13.4188C49.656 12.3858 51.1421 11.5361 52.7248 10.893ZM65.5813 13.7401C65.2714 13.7401 65.02 13.9857 65.02 14.2883C65.02 14.5908 65.2715 14.8364 65.5813 14.8364C65.8912 14.8364 66.1426 14.5908 66.1426 14.2883C66.1426 13.9857 65.8912 13.7401 65.5813 13.7401ZM67.0112 13.7401C66.7013 13.7401 66.4498 13.9857 66.4498 14.2883C66.4498 14.5908 66.7013 14.8364 67.0112 14.8364C67.3211 14.8364 67.5725 14.5908 67.5725 14.2883C67.5725 13.9857 67.3211 13.7401 67.0112 13.7401ZM68.4401 13.7401C68.1303 13.7401 67.8788 13.9857 67.8788 14.2883C67.8788 14.5908 68.1303 14.8364 68.4401 14.8364C68.75 14.8364 69.0014 14.5908 69.0014 14.2883C69.0014 13.9857 68.75 13.7401 68.4401 13.7401ZM69.869 13.7401C69.5592 13.7401 69.3077 13.9857 69.3077 14.2883C69.3077 14.5908 69.5592 14.8364 69.869 14.8364C70.1789 14.8364 70.4304 14.5908 70.4304 14.2883C70.4304 13.9857 70.1789 13.7401 69.869 13.7401ZM71.2989 13.7401C70.9891 13.7401 70.7376 13.9857 70.7376 14.2883C70.7376 14.5908 70.9891 14.8364 71.2989 14.8364C71.6088 14.8364 71.8602 14.5908 71.8602 14.2883C71.8602 13.9857 71.6088 13.7401 71.2989 13.7401ZM47.5486 14.0318V24.7683H41.3218C42.0895 20.5121 44.3468 16.7557 47.5486 14.0318ZM65.1783 15.1724V16.0613H71.7019V15.1724H65.1783ZM65.1783 16.3687V17.2575H71.7019V16.3687H65.1783ZM83.3419 16.3724L78.1998 18.4103L79.6515 21.7185L81.0122 21.1574L80.2565 19.4732L80.8918 19.1778L81.6181 20.8027L82.8574 20.3L82.1624 18.7352L82.7674 18.4695L83.4927 20.1528L84.7633 19.6509L83.3419 16.3724ZM36.3665 16.9927L35.6412 18.5575L40.6619 20.8324L42.2652 17.6418L41.025 17.0214L40.0569 18.676L36.3665 16.9927ZM62.7329 17.4048C62.7928 17.4014 62.8626 17.4166 62.9576 17.4779L64.2699 18.3473C64.4335 18.4638 64.5421 18.6791 64.5421 18.8528L64.5269 20.0537V20.0583C64.5269 20.5313 64.7719 20.9343 65.0882 21.2157C65.2748 21.3816 65.4884 21.5125 65.7169 21.5925C65.4884 21.6725 65.2748 21.8034 65.0882 21.9693C64.7719 22.2508 64.5269 22.6538 64.5269 23.1267V23.1313L64.5421 24.3368C64.5421 24.5106 64.4221 24.7287 64.2586 24.8451L62.9538 25.709C62.8271 25.7907 62.7495 25.7895 62.676 25.7719C62.6026 25.7544 62.5305 25.7034 62.4817 25.6303C62.3841 25.484 62.3416 25.3135 62.6239 25.1164L62.6286 25.1127L62.6334 25.109L63.2611 24.6414C63.4734 24.4931 63.7703 24.2439 63.7703 23.8155V23.81L63.7551 22.8276C63.7551 22.6181 63.678 22.3814 63.4611 22.2212C63.2443 22.0609 62.9345 22.0411 62.6381 22.136C62.4264 22.2037 62.2881 22.2766 62.1773 22.3174C62.0665 22.3584 61.9726 22.3832 61.7686 22.3832C61.4828 22.3832 61.3072 22.2782 61.175 22.1276C61.0428 21.9771 60.975 21.7673 60.975 21.6295V21.5555C60.975 21.4177 61.0428 21.208 61.175 21.0574C61.3072 20.9068 61.4828 20.8018 61.7686 20.8018C61.9726 20.8018 62.0664 20.8267 62.1773 20.8676C62.2881 20.9085 62.4264 20.9813 62.6381 21.049C62.9345 21.1439 63.2443 21.1241 63.4611 20.9639C63.678 20.8036 63.7551 20.5614 63.7551 20.3519L63.7703 19.375V19.3695C63.7703 18.9412 63.4639 18.6854 63.2516 18.5371L62.6334 18.076L62.6286 18.0723L62.6239 18.0686C62.3416 17.8716 62.3841 17.7011 62.4817 17.5547C62.5305 17.4816 62.6026 17.4307 62.676 17.4131C62.6947 17.4086 62.7137 17.4059 62.7329 17.4048ZM74.1321 18.2279C74.8581 18.6912 75.6111 19.2143 76.2001 19.9287C76.8613 20.7306 77.3294 21.7623 77.3294 23.2832C77.3294 26.1406 74.5967 28.4357 71.9683 28.4357H65.6164C65.4359 28.4357 65.2513 28.5165 65.1394 28.6413C65.0276 28.7661 64.9827 28.9167 64.9839 29.0607C64.9851 29.2047 65.0326 29.3519 65.1432 29.4746C65.2538 29.5973 65.4356 29.6792 65.6164 29.6792H71.8176C74.0471 29.6792 75.2358 31.0804 75.2358 32.7346C75.2358 34.3467 74.0011 35.8622 71.8327 35.8622H65.4428C65.288 35.8622 65.1234 35.9307 65.0218 36.0409C64.9203 36.1511 64.8779 36.285 64.8787 36.4131C64.8795 36.5412 64.9222 36.673 65.0228 36.7816C65.1234 36.8902 65.2874 36.9594 65.4428 36.9594H70.199C71.2227 36.9594 72.0935 37.9335 72.0935 38.8639C72.0935 39.3357 71.9562 39.7713 71.6526 40.0879C71.349 40.4046 70.864 40.6342 70.0482 40.6342H67.1961C67.0824 40.6342 66.9628 40.6585 66.8528 40.7361C66.7429 40.8136 66.6529 40.9618 66.6575 41.1157C66.6622 41.2695 66.7529 41.4015 66.8585 41.4749C66.9641 41.5483 67.082 41.5749 67.1961 41.5749H69.0877C69.3546 41.5749 69.5519 41.6889 69.7079 41.874C69.8638 42.0591 69.9544 42.3185 69.9544 42.5258C69.9544 42.784 69.8567 43.0226 69.6842 43.172C69.5723 43.2689 69.4175 43.3363 69.2053 43.3526C69.2158 43.2459 69.2176 43.125 69.1447 42.9804C69.0581 42.8088 68.8169 42.6721 68.6118 42.6721H67.4768C67.0815 42.6721 66.6452 42.5265 66.3229 42.2517C66.0005 41.9769 65.7796 41.5875 65.7796 41.0268C65.7796 40.5112 66.0003 40.1436 66.3134 39.8796C66.6265 39.6156 67.0424 39.4778 67.3488 39.4778H70.1384C70.2644 39.4778 70.3871 39.4566 70.5044 39.3871C70.6218 39.3175 70.7426 39.1711 70.7424 38.9889C70.7422 38.8068 70.6207 38.6602 70.5035 38.5908C70.3863 38.5213 70.2643 38.501 70.1384 38.501H65.7682C64.0867 38.501 63.1503 37.339 63.1503 36.0863C63.1503 34.9686 64.1306 33.6438 65.6165 33.6438H72.1202C72.2972 33.6438 72.4793 33.5631 72.5876 33.4401C72.6959 33.3171 72.7385 33.1706 72.7374 33.0308C72.7364 32.8911 72.692 32.7474 72.5848 32.6262C72.4776 32.5051 72.2976 32.4235 72.1202 32.4235H65.4961C63.6444 32.4235 62.1794 31.0826 62.1794 29.0579C62.1794 27.3666 63.5966 25.6321 65.6924 25.6321H71.6964C72.0238 25.6321 72.3175 25.4883 72.4976 25.2784C72.6777 25.0685 72.7579 24.8099 72.7593 24.5553C72.7607 24.3007 72.6829 24.0398 72.5023 23.8285C72.3218 23.6172 72.0259 23.4739 71.6964 23.4739H65.2904L65.2856 23.123C65.2856 22.9064 65.4062 22.6885 65.5995 22.5165C65.7929 22.3445 66.0529 22.2461 66.212 22.2461H69.8019C69.9408 22.2461 70.0783 22.2148 70.2134 22.1239C70.3485 22.0331 70.4742 21.8371 70.4742 21.5924C70.4742 21.3404 70.3974 21.213 70.2134 21.061C70.0783 20.9701 69.9408 20.9388 69.8019 20.9388H66.212C66.0529 20.9388 65.7929 20.8404 65.5995 20.6684C65.4062 20.4964 65.2856 20.2748 65.2856 20.0582L65.2885 19.8434H69.6701C69.9126 19.8434 70.1339 19.7675 70.3082 19.637C70.4825 19.5064 70.6249 19.3062 70.6249 19.0536V18.736H72.7555C73.3081 18.7362 73.7883 18.535 74.1321 18.2279ZM77.9979 22.1518C78.6242 23.9903 78.9631 25.957 78.9631 28.0006C78.9631 34.4694 75.5659 40.163 70.418 43.4739C70.619 43.1948 70.7129 42.8581 70.7129 42.5258C70.7129 42.1299 70.5674 41.7284 70.2938 41.4036C70.283 41.3908 70.2701 41.3792 70.2588 41.3666C71.1216 41.3259 71.7784 41.0408 72.2064 40.5944C72.6689 40.112 72.8521 39.4779 72.8521 38.864C72.8521 37.957 72.3321 37.0843 71.5445 36.603H71.8328C74.3739 36.603 75.9944 34.7285 75.9944 32.7346C75.9944 31.0442 74.8683 29.5297 72.9952 29.0783C75.6845 28.5851 78.088 26.222 78.088 23.2832C78.088 22.8809 78.056 22.5046 77.9979 22.1518ZM60.3776 22.2832C60.4375 22.4007 60.512 22.5105 60.5995 22.6101C60.857 22.9034 61.2682 23.1239 61.7686 23.1239C62.0528 23.1239 62.2738 23.0735 62.4456 23.01C62.6174 22.9466 62.7282 22.8864 62.8742 22.8397C62.9431 22.8176 62.9763 22.8138 62.9937 22.8138C62.9947 22.8184 62.9965 22.8217 62.9965 22.8332V22.8388L63.0117 23.8211C63.0117 23.8513 62.9396 23.9554 62.8097 24.0461L62.805 24.0489L62.8003 24.0526L62.1735 24.5211C61.612 24.9131 61.5545 25.5973 61.8464 26.0349C61.9706 26.2211 62.1529 26.3723 62.3755 26.4544C61.768 27.1971 61.4207 28.1251 61.4207 29.0579C61.4207 31.1153 62.787 32.6749 64.599 33.066C63.2418 33.5189 62.3916 34.8427 62.3916 36.0863C62.3916 37.7168 63.7141 39.2417 65.7681 39.2417H65.917C65.8837 39.2671 65.8497 39.2913 65.8174 39.3185C65.3623 39.7023 65.0209 40.2941 65.0209 41.0268C65.0209 41.7884 65.3508 42.4074 65.8231 42.8101C66.2955 43.2127 66.8972 43.4128 67.4768 43.4128H68.4268C68.4072 43.4805 68.3851 43.5434 68.3851 43.5434C68.3622 43.5941 68.3512 43.6493 68.3531 43.7047C68.3549 43.7602 68.3694 43.8146 68.3956 43.8638C68.4219 43.913 68.4591 43.9559 68.5045 43.9892C68.5499 44.0225 68.6025 44.0454 68.6582 44.0563C68.9297 44.1088 69.1862 44.1124 69.4186 44.0739C66.7457 45.5704 63.6641 46.4499 60.3776 46.5126V22.2832ZM39.9365 22.9286L34.0378 24.8192L33.8263 26.5321L39.4226 29.4857L39.3922 27.5071L38.5465 27.1247L38.6735 25.0905L39.6644 24.8489L39.9365 22.9286ZM83.3116 23.1064C81.3372 23.1064 80.3475 24.6862 80.3475 26.2664C80.3475 27.8466 81.5183 29.4274 83.3116 29.4274C85.104 29.4274 86.306 27.9943 86.306 26.2664C86.306 24.5681 85.2557 23.1064 83.3116 23.1064ZM65.2988 24.2146H71.6962C71.8258 24.2146 71.8734 24.249 71.92 24.3035C71.9666 24.3581 72.0011 24.4519 72.0006 24.5517C72 24.6515 71.9642 24.7466 71.9162 24.8026C71.8682 24.8585 71.8203 24.8915 71.6962 24.8915H65.6923C65.5094 24.8915 65.3309 24.9029 65.1565 24.9239C65.2486 24.7431 65.3007 24.5424 65.3007 24.3322V24.3276L65.2988 24.2146ZM83.3495 24.8192C84.2198 24.8192 84.7272 25.6128 84.7272 26.2664C84.7272 26.9052 84.201 27.7136 83.3495 27.7136C82.4976 27.7136 82.0021 27.0122 82.0021 26.2664C82.0021 25.5206 82.4792 24.8192 83.3495 24.8192ZM37.346 25.4146L37.274 26.5479L35.6715 25.8229L37.346 25.4146ZM41.2137 30.5643H47.5486V41.9666C44.1802 39.102 41.8568 35.0949 41.2137 30.5643ZM53.4833 30.5643H59.6191V46.5126C57.467 46.4712 55.4027 46.079 53.4833 45.3933V30.5643Z" fill="url(#paint3_linear_655_5483)"/>
<path d="M62.7316 17.4047C62.7915 17.4014 62.8612 17.4166 62.9563 17.4779L64.2686 18.3473C64.4322 18.4638 64.5407 18.6791 64.5407 18.8528L64.5256 20.0537V20.0583C64.5256 20.5313 64.7706 20.9343 65.0869 21.2156C65.2735 21.3816 65.4871 21.5125 65.7156 21.5925C65.4871 21.6725 65.2735 21.8034 65.0869 21.9693C64.7706 22.2507 64.5256 22.6538 64.5256 23.1267V23.1313L64.5407 24.3368C64.5407 24.5105 64.4208 24.7287 64.2572 24.8451L62.9525 25.7089C62.8258 25.7907 62.7482 25.7895 62.6747 25.7719C62.6013 25.7543 62.5292 25.7034 62.4803 25.6302C62.3827 25.4839 62.3402 25.3135 62.6226 25.1164L62.6273 25.1127L62.632 25.109L63.2598 24.6414C63.4721 24.4931 63.7689 24.2439 63.7689 23.8155V23.8099L63.7538 22.8276C63.7538 22.618 63.6767 22.3814 63.4598 22.2211C63.243 22.0609 62.9332 22.0411 62.6368 22.136C62.4251 22.2037 62.2868 22.2765 62.1759 22.3174C62.0651 22.3583 61.9713 22.3832 61.7673 22.3832C61.4814 22.3832 61.3059 22.2782 61.1737 22.1276C61.0415 21.9771 60.9736 21.7673 60.9736 21.6295V21.5554C60.9736 21.4177 61.0415 21.2079 61.1737 21.0573C61.3059 20.9068 61.4815 20.8018 61.7673 20.8018C61.9713 20.8018 62.0651 20.8267 62.1759 20.8675C62.2868 20.9085 62.4251 20.9813 62.6368 21.049C62.9332 21.1439 63.243 21.1241 63.4598 20.9638C63.6766 20.8036 63.7538 20.5614 63.7538 20.3518L63.7689 19.375V19.3694C63.7689 18.9411 63.4626 18.6854 63.2503 18.5371L62.632 18.076L62.6273 18.0723L62.6226 18.0686C62.3403 17.8715 62.3828 17.701 62.4803 17.5547C62.5292 17.4816 62.6013 17.4306 62.6747 17.4131C62.6934 17.4086 62.7124 17.4058 62.7316 17.4047Z" fill="#9D0D16"/>
<path d="M74.1324 18.228C74.8585 18.6914 75.6114 19.2145 76.2004 19.9289C76.8616 20.7308 77.3297 21.7625 77.3297 23.2833C77.3297 26.1408 74.5971 28.4359 71.9686 28.4359H65.6167C65.4362 28.4359 65.2516 28.5166 65.1397 28.6414C65.0279 28.7663 64.9831 28.9169 64.9842 29.0609C64.9855 29.2049 65.0329 29.352 65.1435 29.4747C65.2541 29.5974 65.4359 29.6793 65.6167 29.6793H71.8179C74.0474 29.6793 75.2361 31.0805 75.2361 32.7348C75.2361 34.3468 74.0014 35.8624 71.833 35.8624H65.4432C65.2883 35.8624 65.1238 35.9309 65.0222 36.0411C64.9206 36.1512 64.8782 36.2852 64.879 36.4132C64.8798 36.5413 64.9226 36.6731 65.0231 36.7818C65.1237 36.8904 65.2878 36.9595 65.4432 36.9595H70.1993C71.223 36.9595 72.0938 37.9337 72.0938 38.8641C72.0938 39.3359 71.9565 39.7714 71.6529 40.0881C71.3493 40.4047 70.8643 40.6344 70.0486 40.6344H67.1964C67.0827 40.6344 66.9632 40.6586 66.8532 40.7362C66.7432 40.8138 66.6532 40.962 66.6578 41.1158C66.6625 41.2697 66.7533 41.4016 66.8588 41.4751C66.9644 41.5485 67.0823 41.575 67.1964 41.575H69.0881C69.3549 41.575 69.5523 41.689 69.7082 41.8741C69.8641 42.0592 69.9547 42.3186 69.9547 42.5259C69.9547 42.7841 69.857 43.0228 69.6845 43.1722C69.5726 43.2691 69.4179 43.3364 69.2057 43.3527C69.2161 43.246 69.2179 43.1252 69.145 42.9806C69.0585 42.8089 68.8172 42.6722 68.6121 42.6722H67.4771C67.0819 42.6722 66.6456 42.5267 66.3232 42.2519C66.0008 41.9771 65.7799 41.5876 65.7799 41.0269C65.7799 40.5114 66.0006 40.1438 66.3137 39.8798C66.6268 39.6158 67.0427 39.4779 67.3491 39.4779H70.1387C70.2647 39.4779 70.3874 39.4567 70.5047 39.3872C70.6221 39.3177 70.7429 39.1713 70.7427 38.9891C70.7426 38.8069 70.621 38.6604 70.5038 38.5909C70.3866 38.5215 70.2647 38.5011 70.1387 38.5011H65.7685C64.087 38.5011 63.1506 37.3392 63.1506 36.0864C63.1506 34.9688 64.1309 33.6439 65.6168 33.6439H72.1205C72.2975 33.6439 72.4797 33.5633 72.5879 33.4402C72.6962 33.3172 72.7388 33.1708 72.7378 33.031C72.7368 32.8912 72.6923 32.7475 72.5851 32.6264C72.4779 32.5053 72.298 32.4236 72.1205 32.4236H65.4965C63.6447 32.4236 62.1797 31.0828 62.1797 29.058C62.1797 27.3667 63.5969 25.6323 65.6927 25.6323H71.6967C72.0241 25.6323 72.3179 25.4885 72.4979 25.2786C72.678 25.0687 72.7582 24.8101 72.7596 24.5555C72.761 24.3008 72.6832 24.04 72.5026 23.8287C72.3221 23.6173 72.0262 23.474 71.6967 23.474H65.2907L65.286 23.1231C65.286 22.9065 65.4065 22.6886 65.5998 22.5167C65.7932 22.3447 66.0532 22.2463 66.2124 22.2463H69.8022C69.9411 22.2463 70.0786 22.215 70.2137 22.1241C70.3488 22.0332 70.4745 21.8373 70.4745 21.5926C70.4745 21.3406 70.3977 21.2132 70.2137 21.0611C70.0786 20.9703 69.9411 20.9389 69.8022 20.9389H66.2124C66.0533 20.9389 65.7932 20.8406 65.5998 20.6686C65.4065 20.4966 65.286 20.275 65.286 20.0584L65.2888 19.8436H69.6704C69.913 19.8436 70.1343 19.7677 70.3085 19.6371C70.4828 19.5066 70.6252 19.3063 70.6252 19.0538V18.7362H72.7558C73.3084 18.7364 73.7887 18.5352 74.1324 18.228Z" fill="url(#paint4_linear_655_5483)"/>
<defs>
<linearGradient id="paint0_linear_655_5483" x1="48.6125" y1="15.5063" x2="60.318" y2="48.0586" gradientUnits="userSpaceOnUse">
<stop stop-color="white"/>
<stop offset="1" stop-color="#53EEEF"/>
</linearGradient>
<linearGradient id="paint1_linear_655_5483" x1="60.6021" y1="10.3005" x2="72.8476" y2="46.2455" gradientUnits="userSpaceOnUse">
<stop stop-color="#2F7FBE"/>
<stop offset="1" stop-color="#225D8B"/>
</linearGradient>
<linearGradient id="paint2_linear_655_5483" x1="44.0152" y1="14.9805" x2="60.1923" y2="47.3561" gradientUnits="userSpaceOnUse">
<stop stop-color="#D50D16"/>
<stop offset="0.5" stop-color="#880D16"/>
<stop offset="1" stop-color="#520D16"/>
</linearGradient>
<linearGradient id="paint3_linear_655_5483" x1="40.331" y1="11.595" x2="76.6966" y2="43.4042" gradientUnits="userSpaceOnUse">
<stop stop-color="#F8FFBF"/>
<stop offset="0.509" stop-color="#F8E45E"/>
<stop offset="0.75" stop-color="#F8D35E"/>
<stop offset="1" stop-color="#EE8E0A"/>
</linearGradient>
<linearGradient id="paint4_linear_655_5483" x1="67.0705" y1="20.174" x2="74.2823" y2="42.1345" gradientUnits="userSpaceOnUse">
<stop stop-color="#157031"/>
<stop offset="1" stop-color="#0F5324"/>
</linearGradient>
</defs>
</svg>
