<svg width="120" height="56" viewBox="0 0 120 56" fill="none" xmlns="http://www.w3.org/2000/svg">
<path d="M87.2903 28.0003C87.2903 42.7184 75.0714 54.6498 59.9987 54.6498C44.9259 54.6498 32.7071 42.7184 32.707 28.0003C32.707 13.2822 44.9259 1.35083 59.9987 1.35083C75.0714 1.35083 87.2903 13.2822 87.2903 28.0003Z" fill="#222327"/>
<path d="M59.894 9.29541C57.5631 9.33822 55.3269 9.7433 53.2481 10.4518V25.0817H59.894V9.29541ZM47.8055 13.6554C44.3398 16.5277 41.8958 20.4891 41.0648 24.9771H47.8055V13.6554ZM53.013 30.2722V45.5669C55.1464 46.2742 57.4411 46.6787 59.8333 46.7214V30.2722H53.013ZM41.043 30.3139C41.7339 35.0934 44.2296 39.321 47.8481 42.3429V30.3139H41.043Z" fill="#FBFBFF"/>
<path d="M60.375 9.48291C70.6729 9.67955 78.9605 17.8971 78.9605 27.9996C78.9605 38.1022 70.6728 46.3152 60.375 46.5117V9.48291Z" fill="#69696D"/>
<path d="M52.7498 10.6836V25.4959H59.7869V29.8684H52.7498V45.3544C51.1355 44.7037 49.6188 43.843 48.2407 42.7956V29.8684H40.9093C40.8474 29.2545 40.8164 28.6379 40.8164 28.0209C40.8163 27.1764 40.8745 26.3328 40.9906 25.4959H48.2406V13.2434C49.6187 12.1956 51.1355 11.3346 52.7498 10.6836Z" fill="#3A3A3E"/>
<path d="M65.1797 15.7195H71.7033V16.6083H65.1797V15.7195Z" fill="#6A6B6F"/>
<path d="M60.0789 3.54738e-05C50.1508 -0.0154008 40.4842 5.0075 35.1671 14.0003C27.2532 27.385 31.9554 44.52 45.6626 52.2476C59.3698 59.9752 76.9177 55.3837 84.8315 41.999C92.7453 28.6143 88.0431 11.4793 74.3359 3.75171C69.8383 1.21607 64.9275 0.00756105 60.0789 3.54738e-05ZM59.9993 1.34996C75.0643 1.34996 87.2911 13.2892 87.2911 27.9996C87.2911 42.7102 75.0643 54.6493 59.9993 54.6493C44.9343 54.6493 32.7074 42.7102 32.7074 27.9996C32.7074 13.2892 44.9343 1.34996 59.9993 1.34996ZM58.3561 2.28325V7.80708H60.0799V5.94607L61.4718 7.80708L63.7399 8.13115L61.7743 5.6507C62.2056 5.56318 63.0145 5.11597 63.0145 4.17391C63.0145 2.76355 61.7139 2.3129 60.8972 2.3129L58.3561 2.28325ZM60.5341 3.4943C61.0029 3.4943 61.3353 3.80463 61.3504 4.14429C61.3656 4.48397 61.1249 4.85258 60.5947 4.85258H60.0495L60.0201 3.52393L60.5341 3.4943ZM68.6601 3.80818C68.6295 3.80801 68.5985 3.80851 68.5681 3.8091C67.0809 3.83867 65.8235 4.71916 65.5225 6.15714C65.2227 7.58934 66.5548 9.28407 68.1831 9.64495C69.9498 10.0365 71.5985 9.21738 71.9702 7.358C72.2885 5.76584 71.0901 4.20248 69.3105 3.87111C69.0916 3.83037 68.8741 3.80946 68.6601 3.80818ZM47.7998 5.26646L46.2571 6.06363L46.9825 12.2958L48.6162 11.1143L48.4048 10.1699L50.1893 9.13573L51.0056 9.72645L52.8812 8.98853L47.7998 5.26646ZM68.6999 5.33496C68.8048 5.33525 68.9112 5.34461 69.0185 5.36458C69.8771 5.52446 70.4222 6.24934 70.272 7.0182C70.1219 7.78708 69.3329 8.31043 68.4742 8.15056C67.6156 7.99068 67.1919 7.17878 67.3421 6.4099C67.4735 5.73716 67.9659 5.333 68.6999 5.33496ZM47.8605 7.24506L49.1605 8.22001L48.2227 8.75148L47.8605 7.24506ZM76.6258 8.04316L71.7863 11.3217L73.2076 12.4142L75.5373 10.6421L74.3568 13.5068L74.9618 14.0679L77.9268 12.8865L76.1423 15.2493L77.2308 16.7558L80.649 11.9708L79.5595 10.7014L76.7766 11.7939L77.8964 9.04681L76.6258 8.04316ZM59.9993 8.74129C49.1167 8.74129 40.2759 17.374 40.2759 28.0006C40.2759 38.6271 49.1167 47.2589 59.9993 47.2589C70.8819 47.2589 79.7226 38.6271 79.7226 28.0006C79.7226 17.374 70.8819 8.74129 59.9993 8.74129ZM41.9314 9.3718L39.5723 12.03L43.6856 15.6039L44.8357 14.3049L43.2627 12.9457L44.4119 11.7347L43.4135 10.8486L42.2643 12.0893L41.6897 11.5578L42.9299 10.2282L41.9314 9.3718ZM59.6181 9.48383V24.7683H53.4823V10.6032C55.4017 9.91717 57.466 9.52531 59.6181 9.48383ZM60.3766 9.48383C67.5988 9.62172 73.832 13.7051 76.9112 19.6167C76.8717 19.5651 76.8312 19.5142 76.7899 19.4639C76.0354 18.5488 75.0849 17.9419 74.2753 17.4335C74.2109 17.3932 74.1355 17.3729 74.0591 17.3751C74.0008 17.3768 73.9438 17.3915 73.8923 17.4182C73.8408 17.4448 73.7964 17.4827 73.7623 17.5288C73.5739 17.7836 73.2181 17.9955 72.7544 17.9955H69.2603C69.085 17.9955 68.9184 18.0421 68.7748 18.1436C68.6312 18.2452 68.5036 18.4268 68.5036 18.6417V19.0306C68.5018 19.0329 68.4987 19.0388 68.4837 19.05C68.4495 19.0757 68.3823 19.1028 68.3074 19.1028H65.2968L65.2997 18.8575V18.8528C65.2997 18.4053 65.066 17.9987 64.7052 17.7418L64.6995 17.7372L64.6947 17.7344L63.3786 16.8631L63.3768 16.8613L63.3749 16.8604C63.1654 16.7253 62.9312 16.6613 62.7102 16.6659C62.6376 16.6675 62.5654 16.6769 62.4949 16.6937C62.2173 16.7602 61.9914 16.9314 61.8454 17.1502C61.5535 17.5878 61.6206 18.2794 62.1821 18.6714L62.7993 19.1325L62.8041 19.1362L62.8088 19.139C62.9387 19.2297 63.0108 19.3394 63.0108 19.3695L62.9956 20.3463V20.3519C62.9956 20.3638 62.9938 20.3668 62.9927 20.3713C62.9754 20.3713 62.9423 20.3675 62.8733 20.3454C62.7273 20.2987 62.6165 20.2385 62.4447 20.1751C62.2729 20.1117 62.0519 20.0612 61.7677 20.0612C61.2673 20.0612 60.8561 20.2817 60.5986 20.575C60.5111 20.6746 60.4366 20.7844 60.3767 20.9019V9.48383H60.3766ZM52.7238 10.893V25.509H59.6181V29.8236H52.7238V45.1044C51.1411 44.4617 49.655 43.6123 48.3062 42.5795V29.8236H41.1236C41.0629 29.2177 41.0325 28.6093 41.0326 28.0006C41.0325 27.1673 41.0895 26.3349 41.2032 25.509H48.3062V13.4188C49.655 12.3858 51.1411 11.5361 52.7238 10.893ZM65.5803 13.7401C65.2705 13.7401 65.019 13.9857 65.019 14.2883C65.019 14.5908 65.2705 14.8364 65.5803 14.8364C65.8902 14.8364 66.1417 14.5908 66.1417 14.2883C66.1417 13.9857 65.8902 13.7401 65.5803 13.7401ZM67.0102 13.7401C66.7003 13.7401 66.4489 13.9857 66.4489 14.2883C66.4489 14.5908 66.7003 14.8364 67.0102 14.8364C67.3201 14.8364 67.5715 14.5908 67.5715 14.2883C67.5715 13.9857 67.3201 13.7401 67.0102 13.7401ZM68.4391 13.7401C68.1293 13.7401 67.8778 13.9857 67.8778 14.2883C67.8778 14.5908 68.1293 14.8364 68.4391 14.8364C68.749 14.8364 69.0005 14.5908 69.0005 14.2883C69.0005 13.9857 68.749 13.7401 68.4391 13.7401ZM69.8681 13.7401C69.5582 13.7401 69.3067 13.9857 69.3067 14.2883C69.3067 14.5908 69.5582 14.8364 69.8681 14.8364C70.1779 14.8364 70.4294 14.5908 70.4294 14.2883C70.4294 13.9857 70.1779 13.7401 69.8681 13.7401ZM71.2979 13.7401C70.9881 13.7401 70.7366 13.9857 70.7366 14.2883C70.7366 14.5908 70.9881 14.8364 71.2979 14.8364C71.6078 14.8364 71.8593 14.5908 71.8593 14.2883C71.8593 13.9857 71.6078 13.7401 71.2979 13.7401ZM47.5476 14.0318V24.7683H41.3208C42.0886 20.5121 44.3458 16.7557 47.5476 14.0318ZM65.1773 15.1724V16.0613H71.7009V15.1724H65.1773ZM65.1773 16.3687V17.2575H71.7009V16.3687H65.1773ZM83.3409 16.3724L78.1989 18.4103L79.6506 21.7185L81.0112 21.1574L80.2555 19.4732L80.8908 19.1778L81.6172 20.8027L82.8565 20.3L82.1614 18.7352L82.7664 18.4695L83.4918 20.1528L84.7623 19.6509L83.3409 16.3724ZM36.3656 16.9927L35.6402 18.5575L40.6609 20.8324L42.2643 17.6418L41.024 17.0214L40.0559 18.676L36.3656 16.9927ZM62.7319 17.4048C62.7918 17.4014 62.8616 17.4166 62.9567 17.4779L64.269 18.3473C64.4325 18.4638 64.5411 18.6791 64.5411 18.8528L64.5259 20.0537V20.0583C64.5259 20.5313 64.7709 20.9343 65.0873 21.2157C65.2738 21.3816 65.4874 21.5125 65.7159 21.5925C65.4874 21.6725 65.2738 21.8034 65.0873 21.9693C64.7709 22.2508 64.5259 22.6538 64.5259 23.1267V23.1313L64.5411 24.3368C64.5411 24.5106 64.4212 24.7287 64.2576 24.8451L62.9529 25.709C62.8261 25.7907 62.7485 25.7895 62.6751 25.7719C62.6016 25.7544 62.5295 25.7034 62.4807 25.6303C62.3831 25.484 62.3406 25.3135 62.6229 25.1164L62.6277 25.1127L62.6324 25.109L63.2601 24.6414C63.4724 24.4931 63.7693 24.2439 63.7693 23.8155V23.81L63.7541 22.8276C63.7541 22.6181 63.677 22.3814 63.4602 22.2212C63.2433 22.0609 62.9336 22.0411 62.6371 22.136C62.4255 22.2037 62.2872 22.2766 62.1763 22.3174C62.0655 22.3584 61.9716 22.3832 61.7676 22.3832C61.4818 22.3832 61.3063 22.2782 61.1741 22.1276C61.0419 21.9771 60.974 21.7673 60.974 21.6295V21.5555C60.974 21.4177 61.0418 21.208 61.1741 21.0574C61.3063 20.9068 61.4818 20.8018 61.7676 20.8018C61.9716 20.8018 62.0655 20.8267 62.1763 20.8676C62.2871 20.9085 62.4255 20.9813 62.6371 21.049C62.9336 21.1439 63.2433 21.1241 63.4602 20.9639C63.677 20.8036 63.7541 20.5614 63.7541 20.3519L63.7693 19.375V19.3695C63.7693 18.9412 63.4629 18.6854 63.2506 18.5371L62.6324 18.076L62.6277 18.0723L62.6229 18.0686C62.3406 17.8716 62.3831 17.7011 62.4807 17.5547C62.5295 17.4816 62.6016 17.4307 62.6751 17.4131C62.6937 17.4086 62.7128 17.4059 62.7319 17.4048ZM74.1311 18.2279C74.8572 18.6912 75.6101 19.2143 76.1991 19.9287C76.8603 20.7306 77.3284 21.7623 77.3284 23.2832C77.3284 26.1406 74.5958 28.4357 71.9673 28.4357H65.6154C65.4349 28.4357 65.2503 28.5165 65.1384 28.6413C65.0266 28.7661 64.9818 28.9167 64.9829 29.0607C64.9842 29.2047 65.0316 29.3519 65.1422 29.4746C65.2528 29.5973 65.4346 29.6792 65.6154 29.6792H71.8166C74.0461 29.6792 75.2348 31.0804 75.2348 32.7346C75.2348 34.3467 74.0001 35.8622 71.8317 35.8622H65.4419C65.287 35.8622 65.1225 35.9307 65.0209 36.0409C64.9193 36.1511 64.8769 36.285 64.8777 36.4131C64.8785 36.5412 64.9213 36.673 65.0218 36.7816C65.1224 36.8902 65.2865 36.9594 65.4419 36.9594H70.198C71.2217 36.9594 72.0925 37.9335 72.0925 38.8639C72.0925 39.3357 71.9552 39.7713 71.6516 40.0879C71.348 40.4046 70.863 40.6342 70.0473 40.6342H67.1951C67.0814 40.6342 66.9619 40.6585 66.8519 40.7361C66.7419 40.8136 66.6519 40.9618 66.6565 41.1157C66.6612 41.2695 66.752 41.4015 66.8575 41.4749C66.9631 41.5483 67.081 41.5749 67.1951 41.5749H69.0868C69.3536 41.5749 69.551 41.6889 69.7069 41.874C69.8628 42.0591 69.9534 42.3185 69.9534 42.5258C69.9534 42.784 69.8557 43.0226 69.6832 43.172C69.5713 43.2689 69.4166 43.3363 69.2044 43.3526C69.2148 43.2459 69.2166 43.125 69.1437 42.9804C69.0572 42.8088 68.8159 42.6721 68.6108 42.6721H67.4758C67.0806 42.6721 66.6443 42.5265 66.3219 42.2517C65.9995 41.9769 65.7786 41.5875 65.7786 41.0268C65.7786 40.5112 65.9993 40.1436 66.3124 39.8796C66.6255 39.6156 67.0414 39.4778 67.3478 39.4778H70.1374C70.2634 39.4778 70.3861 39.4566 70.5034 39.3871C70.6208 39.3175 70.7416 39.1711 70.7414 38.9889C70.7413 38.8068 70.6197 38.6602 70.5025 38.5908C70.3853 38.5213 70.2634 38.501 70.1374 38.501H65.7672C64.0857 38.501 63.1493 37.339 63.1493 36.0863C63.1493 34.9686 64.1296 33.6438 65.6155 33.6438H72.1192C72.2962 33.6438 72.4784 33.5631 72.5866 33.4401C72.6949 33.3171 72.7375 33.1706 72.7365 33.0308C72.7355 32.8911 72.691 32.7474 72.5838 32.6262C72.4766 32.5051 72.2967 32.4235 72.1192 32.4235H65.4952C63.6434 32.4235 62.1784 31.0826 62.1784 29.0579C62.1784 27.3666 63.5956 25.6321 65.6914 25.6321H71.6954C72.0228 25.6321 72.3166 25.4883 72.4966 25.2784C72.6767 25.0685 72.7569 24.8099 72.7583 24.5553C72.7597 24.3007 72.6819 24.0398 72.5013 23.8285C72.3208 23.6172 72.0249 23.4739 71.6954 23.4739H65.2894L65.2847 23.123C65.2847 22.9064 65.4052 22.6885 65.5985 22.5165C65.7919 22.3445 66.0519 22.2461 66.2111 22.2461H69.8009C69.9398 22.2461 70.0773 22.2148 70.2124 22.1239C70.3475 22.0331 70.4732 21.8371 70.4732 21.5924C70.4732 21.3404 70.3964 21.213 70.2124 21.061C70.0773 20.9701 69.9398 20.9388 69.8009 20.9388H66.2111C66.052 20.9388 65.7919 20.8404 65.5985 20.6684C65.4052 20.4964 65.2847 20.2748 65.2847 20.0582L65.2875 19.8434H69.6691C69.9117 19.8434 70.133 19.7675 70.3072 19.637C70.4815 19.5064 70.6239 19.3062 70.6239 19.0536V18.736H72.7545C73.3071 18.7362 73.7874 18.535 74.1311 18.2279ZM77.9969 22.1518C78.6232 23.9903 78.9622 25.957 78.9622 28.0006C78.9622 34.4694 75.565 40.163 70.417 43.4739C70.618 43.1948 70.7119 42.8581 70.7119 42.5258C70.7119 42.1299 70.5664 41.7284 70.2929 41.4036C70.2821 41.3908 70.2691 41.3792 70.2578 41.3666C71.1206 41.3259 71.7774 41.0408 72.2054 40.5944C72.6679 40.112 72.8511 39.4779 72.8511 38.864C72.8511 37.957 72.3311 37.0843 71.5435 36.603H71.8318C74.373 36.603 75.9934 34.7285 75.9934 32.7346C75.9934 31.0442 74.8673 29.5297 72.9942 29.0783C75.6836 28.5851 78.087 26.222 78.087 23.2832C78.087 22.8809 78.055 22.5046 77.9969 22.1518ZM60.3766 22.2832C60.4365 22.4007 60.511 22.5105 60.5985 22.6101C60.856 22.9034 61.2672 23.1239 61.7676 23.1239C62.0519 23.1239 62.2728 23.0735 62.4446 23.01C62.6164 22.9466 62.7272 22.8864 62.8732 22.8397C62.9422 22.8176 62.9754 22.8138 62.9927 22.8138C62.9937 22.8184 62.9955 22.8217 62.9955 22.8332V22.8388L63.0107 23.8211C63.0107 23.8513 62.9386 23.9554 62.8087 24.0461L62.804 24.0489L62.7993 24.0526L62.1725 24.5211C61.611 24.9131 61.5535 25.5973 61.8454 26.0349C61.9696 26.2211 62.152 26.3723 62.3745 26.4544C61.767 27.1971 61.4197 28.1251 61.4197 29.0579C61.4197 31.1153 62.786 32.6749 64.598 33.066C63.2408 33.5189 62.3906 34.8427 62.3906 36.0863C62.3906 37.7168 63.7132 39.2417 65.7671 39.2417H65.916C65.8827 39.2671 65.8488 39.2913 65.8164 39.3185C65.3613 39.7023 65.02 40.2941 65.02 41.0268C65.02 41.7884 65.3498 42.4074 65.8221 42.8101C66.2945 43.2127 66.8962 43.4128 67.4758 43.4128H68.4259C68.4063 43.4805 68.3841 43.5434 68.3841 43.5434C68.3612 43.5941 68.3503 43.6493 68.3521 43.7047C68.3539 43.7602 68.3685 43.8146 68.3947 43.8638C68.4209 43.913 68.4581 43.9559 68.5035 43.9892C68.549 44.0225 68.6015 44.0454 68.6572 44.0563C68.9287 44.1088 69.1852 44.1124 69.4177 44.0739C66.7448 45.5704 63.6631 46.4499 60.3766 46.5126V22.2832ZM39.9355 22.9286L34.0368 24.8192L33.8254 26.5321L39.4216 29.4857L39.3913 27.5071L38.5455 27.1247L38.6725 25.0905L39.6634 24.8489L39.9355 22.9286ZM83.3106 23.1064C81.3363 23.1064 80.3465 24.6862 80.3465 26.2664C80.3465 27.8466 81.5174 29.4274 83.3106 29.4274C85.103 29.4274 86.305 27.9943 86.305 26.2664C86.305 24.5681 85.2547 23.1064 83.3106 23.1064ZM65.2978 24.2146H71.6952C71.8248 24.2146 71.8724 24.249 71.919 24.3035C71.9656 24.3581 72.0001 24.4519 71.9996 24.5517C71.9991 24.6515 71.9633 24.7466 71.9152 24.8026C71.8672 24.8585 71.8193 24.8915 71.6952 24.8915H65.6913C65.5085 24.8915 65.3299 24.9029 65.1556 24.9239C65.2476 24.7431 65.2997 24.5424 65.2997 24.3322V24.3276L65.2978 24.2146ZM83.3485 24.8192C84.2188 24.8192 84.7262 25.6128 84.7262 26.2664C84.7262 26.9052 84.2 27.7136 83.3485 27.7136C82.4967 27.7136 82.0011 27.0122 82.0011 26.2664C82.0011 25.5206 82.4783 24.8192 83.3485 24.8192ZM37.345 25.4146L37.273 26.5479L35.6706 25.8229L37.345 25.4146ZM41.2127 30.5643H47.5476V41.9666C44.1793 39.102 41.8558 35.0949 41.2127 30.5643ZM53.4823 30.5643H59.6181V46.5126C57.466 46.4712 55.4017 46.079 53.4823 45.3933V30.5643Z" fill="url(#paint0_linear_596_8551)"/>
<path d="M62.7306 17.4047C62.7905 17.4014 62.8603 17.4166 62.9553 17.4779L64.2676 18.3473C64.4312 18.4638 64.5398 18.6791 64.5398 18.8528L64.5246 20.0537V20.0583C64.5246 20.5313 64.7696 20.9343 65.0859 21.2156C65.2725 21.3816 65.4861 21.5125 65.7146 21.5925C65.4861 21.6725 65.2725 21.8034 65.0859 21.9693C64.7696 22.2507 64.5246 22.6538 64.5246 23.1267V23.1313L64.5398 24.3368C64.5398 24.5105 64.4198 24.7287 64.2563 24.8451L62.9515 25.7089C62.8248 25.7907 62.7472 25.7895 62.6737 25.7719C62.6003 25.7543 62.5282 25.7034 62.4794 25.6302C62.3817 25.4839 62.3393 25.3135 62.6216 25.1164L62.6263 25.1127L62.6311 25.109L63.2588 24.6414C63.4711 24.4931 63.768 24.2439 63.768 23.8155V23.8099L63.7528 22.8276C63.7528 22.618 63.6757 22.3814 63.4588 22.2211C63.242 22.0609 62.9322 22.0411 62.6358 22.136C62.4241 22.2037 62.2858 22.2765 62.175 22.3174C62.0642 22.3583 61.9703 22.3832 61.7663 22.3832C61.4805 22.3832 61.3049 22.2782 61.1727 22.1276C61.0405 21.9771 60.9727 21.7673 60.9727 21.6295V21.5554C60.9727 21.4177 61.0405 21.2079 61.1727 21.0573C61.3049 20.9068 61.4805 20.8018 61.7663 20.8018C61.9703 20.8018 62.0641 20.8267 62.175 20.8675C62.2858 20.9085 62.4241 20.9813 62.6358 21.049C62.9322 21.1439 63.242 21.1241 63.4588 20.9638C63.6757 20.8036 63.7528 20.5614 63.7528 20.3518L63.768 19.375V19.3694C63.768 18.9411 63.4616 18.6854 63.2493 18.5371L62.6311 18.076L62.6263 18.0723L62.6216 18.0686C62.3393 17.8715 62.3818 17.701 62.4794 17.5547C62.5282 17.4816 62.6003 17.4306 62.6737 17.4131C62.6924 17.4086 62.7114 17.4058 62.7306 17.4047Z" fill="#38393D"/>
<path d="M74.1324 18.228C74.8585 18.6914 75.6114 19.2145 76.2004 19.9289C76.8616 20.7308 77.3297 21.7625 77.3297 23.2833C77.3297 26.1408 74.5971 28.4359 71.9686 28.4359H65.6167C65.4362 28.4359 65.2516 28.5166 65.1397 28.6414C65.0279 28.7663 64.9831 28.9169 64.9842 29.0609C64.9855 29.2049 65.0329 29.352 65.1435 29.4747C65.2541 29.5974 65.4359 29.6793 65.6167 29.6793H71.8179C74.0474 29.6793 75.2361 31.0805 75.2361 32.7348C75.2361 34.3468 74.0014 35.8624 71.833 35.8624H65.4432C65.2883 35.8624 65.1238 35.9309 65.0222 36.0411C64.9206 36.1512 64.8782 36.2852 64.879 36.4132C64.8798 36.5413 64.9226 36.6731 65.0231 36.7818C65.1237 36.8904 65.2878 36.9595 65.4432 36.9595H70.1993C71.223 36.9595 72.0938 37.9337 72.0938 38.8641C72.0938 39.3359 71.9565 39.7714 71.6529 40.0881C71.3493 40.4047 70.8643 40.6344 70.0486 40.6344H67.1964C67.0827 40.6344 66.9632 40.6586 66.8532 40.7362C66.7432 40.8138 66.6532 40.962 66.6578 41.1158C66.6625 41.2697 66.7533 41.4016 66.8588 41.4751C66.9644 41.5485 67.0823 41.575 67.1964 41.575H69.0881C69.3549 41.575 69.5523 41.689 69.7082 41.8741C69.8641 42.0592 69.9547 42.3186 69.9547 42.5259C69.9547 42.7841 69.857 43.0228 69.6845 43.1722C69.5726 43.2691 69.4179 43.3364 69.2057 43.3527C69.2161 43.246 69.2179 43.1252 69.145 42.9806C69.0585 42.8089 68.8172 42.6722 68.6121 42.6722H67.4771C67.0819 42.6722 66.6456 42.5267 66.3232 42.2519C66.0008 41.9771 65.7799 41.5876 65.7799 41.0269C65.7799 40.5114 66.0006 40.1438 66.3137 39.8798C66.6268 39.6158 67.0427 39.4779 67.3491 39.4779H70.1387C70.2647 39.4779 70.3874 39.4567 70.5047 39.3872C70.6221 39.3177 70.7429 39.1713 70.7427 38.9891C70.7426 38.8069 70.621 38.6604 70.5038 38.5909C70.3866 38.5215 70.2647 38.5011 70.1387 38.5011H65.7685C64.087 38.5011 63.1506 37.3392 63.1506 36.0864C63.1506 34.9688 64.1309 33.6439 65.6168 33.6439H72.1205C72.2975 33.6439 72.4797 33.5633 72.5879 33.4402C72.6962 33.3172 72.7388 33.1708 72.7378 33.031C72.7368 32.8912 72.6923 32.7475 72.5851 32.6264C72.4779 32.5053 72.298 32.4236 72.1205 32.4236H65.4965C63.6447 32.4236 62.1797 31.0828 62.1797 29.058C62.1797 27.3667 63.5969 25.6323 65.6927 25.6323H71.6967C72.0241 25.6323 72.3179 25.4885 72.4979 25.2786C72.678 25.0687 72.7582 24.8101 72.7596 24.5555C72.761 24.3008 72.6832 24.04 72.5026 23.8287C72.3221 23.6173 72.0262 23.474 71.6967 23.474H65.2907L65.286 23.1231C65.286 22.9065 65.4065 22.6886 65.5998 22.5167C65.7932 22.3447 66.0532 22.2463 66.2124 22.2463H69.8022C69.9411 22.2463 70.0786 22.215 70.2137 22.1241C70.3488 22.0332 70.4745 21.8373 70.4745 21.5926C70.4745 21.3406 70.3977 21.2132 70.2137 21.0611C70.0786 20.9703 69.9411 20.9389 69.8022 20.9389H66.2124C66.0533 20.9389 65.7932 20.8406 65.5998 20.6686C65.4065 20.4966 65.286 20.275 65.286 20.0584L65.2888 19.8436H69.6704C69.913 19.8436 70.1343 19.7677 70.3085 19.6371C70.4828 19.5066 70.6252 19.3063 70.6252 19.0538V18.7362H72.7558C73.3084 18.7364 73.7887 18.5352 74.1324 18.228Z" fill="#49494D"/>
<defs>
<linearGradient id="paint0_linear_596_8551" x1="40.33" y1="11.595" x2="76.6956" y2="43.4042" gradientUnits="userSpaceOnUse">
<stop stop-color="#EEEFF3"/>
<stop offset="1" stop-color="#8E8F92"/>
</linearGradient>
</defs>
</svg>
