<svg width="120" height="56" viewBox="0 0 120 56" fill="none" xmlns="http://www.w3.org/2000/svg">
<path fill-rule="evenodd" clip-rule="evenodd" d="M88.6954 43.6407V55.6855H84.2621V43.6407H88.6954ZM74.4503 46.2869C76.8539 46.2869 78.8243 47.7584 78.8243 49.5638C78.8243 51.3766 76.8539 52.8481 74.4503 52.8481C72.0467 52.8481 70.0769 51.3766 70.0769 49.5638C70.0769 47.7584 72.0467 46.2869 74.4503 46.2869ZM75.6193 43.6407L71.9874 39.5425H77.4053L82.3963 46.2869C82.8826 46.9764 83.2502 48.1523 83.3027 49.3344C83.4807 52.9789 79.3168 55.9806 74.4503 55.9806C69.5838 55.9806 65.5979 52.9925 65.5979 49.3344C65.5974 45.6699 69.17 42.8063 75.6193 43.6407ZM54.7883 50.3857C54.7883 52.0205 56.3049 52.8481 57.5527 52.8481C58.8004 52.8481 60.4625 51.9286 60.4625 50.3857V43.6407H64.6584V50.3857C64.6584 55.0611 60.5213 56 57.5527 56C54.5909 56 50.3682 55.0611 50.3682 50.3857V43.6407H54.7883V50.3857ZM41.4822 39.5425L51.6679 55.6849H46.5845L44.7916 52.8481H34.9415L33.0825 55.6849H27.8945L37.3776 41.0922L35.9403 39.5425H41.4822ZM42.9799 49.9451H36.8131L39.9393 45.1442L42.9799 49.9451Z" fill="#4A4B4F"/>
<path fill-rule="evenodd" clip-rule="evenodd" d="M88.1544 27.1563C89.4022 27.2551 90.5711 27.1296 91.7926 26.8476C92.4842 26.6526 93.1603 26.4067 93.8155 26.1118C94.4474 25.7914 95.0534 25.4226 95.6283 25.0085C96.1847 24.5737 96.7074 24.0972 97.1917 23.5833C97.6552 23.0505 98.0787 22.4842 98.4588 21.8891C98.9183 21.1072 99.2665 20.3195 99.5627 19.4593C99.7596 18.7435 99.9103 18.0477 100.003 17.3183C100.042 16.7474 100.055 16.195 100.042 15.6304C99.9765 14.6915 99.8121 13.8313 99.5627 12.9254C99.3849 12.4187 99.1874 11.9191 98.9709 11.4277C98.4788 10.4557 97.9011 9.62173 97.1917 8.7941C96.7052 8.28426 96.1828 7.81005 95.6283 7.37515C94.9098 6.85489 94.1396 6.41019 93.3297 6.04811C92.659 5.78385 91.97 5.56885 91.268 5.4048C90.2732 5.22858 89.2631 5.1538 88.2532 5.18162C86.5585 5.3192 84.8576 5.83805 83.426 6.77071C83.3278 6.84265 83.2165 6.93455 83.1178 7.0065C84.2473 8.70797 84.9957 10.6909 85.4489 12.6676C85.5802 13.3046 85.6852 13.9426 85.7508 14.5854C85.9672 16.6272 85.764 18.6963 85.1989 20.6666C84.7194 22.2888 83.9774 23.9304 82.9991 25.3162C84.4831 26.3818 86.3421 27.0245 88.1544 27.1563ZM80.0309 12.5373C79.8448 12.0288 79.6255 11.5331 79.3745 11.0533C78.7832 12.1697 78.3568 13.3581 78.1656 14.6127C78.0611 15.328 78.0149 16.0511 78.0611 16.78C78.1593 18.3365 78.6593 19.8988 79.4008 21.2721C79.8734 20.32 80.2284 19.38 80.4448 18.3365C80.8061 16.55 80.6942 14.6584 80.1549 12.9112L80.0309 12.5373ZM71.4012 27.0518C72.7871 26.8218 74.0354 26.355 75.2631 25.6849L75.7353 25.4029C75.4727 25.0479 75.2427 24.6409 75.0258 24.2596C74.2869 22.9523 73.7258 21.5521 73.3574 20.0963C73.1485 19.2479 73.0014 18.3854 72.9173 17.5157C72.8123 16.2027 72.8653 14.8817 73.0754 13.5813C73.4761 11.2239 74.3499 9.01098 75.6948 7.04063C75.124 6.6662 74.5327 6.31803 73.9025 6.05546C72.8322 5.60856 71.7027 5.3066 70.5405 5.221C68.1233 5.0372 65.7596 5.59543 63.7236 6.90935C65.1683 9.08293 66.0615 11.6309 66.4228 14.212C66.5016 14.9934 66.5541 15.7355 66.5478 16.5232C66.5084 18.0671 66.2459 19.5711 65.7858 21.0484C65.2932 22.618 64.5643 24.0569 63.6716 25.4354C65.9308 26.92 68.7282 27.472 71.4012 27.0518ZM60.7418 12.4391C60.5513 11.9124 60.3164 11.4027 60.0397 10.9157C59.6201 11.7234 59.2583 12.5573 59.022 13.4311C58.7919 14.3302 58.648 15.2571 58.648 16.1892C58.6543 16.7805 58.7069 17.3781 58.8187 17.9558C59.0652 19.1542 59.488 20.3095 60.0733 21.3839C60.4404 20.6676 60.756 19.9193 60.9723 19.1442C61.1693 18.3623 61.3142 17.6071 61.3604 16.8062C61.4061 15.7155 61.3273 14.6258 61.0774 13.5682C60.9923 13.1938 60.8673 12.8004 60.7418 12.4391ZM53.9527 12.2553C54.3791 10.5806 55.0624 9.03094 55.9682 7.55948L56.3169 7.04116L56.3694 6.96239C55.1143 6.18727 53.7684 5.649 52.3174 5.36647C51.2666 5.16271 50.1239 5.14276 49.0594 5.22835C47.5759 5.43894 46.1632 5.89897 44.8897 6.68669C44.7385 6.78541 44.5741 6.89674 44.4365 7.00807C45.5735 8.70955 46.3145 10.6925 46.7682 12.6691C46.9982 13.723 47.1279 14.7963 47.1558 15.8746C47.1678 16.8528 47.0975 17.8302 46.9457 18.7966C46.8357 19.4274 46.693 20.0521 46.5182 20.6682C46.0393 22.2903 45.2967 23.932 44.3184 25.3178C47.7791 27.7944 52.8363 27.8201 56.3369 25.3966C54.9972 23.3937 54.084 21.1933 53.6838 18.816C53.419 17.1749 53.4036 15.5032 53.6382 13.8576C53.7222 13.3188 53.8272 12.7873 53.9527 12.2553ZM41.2836 12.3598C41.1131 11.9128 40.9158 11.4765 40.6928 11.0533C40.1083 12.1697 39.6808 13.3581 39.4907 14.6127C39.3852 15.328 39.3389 16.0511 39.3852 16.78C39.4844 18.3365 39.9833 19.8988 40.7185 21.2721C41.0735 20.5563 41.3755 19.8537 41.5855 19.0786C42.2031 16.9307 42.0849 14.4557 41.2836 12.3598ZM34.4666 19.1442C34.2271 17.8431 34.1413 16.5183 34.2109 15.1972C34.3999 12.2766 35.3683 9.46002 37.0152 7.04063C36.4501 6.6662 35.8525 6.31803 35.2286 6.05546C34.1516 5.60856 33.022 5.3066 31.8661 5.221C31.0059 5.15536 30.152 5.2021 29.2982 5.3066C28.7603 5.40505 28.2277 5.53001 27.7022 5.68103C26.8547 5.96469 26.0384 6.3344 25.2661 6.78436C24.672 7.16305 24.1077 7.58668 23.5783 8.05154C23.0628 8.53456 22.5863 9.05748 22.153 9.61543C21.6327 10.3327 21.1902 11.1032 20.8328 11.914C20.5651 12.5841 20.3478 13.2733 20.1827 13.9757L20.0908 14.5208C19.9949 15.261 19.9577 16.0077 19.9794 16.7537C20.0125 17.312 20.0908 17.8571 20.1832 18.4085C20.4395 19.4855 20.7813 20.4445 21.2934 21.4296C21.5593 21.8891 21.8466 22.336 22.1541 22.7688C22.7055 23.4788 23.2968 24.089 23.9732 24.6803C24.5312 25.1176 25.1194 25.5149 25.7335 25.8692C26.5411 26.2767 27.3551 26.6044 28.229 26.8476C28.7541 26.972 29.306 27.0776 29.8443 27.1427C30.4482 27.1821 31.0327 27.2083 31.6303 27.1753C33.2298 27.0604 34.7893 26.6225 36.2149 25.8881L36.5888 25.6844L37.0551 25.4024C36.615 24.7979 36.2469 24.089 35.9055 23.4189C35.2426 22.0624 34.7589 20.6255 34.4666 19.1442ZM98.7214 29.1524C98.0877 29.6064 97.4325 30.0295 96.7579 30.4201C96.0553 30.7754 95.3365 31.0975 94.6037 31.3854C93.8481 31.6416 93.0861 31.8648 92.3047 32.0423L91.5101 32.1867C90.1179 32.3574 88.719 32.4299 87.3263 32.2786C85.6544 32.092 84.0204 31.6537 82.4797 30.9784C81.3889 30.4834 80.3504 29.8805 79.3798 29.1787C78.2964 29.9338 77.1794 30.5845 75.9584 31.0965C74.2818 31.7867 72.5059 32.2054 70.6975 32.3369C69.4353 32.4098 68.169 32.3438 66.9212 32.14C64.4189 31.6873 62.062 30.7153 59.9866 29.2312C59.1002 29.8551 58.1738 30.4133 57.1824 30.866C55.1338 31.7986 52.966 32.3112 50.7136 32.3637C49.2296 32.3831 47.7581 32.2256 46.3129 31.8517C44.2774 31.3192 42.4184 30.4133 40.6986 29.1782C39.7916 29.8083 38.8789 30.3603 37.8874 30.8266C35.8315 31.7787 33.586 32.3175 31.32 32.3637C30.3742 32.3768 29.4483 32.2981 28.5157 32.1862C27.7231 32.0443 26.9382 31.8624 26.1641 31.6411C25.4156 31.3864 24.6792 31.0973 23.9574 30.7746C23.2615 30.4197 22.5842 30.0294 21.9283 29.6051C21.083 29.0043 20.2818 28.3437 19.531 27.6285C18.9932 27.0643 18.4827 26.4747 18.0012 25.8619C17.5504 25.2275 17.1296 24.5722 16.7403 23.8983C16.3837 23.1944 16.0573 22.4755 15.762 21.7437C15.5063 20.9887 15.2873 20.2218 15.1056 19.4456C14.9657 18.6432 14.8649 17.8343 14.8036 17.0221L14.7773 16.1945L14.8036 15.3605L14.8624 14.5397L14.968 13.7315L15.1056 12.937L15.2962 12.1487L15.5062 11.3873L15.762 10.6389L16.0576 9.8969L16.3859 9.18113L16.7403 8.48478L17.1342 7.80157L17.548 7.15091L18.0012 6.51444L18.4807 5.91052C18.9927 5.31343 19.531 4.7552 20.0892 4.21587C20.6819 3.70901 21.2955 3.22703 21.9283 2.7712C22.5874 2.35223 23.2645 1.96203 23.9574 1.6017C24.6793 1.27708 25.4156 0.985492 26.1641 0.727853C26.9397 0.510968 27.7206 0.320341 28.5157 0.190105C29.6784 0.0451643 30.8468 -0.0336092 32.0163 0.0325592C33.5004 0.14389 34.9451 0.43272 36.3377 0.919006C37.6924 1.4146 38.9824 2.07175 40.1797 2.87623L40.4486 3.06685L40.6655 3.2244C42.984 1.49719 45.762 0.414342 48.6388 0.0919022C50.3591 -0.0719434 52.0995 -0.000524732 53.7936 0.367603C55.3076 0.702049 56.7683 1.24349 58.1345 1.97665C58.7914 2.33848 59.4153 2.74546 60.026 3.17188C61.0574 2.39677 62.2133 1.75346 63.4022 1.25457C65.6808 0.28883 68.2225 -0.111854 70.6986 0.0330861C71.4936 0.0919024 72.3013 0.203757 73.0759 0.367603C74.9304 0.772952 76.6995 1.49988 78.3032 2.51545C78.6514 2.73811 79.0127 2.98178 79.3409 3.2244C80.9388 2.04749 82.7336 1.16475 84.6412 0.617573C86.0859 0.203758 87.5505 0.0199555 89.0545 0L89.9079 0.0199566L90.755 0.0861247L91.5821 0.191154C92.3875 0.330667 93.1855 0.510138 93.973 0.728903C94.7308 0.978544 95.4739 1.27028 96.1991 1.60275C96.8992 1.95399 97.579 2.34445 98.2351 2.77225C98.8653 3.22492 99.4697 3.69755 100.054 4.21692C100.614 4.7468 101.142 5.30822 101.638 5.89844C102.114 6.50814 102.557 7.14384 102.964 7.80262L103.345 8.48583L103.7 9.18218L104.008 9.89795L104.291 10.6332L104.534 11.3883L104.743 12.1498C104.921 12.9454 105.059 13.7263 105.157 14.5408C105.216 15.3684 105.235 16.1955 105.216 17.0231C105.156 17.8359 105.053 18.6449 104.907 19.4467L104.723 20.2349L104.507 20.9969L104.251 21.7447C103.964 22.4794 103.64 23.1986 103.279 23.8994C102.761 24.7997 102.177 25.6601 101.532 26.4737C101.026 27.0665 100.489 27.632 99.9229 28.1678L99.3316 28.674L98.7214 29.1524Z" fill="#F1F2F6"/>
<path fill-rule="evenodd" clip-rule="evenodd" d="M40.9487 25.2715C38.5582 22.8805 37.1991 19.8205 37.1991 16.1949C37.1991 12.7405 38.4926 9.66681 40.6793 7.30313C42.8271 9.64738 44.1536 12.7736 44.1536 16.1949C44.1536 18.5722 43.6941 20.5757 42.5772 22.4993C44.2392 17.2195 43.7593 13.502 41.7238 10.5533C42.0914 11.0721 43.0897 13.9814 42.9059 16.1944C42.9059 18.6442 42.157 20.9233 40.8825 22.8144L40.9487 25.2715ZM104.738 16.1954C104.738 24.832 97.6907 31.8647 89.061 31.8647C85.449 31.8647 82.1128 30.6364 79.3873 28.549C76.656 30.6112 73.2992 31.8647 69.6547 31.8647C66.0554 31.8647 62.7323 30.6364 59.9941 28.6078C57.2555 30.6569 53.9529 31.8647 50.3798 31.8647C46.7678 31.8647 43.4321 30.6364 40.7061 28.549C37.9806 30.6112 34.618 31.8647 30.9798 31.8647C22.3433 31.8647 15.2969 24.8315 15.2969 16.1954C15.2969 7.5594 22.3433 0.512464 30.9798 0.512464C34.618 0.512464 37.9806 1.76756 40.6725 3.86867C43.3722 1.76756 46.741 0.512464 50.3798 0.512464C54.018 0.512464 57.3348 1.76021 60.0335 3.80933C62.7834 1.66847 66.1698 0.508051 69.6547 0.512464C73.2992 0.512464 76.656 1.76756 79.3484 3.86867C82.0534 1.76756 85.4228 0.512464 89.061 0.512464C98.0189 0.512464 104.738 7.53997 104.738 16.1954ZM89.061 2.15459C86.4074 2.15459 83.965 2.90975 81.8565 4.22997C85.3041 1.47768 90.8402 0.880592 97.1981 3.10038C94.9064 1.70822 91.9508 0.808646 89.061 0.808646C85.3897 0.808646 81.9878 2.14147 79.3347 4.30874L79.3741 6.07533C76.8456 3.65231 73.4174 2.15512 69.6542 2.15512C67.1088 2.15077 64.6146 2.87057 62.4629 4.2305C65.8984 1.47821 71.4413 0.881117 77.7913 3.10091C75.4991 1.70875 72.5504 0.80917 69.6542 0.80917C65.9955 0.80917 62.6866 2.04379 60.033 4.21737V6.07586C57.5118 3.65284 54.1424 2.15565 50.3793 2.15565C47.8318 2.15114 45.3356 2.87091 43.1816 4.23102C46.6224 1.47873 52.159 0.881641 58.5159 3.10143C56.2236 1.70927 53.2754 0.809697 50.3793 0.809697C46.7143 0.809697 43.3129 2.14252 40.653 4.30979L40.6929 6.07639C38.1712 3.65336 34.7425 2.15617 30.9798 2.15617C28.4305 2.15249 25.9325 2.87214 23.7759 4.23155C27.2235 1.47926 32.7596 0.882166 39.1164 3.10196C36.8247 1.7098 33.8692 0.810222 30.9798 0.810222C22.5077 0.810222 15.5925 7.73217 15.5925 16.197C15.5925 19.1394 16.6166 22.357 18.3569 24.9512C14.8437 18.0229 16.6166 12.7557 18.8568 9.47881C17.9961 11.4029 16.8734 13.9772 16.9327 16.197C17.1496 23.8352 23.2502 30.2384 30.9804 30.2384C34.9006 30.2384 38.2106 28.8462 40.8116 26.2189C43.3859 28.905 46.4007 30.2384 50.3803 30.2384C52.1869 30.2388 53.9755 29.8795 55.6419 29.1816C57.3082 28.4837 58.819 27.461 60.086 26.1732C62.5894 28.6818 65.8527 30.2384 69.6553 30.2384C73.5828 30.2384 76.8865 28.8462 79.4865 26.2189C82.0676 28.905 85.0756 30.2384 89.0615 30.2384C96.7916 30.2384 103.096 23.9271 103.096 16.197C103.096 8.51832 96.7386 2.15459 89.061 2.15459ZM58.1813 25.2127C56.0176 27.0937 53.2469 28.1294 50.3798 28.1288C47.5624 28.0821 46.301 27.59 45.0994 26.9993C48.5407 29.6785 56.1853 28.6409 58.1351 26.9593C56.0078 28.4896 53.3342 29.3703 50.3793 29.3703C46.7536 29.3703 43.6999 28.0438 41.2969 25.6727C43.7661 23.1573 45.0138 19.9985 45.0138 16.196C45.0138 12.4984 43.5629 9.11698 41.2049 6.60153C43.0109 4.78873 46.5835 3.01583 50.3798 3.01583C53.8342 3.01583 57.0848 4.5855 59.4496 6.77851H57.7087C55.4826 9.44467 54.28 12.4727 54.28 16.196C54.28 19.1383 55.3046 22.3559 57.0386 24.9501C53.5254 18.0219 55.3046 12.7547 57.538 9.47776C56.6773 11.4019 55.5677 13.983 55.6202 16.196C55.6995 19.6309 57.2555 22.8159 59.3634 25.2852L58.1813 25.2127ZM60.0267 24.9895C57.8069 22.6253 56.4872 19.6498 56.4872 16.1954C56.4872 12.741 57.8332 9.58226 60.033 7.22435C62.2728 9.57543 63.5536 12.6948 63.5536 16.1954C63.5536 18.5728 63.0936 20.5762 61.9771 22.4998C63.6387 17.22 63.1587 13.5025 61.1232 10.5538C61.4913 11.0726 62.4896 13.9819 62.3121 16.1949C62.3121 18.7172 61.5176 21.0746 60.1711 23.0055L60.0267 24.9895ZM60.7099 25.6848C63.0353 23.2024 64.4201 19.8862 64.4201 16.1949C64.4201 12.4973 63.0678 9.30603 60.7099 6.77746C63.0741 4.45316 66.0953 3.01478 69.6547 3.01478C73.0897 3.01478 76.3073 4.30822 78.6521 6.48232L77.1417 6.48915C74.8967 9.22539 73.6709 12.656 73.6737 16.1954C73.6737 19.1378 74.6982 22.3554 76.4386 24.9496C72.9253 18.0214 74.6988 12.7541 76.938 9.47723C76.0773 11.4014 74.9603 13.9693 75.0133 16.1954C75.0921 19.873 76.3272 22.901 78.704 25.4422L77.345 25.2983C75.2696 27.0523 72.5772 28.1294 69.6542 28.1294C66.8368 28.0826 65.6873 27.5249 64.3807 26.9998C67.8151 29.6791 75.4597 28.6414 77.4101 26.9599C75.2822 28.4901 72.6092 29.3708 69.6542 29.3708C65.8653 29.3698 63.1466 27.8657 60.7099 25.6848ZM62.9691 25.5672C64.847 26.92 67.185 27.7082 69.6542 27.7082C72.1303 27.7082 74.5533 26.8737 76.4512 25.5409C74.5795 22.9467 73.3775 19.6304 73.3775 16.1954C73.3775 12.7478 74.5008 9.5497 76.4113 6.9224C74.4626 5.45949 72.0904 4.67121 69.6537 4.67687C67.1844 4.67687 64.8985 5.43203 63.0206 6.77798C64.826 9.32651 66.048 12.8004 66.048 16.1954C66.0491 19.6304 64.8407 22.973 62.9691 25.5672ZM60.0734 22.3953C61.2647 20.5472 61.8964 18.3942 61.8925 16.1954C61.8925 13.8706 61.2482 11.697 60.0335 9.94356C58.8646 11.7889 58.1425 13.9168 58.1425 16.1954C58.1425 18.4283 58.9565 20.6151 60.0734 22.3953ZM57.0518 25.521C55.1344 22.8548 53.9781 19.6498 53.9781 16.1954C53.9772 12.8206 55.0718 9.53666 57.0974 6.83732C55.219 5.53023 52.8222 4.67687 50.3861 4.67687C47.4631 4.5125 44.2718 6.18719 43.8055 6.97491C45.5395 9.47723 46.6554 12.8786 46.6554 16.1954C46.6554 19.6236 45.5395 22.8028 43.6211 25.4354C45.4933 26.8806 47.8444 27.7082 50.3793 27.7082C52.8553 27.7082 55.1675 26.92 57.0518 25.521ZM40.0228 25.4422L38.6632 25.2983C36.5879 27.0523 33.9023 28.1294 30.9798 28.1294C28.1624 28.0826 27.3274 27.4131 25.6927 26.9998C29.135 29.6791 36.7785 28.6414 38.7357 26.9599C36.6015 28.4901 33.9285 29.3708 30.9798 29.3708C23.7297 29.3708 17.7992 23.4535 17.7992 16.1965C17.7992 8.93948 23.7228 3.01636 30.9798 3.01636C34.4143 3.01636 37.6324 4.30979 39.9772 6.4839L38.46 6.49073C36.2996 9.13694 34.9925 12.5257 34.9925 16.197C34.9925 19.1394 36.0233 22.357 37.7574 24.9512C34.2441 18.0229 36.0239 12.7557 38.2568 9.47881C37.3966 11.4029 36.2864 13.9709 36.3395 16.197C36.4172 19.873 37.6455 22.9005 40.0228 25.4422ZM40.7255 22.2966C41.8807 20.4712 42.4932 18.3551 42.4916 16.1949C42.4916 13.9494 41.842 11.8414 40.7055 10.0412C39.5828 11.8015 38.8607 13.9494 38.8607 16.1949C38.8607 18.3953 39.6416 20.5625 40.7255 22.2966ZM37.7768 25.5409C35.9052 22.9467 34.6963 19.6304 34.6963 16.1954C34.6963 12.7478 35.8201 9.5497 37.7306 6.9224C35.7845 5.45949 33.4144 4.67113 30.9798 4.67687C24.6355 4.67687 19.4608 9.85166 19.4608 16.1954C19.4608 22.5402 24.6355 27.7082 30.9798 27.7082C33.4496 27.7082 35.8794 26.8737 37.7768 25.5409ZM79.6304 25.2715C77.2399 22.8805 75.8803 19.8205 75.8803 16.1949C75.8803 12.7405 77.1743 9.66681 79.3542 7.30313C81.5083 9.64738 82.828 12.7736 82.828 16.1949C82.828 18.5722 82.369 20.5757 81.2521 22.4993C82.9204 17.2195 82.4342 13.502 80.405 10.5533C80.7663 11.0721 81.7714 13.9814 81.5871 16.1944C81.5871 18.6442 80.8388 20.9233 79.5642 22.8144L79.6304 25.2715ZM79.9781 25.6722C82.441 23.1568 83.6956 19.998 83.6956 16.1954C83.6956 12.4979 82.2435 9.11646 79.8793 6.60101C81.6921 4.7882 85.2584 3.01531 89.0604 3.01531C96.3111 3.01531 102.227 8.93843 102.227 16.1954C102.227 18.5728 101.775 20.5762 100.658 22.4998C102.32 17.22 101.834 13.5025 99.8049 10.5538C100.166 11.0726 101.171 13.9819 100.987 16.1949C100.987 22.7687 95.6279 28.1283 89.0604 28.1283C86.243 28.0816 84.9822 27.5895 83.7738 26.9987C87.2156 29.678 94.8591 28.6403 96.81 26.9588C94.6821 28.4891 92.0091 29.3698 89.0604 29.3698C85.4359 29.3698 82.3816 28.0432 79.9781 25.6722ZM82.2966 25.4354C84.1745 26.8806 86.5256 27.7082 89.061 27.7082C95.3979 27.7082 100.574 22.5397 100.574 16.1954C100.574 9.85166 95.3984 4.67687 89.061 4.67687C86.1385 4.5125 82.9467 6.18719 82.4809 6.97491C84.2144 9.47723 85.3314 12.8786 85.3314 16.1954C85.3309 19.6231 84.2144 22.8023 82.2966 25.4354ZM79.4072 22.2966C80.5231 20.5168 81.1733 18.4283 81.1733 16.1949C81.1733 13.9494 80.5169 11.8414 79.3873 10.0412C78.2577 11.8015 77.5414 13.9494 77.5414 16.1949C77.5414 18.3953 78.317 20.5625 79.4072 22.2966Z" fill="#B1B2B6"/>
</svg>
