<svg width="120" height="56" viewBox="0 0 120 56" fill="none" xmlns="http://www.w3.org/2000/svg">
<path d="M59.5984 0C54.3051 0 49.4702 1.50485 45.8173 3.96929L45.7932 3.9771L45.7832 3.99274C41.6157 6.81873 38.9941 10.8994 38.9941 15.4316C38.9941 23.9388 48.2358 30.8631 59.5984 30.8631C70.961 30.8631 80.2007 23.9408 80.2007 15.4316C80.2007 6.92231 70.957 0 59.5984 0ZM48.6339 21.7676C47.9061 22.0138 47.1683 22.1389 46.4466 22.1389C45.2122 22.1389 44.2573 21.7793 43.6924 21.494C43.3767 21.3337 43.2421 21.2106 43.1516 21.1285C43.045 21.0288 43.0008 20.9526 42.9405 20.851C41.9333 19.137 41.4247 17.3155 41.4247 15.4316C41.4247 13.5476 41.9011 11.8395 42.84 10.1802C42.8762 10.1274 43.6984 8.9177 45.0273 8.20241C46.33 7.50275 47.9564 7.53402 49.7878 8.29036C50.1798 8.45257 51.3197 8.94897 52.3289 9.39652C53.893 10.0903 54.2569 11.6088 53.9332 12.7267C53.5713 13.9756 52.7752 16.3599 52.2425 17.8491C51.7138 19.3324 50.4894 21.1402 48.6319 21.7676M67.9977 27.4586L67.9696 27.4704C67.7545 27.5544 67.5253 27.6384 67.2941 27.7205L67.2278 27.742C67.0107 27.8182 66.7855 27.8925 66.5563 27.9629L66.4739 27.9883C66.2407 28.0606 66.0095 28.127 65.7883 28.1876L65.716 28.2052C65.4586 28.2756 65.2234 28.3342 64.9963 28.3869C63.2533 28.7935 61.4339 29.0006 59.5944 29.0006C57.7549 29.0006 55.9335 28.7935 54.1885 28.3869C53.9654 28.3322 53.7302 28.2755 53.4789 28.2071L53.3984 28.1876C53.1833 28.129 52.9622 28.0645 52.7149 27.9883L52.6285 27.9629C52.4073 27.8945 52.1842 27.8202 51.9671 27.744L51.8907 27.7166C51.6615 27.6365 51.4363 27.5544 51.2232 27.4704L51.185 27.4567C51.0664 27.4098 50.9418 27.359 50.797 27.3003L51.0202 27.1655C51.183 27.0658 51.382 26.9427 51.5931 26.8137C51.9449 26.5948 52.2405 26.4072 52.4737 26.2547C52.5682 26.1922 52.6667 26.1258 52.7833 26.0417L52.8174 26.0163C55.2801 24.2515 56.0441 22.0099 56.5025 19.8503C57.1397 16.8387 57.57 14.513 57.8092 12.7443C58.2012 9.86361 57.19 7.58288 54.7997 5.96859C53.2778 4.93864 51.5851 3.86571 50.984 3.48461C53.6176 2.4234 56.5909 1.86054 59.5944 1.86054C62.5979 1.86054 65.5893 2.41753 68.2209 3.46897C67.6841 3.80903 65.9291 4.92496 64.3871 5.96859C61.9968 7.58288 60.9836 9.86361 61.3776 12.7443C61.6188 14.513 62.045 16.8387 62.6843 19.8503C63.1427 22.0099 63.9066 24.2515 66.3673 26.0163L66.4015 26.0417C66.5181 26.1258 66.6186 26.1922 66.7131 26.2547C66.9443 26.4072 67.2398 26.5948 67.5896 26.8117C67.7987 26.9427 67.9998 27.0658 68.1666 27.1655L68.3857 27.3003C68.2651 27.3511 68.1284 27.4059 67.9917 27.4586M72.7402 22.1389C72.0185 22.1389 71.2807 22.0138 70.5529 21.7676C68.6974 21.1402 67.473 19.3305 66.9443 17.8491C66.4116 16.3579 65.6155 13.9756 65.2536 12.7267C64.9299 11.6088 65.2938 10.0903 66.8579 9.39652C67.8671 8.94897 69.007 8.45257 69.399 8.29036C70.3519 7.89558 71.2525 7.69623 72.0768 7.69623C72.8347 7.69623 73.5343 7.86626 74.1595 8.20241C75.0079 8.65777 75.6573 9.31053 76.0272 9.73658C76.1538 9.88315 76.2584 10.0141 76.3488 10.1529C76.4473 10.3053 76.582 10.5672 76.6604 10.7255C77.3942 12.2225 77.7661 13.8016 77.7661 15.4296C77.7661 17.3898 77.2153 19.2777 76.1297 21.0503C76.1136 21.0777 76.0915 21.1109 76.0694 21.1383C76.0372 21.1773 76.005 21.1969 75.991 21.2086C75.6633 21.4314 74.4812 22.1389 72.7442 22.1389" fill="#241A16"/>
<path d="M59.5996 1.09839C61.9316 1.09839 64.1611 1.42672 66.2137 2.03257C68.2643 2.63842 70.136 3.52178 71.7483 4.63381C74.9769 6.85786 77.1743 9.9946 77.7211 13.6473V13.657C77.7874 14.0381 77.8317 14.4271 77.8558 14.8179C77.894 14.9489 77.9483 15.0564 78.0186 15.115C78.3423 15.3847 78.5393 15.6446 78.2377 17.4133C77.6608 20.7963 75.5036 23.8001 72.3514 25.9988C70.7753 27.0971 68.9498 27.9961 66.9515 28.6372C64.9512 29.2801 62.778 29.669 60.5003 29.7511C63.0414 29.6632 65.4538 29.2039 67.6431 28.4456C69.8324 27.6873 71.7965 26.63 73.445 25.3421C76.74 22.7682 78.7645 19.2758 78.7645 15.4316C78.7645 11.5874 76.6194 7.89171 73.1515 5.29633C71.4166 4.0006 69.3519 2.95111 67.0601 2.2241C64.7663 1.49903 62.2453 1.09839 59.5996 1.09839Z" fill="#BEC0C2"/>
<path d="M59.5996 1.09839C61.9216 1.09839 64.1471 1.42477 66.1956 2.03062C68.2442 2.63646 70.1179 3.51788 71.7342 4.6299C74.9669 6.85395 77.0496 10.0102 77.7211 13.6453V13.6551C77.7794 14.0381 77.8397 14.4349 77.8799 14.8003C77.9221 14.9235 77.9764 15.031 78.0468 15.0955C78.3523 15.3788 78.5393 15.6837 78.2458 17.4075C77.6688 20.7904 75.5097 23.7962 72.3554 25.9949C70.7773 27.0932 68.9539 27.9922 66.9515 28.6352C64.9512 29.2782 62.776 29.6691 60.5003 29.7492C63.0414 29.6612 65.4538 29.202 67.6431 28.4437C69.8324 27.6854 71.7965 26.6281 73.445 25.3402C76.74 22.7663 78.7645 19.2739 78.7645 15.4296C78.7645 11.5854 76.6194 7.88976 73.1515 5.29438C71.4166 3.99865 69.3519 2.94916 67.0601 2.22214C64.7663 1.49708 62.2453 1.09644 59.5996 1.09644" fill="#B0B1B5"/>
<path d="M59.5997 1.09839C61.9096 1.09839 64.131 1.42477 66.1776 2.03061C68.2242 2.63451 70.0998 3.51592 71.7182 4.62795C74.9569 6.85004 77.0497 10.0063 77.7211 13.6473V13.657C77.7794 14.0401 77.8478 14.4486 77.9061 14.7867C77.9523 14.9039 78.0066 15.0075 78.077 15.0779C78.3665 15.3749 78.5414 15.7248 78.2559 17.4016C77.6809 20.7865 75.5178 23.7923 72.3595 25.9929C70.7813 27.0932 68.9539 27.9903 66.9516 28.6352C64.9513 29.2801 62.774 29.669 60.4983 29.7511C63.0394 29.6632 65.4519 29.2039 67.6411 28.4456C69.8304 27.6873 71.7946 26.63 73.4431 25.3421C76.7381 22.7682 78.7625 19.2758 78.7625 15.4316C78.7625 11.5874 76.6174 7.89171 73.1496 5.29633C71.4146 4.0006 69.35 2.95111 67.0581 2.2241C64.7643 1.49903 62.2433 1.09839 59.5977 1.09839" fill="#A1A2A7"/>
<path d="M59.5978 1.09839C61.8977 1.09839 64.1131 1.42477 66.1577 2.02866C68.2022 2.63255 70.0779 3.51397 71.6982 4.62404C74.943 6.84418 77.0458 10.0005 77.7173 13.6473V13.657C77.7756 14.0401 77.85 14.4583 77.9264 14.773C77.9766 14.8824 78.0329 14.9841 78.1013 15.0603C78.3747 15.3691 78.5395 15.7677 78.2601 17.3977C77.6851 20.7807 75.52 23.7884 72.3597 25.991C70.7795 27.0932 68.9521 27.9922 66.9477 28.6371C64.9454 29.2801 62.7702 29.671 60.4924 29.7531C63.0335 29.6651 65.446 29.2059 67.6353 28.4476C69.8246 27.6893 71.7887 26.632 73.4372 25.3441C76.7322 22.7702 78.7567 19.2778 78.7567 15.4336C78.7567 11.5893 76.6116 7.89367 73.1437 5.29829C71.4087 4.00255 69.3441 2.95307 67.0523 2.22605C64.7584 1.50099 62.2374 1.10034 59.5918 1.10034" fill="#949398"/>
<path d="M59.5997 1.09839C61.8895 1.09839 64.0989 1.42477 66.1414 2.02671C68.1839 2.62865 70.0616 3.51006 71.686 4.62013C74.9348 6.84027 77.0477 9.99655 77.7191 13.6453V13.6551C77.7774 14.0381 77.8599 14.4662 77.9543 14.7554C78.0086 14.857 78.0669 14.9567 78.1333 15.0388C78.3906 15.3593 78.5434 15.8049 78.274 17.3879C77.697 20.7728 75.5298 23.7806 72.3695 25.9831C70.7874 27.0854 68.96 27.9864 66.9556 28.6313C64.9533 29.2762 62.7761 29.6671 60.4983 29.7492C63.0394 29.6612 65.4519 29.202 67.6411 28.4437C69.8304 27.6854 71.7946 26.6281 73.4431 25.3402C76.7381 22.7663 78.7625 19.2739 78.7625 15.4296C78.7625 11.5854 76.6174 7.88976 73.1496 5.29438C71.4146 3.99865 69.35 2.94916 67.0581 2.22214C64.7643 1.49708 62.2433 1.09644 59.5977 1.09644" fill="#88878B"/>
<path d="M59.5996 1.09839C61.8794 1.09839 64.0827 1.42281 66.1253 2.02671C68.1658 2.62865 70.0435 3.5081 71.6719 4.61817C74.9267 6.83636 77.0476 9.99264 77.7211 13.6473V13.657C77.7794 14.0401 77.8698 14.4798 77.9804 14.7417C78.0387 14.8375 78.099 14.9332 78.1634 15.0231C78.4066 15.3554 78.5473 15.8479 78.286 17.3859C77.711 20.7709 75.5398 23.7806 72.3755 25.9851C70.7933 27.0873 68.9619 27.9903 66.9576 28.6352C64.9532 29.2801 62.776 29.671 60.5003 29.7531C63.0414 29.6651 65.4538 29.2059 67.6431 28.4476C69.8324 27.6893 71.7965 26.632 73.445 25.3441C76.74 22.7702 78.7645 19.2778 78.7645 15.4336C78.7645 11.5893 76.6194 7.89367 73.1515 5.29829C71.4166 4.00255 69.3519 2.95307 67.0601 2.22605C64.7663 1.50099 62.2453 1.10034 59.5996 1.10034" fill="#7C7B7F"/>
<path d="M59.5996 1.09839C61.8693 1.09839 64.0687 1.42281 66.1092 2.02475C68.1477 2.62474 70.0274 3.50419 71.6578 4.61231C74.9166 6.82855 77.0496 9.98678 77.7211 13.6453V13.6551C77.7794 14.0381 77.8779 14.4876 78.0066 14.7261C78.0689 14.814 78.1312 14.9078 78.1955 15.0036C78.4247 15.3476 78.5514 15.887 78.2981 17.3801C77.7231 20.765 75.5499 23.7767 72.3836 25.9812C70.8014 27.0854 68.9679 27.9864 66.9636 28.6313C64.9593 29.2782 62.78 29.669 60.5043 29.7511C63.0454 29.6632 65.4578 29.2039 67.6471 28.4456C69.8364 27.6873 71.8005 26.63 73.449 25.3421C76.744 22.7682 78.7685 19.2758 78.7685 15.4316C78.7685 11.5874 76.6234 7.89171 73.1555 5.29633C71.4206 4.0006 69.3559 2.95111 67.0641 2.2241C64.7703 1.49903 62.2493 1.09839 59.6036 1.09839" fill="#6D6C6F"/>
<path d="M59.5996 1.09839C61.8593 1.09839 64.0526 1.42281 66.0911 2.0228C68.1276 2.62279 70.0093 3.50224 71.6397 4.60841C74.9046 6.82464 77.0456 9.98092 77.7211 13.6453V13.6551C77.7794 14.0382 77.8859 14.4974 78.0307 14.7104C78.097 14.7906 78.1593 14.8805 78.2237 14.9821C78.4408 15.3358 78.5514 15.9261 78.3061 17.3703C77.7291 20.7553 75.5559 23.7689 72.3856 25.9753C70.7994 27.0795 68.9679 27.9824 66.9616 28.6274C64.9552 29.2743 62.776 29.6651 60.5003 29.7472C63.0414 29.6593 65.4538 29.2 67.6431 28.4417C69.8324 27.6834 71.7965 26.6261 73.445 25.3382C76.74 22.7643 78.7645 19.2719 78.7645 15.4277C78.7645 11.5835 76.6194 7.88781 73.1515 5.29243C71.4166 3.99669 69.3519 2.94721 67.0601 2.22019C64.7663 1.49512 62.2453 1.09448 59.5996 1.09448" fill="#5F5C5E"/>
<path d="M59.5996 1.09839C61.8492 1.09839 64.0365 1.42086 66.073 2.02084C68.1075 2.62083 69.9912 3.49638 71.6256 4.60449C74.8945 6.82073 77.0476 9.97701 77.7211 13.6453V13.6551C77.7794 14.0381 77.892 14.5072 78.0568 14.6948C78.1272 14.7691 78.1935 14.857 78.2538 14.9645C78.4589 15.33 78.5554 15.9671 78.3182 17.3664C77.7412 20.7513 75.564 23.7669 72.3936 25.9753C70.8074 27.0795 68.972 27.9824 66.9656 28.6293C64.9593 29.2782 62.778 29.669 60.5023 29.7511C63.0434 29.6632 65.4558 29.2039 67.6451 28.4456C69.8344 27.6873 71.7985 26.63 73.447 25.3421C76.742 22.7682 78.7665 19.2758 78.7665 15.4316C78.7665 11.5874 76.6214 7.89171 73.1535 5.29633C71.4186 4.0006 69.3539 2.95111 67.0621 2.2241C64.7683 1.49903 62.2473 1.09839 59.6016 1.09839" fill="#504D4F"/>
<path d="M59.5996 1.09839C61.8392 1.09839 64.0224 1.42086 66.0549 2.02084C68.0874 2.61887 69.9711 3.49638 71.6096 4.60254C74.8844 6.81682 77.1743 9.95355 77.7211 13.6453V13.6551C77.7874 14.0362 77.9 14.5189 78.0809 14.6811C78.3925 14.9645 78.6257 15.5938 78.3262 17.3625C77.7512 20.7474 75.57 23.763 72.3956 25.9734C70.8094 27.0776 68.974 27.9824 66.9656 28.6293C64.9572 29.2782 62.778 29.669 60.5003 29.7511C63.0414 29.6632 65.4538 29.2039 67.6431 28.4456C69.8324 27.6873 71.7965 26.63 73.445 25.3421C76.74 22.7682 78.7645 19.2758 78.7645 15.4316C78.7645 11.5874 76.6194 7.89171 73.1515 5.29633C71.4166 4.0006 69.3519 2.95111 67.0601 2.2241C64.7663 1.49903 62.2453 1.09839 59.5996 1.09839Z" fill="#404041"/>
<path d="M72.518 25.8834C69.2672 28.1094 65.1118 29.585 60.5 29.7491C65.2163 29.5869 69.4864 28.1466 72.711 25.8834H72.518Z" fill="white"/>
<path d="M68.4469 3.45136L69.7778 3.59402L70.5015 3.70542C70.5015 3.70542 68.7746 2.78101 67.4297 2.35692C66.0828 1.93283 65.2344 1.79602 65.2344 1.79602C65.2344 1.79602 67.1121 2.31197 68.4992 2.91977C69.9688 3.56471 68.4469 3.4494 68.4469 3.4494" fill="#717175"/>
<path d="M68.4476 3.45147C68.4476 3.45147 68.6165 3.43583 68.6909 3.41238C68.8155 3.3772 68.8316 3.30489 68.6969 3.18959C68.0717 2.65996 65.2351 1.79809 65.2351 1.79809C65.2351 1.79809 67.8827 2.47038 69.2357 3.25408C69.5212 3.41824 69.3503 3.46515 69.099 3.46515C68.9442 3.46515 68.4496 3.44951 68.4496 3.44951M40.3226 15.4297C40.3226 7.48134 48.9692 1.03198 59.6 1.03198C50.5533 1.03198 42.9662 5.43904 40.6382 11.8884C40.403 12.5451 40.1235 13.7333 39.5646 14.3567C38.9294 15.072 39.1827 16.7371 39.1827 16.7371C39.1827 16.7371 41.386 21.2654 43.5472 23.5891C47.0633 27.3669 52.9457 29.8313 59.598 29.8313C48.9671 29.8313 40.3205 23.38 40.3205 15.4297" fill="#D1D3D4"/>
<path d="M40.3266 15.4297C40.3266 7.48134 48.9933 1.03198 59.598 1.03198C50.5513 1.03198 42.9682 5.4664 40.6422 11.9138C40.405 12.5705 40.1235 13.8173 39.5646 14.4427C38.9294 15.1561 39.1827 16.7371 39.1827 16.7371C39.1827 16.7371 41.386 21.2654 43.5472 23.5891C47.0633 27.3669 52.9477 29.8313 59.598 29.8313C48.9692 29.8313 40.3266 23.38 40.3266 15.4297Z" fill="#C1C1C3"/>
<path d="M40.3338 15.4296C40.3338 7.47926 49.0186 1.03186 59.5971 1.03186C50.5505 1.03186 42.9714 5.49169 40.6454 11.9391C40.4082 12.5958 40.1227 13.9013 39.5658 14.5267C38.9305 15.24 39.1818 16.737 39.1818 16.737C39.1818 16.737 41.3852 21.2653 43.5464 23.589C47.0625 27.3667 52.9448 29.8312 59.5971 29.8312C48.9683 29.8312 40.3338 23.3799 40.3338 15.4296Z" fill="#B0B0B3"/>
<path d="M40.3425 15.4297C40.3425 7.47939 49.0454 1.03198 59.5999 1.03198C50.5532 1.03198 42.9781 5.51722 40.6521 11.9666C40.4169 12.6232 40.1254 13.9893 39.5685 14.6128C38.9333 15.3281 39.1866 16.7371 39.1866 16.7371C39.1866 16.7371 41.3899 21.2654 43.5511 23.5891C47.0672 27.3669 52.9516 29.8313 59.6019 29.8313C48.9731 29.8313 40.3446 23.38 40.3446 15.4297" fill="#9FA0A3"/>
<path d="M40.3465 15.4297C40.3465 7.47939 49.0675 1.03198 59.5978 1.03198C50.5511 1.03198 42.9781 5.54458 40.6541 11.992C40.4169 12.6486 40.1234 14.0734 39.5665 14.6968C38.9292 15.4101 39.1825 16.7371 39.1825 16.7371C39.1825 16.7371 41.3859 21.2654 43.545 23.5891C47.0611 27.3669 52.9455 29.8313 59.5978 29.8313C48.969 29.8313 40.3465 23.38 40.3465 15.4297Z" fill="#8F9094"/>
<path d="M40.3539 15.4296C40.3539 7.47731 49.093 1.03186 59.5971 1.03186C50.5505 1.03186 42.9814 5.56986 40.6575 12.0192C40.4202 12.6759 40.1227 14.1592 39.5658 14.7827C38.9305 15.496 39.1818 16.737 39.1818 16.737C39.1818 16.737 41.3852 21.2653 43.5464 23.589C47.0625 27.3667 52.9448 29.8312 59.5971 29.8312C48.9663 29.8312 40.3539 23.3799 40.3539 15.4296Z" fill="#818085"/>
<path d="M40.3619 15.4296C40.3619 7.47731 49.1191 1.03186 59.5992 1.03186C50.5525 1.03186 42.9895 5.59722 40.6635 12.0446C40.4263 12.7013 40.1227 14.2433 39.5658 14.8667C38.9305 15.582 39.1818 16.737 39.1818 16.737C39.1818 16.737 41.3852 21.2653 43.5464 23.589C47.0625 27.3667 52.9448 29.8312 59.5971 29.8312C48.9683 29.8312 40.3599 23.3799 40.3599 15.4296" fill="#737175"/>
<path d="M40.368 15.4296C40.368 7.47536 49.1412 1.03186 59.5971 1.03186C50.5505 1.03186 42.9915 5.62263 40.6655 12.07C40.4283 12.7267 40.1207 14.3293 39.5658 14.9527C38.9305 15.666 39.1818 16.737 39.1818 16.737C39.1818 16.737 41.3852 21.2653 43.5464 23.589C47.0625 27.3667 52.9448 29.8312 59.5971 29.8312C48.9683 29.8312 40.368 23.3799 40.368 15.4296Z" fill="#616063"/>
<path d="M40.374 15.4296C40.374 7.47536 49.1673 1.03186 59.5971 1.03186C50.5505 1.03186 42.9955 5.64999 40.6695 12.0974C40.4323 12.7541 40.1207 14.4153 39.5658 15.0387C38.9305 15.752 39.1818 16.737 39.1818 16.737C39.1818 16.737 41.3852 21.2653 43.5464 23.589C47.0625 27.3667 52.9468 29.8312 59.5971 29.8312C48.9683 29.8312 40.374 23.3799 40.374 15.4296Z" fill="#524F50"/>
<path d="M40.382 15.4296C40.382 7.47536 49.1934 1.03186 59.5991 1.03186C50.5524 1.03186 43.0015 5.6754 40.6755 12.1228C40.4383 12.7795 40.1226 14.4993 39.5678 15.1227C38.9325 15.8361 39.1838 16.7351 39.1838 16.7351C39.1838 16.7351 41.3872 21.2633 43.5483 23.587C47.0644 27.3648 52.9488 29.8292 59.5991 29.8292C48.9703 29.8292 40.382 23.3779 40.382 15.4276" fill="#404041"/>
<path d="M42.9071 21.1617C43.0699 21.4959 43.1222 21.5232 43.2147 22.2639C43.2689 22.7076 42.9312 22.4007 42.9312 22.4007C42.9312 22.4007 43.2046 22.7799 43.3634 22.9792C43.5243 23.1766 43.7856 23.4209 43.7856 23.4209L43.4378 21.8046C43.1016 21.3313 42.8 20.8356 42.5352 20.3213C42.6819 20.8236 42.8468 21.0405 42.9071 21.1636" fill="#5B5A5C"/>
<path d="M48.5078 26.9193C48.5078 26.9193 49.0265 27.105 49.2597 27.2027C49.4929 27.3004 49.6417 27.3766 49.6417 27.3766L49.4969 27.2105L48.5078 26.9193Z" fill="#86878A"/>
<path d="M59.5984 29.8313C48.9937 29.8313 40.3652 23.3702 40.3652 15.4297C40.3652 7.48916 48.9917 1.03198 59.5984 1.03198C70.2052 1.03198 78.8316 7.49111 78.8316 15.4297C78.8316 23.3683 70.2031 29.8313 59.5984 29.8313ZM59.5984 1.16488C49.0681 1.16488 40.4999 7.56538 40.4999 15.4297C40.4999 23.294 49.0681 29.6984 59.5984 29.6984C70.1288 29.6984 78.697 23.2959 78.697 15.4297C78.697 7.56342 70.1267 1.16488 59.5984 1.16488Z" fill="white"/>
<path d="M48.4674 26.2645L46.9355 26.1433L48.0634 26.7648C48.0634 26.7648 49.6495 27.3257 51.2257 27.783C52.8018 28.2403 54.1749 28.4866 54.1749 28.4866C52.0881 27.9999 50.1622 27.2397 48.4674 26.2645Z" fill="#241A16"/>
<path d="M45.8634 4.0592H45.8613V4.06126L45.8634 4.0592Z" fill="#1E97D4"/>
<path d="M43.045 21.2203C43.045 21.2203 43.252 21.4451 43.4189 21.9259C43.7546 22.8894 43.9557 23.1141 44.4744 23.288C44.9548 23.4503 45.6122 23.4913 46.5249 23.4757C47.6568 23.4542 48.8389 23.202 48.8389 23.202C48.8389 23.202 47.5924 23.5323 46.0163 23.5421C45.6243 23.5421 45.0875 23.5284 44.6834 23.4639C44.4281 23.4229 44.1567 23.3525 44.012 23.2626C43.7687 23.1121 43.7144 22.9499 43.6501 22.8034C43.5496 22.5669 43.5094 22.4086 43.3767 21.9552C43.2259 21.4412 43.043 21.2203 43.043 21.2203" fill="#3E3B3C"/>
<path d="M55.4451 19.438C55.4451 19.438 54.7997 21.6679 53.6377 23.0965C52.6828 24.2691 51.3238 24.8339 50.3066 25.2209C47.1081 26.4424 44.967 24.7362 43.7246 23.5519C44.1568 24.105 44.762 24.6561 45.3611 25.1466C46.4346 26.0319 47.7132 26.7453 47.7313 26.7551C47.8097 26.7551 47.7936 26.7629 47.88 26.7629C48.5957 26.4287 50.2543 25.6391 51.5108 24.9903C53.1412 24.146 54.4841 23.0457 55.5295 19.3911C55.5375 19.3617 55.5355 19.2777 55.5355 19.2777L55.4451 19.436V19.438Z" fill="#3E3B3C"/>
<path d="M54.4467 9.47662C53.6868 8.36851 52.0323 7.61217 49.0951 6.27931C46.7832 5.23177 47.5954 4.28196 48.0377 3.93018C46.355 4.88194 44.8874 6.03306 43.6973 7.33856L44.0933 7.15681C44.0933 7.15681 46.3409 5.64023 49.9555 7.16267C51.013 7.61022 52.0001 8.06558 53.0133 8.60303C54.0527 9.15416 54.9111 10.1724 55.1684 11.3782L55.3051 11.7945C55.3051 11.7945 55.2046 10.5867 54.4447 9.47858" fill="#E7E6E6"/>
<path d="M70.7289 26.2645L72.2628 26.1433L71.1752 26.7707C71.1752 26.7707 69.5468 27.3257 67.9707 27.7811C66.3946 28.2384 65.0215 28.4846 65.0215 28.4846C67.1082 27.998 69.0342 27.2377 70.7289 26.2625" fill="#241A16"/>
<path d="M64.7511 9.47687C65.511 8.36875 67.1655 7.61242 70.1027 6.27955C72.4146 5.23202 71.6024 4.2822 71.1601 3.93042C72.8428 4.88219 74.3104 6.0333 75.4985 7.33881L75.1045 7.15705C75.1045 7.15705 72.8549 5.64048 69.2402 7.16292C68.1828 7.61046 67.1957 8.06583 66.1824 8.60327C65.1431 9.1544 64.2826 10.1726 64.0253 11.3785L63.8906 11.7478C63.8906 11.7478 63.9871 10.5869 64.7491 9.47882" fill="#E7E6E6"/>
<path d="M75.5092 23.5128C75.5092 23.5128 73.8586 25.4593 71.9769 25.9714C70.9134 26.2606 69.1805 25.4496 67.9843 24.9395C66.2434 24.1968 65.3105 22.9382 65.3105 22.9382C65.3105 22.9382 65.8071 24.0288 68.3281 25.3499C70.3465 26.4092 71.4502 26.7649 71.4502 26.7649C71.4502 26.7649 72.3006 26.3173 73.342 25.5199C75.0126 24.2379 75.5112 23.5128 75.5112 23.5128" fill="#3E3B3C"/>
<path d="M76.4062 20.7885C76.2313 21.0914 76.1509 21.2185 76.1509 21.2185C76.1509 21.2185 75.9338 21.6895 75.781 22.0882C75.6101 22.5318 75.389 22.8953 75.1377 23.0888C74.8382 23.3174 74.5909 23.3937 74.2069 23.4523C73.7103 23.5324 72.9082 23.5774 72.9082 23.5774C72.9082 23.5774 74.7577 23.5735 75.1096 23.5285C75.1759 23.5207 75.4192 23.4191 75.4192 23.4191C75.4192 23.4191 75.6544 23.0008 75.8856 22.2797C75.9378 22.1097 76.1811 21.2693 76.4143 20.8178C76.6837 20.3058 76.7762 20.1025 76.7762 20.1025C76.7762 20.1025 76.6274 20.4016 76.4083 20.7866" fill="#97989D"/>
<path d="M76.4063 20.7884C76.2314 21.0913 75.9982 21.7226 75.8715 22.0489C75.6987 22.4906 75.5237 23.0828 75.2503 23.2431C74.6814 23.5792 72.9062 23.5792 72.9062 23.5792C72.9062 23.5792 74.7558 23.5753 75.1076 23.5303C75.1739 23.5225 75.4172 23.4209 75.4172 23.4209C75.4172 23.4209 75.6544 23.0164 75.8836 22.2952C75.9379 22.1252 76.1771 21.2711 76.4123 20.8197C76.6817 20.3076 76.7742 20.1044 76.7742 20.1044C76.7742 20.1044 76.6254 20.4034 76.4063 20.7884Z" fill="#241A16"/>
<path d="M68.4465 3.45142C68.4827 3.45142 70.2981 3.61754 70.4408 3.6918C69.3693 4.30156 66.4724 6.01162 65.0028 6.85785C63.5352 7.70604 62.916 8.84933 62.916 8.84933C62.916 8.84933 63.2698 8.1614 63.8709 7.55164C64.3132 7.10605 64.6168 6.91648 65.2862 6.46893C66.8684 5.41554 68.2053 4.58103 68.5933 4.29374C69.4477 3.66053 68.4445 3.45532 68.4445 3.45532" fill="#D1D3D4"/>
<path d="M68.4473 3.45142C68.4473 3.45142 68.9077 3.45532 69.3821 3.50223C69.8666 3.54913 70.3692 3.65467 70.4416 3.6918C69.6053 4.16671 66.1354 6.24809 64.6477 7.14123C64.2275 7.39334 63.3711 8.17508 63.3711 8.17508C63.3711 8.17508 63.6003 7.81157 64.0607 7.41093C64.4105 7.10605 64.8326 6.84808 65.7514 6.30086C66.9315 5.59729 68.4734 4.59667 69.0826 4.1843C69.9671 3.58822 68.5076 3.46314 68.4473 3.45142Z" fill="#717175"/>
<path d="M44.5977 51.2509C44.5977 52.5134 44.1092 53.6254 43.1342 54.5752C42.1551 55.525 41.0172 56 39.7105 56H27.8594V39.7222H39.7105C41.0293 39.7222 42.1692 40.1951 43.1422 41.143C44.1132 42.083 44.5957 43.1951 44.5957 44.4771C44.5957 45.7592 44.1695 46.8223 43.3272 47.735C44.1715 48.6555 44.5957 49.703 44.5957 50.8717V51.2509H44.5977ZM39.5778 44.5572C39.5778 44.1312 39.417 43.7696 39.0893 43.4569C38.7656 43.1384 38.3877 42.982 37.9555 42.982H32.8813V46.238H37.9555C38.4098 46.238 38.7958 46.0699 39.1074 45.7318C39.423 45.3976 39.5778 45.0087 39.5778 44.5592M39.5778 51.0711C39.5778 50.647 39.417 50.2796 39.0893 49.963C38.7656 49.6503 38.3877 49.492 37.9555 49.492H32.8813V52.746H37.9555C38.4098 52.746 38.7958 52.5779 39.1074 52.2398C39.423 51.9095 39.5778 51.5128 39.5778 51.0691M64.6813 55.998H59.6614V52.744H52.9649V55.998H47.947V44.4752C47.947 43.2048 48.4335 42.0947 49.4105 41.1508C50.3856 40.2029 51.5315 39.7202 52.8503 39.7202H59.7941C61.0988 39.7202 62.2427 40.2029 63.2198 41.1508C64.1928 42.0967 64.6813 43.2068 64.6813 44.4752V55.998ZM59.6614 49.4881V44.5572C59.6614 44.1331 59.5006 43.7657 59.1769 43.4511C58.8532 43.1286 58.4713 42.9762 58.037 42.9762H54.6073C54.1631 42.9762 53.7771 43.1306 53.4514 43.4413C53.1277 43.752 52.9649 44.1214 52.9649 44.5572V49.4881H59.6614ZM68.0306 39.7261H73.0505V55.998H68.0306V39.7261ZM92.141 55.998H81.9102C80.6095 55.998 79.4616 55.525 78.4805 54.5733C77.4974 53.6254 77.0089 52.5153 77.0089 51.247V44.4478C77.0089 43.199 77.4974 42.1006 78.4805 41.1547C79.4616 40.2029 80.5934 39.728 81.878 39.728H92.141V42.9781H83.6693C83.2209 42.9781 82.839 43.1325 82.5153 43.4452C82.1916 43.7559 82.0268 44.1292 82.0268 44.5592V51.1532C82.0268 51.5714 82.1916 51.9486 82.5213 52.2632C82.851 52.5857 83.231 52.7421 83.6672 52.7421H92.1389V55.996L92.141 55.998Z" fill="#D12519"/>
</svg>
