<svg width="120" height="56" viewBox="0 0 120 56" fill="none" xmlns="http://www.w3.org/2000/svg">
<path d="M59.5965 0C54.3032 0 49.4682 1.50485 45.8154 3.96929L45.7913 3.9771L45.7812 3.99274C41.6137 6.81873 38.9922 10.8994 38.9922 15.4316C38.9922 23.9388 48.2339 30.8631 59.5965 30.8631C70.9591 30.8631 80.1987 23.9408 80.1987 15.4316C80.1987 6.92231 70.9551 0 59.5965 0ZM48.6319 21.7676C47.9042 22.0138 47.1664 22.1389 46.4446 22.1389C45.2103 22.1389 44.2553 21.7793 43.6904 21.494C43.3748 21.3337 43.2401 21.2106 43.1496 21.1285C43.0431 21.0288 42.9989 20.9526 42.9385 20.851C41.9313 19.137 41.4227 17.3155 41.4227 15.4316C41.4227 13.5476 41.8992 11.8395 42.838 10.1802C42.8742 10.1274 43.6965 8.9177 45.0253 8.20241C46.328 7.50275 47.9544 7.53402 49.7859 8.29036C50.1779 8.45257 51.3178 8.94897 52.327 9.39652C53.891 10.0903 54.2549 11.6088 53.9312 12.7267C53.5694 13.9756 52.7733 16.3599 52.2405 17.8491C51.7118 19.3324 50.4875 21.1402 48.6299 21.7676M67.9958 27.4586L67.9676 27.4704C67.7525 27.5544 67.5234 27.6384 67.2922 27.7205L67.2258 27.742C67.0087 27.8182 66.7835 27.8925 66.5544 27.9629L66.4719 27.9883C66.2387 28.0606 66.0075 28.127 65.7864 28.1876L65.714 28.2052C65.4567 28.2756 65.2215 28.3342 64.9943 28.3869C63.2513 28.7935 61.4319 29.0006 59.5924 29.0006C57.753 29.0006 55.9316 28.7935 54.1866 28.3869C53.9634 28.3322 53.7282 28.2755 53.4769 28.2071L53.3965 28.1876C53.1814 28.129 52.9602 28.0645 52.713 27.9883L52.6265 27.9629C52.4054 27.8945 52.1822 27.8202 51.9651 27.744L51.8887 27.7166C51.6595 27.6365 51.4344 27.5544 51.2213 27.4704L51.1831 27.4567C51.0645 27.4098 50.9398 27.359 50.7951 27.3003L51.0182 27.1655C51.1811 27.0658 51.3801 26.9427 51.5912 26.8137C51.943 26.5948 52.2385 26.4072 52.4717 26.2547C52.5662 26.1922 52.6647 26.1258 52.7813 26.0417L52.8155 26.0163C55.2782 24.2515 56.0421 22.0099 56.5005 19.8503C57.1378 16.8387 57.568 14.513 57.8072 12.7443C58.1993 9.86361 57.188 7.58288 54.7977 5.96859C53.2759 4.93864 51.5831 3.86571 50.982 3.48461C53.6156 2.4234 56.589 1.86054 59.5924 1.86054C62.5959 1.86054 65.5874 2.41753 68.2189 3.46897C67.6822 3.80903 65.9271 4.92496 64.3852 5.96859C61.9948 7.58288 60.9816 9.86361 61.3756 12.7443C61.6169 14.513 62.0431 16.8387 62.6824 19.8503C63.1407 22.0099 63.9047 24.2515 66.3654 26.0163L66.3996 26.0417C66.5162 26.1258 66.6167 26.1922 66.7112 26.2547C66.9424 26.4072 67.2379 26.5948 67.5877 26.8117C67.7968 26.9427 67.9978 27.0658 68.1647 27.1655L68.3838 27.3003C68.2632 27.3511 68.1265 27.4059 67.9898 27.4586M72.7383 22.1389C72.0165 22.1389 71.2787 22.0138 70.551 21.7676C68.6954 21.1402 67.4711 19.3305 66.9424 17.8491C66.4096 16.3579 65.6135 13.9756 65.2516 12.7267C64.928 11.6088 65.2918 10.0903 66.8559 9.39652C67.8651 8.94897 69.005 8.45257 69.397 8.29036C70.3499 7.89558 71.2506 7.69623 72.0748 7.69623C72.8327 7.69623 73.5323 7.86626 74.1576 8.20241C75.006 8.65777 75.6553 9.31053 76.0252 9.73658C76.1519 9.88315 76.2564 10.0141 76.3469 10.1529C76.4454 10.3053 76.5801 10.5672 76.6585 10.7255C77.3923 12.2225 77.7642 13.8016 77.7642 15.4296C77.7642 17.3898 77.2133 19.2777 76.1277 21.0503C76.1117 21.0777 76.0895 21.1109 76.0674 21.1383C76.0353 21.1773 76.0031 21.1969 75.989 21.2086C75.6613 21.4314 74.4792 22.1389 72.7423 22.1389" fill="#241A16"/>
<path d="M59.6016 1.09839C61.9336 1.09839 64.1631 1.42672 66.2157 2.03257C68.2663 2.63842 70.1379 3.52178 71.7502 4.63381C74.9789 6.85786 77.1762 9.9946 77.723 13.6473V13.657C77.7894 14.0381 77.8336 14.4271 77.8577 14.8179C77.8959 14.9489 77.9502 15.0564 78.0206 15.115C78.3442 15.3847 78.5413 15.6446 78.2397 17.4133C77.6627 20.7963 75.5056 23.8001 72.3533 25.9988C70.7772 27.0971 68.9518 27.9961 66.9535 28.6372C64.9532 29.2801 62.78 29.669 60.5022 29.7511C63.0433 29.6632 65.4558 29.2039 67.6451 28.4456C69.8343 27.6873 71.7985 26.63 73.447 25.3421C76.742 22.7682 78.7664 19.2758 78.7664 15.4316C78.7664 11.5874 76.6214 7.89171 73.1535 5.29634C71.4185 4.0006 69.3539 2.95111 67.062 2.22409C64.7682 1.49903 62.2472 1.09839 59.6016 1.09839Z" fill="#BEC0C2"/>
<path d="M59.6016 1.09839C61.9235 1.09839 64.149 1.42477 66.1976 2.03062C68.2462 2.63646 70.1198 3.51788 71.7362 4.6299C74.9688 6.85395 77.0516 10.0102 77.723 13.6453V13.6551C77.7813 14.0381 77.8416 14.4349 77.8819 14.8003C77.9241 14.9235 77.9784 15.031 78.0487 15.0955C78.3543 15.3788 78.5413 15.6837 78.2477 17.4074C77.6708 20.7904 75.5116 23.7962 72.3574 25.9949C70.7792 27.0932 68.9558 27.9922 66.9535 28.6352C64.9532 29.2782 62.7779 29.6691 60.5022 29.7492C63.0433 29.6612 65.4558 29.202 67.6451 28.4437C69.8343 27.6854 71.7985 26.6281 73.447 25.3402C76.742 22.7663 78.7664 19.2739 78.7664 15.4296C78.7664 11.5854 76.6214 7.88976 73.1535 5.29438C71.4185 3.99865 69.3539 2.94916 67.062 2.22214C64.7682 1.49708 62.2472 1.09644 59.6016 1.09644" fill="#B0B1B5"/>
<path d="M59.5997 1.09839C61.9096 1.09839 64.131 1.42477 66.1776 2.03061C68.2242 2.63451 70.0998 3.51592 71.7182 4.62795C74.9569 6.85004 77.0497 10.0063 77.7211 13.6473V13.657C77.7794 14.0401 77.8478 14.4486 77.9061 14.7867C77.9523 14.9039 78.0066 15.0075 78.077 15.0779C78.3665 15.3749 78.5414 15.7248 78.2559 17.4016C77.6809 20.7865 75.5178 23.7923 72.3595 25.9929C70.7813 27.0932 68.9539 27.9903 66.9516 28.6352C64.9513 29.2801 62.774 29.669 60.4983 29.7511C63.0394 29.6632 65.4519 29.2039 67.6411 28.4456C69.8304 27.6873 71.7946 26.63 73.4431 25.3421C76.7381 22.7682 78.7625 19.2758 78.7625 15.4316C78.7625 11.5874 76.6174 7.89171 73.1496 5.29634C71.4146 4.0006 69.35 2.95111 67.0581 2.22409C64.7643 1.49903 62.2433 1.09839 59.5977 1.09839" fill="#A1A2A7"/>
<path d="M59.5998 1.09839C61.8996 1.09839 64.1151 1.42477 66.1596 2.02866C68.2042 2.63255 70.0798 3.51397 71.7002 4.62404C74.9449 6.84418 77.0478 10.0005 77.7192 13.6473V13.657C77.7775 14.0401 77.8519 14.4583 77.9283 14.773C77.9786 14.8824 78.0349 14.9841 78.1032 15.0603C78.3766 15.3691 78.5415 15.7677 78.262 17.3977C77.6871 20.7807 75.5219 23.7884 72.3616 25.991C70.7815 27.0932 68.954 27.9922 66.9497 28.6371C64.9474 29.2801 62.7721 29.671 60.4944 29.7531C63.0355 29.6651 65.4479 29.2059 67.6372 28.4476C69.8265 27.6893 71.7907 26.632 73.4392 25.3441C76.7342 22.7702 78.7586 19.2778 78.7586 15.4336C78.7586 11.5893 76.6135 7.89367 73.1457 5.29829C71.4107 4.00255 69.3461 2.95307 67.0542 2.22605C64.7604 1.50099 62.2394 1.10034 59.5938 1.10034" fill="#949398"/>
<path d="M59.5997 1.09839C61.8895 1.09839 64.0989 1.42477 66.1414 2.02671C68.1839 2.62865 70.0616 3.51006 71.686 4.62013C74.9348 6.84027 77.0477 9.99655 77.7191 13.6453V13.6551C77.7774 14.0381 77.8599 14.4662 77.9543 14.7554C78.0086 14.857 78.0669 14.9567 78.1333 15.0388C78.3906 15.3593 78.5434 15.8049 78.274 17.3879C77.697 20.7728 75.5298 23.7806 72.3695 25.9831C70.7874 27.0854 68.96 27.9864 66.9556 28.6313C64.9533 29.2762 62.7761 29.6671 60.4983 29.7492C63.0394 29.6612 65.4519 29.202 67.6411 28.4437C69.8304 27.6854 71.7946 26.6281 73.4431 25.3402C76.7381 22.7663 78.7625 19.2739 78.7625 15.4296C78.7625 11.5854 76.6174 7.88976 73.1496 5.29438C71.4146 3.99865 69.35 2.94916 67.0581 2.22214C64.7643 1.49708 62.2433 1.09644 59.5977 1.09644" fill="#88878B"/>
<path d="M59.6016 1.09839C61.8813 1.09839 64.0847 1.42281 66.1272 2.02671C68.1677 2.62865 70.0454 3.5081 71.6738 4.61817C74.9286 6.83636 77.0496 9.99264 77.723 13.6473V13.657C77.7813 14.0401 77.8718 14.4798 77.9824 14.7417C78.0407 14.8375 78.101 14.9332 78.1653 15.0231C78.4086 15.3554 78.5493 15.8479 78.288 17.3859C77.713 20.7709 75.5418 23.7806 72.3775 25.9851C70.7953 27.0873 68.9639 27.9903 66.9595 28.6352C64.9552 29.2801 62.7779 29.671 60.5022 29.7531C63.0433 29.6651 65.4558 29.2059 67.6451 28.4476C69.8343 27.6893 71.7985 26.632 73.447 25.3441C76.742 22.7702 78.7664 19.2778 78.7664 15.4336C78.7664 11.5893 76.6214 7.89367 73.1535 5.29829C71.4185 4.00255 69.3539 2.95307 67.062 2.22605C64.7682 1.50099 62.2472 1.10034 59.6016 1.10034" fill="#7C7B7F"/>
<path d="M59.6016 1.09839C61.8713 1.09839 64.0706 1.42281 66.1111 2.02475C68.1497 2.62474 70.0294 3.50419 71.6598 4.61231C74.9186 6.82855 77.0516 9.98678 77.723 13.6453V13.6551C77.7813 14.0381 77.8798 14.4876 78.0085 14.7261C78.0708 14.814 78.1332 14.9078 78.1975 15.0036C78.4267 15.3476 78.5533 15.887 78.3 17.3801C77.725 20.765 75.5518 23.7767 72.3855 25.9812C70.8033 27.0854 68.9699 27.9864 66.9655 28.6313C64.9612 29.2782 62.782 29.669 60.5062 29.7511C63.0473 29.6632 65.4598 29.2039 67.6491 28.4456C69.8384 27.6873 71.8025 26.63 73.451 25.3421C76.746 22.7682 78.7704 19.2758 78.7704 15.4316C78.7704 11.5874 76.6254 7.89171 73.1575 5.29634C71.4225 4.0006 69.3579 2.95111 67.0661 2.22409C64.7722 1.49903 62.2512 1.09839 59.6056 1.09839" fill="#6D6C6F"/>
<path d="M59.6016 1.09839C61.8612 1.09839 64.0545 1.42281 66.093 2.0228C68.1295 2.62279 70.0113 3.50224 71.6417 4.60841C74.9065 6.82464 77.0476 9.98092 77.723 13.6453V13.6551C77.7813 14.0382 77.8879 14.4974 78.0326 14.7104C78.099 14.7906 78.1613 14.8805 78.2256 14.9821C78.4427 15.3358 78.5533 15.9261 78.3081 17.3703C77.7311 20.7553 75.5579 23.7689 72.3875 25.9753C70.8013 27.0795 68.9699 27.9824 66.9635 28.6274C64.9572 29.2743 62.7779 29.6651 60.5022 29.7472C63.0433 29.6593 65.4558 29.2 67.6451 28.4417C69.8343 27.6834 71.7985 26.6261 73.447 25.3382C76.742 22.7643 78.7664 19.2719 78.7664 15.4277C78.7664 11.5835 76.6214 7.88781 73.1535 5.29243C71.4185 3.99669 69.3539 2.94721 67.062 2.22019C64.7682 1.49512 62.2472 1.09448 59.6016 1.09448" fill="#5F5C5E"/>
<path d="M59.6016 1.09839C61.8512 1.09839 64.0384 1.42086 66.075 2.02084C68.1094 2.62083 69.9932 3.49638 71.6276 4.60449C74.8965 6.82073 77.0496 9.97701 77.723 13.6453V13.6551C77.7813 14.0381 77.8939 14.5072 78.0588 14.6948C78.1291 14.7691 78.1955 14.857 78.2558 14.9645C78.4608 15.33 78.5573 15.9671 78.3201 17.3664C77.7431 20.7513 75.5659 23.7669 72.3956 25.9753C70.8094 27.0795 68.9739 27.9824 66.9676 28.6293C64.9612 29.2782 62.78 29.669 60.5042 29.7511C63.0453 29.6632 65.4578 29.2039 67.6471 28.4456C69.8364 27.6873 71.8005 26.63 73.449 25.3421C76.744 22.7682 78.7684 19.2758 78.7684 15.4316C78.7684 11.5874 76.6234 7.89171 73.1555 5.29634C71.4205 4.0006 69.3559 2.95111 67.0641 2.22409C64.7702 1.49903 62.2492 1.09839 59.6036 1.09839" fill="#504D4F"/>
<path d="M59.6016 1.09839C61.8411 1.09839 64.0244 1.42086 66.0569 2.02084C68.0893 2.61887 69.9731 3.49638 71.6115 4.60254C74.8864 6.81682 77.1762 9.95355 77.723 13.6453V13.6551C77.7894 14.0362 77.902 14.5189 78.0829 14.6811C78.3945 14.9645 78.6277 15.5938 78.3282 17.3625C77.7532 20.7474 75.5719 23.763 72.3976 25.9734C70.8114 27.0776 68.9759 27.9824 66.9676 28.6293C64.9592 29.2782 62.78 29.669 60.5022 29.7511C63.0433 29.6632 65.4558 29.2039 67.6451 28.4456C69.8343 27.6873 71.7985 26.63 73.447 25.3421C76.742 22.7682 78.7664 19.2758 78.7664 15.4316C78.7664 11.5874 76.6214 7.89171 73.1535 5.29634C71.4185 4.0006 69.3539 2.95111 67.062 2.22409C64.7682 1.49903 62.2472 1.09839 59.6016 1.09839Z" fill="#404041"/>
<path d="M72.518 25.8833C69.2672 28.1093 65.1118 29.5848 60.5 29.749C65.2163 29.5868 69.4864 28.1464 72.711 25.8833H72.518Z" fill="white"/>
<path d="M68.4469 3.45148L69.7778 3.59415L70.5015 3.70554C70.5015 3.70554 68.7746 2.78114 67.4297 2.35704C66.0828 1.93295 65.2344 1.79614 65.2344 1.79614C65.2344 1.79614 67.1121 2.31209 68.4992 2.91989C69.9688 3.56483 68.4469 3.44952 68.4469 3.44952" fill="#717175"/>
<path d="M68.4476 3.45147C68.4476 3.45147 68.6165 3.43583 68.6909 3.41238C68.8155 3.3772 68.8316 3.30489 68.6969 3.18959C68.0717 2.65996 65.2351 1.79809 65.2351 1.79809C65.2351 1.79809 67.8827 2.47038 69.2357 3.25408C69.5212 3.41824 69.3503 3.46515 69.099 3.46515C68.9442 3.46515 68.4496 3.44951 68.4496 3.44951M40.3226 15.4297C40.3226 7.48134 48.9692 1.03198 59.6 1.03198C50.5533 1.03198 42.9662 5.43904 40.6382 11.8884C40.403 12.5451 40.1235 13.7333 39.5646 14.3567C38.9294 15.072 39.1827 16.7371 39.1827 16.7371C39.1827 16.7371 41.386 21.2654 43.5472 23.5891C47.0633 27.3669 52.9457 29.8313 59.598 29.8313C48.9671 29.8313 40.3205 23.38 40.3205 15.4297" fill="#D1D3D4"/>
<path d="M40.3266 15.4297C40.3266 7.48134 48.9933 1.03198 59.598 1.03198C50.5513 1.03198 42.9682 5.4664 40.6422 11.9138C40.405 12.5705 40.1235 13.8173 39.5646 14.4427C38.9294 15.1561 39.1827 16.7371 39.1827 16.7371C39.1827 16.7371 41.386 21.2654 43.5472 23.5891C47.0633 27.3669 52.9477 29.8313 59.598 29.8313C48.9692 29.8313 40.3266 23.38 40.3266 15.4297Z" fill="#C1C1C3"/>
<path d="M40.3338 15.4297C40.3338 7.47939 49.0186 1.03198 59.5971 1.03198C50.5505 1.03198 42.9714 5.49181 40.6454 11.9392C40.4082 12.5959 40.1227 13.9014 39.5658 14.5268C38.9305 15.2401 39.1818 16.7371 39.1818 16.7371C39.1818 16.7371 41.3852 21.2654 43.5464 23.5891C47.0625 27.3669 52.9448 29.8313 59.5971 29.8313C48.9683 29.8313 40.3338 23.38 40.3338 15.4297Z" fill="#B0B0B3"/>
<path d="M40.3425 15.4297C40.3425 7.47939 49.0454 1.03198 59.5999 1.03198C50.5532 1.03198 42.9781 5.51722 40.6521 11.9666C40.4169 12.6232 40.1254 13.9893 39.5685 14.6128C38.9333 15.3281 39.1866 16.7371 39.1866 16.7371C39.1866 16.7371 41.3899 21.2654 43.5511 23.5891C47.0672 27.3669 52.9516 29.8313 59.6019 29.8313C48.9731 29.8313 40.3446 23.38 40.3446 15.4297" fill="#9FA0A3"/>
<path d="M40.3465 15.4297C40.3465 7.47939 49.0675 1.03198 59.5978 1.03198C50.5511 1.03198 42.9781 5.54458 40.6541 11.992C40.4169 12.6486 40.1234 14.0734 39.5665 14.6968C38.9292 15.4101 39.1825 16.7371 39.1825 16.7371C39.1825 16.7371 41.3859 21.2654 43.545 23.5891C47.0611 27.3669 52.9455 29.8313 59.5978 29.8313C48.969 29.8313 40.3465 23.38 40.3465 15.4297Z" fill="#8F9094"/>
<path d="M40.3539 15.4297C40.3539 7.47743 49.093 1.03198 59.5971 1.03198C50.5505 1.03198 42.9814 5.56999 40.6575 12.0193C40.4202 12.676 40.1227 14.1594 39.5658 14.7828C38.9305 15.4961 39.1818 16.7371 39.1818 16.7371C39.1818 16.7371 41.3852 21.2654 43.5464 23.5891C47.0625 27.3669 52.9448 29.8313 59.5971 29.8313C48.9663 29.8313 40.3539 23.38 40.3539 15.4297Z" fill="#818085"/>
<path d="M40.3619 15.4297C40.3619 7.47743 49.1191 1.03198 59.5992 1.03198C50.5525 1.03198 42.9895 5.59735 40.6635 12.0448C40.4263 12.7014 40.1227 14.2434 39.5658 14.8668C38.9305 15.5821 39.1818 16.7371 39.1818 16.7371C39.1818 16.7371 41.3852 21.2654 43.5464 23.5891C47.0625 27.3669 52.9448 29.8313 59.5971 29.8313C48.9683 29.8313 40.3599 23.38 40.3599 15.4297" fill="#737175"/>
<path d="M40.368 15.4297C40.368 7.47548 49.1412 1.03198 59.5971 1.03198C50.5505 1.03198 42.9915 5.62275 40.6655 12.0702C40.4283 12.7268 40.1207 14.3294 39.5658 14.9528C38.9305 15.6662 39.1818 16.7371 39.1818 16.7371C39.1818 16.7371 41.3852 21.2654 43.5464 23.5891C47.0625 27.3669 52.9448 29.8313 59.5971 29.8313C48.9683 29.8313 40.368 23.38 40.368 15.4297Z" fill="#616063"/>
<path d="M40.374 15.4297C40.374 7.47548 49.1673 1.03198 59.5971 1.03198C50.5505 1.03198 42.9955 5.65011 40.6695 12.0975C40.4323 12.7542 40.1207 14.4154 39.5658 15.0388C38.9305 15.7522 39.1818 16.7371 39.1818 16.7371C39.1818 16.7371 41.3852 21.2654 43.5464 23.5891C47.0625 27.3669 52.9468 29.8313 59.5971 29.8313C48.9683 29.8313 40.374 23.38 40.374 15.4297Z" fill="#524F50"/>
<path d="M40.38 15.4297C40.38 7.47548 49.1915 1.03198 59.5971 1.03198C50.5505 1.03198 42.9995 5.67552 40.6735 12.1229C40.4363 12.7796 40.1207 14.4994 39.5658 15.1229C38.9305 15.8362 39.1818 16.7352 39.1818 16.7352C39.1818 16.7352 41.3852 21.2634 43.5464 23.5871C47.0625 27.3649 52.9468 29.8293 59.5971 29.8293C48.9683 29.8293 40.38 23.378 40.38 15.4277" fill="#404041"/>
<path d="M42.9071 21.1617C43.0699 21.4959 43.1222 21.5232 43.2147 22.2639C43.2689 22.7076 42.9312 22.4007 42.9312 22.4007C42.9312 22.4007 43.2046 22.7799 43.3634 22.9792C43.5243 23.1766 43.7856 23.4209 43.7856 23.4209L43.4378 21.8046C43.1016 21.3313 42.8 20.8356 42.5352 20.3213C42.6819 20.8236 42.8468 21.0405 42.9071 21.1636" fill="#5B5A5C"/>
<path d="M48.5078 26.9192C48.5078 26.9192 49.0265 27.1049 49.2597 27.2026C49.4929 27.3003 49.6417 27.3765 49.6417 27.3765L49.4969 27.2104L48.5078 26.9192Z" fill="#86878A"/>
<path d="M59.6004 29.8313C48.9957 29.8313 40.3672 23.3702 40.3672 15.4297C40.3672 7.48916 48.9937 1.03198 59.6004 1.03198C70.2071 1.03198 78.8336 7.49111 78.8336 15.4297C78.8336 23.3683 70.2051 29.8313 59.6004 29.8313ZM59.6004 1.16488C49.0701 1.16488 40.5019 7.56538 40.5019 15.4297C40.5019 23.294 49.0701 29.6984 59.6004 29.6984C70.1307 29.6984 78.6989 23.2959 78.6989 15.4297C78.6989 7.56342 70.1287 1.16488 59.6004 1.16488Z" fill="white"/>
<path d="M48.4694 26.2645L46.9375 26.1433L48.0653 26.7648C48.0653 26.7648 49.6515 27.3257 51.2276 27.783C52.8038 28.2403 54.1768 28.4866 54.1768 28.4866C52.0901 27.9999 50.1641 27.2397 48.4694 26.2645Z" fill="#241A16"/>
<path d="M45.8614 4.05908H45.8594V4.06114L45.8614 4.05908Z" fill="#1E97D4"/>
<path d="M43.045 21.2205C43.045 21.2205 43.252 21.4452 43.4189 21.926C43.7546 22.8895 43.9557 23.1142 44.4744 23.2882C44.9548 23.4504 45.6122 23.4914 46.5249 23.4758C47.6568 23.4543 48.8389 23.2022 48.8389 23.2022C48.8389 23.2022 47.5924 23.5325 46.0163 23.5422C45.6243 23.5422 45.0875 23.5285 44.6834 23.4641C44.4281 23.423 44.1567 23.3527 44.012 23.2628C43.7687 23.1123 43.7144 22.9501 43.6501 22.8035C43.5496 22.567 43.5094 22.4087 43.3767 21.9553C43.2259 21.4413 43.043 21.2205 43.043 21.2205" fill="#3E3B3C"/>
<path d="M55.447 19.4381C55.447 19.4381 54.8017 21.668 53.6397 23.0966C52.6848 24.2692 51.3258 24.8341 50.3085 25.221C47.11 26.4425 44.969 24.7363 43.7266 23.552C44.1588 24.1051 44.7639 24.6562 45.363 25.1467C46.4365 26.0321 47.7151 26.7454 47.7332 26.7552C47.8116 26.7552 47.7956 26.763 47.882 26.763C48.5977 26.4288 50.2562 25.6392 51.5127 24.9904C53.1431 24.1461 54.4861 23.0458 55.5315 19.3912C55.5395 19.3619 55.5375 19.2778 55.5375 19.2778L55.447 19.4361V19.4381Z" fill="#3E3B3C"/>
<path d="M54.4448 9.47662C53.6848 8.36851 52.0303 7.61217 49.0932 6.27931C46.7812 5.23177 47.5934 4.28196 48.0357 3.93018C46.353 4.88194 44.8855 6.03306 43.6953 7.33856L44.0914 7.15681C44.0914 7.15681 46.3389 5.64023 49.9536 7.16267C51.011 7.61022 51.9981 8.06558 53.0114 8.60303C54.0507 9.15416 54.9092 10.1724 55.1665 11.3782L55.3032 11.7945C55.3032 11.7945 55.2027 10.5867 54.4428 9.47858" fill="#E7E6E6"/>
<path d="M70.7309 26.2645L72.2648 26.1433L71.1772 26.7707C71.1772 26.7707 69.5488 27.3257 67.9726 27.7811C66.3965 28.2384 65.0234 28.4846 65.0234 28.4846C67.1102 27.998 69.0361 27.2377 70.7309 26.2625" fill="#241A16"/>
<path d="M64.7511 9.47687C65.511 8.36875 67.1655 7.61242 70.1027 6.27955C72.4146 5.23202 71.6024 4.2822 71.1601 3.93042C72.8428 4.88219 74.3104 6.0333 75.4985 7.33881L75.1045 7.15705C75.1045 7.15705 72.8549 5.64048 69.2402 7.16292C68.1828 7.61046 67.1957 8.06583 66.1824 8.60327C65.1431 9.1544 64.2826 10.1726 64.0253 11.3785L63.8906 11.7478C63.8906 11.7478 63.9871 10.5869 64.7491 9.47882" fill="#E7E6E6"/>
<path d="M75.5111 23.5128C75.5111 23.5128 73.8606 25.4593 71.9789 25.9714C70.9154 26.2606 69.1825 25.4496 67.9863 24.9395C66.2453 24.1968 65.3125 22.9382 65.3125 22.9382C65.3125 22.9382 65.8091 24.0288 68.3301 25.3499C70.3485 26.4092 71.4522 26.7649 71.4522 26.7649C71.4522 26.7649 72.3026 26.3173 73.3439 25.5199C75.0145 24.2379 75.5131 23.5128 75.5131 23.5128" fill="#3E3B3C"/>
<path d="M76.4043 20.7885C76.2294 21.0914 76.149 21.2185 76.149 21.2185C76.149 21.2185 75.9319 21.6895 75.7791 22.0882C75.6082 22.5318 75.387 22.8953 75.1357 23.0888C74.8362 23.3174 74.5889 23.3937 74.2049 23.4523C73.7084 23.5324 72.9062 23.5774 72.9062 23.5774C72.9062 23.5774 74.7558 23.5735 75.1076 23.5285C75.1739 23.5207 75.4172 23.4191 75.4172 23.4191C75.4172 23.4191 75.6524 23.0008 75.8836 22.2797C75.9359 22.1097 76.1791 21.2693 76.4123 20.8178C76.6817 20.3058 76.7742 20.1025 76.7742 20.1025C76.7742 20.1025 76.6254 20.4016 76.4063 20.7866" fill="#97989D"/>
<path d="M76.4063 20.7885C76.2314 21.0914 75.9982 21.7227 75.8715 22.0491C75.6987 22.4908 75.5237 23.0829 75.2503 23.2432C74.6814 23.5793 72.9062 23.5793 72.9062 23.5793C72.9062 23.5793 74.7558 23.5754 75.1076 23.5305C75.1739 23.5227 75.4172 23.421 75.4172 23.421C75.4172 23.421 75.6544 23.0165 75.8836 22.2953C75.9379 22.1253 76.1771 21.2712 76.4123 20.8198C76.6817 20.3077 76.7742 20.1045 76.7742 20.1045C76.7742 20.1045 76.6254 20.4035 76.4063 20.7885Z" fill="#241A16"/>
<path d="M68.4446 3.45142C68.4808 3.45142 70.2961 3.61754 70.4389 3.6918C69.3673 4.30156 66.4704 6.01162 65.0008 6.85785C63.5333 7.70604 62.9141 8.84933 62.9141 8.84933C62.9141 8.84933 63.2679 8.1614 63.869 7.55164C64.3113 7.10605 64.6148 6.91648 65.2843 6.46893C66.8664 5.41554 68.2033 4.58103 68.5913 4.29374C69.4458 3.66053 68.4426 3.45532 68.4426 3.45532" fill="#D1D3D4"/>
<path d="M68.4473 3.45142C68.4473 3.45142 68.9077 3.45532 69.3821 3.50223C69.8666 3.54913 70.3692 3.65467 70.4416 3.6918C69.6053 4.16671 66.1354 6.24809 64.6477 7.14123C64.2275 7.39334 63.3711 8.17508 63.3711 8.17508C63.3711 8.17508 63.6003 7.81157 64.0607 7.41093C64.4105 7.10605 64.8326 6.84808 65.7514 6.30086C66.9315 5.59729 68.4734 4.59667 69.0826 4.1843C69.9671 3.58822 68.5076 3.46314 68.4473 3.45142Z" fill="#717175"/>
<path d="M44.5977 51.2509C44.5977 52.5134 44.1092 53.6254 43.1342 54.5752C42.1551 55.525 41.0172 56 39.7105 56H27.8594V39.7222H39.7105C41.0293 39.7222 42.1692 40.1951 43.1422 41.143C44.1132 42.083 44.5957 43.1951 44.5957 44.4771C44.5957 45.7592 44.1695 46.8223 43.3272 47.735C44.1715 48.6555 44.5957 49.703 44.5957 50.8717V51.2509H44.5977ZM39.5778 44.5572C39.5778 44.1312 39.417 43.7696 39.0893 43.4569C38.7656 43.1384 38.3877 42.982 37.9555 42.982H32.8813V46.238H37.9555C38.4098 46.238 38.7958 46.0699 39.1074 45.7318C39.423 45.3976 39.5778 45.0087 39.5778 44.5592M39.5778 51.0711C39.5778 50.647 39.417 50.2796 39.0893 49.963C38.7656 49.6503 38.3877 49.492 37.9555 49.492H32.8813V52.746H37.9555C38.4098 52.746 38.7958 52.5779 39.1074 52.2398C39.423 51.9095 39.5778 51.5128 39.5778 51.0691M64.6813 55.998H59.6614V52.744H52.9649V55.998H47.947V44.4752C47.947 43.2048 48.4335 42.0947 49.4105 41.1508C50.3856 40.2029 51.5315 39.7202 52.8503 39.7202H59.7941C61.0988 39.7202 62.2427 40.2029 63.2198 41.1508C64.1928 42.0967 64.6813 43.2068 64.6813 44.4752V55.998ZM59.6614 49.4881V44.5572C59.6614 44.1331 59.5006 43.7657 59.1769 43.4511C58.8532 43.1286 58.4713 42.9762 58.037 42.9762H54.6073C54.1631 42.9762 53.7771 43.1306 53.4514 43.4413C53.1277 43.752 52.9649 44.1214 52.9649 44.5572V49.4881H59.6614ZM68.0306 39.7261H73.0505V55.998H68.0306V39.7261ZM92.141 55.998H81.9102C80.6095 55.998 79.4616 55.525 78.4805 54.5733C77.4974 53.6254 77.0089 52.5153 77.0089 51.247V44.4478C77.0089 43.199 77.4974 42.1006 78.4805 41.1547C79.4616 40.2029 80.5934 39.728 81.878 39.728H92.141V42.9781H83.6693C83.2209 42.9781 82.839 43.1325 82.5153 43.4452C82.1916 43.7559 82.0268 44.1292 82.0268 44.5592V51.1532C82.0268 51.5714 82.1916 51.9486 82.5213 52.2632C82.851 52.5857 83.231 52.7421 83.6672 52.7421H92.1389V55.996L92.141 55.998Z" fill="#56575B"/>
</svg>
