<svg width="120" height="56" viewBox="0 0 120 56" fill="none" xmlns="http://www.w3.org/2000/svg">
<path d="M16.4834 13.344C12.5337 13.4156 7.77926 14.0765 5.01746 15.6712C3.23675 16.7109 1.04769 18.8268 0.376023 22.0848C-0.297133 25.3421 0.0137834 28.5141 0.67727 31.7764C1.33927 35.0373 2.66699 38.6877 6.34368 40.5687C10.0211 42.4491 12.4869 42.6718 17.5263 42.6581C22.5656 42.6725 25.0314 42.4491 28.7088 40.5687C32.3855 38.6877 33.7125 35.0373 34.3753 31.7757C35.038 28.5149 35.3489 25.3421 34.6765 22.0848C34.0048 18.8268 31.8158 16.7109 30.0351 15.6719C26.4461 13.7708 22.4987 13.407 18.5684 13.344C17.8528 13.3483 17.1447 13.3362 16.4819 13.344H16.4834ZM21.6247 14.2205C23.0826 14.3544 26.731 14.6272 29.4623 16.1939C32.1921 17.7613 33.4135 19.7541 33.923 22.1714C34.4333 24.5888 34.3886 27.6456 33.682 31.5151C32.9754 35.3846 30.9983 38.6039 28.3168 39.9594C25.6346 41.3149 22.2302 42.0323 17.5263 41.9629C12.8223 42.0323 9.41789 41.3149 6.73568 39.9594C4.05421 38.6039 2.07714 35.3839 1.37051 31.5151C0.663881 27.6456 0.619252 24.5888 1.12951 22.1714C1.63903 19.7541 2.85964 17.7613 5.5902 16.1939C8.32076 14.6272 11.9692 14.3544 13.4278 14.2205C16.1502 14.0028 18.9358 13.9863 21.6247 14.2205ZM16.6218 14.8935C14.3829 14.92 11.9878 15.1843 10.3477 15.5237C8.47324 15.9103 7.83281 16.0478 6.21649 16.9787C4.60017 17.9095 2.61343 19.8042 2.0035 22.7221C1.39357 25.6399 1.67622 28.4819 2.27723 31.4027C2.87823 34.3241 4.08322 37.5936 7.41999 39.2777C12.9659 42.0581 22.2257 41.9478 27.6325 39.2777C30.9693 37.5936 32.1735 34.3234 32.7753 31.4027C33.377 28.4819 33.659 25.6399 33.049 22.7221C32.4391 19.8042 30.4516 17.9095 28.836 16.9787C27.2197 16.0478 26.5793 15.911 24.7049 15.523C23.0647 15.1843 20.6689 14.92 18.4307 14.8928C17.8104 14.8978 17.196 14.8878 16.6218 14.8935ZM21.0244 16.297C21.6329 16.3514 22.6846 16.4352 23.8733 16.6557C24.0496 16.6908 24.1485 16.7452 24.1098 16.9063C22.1982 21.3716 20.1549 25.8383 18.0246 30.3035C17.7375 30.895 17.3745 30.9179 17.08 30.4124C14.9303 25.9113 12.87 21.4081 10.9427 16.9071C10.904 16.7452 11.003 16.6908 11.1793 16.6564C12.3679 16.4352 13.4196 16.3514 14.0281 16.2963C16.3525 16.1123 18.7365 16.1008 21.0244 16.297ZM9.25648 17.1419C9.36508 17.1383 9.40152 17.2078 9.39781 17.3388L9.39929 17.3345V24.848C9.39929 27.2188 9.8017 28.3315 10.8914 30.2649L16.113 39.5204C16.2908 39.847 16.0014 39.8255 15.6875 39.8291C12.5739 39.7002 10.1907 39.118 8.24861 38.1528C5.93161 37.0014 4.22454 34.2675 3.61387 30.9823C3.00394 27.6964 2.96451 25.1008 3.4056 23.0486C3.84594 20.9957 4.90068 19.3029 7.25858 17.9718C7.8462 17.6403 8.4844 17.3768 9.12929 17.1663C9.17003 17.1523 9.21259 17.1439 9.25574 17.1412L9.25648 17.1419ZM25.796 17.1419C25.8392 17.1444 25.8817 17.1526 25.9225 17.1663C26.5681 17.3768 27.2056 17.6403 27.7939 17.9718C30.1518 19.3029 31.2066 20.9957 31.6469 23.0486C32.088 25.1008 32.0486 27.6964 31.4387 30.9823C30.8287 34.2675 29.1202 37.0014 26.8047 38.1528C24.8618 39.118 22.4779 39.7002 19.365 39.8291C19.0511 39.8255 18.7617 39.847 18.9403 39.5204L24.1611 30.2649C25.2501 28.3315 25.6532 27.2188 25.6532 24.848V17.3345L25.6547 17.3388C25.651 17.2078 25.6874 17.1391 25.796 17.1419ZM69.4024 15.5903V16.7474H62.4589V19.9832L64.9284 20.0047V18.4645C64.9254 18.2511 65.1032 18.1809 65.397 18.2038H76.3237C76.4509 18.2024 76.7439 18.2303 76.7491 18.4401V19.9832L79.2201 19.9617L79.2067 18.0499C79.2134 17.2121 78.5484 16.8254 77.8173 16.8118H72.0973V15.5903H69.4024ZM89.0021 15.6884L86.6665 19.888H88.9247L89.8054 18.3413H99.391V17.0882L90.7233 17.0331L91.6992 15.707L89.0021 15.6884ZM107.925 15.6884L106.891 17.162L102.483 17.1756V18.4523L105.552 18.4501C105.742 18.4487 105.835 18.5575 105.763 18.6721L103.486 21.9337C103.156 22.4543 103.208 23.2813 104.136 23.2963L110.463 23.3178L110.481 25.496H102.279V26.8722L110.463 26.8887L110.481 30.0823H112.963L112.981 26.8887L119.906 26.8722V25.496H112.963L112.981 23.3178L118.953 23.3013V22.1227L112.995 22.1177L112.964 19.7311H110.48L110.488 22.0991L106.949 22.0619C106.379 22.0905 106.289 21.8206 106.471 21.5649L108.689 18.4709L119.634 18.453V17.1763L109.742 17.162L110.752 15.7012L107.925 15.6884ZM44.4324 15.8652V21.262L41.7785 21.3029V22.6784H44.4324V29.0039C44.48 29.5896 44.8854 29.8689 45.4656 29.9978H49.9932V28.6394H47.2999C47.1288 28.7612 46.8327 28.5757 46.8543 28.2112V22.6404H49.57C51.6229 25.5311 53.2817 28.5607 59.4055 30.0157L59.3415 28.3616C56.5522 27.1973 53.7331 26.0932 52.041 22.7042H59.4085V21.3329H46.8327V15.8688L44.4324 15.8652ZM84.5436 16.0199L81.9603 16.0385C82.6298 16.766 83.172 17.366 84.1226 18.8934H86.3228C85.7895 17.9475 85.3187 17.013 84.5436 16.0199ZM55.0906 16.1259C52.8859 17.578 50.9773 18.9363 49.8363 20.0476L52.3965 20.0691C54.5023 18.3234 56.5336 17.3696 58.5843 16.2118L55.0906 16.1259ZM68.2607 19.5378L66.9694 21.3566H61.9992V22.6884H65.879C65.9757 22.7765 65.8529 22.9333 65.7257 23.093L64.7595 24.5573C64.6033 24.8322 64.5899 25.1136 64.941 25.4137L68.73 27.0992C68.8877 27.1744 69.0625 27.2467 68.7486 27.3935C66.9642 27.8618 64.9946 28.2814 61.9992 28.4347V30.083C65.6216 29.7257 69.0581 29.2495 71.4182 28.1396C71.4755 28.0938 71.4978 28.0193 71.7626 28.1396C74.2715 28.8643 76.7276 29.6498 79.6024 30.0458V28.4347C77.6394 28.0739 75.6964 27.6189 73.7806 27.0713C73.6266 26.9832 73.6318 26.8801 73.733 26.7677C75.4021 25.6743 76.2538 24.2193 76.9381 22.6891H79.6024V21.3573H69.9254C69.8458 21.3143 69.697 21.3243 69.7825 21.1682L70.9875 19.7591C71.047 19.6824 71.0545 19.6144 71.0641 19.5378H68.2607ZM89.6886 19.6323V20.8439H98.6725V19.6323H89.6886ZM84.563 20.2567L82.095 20.2932C82.7964 21.174 83.4978 22.0139 84.1992 23.3694C84.3324 23.7991 84.3122 24.2594 84.142 24.6769C83.5975 26.5565 82.9444 28.2979 82.2475 29.982L84.5436 29.9999C85.2666 28.1275 85.7955 26.255 86.2656 24.3826C86.4813 23.2526 86.2507 23.0779 86.0744 22.6325C85.6452 21.7439 85.1446 20.9484 84.563 20.2567ZM87.8849 22.122V23.3994L95.3729 23.4245C95.7522 23.3973 95.8251 23.6214 95.8519 23.8849L95.8705 27.0899C95.9137 28.5829 97.8186 30.0028 99.6937 30.0493L99.7272 28.5492C98.7007 28.3101 98.1868 27.2553 98.1853 26.6295V23.2219C98.1719 22.7736 97.7888 22.2001 97.0376 22.1349L87.8849 22.122ZM68.5337 22.6891H74.4731C74.1309 24.0553 73.0605 25.2604 71.3475 26.3488C70.0164 25.9428 68.7072 25.4732 67.4246 24.9418C67.0431 24.7377 67.0929 24.5336 67.2483 24.3303L68.5337 22.6891ZM46.405 32.6572C43.9304 32.6572 41.8692 33.4262 41.8692 36.4629C41.9258 39.5068 44.6117 40.2558 46.5821 40.2558H50.3376V38.7614L46.9517 38.7822C46.1908 38.7822 44.3424 38.5173 44.3424 36.4758C44.2874 34.3528 46.2764 34.1687 47.0708 34.1687H50.3376V32.6693L46.405 32.6572ZM91.7631 32.6572C90.5262 32.6701 87.2281 33.0259 87.2281 36.4629C87.2281 39.7288 89.8218 40.2558 91.7297 40.2558H96.6671C96.7862 40.2558 96.8851 40.1728 96.8851 40.036V35.9581C96.8851 35.8686 96.8241 35.8063 96.7266 35.8063L92.9741 35.7984V37.199H94.577C94.7644 37.199 94.8113 37.3995 94.786 37.3995V38.5846C94.786 38.6934 94.7451 38.775 94.5971 38.7664L91.8078 38.7822C91.3139 38.7822 89.7005 38.5051 89.7005 36.4307C89.7005 34.2783 91.2432 34.1687 91.9275 34.1687H96.9037V32.6693L91.7631 32.6572ZM67.1338 32.6693L63.7866 40.2401L65.7205 40.2558L68.283 34.3785C68.3648 34.1866 68.6296 34.2103 68.707 34.4072L71.3617 40.2573H73.8311L70.6848 33.3424C70.3724 32.7195 70.0652 32.6701 69.4724 32.6701L67.1338 32.6693ZM76.7112 32.6693H75.6758L75.6914 40.2415L77.5183 40.258V35.8264C77.58 35.8385 77.6611 35.7218 77.9757 35.9524L82.5279 39.7904C82.7488 39.993 83.1036 40.2558 83.7195 40.2558H84.7273C84.8687 40.2558 84.9929 40.1434 84.9929 39.9386L85.0115 32.6701H83.1668L83.1616 36.7529C83.1616 37.1661 82.8343 37.1768 82.5316 36.8854L77.998 33.1247C77.7466 32.9078 77.4997 32.6693 76.7112 32.6693ZM102.186 32.6693L98.8383 40.2401L100.772 40.2558L103.335 34.3778C103.417 34.1859 103.681 34.2095 103.759 34.4065L106.413 40.2565H108.882L105.736 33.3417C105.424 32.7187 105.117 32.6693 104.524 32.6693H102.186ZM111.699 32.6693H110.664L110.679 40.2415L112.506 40.258V35.8264C112.569 35.8385 112.649 35.7218 112.964 35.9524L117.516 39.7904C117.737 39.993 118.092 40.2558 118.708 40.2558H119.716C119.857 40.2558 119.981 40.1434 119.981 39.9386L120 32.6701H118.155L118.149 36.7529C118.149 37.1661 117.823 37.1768 117.52 36.8854L112.986 33.1247C112.734 32.9078 112.487 32.6693 111.699 32.6693ZM52.8354 32.6693V40.2573H55.043V37.0988H59.6487V40.2565H61.9524V32.6708H59.6487V35.517H55.043V32.6708L52.8354 32.6693Z" fill="#393A3E"/>
</svg>
