<svg width="120" height="56" viewBox="0 0 120 56" fill="none" xmlns="http://www.w3.org/2000/svg">
<path d="M27.5142 40.8122V43.624H13.3894C13.3894 43.624 12.8649 43.4971 12.8649 44.1438V49.7811C12.8649 49.7811 12.7926 50.3082 13.3967 50.3082H27.4857V52.8733H12.879C12.879 52.8733 10.0572 52.634 10.0572 50.0763V43.7086C10.0572 43.7086 9.73007 40.8482 12.943 40.8482L27.5147 40.8127L27.5142 40.8122ZM53.1543 45.6093H65.9817V48.2344H52.62V49.7811C52.62 49.7811 52.5457 50.3082 53.1692 50.3082H67.7036V52.8733H52.6349C52.6349 52.8733 49.7231 52.634 49.7231 50.0763V43.7086C49.7231 43.7086 49.3861 40.8482 52.7007 40.8482L67.7336 40.8127V43.3534C67.7336 43.3534 54.3097 43.3584 53.1725 43.3586C53.1725 43.3586 52.6135 43.4069 52.6135 43.9128V45.6075L53.1543 45.6098V45.6093ZM29.6694 40.728H32.4776V45.662H44.4326V40.7702H47.3681V52.9998H44.5176V48.2766H32.4776V52.9153H29.627L29.6694 40.728ZM69.9593 40.7702H85.956C85.956 40.7702 87.9131 41.4867 87.9131 42.7101V45.5778C87.9131 45.5778 88.0832 47.6231 85.8497 47.6231H83.4034L88.5089 53H84.8075L80.0851 47.6021H72.895V52.9578H70.0019L69.9593 40.7705V40.7702ZM72.8524 45.5356H84.8075C84.8075 45.5356 85.4245 45.4512 85.4245 44.924V44.1016C85.4245 44.1016 85.552 43.5218 84.8395 43.5218H72.8101L72.8527 45.5353L72.8524 45.5356ZM88.5515 40.728H92.8911L99.443 46.421L105.995 40.728H109.951L101.06 48.7825V52.9153H97.7836V48.7406L88.5515 40.728Z" fill="#BC1822"/>
<path d="M57.9725 5.03804L37.6181 28.9847L30.833 31.2261L54.7862 3L57.9725 5.03804Z" fill="url(#paint0_linear_655_4879)"/>
<path d="M57.9717 5.03804L78.3273 28.9847L85.1127 31.2261L61.1599 3L57.9717 5.03804Z" fill="url(#paint1_linear_655_4879)"/>
<path d="M57.9724 5.03804L61.1606 3H54.7861L57.9724 5.03804Z" fill="url(#paint2_linear_655_4879)"/>
<path d="M43.1436 7.86551L46.3915 3.20435L43.1529 5.74528L43.1436 7.86551Z" fill="url(#paint3_linear_655_4879)"/>
<path d="M39.9811 24.3992L35.1496 26.1315C12.0712 22.6669 13.663 15.279 13.663 15.279C13.6119 5.75177 46.4073 3.20435 46.4073 3.20435L43.1694 5.75177C43.1694 5.75177 16.4274 9.58528 17.1971 15.241C17.9688 20.8964 39.9811 24.3992 39.9811 24.3992Z" fill="url(#paint4_linear_655_4879)"/>
<path d="M43.169 5.75171V7.86545C43.169 7.86545 20.758 9.52127 20.758 15.126C20.758 20.7308 38.5424 22.1572 38.5424 22.1572L39.981 24.3989C39.981 24.3989 17.1592 21.6478 17.1592 15.2279C17.1592 8.80803 43.1693 5.75146 43.1693 5.75146L43.169 5.75171Z" fill="url(#paint5_linear_655_4879)"/>
<path d="M30.833 31.226H39.9343L37.6181 28.9846L30.833 31.226Z" fill="url(#paint6_linear_655_4879)"/>
<path d="M57.9726 5.03809V9.43244L39.9243 31.2146L37.6182 28.9847L57.9726 5.03809Z" fill="url(#paint7_linear_655_4879)"/>
<path d="M57.9775 5.03809V9.43244L76.0258 31.2146L78.3325 28.9847L57.9775 5.03809Z" fill="url(#paint8_linear_655_4879)"/>
<path d="M85.1184 31.226H76.0166L78.3326 28.9846L85.1184 31.226Z" fill="url(#paint9_linear_655_4879)"/>
<path d="M72.8134 7.86551L69.5654 3.20435L72.8041 5.74528L72.8134 7.86551Z" fill="url(#paint10_linear_655_4879)"/>
<path d="M75.976 24.3992L80.8075 26.1315C103.886 22.6669 102.294 15.279 102.294 15.279C102.345 5.75177 69.5498 3.20435 69.5498 3.20435L72.7877 5.75177C72.7877 5.75177 99.5297 9.58528 98.76 15.241C97.9883 20.8964 75.976 24.3992 75.976 24.3992Z" fill="url(#paint11_linear_655_4879)"/>
<path d="M72.7864 5.75171V7.86545C72.7864 7.86545 95.1974 9.52127 95.1974 15.126C95.1974 20.7308 77.413 22.1572 77.413 22.1572L75.9744 24.3989C75.9744 24.3989 98.797 21.6478 98.797 15.2279C98.797 8.80803 72.7861 5.75146 72.7861 5.75146L72.7864 5.75171Z" fill="url(#paint12_linear_655_4879)"/>
<path d="M65.1729 23.3025L68.2832 27.5167L65.6353 25.2901L65.1729 23.3025Z" fill="url(#paint13_linear_655_4879)"/>
<path d="M42.5557 24.7289L46.6679 23.0734C46.6679 23.0734 62.0884 23.7099 65.1721 23.3024L65.6348 25.29C65.6348 25.29 59.184 26.4872 42.5557 24.7289Z" fill="url(#paint14_linear_655_4879)"/>
<path d="M65.6348 25.2901L68.2827 27.5165C68.2827 27.5165 53.7743 28.4868 43.2883 27.162L42.5557 24.729C42.5557 24.729 56.8189 26.0288 65.6348 25.2901Z" fill="url(#paint15_linear_655_4879)"/>
<defs>
<linearGradient id="paint0_linear_655_4879" x1="44.9755" y1="18.4612" x2="38.3779" y2="14.2817" gradientUnits="userSpaceOnUse">
<stop stop-color="#E8E8E8"/>
<stop offset="1" stop-color="#495153"/>
</linearGradient>
<linearGradient id="paint1_linear_655_4879" x1="72.5368" y1="3.8354" x2="70.8702" y2="28.2167" gradientUnits="userSpaceOnUse">
<stop offset="0.03" stop-color="#E8E8E8"/>
<stop offset="0.1" stop-color="#D6D7D7"/>
<stop offset="0.3" stop-color="#A4A7A8"/>
<stop offset="0.49" stop-color="#7C8283"/>
<stop offset="0.67" stop-color="#606768"/>
<stop offset="0.82" stop-color="#4F5658"/>
<stop offset="0.93" stop-color="#495153"/>
</linearGradient>
<linearGradient id="paint2_linear_655_4879" x1="57.9734" y1="5.24215" x2="57.9734" y2="1.93051" gradientUnits="userSpaceOnUse">
<stop stop-color="#E8E8E8"/>
<stop offset="0.12" stop-color="#C8CACA"/>
<stop offset="0.33" stop-color="#9B9FA0"/>
<stop offset="0.52" stop-color="#777D7E"/>
<stop offset="0.7" stop-color="#5D6466"/>
<stop offset="0.87" stop-color="#4E5658"/>
<stop offset="1" stop-color="#495153"/>
</linearGradient>
<linearGradient id="paint3_linear_655_4879" x1="47.2265" y1="4.44596" x2="43.6135" y2="6.07456" gradientUnits="userSpaceOnUse">
<stop stop-color="white"/>
<stop offset="1" stop-color="#495153"/>
</linearGradient>
<linearGradient id="paint4_linear_655_4879" x1="35.7595" y1="19.3785" x2="19.7015" y2="-7.64747" gradientUnits="userSpaceOnUse">
<stop stop-color="#495153"/>
<stop offset="0.36" stop-color="#E8E8E8"/>
<stop offset="0.42" stop-color="#DCDDDD"/>
<stop offset="0.54" stop-color="#BFC1C1"/>
<stop offset="0.7" stop-color="#8F9394"/>
<stop offset="0.88" stop-color="#4D5557"/>
<stop offset="0.9" stop-color="#495153"/>
</linearGradient>
<linearGradient id="paint5_linear_655_4879" x1="34.3044" y1="20.372" x2="27.8738" y2="5.1993" gradientUnits="userSpaceOnUse">
<stop stop-color="#E8E8E8"/>
<stop offset="0.12" stop-color="#C8CACA"/>
<stop offset="0.33" stop-color="#9B9FA0"/>
<stop offset="0.52" stop-color="#777D7E"/>
<stop offset="0.7" stop-color="#5D6466"/>
<stop offset="0.87" stop-color="#4E5658"/>
<stop offset="1" stop-color="#495153"/>
</linearGradient>
<linearGradient id="paint6_linear_655_4879" x1="30.9482" y1="30.0726" x2="41.1765" y2="30.1766" gradientUnits="userSpaceOnUse">
<stop stop-color="#E8E8E8"/>
<stop offset="0.12" stop-color="#C8CACA"/>
<stop offset="0.33" stop-color="#9B9FA0"/>
<stop offset="0.52" stop-color="#777D7E"/>
<stop offset="0.7" stop-color="#5D6466"/>
<stop offset="0.87" stop-color="#4E5658"/>
<stop offset="1" stop-color="#495153"/>
</linearGradient>
<linearGradient id="paint7_linear_655_4879" x1="59.7986" y1="6.11032" x2="35.9271" y2="33.0176" gradientUnits="userSpaceOnUse">
<stop stop-color="#495153"/>
<stop offset="0.05" stop-color="#727879"/>
<stop offset="0.09" stop-color="#949899"/>
<stop offset="0.14" stop-color="#AFB1B1"/>
<stop offset="0.19" stop-color="#C2C2C3"/>
<stop offset="0.24" stop-color="#CDCDCD"/>
<stop offset="0.3" stop-color="#D1D1D1"/>
<stop offset="0.63" stop-color="#888C8D"/>
<stop offset="0.88" stop-color="#5A6163"/>
<stop offset="1" stop-color="#495153"/>
</linearGradient>
<linearGradient id="paint8_linear_655_4879" x1="56.1515" y1="6.11032" x2="80.023" y2="33.0176" gradientUnits="userSpaceOnUse">
<stop/>
<stop offset="0.02" stop-color="#202020"/>
<stop offset="0.06" stop-color="#505050"/>
<stop offset="0.1" stop-color="#7A7A7A"/>
<stop offset="0.13" stop-color="#9C9C9C"/>
<stop offset="0.17" stop-color="#B7B7B7"/>
<stop offset="0.21" stop-color="#CACACA"/>
<stop offset="0.25" stop-color="#D5D5D5"/>
<stop offset="0.3" stop-color="#D9D9D9"/>
<stop offset="0.33" stop-color="#D1D1D2"/>
<stop offset="0.65" stop-color="#888C8D"/>
<stop offset="0.88" stop-color="#5A6163"/>
<stop offset="1" stop-color="#495153"/>
</linearGradient>
<linearGradient id="paint9_linear_655_4879" x1="85.0032" y1="30.0726" x2="74.7738" y2="30.1766" gradientUnits="userSpaceOnUse">
<stop stop-color="#E3E3E3"/>
<stop offset="0.09" stop-color="#BABCBD"/>
<stop offset="0.17" stop-color="#979B9C"/>
<stop offset="0.26" stop-color="#7A8081"/>
<stop offset="0.35" stop-color="#646B6C"/>
<stop offset="0.45" stop-color="#555C5E"/>
<stop offset="0.57" stop-color="#4B5355"/>
<stop offset="0.73" stop-color="#495153"/>
</linearGradient>
<linearGradient id="paint10_linear_655_4879" x1="68.7304" y1="4.44596" x2="72.3432" y2="6.07456" gradientUnits="userSpaceOnUse">
<stop stop-color="white"/>
<stop offset="1" stop-color="#495153"/>
</linearGradient>
<linearGradient id="paint11_linear_655_4879" x1="80.1978" y1="19.3785" x2="96.2556" y2="-7.64747" gradientUnits="userSpaceOnUse">
<stop stop-color="#495153"/>
<stop offset="0.36" stop-color="#E8E8E8"/>
<stop offset="0.42" stop-color="#DCDDDD"/>
<stop offset="0.54" stop-color="#BFC1C1"/>
<stop offset="0.7" stop-color="#8F9394"/>
<stop offset="0.88" stop-color="#4D5557"/>
<stop offset="0.9" stop-color="#495153"/>
</linearGradient>
<linearGradient id="paint12_linear_655_4879" x1="81.6512" y1="20.372" x2="88.0822" y2="5.1993" gradientUnits="userSpaceOnUse">
<stop stop-color="#E8E8E8"/>
<stop offset="0.1" stop-color="#C0C2C3"/>
<stop offset="0.22" stop-color="#969A9B"/>
<stop offset="0.34" stop-color="#747A7B"/>
<stop offset="0.46" stop-color="#5C6365"/>
<stop offset="0.56" stop-color="#4E5557"/>
<stop offset="0.65" stop-color="#495153"/>
</linearGradient>
<linearGradient id="paint13_linear_655_4879" x1="67.5778" y1="24.9416" x2="66.1949" y2="25.7166" gradientUnits="userSpaceOnUse">
<stop stop-color="#E8E8E8"/>
<stop offset="0.07" stop-color="#D6D7D7"/>
<stop offset="0.28" stop-color="#A4A7A8"/>
<stop offset="0.47" stop-color="#7C8283"/>
<stop offset="0.66" stop-color="#606768"/>
<stop offset="0.81" stop-color="#4F5658"/>
<stop offset="0.93" stop-color="#495153"/>
</linearGradient>
<linearGradient id="paint14_linear_655_4879" x1="54.074" y1="24.7864" x2="53.6192" y2="19.9701" gradientUnits="userSpaceOnUse">
<stop stop-color="#E8E8E8"/>
<stop offset="0.12" stop-color="#C8CACA"/>
<stop offset="0.33" stop-color="#9B9FA0"/>
<stop offset="0.52" stop-color="#777D7E"/>
<stop offset="0.7" stop-color="#5D6466"/>
<stop offset="0.87" stop-color="#4E5658"/>
<stop offset="1" stop-color="#495153"/>
</linearGradient>
<linearGradient id="paint15_linear_655_4879" x1="55.1592" y1="19.9344" x2="55.3863" y2="25.4367" gradientUnits="userSpaceOnUse">
<stop stop-color="#E8E8E8"/>
<stop offset="0.07" stop-color="#D6D7D7"/>
<stop offset="0.28" stop-color="#A4A7A8"/>
<stop offset="0.47" stop-color="#7C8283"/>
<stop offset="0.66" stop-color="#606768"/>
<stop offset="0.81" stop-color="#4F5658"/>
<stop offset="0.93" stop-color="#495153"/>
</linearGradient>
</defs>
</svg>
