<svg width="120" height="56" viewBox="0 0 120 56" fill="none" xmlns="http://www.w3.org/2000/svg">
<path fill-rule="evenodd" clip-rule="evenodd" d="M101.537 31.0018C99.8838 32.4795 95.9696 33.1762 91.273 33.0893C89.1842 34.7421 83.6171 35.0899 77.4415 35.0899C67.7863 35.0899 69.0902 40.8308 59.6958 40.8308C50.3014 40.8308 51.519 35.0899 41.9501 35.0899C35.7739 35.0899 30.2068 34.7415 28.1193 33.0893C23.4214 33.1762 19.5072 32.4795 17.8543 31.0018C11.1565 30.8273 9.50365 29.5227 8.89453 28.4784C12.9832 28.8267 32.6426 29.5227 46.2127 29.5227C50.9968 29.5227 53.1719 26.4778 59.6958 26.4778C66.2204 26.4778 68.3079 29.5227 73.179 29.5227C86.749 29.5227 106.408 28.8267 110.498 28.4784C109.887 29.5221 108.235 30.8267 101.537 31.0018Z" fill="white"/>
<path fill-rule="evenodd" clip-rule="evenodd" d="M59.6952 27.6084C54.5627 27.6084 50.3008 30.0436 50.3008 33.1755C50.3008 36.2205 54.5634 39.004 59.6952 39.004C64.914 39.004 69.0902 36.2205 69.0902 33.1755C69.0902 30.0436 64.914 27.6084 59.6952 27.6084Z" fill="#0C0E0F"/>
<path fill-rule="evenodd" clip-rule="evenodd" d="M68.0441 33.1757C68.0441 36.0462 64.3043 38.3951 59.6934 38.3951C55.0831 38.3951 51.4297 36.0462 51.4297 33.1757C51.4297 30.3921 55.0831 28.0432 59.6934 28.0432C64.3043 28.0432 68.0441 30.3921 68.0441 33.1757ZM59.6934 28.566C57.0837 28.566 54.9962 30.6535 54.9962 33.1757C54.9962 35.786 57.0837 37.7866 59.6934 37.7866C62.3901 37.7866 64.4776 35.786 64.4776 33.1757C64.4776 30.6535 62.3901 28.566 59.6934 28.566ZM64.0429 29.4359C65.0004 30.3921 65.5219 31.7848 65.5219 33.1757C65.5219 34.6547 65.0004 36.0462 64.0429 37.0036C65.9572 36.2207 67.2611 34.7416 67.2611 33.1757C67.2611 31.6097 65.9566 30.2189 64.0429 29.4359ZM53.9518 33.1757C53.9518 31.7842 54.474 30.3921 55.4309 29.4359C53.5166 30.2189 52.212 31.6104 52.212 33.1757C52.212 34.741 53.5166 36.2207 55.4309 37.0036C54.474 36.0462 53.9518 34.6553 53.9518 33.1757Z" fill="#CECECE"/>
<path fill-rule="evenodd" clip-rule="evenodd" d="M66.2627 35.5088C66.0895 35.988 65.862 36.4459 65.5848 36.8734C64.0739 37.814 61.9939 38.3956 59.6975 38.3956C57.2873 38.3956 55.1379 37.7546 53.6364 36.7308C53.3333 36.2407 53.0958 35.7129 52.9297 35.1611C53.4975 35.921 54.3731 36.5695 55.4356 37.0041C54.4787 36.0467 53.9566 34.6552 53.9566 33.1762C53.9566 31.7847 54.4787 30.3926 55.4356 29.4364C54.4043 29.8579 53.5494 30.4577 52.9803 31.165C53.1517 30.6359 53.3856 30.1356 53.6751 29.6722C55.1748 28.6766 57.308 28.0437 59.6975 28.0437C61.9751 28.0437 64.0408 28.6178 65.5479 29.534C65.8143 29.9417 66.0388 30.3807 66.2146 30.8423C65.6611 30.2757 64.9176 29.7916 64.0464 29.4364C65.0039 30.3926 65.5254 31.7853 65.5254 33.1762C65.5254 34.6552 65.0039 36.0467 64.0464 37.0041C64.9432 36.637 65.7055 36.118 66.2627 35.5088ZM59.6975 28.5659C57.0878 28.5659 55.0003 30.6534 55.0003 33.1755C55.0003 35.7859 57.0878 37.7865 59.6975 37.7865C62.3942 37.7865 64.4817 35.7859 64.4817 33.1755C64.4817 30.6534 62.3942 28.5659 59.6975 28.5659Z" fill="#CECECE"/>
<path fill-rule="evenodd" clip-rule="evenodd" d="M55.3665 34.9966C55.1252 34.4503 55.0004 33.8597 55 33.2625V33.2212C55.0037 33.8314 55.1282 34.4348 55.3665 34.9966Z" fill="#D0B26F"/>
<path fill-rule="evenodd" clip-rule="evenodd" d="M61.0873 36.3075C61.001 36.3075 61.1743 36.3075 61.0873 36.3075C61.6089 36.0461 61.9573 36.1343 62.305 35.6977C62.7396 35.3507 62.7396 34.9148 62.9135 34.4801C62.9135 34.3932 63.0016 34.3069 63.0016 34.22L63.6964 34.5683L63.2618 37.1774L62.7402 36.829L62.4788 37.9604L61.0873 36.3075Z" fill="#2A2A2A"/>
<path fill-rule="evenodd" clip-rule="evenodd" d="M56.2168 33.8723C56.1299 33.6978 56.043 33.524 56.043 33.2626C56.043 32.741 56.3907 32.4796 56.5645 31.958C56.7384 31.4365 56.7384 31.0881 57.1737 30.6535C57.5214 30.3052 57.8697 30.3921 58.3913 30.1307C58.9128 29.9575 59.1742 29.696 59.6958 29.696C60.218 29.696 60.4781 29.9575 61.001 30.1307C61.5225 30.3052 61.8709 30.3052 62.2186 30.5666L56.2168 33.8723ZM59.7833 36.7422C59.1742 36.7422 59.0004 36.4808 58.3913 36.3075C57.956 36.1343 57.6089 36.1343 57.2606 35.786L63.1754 32.4796C63.2623 32.6541 63.4368 32.9142 63.4368 33.1756C63.4368 33.6103 63.1754 33.8717 63.0022 34.22C63.0022 34.307 62.914 34.3933 62.914 34.4802C62.8271 34.6547 62.8271 34.7416 62.8271 34.8285C62.7401 34.9154 62.7401 35.003 62.7401 35.003C62.6532 35.2632 62.5669 35.5246 62.3055 35.6978C62.0441 36.0461 61.6958 36.0461 61.2611 36.2206C61.1742 36.2206 61.0879 36.2206 61.0879 36.3075H61.001C60.5669 36.4808 60.3055 36.7422 59.7833 36.7422Z" fill="#CECECE"/>
<path fill-rule="evenodd" clip-rule="evenodd" d="M61.9586 33.1757C61.9586 34.3933 61.0024 35.4377 59.6966 35.4377C58.479 35.4377 57.4353 34.3933 57.4353 33.1757C57.4353 32.0444 58.479 31.0013 59.6966 31.0013C61.0024 31.0019 61.9586 32.045 61.9586 33.1757ZM59.6966 30.5667C58.2182 30.5667 57 31.6967 57 33.1757C57 34.6547 58.2182 35.8724 59.6966 35.8724C61.2619 35.8724 62.4802 34.6547 62.4802 33.1757C62.4802 31.6967 61.2626 30.5667 59.6966 30.5667Z" fill="#8B8B8B"/>
<path fill-rule="evenodd" clip-rule="evenodd" d="M59.4358 30.5667C59.5228 30.5667 59.6966 30.5667 59.6966 30.6536L59.9574 30.9137C59.8705 31.0019 59.7836 31.0019 59.6966 30.9137L59.4358 30.5667ZM59.0006 30.6536H59.2614L59.6097 30.9137C59.5221 31.0019 59.3489 31.0882 59.3489 31.0019L59.0006 30.6536ZM58.5659 30.9137C58.5659 30.7405 58.7404 30.7405 58.8267 30.7405L59.1751 31.0019C59.0881 31.0888 59.0012 31.1751 58.9143 31.0888L58.5659 30.9137ZM58.1307 31.0882C58.1307 31.0013 58.3045 30.9137 58.3915 31.0013L58.7398 31.0882C58.7398 31.2614 58.6529 31.2614 58.5653 31.2614L58.1307 31.0882ZM57.783 31.4365C57.783 31.2621 57.9568 31.2621 57.9568 31.2621L58.3921 31.349C58.3893 31.3943 58.3701 31.4369 58.3381 31.4691C58.3061 31.5012 58.2635 31.5205 58.2182 31.5235L57.783 31.4365ZM57.5222 31.7849C57.5222 31.6104 57.6097 31.5235 57.696 31.5235H58.1307C58.1307 31.6967 58.0438 31.7849 57.9568 31.7849H57.5222ZM57.2614 32.1326C57.2614 32.0444 57.3483 31.9581 57.4353 31.9581L57.783 31.8712C57.8699 31.9581 57.783 32.0444 57.696 32.1326H57.2614ZM57.0869 32.5679C57.0869 32.4797 57.1739 32.3934 57.1739 32.3934L57.6091 32.2201C57.696 32.3071 57.6091 32.3934 57.5216 32.4803L57.0869 32.5679ZM57 33.0894C57 32.9149 57 32.828 57.0869 32.828L57.4353 32.5679C57.5222 32.6548 57.5222 32.7411 57.4353 32.828L57 33.0894ZM57.0869 33.5241C57 33.4371 57 33.2627 57.0869 33.2627L57.3477 33.0025C57.4353 33.0894 57.4353 33.1757 57.4353 33.2627L57.0869 33.5241ZM57.1739 33.9587C57.0869 33.8718 57.0869 33.7855 57.0869 33.6973L57.3477 33.349C57.4353 33.4371 57.5216 33.5234 57.4353 33.6104L57.1739 33.9587ZM57.3477 34.394C57.2608 34.307 57.1739 34.2207 57.2608 34.1338L57.4346 33.7855C57.5216 33.7855 57.6085 33.9587 57.5216 33.9587L57.3477 34.394ZM57.6091 34.7417C57.4353 34.7417 57.4353 34.5684 57.4353 34.5684L57.6091 34.1338C57.696 34.1338 57.783 34.307 57.696 34.394L57.6091 34.7417ZM57.8699 35.09C57.783 35.09 57.696 35.0031 57.696 34.9155L57.783 34.4809C57.8699 34.4809 57.9568 34.5691 57.9568 34.6554L57.8699 35.09ZM58.2182 35.4377C58.1307 35.4377 58.0444 35.2632 58.0444 35.1763V34.828C58.1313 34.828 58.2182 34.828 58.2182 34.9149V35.4377ZM58.6529 35.6116C58.5653 35.6116 58.3921 35.5246 58.3921 35.4383L58.3052 35.09C58.479 35.0031 58.5659 35.09 58.5659 35.1769L58.6529 35.6116ZM59.0875 35.7861C59.0006 35.7861 58.8267 35.6979 58.8267 35.6979L58.6529 35.2632C58.8267 35.1763 58.9137 35.2632 58.9137 35.3514L59.0875 35.7861ZM59.6097 35.7861C59.4352 35.873 59.3489 35.873 59.2614 35.7861L59.0875 35.4377C59.1744 35.3508 59.2614 35.3508 59.3483 35.4377L59.6097 35.7861ZM60.045 35.7861C59.958 35.873 59.7842 35.873 59.7842 35.7861L59.5234 35.5246C59.5234 35.4377 59.6973 35.4377 59.7842 35.4377L60.045 35.7861ZM60.4796 35.6985C60.3927 35.7867 60.3057 35.7867 60.2188 35.7867L59.8705 35.5253C59.9574 35.4383 60.0443 35.352 60.1313 35.4383L60.4796 35.6985ZM60.9142 35.5246C60.9142 35.6116 60.741 35.6979 60.6541 35.6116L60.3057 35.4383C60.3057 35.3514 60.4796 35.2639 60.5672 35.3514L60.9142 35.5246ZM61.3489 35.3514C61.2619 35.4383 61.1756 35.4383 61.0887 35.4383L60.6541 35.2639C60.741 35.1769 60.8273 35.0906 60.9142 35.1769L61.3489 35.3514ZM61.6972 35.0031C61.6972 35.09 61.524 35.1763 61.4371 35.1763L61.0024 35.0894C61.0893 35.0024 61.1756 34.9149 61.2626 34.9149L61.6972 35.0031ZM61.9586 34.6554C61.9586 34.7423 61.8717 34.8286 61.7841 34.8286H61.3495C61.3495 34.7417 61.4377 34.6554 61.524 34.6554H61.9586ZM62.22 34.2201C62.22 34.3933 62.1318 34.4803 62.0455 34.4803L61.6109 34.5684C61.6109 34.4803 61.6978 34.394 61.7841 34.307L62.22 34.2201ZM62.3933 33.7855C62.3933 33.9587 62.3063 34.0456 62.22 34.0456L61.8717 34.2201C61.7835 34.1332 61.8717 34.0456 61.9586 33.9587L62.3933 33.7855ZM62.3933 33.3496C62.4802 33.4378 62.3933 33.611 62.3933 33.611L61.9586 33.8724C61.9586 33.7855 61.9586 33.611 62.0455 33.611L62.3933 33.3496ZM62.3933 32.9143C62.4802 33.0025 62.4802 33.1757 62.3933 33.1757L62.0449 33.4371C61.958 33.349 61.958 33.2627 62.0449 33.1757L62.3933 32.9143ZM62.3063 32.4797C62.3933 32.5679 62.3933 32.6542 62.3933 32.7411L62.0449 33.0894C61.958 33.0025 61.958 32.9149 62.0449 32.828L62.3063 32.4797ZM62.1318 32.045C62.22 32.1332 62.3063 32.2195 62.22 32.3064L62.0455 32.6548C61.9586 32.6548 61.8723 32.4803 61.8723 32.3934L62.1318 32.045ZM61.8717 31.6098C62.0449 31.6967 62.0449 31.7843 62.0449 31.8712L61.8717 32.3058C61.7835 32.2189 61.6972 32.1326 61.6972 32.0444L61.8717 31.6098ZM61.6103 31.3484C61.6972 31.3484 61.7835 31.4366 61.7835 31.5229L61.6966 31.9575C61.6516 31.9544 61.6094 31.9352 61.5775 31.9033C61.5457 31.8715 61.5264 31.8292 61.5234 31.7843L61.6103 31.3484ZM61.2626 31.0019C61.3495 31.0019 61.4371 31.1751 61.4371 31.1751V31.6098C61.3489 31.6098 61.2626 31.5229 61.2626 31.4365V31.0019ZM60.8273 30.8268C60.9142 30.8268 61.0018 30.9137 61.0018 30.9137L61.0887 31.3484C61.0018 31.3484 60.9142 31.3484 60.9142 31.2614L60.8273 30.8268ZM60.3927 30.6536C60.4796 30.6536 60.5672 30.6536 60.6541 30.7405L60.741 31.1751C60.6541 31.1751 60.5678 31.1751 60.4796 31.0882L60.3927 30.6536ZM59.8705 30.5667C59.9574 30.5667 60.1313 30.5667 60.1313 30.6536L60.392 31.0019C60.3051 31.0888 60.1313 31.0888 60.1313 31.0019L59.8705 30.5667Z" fill="#CECECE"/>
<path fill-rule="evenodd" clip-rule="evenodd" d="M63.3506 34.3938C63.612 33.9592 63.7864 33.6978 63.7864 33.1762C63.7864 32.5677 63.525 32.3063 63.2636 31.7848C63.0035 31.175 63.0035 30.8273 62.5688 30.3921C62.133 29.9574 61.6977 29.9574 61.1761 29.7836C60.5676 29.5222 60.3062 29.2607 59.6971 29.2607C59.088 29.2607 58.8272 29.5222 58.305 29.7836C57.6959 30.0437 57.2613 30.0437 56.826 30.3921C56.3914 30.8267 56.3914 31.262 56.2169 31.7848C55.9561 32.3933 55.6953 32.6547 55.6953 33.2625C55.6953 33.8723 55.9561 34.1337 56.2169 34.6552C56.4777 35.1768 56.4777 35.6115 56.826 36.0467C57.3476 36.4814 57.7828 36.3951 58.305 36.6565C58.9141 36.8297 59.1749 37.178 59.784 37.178C60.3931 37.178 60.6546 36.8297 61.1761 36.6565H61.263L62.4807 38.1342L62.7421 37.0042L63.2636 37.2643L63.8734 34.5683L63.3506 34.3938ZM56.2181 33.8723C56.1312 33.6978 56.0443 33.5239 56.0443 33.2625C56.0443 32.741 56.392 32.4796 56.5658 31.958C56.7397 31.4364 56.7397 31.0881 57.175 30.6535C57.5227 30.3051 57.871 30.3921 58.3926 30.1306C58.9141 29.9574 59.1755 29.696 59.6971 29.696C60.2193 29.696 60.4795 29.9574 61.0023 30.1306C61.5238 30.3051 61.8722 30.3051 62.2199 30.5665L56.2181 33.8723ZM59.7847 36.7421C59.1755 36.7421 59.0017 36.4807 58.3926 36.3075C57.9573 36.1343 57.6102 36.1343 57.2619 35.7859L63.1767 32.4796C63.2636 32.654 63.4381 32.9142 63.4381 33.1756C63.4381 33.6102 63.1767 33.8717 63.0035 34.22C63.0035 34.3069 62.9153 34.3932 62.9153 34.4801C62.8284 34.6546 62.8284 34.7416 62.8284 34.8285C62.7414 34.9154 62.7414 35.003 62.7414 35.003C62.6545 35.2631 62.5682 35.5245 62.3068 35.6978C62.0454 36.0461 61.6971 36.0461 61.2624 36.2206C61.1755 36.2206 61.0892 36.2206 61.0892 36.3075H61.0023C60.5683 36.4807 60.3068 36.7421 59.7847 36.7421ZM62.3074 37.5251L61.5245 36.4807C61.9591 36.3938 62.3074 36.3075 62.6558 35.9592C62.7427 35.8722 62.829 35.7859 62.829 35.6978L62.3074 37.5251ZM63.0904 36.8291L62.829 36.6558L63.2636 35.0899L63.0904 35.003C63.1773 34.9148 63.1773 34.7416 63.2636 34.6546L63.525 34.7416L63.0904 36.8291Z" fill="#8B8B8B"/>
<path fill-rule="evenodd" clip-rule="evenodd" d="M59.6939 31.3483C58.7371 31.3483 57.9541 32.1325 57.8672 33.0024L60.4763 31.5234C60.2328 31.4046 59.9648 31.3446 59.6939 31.3483ZM58.9109 34.8285C59.1717 35.003 59.4325 35.0899 59.6939 35.0899C60.1735 35.0945 60.6372 34.9177 60.9921 34.595C61.3469 34.2723 61.5668 33.8274 61.6076 33.3495L58.9109 34.8285Z" fill="#2B2B2B"/>
<path fill-rule="evenodd" clip-rule="evenodd" d="M56.9991 35.6114C56.8253 35.2631 56.7383 34.9154 56.5645 34.4801C56.4776 34.3932 56.4776 34.3069 56.3906 34.22L62.393 30.8267C62.6544 31.175 62.6544 31.4364 62.9146 31.958C62.9146 32.0449 63.0027 32.1324 63.089 32.2194L56.9991 35.6114Z" fill="#2A2A2A"/>
<path fill-rule="evenodd" clip-rule="evenodd" d="M58.3905 32.5677L58.6513 31.958L58.7382 32.2194L59.3473 31.5234L59.4342 31.6966L59.695 31.4364L59.4342 31.958L59.3473 31.7848L58.7382 32.3926L58.6513 32.3063L58.3905 32.5677ZM59.7819 35.003L60.0433 34.3938L60.2172 34.5683L60.8257 33.9586L60.9126 34.1337L61.174 33.8723L60.9126 34.3938L60.8257 34.22L60.2172 34.8285L60.0433 34.6553L59.7819 35.003ZM57.8683 33.5239L58.0428 33.437V34.0455L58.3035 33.8723V33.2625L58.4774 33.1756V34.5683L58.3035 34.6553V34.0455L58.0428 34.22V34.8285L57.8683 34.9154V33.5239ZM58.8251 33.6972V33.1756L58.912 33.0887C58.999 33.0887 58.999 33.0887 58.999 33.1756V33.437C58.999 33.5239 58.999 33.5239 58.912 33.6102L58.8251 33.6972ZM59.0859 33.6109C59.1728 33.5239 59.1728 33.5239 59.1728 33.4376V33.0893C59.1728 32.9148 59.0859 32.8279 58.912 32.9148L58.6513 33.0893V34.4808L58.8251 34.3938V33.7854H58.912L59.0859 34.3069L59.2597 34.1337L59.0859 33.6109ZM59.4342 33.437L59.1734 32.8279L59.3473 32.741L59.5212 33.1756L59.695 32.4796L59.8689 32.3926L59.6081 33.3495V33.9586L59.4342 34.0455V33.437ZM60.1296 33.0024C60.0427 33.0893 59.9558 33.0024 59.9558 32.9142V32.5671C59.9558 32.3926 59.9558 32.3926 60.1296 32.3057L60.3035 32.2188C60.3904 32.1319 60.4774 32.1319 60.4774 32.3057V32.4789L60.3035 32.5671V32.3057L60.1296 32.3926V32.9142L60.3035 32.8273C60.3904 32.7403 60.4774 32.7403 60.4774 32.9142V33.2625C60.4774 33.437 60.4774 33.5239 60.3035 33.6109L60.1296 33.6978C60.0427 33.6978 59.9558 33.6978 59.9558 33.6109V33.3495L60.0427 33.2625V33.5239L60.3904 33.437V32.9142L60.1296 33.0024ZM60.6525 31.958L60.8257 31.8711V33.1756L61.0871 33.0024V33.1756L60.6525 33.437V31.958ZM61.174 31.6966L61.6956 31.4364V31.5234L61.3473 31.6966V32.2194L61.6087 32.0449V32.2194L61.3473 32.3063V32.8279L61.6956 32.654V32.8279L61.174 33.0893V31.6966ZM61.957 31.8711V31.4364L62.0439 31.3483C62.1309 31.2613 62.2184 31.3483 62.2184 31.3483V31.6966C62.2184 31.7848 62.1302 31.7848 62.1302 31.7848L61.957 31.8711ZM62.2184 31.8711C62.3053 31.7841 62.3916 31.7841 62.3916 31.6097V31.2613C62.3916 31.1744 62.2184 31.0881 62.1302 31.1744L61.7819 31.3476V32.7403L61.9564 32.6534V32.0437L62.0433 31.9568L62.2178 32.4783L62.391 32.3914L62.2184 31.8711ZM57.5206 34.22V33.8717L57.2598 34.0449V35.0893L57.5206 34.9148V34.6546L57.6944 34.5677V34.8279C57.6944 35.0023 57.6944 35.0893 57.5206 35.0893L57.3467 35.1762C57.2598 35.2631 57.0859 35.2631 57.0859 35.0893V34.1331C57.0859 33.9586 57.1729 33.8717 57.3467 33.7847L57.5206 33.6965C57.6081 33.6965 57.6944 33.6965 57.6944 33.871V34.1324L57.5206 34.22Z" fill="#8B8B8B"/>
<path fill-rule="evenodd" clip-rule="evenodd" d="M110.409 28.13C106.408 28.3914 86.9233 29.0874 73.1787 29.0874C71.0043 29.0874 69.352 28.4777 67.6116 27.7823C65.611 26.9999 63.2621 26.1294 59.6956 26.1294C56.129 26.1294 53.7808 26.9993 51.7795 27.7823C50.0397 28.4777 48.3875 29.0874 46.2124 29.0874C32.4679 29.0874 12.983 28.3914 8.9812 28.13L8.28516 28.043L8.54594 28.6528C9.15506 29.7841 10.721 31.1749 17.6796 31.3488C19.9416 33.2631 25.074 33.5245 27.9445 33.4376C29.8582 34.829 34.0338 35.4381 41.9499 35.4381C46.6477 35.4381 48.6483 36.8296 50.6489 38.3086C52.7364 39.7001 54.9108 41.1791 59.6956 41.1791C64.4797 41.1791 66.6548 39.7001 68.656 38.3086C70.7435 36.8296 72.7441 35.4381 77.4419 35.4381C85.2704 35.4381 89.533 34.8284 91.3603 33.4376C94.3177 33.5245 99.4502 33.2631 101.712 31.3488C108.671 31.1756 110.237 29.7841 110.758 28.6528L111.107 28.043L110.409 28.13ZM101.537 31.0017C99.8842 32.4795 95.97 33.1761 91.2734 33.0892C89.1846 34.7421 83.6175 35.0898 77.4419 35.0898C67.7867 35.0898 69.0906 40.8308 59.6962 40.8308C50.3018 40.8308 51.5194 35.0898 41.9505 35.0898C35.7743 35.0898 30.2071 34.7415 28.1196 33.0892C23.4218 33.1761 19.5076 32.4795 17.8547 31.0017C11.1569 30.8272 9.50402 29.5227 8.8949 28.4783C12.9836 28.8266 32.643 29.5227 46.2131 29.5227C50.9972 29.5227 53.1723 26.4777 59.6962 26.4777C66.2208 26.4777 68.3083 29.5227 73.1793 29.5227C86.7494 29.5227 106.409 28.8266 110.498 28.4783C109.888 29.5221 108.235 30.8266 101.537 31.0017Z" fill="#0C0E0F"/>
<path fill-rule="evenodd" clip-rule="evenodd" d="M109.802 28.566L110.063 28.4778C110.063 28.4778 109.975 28.6523 109.802 28.8261H109.367C109.628 28.7398 109.802 28.566 109.802 28.566Z" fill="#0C0E0F"/>
<path fill-rule="evenodd" clip-rule="evenodd" d="M109.369 28.8262C107.193 29.6961 99.887 30.5666 74.0508 30.5666C71.2672 30.5666 70.5724 30.2183 70.1359 30.2183C69.7013 30.2183 69.6144 30.5666 69.7888 30.9131C69.9621 31.1745 70.1359 31.6091 70.2235 31.8705C70.1353 31.2608 70.6581 31.4359 72.8326 31.4359C91.2749 31.4359 95.2755 31.0875 100.844 30.4784C98.4949 32.0444 85.0118 32.1325 74.3116 32.1325C73.094 32.2195 71.7894 32.2195 70.832 32.2195C70.4836 32.2195 70.3104 32.3064 70.3973 32.6541C70.3973 32.9143 70.4843 33.4371 70.3973 33.7854C70.7457 33.3495 70.6587 33.0024 72.8332 33.0024C83.7942 33.0024 88.6652 32.6541 90.6665 32.3927C88.9273 33.3489 86.23 33.7854 73.9645 33.7854C68.7451 33.7854 68.136 39.5264 59.6984 39.5264C51.2608 39.5264 50.6517 33.7854 45.4323 33.7854C33.1667 33.7854 30.4701 33.3495 28.7303 32.3927C30.7309 32.6541 35.602 33.0024 46.5629 33.0024C48.738 33.0024 48.6511 33.3495 48.9988 33.7854C48.9119 33.4371 48.9988 32.9143 48.9988 32.6541C49.0857 32.3058 48.9119 32.2195 48.5635 32.2195C47.6067 32.2195 46.3022 32.2195 45.0846 32.1325C34.385 32.1325 20.9018 32.0444 18.5529 30.4784C24.1206 31.0882 28.1218 31.4359 46.5636 31.4359C48.7386 31.4359 49.2602 31.2614 49.1733 31.8705C49.2608 31.6091 49.4341 31.1745 49.6085 30.9131C49.7824 30.566 49.6955 30.2183 49.2608 30.2183C48.8256 30.2183 48.1295 30.5666 45.346 30.5666C19.4234 30.5666 12.2034 29.6954 10.0284 28.8262H9.59375C10.6375 29.5222 12.4642 30.0438 18.1183 30.479C19.5104 31.7848 23.0769 32.1332 28.2087 32.3933C29.8616 33.9593 34.298 34.2207 43.8669 34.2207C51.0869 34.2207 50.9131 40.0479 59.699 40.0479C68.4843 40.0479 68.3111 34.2207 75.5311 34.2207C85.1 34.2207 89.4495 33.9593 91.1886 32.3933C96.2342 32.1332 99.8876 31.7848 101.28 30.479C106.934 30.0444 108.76 29.5228 109.805 28.8262H109.369Z" fill="#0C0E0F"/>
<path fill-rule="evenodd" clip-rule="evenodd" d="M9.59051 28.566L9.32973 28.4778C9.32973 28.4778 9.41665 28.6523 9.59051 28.8261H10.0251C9.76436 28.7398 9.59051 28.566 9.59051 28.566ZM77.7022 21.2584H88.2286V20.1278H80.9217V15.0822H77.7022V21.2584ZM16.8974 15.0822V21.2584H20.1156V18.7357H25.7703V21.2584H28.9885V15.0822H25.7703V17.605H20.1156V15.0822H16.8974ZM57.2605 15.0822L54.2156 17.6919L51.1706 15.0822H47.4302L51.9536 18.7357V21.2584H55.1724V18.7357C55.2593 18.6487 59.4343 15.0822 59.4343 15.0822H57.2605ZM91.7951 21.2584H102.495V20.2147H95.0133V18.6487H102.233V17.605H95.0133V16.126H102.407V15.0822H91.7951V21.2584ZM62.131 16.7351C62.131 18.1265 63.7851 18.4749 66.1321 18.7357C68.4811 19.084 69.6117 19.1703 69.6117 19.6925C69.6117 20.1271 68.9157 20.3885 66.9151 20.3885C64.5674 20.3885 62.5669 19.867 62.3055 19.7794C62.3055 19.8663 62.044 21.084 62.044 21.084C62.3055 21.1709 64.2197 21.6055 67.0033 21.6055C70.1339 21.6055 73.092 21.084 73.092 19.4305C73.092 18.2998 71.8744 17.6907 68.3941 17.3429C67.0027 17.1691 65.5236 17.0822 65.5236 16.56C65.5236 16.1253 65.872 15.9509 67.9595 15.9509C69.9601 15.9509 71.6992 16.3861 71.9607 16.3861L72.2227 15.2561C71.8744 15.1691 69.8738 14.8208 67.1771 14.8208C65.0027 14.8214 62.131 15.0822 62.131 16.7351ZM1.5 18.2141C1.5 20.2147 3.67506 21.6061 8.19842 21.6061C9.93822 21.6061 11.7649 21.3454 12.1127 21.2584L12.3734 19.9539C12.0251 20.0408 10.4592 20.2147 8.89384 20.2147C6.37169 20.2147 4.63189 19.6056 4.63189 18.2141C4.63189 16.7351 6.28476 16.126 8.89384 16.126C10.3729 16.126 12.0257 16.2998 12.3734 16.3867L12.1127 15.0822C11.678 14.9947 10.0251 14.8214 8.28472 14.8214C3.67506 14.8214 1.5 16.126 1.5 18.2141ZM33.9471 21.2584H37.1653V16.2129C37.5999 16.126 38.1221 16.126 38.8181 16.126C39.6005 16.126 40.2096 16.126 40.6449 16.2129C41.6017 16.2998 41.9494 16.6482 41.9494 17.0828C41.9494 17.4305 41.5148 17.8658 40.5573 17.9527C39.8613 18.0402 39.4266 18.1265 38.9045 18.1265C38.5561 18.1265 38.2953 18.1265 37.8607 18.0396L41.5142 21.2578H45.6029L41.9494 18.735C42.6455 18.6481 42.9062 18.6481 43.6892 18.3873C44.646 18.1265 45.0813 17.605 45.1676 17.0828C45.1676 16.2998 44.646 15.6907 42.8193 15.2561C41.8625 15.0822 40.5573 14.9947 38.9051 14.9947C36.5562 14.9947 34.2079 15.0822 33.9465 15.0822L33.9471 21.2584ZM106.757 21.2584H109.975V16.2129C110.498 16.126 110.932 16.126 111.715 16.126C112.498 16.126 113.02 16.126 113.541 16.2129C114.499 16.2998 114.847 16.6482 114.759 17.0828C114.759 17.4305 114.324 17.8658 113.368 17.9527C112.758 18.0402 112.323 18.1265 111.715 18.1265C111.366 18.1265 111.105 18.1265 110.757 18.0396L114.412 21.2578H118.5L114.759 18.735C115.542 18.6481 115.803 18.6481 116.499 18.3873C117.456 18.1265 117.977 17.605 117.977 17.0828C117.977 16.2998 117.543 15.6907 115.716 15.2561C114.672 15.0822 113.454 14.9947 111.715 14.9947C109.453 14.9947 107.017 15.0822 106.756 15.0822V21.2584H106.757Z" fill="#0C0E0F"/>
</svg>
