<svg width="120" height="56" viewBox="0 0 120 56" fill="none" xmlns="http://www.w3.org/2000/svg">
<path fill-rule="evenodd" clip-rule="evenodd" d="M101.537 31.0018C99.8838 32.4795 95.9696 33.1762 91.273 33.0893C89.1843 34.7421 83.6171 35.0899 77.4415 35.0899C67.7863 35.0899 69.0902 40.8308 59.6958 40.8308C50.3014 40.8308 51.519 35.0899 41.9501 35.0899C35.7739 35.0899 30.2068 34.7415 28.1193 33.0893C23.4214 33.1762 19.5072 32.4795 17.8543 31.0018C11.1565 30.8273 9.50365 29.5227 8.89453 28.4784C12.9832 28.8267 32.6426 29.5227 46.2127 29.5227C50.9968 29.5227 53.1719 26.4778 59.6958 26.4778C66.2204 26.4778 68.3079 29.5227 73.179 29.5227C86.749 29.5227 106.408 28.8267 110.498 28.4784C109.887 29.5221 108.235 30.8267 101.537 31.0018Z" fill="white"/>
<path fill-rule="evenodd" clip-rule="evenodd" d="M59.6952 27.6085C54.5627 27.6085 50.3008 30.0437 50.3008 33.1756C50.3008 36.2206 54.5634 39.0042 59.6952 39.0042C64.914 39.0042 69.0902 36.2206 69.0902 33.1756C69.0902 30.0437 64.914 27.6085 59.6952 27.6085Z" fill="#0C0E0F"/>
<path fill-rule="evenodd" clip-rule="evenodd" d="M68.046 33.1757C68.046 36.0462 64.3063 38.3951 59.6954 38.3951C55.0851 38.3951 51.4316 36.0462 51.4316 33.1757C51.4316 30.3921 55.0851 28.0432 59.6954 28.0432C64.3063 28.0432 68.046 30.3921 68.046 33.1757ZM59.6954 28.566C57.0857 28.566 54.9982 30.6535 54.9982 33.1757C54.9982 35.786 57.0857 37.7866 59.6954 37.7866C62.392 37.7866 64.4795 35.786 64.4795 33.1757C64.4795 30.6535 62.392 28.566 59.6954 28.566ZM64.0449 29.4359C65.0023 30.3921 65.5239 31.7848 65.5239 33.1757C65.5239 34.6547 65.0023 36.0462 64.0449 37.0036C65.9592 36.2207 67.2631 34.7416 67.2631 33.1757C67.2631 31.6097 65.9585 30.2189 64.0449 29.4359ZM53.9538 33.1757C53.9538 31.7842 54.476 30.3921 55.4328 29.4359C53.5185 30.2189 52.214 31.6104 52.214 33.1757C52.214 34.741 53.5185 36.2207 55.4328 37.0036C54.476 36.0462 53.9538 34.6553 53.9538 33.1757Z" fill="#9B895D"/>
<path fill-rule="evenodd" clip-rule="evenodd" d="M66.2627 35.509C66.0895 35.9881 65.862 36.446 65.5848 36.8735C64.0739 37.8141 61.9939 38.3957 59.6975 38.3957C57.2873 38.3957 55.1379 37.7547 53.6364 36.7309C53.3333 36.2408 53.0958 35.7131 52.9297 35.1612C53.4975 35.9211 54.3731 36.5696 55.4356 37.0042C54.4787 36.0468 53.9566 34.6553 53.9566 33.1763C53.9566 31.7848 54.4787 30.3927 55.4356 29.4365C54.4043 29.858 53.5494 30.4578 52.9803 31.1651C53.1517 30.636 53.3856 30.1357 53.6751 29.6723C55.1748 28.6767 57.308 28.0438 59.6975 28.0438C61.9751 28.0438 64.0408 28.6179 65.5479 29.5341C65.8143 29.9418 66.0389 30.3809 66.2146 30.8424C65.6611 30.2758 64.9176 29.7918 64.0464 29.4365C65.0039 30.3927 65.5254 31.7855 65.5254 33.1763C65.5254 34.6553 65.0039 36.0468 64.0464 37.0042C64.9432 36.6371 65.7055 36.1181 66.2627 35.509ZM59.6975 28.566C57.0878 28.566 55.0003 30.6535 55.0003 33.1757C55.0003 35.786 57.0878 37.7866 59.6975 37.7866C62.3942 37.7866 64.4817 35.786 64.4817 33.1757C64.4817 30.6535 62.3942 28.566 59.6975 28.566Z" fill="#9B895D"/>
<path fill-rule="evenodd" clip-rule="evenodd" d="M55.3645 34.9968C55.1233 34.4504 54.9985 33.8598 54.998 33.2626V33.2213C55.0017 33.8315 55.1263 34.435 55.3645 34.9968Z" fill="#D0B26F"/>
<path fill-rule="evenodd" clip-rule="evenodd" d="M61.0873 36.3075C61.1743 36.3075 61.001 36.3075 61.0873 36.3075C61.6089 36.0461 61.9573 36.1343 62.305 35.6977C62.7396 35.3507 62.7396 34.9148 62.9135 34.4801C62.9135 34.3932 63.0016 34.3069 63.0016 34.22L63.6964 34.5683L63.2618 37.1774L62.7402 36.829L62.4788 37.9604L61.0873 36.3075Z" fill="#325E9E"/>
<path fill-rule="evenodd" clip-rule="evenodd" d="M56.2168 33.8723C56.1299 33.6978 56.043 33.524 56.043 33.2626C56.043 32.741 56.3907 32.4796 56.5645 31.958C56.7384 31.4365 56.7384 31.0881 57.1737 30.6535C57.5214 30.3052 57.8697 30.3921 58.3913 30.1307C58.9128 29.9575 59.1742 29.696 59.6958 29.696C60.218 29.696 60.4781 29.9575 61.001 30.1307C61.5225 30.3052 61.8709 30.3052 62.2186 30.5666L56.2168 33.8723ZM59.7833 36.7422C59.1742 36.7422 59.0004 36.4808 58.3913 36.3075C57.956 36.1343 57.6089 36.1343 57.2606 35.786L63.1754 32.4796C63.2623 32.6541 63.4368 32.9142 63.4368 33.1756C63.4368 33.6103 63.1754 33.8717 63.0022 34.22C63.0022 34.307 62.914 34.3933 62.914 34.4802C62.8271 34.6547 62.8271 34.7416 62.8271 34.8285C62.7401 34.9154 62.7401 35.003 62.7401 35.003C62.6532 35.2632 62.5669 35.5246 62.3055 35.6978C62.0441 36.0461 61.6958 36.0461 61.2611 36.2206C61.1742 36.2206 61.0879 36.2206 61.0879 36.3075H61.001C60.5669 36.4808 60.3055 36.7422 59.7833 36.7422Z" fill="#9B895D"/>
<path fill-rule="evenodd" clip-rule="evenodd" d="M61.9567 33.1756C61.9567 34.3932 61.0005 35.4376 59.6947 35.4376C58.4771 35.4376 57.4333 34.3932 57.4333 33.1756C57.4333 32.0443 58.4771 31.0012 59.6947 31.0012C61.0005 31.0018 61.9567 32.0449 61.9567 33.1756ZM59.6947 30.5665C58.2163 30.5665 56.998 31.6966 56.998 33.1756C56.998 34.6546 58.2163 35.8722 59.6947 35.8722C61.26 35.8722 62.4782 34.6546 62.4782 33.1756C62.4782 31.6966 61.2606 30.5665 59.6947 30.5665Z" fill="#EECE79"/>
<path fill-rule="evenodd" clip-rule="evenodd" d="M59.4339 30.5665C59.5208 30.5665 59.6947 30.5665 59.6947 30.6535L59.9555 30.9136C59.8685 31.0018 59.7816 31.0018 59.6947 30.9136L59.4339 30.5665ZM58.9986 30.6535H59.2594L59.6077 30.9136C59.5202 31.0018 59.347 31.0881 59.347 31.0018L58.9986 30.6535ZM58.564 30.9136C58.564 30.7404 58.7385 30.7404 58.8248 30.7404L59.1731 31.0018C59.0862 31.0887 58.9993 31.175 58.9123 31.0887L58.564 30.9136ZM58.1287 31.0881C58.1287 31.0012 58.3026 30.9136 58.3895 31.0012L58.7378 31.0881C58.7378 31.2613 58.6509 31.2613 58.5634 31.2613L58.1287 31.0881ZM57.781 31.4364C57.781 31.2619 57.9549 31.2619 57.9549 31.2619L58.3901 31.3489C58.3873 31.3941 58.3681 31.4368 58.3361 31.4689C58.3041 31.501 58.2615 31.5204 58.2163 31.5234L57.781 31.4364ZM57.5202 31.7848C57.5202 31.6103 57.6078 31.5234 57.6941 31.5234H58.1287C58.1287 31.6966 58.0418 31.7848 57.9549 31.7848H57.5202ZM57.2595 32.1325C57.2595 32.0443 57.3464 31.958 57.4333 31.958L57.781 31.8711C57.8679 31.958 57.781 32.0443 57.6941 32.1325H57.2595ZM57.085 32.5677C57.085 32.4796 57.1719 32.3933 57.1719 32.3933L57.6072 32.22C57.6941 32.307 57.6072 32.3933 57.5196 32.4802L57.085 32.5677ZM56.998 33.0893C56.998 32.9148 56.998 32.8279 57.085 32.8279L57.4333 32.5677C57.5202 32.6547 57.5202 32.741 57.4333 32.8279L56.998 33.0893ZM57.085 33.5239C56.998 33.437 56.998 33.2625 57.085 33.2625L57.3458 33.0024C57.4333 33.0893 57.4333 33.1756 57.4333 33.2625L57.085 33.5239ZM57.1719 33.9586C57.085 33.8716 57.085 33.7853 57.085 33.6972L57.3458 33.3488C57.4333 33.437 57.5196 33.5233 57.4333 33.6102L57.1719 33.9586ZM57.3458 34.3938C57.2588 34.3069 57.1719 34.2206 57.2588 34.1337L57.4327 33.7853C57.5196 33.7853 57.6065 33.9586 57.5196 33.9586L57.3458 34.3938ZM57.6072 34.7415C57.4333 34.7415 57.4333 34.5683 57.4333 34.5683L57.6072 34.1337C57.6941 34.1337 57.781 34.3069 57.6941 34.3938L57.6072 34.7415ZM57.8679 35.0899C57.781 35.0899 57.6941 35.003 57.6941 34.9154L57.781 34.4808C57.8679 34.4808 57.9549 34.5689 57.9549 34.6552L57.8679 35.0899ZM58.2163 35.4376C58.1287 35.4376 58.0424 35.2631 58.0424 35.1762V34.8278C58.1294 34.8278 58.2163 34.8278 58.2163 34.9148V35.4376ZM58.6509 35.6114C58.5634 35.6114 58.3901 35.5245 58.3901 35.4382L58.3032 35.0899C58.4771 35.003 58.564 35.0899 58.564 35.1768L58.6509 35.6114ZM59.0856 35.7859C58.9986 35.7859 58.8248 35.6977 58.8248 35.6977L58.6509 35.2631C58.8248 35.1762 58.9117 35.2631 58.9117 35.3513L59.0856 35.7859ZM59.6077 35.7859C59.4333 35.8729 59.347 35.8729 59.2594 35.7859L59.0856 35.4376C59.1725 35.3507 59.2594 35.3507 59.3463 35.4376L59.6077 35.7859ZM60.043 35.7859C59.9561 35.8729 59.7822 35.8729 59.7822 35.7859L59.5214 35.5245C59.5214 35.4376 59.6953 35.4376 59.7822 35.4376L60.043 35.7859ZM60.4776 35.6984C60.3907 35.7866 60.3038 35.7866 60.2169 35.7866L59.8685 35.5251C59.9555 35.4382 60.0424 35.3519 60.1293 35.4382L60.4776 35.6984ZM60.9123 35.5245C60.9123 35.6114 60.7391 35.6978 60.6521 35.6114L60.3038 35.4382C60.3038 35.3513 60.4776 35.2637 60.5652 35.3513L60.9123 35.5245ZM61.3469 35.3513C61.26 35.4382 61.1737 35.4382 61.0868 35.4382L60.6521 35.2637C60.7391 35.1768 60.8254 35.0905 60.9123 35.1768L61.3469 35.3513ZM61.6953 35.003C61.6953 35.0899 61.522 35.1762 61.4351 35.1762L61.0005 35.0893C61.0874 35.0023 61.1737 34.9148 61.2606 34.9148L61.6953 35.003ZM61.9567 34.6552C61.9567 34.7422 61.8697 34.8285 61.7822 34.8285H61.3475C61.3475 34.7415 61.4357 34.6552 61.522 34.6552H61.9567ZM62.2181 34.22C62.2181 34.3932 62.1299 34.4801 62.0436 34.4801L61.609 34.5683C61.609 34.4801 61.6959 34.3938 61.7822 34.3069L62.2181 34.22ZM62.3913 33.7853C62.3913 33.9586 62.3044 34.0455 62.2181 34.0455L61.8697 34.22C61.7816 34.1331 61.8697 34.0455 61.9567 33.9586L62.3913 33.7853ZM62.3913 33.3495C62.4782 33.4376 62.3913 33.6109 62.3913 33.6109L61.9567 33.8723C61.9567 33.7853 61.9567 33.6109 62.0436 33.6109L62.3913 33.3495ZM62.3913 32.9142C62.4782 33.0024 62.4782 33.1756 62.3913 33.1756L62.043 33.437C61.956 33.3488 61.956 33.2625 62.043 33.1756L62.3913 32.9142ZM62.3044 32.4796C62.3913 32.5677 62.3913 32.654 62.3913 32.741L62.043 33.0893C61.956 33.0024 61.956 32.9148 62.043 32.8279L62.3044 32.4796ZM62.1299 32.0449C62.2181 32.1331 62.3044 32.2194 62.2181 32.3063L62.0436 32.6547C61.9567 32.6547 61.8704 32.4802 61.8704 32.3933L62.1299 32.0449ZM61.8697 31.6097C62.043 31.6966 62.043 31.7841 62.043 31.8711L61.8697 32.3057C61.7816 32.2188 61.6953 32.1325 61.6953 32.0443L61.8697 31.6097ZM61.6083 31.3483C61.6953 31.3483 61.7816 31.4364 61.7816 31.5227L61.6946 31.9574C61.6497 31.9543 61.6074 31.9351 61.5756 31.9032C61.5437 31.8714 61.5245 31.8291 61.5214 31.7841L61.6083 31.3483ZM61.2606 31.0018C61.3475 31.0018 61.4351 31.175 61.4351 31.175V31.6097C61.3469 31.6097 61.2606 31.5227 61.2606 31.4364V31.0018ZM60.8254 30.8267C60.9123 30.8267 60.9998 30.9136 60.9998 30.9136L61.0868 31.3483C60.9998 31.3483 60.9123 31.3483 60.9123 31.2613L60.8254 30.8267ZM60.3907 30.6535C60.4776 30.6535 60.5652 30.6535 60.6521 30.7404L60.7391 31.175C60.6521 31.175 60.5658 31.175 60.4776 31.0881L60.3907 30.6535ZM59.8685 30.5665C59.9555 30.5665 60.1293 30.5665 60.1293 30.6535L60.3901 31.0018C60.3032 31.0887 60.1293 31.0887 60.1293 31.0018L59.8685 30.5665Z" fill="#9B895D"/>
<path fill-rule="evenodd" clip-rule="evenodd" d="M63.3486 34.3938C63.61 33.9592 63.7845 33.6978 63.7845 33.1762C63.7845 32.5677 63.5231 32.3063 63.2617 31.7848C63.0015 31.175 63.0015 30.8273 62.5669 30.3921C62.131 29.9574 61.6957 29.9574 61.1742 29.7836C60.5657 29.5222 60.3043 29.2607 59.6952 29.2607C59.086 29.2607 58.8253 29.5222 58.3031 29.7836C57.6939 30.0437 57.2593 30.0437 56.824 30.3921C56.3894 30.8267 56.3894 31.262 56.2149 31.7848C55.9541 32.3933 55.6934 32.6547 55.6934 33.2625C55.6934 33.8723 55.9541 34.1337 56.2149 34.6552C56.4757 35.1768 56.4757 35.6115 56.824 36.0467C57.3456 36.4814 57.7809 36.3951 58.3031 36.6565C58.9122 36.8297 59.173 37.178 59.7821 37.178C60.3912 37.178 60.6526 36.8297 61.1742 36.6565H61.2611L62.4787 38.1342L62.7401 37.0042L63.2617 37.2643L63.8714 34.5683L63.3486 34.3938ZM56.2162 33.8723C56.1293 33.6978 56.0423 33.5239 56.0423 33.2625C56.0423 32.741 56.39 32.4796 56.5639 31.958C56.7377 31.4364 56.7377 31.0881 57.173 30.6535C57.5207 30.3051 57.869 30.3921 58.3906 30.1306C58.9122 29.9574 59.1736 29.696 59.6952 29.696C60.2173 29.696 60.4775 29.9574 61.0003 30.1306C61.5219 30.3051 61.8702 30.3051 62.2179 30.5665L56.2162 33.8723ZM59.7827 36.7421C59.1736 36.7421 58.9997 36.4807 58.3906 36.3075C57.9554 36.1343 57.6083 36.1343 57.2599 35.7859L63.1748 32.4796C63.2617 32.654 63.4362 32.9142 63.4362 33.1756C63.4362 33.6102 63.1748 33.8717 63.0015 34.22C63.0015 34.3069 62.9133 34.3932 62.9133 34.4801C62.8264 34.6546 62.8264 34.7416 62.8264 34.8285C62.7395 34.9154 62.7395 35.003 62.7395 35.003C62.6526 35.2631 62.5663 35.5245 62.3049 35.6978C62.0434 36.0461 61.6951 36.0461 61.2605 36.2206C61.1735 36.2206 61.0872 36.2206 61.0872 36.3075H61.0003C60.5663 36.4807 60.3049 36.7421 59.7827 36.7421ZM62.3055 37.5251L61.5225 36.4807C61.9571 36.3938 62.3055 36.3075 62.6538 35.9592C62.7407 35.8722 62.827 35.7859 62.827 35.6978L62.3055 37.5251ZM63.0885 36.8291L62.827 36.6558L63.2617 35.0899L63.0885 35.003C63.1754 34.9148 63.1754 34.7416 63.2617 34.6546L63.5231 34.7416L63.0885 36.8291Z" fill="#EECE79"/>
<path fill-rule="evenodd" clip-rule="evenodd" d="M59.6959 31.3483C58.739 31.3483 57.9561 32.1325 57.8691 33.0024L60.4782 31.5234C60.2347 31.4046 59.9668 31.3446 59.6959 31.3483ZM58.9129 34.8285C59.1737 35.003 59.4345 35.0899 59.6959 35.0899C60.1755 35.0945 60.6392 34.9177 60.994 34.595C61.3489 34.2723 61.5687 33.8274 61.6095 33.3495L58.9129 34.8285Z" fill="#C82E37"/>
<path fill-rule="evenodd" clip-rule="evenodd" d="M56.9991 35.6115C56.8253 35.2632 56.7383 34.9155 56.5645 34.4802C56.4776 34.3933 56.4776 34.307 56.3906 34.2201L62.393 30.8268C62.6544 31.1751 62.6544 31.4365 62.9146 31.9581C62.9146 32.045 63.0027 32.1326 63.089 32.2195L56.9991 35.6115Z" fill="#325E9E"/>
<path fill-rule="evenodd" clip-rule="evenodd" d="M58.3905 32.5677L58.6513 31.958L58.7382 32.2194L59.3473 31.5234L59.4342 31.6966L59.695 31.4364L59.4342 31.958L59.3473 31.7848L58.7382 32.3926L58.6513 32.3063L58.3905 32.5677ZM59.7819 35.003L60.0433 34.3938L60.2172 34.5683L60.8257 33.9586L60.9126 34.1337L61.174 33.8723L60.9126 34.3938L60.8257 34.22L60.2172 34.8285L60.0433 34.6553L59.7819 35.003ZM57.8683 33.5239L58.0428 33.437V34.0455L58.3035 33.8723V33.2625L58.4774 33.1756V34.5683L58.3035 34.6553V34.0455L58.0428 34.22V34.8285L57.8683 34.9154V33.5239ZM58.8251 33.6972V33.1756L58.912 33.0887C58.999 33.0887 58.999 33.0887 58.999 33.1756V33.437C58.999 33.5239 58.999 33.5239 58.912 33.6102L58.8251 33.6972ZM59.0859 33.6109C59.1728 33.5239 59.1728 33.5239 59.1728 33.4376V33.0893C59.1728 32.9148 59.0859 32.8279 58.912 32.9148L58.6513 33.0893V34.4808L58.8251 34.3938V33.7854H58.912L59.0859 34.3069L59.2597 34.1337L59.0859 33.6109ZM59.4342 33.437L59.1734 32.8279L59.3473 32.741L59.5212 33.1756L59.695 32.4796L59.8689 32.3926L59.6081 33.3495V33.9586L59.4342 34.0455V33.437ZM60.1296 33.0024C60.0427 33.0893 59.9558 33.0024 59.9558 32.9142V32.5671C59.9558 32.3926 59.9558 32.3926 60.1296 32.3057L60.3035 32.2188C60.3904 32.1319 60.4774 32.1319 60.4774 32.3057V32.4789L60.3035 32.5671V32.3057L60.1296 32.3926V32.9142L60.3035 32.8273C60.3904 32.7403 60.4774 32.7403 60.4774 32.9142V33.2625C60.4774 33.437 60.4774 33.5239 60.3035 33.6109L60.1296 33.6978C60.0427 33.6978 59.9558 33.6978 59.9558 33.6109V33.3495L60.0427 33.2625V33.5239L60.3904 33.437V32.9142L60.1296 33.0024ZM60.6525 31.958L60.8257 31.8711V33.1756L61.0871 33.0024V33.1756L60.6525 33.437V31.958ZM61.174 31.6966L61.6956 31.4364V31.5234L61.3473 31.6966V32.2194L61.6087 32.0449V32.2194L61.3473 32.3063V32.8279L61.6956 32.654V32.8279L61.174 33.0893V31.6966ZM61.957 31.8711V31.4364L62.0439 31.3483C62.1309 31.2613 62.2184 31.3483 62.2184 31.3483V31.6966C62.2184 31.7848 62.1302 31.7848 62.1302 31.7848L61.957 31.8711ZM62.2184 31.8711C62.3053 31.7841 62.3916 31.7841 62.3916 31.6097V31.2613C62.3916 31.1744 62.2184 31.0881 62.1302 31.1744L61.7819 31.3476V32.7403L61.9564 32.6534V32.0437L62.0433 31.9568L62.2178 32.4783L62.391 32.3914L62.2184 31.8711ZM57.5206 34.22V33.8717L57.2598 34.0449V35.0893L57.5206 34.9148V34.6546L57.6944 34.5677V34.8279C57.6944 35.0023 57.6944 35.0893 57.5206 35.0893L57.3467 35.1762C57.2598 35.2631 57.0859 35.2631 57.0859 35.0893V34.1331C57.0859 33.9586 57.1729 33.8717 57.3467 33.7847L57.5206 33.6965C57.6081 33.6965 57.6944 33.6965 57.6944 33.871V34.1324L57.5206 34.22Z" fill="#EECE79"/>
<path fill-rule="evenodd" clip-rule="evenodd" d="M110.409 28.1301C106.408 28.3915 86.9233 29.0875 73.1787 29.0875C71.0043 29.0875 69.352 28.4778 67.6116 27.7824C65.611 27 63.2621 26.1295 59.6956 26.1295C56.129 26.1295 53.7808 26.9994 51.7795 27.7824C50.0397 28.4778 48.3875 29.0875 46.2124 29.0875C32.4679 29.0875 12.983 28.3915 8.9812 28.1301L8.28516 28.0432L8.54594 28.6529C9.15506 29.7842 10.721 31.1751 17.6796 31.3489C19.9416 33.2632 25.074 33.5246 27.9445 33.4377C29.8582 34.8291 34.0338 35.4383 41.9499 35.4383C46.6477 35.4383 48.6483 36.8297 50.6489 38.3087C52.7364 39.7002 54.9108 41.1792 59.6956 41.1792C64.4797 41.1792 66.6548 39.7002 68.656 38.3087C70.7435 36.8297 72.7441 35.4383 77.4419 35.4383C85.2704 35.4383 89.533 34.8285 91.3603 33.4377C94.3177 33.5246 99.4502 33.2632 101.712 31.3489C108.671 31.1757 110.237 29.7842 110.758 28.6529L111.107 28.0432L110.409 28.1301ZM101.537 31.0018C99.8842 32.4796 95.97 33.1763 91.2734 33.0893C89.1846 34.7422 83.6175 35.0899 77.4419 35.0899C67.7867 35.0899 69.0906 40.8309 59.6962 40.8309C50.3018 40.8309 51.5194 35.0899 41.9505 35.0899C35.7743 35.0899 30.2071 34.7416 28.1196 33.0893C23.4218 33.1763 19.5076 32.4796 17.8547 31.0018C11.1569 30.8274 9.50402 29.5228 8.8949 28.4784C12.9836 28.8268 32.643 29.5228 46.2131 29.5228C50.9972 29.5228 53.1723 26.4779 59.6962 26.4779C66.2208 26.4779 68.3083 29.5228 73.1793 29.5228C86.7494 29.5228 106.409 28.8268 110.498 28.4784C109.888 29.5222 108.235 30.8267 101.537 31.0018Z" fill="#0C0E0F"/>
<path fill-rule="evenodd" clip-rule="evenodd" d="M109.802 28.566L110.063 28.4778C110.063 28.4778 109.975 28.6523 109.802 28.8261H109.367C109.628 28.7398 109.802 28.566 109.802 28.566Z" fill="#0C0E0F"/>
<path fill-rule="evenodd" clip-rule="evenodd" d="M109.367 28.8262C107.191 29.6961 99.8851 30.5666 74.0488 30.5666C71.2653 30.5666 70.5705 30.2183 70.134 30.2183C69.6993 30.2183 69.6124 30.5666 69.7869 30.9131C69.9601 31.1745 70.134 31.6091 70.2215 31.8705C70.1333 31.2608 70.6562 31.4359 72.8306 31.4359C91.273 31.4359 95.2735 31.0875 100.842 30.4784C98.493 32.0444 85.0098 32.1325 74.3096 32.1325C73.092 32.2195 71.7875 32.2195 70.83 32.2195C70.4817 32.2195 70.3085 32.3064 70.3954 32.6541C70.3954 32.9143 70.4823 33.4371 70.3954 33.7854C70.7437 33.3495 70.6568 33.0024 72.8312 33.0024C83.7922 33.0024 88.6633 32.6541 90.6645 32.3927C88.9253 33.3489 86.2281 33.7854 73.9625 33.7854C68.7431 33.7854 68.134 39.5264 59.6964 39.5264C51.2588 39.5264 50.6497 33.7854 45.4303 33.7854C33.1648 33.7854 30.4682 33.3495 28.7284 32.3927C30.7289 32.6541 35.6 33.0024 46.561 33.0024C48.7361 33.0024 48.6491 33.3495 48.9968 33.7854C48.9099 33.4371 48.9968 32.9143 48.9968 32.6541C49.0838 32.3058 48.9099 32.2195 48.5616 32.2195C47.6047 32.2195 46.3002 32.2195 45.0826 32.1325C34.383 32.1325 20.8999 32.0444 18.551 30.4784C24.1187 31.0882 28.1199 31.4359 46.5616 31.4359C48.7367 31.4359 49.2582 31.2614 49.1713 31.8705C49.2589 31.6091 49.4321 31.1745 49.6066 30.9131C49.7804 30.566 49.6935 30.2183 49.2589 30.2183C48.8236 30.2183 48.1276 30.5666 45.344 30.5666C19.4215 30.5666 12.2015 29.6954 10.0264 28.8262H9.5918C10.6356 29.5222 12.4623 30.0438 18.1163 30.479C19.5084 31.7848 23.0749 32.1332 28.2068 32.3933C29.8597 33.9593 34.2961 34.2207 43.865 34.2207C51.085 34.2207 50.9111 40.0479 59.697 40.0479C68.4824 40.0479 68.3091 34.2207 75.5291 34.2207C85.098 34.2207 89.4475 33.9593 91.1867 32.3933C96.2322 32.1332 99.8857 31.7848 101.278 30.479C106.932 30.0444 108.759 29.5228 109.803 28.8262H109.367Z" fill="#0C0E0F"/>
<path fill-rule="evenodd" clip-rule="evenodd" d="M9.59051 28.566L9.32973 28.4778C9.32973 28.4778 9.41665 28.6523 9.59051 28.8261H10.0251C9.76436 28.7398 9.59051 28.566 9.59051 28.566ZM77.7022 21.2584H88.2286V20.1278H80.9217V15.0822H77.7022V21.2584ZM16.8974 15.0822V21.2584H20.1156V18.7357H25.7703V21.2584H28.9885V15.0822H25.7703V17.605H20.1156V15.0822H16.8974ZM57.2605 15.0822L54.2156 17.6919L51.1706 15.0822H47.4302L51.9536 18.7357V21.2584H55.1724V18.7357C55.2593 18.6487 59.4343 15.0822 59.4343 15.0822H57.2605ZM91.7951 21.2584H102.495V20.2147H95.0133V18.6487H102.233V17.605H95.0133V16.126H102.407V15.0822H91.7951V21.2584ZM62.131 16.7351C62.131 18.1265 63.7851 18.4749 66.1321 18.7357C68.4811 19.084 69.6117 19.1703 69.6117 19.6925C69.6117 20.1271 68.9157 20.3885 66.9151 20.3885C64.5674 20.3885 62.5669 19.867 62.3055 19.7794C62.3055 19.8663 62.044 21.084 62.044 21.084C62.3055 21.1709 64.2197 21.6055 67.0033 21.6055C70.1339 21.6055 73.092 21.084 73.092 19.4305C73.092 18.2998 71.8744 17.6907 68.3941 17.3429C67.0027 17.1691 65.5236 17.0822 65.5236 16.56C65.5236 16.1253 65.872 15.9509 67.9595 15.9509C69.9601 15.9509 71.6992 16.3861 71.9607 16.3861L72.2227 15.2561C71.8744 15.1691 69.8738 14.8208 67.1771 14.8208C65.0027 14.8214 62.131 15.0822 62.131 16.7351ZM1.5 18.2141C1.5 20.2147 3.67506 21.6061 8.19842 21.6061C9.93822 21.6061 11.7649 21.3454 12.1127 21.2584L12.3734 19.9539C12.0251 20.0408 10.4592 20.2147 8.89384 20.2147C6.37169 20.2147 4.63189 19.6056 4.63189 18.2141C4.63189 16.7351 6.28476 16.126 8.89384 16.126C10.3729 16.126 12.0257 16.2998 12.3734 16.3867L12.1127 15.0822C11.678 14.9947 10.0251 14.8214 8.28472 14.8214C3.67506 14.8214 1.5 16.126 1.5 18.2141ZM33.9471 21.2584H37.1653V16.2129C37.5999 16.126 38.1221 16.126 38.8182 16.126C39.6005 16.126 40.2096 16.126 40.6449 16.2129C41.6017 16.2998 41.9494 16.6482 41.9494 17.0828C41.9494 17.4305 41.5148 17.8658 40.5573 17.9527C39.8613 18.0402 39.4266 18.1265 38.9045 18.1265C38.5561 18.1265 38.2953 18.1265 37.8607 18.0396L41.5142 21.2578H45.6029L41.9494 18.735C42.6455 18.6481 42.9062 18.6481 43.6892 18.3873C44.646 18.1265 45.0813 17.605 45.1676 17.0828C45.1676 16.2998 44.646 15.6907 42.8193 15.2561C41.8625 15.0822 40.5573 14.9947 38.9051 14.9947C36.5562 14.9947 34.2079 15.0822 33.9465 15.0822L33.9471 21.2584ZM106.757 21.2584H109.975V16.2129C110.498 16.126 110.932 16.126 111.715 16.126C112.498 16.126 113.02 16.126 113.541 16.2129C114.499 16.2998 114.847 16.6482 114.759 17.0828C114.759 17.4305 114.324 17.8658 113.368 17.9527C112.758 18.0402 112.323 18.1265 111.715 18.1265C111.366 18.1265 111.105 18.1265 110.757 18.0396L114.412 21.2578H118.5L114.759 18.735C115.542 18.6481 115.803 18.6481 116.499 18.3873C117.456 18.1265 117.977 17.605 117.977 17.0828C117.977 16.2998 117.543 15.6907 115.716 15.2561C114.672 15.0822 113.454 14.9947 111.715 14.9947C109.453 14.9947 107.017 15.0822 106.756 15.0822V21.2584H106.757Z" fill="#0C0E0F"/>
</svg>
