<svg width="120" height="56" viewBox="0 0 120 56" fill="none" xmlns="http://www.w3.org/2000/svg">
<path d="M71.4306 47.5075C69.5622 47.4672 67.664 47.5075 67.6476 47.5075C65.3661 47.5075 63.5097 49.0544 63.5097 50.9549C63.5097 52.8847 65.3661 54.4548 67.6498 54.4548C67.6645 54.4553 69.5622 54.4918 71.4317 54.4548C73.7182 54.4548 75.5786 52.8847 75.5786 50.9549C75.5786 49.0732 73.7561 47.5589 71.4306 47.5075ZM70.1494 53.5001C70.1494 53.5001 69.4679 53.5172 68.9519 53.5001C67.6374 53.5001 66.2195 52.5311 66.2195 50.9659C66.2195 49.4129 67.6086 48.4859 68.9451 48.4865C69.3459 48.4682 69.7474 48.4681 70.1483 48.4859C71.4922 48.4859 72.8813 49.4135 72.8813 50.9659C72.8813 52.5311 71.4633 53.5001 70.1494 53.5001ZM95.7172 54.3658H98.0432V51.0554C98.0432 49.1212 96.271 47.6058 94.0099 47.6058H88.1235C88.0274 47.6058 87.8042 47.6296 87.8042 47.8572V54.1089C87.8042 54.2769 87.9296 54.3653 88.0517 54.3653H90.5123V49.1362C90.5123 48.9063 90.6903 48.7936 90.8655 48.7936H93.5747C94.3247 48.7936 95.434 49.4516 95.434 50.8858V54.1017C95.4335 54.1045 95.4402 54.3658 95.7172 54.3658ZM46.6094 48.9478H50.2409V47.871C50.2424 47.8367 50.2367 47.8024 50.2242 47.7703C50.2117 47.7381 50.1927 47.7088 50.1683 47.6841C50.1439 47.6593 50.1146 47.6397 50.0822 47.6264C50.0498 47.613 50.015 47.6062 49.9798 47.6064H39.8594C39.8244 47.6062 39.7898 47.6129 39.7575 47.626C39.7252 47.6392 39.696 47.6585 39.6714 47.6828C39.6469 47.7072 39.6276 47.7361 39.6146 47.7678C39.6017 47.7996 39.5954 47.8335 39.5961 47.8677V48.9478H42.0148C42.9224 48.9478 43.5322 49.7091 43.5322 50.419V54.11C43.5322 54.2321 43.6418 54.3675 43.7995 54.3675H46.2533V49.2931C46.2533 49.1019 46.4127 48.9478 46.6094 48.9478ZM35.422 54.1089C35.422 54.2598 35.5621 54.3664 35.6887 54.3664H38.1408V47.8616C38.1388 47.7932 38.1098 47.7282 38.0599 47.6802C38.0099 47.6323 37.943 47.605 37.873 47.6042H35.6882C35.6183 47.6047 35.5515 47.6319 35.5018 47.6798C35.4521 47.7278 35.4234 47.7928 35.422 47.8611V54.1089ZM59.686 54.3669H62.3856C62.3138 52.6151 60.38 51.8924 60.38 51.8924L60.3816 51.8919C61.5956 51.6206 62.38 50.7682 62.38 49.782C62.38 48.7345 61.3311 47.6042 59.6368 47.6042H53.1078C52.3166 47.6042 51.6961 48.2119 51.6961 48.9853V54.1078C51.6961 54.2559 51.8041 54.3664 51.9549 54.3664H54.4059V51.9687H56.7185C58.7772 51.9687 59.6227 53.4211 59.686 54.3669ZM54.4042 50.7709V49.4207C54.4042 49.0516 54.6727 48.7936 55.057 48.7936H58.6687C59.2163 48.7936 59.6792 49.2433 59.6792 49.7754C59.6792 50.324 59.2203 50.7709 58.6569 50.7709H54.4042ZM31.2971 49.8737H33.9391C33.3672 48.4594 31.7096 47.4594 29.9594 47.4561C29.0009 47.4539 27.2937 47.4003 26.1792 47.4561C24.8766 47.5191 24.0572 47.8102 23.2552 48.4925C22.472 49.161 22.0402 50.0417 22.0391 50.9781C22.0391 52.9112 23.7983 54.4288 26.1318 54.5078C27.7316 54.5636 27.9023 54.5658 29.9995 54.5034C31.943 54.4465 33.3361 53.5874 33.9374 52.0869H31.2965C31.2501 52.0855 31.2042 52.0969 31.164 52.1198C31.1239 52.1426 31.0911 52.176 31.0693 52.2162C30.5912 53.0211 29.6921 53.5034 28.7082 53.5189C28.3652 53.5239 27.9034 53.5255 27.4813 53.5211C26.1092 53.5089 24.75 52.567 24.75 50.9748C24.75 49.4096 26.1453 48.4561 27.4881 48.4561C27.8848 48.4399 28.2821 48.4399 28.6788 48.4561C29.6588 48.4561 30.598 48.9638 31.0727 49.7494C31.0957 49.7875 31.1285 49.8191 31.1679 49.8409C31.2073 49.8627 31.2518 49.874 31.2971 49.8737ZM86.3478 53.1521H79.9505C79.7346 53.1521 79.5843 53.0117 79.5843 52.8117V51.5234H85.1294V50.3372H79.5832V49.161C79.5832 49.1549 79.5809 48.8185 79.9952 48.8185H86.3478V47.8705C86.3478 47.5931 86.0443 47.6053 86.0359 47.6053H77.1367C77.109 47.6053 76.866 47.6136 76.866 47.8705V52.9913C76.866 53.6675 77.3989 54.3664 78.2902 54.3664H86.0828C86.2851 54.3664 86.3484 54.1796 86.3484 54.1145L86.3478 53.1521ZM84.3563 45.1562C84.0963 44.9993 83.7821 44.9214 83.4148 44.9214C83.0486 44.9214 82.7219 45.0043 82.4733 45.1562C82.224 45.307 82.0257 45.5109 81.7318 45.5109C81.4391 45.5109 81.2622 45.3076 80.9971 45.1562C80.7321 45.0048 80.4224 44.9214 80.0556 44.9214C79.6889 44.9214 79.3758 44.9993 79.1141 45.1562C78.8547 45.3103 78.723 45.4987 78.723 45.7175C78.723 45.9379 78.8547 46.1252 79.1141 46.281C79.3758 46.4368 79.6889 46.5136 80.0556 46.5136C80.4213 46.5136 80.7417 46.439 80.9768 46.2987C81.2119 46.1589 81.4668 45.9291 81.7318 45.9291C81.998 45.9291 82.2382 46.1352 82.4738 46.281C82.7095 46.4274 83.0486 46.5136 83.4148 46.5136C83.7928 46.5136 84.1105 46.4368 84.3642 46.281C84.6202 46.1258 84.7468 45.9385 84.7468 45.7175C84.7462 45.4987 84.6168 45.3109 84.3563 45.1562Z" fill="#45464A"/>
<path d="M60.0362 12.4742C65.7118 12.4742 79.4141 23.9755 81.1315 25.4363C81.2479 25.5351 81.409 25.6628 81.7062 25.6296C82.1346 25.5816 82.1465 24.9418 82.1465 24.9418C82.1465 24.9418 82.2488 23.4805 82.2488 22.0093C82.2488 20.1558 80.7681 18.5343 80.7681 18.5343C80.7681 18.5343 65.4123 2 60.0362 2C54.6595 2 39.3049 18.5348 39.3049 18.5348C39.3049 18.5348 37.8242 20.1563 37.8242 22.0098C37.8242 23.4811 37.9259 24.9423 37.9259 24.9423C37.9259 24.9423 37.9384 25.5821 38.3667 25.6302C38.6634 25.6633 38.8251 25.5357 38.9415 25.4368C40.6584 23.9755 54.36 12.4742 60.0362 12.4742Z" fill="black"/>
<path d="M60.0356 27.6889C65.7113 27.6889 79.4135 39.1902 81.1309 40.6509C81.2473 40.7504 81.4084 40.8774 81.7057 40.8443C82.134 40.7968 82.1459 40.1565 82.1459 40.1565C82.1459 40.1565 82.2482 38.6952 82.2482 37.224C82.2482 35.3704 80.7676 33.7495 80.7676 33.7495C80.7676 33.7495 65.4123 17.2141 60.0362 17.2141C54.6595 17.2141 39.3049 33.7495 39.3049 33.7495C39.3049 33.7495 37.8242 35.3704 37.8242 37.224C37.8242 38.6952 37.9259 40.1565 37.9259 40.1565C37.9259 40.1565 37.9384 40.7968 38.3667 40.8443C38.6634 40.878 38.8251 40.7504 38.9415 40.6509C40.6578 39.1896 54.3594 27.6889 60.0356 27.6889Z" fill="black"/>
<path d="M44.4586 16.0343C41.3481 18.5381 38.9463 20.8905 38.1229 21.7181C38.0766 22.7269 38.2122 24.9091 38.2128 24.9235C38.2128 24.9235 38.2263 25.7124 38.8028 25.2075L39.3764 24.7086C45.5691 19.1712 51.928 14.3233 57.0227 12.167C57.3849 12.014 57.9789 11.9112 57.6703 11.53C57.4974 11.3168 56.8933 11.2913 56.5112 11.3129C51.2289 11.6096 44.6983 15.8647 44.4586 16.0343Z" fill="url(#paint0_linear_596_7432)"/>
<path d="M75.6183 16.0353C78.7293 18.539 81.1311 20.8915 81.9545 21.7191C82.0009 22.7279 81.8658 24.9101 81.8652 24.9245C81.8652 24.9245 81.8517 25.7134 81.2747 25.2084L80.7011 24.7096C74.5083 19.1722 68.1495 14.3243 63.0542 12.168C62.692 12.0149 62.098 11.9122 62.406 11.531C62.5795 11.3177 63.1842 11.2923 63.5662 11.3139C68.848 11.6105 75.3786 15.8657 75.6183 16.0353Z" fill="url(#paint1_linear_596_7432)"/>
<path d="M44.4586 31.2484C41.3481 33.7521 38.9463 36.104 38.1229 36.9321C38.0766 37.9404 38.2122 40.1221 38.2128 40.1376C38.2128 40.1376 38.2263 40.9259 38.8028 40.4204L39.3764 39.9221C45.5691 34.3853 51.928 29.5374 57.0227 27.3811C57.3849 27.228 57.9789 27.1247 57.6703 26.7441C57.4974 26.5314 56.8933 26.5054 56.5112 26.527C51.2289 26.8236 44.6983 31.0787 44.4586 31.2484Z" fill="url(#paint2_linear_596_7432)"/>
<path d="M75.6183 31.2484C78.7293 33.7521 81.1311 36.104 81.9545 36.9321C82.0009 37.9404 81.8658 40.1221 81.8652 40.1376C81.8652 40.1376 81.8517 40.9259 81.2747 40.4204L80.7011 39.9221C74.5083 34.3853 68.1495 29.5374 63.0542 27.3811C62.692 27.228 62.098 27.1247 62.406 26.7441C62.5795 26.5314 63.1842 26.5054 63.5662 26.527C68.848 26.8236 75.3786 31.0787 75.6183 31.2484Z" fill="url(#paint3_linear_596_7432)"/>
<path d="M80.5559 18.7191C80.3699 18.518 65.2193 2.2749 60.0342 2.2749C54.8485 2.2749 39.6984 18.518 39.5119 18.7191C39.495 18.7374 38.2562 20.1169 38.1172 21.7196C38.9406 20.892 41.3424 18.5401 44.4529 16.0358C44.4518 16.0363 45.3899 15.2667 46.7993 14.2287C49.9223 11.9293 55.4351 8.33548 60.0336 8.33548C64.6321 8.33548 70.145 11.9298 73.2673 14.2287C74.0643 14.8122 74.8465 15.4147 75.6132 16.0358C78.7243 18.5396 81.1261 20.892 81.9495 21.7196C81.811 20.1169 80.5728 18.7374 80.5559 18.7191Z" fill="url(#paint4_linear_596_7432)"/>
<path d="M80.5559 33.9315C80.3699 33.7309 65.2193 17.4878 60.0342 17.4878C54.8485 17.4878 39.6984 33.7309 39.5119 33.9315C39.495 33.9502 38.2562 35.3292 38.1172 36.933C38.9406 36.1049 41.3424 33.753 44.4529 31.2492C44.4518 31.2498 45.3899 30.4802 46.7993 29.4421C49.9223 27.1427 55.4351 23.5484 60.0336 23.5484C64.6321 23.5484 70.145 27.1427 73.2673 29.4421C74.6768 30.4802 75.6155 31.2492 75.6132 31.2492C78.7243 33.753 81.1261 36.1049 81.9495 36.933C81.811 35.3292 80.5728 33.9502 80.5559 33.9315Z" fill="url(#paint5_linear_596_7432)"/>
<path d="M80.7911 19.7486C72.291 10.2158 63.0126 2.89006 60.3582 2.75802C59.9779 2.73924 59.9688 3.10718 59.9688 3.10718C59.9649 6.24023 60.1576 6.7927 62.3638 7.633C62.6668 7.74847 70.9347 10.1738 80.7855 20.0105L80.9273 20.1508L80.7911 19.7486Z" fill="url(#paint6_linear_596_7432)"/>
<path d="M80.7911 34.9633C72.291 25.4299 63.0126 18.1042 60.3582 17.9721C59.9779 17.9533 59.9688 18.3213 59.9688 18.3213C59.9649 21.4538 60.1576 22.0068 62.3638 22.8466C62.6668 22.962 70.9347 25.3874 80.7855 35.2246L80.9273 35.3649L80.7911 34.9633Z" fill="url(#paint7_linear_596_7432)"/>
<defs>
<linearGradient id="paint0_linear_596_7432" x1="38.1128" y1="18.3408" x2="81.8247" y2="18.3408" gradientUnits="userSpaceOnUse">
<stop stop-color="#C2C2C4"/>
<stop offset="0.121" stop-color="#BABABB"/>
<stop offset="0.317" stop-color="#A2A2A4"/>
<stop offset="0.5" stop-color="#868689"/>
<stop offset="0.545" stop-color="#919193"/>
<stop offset="0.748" stop-color="#BCBCBE"/>
<stop offset="0.907" stop-color="#D7D7D8"/>
<stop offset="1" stop-color="#E1E1E1"/>
</linearGradient>
<linearGradient id="paint1_linear_596_7432" x1="38.0917" y1="18.3418" x2="81.8048" y2="18.3418" gradientUnits="userSpaceOnUse">
<stop stop-color="#C2C2C4"/>
<stop offset="0.121" stop-color="#BABABB"/>
<stop offset="0.317" stop-color="#A2A2A4"/>
<stop offset="0.5" stop-color="#868689"/>
<stop offset="0.545" stop-color="#919193"/>
<stop offset="0.748" stop-color="#BCBCBE"/>
<stop offset="0.907" stop-color="#D7D7D8"/>
<stop offset="1" stop-color="#E1E1E1"/>
</linearGradient>
<linearGradient id="paint2_linear_596_7432" x1="38.1128" y1="33.5549" x2="81.8247" y2="33.5549" gradientUnits="userSpaceOnUse">
<stop stop-color="#C2C2C4"/>
<stop offset="0.121" stop-color="#BABABB"/>
<stop offset="0.317" stop-color="#A2A2A4"/>
<stop offset="0.5" stop-color="#868689"/>
<stop offset="0.545" stop-color="#919193"/>
<stop offset="0.748" stop-color="#BCBCBE"/>
<stop offset="0.907" stop-color="#D7D7D8"/>
<stop offset="1" stop-color="#E1E1E1"/>
</linearGradient>
<linearGradient id="paint3_linear_596_7432" x1="38.0917" y1="33.5549" x2="81.8048" y2="33.5549" gradientUnits="userSpaceOnUse">
<stop stop-color="#C2C2C4"/>
<stop offset="0.121" stop-color="#BABABB"/>
<stop offset="0.317" stop-color="#A2A2A4"/>
<stop offset="0.5" stop-color="#868689"/>
<stop offset="0.545" stop-color="#919193"/>
<stop offset="0.748" stop-color="#BCBCBE"/>
<stop offset="0.907" stop-color="#D7D7D8"/>
<stop offset="1" stop-color="#E1E1E1"/>
</linearGradient>
<linearGradient id="paint4_linear_596_7432" x1="38.1172" y1="11.9978" x2="81.6974" y2="11.9978" gradientUnits="userSpaceOnUse">
<stop stop-color="#868689"/>
<stop offset="0.023" stop-color="#909093"/>
<stop offset="0.125" stop-color="#B8B8B9"/>
<stop offset="0.226" stop-color="#D7D7D8"/>
<stop offset="0.323" stop-color="#EDEDEE"/>
<stop offset="0.416" stop-color="#FAFAFB"/>
<stop offset="0.5" stop-color="white"/>
<stop offset="0.58" stop-color="#FAFAFA"/>
<stop offset="0.675" stop-color="#EBEBEC"/>
<stop offset="0.777" stop-color="#D3D3D5"/>
<stop offset="0.886" stop-color="#B2B2B4"/>
<stop offset="0.997" stop-color="#87878A"/>
<stop offset="1" stop-color="#868689"/>
</linearGradient>
<linearGradient id="paint5_linear_596_7432" x1="38.1172" y1="27.2101" x2="81.6974" y2="27.2101" gradientUnits="userSpaceOnUse">
<stop stop-color="#868689"/>
<stop offset="0.023" stop-color="#909093"/>
<stop offset="0.125" stop-color="#B8B8B9"/>
<stop offset="0.226" stop-color="#D7D7D8"/>
<stop offset="0.323" stop-color="#EDEDEE"/>
<stop offset="0.416" stop-color="#FAFAFB"/>
<stop offset="0.5" stop-color="white"/>
<stop offset="0.58" stop-color="#FAFAFA"/>
<stop offset="0.675" stop-color="#EBEBEC"/>
<stop offset="0.777" stop-color="#D3D3D5"/>
<stop offset="0.886" stop-color="#B2B2B4"/>
<stop offset="0.997" stop-color="#87878A"/>
<stop offset="1" stop-color="#868689"/>
</linearGradient>
<linearGradient id="paint6_linear_596_7432" x1="60.1355" y1="11.6616" x2="80.7433" y2="11.2344" gradientUnits="userSpaceOnUse">
<stop stop-color="#F3F3F3"/>
<stop offset="0.039" stop-color="#DBDBDC"/>
<stop offset="0.11" stop-color="#B7B7B8"/>
<stop offset="0.176" stop-color="#9C9C9E"/>
<stop offset="0.235" stop-color="#8C8C8F"/>
<stop offset="0.281" stop-color="#868689"/>
<stop offset="0.401" stop-color="#8E8E91"/>
<stop offset="0.585" stop-color="#A4A4A6"/>
<stop offset="0.59" stop-color="#A4A4A6"/>
<stop offset="1" stop-color="#868689"/>
</linearGradient>
<linearGradient id="paint7_linear_596_7432" x1="60.135" y1="26.8757" x2="80.7433" y2="26.4491" gradientUnits="userSpaceOnUse">
<stop stop-color="#F3F3F3"/>
<stop offset="0.039" stop-color="#DBDBDC"/>
<stop offset="0.11" stop-color="#B7B7B8"/>
<stop offset="0.176" stop-color="#9C9C9E"/>
<stop offset="0.235" stop-color="#8C8C8F"/>
<stop offset="0.281" stop-color="#868689"/>
<stop offset="0.401" stop-color="#8E8E91"/>
<stop offset="0.585" stop-color="#A4A4A6"/>
<stop offset="0.59" stop-color="#A4A4A6"/>
<stop offset="1" stop-color="#868689"/>
</linearGradient>
</defs>
</svg>
