<svg width="120" height="56" viewBox="0 0 120 56" fill="none" xmlns="http://www.w3.org/2000/svg">
<path d="M71.3888 47.2313C69.5206 47.191 67.6224 47.2313 67.606 47.2313C65.3247 47.2313 63.4683 48.7782 63.4683 50.6786C63.4683 52.6082 65.3247 54.1782 67.6082 54.1782C67.6229 54.1788 69.5206 54.2153 71.3899 54.1782C73.6763 54.1782 75.5366 52.6082 75.5366 50.6786C75.5366 48.797 73.7142 47.2827 71.3888 47.2313ZM70.1077 53.2236C70.1077 53.2236 69.4262 53.2408 68.9102 53.2236C67.5958 53.2236 66.178 52.2547 66.178 50.6896C66.178 49.1367 67.567 48.2097 68.9035 48.2103C69.3043 48.1921 69.7057 48.1919 70.1066 48.2097C71.4504 48.2097 72.8394 49.1373 72.8394 50.6896C72.8394 52.2547 71.4216 53.2236 70.1077 53.2236ZM95.674 54.0893H98V50.7791C98 48.845 96.2278 47.3297 93.9669 47.3297H88.0808C87.9847 47.3297 87.7615 47.3534 87.7615 47.581V53.8324C87.7615 54.0004 87.8869 54.0888 88.009 54.0888H90.4694V48.8599C90.4694 48.6301 90.6475 48.5174 90.8226 48.5174H93.5317C94.2816 48.5174 95.3909 49.1754 95.3909 50.6095V53.8252C95.3903 53.828 95.3971 54.0893 95.674 54.0893ZM46.5689 48.6715H50.2003V47.5948C50.2017 47.5605 50.196 47.5262 50.1836 47.4941C50.1711 47.462 50.1521 47.4327 50.1277 47.4079C50.1033 47.3832 50.074 47.3636 50.0416 47.3502C50.0092 47.3368 49.9744 47.3301 49.9392 47.3302H39.8194C39.7844 47.3301 39.7498 47.3368 39.7175 47.3499C39.6852 47.363 39.6559 47.3823 39.6314 47.4067C39.6069 47.431 39.5875 47.4599 39.5746 47.4917C39.5617 47.5234 39.5553 47.5574 39.556 47.5915V48.6715H41.9747C42.8822 48.6715 43.492 49.4328 43.492 50.1427V53.8335C43.492 53.9556 43.6016 54.091 43.7593 54.091H46.2129V49.0168C46.2129 48.8257 46.3723 48.6715 46.5689 48.6715ZM35.3822 53.8324C35.3822 53.9832 35.5223 54.0899 35.6489 54.0899H38.1009V47.5855C38.0988 47.517 38.0698 47.4521 38.0199 47.4041C37.97 47.3561 37.903 47.3288 37.833 47.328H35.6483C35.5785 47.3286 35.5117 47.3557 35.462 47.4037C35.4123 47.4516 35.3836 47.5167 35.3822 47.5849V53.8324ZM59.6448 54.0904H62.3443C62.2726 52.3386 60.3388 51.616 60.3388 51.616L60.3405 51.6155C61.5543 51.3442 62.3387 50.4918 62.3387 49.5057C62.3387 48.4583 61.2898 47.328 59.5957 47.328H53.067C52.2759 47.328 51.6554 47.9357 51.6554 48.7091V53.8313C51.6554 53.9794 51.7634 54.0899 51.9142 54.0899H54.3651V51.6923H56.6775C58.7361 51.6923 59.5815 53.1446 59.6448 54.0904ZM54.3634 50.4946V49.1444C54.3634 48.7754 54.6318 48.5174 55.0161 48.5174H58.6276C59.1752 48.5174 59.638 48.9671 59.638 49.4991C59.638 50.0477 59.1792 50.4946 58.6158 50.4946H54.3634ZM31.2575 49.5974H33.8994C33.3275 48.1832 31.67 47.1833 29.9199 47.18C28.9615 47.1778 27.2543 47.1242 26.1399 47.18C24.8374 47.2429 24.018 47.5341 23.2161 48.2163C22.4329 48.8848 22.0011 49.7654 22 50.7018C22 52.6347 23.7592 54.1523 26.0925 54.2313C27.6923 54.2871 27.8629 54.2893 29.96 54.2269C31.9034 54.17 33.2964 53.3109 33.8977 51.8105H31.2569C31.2105 51.8092 31.1646 51.8205 31.1244 51.8434C31.0843 51.8662 31.0515 51.8996 31.0298 51.9398C30.5517 52.7447 29.6526 53.227 28.6688 53.2424C28.3258 53.2474 27.8641 53.249 27.4419 53.2446C26.0699 53.2325 24.7108 52.2906 24.7108 50.6984C24.7108 49.1334 26.106 48.1799 27.4487 48.1799C27.8454 48.1637 28.2427 48.1637 28.6394 48.1799C29.6193 48.1799 30.5585 48.6876 31.0332 49.4731C31.0561 49.5113 31.0889 49.5428 31.1283 49.5646C31.1677 49.5864 31.2122 49.5978 31.2575 49.5974ZM86.3052 52.8756H79.9083C79.6924 52.8756 79.5421 52.7353 79.5421 52.5353V51.247H85.0868V50.0609H79.5409V48.8848C79.5409 48.8787 79.5387 48.5423 79.9529 48.5423H86.3052V47.5943C86.3052 47.317 86.0017 47.3291 85.9933 47.3291H77.0946C77.0669 47.3291 76.8239 47.3374 76.8239 47.5943V52.7148C76.8239 53.391 77.3568 54.0899 78.248 54.0899H86.0402C86.2425 54.0899 86.3058 53.9031 86.3058 53.8379L86.3052 52.8756ZM84.3138 44.8802C84.0538 44.7233 83.7396 44.6454 83.3723 44.6454C83.0061 44.6454 82.6795 44.7282 82.4309 44.8802C82.1817 45.031 81.9833 45.2348 81.6895 45.2348C81.3967 45.2348 81.2199 45.0315 80.9548 44.8802C80.6898 44.7288 80.3801 44.6454 80.0134 44.6454C79.6466 44.6454 79.3335 44.7233 79.0719 44.8802C78.8125 45.0343 78.6809 45.2227 78.6809 45.4414C78.6809 45.6619 78.8125 45.8491 79.0719 46.0049C79.3335 46.1607 79.6466 46.2375 80.0134 46.2375C80.379 46.2375 80.6994 46.1629 80.9345 46.0226C81.1696 45.8828 81.4244 45.653 81.6895 45.653C81.9556 45.653 82.1958 45.8591 82.4314 46.0049C82.6671 46.1513 83.0061 46.2375 83.3723 46.2375C83.7504 46.2375 84.068 46.1607 84.3217 46.0049C84.5777 45.8497 84.7043 45.6624 84.7043 45.4414C84.7037 45.2227 84.5743 45.0349 84.3138 44.8802Z" fill="#E40012"/>
<path d="M59.9959 12.2001C65.6712 12.2001 79.3727 23.7008 81.09 25.1614C81.2065 25.2603 81.3675 25.3879 81.6648 25.3548C82.0931 25.3067 82.105 24.667 82.105 24.667C82.105 24.667 82.2073 23.2058 82.2073 21.7346C82.2073 19.8812 80.7267 18.2598 80.7267 18.2598C80.7267 18.2598 65.3717 1.72644 59.9959 1.72644C54.6195 1.72644 39.2657 18.2603 39.2657 18.2603C39.2657 18.2603 37.7852 19.8818 37.7852 21.7352C37.7852 23.2063 37.8869 24.6675 37.8869 24.6675C37.8869 24.6675 37.8993 25.3072 38.3277 25.3553C38.6243 25.3885 38.786 25.2608 38.9024 25.162C40.6191 23.7008 54.32 12.2001 59.9959 12.2001Z" fill="black"/>
<path d="M59.9954 27.4139C65.6707 27.4139 79.3721 38.9146 81.0895 40.3752C81.2059 40.4746 81.3669 40.6017 81.6642 40.5686C82.0925 40.5211 82.1044 39.8808 82.1044 39.8808C82.1044 39.8808 82.2067 38.4196 82.2067 36.9484C82.2067 35.095 80.7261 33.4742 80.7261 33.4742C80.7261 33.4742 65.3717 16.9397 59.9959 16.9397C54.6195 16.9397 39.2657 33.4742 39.2657 33.4742C39.2657 33.4742 37.7852 35.095 37.7852 36.9484C37.7852 38.4196 37.8869 39.8808 37.8869 39.8808C37.8869 39.8808 37.8993 40.5211 38.3277 40.5686C38.6243 40.6023 38.786 40.4746 38.9024 40.3752C40.6186 38.914 54.3195 27.4139 59.9954 27.4139Z" fill="black"/>
<path d="M44.4173 15.76C41.3069 18.2636 38.9053 20.6159 38.0819 21.4435C38.0356 22.4522 38.1712 24.6343 38.1718 24.6487C38.1718 24.6487 38.1853 25.4376 38.7617 24.9326L39.3353 24.4338C45.5277 18.8967 51.8862 14.0491 56.9806 11.8929C57.3428 11.7399 57.9368 11.6371 57.6282 11.2559C57.4553 11.0427 56.8512 11.0173 56.4692 11.0388C51.1872 11.3355 44.6569 15.5904 44.4173 15.76Z" fill="url(#paint0_linear_655_4323)"/>
<path d="M75.5785 15.7608C78.6893 18.2645 81.091 20.6168 81.9144 21.4443C81.9607 22.4531 81.8257 24.6352 81.8251 24.6496C81.8251 24.6496 81.8115 25.4384 81.2346 24.9335L80.661 24.4347C74.4686 18.8976 68.1101 14.0499 63.0151 11.8938C62.6529 11.7407 62.059 11.638 62.3669 11.2568C62.5404 11.0436 63.1451 11.0182 63.5271 11.0397C68.8085 11.3364 75.3389 15.5912 75.5785 15.7608Z" fill="url(#paint1_linear_655_4323)"/>
<path d="M44.4173 30.9731C41.3069 33.4767 38.9053 35.8284 38.0819 36.6565C38.0356 37.6647 38.1712 39.8463 38.1718 39.8618C38.1718 39.8618 38.1853 40.6501 38.7617 40.1446L39.3353 39.6463C45.5277 34.1098 51.8862 29.2622 56.9806 27.106C57.3428 26.953 57.9368 26.8497 57.6282 26.469C57.4553 26.2564 56.8512 26.2304 56.4692 26.2519C51.1872 26.5486 44.6569 30.8035 44.4173 30.9731Z" fill="url(#paint2_linear_655_4323)"/>
<path d="M75.5785 30.9731C78.6893 33.4767 81.091 35.8284 81.9144 36.6565C81.9607 37.6647 81.8257 39.8463 81.8251 39.8618C81.8251 39.8618 81.8115 40.6501 81.2346 40.1446L80.661 39.6463C74.4686 34.1098 68.1101 29.2622 63.0151 27.106C62.6529 26.953 62.059 26.8497 62.3669 26.469C62.5404 26.2564 63.1451 26.2304 63.5271 26.2519C68.8085 26.5486 75.3389 30.8035 75.5785 30.9731Z" fill="url(#paint3_linear_655_4323)"/>
<path d="M80.5164 18.4445C80.3305 18.2434 65.1807 2.00122 59.9959 2.00122C54.8105 2.00122 39.6612 18.2434 39.4748 18.4445C39.4578 18.4628 38.2191 19.8422 38.0801 21.4448C38.9034 20.6173 41.3051 18.2655 44.4154 15.7613C44.4143 15.7619 45.3524 14.9923 46.7617 13.9543C49.8845 11.6551 55.3971 8.06146 59.9953 8.06146C64.5935 8.06146 70.1061 11.6556 73.2283 13.9543C74.0252 14.5378 74.8074 15.1403 75.574 15.7613C78.6849 18.265 81.0866 20.6173 81.91 21.4448C81.7715 19.8422 80.5334 18.4628 80.5164 18.4445Z" fill="url(#paint4_linear_655_4323)"/>
<path d="M80.5164 33.6563C80.3305 33.4557 65.1807 17.2135 59.9959 17.2135C54.8105 17.2135 39.6612 33.4557 39.4748 33.6563C39.4578 33.675 38.2191 35.0539 38.0801 36.6577C38.9034 35.8295 41.3051 33.4778 44.4154 30.9742C44.4143 30.9747 45.3524 30.2052 46.7617 29.1671C49.8845 26.8679 55.3971 23.2737 59.9953 23.2737C64.5935 23.2737 70.1061 26.8679 73.2283 29.1671C74.6377 30.2052 75.5763 30.9742 75.574 30.9742C78.6849 33.4778 81.0866 35.8295 81.91 36.6577C81.7715 35.0539 80.5334 33.675 80.5164 33.6563Z" fill="url(#paint5_linear_655_4323)"/>
<path d="M80.7509 19.4741C72.2512 9.94182 62.9734 2.61649 60.3191 2.48446C59.9388 2.46568 59.9297 2.8336 59.9297 2.8336C59.9258 5.96648 60.1185 6.51891 62.3246 7.35917C62.6275 7.47463 70.895 9.89983 80.7453 19.736L80.8871 19.8763L80.7509 19.4741Z" fill="url(#paint6_linear_655_4323)"/>
<path d="M80.7509 34.6879C72.2512 25.1551 62.9734 17.8297 60.3191 17.6977C59.9388 17.6789 59.9297 18.0469 59.9297 18.0469C59.9258 21.1792 60.1185 21.7322 62.3246 22.5719C62.6275 22.6873 70.895 25.1125 80.7453 34.9492L80.8871 35.0896L80.7509 34.6879Z" fill="url(#paint7_linear_655_4323)"/>
<defs>
<linearGradient id="paint0_linear_655_4323" x1="38.0717" y1="18.0664" x2="81.7812" y2="18.0664" gradientUnits="userSpaceOnUse">
<stop stop-color="#C2C2C4"/>
<stop offset="0.121" stop-color="#BABABB"/>
<stop offset="0.317" stop-color="#A2A2A4"/>
<stop offset="0.5" stop-color="#868689"/>
<stop offset="0.545" stop-color="#919193"/>
<stop offset="0.748" stop-color="#BCBCBE"/>
<stop offset="0.907" stop-color="#D7D7D8"/>
<stop offset="1" stop-color="#E1E1E1"/>
</linearGradient>
<linearGradient id="paint1_linear_655_4323" x1="38.054" y1="18.0673" x2="81.7646" y2="18.0673" gradientUnits="userSpaceOnUse">
<stop stop-color="#C2C2C4"/>
<stop offset="0.121" stop-color="#BABABB"/>
<stop offset="0.317" stop-color="#A2A2A4"/>
<stop offset="0.5" stop-color="#868689"/>
<stop offset="0.545" stop-color="#919193"/>
<stop offset="0.748" stop-color="#BCBCBE"/>
<stop offset="0.907" stop-color="#D7D7D8"/>
<stop offset="1" stop-color="#E1E1E1"/>
</linearGradient>
<linearGradient id="paint2_linear_655_4323" x1="38.0717" y1="33.2795" x2="81.7812" y2="33.2795" gradientUnits="userSpaceOnUse">
<stop stop-color="#C2C2C4"/>
<stop offset="0.121" stop-color="#BABABB"/>
<stop offset="0.317" stop-color="#A2A2A4"/>
<stop offset="0.5" stop-color="#868689"/>
<stop offset="0.545" stop-color="#919193"/>
<stop offset="0.748" stop-color="#BCBCBE"/>
<stop offset="0.907" stop-color="#D7D7D8"/>
<stop offset="1" stop-color="#E1E1E1"/>
</linearGradient>
<linearGradient id="paint3_linear_655_4323" x1="38.054" y1="33.2795" x2="81.7646" y2="33.2795" gradientUnits="userSpaceOnUse">
<stop stop-color="#C2C2C4"/>
<stop offset="0.121" stop-color="#BABABB"/>
<stop offset="0.317" stop-color="#A2A2A4"/>
<stop offset="0.5" stop-color="#868689"/>
<stop offset="0.545" stop-color="#919193"/>
<stop offset="0.748" stop-color="#BCBCBE"/>
<stop offset="0.907" stop-color="#D7D7D8"/>
<stop offset="1" stop-color="#E1E1E1"/>
</linearGradient>
<linearGradient id="paint4_linear_655_4323" x1="38.0801" y1="11.7236" x2="81.6579" y2="11.7236" gradientUnits="userSpaceOnUse">
<stop stop-color="#868689"/>
<stop offset="0.023" stop-color="#909093"/>
<stop offset="0.125" stop-color="#B8B8B9"/>
<stop offset="0.226" stop-color="#D7D7D8"/>
<stop offset="0.323" stop-color="#EDEDEE"/>
<stop offset="0.416" stop-color="#FAFAFB"/>
<stop offset="0.5" stop-color="white"/>
<stop offset="0.58" stop-color="#FAFAFA"/>
<stop offset="0.675" stop-color="#EBEBEC"/>
<stop offset="0.777" stop-color="#D3D3D5"/>
<stop offset="0.886" stop-color="#B2B2B4"/>
<stop offset="0.997" stop-color="#87878A"/>
<stop offset="1" stop-color="#868689"/>
</linearGradient>
<linearGradient id="paint5_linear_655_4323" x1="38.0801" y1="26.9353" x2="81.6579" y2="26.9353" gradientUnits="userSpaceOnUse">
<stop stop-color="#868689"/>
<stop offset="0.023" stop-color="#909093"/>
<stop offset="0.125" stop-color="#B8B8B9"/>
<stop offset="0.226" stop-color="#D7D7D8"/>
<stop offset="0.323" stop-color="#EDEDEE"/>
<stop offset="0.416" stop-color="#FAFAFB"/>
<stop offset="0.5" stop-color="white"/>
<stop offset="0.58" stop-color="#FAFAFA"/>
<stop offset="0.675" stop-color="#EBEBEC"/>
<stop offset="0.777" stop-color="#D3D3D5"/>
<stop offset="0.886" stop-color="#B2B2B4"/>
<stop offset="0.997" stop-color="#87878A"/>
<stop offset="1" stop-color="#868689"/>
</linearGradient>
<linearGradient id="paint6_linear_655_4323" x1="60.0965" y1="11.3875" x2="80.7031" y2="10.9604" gradientUnits="userSpaceOnUse">
<stop stop-color="#F3F3F3"/>
<stop offset="0.039" stop-color="#DBDBDC"/>
<stop offset="0.11" stop-color="#B7B7B8"/>
<stop offset="0.176" stop-color="#9C9C9E"/>
<stop offset="0.235" stop-color="#8C8C8F"/>
<stop offset="0.281" stop-color="#868689"/>
<stop offset="0.401" stop-color="#8E8E91"/>
<stop offset="0.585" stop-color="#A4A4A6"/>
<stop offset="0.59" stop-color="#A4A4A6"/>
<stop offset="1" stop-color="#868689"/>
</linearGradient>
<linearGradient id="paint7_linear_655_4323" x1="60.0959" y1="26.6008" x2="80.7031" y2="26.1742" gradientUnits="userSpaceOnUse">
<stop stop-color="#F3F3F3"/>
<stop offset="0.039" stop-color="#DBDBDC"/>
<stop offset="0.11" stop-color="#B7B7B8"/>
<stop offset="0.176" stop-color="#9C9C9E"/>
<stop offset="0.235" stop-color="#8C8C8F"/>
<stop offset="0.281" stop-color="#868689"/>
<stop offset="0.401" stop-color="#8E8E91"/>
<stop offset="0.585" stop-color="#A4A4A6"/>
<stop offset="0.59" stop-color="#A4A4A6"/>
<stop offset="1" stop-color="#868689"/>
</linearGradient>
</defs>
</svg>
