<svg width="122" height="56" viewBox="0 0 122 56" fill="none" xmlns="http://www.w3.org/2000/svg">
<path d="M29.3633 41.3894C40.4154 41.3894 49.375 35.6186 49.375 28.4999C49.375 21.3812 40.4154 15.6104 29.3633 15.6104C18.3111 15.6104 9.35156 21.3812 9.35156 28.4999C9.35156 35.6186 18.3111 41.3894 29.3633 41.3894Z" fill="#404456"/>
<path d="M29.3633 41.3894C40.4154 41.3894 49.375 35.6186 49.375 28.4999C49.375 21.3812 40.4154 15.6104 29.3633 15.6104C18.3111 15.6104 9.35156 21.3812 9.35156 28.4999C9.35156 35.6186 18.3111 41.3894 29.3633 41.3894Z" stroke="#DEDDDB" stroke-width="0.605165"/>
<path d="M26.2857 31.6223L24.0149 32.6545L17.7701 32.6803L18.6733 34.6415C18.6733 34.6415 18.9572 35.1834 19.6022 35.1319H24.0149L26.2599 34.1254L26.2857 31.6223ZM31.7564 35.5544C31.021 35.4189 31.079 34.7221 31.079 34.7221V20.4972L29.1242 20.4777L26.3179 21.7745V23.1873C27.5759 22.5292 27.6146 23.6324 27.6146 23.6324L27.692 34.8188C27.692 35.5543 27.0534 35.5736 27.0534 35.5736L26.1825 35.5543L26.1631 36.7155H32.5692L32.5499 35.593L31.7564 35.5544ZM26.2599 28.077H15.7831L16.6605 30.2546C16.9959 30.7966 17.3314 30.719 17.3314 30.719H26.2599V28.077ZM16.0154 27.158H26.3373V24.5159H14.4671L15.3444 26.6936C15.6799 27.2354 16.0154 27.158 16.0154 27.158ZM34.8723 24.6292V24.2227L32.4143 24.2033V27.2225L42.4396 27.1645C43.3492 27.1065 43.3879 26.7 43.3879 26.7L44.2588 24.6678L34.8723 24.6292ZM34.6788 31.6739L32.4143 31.7126V34.0544L34.6401 34.035L36.0916 35.1382L39.343 35.1574C40.059 35.0607 40.0784 34.6155 40.0784 34.6155L40.9687 32.7383H36.1303L34.6788 31.6739ZM32.4337 30.6482L41.1622 30.6288C41.6654 30.6482 41.9365 30.2031 41.9365 30.2031L42.9041 28.1709L32.4144 28.1322L32.4337 30.6482ZM29.3629 17.2361C19.23 17.2361 11.0156 22.2791 11.0156 28.4999C11.0156 34.7207 19.23 39.7637 29.3629 39.7637C39.4959 39.7637 47.7102 34.7207 47.7102 28.4999C47.7102 22.2791 39.4958 17.2361 29.3629 17.2361ZM29.3629 38.4477C20.1643 38.4477 12.7072 33.9939 12.7072 28.4999C12.7072 23.006 20.1643 18.5522 29.3629 18.5522C38.5617 18.5522 46.0187 23.006 46.0187 28.4999C46.0187 33.9939 38.5617 38.4477 29.3629 38.4477Z" fill="url(#paint0_radial_596_6918)"/>
<path d="M70.275 26.34L59.4882 26.1991V23.0971L71.6146 22.9561L73.1657 19.4309H55.1875V37.4089L59.5587 37.3384V29.6536H68.9354L70.275 26.34ZM108.229 19.3604L103.717 30.7349L100.944 19.4073L96.9014 19.3604L94.1752 30.6877L89.475 19.3604H85.151L93.0001 37.3149H96.9012L98.9221 28.0557L101.084 37.3149L104.985 37.2212L112.647 19.4546L108.229 19.3604ZM76.5027 19.4073L68.7944 37.3621H73.1185L74.9048 33.1789H83.5529L85.1981 37.409L89.8513 37.268L82.0961 19.4073H76.5027ZM76.3617 30.0767L79.2289 23.3554L82.19 30.1235L76.3617 30.0767Z" fill="#343539"/>
<defs>
<radialGradient id="paint0_radial_596_6918" cx="0" cy="0" r="1" gradientUnits="userSpaceOnUse" gradientTransform="translate(29.3629 28.4999) scale(15.2233 15.2233)">
<stop offset="0.1455" stop-color="#FCFCFC"/>
<stop offset="0.5322" stop-color="#EFEFEF"/>
<stop offset="1" stop-color="#D9D9D9"/>
</radialGradient>
</defs>
</svg>
