<svg width="122" height="56" viewBox="0 0 122 56" fill="none" xmlns="http://www.w3.org/2000/svg">
<path d="M29.3633 41.3895C40.4154 41.3895 49.375 35.6187 49.375 28.5C49.375 21.3813 40.4154 15.6105 29.3633 15.6105C18.3111 15.6105 9.35156 21.3813 9.35156 28.5C9.35156 35.6187 18.3111 41.3895 29.3633 41.3895Z" fill="url(#paint0_radial_655_3794)"/>
<path d="M29.3633 41.3895C40.4154 41.3895 49.375 35.6187 49.375 28.5C49.375 21.3813 40.4154 15.6105 29.3633 15.6105C18.3111 15.6105 9.35156 21.3813 9.35156 28.5C9.35156 35.6187 18.3111 41.3895 29.3633 41.3895Z" stroke="#DEDDDB" stroke-width="0.605165"/>
<path d="M26.2857 31.6225L24.0149 32.6546L17.7701 32.6804L18.6733 34.6416C18.6733 34.6416 18.9572 35.1835 19.6022 35.132H24.0149L26.2599 34.1256L26.2857 31.6225ZM31.7564 35.5545C31.021 35.419 31.079 34.7222 31.079 34.7222V20.4973L29.1242 20.4779L26.3179 21.7746V23.1874C27.5759 22.5293 27.6146 23.6326 27.6146 23.6326L27.692 34.8189C27.692 35.5544 27.0534 35.5737 27.0534 35.5737L26.1825 35.5544L26.1631 36.7156H32.5692L32.5499 35.5932L31.7564 35.5545ZM26.2599 28.0771H15.7831L16.6605 30.2547C16.9959 30.7967 17.3314 30.7192 17.3314 30.7192H26.2599V28.0771ZM16.0154 27.1582H26.3373V24.516H14.4671L15.3444 26.6937C15.6799 27.2355 16.0154 27.1582 16.0154 27.1582ZM34.8723 24.6293V24.2229L32.4143 24.2035V27.2226L42.4396 27.1646C43.3492 27.1066 43.3879 26.7001 43.3879 26.7001L44.2588 24.668L34.8723 24.6293ZM34.6788 31.674L32.4143 31.7127V34.0545L34.6401 34.0352L36.0916 35.1383L39.343 35.1575C40.059 35.0608 40.0784 34.6156 40.0784 34.6156L40.9687 32.7384H36.1303L34.6788 31.674ZM32.4337 30.6483L41.1622 30.6289C41.6654 30.6483 41.9365 30.2032 41.9365 30.2032L42.9041 28.171L32.4144 28.1324L32.4337 30.6483ZM29.3629 17.2362C19.23 17.2362 11.0156 22.2792 11.0156 28.5C11.0156 34.7208 19.23 39.7638 29.3629 39.7638C39.4959 39.7638 47.7102 34.7208 47.7102 28.5C47.7102 22.2792 39.4958 17.2362 29.3629 17.2362ZM29.3629 38.4478C20.1643 38.4478 12.7072 33.994 12.7072 28.5C12.7072 23.0061 20.1643 18.5523 29.3629 18.5523C38.5617 18.5523 46.0187 23.0061 46.0187 28.5C46.0187 33.994 38.5617 38.4478 29.3629 38.4478Z" fill="url(#paint1_radial_655_3794)"/>
<path d="M70.277 26.3401L59.4902 26.1992V23.0972L71.6166 22.9562L73.1677 19.4311H55.1895V37.409L59.5606 37.3385V29.6537H68.9374L70.277 26.3401ZM108.231 19.3605L103.719 30.7351L100.946 19.4074L96.9033 19.3605L94.1772 30.6878L89.477 19.3605H85.1529L93.0021 37.3151H96.9032L98.924 28.0558L101.086 37.3151L104.987 37.2213L112.649 19.4547L108.231 19.3605ZM76.5046 19.4074L68.7964 37.3622H73.1204L74.9067 33.179H83.5549L85.2 37.4091L89.8533 37.2681L82.098 19.4074H76.5046ZM76.3636 30.0768L79.2308 23.3555L82.1919 30.1237L76.3636 30.0768Z" fill="#264296"/>
<defs>
<radialGradient id="paint0_radial_655_3794" cx="0" cy="0" r="1" gradientUnits="userSpaceOnUse" gradientTransform="translate(23.2344 23.6229) scale(20.1898)">
<stop stop-color="white"/>
<stop offset="0.0465" stop-color="#E9EDF5"/>
<stop offset="0.1969" stop-color="#A7B6D8"/>
<stop offset="0.3332" stop-color="#728BC1"/>
<stop offset="0.4509" stop-color="#4D6CB1"/>
<stop offset="0.5452" stop-color="#3559A7"/>
<stop offset="0.6044" stop-color="#2D52A3"/>
<stop offset="0.9341" stop-color="#1F3A86"/>
</radialGradient>
<radialGradient id="paint1_radial_655_3794" cx="0" cy="0" r="1" gradientUnits="userSpaceOnUse" gradientTransform="translate(29.3629 28.5) scale(15.2233 15.2233)">
<stop offset="0.1455" stop-color="#FCFCFC"/>
<stop offset="0.5322" stop-color="#EFEFEF"/>
<stop offset="1" stop-color="#D9D9D9"/>
</radialGradient>
</defs>
</svg>
