<svg width="120" height="56" viewBox="0 0 120 56" fill="none" xmlns="http://www.w3.org/2000/svg">
<path d="M59.9043 11C34.3249 11 13.8203 18.4868 13.8203 27.8735C13.8203 37.2031 34.4939 44.7477 59.9043 44.7477C85.3154 44.7477 105.989 37.1778 105.989 27.8735C105.989 18.5693 85.3154 11 59.9043 11Z" fill="#2B2C30"/>
<path d="M78.0613 31.4487C78.0737 31.526 78.1775 31.6 78.2781 31.635C78.3152 31.6471 78.3333 31.6713 78.2946 31.7534C78.0077 32.354 77.7438 32.7002 77.3842 33.2221C77.0531 33.7042 76.6804 34.0805 76.2292 34.4423C75.5485 34.9923 74.6032 35.591 73.8217 35.1885C73.4747 35.0126 73.3245 34.5382 73.3312 34.1542C73.3477 33.0743 73.8397 31.9655 74.7482 30.8759C75.8558 29.5444 77.0801 28.8538 77.8837 29.2313C78.7151 29.6185 78.4498 30.5584 78.0774 31.2962C78.0486 31.3534 78.0489 31.402 78.0613 31.4487ZM86.9826 23.0338C87.0424 22.9307 86.9795 22.8555 86.8462 22.8555C86.1518 22.8555 85.2407 22.857 84.5171 22.857C84.3448 22.857 84.2558 22.8771 84.1746 23.0341C83.9075 23.5337 80.6528 28.2967 80.047 29.2216C79.9448 29.3625 79.8203 29.3427 79.8059 29.1813C79.7445 28.632 79.2586 28.0004 78.4932 27.6983C77.9098 27.4672 77.3395 27.4254 76.7465 27.5023C75.6761 27.6427 74.7224 28.1941 73.884 28.816C72.6203 29.754 71.53 30.9699 70.1225 31.8683C69.3542 32.3573 68.302 32.7839 67.598 32.1472C66.9608 31.5704 67.0328 30.2892 68.0077 29.2983C68.1103 29.1945 68.2336 29.2822 68.2142 29.3744C68.1223 29.8225 68.2348 30.2681 68.5836 30.5806C69.0088 30.9529 69.6175 30.9949 70.1385 30.7464C70.7532 30.449 71.1145 29.8746 71.2198 29.2227C71.3826 28.2116 70.5855 27.3197 69.5881 27.2482C68.7778 27.1926 68.0008 27.4679 67.2436 28.0781C66.864 28.3856 66.6484 28.6128 66.3201 29.0687C66.2401 29.181 66.1173 29.1923 66.121 29.0264C66.1581 27.7318 65.6102 27.0034 64.5142 26.9797C63.6633 26.9596 62.7544 27.4106 62.0459 27.9621C61.2693 28.5712 60.5902 29.3783 59.8621 30.1367C59.7714 30.2301 59.6927 30.2256 59.6672 30.0445C59.6466 29.1867 59.4244 28.3559 59.0178 27.7659C58.874 27.5606 58.5711 27.4591 58.3167 27.5976C58.1992 27.6604 57.7906 27.8439 57.493 28.0779C57.3454 28.1966 57.2877 28.3685 57.3533 28.5888C57.7457 29.8703 57.6595 31.3274 57.127 32.558C56.638 33.6851 55.6878 34.7016 54.571 35.0457C53.8353 35.2735 53.0705 35.162 52.5972 34.5251C51.9472 33.6461 52.2097 32.1174 53.1786 30.848C54.0337 29.7303 55.2706 29.0203 56.5042 28.5632C56.6493 28.5084 56.6794 28.4174 56.6382 28.2971C56.5714 28.0991 56.4642 27.8293 56.421 27.7062C56.3076 27.412 55.9909 27.3645 55.604 27.4055C54.7076 27.5074 53.8989 27.8072 53.1002 28.2249C51.0085 29.3186 49.9599 31.4354 49.5003 32.5678C49.279 33.1118 49.0898 33.4512 48.8452 33.7521C48.5155 34.1568 48.1015 34.5252 47.3447 35.1742C47.2762 35.2338 47.2251 35.3578 47.2828 35.4733C47.3599 35.6295 47.7536 36.1723 47.8646 36.2208C47.9879 36.2799 48.1309 36.1966 48.1882 36.1572C48.7178 35.8066 49.3515 35.251 49.6615 34.8741C49.7704 34.7449 49.8821 34.7992 49.9398 34.9952C50.2292 36.0033 50.9869 36.8264 52.0346 37.1708C53.9525 37.8023 55.9417 36.8882 57.4432 35.2968C58.3975 34.2853 58.7418 33.6347 59.1076 33.1925C59.7275 32.4426 60.9502 30.7648 62.4066 29.6877C62.9407 29.2904 63.5727 28.9874 63.8905 29.1887C64.1457 29.3501 64.2281 29.7252 63.8188 30.452C62.3339 33.0997 60.1492 36.2105 59.7485 36.9648C59.6752 37.0957 59.7403 37.1987 59.8796 37.1987C60.6566 37.195 61.4269 37.1968 62.1322 37.1968C62.2497 37.1928 62.302 37.1389 62.361 37.0579C63.5005 35.3162 64.5729 33.6584 65.7224 31.9444C65.7867 31.8434 65.8461 31.9203 65.8485 31.9646C65.8733 32.3623 65.9722 32.9061 66.2142 33.2633C66.6487 33.9236 67.2644 34.2073 67.9473 34.2116C68.4907 34.2197 68.7656 34.1372 69.3516 33.9234C69.8284 33.7508 70.2111 33.5241 70.5049 33.3191C70.6764 33.2023 70.7065 33.3976 70.7023 33.4273C70.4385 34.8101 70.7642 36.4485 72.1715 37.1278C73.8558 37.9387 75.7061 36.7989 76.7708 35.77C76.8751 35.671 76.9868 35.6815 76.9975 35.8952C77.0222 36.2881 77.202 36.7542 77.5348 37.0804C78.427 37.9548 80.2274 37.6083 82.0342 36.2427C83.1943 35.3684 84.408 34.1331 85.5044 32.8251C85.5457 32.7743 85.5753 32.693 85.4962 32.6105C85.3293 32.4399 85.0877 32.2446 84.9221 32.0943C84.8467 32.0315 84.7358 32.0496 84.6723 32.0965C83.5484 33.1402 82.5368 34.3305 81.0747 35.3148C80.5815 35.6508 79.7956 35.9219 79.4426 35.4552C79.3049 35.2741 79.3206 35.0237 79.455 34.6949C79.8812 33.6568 86.6322 23.6256 86.9826 23.0338Z" fill="white"/>
<path d="M55.2253 24.2441C55.2542 24.393 55.3136 24.422 55.3828 24.4095C55.7266 24.3423 56.1028 24.0662 56.3256 23.7461C56.5284 23.4559 56.6236 23.0371 56.422 22.8693C56.2423 22.7184 55.9497 22.761 55.7327 22.9482C55.3007 23.3209 55.1697 23.8494 55.2253 24.2441ZM38.0228 37.1606C35.5062 37.1767 33.2891 35.6592 33.0347 33.0302C32.8933 31.5734 33.315 30.2751 34.1593 29.2054C34.9084 28.2523 36.176 27.4605 37.249 27.267C37.5981 27.2047 38.0673 27.2429 38.2612 27.4699C38.5654 27.8157 38.478 28.1955 38.1738 28.347C37.3552 28.7551 36.3702 29.4538 35.8828 30.4079C35.4875 31.1866 35.4076 32.125 36.0114 33.019C37.022 34.5089 39.8391 34.5499 42.4584 32.1737C43.1071 31.5922 43.6876 31.0335 44.2777 30.3716C45.4314 29.0836 45.8151 28.6142 47.3486 26.5371C47.3651 26.513 47.3733 26.4816 47.3651 26.4663C47.3527 26.4381 47.3321 26.4341 47.2863 26.4301C46.2626 26.4582 45.3701 26.7557 44.5025 27.3888C44.2527 27.5667 43.8932 27.5417 43.7358 27.3075C43.5606 27.0426 43.6863 26.6978 43.9744 26.5031C45.37 25.5554 46.8946 25.3835 48.4515 25.1269C48.4502 25.1269 48.5595 25.131 48.6485 25.0166C49.2876 24.2157 49.7702 23.4933 50.4515 22.6833C51.1379 21.8615 52.0247 21.1068 52.7021 20.54C53.6478 19.746 54.2542 19.4788 54.8706 19.1513C55.033 19.0684 54.8499 18.9694 54.8005 18.9694C51.3594 18.3378 47.7826 17.5206 44.3651 18.756C41.9983 19.6185 40.9611 21.4512 41.46 22.6758C41.8149 23.5445 42.9849 23.6858 44.0803 23.1624C44.9901 22.7271 45.8321 22.0256 46.4289 21.1225C46.7628 20.6209 47.4664 20.9828 47.0862 21.8537C46.0862 24.1489 44.1757 25.9694 41.8485 26.0463C39.868 26.1091 38.5901 24.6863 38.5943 22.9311C38.6025 19.4691 42.5494 17.1886 46.6974 16.8477C51.6928 16.4446 56.4242 17.7439 61.3841 18.3313C65.1843 18.7807 68.8277 18.7901 72.6474 17.9333C73.0989 17.8375 73.4157 18.1188 73.3863 18.5642C73.3492 19.2079 72.8384 19.8278 71.5804 20.4978C70.1497 21.264 68.6529 21.4965 67.0897 21.509C63.3096 21.5412 59.7886 20.101 56.1449 19.3279C56.149 19.4837 56.191 19.6692 56.0575 19.7675C54.0392 21.2212 52.2148 22.6974 50.9929 24.7708C50.9517 24.8187 50.9723 24.8641 51.0453 24.8593C52.1062 24.8042 53.0601 24.7776 54.0505 24.7003C54.2237 24.6842 54.2303 24.644 54.215 24.5208C54.1272 23.8061 54.3412 22.9912 54.9849 22.4306C55.6439 21.8537 56.4689 21.7881 57.0158 22.2036C57.6376 22.6767 57.5825 23.5276 57.2425 24.1657C56.8962 24.8131 56.3244 25.1594 55.7756 25.3275C55.7756 25.3275 55.6601 25.3517 55.6775 25.4539C55.6981 25.6173 56.4468 26.022 56.5108 26.1298C56.5726 26.2324 56.5396 26.3914 56.4271 26.5134C56.348 26.6019 56.2239 26.6849 56.0652 26.682C55.937 26.6795 55.8591 26.6362 55.695 26.5496C55.3595 26.3721 54.9401 26.0803 54.6604 25.7362C54.5652 25.6199 54.5165 25.6175 54.2787 25.6304C53.207 25.6907 51.5359 25.8485 50.4036 25.9866C50.1291 26.0188 50.0887 26.0699 50.0322 26.1629C48.2271 29.0696 46.2996 32.2042 44.1834 34.3028C41.9135 36.553 40.0258 37.1453 38.0228 37.1606Z" fill="white"/>
<path d="M59.902 13.7594C36.3697 13.7594 17.2949 20.1091 17.2949 27.879C17.2949 35.6496 36.3697 41.9999 59.902 41.9999C83.4339 41.9999 102.507 35.6496 102.507 27.879C102.507 20.1091 83.4339 13.7594 59.902 13.7594ZM59.902 43.2795C35.513 43.2795 15.7422 36.3845 15.7422 27.879C15.7422 19.3722 35.513 12.4785 59.902 12.4785C84.2887 12.4785 104.058 19.3722 104.058 27.879C104.058 36.3845 84.2887 43.2795 59.902 43.2795Z" fill="white"/>
</svg>
