<svg width="120" height="56" viewBox="0 0 120 56" fill="none" xmlns="http://www.w3.org/2000/svg">
<path d="M60 11.1261C34.4206 11.1261 13.916 18.6129 13.916 27.9996C13.916 37.3292 34.5896 44.8738 60 44.8738C85.4111 44.8738 106.085 37.3039 106.085 27.9996C106.085 18.6954 85.4111 11.1261 60 11.1261Z" fill="#003478"/>
<path d="M78.155 31.5748C78.1674 31.6521 78.2713 31.7261 78.3719 31.7611C78.409 31.7732 78.4271 31.7974 78.3884 31.8795C78.1015 32.4801 77.8376 32.8263 77.4779 33.3482C77.1469 33.8303 76.7742 34.2066 76.323 34.5684C75.6423 35.1184 74.697 35.7171 73.9155 35.3146C73.5684 35.1387 73.4182 34.6643 73.4249 34.2803C73.4414 33.2004 73.9334 32.0916 74.8419 31.002C75.9495 29.6705 77.1739 28.9799 77.9775 29.3574C78.8088 29.7446 78.5435 30.6845 78.1712 31.4223C78.1423 31.4795 78.1427 31.5281 78.155 31.5748ZM87.0764 23.1599C87.1361 23.0568 87.0732 22.9816 86.9399 22.9816C86.2455 22.9816 85.3344 22.9831 84.6109 22.9831C84.4386 22.9831 84.3495 23.0032 84.2683 23.1602C84.0012 23.6598 80.7466 28.4228 80.1408 29.3477C80.0386 29.4886 79.9141 29.4688 79.8996 29.3074C79.8382 28.7581 79.3524 28.1265 78.5869 27.8244C78.0036 27.5933 77.4333 27.5515 76.8403 27.6284C75.7698 27.7688 74.8162 28.3202 73.9777 28.9421C72.714 29.8801 71.6237 31.096 70.2163 31.9944C69.448 32.4834 68.3958 32.91 67.6917 32.2733C67.0546 31.6965 67.1266 30.4153 68.1014 29.4244C68.2041 29.3206 68.3273 29.4083 68.308 29.5005C68.216 29.9486 68.3286 30.3942 68.6773 30.7067C69.1026 31.079 69.7112 31.121 70.2322 30.8725C70.847 30.5751 71.2083 30.0007 71.3135 29.3488C71.4764 28.3377 70.6793 27.4458 69.6818 27.3742C68.8715 27.3187 68.0945 27.594 67.3374 28.2042C66.9577 28.5117 66.7421 28.7389 66.4138 29.1948C66.3338 29.3071 66.211 29.3184 66.2147 29.1525C66.2518 27.8579 65.704 27.1295 64.6079 27.1058C63.757 27.0856 62.8482 27.5367 62.1396 28.0882C61.363 28.6973 60.6839 29.5044 59.9559 30.2628C59.8652 30.3562 59.7865 30.3517 59.7609 30.1706C59.7403 29.3128 59.5181 28.482 59.1116 27.892C58.9677 27.6867 58.6649 27.5852 58.4105 27.7237C58.293 27.7865 57.8844 27.97 57.5867 28.204C57.4392 28.3227 57.3815 28.4946 57.447 28.7149C57.8394 29.9964 57.7533 31.4535 57.2207 32.6841C56.7317 33.8112 55.7816 34.8277 54.6648 35.1718C53.929 35.3996 53.1642 35.2881 52.6909 34.6512C52.041 33.7722 52.3035 32.2435 53.2724 30.9741C54.1274 29.8564 55.3643 29.1464 56.598 28.6893C56.7431 28.6345 56.7732 28.5435 56.732 28.4232C56.6652 28.2252 56.558 27.9554 56.5147 27.8323C56.4014 27.5381 56.0846 27.4906 55.6977 27.5316C54.8013 27.6335 53.9926 27.9333 53.1939 28.351C51.1023 29.4447 50.0536 31.5615 49.5941 32.6939C49.3727 33.2379 49.1835 33.5773 48.939 33.8782C48.6092 34.2829 48.1953 34.6513 47.4384 35.3003C47.37 35.3599 47.3189 35.4839 47.3766 35.5994C47.4537 35.7556 47.8473 36.2984 47.9584 36.3469C48.0816 36.406 48.2247 36.3227 48.282 36.2833C48.8116 35.9327 49.4452 35.3771 49.7553 35.0002C49.8641 34.871 49.9758 34.9253 50.0335 35.1213C50.3229 36.1294 51.0806 36.9525 52.1284 37.2969C54.0462 37.9284 56.0354 37.0143 57.537 35.4229C58.4912 34.4114 58.8355 33.7608 59.2013 33.3186C59.8212 32.5687 61.044 30.8909 62.5004 29.8138C63.0345 29.4165 63.6665 29.1135 63.9843 29.3148C64.2394 29.4762 64.3219 29.8513 63.9126 30.5781C62.4277 33.2258 60.2429 36.3366 59.8423 37.0909C59.7689 37.2218 59.834 37.3248 59.9734 37.3248C60.7504 37.3211 61.5206 37.3229 62.226 37.3229C62.3434 37.3189 62.3958 37.2649 62.4547 37.184C63.5943 35.4423 64.6667 33.7845 65.8161 32.0705C65.8805 31.9695 65.9398 32.0464 65.9423 32.0907C65.967 32.4884 66.0659 33.0322 66.3079 33.3894C66.7425 34.0497 67.3582 34.3334 68.0411 34.3377C68.5845 34.3458 68.8594 34.2633 69.4453 34.0495C69.9221 33.8769 70.3049 33.6502 70.5987 33.4452C70.7701 33.3284 70.8002 33.5237 70.7961 33.5534C70.5323 34.9362 70.8579 36.5746 72.2653 37.2539C73.9495 38.0648 75.7998 36.925 76.8645 35.8961C76.9688 35.7971 77.0805 35.8076 77.0912 36.0213C77.116 36.4142 77.2957 36.8803 77.6285 37.2065C78.5208 38.0809 80.3212 37.7344 82.128 36.3688C83.288 35.4945 84.5018 34.2592 85.5982 32.9512C85.6394 32.9004 85.6691 32.8191 85.5899 32.7366C85.423 32.566 85.1815 32.3707 85.0159 32.2204C84.9404 32.1576 84.8295 32.1757 84.7661 32.2226C83.6422 33.2663 82.6306 34.4565 81.1685 35.4408C80.6753 35.7769 79.8893 36.048 79.5364 35.5813C79.3987 35.4002 79.4143 35.1498 79.5487 34.821C79.975 33.7829 86.726 23.7517 87.0764 23.1599Z" fill="white"/>
<path d="M55.3191 24.3702C55.348 24.5191 55.4073 24.5481 55.4766 24.5356C55.8203 24.4684 56.1966 24.1923 56.4193 23.8722C56.6221 23.582 56.7174 23.1632 56.5158 22.9954C56.3361 22.8445 56.0434 22.8871 55.8265 23.0743C55.3944 23.447 55.2634 23.9755 55.3191 24.3702ZM38.1165 37.2867C35.6 37.3028 33.3829 35.7853 33.1285 33.1563C32.9871 31.6995 33.4088 30.4012 34.253 29.3315C35.0022 28.3784 36.2698 27.5866 37.3427 27.3931C37.6919 27.3308 38.161 27.369 38.355 27.596C38.6592 27.9418 38.5718 28.3216 38.2676 28.4731C37.449 28.8812 36.464 29.5799 35.9766 30.534C35.5812 31.3127 35.5014 32.2511 36.1052 33.1451C37.1158 34.635 39.9329 34.676 42.5522 32.2998C43.2009 31.7183 43.7814 31.1596 44.3715 30.4977C45.5251 29.2097 45.9088 28.7403 47.4423 26.6632C47.4588 26.6391 47.4671 26.6077 47.4588 26.5924C47.4465 26.5642 47.4259 26.5602 47.3801 26.5562C46.3564 26.5843 45.4638 26.8818 44.5963 27.5149C44.3465 27.6928 43.987 27.6678 43.8295 27.4336C43.6543 27.1687 43.7801 26.8239 44.0682 26.6292C45.4638 25.6815 46.9883 25.5096 48.5452 25.253C48.5439 25.253 48.6532 25.2571 48.7422 25.1427C49.3813 24.3418 49.8639 23.6194 50.5452 22.8094C51.2317 21.9876 52.1184 21.2329 52.7959 20.6661C53.7415 19.8721 54.348 19.6049 54.9643 19.2774C55.1267 19.1945 54.9437 19.0955 54.8942 19.0955C51.4531 18.4639 47.8763 17.6467 44.4588 18.8821C42.092 19.7446 41.0549 21.5773 41.5538 22.8019C41.9087 23.6706 43.0786 23.8119 44.1741 23.2885C45.0838 22.8532 45.9258 22.1517 46.5227 21.2486C46.8565 20.747 47.5601 21.1089 47.18 21.9798C46.1799 24.275 44.2694 26.0955 41.9423 26.1724C39.9617 26.2352 38.6839 24.8124 38.688 23.0572C38.6963 19.5952 42.6431 17.3147 46.7911 16.9738C51.7865 16.5707 56.518 17.87 61.4779 18.4574C65.278 18.9068 68.9214 18.9162 72.7411 18.0594C73.1926 17.9636 73.5095 18.2449 73.48 18.6903C73.4429 19.334 72.9322 19.9539 71.6742 20.6239C70.2434 21.3901 68.7467 21.6226 67.1834 21.6351C63.4034 21.6673 59.8823 20.2271 56.2386 19.454C56.2427 19.6098 56.2848 19.7953 56.1512 19.8936C54.1329 21.3473 52.3085 22.8235 51.0867 24.8969C51.0455 24.9448 51.0661 24.9902 51.139 24.9854C52.1999 24.9303 53.1539 24.9037 54.1443 24.8264C54.3174 24.8103 54.324 24.7701 54.3088 24.6469C54.221 23.9322 54.4349 23.1173 55.0787 22.5567C55.7376 21.9798 56.5626 21.9142 57.1095 22.3297C57.7313 22.8028 57.6763 23.6537 57.3362 24.2918C56.99 24.9392 56.4181 25.2855 55.8693 25.4536C55.8693 25.4536 55.7539 25.4778 55.7712 25.58C55.7918 25.7434 56.5406 26.1481 56.6045 26.2559C56.6664 26.3585 56.6334 26.5175 56.5209 26.6395C56.4417 26.728 56.3176 26.811 56.1589 26.8081C56.0307 26.8056 55.9528 26.7623 55.7888 26.6757C55.4532 26.4982 55.0339 26.2064 54.7542 25.8623C54.6589 25.746 54.6103 25.7436 54.3725 25.7565C53.3007 25.8168 51.6296 25.9746 50.4974 26.1127C50.2229 26.1449 50.1825 26.196 50.126 26.289C48.3208 29.1957 46.3934 32.3303 44.2771 34.4289C42.0072 36.6791 40.1195 37.2714 38.1165 37.2867Z" fill="white"/>
<path d="M59.9996 13.8855C36.4673 13.8855 17.3926 20.2352 17.3926 28.0051C17.3926 35.7757 36.4673 42.126 59.9996 42.126C83.5316 42.126 102.605 35.7757 102.605 28.0051C102.605 20.2352 83.5316 13.8855 59.9996 13.8855ZM59.9996 43.4056C35.6107 43.4056 15.8398 36.5106 15.8398 28.0051C15.8398 19.4983 35.6107 12.6046 59.9996 12.6046C84.3863 12.6046 104.156 19.4983 104.156 28.0051C104.156 36.5106 84.3863 43.4056 59.9996 43.4056Z" fill="white"/>
</svg>
