<svg width="120" height="56" viewBox="0 0 120 56" fill="none" xmlns="http://www.w3.org/2000/svg">
<path d="M59.9978 38.3489C74.397 38.3489 86.0699 30.6287 86.0699 21.1055C86.0699 11.5822 74.397 3.86206 59.9978 3.86206C45.5986 3.86206 33.9258 11.5822 33.9258 21.1055C33.9258 30.6287 45.5986 38.3489 59.9978 38.3489Z" fill="url(#paint0_linear_655_4727)" stroke="black" stroke-width="3.08727"/>
<path d="M59.9986 36.9987C72.7522 36.9987 83.091 29.8831 83.091 21.1057C83.091 12.3282 72.7522 5.21265 59.9986 5.21265C47.2451 5.21265 36.9062 12.3282 36.9062 21.1057C36.9062 29.8831 47.2451 36.9987 59.9986 36.9987Z" fill="url(#paint1_radial_655_4727)"/>
<path fill-rule="evenodd" clip-rule="evenodd" d="M74.3672 22.9233C73.4094 19.3915 72.2388 16.0674 70.1105 12.8473C68.0226 9.83905 63.6148 10.91 60.1797 10.3865V31.0422C60.1797 37.2706 71.4471 35.7488 77.8736 29.9203C75.675 28.3747 75.0684 25.4651 74.3672 22.9233Z" fill="url(#paint2_linear_655_4727)"/>
<path fill-rule="evenodd" clip-rule="evenodd" d="M82.229 21.1048C82.229 12.614 72.228 5.7312 59.8911 5.7312H59.873V9.29726H60.1763V10.3859C63.6104 10.9094 68.0192 9.83845 70.1071 12.8467C72.2355 16.0669 73.406 19.3909 74.3638 22.9227C75.0651 25.4645 75.6727 28.3741 77.8702 29.9197C80.4349 27.594 82.229 24.5836 82.229 21.1048Z" fill="url(#paint3_linear_655_4727)"/>
<path fill-rule="evenodd" clip-rule="evenodd" d="M45.6295 22.9233C46.5872 19.3915 47.7578 16.0674 49.8861 12.8473C51.974 9.83905 56.3818 10.91 59.8169 10.3865V31.0422C59.8169 37.2706 48.5495 35.7488 42.123 29.9203C44.3216 28.3747 44.9282 25.4651 45.6295 22.9233Z" fill="url(#paint4_linear_655_4727)"/>
<path fill-rule="evenodd" clip-rule="evenodd" d="M37.7656 21.1048C37.7656 12.614 47.7667 5.7312 60.1035 5.7312H60.1216V9.29726H59.8183V10.3859C56.3843 10.9094 51.9754 9.83845 49.8875 12.8467C47.7592 16.0669 46.5886 19.3909 45.6309 22.9227C44.9296 25.4645 44.322 28.3741 42.1244 29.9197C39.5598 27.594 37.7656 24.5836 37.7656 21.1048Z" fill="url(#paint5_linear_655_4727)"/>
<path d="M93.891 40.3209C93.6962 40.0405 92.7459 40.0872 92.4097 40.1215C92.1766 40.1454 91.9553 40.2233 91.7712 40.3459C91.6786 43.4279 91.7201 47.1289 91.7201 50.4177C91.7201 50.7521 91.636 51.6237 91.7712 51.8138C91.9212 52.0267 92.5405 51.9883 92.8438 51.9883C93.2918 51.9883 93.7069 52.0122 93.891 51.7888C93.9836 48.819 93.9421 44.9642 93.9421 41.717C93.9421 41.3877 94.0261 40.5152 93.891 40.3209ZM96.1129 40.3708C96.0672 43.3884 96.0874 47.1082 96.0874 50.3678C96.0874 50.776 95.9884 51.6018 96.1385 51.8138C96.2992 52.0412 97.2963 52.035 97.7475 51.9883C97.9699 51.9654 98.2168 51.8937 98.3094 51.739V40.3957C97.9305 39.9823 96.5386 40.0353 96.1129 40.3708ZM26.8485 42.6394C28.1479 42.4016 29.3419 42.7745 30.1943 43.163C30.3922 43.2533 30.8753 43.5889 31.0882 43.512C31.4489 43.3821 31.3563 42.1221 31.2159 41.8167C31.0435 41.4407 30.4177 41.2018 29.9644 41.0688C29.4866 40.9286 28.8098 40.805 28.2532 40.7697C26.8602 40.6803 25.7035 40.9203 24.8309 41.2932C23.091 42.037 21.814 43.7364 21.6895 46.1047V47.077C22.0108 50.3927 24.0849 52.3809 28.1255 52.088C28.697 52.0464 29.2355 51.9851 29.8112 51.8387C30.2858 51.7171 31.0552 51.5551 31.2159 51.1905C31.3425 50.9017 31.2925 50.3553 31.2925 49.9191V47.2266C31.2925 46.5275 31.4032 45.8835 30.9094 45.7059C30.4124 45.5272 29.5281 45.656 28.8151 45.656H27.7424C27.4115 45.656 26.9166 45.6103 26.7464 45.7059C26.3931 45.9043 26.4974 47.0853 26.7464 47.3512C27.4445 47.4094 28.2532 47.3596 28.9939 47.3762V49.944C27.5115 50.6389 25.8259 50.106 25.0352 49.2958C24.2019 48.443 23.7859 46.7612 24.1924 45.2072C24.5414 43.8714 25.446 42.896 26.8485 42.6394ZM79.9972 41.0688C79.8365 41.234 79.7759 41.8656 79.7163 42.1159C79.1097 44.6432 78.4797 47.3699 77.9029 49.7445C77.2495 47.2214 76.6142 44.6567 75.9619 42.091C75.8832 41.7825 75.7884 41.181 75.6299 41.0439C75.4213 40.8642 74.8786 40.8943 74.4551 40.8943C74.0411 40.8943 73.5005 40.8943 73.3057 41.0688C73.1525 41.2059 73.0514 41.7658 72.9737 42.091C72.3618 44.6484 71.7191 47.2702 71.1093 49.7196C70.5304 47.2443 69.8674 44.6027 69.296 42.091C69.213 41.7284 69.18 41.1748 69.015 41.019C68.7575 40.7759 66.9335 40.8289 66.7675 41.0938C66.5983 41.3638 66.9059 42.1107 66.9974 42.4649C67.7178 45.2478 68.4202 47.827 69.1427 50.5423C69.2492 50.9402 69.362 51.6403 69.5769 51.8138C69.9536 52.1171 72.0958 52.0932 72.4374 51.8138C72.6023 51.6787 72.663 51.2892 72.7439 50.9661C73.3089 48.7016 73.7761 46.6002 74.3784 44.4593C74.885 46.6096 75.4862 48.7505 76.0385 50.8913C76.1226 51.2154 76.1577 51.6372 76.3195 51.7888C76.6994 52.1441 78.9277 52.0932 79.2566 51.7639C79.4651 51.5551 79.5556 50.8758 79.6652 50.4675C80.3793 47.7979 81.1721 45.0255 81.8361 42.4649C81.9542 42.011 82.1724 41.5332 82.0404 41.0439C81.6637 40.8684 80.3037 40.7541 79.9972 41.0688ZM60.1527 50.1933C59.9313 50.0427 59.8217 49.6355 59.7951 49.2958C59.71 48.1958 59.8409 46.5306 59.8206 45.5313C60.4187 45.5168 61.0785 45.5625 61.634 45.5064C61.9096 45.1657 61.9139 44.2048 61.6595 43.8361C61.1338 43.726 60.4049 43.8143 59.7951 43.7862C59.7791 43.1785 59.8281 42.5075 59.7696 41.9414C59.3407 41.6443 58.0211 41.637 57.6242 41.9663C57.5657 42.5324 57.6146 43.2035 57.5987 43.8112C57.3039 43.7665 56.8474 43.7748 56.5515 43.8112C56.2344 44.1373 56.2482 45.1512 56.526 45.5064C56.8303 45.575 57.2954 45.4867 57.5987 45.5563C57.7785 47.3834 57.1911 49.9938 58.0328 51.2653C58.3372 51.7244 58.9672 52.0599 59.7696 52.1129C60.4336 52.1565 61.4371 52.0714 61.6851 51.739C61.9341 51.4055 61.8873 50.48 61.6595 50.1434C61.236 50.2193 60.5507 50.4644 60.1527 50.1933ZM37.6519 43.5868C36.3175 43.4923 35.9408 44.4469 35.3789 44.9579C35.364 44.6152 35.4097 44.2132 35.3533 43.9109C34.9734 43.6522 33.8295 43.6398 33.5145 43.9607C33.4719 46.5119 33.4719 49.2376 33.5145 51.7888C33.9412 52.0869 35.2586 52.0869 35.6854 51.7888C35.745 50.2182 35.6939 48.5396 35.7109 46.9274C36.094 46.408 36.4388 45.7599 37.1156 45.6061C37.5179 45.5147 38.0255 45.87 38.2904 45.7557C38.5224 45.656 38.4916 45.1958 38.4948 44.8582C38.5054 43.8963 38.482 43.646 37.6519 43.5868ZM45.0585 43.9607C44.3349 43.6138 43.3803 43.4891 42.4024 43.6366C40.6784 43.8974 39.6621 45.0431 39.312 46.6532C39.1258 47.5071 39.1513 48.5843 39.3376 49.3955C39.7249 51.0845 40.7795 51.9426 42.7344 52.1378H43.9603C44.3455 52.0838 44.8287 52.0257 45.2884 51.9135C45.6481 51.8252 46.2132 51.7171 46.3611 51.4647C46.5388 51.1614 46.4547 50.4062 46.3355 50.0437C45.8492 50.0385 45.3554 50.2702 44.8287 50.3927C43.093 50.7958 41.2818 50.3865 41.4319 48.4232H45.1607C45.7705 48.4232 46.4579 48.5178 46.6931 48.1739C46.9091 47.8582 46.8314 47.1923 46.7953 46.8028C46.6612 45.3537 45.9886 44.4064 45.0585 43.9607ZM41.4319 47.0272C41.4499 45.9063 42.1065 45.0234 43.2707 45.1075C44.2146 45.1761 44.7074 45.9167 44.6754 47.0272C43.7102 47.0282 42.396 47.0272 41.4319 47.0272ZM55.2234 47.9496C55.2234 46.6709 55.3118 45.3558 54.6616 44.5591C53.7645 43.4601 51.5404 43.3894 49.9111 43.8859C49.4174 44.0366 48.8214 44.2256 48.6341 44.584C48.4458 44.9444 48.5437 45.9084 48.864 45.9801C49.129 46.0393 49.5004 45.7484 49.7068 45.656C50.3751 45.3558 51.6894 44.8987 52.5417 45.4067C53.0174 45.6903 53.0877 46.2159 53.0525 47.077C51.0679 47.0417 49.1886 47.1819 48.4298 48.4232C47.9754 49.167 48.0403 50.3044 48.4298 50.9661C48.8172 51.6226 49.561 52.0153 50.473 52.1378H51.3924C51.8383 52.0755 52.2087 51.9207 52.5417 51.739C52.8823 51.5541 53.1441 51.3255 53.4101 51.1406C53.4197 51.339 53.3761 51.6579 53.4356 51.8636C53.8081 51.9935 54.9489 52.1493 55.1724 51.8387C55.2809 51.6891 55.2234 51.1739 55.2234 50.8913V47.9496ZM53.0525 49.6947C52.9908 49.9149 52.5258 50.293 52.1842 50.4675C51.6393 50.7449 50.8072 50.6244 50.4985 50.2681C50.208 49.9336 50.2006 49.3228 50.4475 48.9717C50.8667 48.3744 51.998 48.4149 53.0525 48.4232C52.9674 48.8741 53.1653 49.2927 53.0525 49.6947ZM89.0639 44.6089C88.2658 43.5182 86.0428 43.3614 84.3901 43.8361C83.907 43.9753 83.1514 44.2028 82.9599 44.6089C82.7875 44.9746 82.8758 45.9344 83.2153 45.9801C83.4738 46.0144 83.8676 45.7526 84.1347 45.6311C84.9094 45.2768 86.8345 44.7917 87.2761 45.8056C87.4357 46.1723 87.374 46.4403 87.4038 47.0521C85.2808 47.0614 83.4355 47.1892 82.7045 48.5728C82.2948 49.3477 82.4214 50.4322 82.8066 51.0409C83.1887 51.6455 83.974 52.0309 84.8243 52.1378H85.7182C86.4897 52.0464 87.0665 51.686 87.5571 51.2653C87.6018 51.2269 87.6688 51.1209 87.7358 51.1656C87.7827 51.4845 87.639 51.7161 87.8125 51.8885C88.103 52.1773 89.2033 51.9519 89.4981 51.8636C89.5928 50.5101 89.5492 49.3062 89.5492 48.0244C89.5492 46.7405 89.662 45.4264 89.0639 44.6089ZM87.4038 49.6698C87.3059 50.0645 86.4216 50.5787 85.9225 50.6171C85.3883 50.6576 84.9456 50.4623 84.7477 50.1434C84.4412 49.649 84.671 48.954 85.0797 48.6975C85.6245 48.3557 86.4461 48.443 87.4038 48.4232C87.3293 48.8709 87.5028 49.2698 87.4038 49.6698Z" fill="#CE181E"/>
<path fill-rule="evenodd" clip-rule="evenodd" d="M73.6148 29.1633C73.3541 29.1633 73.1018 29.1446 72.8624 29.1072C72.7124 29.0833 69.1559 28.4569 69.2549 24.1762V16.5891L59.9966 11.6426L50.7384 16.5891V24.17C50.8384 28.4569 47.282 29.0833 47.1309 29.1072C46.8936 29.1446 46.6403 29.1633 46.3796 29.1633C45.6474 29.1633 43.7724 28.995 42.1846 27.44C40.7182 26.0034 39.9807 23.8729 39.9903 21.1067C40.0191 13.4313 48.9942 7.18628 59.9966 7.18628C70.9991 7.18628 79.9742 13.4313 80.003 21.1067C80.0136 23.8719 79.2751 26.0034 77.8097 27.439C76.222 28.995 74.3469 29.1633 73.6148 29.1633Z" fill="white"/>
<path d="M59.9951 7.44589C65.2968 7.44589 70.2728 8.88665 74.0091 11.5012C77.688 14.0773 79.7226 17.4886 79.7354 21.1076C79.7461 23.8022 79.0341 25.8704 77.6188 27.2561C76.1013 28.7425 74.3114 28.9035 73.6122 28.9035C73.3653 28.9035 73.1269 28.8859 72.9035 28.8506C72.895 28.8495 72.0277 28.6979 71.187 28.0684C70.0409 27.2104 69.479 25.9026 69.5194 24.1813V16.4353L69.2427 16.2878L60.2505 11.4835L59.9951 11.3475L59.7397 11.4835L50.7475 16.2878L50.4708 16.4353V24.1824C50.5645 28.2273 47.2273 28.8287 47.0879 28.8516C46.8633 28.8869 46.6239 28.9046 46.3781 28.9046C45.6789 28.9046 43.889 28.7436 42.3715 27.2571C40.9572 25.8714 40.2453 23.8022 40.2549 21.1087C40.2687 17.4907 42.3023 14.0784 45.9822 11.5022C49.7174 8.88665 54.6935 7.44589 59.9951 7.44589ZM59.9951 6.92651C48.799 6.92651 39.7526 13.2744 39.7228 21.1056C39.6983 27.4638 43.6559 29.4229 46.3781 29.4229C46.6579 29.4229 46.924 29.4021 47.1719 29.3637C47.1719 29.3637 51.1093 28.7404 51.0029 24.1699V16.7428L59.9951 11.9385L68.9873 16.7428V24.1699C68.8809 28.7404 72.8183 29.3637 72.8183 29.3637C73.0663 29.4021 73.3323 29.4229 73.6122 29.4229C76.3333 29.4229 80.292 27.4638 80.2675 21.1056C80.2377 13.2744 71.1912 6.92651 59.9951 6.92651Z" fill="#4D4D4D"/>
<path d="M48.7637 17.1131L60.9393 10.571L61.4278 11.4374L49.2522 17.9795L48.7637 17.1131Z" fill="white"/>
<path d="M58.5645 11.4374L59.0529 10.571L71.2285 17.1131L70.74 17.9795L58.5645 11.4374Z" fill="white"/>
<defs>
<linearGradient id="paint0_linear_655_4727" x1="47.0805" y1="8.29943" x2="73.655" y2="35.9493" gradientUnits="userSpaceOnUse">
<stop stop-color="#F7F7F7"/>
<stop offset="1" stop-color="#252525"/>
</linearGradient>
<radialGradient id="paint1_radial_655_4727" cx="0" cy="0" r="1" gradientUnits="userSpaceOnUse" gradientTransform="translate(60.0519 35.856) scale(16.8303 16.4285)">
<stop stop-color="#CCCCCC"/>
<stop offset="1" stop-color="white"/>
</radialGradient>
<linearGradient id="paint2_linear_655_4727" x1="57.6958" y1="15.0946" x2="74.0234" y2="32.596" gradientUnits="userSpaceOnUse">
<stop stop-color="#9B9B9B"/>
<stop offset="0.093" stop-color="#828282"/>
<stop offset="0.251" stop-color="#5E5E5E"/>
<stop offset="0.4" stop-color="#444444"/>
<stop offset="0.533" stop-color="#343434"/>
<stop offset="0.638" stop-color="#2F2F2F"/>
<stop offset="0.781" stop-color="white"/>
<stop offset="1" stop-color="#A0A0A0"/>
</linearGradient>
<linearGradient id="paint3_linear_655_4727" x1="71.6531" y1="26.5209" x2="70.6873" y2="7.22743" gradientUnits="userSpaceOnUse">
<stop stop-color="#9B9B9B"/>
<stop offset="0.542" stop-color="#2F2F2F"/>
<stop offset="0.722" stop-color="#313131"/>
<stop offset="0.796" stop-color="#383838"/>
<stop offset="0.852" stop-color="#444444"/>
<stop offset="0.897" stop-color="#565656"/>
<stop offset="0.936" stop-color="#6D6D6D"/>
<stop offset="0.971" stop-color="#888888"/>
<stop offset="1" stop-color="#A6A6A6"/>
</linearGradient>
<linearGradient id="paint4_linear_655_4727" x1="62.3008" y1="15.0946" x2="45.9732" y2="32.5959" gradientUnits="userSpaceOnUse">
<stop stop-color="#9B9B9B"/>
<stop offset="0.093" stop-color="#828282"/>
<stop offset="0.251" stop-color="#5E5E5E"/>
<stop offset="0.4" stop-color="#444444"/>
<stop offset="0.533" stop-color="#343434"/>
<stop offset="0.638" stop-color="#2F2F2F"/>
<stop offset="0.781" stop-color="white"/>
<stop offset="1" stop-color="#A0A0A0"/>
</linearGradient>
<linearGradient id="paint5_linear_655_4727" x1="48.3415" y1="26.5209" x2="49.3072" y2="7.22743" gradientUnits="userSpaceOnUse">
<stop stop-color="#9B9B9B"/>
<stop offset="0.542" stop-color="#2F2F2F"/>
<stop offset="0.722" stop-color="#313131"/>
<stop offset="0.796" stop-color="#383838"/>
<stop offset="0.852" stop-color="#444444"/>
<stop offset="0.897" stop-color="#565656"/>
<stop offset="0.936" stop-color="#6D6D6D"/>
<stop offset="0.971" stop-color="#888888"/>
<stop offset="1" stop-color="#A6A6A6"/>
</linearGradient>
</defs>
</svg>
