<svg width="120" height="56" viewBox="0 0 120 56" fill="none" xmlns="http://www.w3.org/2000/svg">
<path d="M60.4158 38.4868C74.815 38.4868 86.4879 30.7667 86.4879 21.2434C86.4879 11.7201 74.815 4 60.4158 4C46.0166 4 34.3438 11.7201 34.3438 21.2434C34.3438 30.7667 46.0166 38.4868 60.4158 38.4868Z" fill="url(#paint0_linear_596_7781)" stroke="black" stroke-width="3.08727"/>
<path d="M60.4166 37.1366C73.1702 37.1366 83.509 30.0211 83.509 21.2436C83.509 12.4661 73.1702 5.35059 60.4166 5.35059C47.663 5.35059 37.3242 12.4661 37.3242 21.2436C37.3242 30.0211 47.663 37.1366 60.4166 37.1366Z" fill="url(#paint1_radial_596_7781)"/>
<path fill-rule="evenodd" clip-rule="evenodd" d="M74.7851 23.0612C73.8274 19.5294 72.6568 16.2054 70.5285 12.9852C68.4406 9.97699 64.0328 11.0479 60.5977 10.5244V31.1801C60.5977 37.4085 71.865 35.8867 78.2915 30.0583C76.093 28.5126 75.4864 25.603 74.7851 23.0612Z" fill="url(#paint2_linear_596_7781)"/>
<path fill-rule="evenodd" clip-rule="evenodd" d="M82.6451 21.2428C82.6451 12.752 72.644 5.86914 60.3072 5.86914H60.2891V9.4352H60.5924V10.5238C64.0264 11.0474 68.4353 9.97639 70.5231 12.9846C72.6515 16.2048 73.8221 19.5288 74.7798 23.0606C75.4811 25.6024 76.0887 28.512 78.2862 30.0577C80.8509 27.7319 82.6451 24.7216 82.6451 21.2428Z" fill="url(#paint3_linear_596_7781)"/>
<path fill-rule="evenodd" clip-rule="evenodd" d="M46.0455 23.0612C47.0032 19.5294 48.1738 16.2054 50.3022 12.9852C52.39 9.97699 56.7978 11.0479 60.2329 10.5244V31.1801C60.2329 37.4085 48.9656 35.8867 42.5391 30.0583C44.7376 28.5126 45.3442 25.603 46.0455 23.0612Z" fill="url(#paint4_linear_596_7781)"/>
<path fill-rule="evenodd" clip-rule="evenodd" d="M38.1836 21.2428C38.1836 12.752 48.1846 5.86914 60.5215 5.86914H60.5396V9.4352H60.2363V10.5238C56.8022 11.0474 52.3934 9.97639 50.3055 12.9846C48.1772 16.2048 47.0066 19.5288 46.0488 23.0606C45.3476 25.6024 44.7399 28.512 42.5424 30.0577C39.9778 27.7319 38.1836 24.7216 38.1836 21.2428Z" fill="url(#paint5_linear_596_7781)"/>
<path d="M94.3109 40.4589C94.1161 40.1784 93.1659 40.2251 92.8296 40.2594C92.5965 40.2833 92.3752 40.3612 92.1911 40.4838C92.0985 43.5658 92.14 47.2669 92.14 50.5556C92.14 50.8901 92.0559 51.7616 92.1911 51.9517C92.3411 52.1646 92.9605 52.1262 93.2638 52.1262C93.7118 52.1262 94.1268 52.1501 94.3109 51.9268C94.4035 48.957 94.362 45.1021 94.362 41.855C94.362 41.5257 94.446 40.6531 94.3109 40.4589ZM96.5329 40.5087C96.4871 43.5263 96.5073 47.2461 96.5073 50.5057C96.5073 50.914 96.4084 51.7398 96.5584 51.9517C96.7191 52.1792 97.7162 52.1729 98.1674 52.1262C98.3898 52.1033 98.6367 52.0317 98.7293 51.8769V40.5337C98.3505 40.1202 96.9585 40.1732 96.5329 40.5087ZM27.2685 42.7774C28.5678 42.5395 29.7618 42.9124 30.6142 43.3009C30.8121 43.3913 31.2953 43.7268 31.5081 43.6499C31.8688 43.5201 31.7763 42.2601 31.6358 41.9547C31.4634 41.5786 30.8377 41.3397 30.3843 41.2068C29.9065 41.0665 29.2297 40.9429 28.6731 40.9076C27.2802 40.8183 26.1234 41.0582 25.2508 41.4311C23.5109 42.1749 22.2339 43.8743 22.1094 46.2427V47.215C22.4308 50.5307 24.5048 52.5189 28.5454 52.2259C29.1169 52.1844 29.6554 52.1231 30.2311 51.9766C30.7057 51.8551 31.4751 51.693 31.6358 51.3284C31.7624 51.0397 31.7124 50.4933 31.7124 50.057V47.3645C31.7124 46.6654 31.8231 46.0214 31.3293 45.8438C30.8323 45.6651 29.948 45.7939 29.235 45.7939H28.1623C27.8314 45.7939 27.3366 45.7482 27.1663 45.8438C26.813 46.0422 26.9173 47.2233 27.1663 47.4892C27.8644 47.5474 28.6731 47.4975 29.4138 47.5141V50.0819C27.9314 50.7769 26.2458 50.244 25.4551 49.4337C24.6219 48.5809 24.2058 46.8992 24.6123 45.3452C24.9613 44.0093 25.8659 43.0339 27.2685 42.7774ZM80.4171 41.2068C80.2565 41.3719 80.1958 42.0035 80.1362 42.2538C79.5296 44.7811 78.8996 47.5079 78.3229 49.8825C77.6695 47.3593 77.0342 44.7946 76.3818 42.2289C76.3031 41.9204 76.2084 41.319 76.0498 41.1818C75.8412 41.0021 75.2985 41.0323 74.875 41.0323C74.461 41.0323 73.9204 41.0323 73.7257 41.2068C73.5724 41.3439 73.4713 41.9038 73.3936 42.2289C72.7818 44.7863 72.139 47.4082 71.5292 49.8576C70.9503 47.3822 70.2873 44.7406 69.7159 42.2289C69.6329 41.8664 69.5999 41.3127 69.435 41.1569C69.1774 40.9138 67.3534 40.9668 67.1874 41.2317C67.0182 41.5018 67.3258 42.2486 67.4173 42.6029C68.1377 45.3857 68.8401 47.9649 69.5627 50.6803C69.6691 51.0781 69.7819 51.7782 69.9968 51.9517C70.3735 52.255 72.5157 52.2311 72.8573 51.9517C73.0223 51.8167 73.0829 51.4271 73.1638 51.1041C73.7289 48.8396 74.196 46.7382 74.7983 44.5973C75.3049 46.7475 75.9061 48.8884 76.4584 51.0293C76.5425 51.3534 76.5776 51.7751 76.7394 51.9268C77.1193 52.282 79.3477 52.2311 79.6765 51.9018C79.8851 51.693 79.9755 51.0137 80.0851 50.6055C80.7992 47.9358 81.592 45.1634 82.256 42.6029C82.3741 42.1489 82.5923 41.6711 82.4603 41.1818C82.0836 41.0063 80.7236 40.892 80.4171 41.2068ZM60.5726 50.3312C60.3512 50.1806 60.2416 49.7734 60.215 49.4337C60.1299 48.3337 60.2608 46.6686 60.2406 45.6693C60.8386 45.6547 61.4984 45.7004 62.0539 45.6443C62.3295 45.3036 62.3338 44.3428 62.0794 43.974C61.5537 43.8639 60.8248 43.9522 60.215 43.9242C60.1991 43.3165 60.248 42.6454 60.1895 42.0793C59.7606 41.7822 58.4411 41.775 58.0441 42.1043C57.9856 42.6704 58.0345 43.3414 58.0186 43.9491C57.7238 43.9044 57.2673 43.9127 56.9714 43.9491C56.6543 44.2753 56.6682 45.2891 56.9459 45.6443C57.2503 45.7129 57.7153 45.6246 58.0186 45.6942C58.1984 47.5214 57.611 50.1318 58.4528 51.4032C58.7571 51.8624 59.3871 52.1979 60.1895 52.2509C60.8535 52.2945 61.857 52.2093 62.105 51.8769C62.354 51.5435 62.3072 50.6179 62.0794 50.2814C61.6559 50.3572 60.9706 50.6023 60.5726 50.3312ZM38.0719 43.7247C36.7374 43.6302 36.3607 44.5848 35.7988 45.0959C35.7839 44.7531 35.8297 44.3511 35.7733 44.0488C35.3934 43.7902 34.2494 43.7777 33.9344 44.0987C33.8918 46.6499 33.8918 49.3756 33.9344 51.9268C34.3611 52.2249 35.6786 52.2249 36.1053 51.9268C36.1649 50.3562 36.1138 48.6775 36.1308 47.0654C36.5139 46.546 36.8587 45.8978 37.5355 45.7441C37.9378 45.6527 38.4454 46.0079 38.7104 45.8936C38.9423 45.7939 38.9115 45.3338 38.9147 44.9962C38.9253 44.0343 38.9019 43.7839 38.0719 43.7247ZM45.4785 44.0987C44.7548 43.7517 43.8003 43.6271 42.8223 43.7746C41.0983 44.0353 40.0821 45.1811 39.732 46.7911C39.5457 47.645 39.5713 48.7222 39.7575 49.5335C40.1449 51.2225 41.1994 52.0805 43.1543 52.2758H44.3802C44.7655 52.2218 45.2486 52.1636 45.7083 52.0514C46.068 51.9631 46.6331 51.8551 46.781 51.6027C46.9587 51.2994 46.8746 50.5442 46.7555 50.1816C46.2691 50.1765 45.7754 50.4081 45.2486 50.5307C43.5129 50.9337 41.7017 50.5244 41.8518 48.5612H45.5806C46.1904 48.5612 46.8778 48.6557 47.113 48.3119C47.329 47.9961 47.2514 47.3303 47.2152 46.9407C47.0811 45.4917 46.4085 44.5443 45.4785 44.0987ZM41.8518 47.1651C41.8699 46.0443 42.5265 45.1613 43.6907 45.2455C44.6346 45.314 45.1273 46.0547 45.0954 47.1651C44.1302 47.1661 42.8159 47.1651 41.8518 47.1651ZM55.6434 48.0875C55.6434 46.8088 55.7317 45.4937 55.0815 44.697C54.1844 43.598 51.9603 43.5274 50.3311 44.0239C49.8373 44.1745 49.2413 44.3636 49.0541 44.7219C48.8657 45.0824 48.9636 46.0463 49.2839 46.118C49.5489 46.1772 49.9203 45.8864 50.1267 45.7939C50.795 45.4937 52.1093 45.0367 52.9617 45.5446C53.4374 45.8282 53.5076 46.3538 53.4725 47.215C51.4878 47.1796 49.6085 47.3199 48.8497 48.5612C48.3953 49.3049 48.4602 50.4424 48.8497 51.1041C49.2371 51.7606 49.9809 52.1532 50.8929 52.2758H51.8124C52.2583 52.2135 52.6286 52.0587 52.9617 51.8769C53.3022 51.692 53.564 51.4635 53.83 51.2786C53.8396 51.477 53.796 51.7959 53.8556 52.0015C54.228 52.1314 55.3688 52.2872 55.5923 51.9766C55.7008 51.827 55.6434 51.3118 55.6434 51.0293V48.0875ZM53.4725 49.8326C53.4107 50.0528 52.9457 50.4309 52.6041 50.6055C52.0593 50.8828 51.2271 50.7623 50.9185 50.406C50.628 50.0715 50.6205 49.4607 50.8674 49.1096C51.2867 48.5124 52.4179 48.5529 53.4725 48.5612C53.3873 49.012 53.5853 49.4306 53.4725 49.8326ZM89.4838 44.7469C88.6857 43.6562 86.4627 43.4993 84.81 43.974C84.3269 44.1132 83.5713 44.3407 83.3798 44.7469C83.2074 45.1125 83.2957 46.0723 83.6352 46.118C83.8938 46.1523 84.2875 45.8905 84.5546 45.769C85.3293 45.4148 87.2544 44.9297 87.696 45.9435C87.8557 46.3102 87.7939 46.5782 87.8237 47.19C85.7007 47.1994 83.8555 47.3271 83.1244 48.7108C82.7147 49.4857 82.8413 50.5701 83.2265 51.1789C83.6086 51.7834 84.3939 52.1688 85.2442 52.2758H86.1381C86.9096 52.1844 87.4864 51.8239 87.977 51.4032C88.0217 51.3648 88.0887 51.2588 88.1558 51.3035C88.2026 51.6224 88.0589 51.8541 88.2324 52.0265C88.5229 52.3153 89.6232 52.0898 89.918 52.0015C90.0127 50.648 89.9691 49.4441 89.9691 48.1623C89.9691 46.8784 90.0819 45.5644 89.4838 44.7469ZM87.8237 49.8077C87.7258 50.2024 86.8415 50.7166 86.3424 50.755C85.8082 50.7956 85.3655 50.6003 85.1676 50.2814C84.8611 49.7869 85.091 49.092 85.4996 48.8354C86.0445 48.4937 86.866 48.5809 87.8237 48.5612C87.7492 49.0089 87.9227 49.4078 87.8237 49.8077Z" fill="#4E4F53"/>
<path fill-rule="evenodd" clip-rule="evenodd" d="M74.0347 29.3012C73.774 29.3012 73.5218 29.2825 73.2823 29.2451C73.1323 29.2213 69.5758 28.5949 69.6748 24.3142V16.7271L60.4166 11.7805L51.1583 16.7271V24.3079C51.2584 28.5949 47.7019 29.2213 47.5508 29.2451C47.3135 29.2825 47.0602 29.3012 46.7995 29.3012C46.0674 29.3012 44.1923 29.133 42.6046 27.5779C41.1381 26.1413 40.4007 24.0108 40.4102 21.2446C40.439 13.5692 49.4142 7.32422 60.4166 7.32422C71.419 7.32422 80.3941 13.5692 80.4229 21.2446C80.4335 24.0098 79.695 26.1413 78.2296 27.5769C76.6419 29.133 74.7668 29.3012 74.0347 29.3012Z" fill="white"/>
<path d="M60.4131 7.58383C65.7148 7.58383 70.6908 9.02459 74.4271 11.6391C78.1059 14.2153 80.1406 17.6266 80.1534 21.2456C80.164 23.9401 79.4521 26.0083 78.0368 27.394C76.5193 28.8805 74.7293 29.0415 74.0302 29.0415C73.7833 29.0415 73.5449 29.0238 73.3214 28.9885C73.3129 28.9875 72.4456 28.8358 71.6049 28.2063C70.4588 27.3483 69.8969 26.0405 69.9374 24.3193V16.5733L69.6607 16.4257L60.6685 11.6215L60.4131 11.4854L60.1577 11.6215L51.1655 16.4257L50.8888 16.5733V24.3203C50.9825 28.3652 47.6452 28.9667 47.5058 28.9895C47.2813 29.0249 47.0419 29.0425 46.796 29.0425C46.0969 29.0425 44.3069 28.8815 42.7894 27.395C41.3752 26.0093 40.6632 23.9401 40.6728 21.2466C40.6867 17.6286 42.7203 14.2163 46.4002 11.6402C50.1354 9.02459 55.1114 7.58383 60.4131 7.58383ZM60.4131 7.06445C49.217 7.06445 40.1705 13.4123 40.1407 21.2435C40.1163 27.6018 44.0739 29.5609 46.796 29.5609C47.0759 29.5609 47.3419 29.5401 47.5899 29.5016C47.5899 29.5016 51.5273 28.8784 51.4209 24.3078V16.8807L60.4131 12.0765L69.4053 16.8807V24.3078C69.2989 28.8784 73.2363 29.5016 73.2363 29.5016C73.4843 29.5401 73.7503 29.5609 74.0302 29.5609C76.7512 29.5609 80.7099 27.6018 80.6855 21.2435C80.6557 13.4123 71.6092 7.06445 60.4131 7.06445Z" fill="#4D4D4D"/>
<path d="M49.1836 17.2511L61.3592 10.709L61.8477 11.5753L49.6722 18.1174L49.1836 17.2511Z" fill="white"/>
<path d="M58.9844 11.5753L59.4728 10.709L71.6484 17.2511L71.1599 18.1174L58.9844 11.5753Z" fill="white"/>
<defs>
<linearGradient id="paint0_linear_596_7781" x1="47.4984" y1="8.43737" x2="74.0729" y2="36.0873" gradientUnits="userSpaceOnUse">
<stop stop-color="#F7F7F7"/>
<stop offset="1" stop-color="#252525"/>
</linearGradient>
<radialGradient id="paint1_radial_596_7781" cx="0" cy="0" r="1" gradientUnits="userSpaceOnUse" gradientTransform="translate(60.4698 35.994) scale(16.8303 16.4285)">
<stop stop-color="#CCCCCC"/>
<stop offset="1" stop-color="white"/>
</radialGradient>
<linearGradient id="paint2_linear_596_7781" x1="58.1138" y1="15.2326" x2="74.4413" y2="32.7339" gradientUnits="userSpaceOnUse">
<stop stop-color="#9B9B9B"/>
<stop offset="0.093" stop-color="#828282"/>
<stop offset="0.251" stop-color="#5E5E5E"/>
<stop offset="0.4" stop-color="#444444"/>
<stop offset="0.533" stop-color="#343434"/>
<stop offset="0.638" stop-color="#2F2F2F"/>
<stop offset="0.781" stop-color="white"/>
<stop offset="1" stop-color="#A0A0A0"/>
</linearGradient>
<linearGradient id="paint3_linear_596_7781" x1="72.0692" y1="26.6589" x2="71.1034" y2="7.36537" gradientUnits="userSpaceOnUse">
<stop stop-color="#9B9B9B"/>
<stop offset="0.542" stop-color="#2F2F2F"/>
<stop offset="0.722" stop-color="#313131"/>
<stop offset="0.796" stop-color="#383838"/>
<stop offset="0.852" stop-color="#444444"/>
<stop offset="0.897" stop-color="#565656"/>
<stop offset="0.936" stop-color="#6D6D6D"/>
<stop offset="0.971" stop-color="#888888"/>
<stop offset="1" stop-color="#A6A6A6"/>
</linearGradient>
<linearGradient id="paint4_linear_596_7781" x1="62.7168" y1="15.2326" x2="46.3893" y2="32.7339" gradientUnits="userSpaceOnUse">
<stop stop-color="#9B9B9B"/>
<stop offset="0.093" stop-color="#828282"/>
<stop offset="0.251" stop-color="#5E5E5E"/>
<stop offset="0.4" stop-color="#444444"/>
<stop offset="0.533" stop-color="#343434"/>
<stop offset="0.638" stop-color="#2F2F2F"/>
<stop offset="0.781" stop-color="white"/>
<stop offset="1" stop-color="#A0A0A0"/>
</linearGradient>
<linearGradient id="paint5_linear_596_7781" x1="48.7595" y1="26.6589" x2="49.7252" y2="7.36537" gradientUnits="userSpaceOnUse">
<stop stop-color="#9B9B9B"/>
<stop offset="0.542" stop-color="#2F2F2F"/>
<stop offset="0.722" stop-color="#313131"/>
<stop offset="0.796" stop-color="#383838"/>
<stop offset="0.852" stop-color="#444444"/>
<stop offset="0.897" stop-color="#565656"/>
<stop offset="0.936" stop-color="#6D6D6D"/>
<stop offset="0.971" stop-color="#888888"/>
<stop offset="1" stop-color="#A6A6A6"/>
</linearGradient>
</defs>
</svg>
