<svg width="121" height="56" viewBox="0 0 121 56" fill="none" xmlns="http://www.w3.org/2000/svg">
<path d="M87.8931 29.1008C87.8264 32.7202 88.621 34.6373 91.6537 34.6373C94.6813 34.6373 95.1158 31.3716 95.1158 28.8866C95.1158 26.3998 94.5413 23.9858 91.3603 23.9858C89.4089 23.9858 87.9681 25.4776 87.8931 29.1008ZM81.7578 44.2256V19.7258H87.9681C87.9681 19.7258 87.9681 20.0806 87.9681 20.7196C87.9681 22.0452 88.5115 21.4986 88.9494 20.982C89.0227 20.8956 90.4068 19.2289 93.5239 19.2289C96.6316 19.2289 101.466 21.3586 101.466 28.8866C101.466 34.7095 98.5819 38.9695 93.6006 38.9695C90.8558 38.9695 89.2689 37.9063 88.906 37.4772C88.5427 37.0541 88.0381 36.9803 88.0381 37.4772C88.0381 37.9752 88.0381 44.2256 88.0381 44.2256H81.7578Z" fill="#363434"/>
<path d="M33.7533 11.7741H40.4664C40.4664 11.7741 40.4664 26.1171 40.4664 29.1007C40.4664 32.0811 39.1657 38.332 29.8561 38.332C20.5453 38.332 19.5352 32.5058 19.5352 29.2418V26.0466H26.0316C26.0316 26.0466 26.0316 27.2536 26.0316 29.1696C26.0316 31.0867 27.3313 32.8611 29.7838 32.8611C32.2375 32.8611 33.7533 31.5126 33.7533 29.2418C33.7533 26.9693 33.7533 11.7741 33.7533 11.7741Z" fill="#363434"/>
<path d="M54.5059 26.4742C54.5059 24.697 53.4974 22.9931 51.1876 22.9931C48.9501 22.9931 48.1555 24.5538 48.1555 26.4742H54.5059ZM50.5403 19.0173C55.8122 19.0173 60.4295 21.0049 60.4295 30.1657H47.9438C47.9438 33.0772 49.1696 34.2847 51.3349 34.2847C53.5007 34.2847 54.2219 32.5792 54.2219 32.5792H60.3589C60.3589 35.2075 56.6773 38.758 51.1182 38.6874C44.7684 38.6874 41.6641 34.0715 41.6641 29.3135C41.6641 24.5538 44.405 19.0173 50.5403 19.0173Z" fill="#363434"/>
<path d="M74.4685 26.4742C74.4685 24.697 73.4589 22.9931 71.1491 22.9931C68.9127 22.9931 68.1165 24.5538 68.1165 26.4742H74.4685ZM70.5029 19.0173C75.7742 19.0173 80.3904 21.0049 80.3904 30.1657H67.9053C67.9053 33.0772 69.1322 34.2847 71.2991 34.2847C73.4628 34.2847 74.1851 32.5792 74.1851 32.5792H80.3221C80.3221 35.2075 76.6399 38.758 71.0824 38.6874C64.7293 38.6874 61.625 34.0715 61.625 29.3135C61.625 24.5538 64.3693 19.0173 70.5029 19.0173Z" fill="#363434"/>
<path d="M97.3512 41.289C97.3512 40.3187 98.1541 39.5304 99.1437 39.5304C100.13 39.5304 100.931 40.3187 100.931 41.289C100.931 42.2577 100.13 43.0509 99.1437 43.0509C98.1541 43.0509 97.3512 42.2577 97.3512 41.289ZM97.1445 41.289C97.1445 42.3747 98.038 43.2559 99.1437 43.2559C100.242 43.2559 101.141 42.3747 101.141 41.289C101.141 40.2034 100.242 39.3222 99.1437 39.3222C98.038 39.3222 97.1445 40.2034 97.1445 41.289Z" fill="#363434"/>
<path d="M99.9421 42.2949L99.527 41.3306C99.6587 41.2858 99.7026 41.2541 99.7726 41.1803C99.8637 41.0841 99.921 40.9321 99.921 40.7944C99.921 40.4467 99.6493 40.21 99.2553 40.21H98.4219V42.2949H98.6691V41.3919H99.2714L99.6671 42.2949H99.9421ZM98.6625 41.1803V40.4369H99.2503C99.4959 40.4369 99.652 40.5746 99.652 40.7878C99.652 41.03 99.4865 41.1803 99.2159 41.1803H98.6625Z" fill="#363434"/>
</svg>
