<svg width="120" height="56" viewBox="0 0 120 56" fill="none" xmlns="http://www.w3.org/2000/svg">
<path d="M87.3912 29.101C87.3245 32.7203 88.119 34.6374 91.1517 34.6374C94.1793 34.6374 94.6139 31.3718 94.6139 28.8867C94.6139 26.4 94.0393 23.9859 90.8583 23.9859C88.9069 23.9859 87.4662 25.4778 87.3912 29.101ZM81.2559 44.2257V19.7259H87.4662C87.4662 19.7259 87.4662 20.0807 87.4662 20.7197C87.4662 22.0453 88.0096 21.4987 88.4474 20.9821C88.5208 20.8957 89.9049 19.229 93.022 19.229C96.1296 19.229 100.964 21.3587 100.964 28.8867C100.964 34.7096 98.0799 38.9697 93.0986 38.9697C90.3538 38.9697 88.7669 37.9064 88.4041 37.4773C88.0407 37.0542 87.5362 36.9804 87.5362 37.4773C87.5362 37.9753 87.5362 44.2257 87.5362 44.2257H81.2559Z" fill="#231F20"/>
<path d="M33.2533 11.7742H39.9664C39.9664 11.7742 39.9664 26.1172 39.9664 29.1009C39.9664 32.0812 38.6657 38.3322 29.3561 38.3322C20.0453 38.3322 19.0352 32.5059 19.0352 29.2419V26.0467H25.5316C25.5316 26.0467 25.5316 27.2537 25.5316 29.1697C25.5316 31.0868 26.8313 32.8613 29.2838 32.8613C31.7375 32.8613 33.2533 31.5127 33.2533 29.2419C33.2533 26.9695 33.2533 11.7742 33.2533 11.7742Z" fill="#231F20"/>
<path d="M54.0078 26.4743C54.0078 24.6971 52.9993 22.9932 50.6896 22.9932C48.452 22.9932 47.6575 24.5539 47.6575 26.4743H54.0078ZM50.0423 19.0174C55.3141 19.0174 59.9314 21.005 59.9314 30.1658H47.4458C47.4458 33.0773 48.6715 34.2848 50.8368 34.2848C53.0027 34.2848 53.7239 32.5793 53.7239 32.5793H59.8609C59.8609 35.2076 56.1792 38.7581 50.6201 38.6876C44.2703 38.6876 41.166 34.0716 41.166 29.3136C41.166 24.5539 43.907 19.0174 50.0423 19.0174Z" fill="#231F20"/>
<path d="M73.9665 26.4743C73.9665 24.6971 72.9569 22.9932 70.6472 22.9932C68.4107 22.9932 67.6145 24.5539 67.6145 26.4743H73.9665ZM70.001 19.0174C75.2723 19.0174 79.8885 21.005 79.8885 30.1658H67.4034C67.4034 33.0773 68.6302 34.2848 70.7972 34.2848C72.9608 34.2848 73.6831 32.5793 73.6831 32.5793H79.8201C79.8201 35.2076 76.1379 38.7581 70.5805 38.6876C64.2274 38.6876 61.123 34.0716 61.123 29.3136C61.123 24.5539 63.8673 19.0174 70.001 19.0174Z" fill="#231F20"/>
<path d="M96.8512 41.2891C96.8512 40.3188 97.6541 39.5306 98.6437 39.5306C99.63 39.5306 100.431 40.3188 100.431 41.2891C100.431 42.2578 99.63 43.051 98.6437 43.051C97.6541 43.051 96.8512 42.2578 96.8512 41.2891ZM96.6445 41.2891C96.6445 42.3748 97.538 43.256 98.6437 43.256C99.7422 43.256 100.641 42.3748 100.641 41.2891C100.641 40.2035 99.7422 39.3223 98.6437 39.3223C97.538 39.3223 96.6445 40.2035 96.6445 41.2891Z" fill="#231F20"/>
<path d="M99.444 42.295L99.029 41.3308C99.1607 41.2859 99.2046 41.2542 99.2746 41.1804C99.3657 41.0842 99.4229 40.9322 99.4229 40.7945C99.4229 40.4468 99.1512 40.2101 98.7573 40.2101H97.9238V42.295H98.1711V41.392H98.7734L99.169 42.295H99.444ZM98.1644 41.1804V40.437H98.7523C98.9979 40.437 99.154 40.5747 99.154 40.7879C99.154 41.0301 98.9884 41.1804 98.7178 41.1804H98.1644Z" fill="#231F20"/>
</svg>
