<svg width="120" height="56" viewBox="0 0 120 56" fill="none" xmlns="http://www.w3.org/2000/svg">
<path fill-rule="evenodd" clip-rule="evenodd" d="M22.2149 4.63225C22.4981 4.79684 26.9077 7.15475 32.0124 9.87204C41.7461 15.0524 42.176 15.2871 42.0972 15.3641C42.0703 15.3904 40.8135 15.7205 39.3045 16.0975C37.7954 16.4754 36.5406 16.8036 36.5157 16.8279C36.4638 16.8786 59.3174 33.2963 59.6685 33.4609C59.856 33.5485 62.191 31.9269 71.5287 25.2281C79.1918 19.7303 83.0956 16.8552 82.9809 16.7968C82.8852 16.7471 81.5965 16.4052 80.1174 16.0361C78.0617 15.5238 77.4753 15.3349 77.6229 15.2326C77.7296 15.1586 82.3376 12.6906 87.8633 9.74835L97.9091 4.3985L92.194 4.36539L86.4789 4.33325L73.326 7.60666C66.0918 9.40747 60.0216 10.881 59.8361 10.881C59.6526 10.881 53.6931 9.42403 46.5945 7.6427L33.6881 4.40435L21.6992 4.33228L22.2149 4.63225ZM35.4056 6.21977C36.0918 6.3571 38.8576 7.14404 41.5526 7.96994C51.5905 11.0466 59.506 13.3987 59.8171 13.3987C59.9937 13.3987 65.6839 11.7264 72.4603 9.6831L84.7823 5.96655L90.3019 6.03472L78.4108 10.7554C71.8708 13.3519 66.5327 15.4888 66.5477 15.5034C66.5636 15.5189 68.0228 15.966 69.7922 16.4978C71.5606 17.0295 73.0478 17.498 73.0956 17.5399C73.2173 17.647 60.1483 24.6029 59.8251 24.6029C59.475 24.6029 46.4798 17.6616 46.6095 17.5438C46.6643 17.4931 48.0727 17.0432 49.7383 16.5435C51.405 16.0439 52.8423 15.5959 52.932 15.5491C53.0228 15.5014 47.7954 13.3587 41.2205 10.7486L29.3453 6.03472L30.4215 5.95486C32.0354 5.83604 34.0072 5.94025 35.4056 6.21977ZM21.7641 46.947V51.6677H26.2294L31.3132 48.0631C34.108 46.0802 36.5396 44.367 36.7162 44.255C36.8937 44.142 36.5766 44.6125 36.003 45.3108C35.4345 46.0032 34.6645 46.9489 34.2905 47.4135L33.6113 48.2579L34.5518 48.9368C35.0695 49.3098 36.1517 50.0772 36.9556 50.6411L38.4178 51.6677H40.6051C41.808 51.6677 42.7615 51.619 42.7236 51.5596C42.6867 51.5002 41.3192 50.5048 39.6865 49.3468C38.0537 48.1897 36.7182 47.2216 36.7182 47.1963C36.7182 47.171 37.4433 46.0695 38.33 44.7488C39.2157 43.4282 39.9408 42.3208 39.9408 42.2877C39.9408 42.2536 38.8237 42.2263 37.4583 42.2263H34.9747L29.9258 45.8143C27.1491 47.7875 24.844 49.4023 24.8032 49.4023C24.7623 49.4023 24.7283 47.7875 24.7283 45.8143V42.2263H21.7641V46.947ZM50.1652 46.9158L45.5143 51.6053L47.6538 51.6394C48.8307 51.6589 49.863 51.6482 49.9468 51.617C50.0316 51.5849 51.6544 49.9078 53.5534 47.8878L57.0075 44.217L58.2402 45.4559C58.9185 46.1377 60.5911 47.8138 61.9576 49.1812L64.4411 51.6677H66.3831C67.4762 51.6677 68.3051 51.618 68.2812 51.5547C68.2572 51.4924 66.2953 49.3682 63.9205 46.834L59.6017 42.2263H54.8151L50.1652 46.9158ZM71.0101 46.947V51.6677H73.9754V42.2263H71.0101V46.947ZM77.3266 42.2818C77.3266 42.312 78.6941 43.3093 80.3647 44.4985C82.0354 45.6877 83.3769 46.7249 83.346 46.8038C83.3151 46.8827 82.587 47.995 81.7282 49.2757L80.1673 51.6053L82.6329 51.6394C84.7633 51.6687 85.1443 51.6443 85.4346 51.4612C85.6201 51.3453 87.8682 49.7578 90.4316 47.9346C92.9949 46.1104 95.1274 44.6183 95.1693 44.6183C95.2122 44.6183 95.2471 46.2049 95.2471 48.143V51.6677H98.2114V47.1467C98.2114 44.6592 98.2473 42.535 98.2902 42.426C98.36 42.2487 98.1196 42.2273 96.1308 42.2312L93.8926 42.2361L88.6073 45.9925C85.6999 48.0592 83.3021 49.7325 83.2782 49.712C83.2542 49.6906 83.9654 48.7848 84.8581 47.6989C85.7497 46.612 86.4769 45.6867 86.4729 45.6429C86.4689 45.5991 85.4007 44.8121 84.098 43.8947L81.7292 42.2263H79.5289C78.3181 42.2263 77.3266 42.2516 77.3266 42.2818Z" fill="black"/>
</svg>
