<svg width="120" height="56" viewBox="0 0 120 56" fill="none" xmlns="http://www.w3.org/2000/svg">
<path fill-rule="evenodd" clip-rule="evenodd" d="M22.625 4.29997C22.9083 4.46457 27.3178 6.82248 32.4226 9.53977C42.1563 14.7202 42.5862 14.9549 42.5074 15.0318C42.4804 15.0581 41.2237 15.3883 39.7146 15.7652C38.2055 16.1431 36.9508 16.4713 36.9259 16.4956C36.874 16.5463 59.7276 32.964 60.0787 33.1286C60.2662 33.2162 62.6011 31.5946 71.9389 24.8959C79.602 19.398 83.5058 16.5229 83.3911 16.4645C83.2954 16.4148 82.0067 16.073 80.5275 15.7038C78.4719 15.1915 77.8854 15.0026 78.033 14.9003C78.1398 14.8263 82.7478 12.3583 88.2734 9.41608L98.3193 4.06623L92.6042 4.03311L86.889 4.00097L73.7362 7.27438C66.502 9.0752 60.4318 10.5488 60.2463 10.5488C60.0627 10.5488 54.1032 9.09176 47.0047 7.31042L34.0982 4.07207L22.1094 4L22.625 4.29997ZM35.8158 5.88749C36.502 6.02482 39.2678 6.81176 41.9628 7.63766C52.0007 10.7143 59.9161 13.0664 60.2273 13.0664C60.4038 13.0664 66.0941 11.3941 72.8704 9.35082L85.1924 5.63427L90.7121 5.70245L78.821 10.4231C72.281 13.0197 66.9429 15.1565 66.9578 15.1711C66.9738 15.1867 68.433 15.6337 70.2024 16.1655C71.9708 16.6972 73.4579 17.1657 73.5058 17.2076C73.6275 17.3147 60.5584 24.2706 60.2353 24.2706C59.8852 24.2706 46.89 17.3293 47.0196 17.2115C47.0745 17.1608 48.4828 16.7109 50.1485 16.2113C51.8152 15.7116 53.2524 15.2636 53.3422 15.2169C53.433 15.1691 48.2056 13.0265 41.6306 10.4163L29.7555 5.70245L30.8317 5.62258C32.4455 5.50376 34.4174 5.60797 35.8158 5.88749ZM22.1742 46.6147V51.3354H26.6396L31.7234 47.7309C34.5181 45.7479 36.9498 44.0348 37.1263 43.9228C37.3039 43.8098 36.9867 44.2802 36.4132 44.9785C35.8447 45.671 35.0747 46.6167 34.7006 47.0812L34.0214 47.9256L34.962 48.6045C35.4796 48.9775 36.5618 49.745 37.3657 50.3089L38.8279 51.3354H41.0152C42.2181 51.3354 43.1716 51.2867 43.1337 51.2273C43.0968 51.1679 41.7294 50.1725 40.0966 49.0145C38.4639 47.8575 37.1283 46.8894 37.1283 46.864C37.1283 46.8387 37.8535 45.7372 38.7402 44.4165C39.6258 43.0959 40.351 41.9885 40.351 41.9554C40.351 41.9213 39.2339 41.894 37.8684 41.894H35.3849L30.336 45.482C27.5592 47.4552 25.2542 49.07 25.2133 49.07C25.1724 49.07 25.1385 47.4552 25.1385 45.482V41.894H22.1742V46.6147ZM50.5754 46.5836L45.9245 51.2731L48.0639 51.3072C49.2409 51.3266 50.2732 51.3159 50.357 51.2848C50.4417 51.2526 52.0645 49.5755 53.9636 47.5555L57.4176 43.8848L58.6504 45.1236C59.3286 45.8054 61.0013 47.4815 62.3677 48.8489L64.8513 51.3354H66.7932C67.8864 51.3354 68.7152 51.2857 68.6913 51.2224C68.6674 51.1601 66.7055 49.0359 64.3306 46.5017L60.0119 41.894H55.2253L50.5754 46.5836ZM71.4202 46.6147V51.3354H74.3855V41.894H71.4202V46.6147ZM77.7368 41.9495C77.7368 41.9797 79.1042 42.9771 80.7749 44.1662C82.4456 45.3554 83.7871 46.3927 83.7562 46.4716C83.7252 46.5504 82.9971 47.6627 82.1384 48.9434L80.5774 51.2731L83.043 51.3072C85.1735 51.3364 85.5545 51.312 85.8447 51.1289C86.0302 51.013 88.2784 49.4255 90.8417 47.6023C93.4051 45.7781 95.5375 44.286 95.5794 44.286C95.6223 44.286 95.6572 45.8726 95.6572 47.8107V51.3354H98.6215V46.8144C98.6215 44.3269 98.6574 42.2028 98.7003 42.0937C98.7701 41.9164 98.5298 41.895 96.5409 41.8989L94.3027 41.9038L89.0175 45.6603C86.11 47.727 83.7123 49.4002 83.6883 49.3797C83.6644 49.3583 84.3755 48.4525 85.2682 47.3666C86.1599 46.2797 86.887 45.3544 86.883 45.3106C86.879 45.2668 85.8108 44.4798 84.5082 43.5624L82.1394 41.894H79.9391C78.7282 41.894 77.7368 41.9194 77.7368 41.9495Z" fill="#676767"/>
</svg>
