<svg width="120" height="56" viewBox="0 0 120 56" fill="none" xmlns="http://www.w3.org/2000/svg">
<path d="M57.6141 49.2946C54.7434 49.2202 51.5777 48.9719 48.7755 48.6016C36.8447 47.0249 26.8474 43.0059 21.2818 37.5494C18.9216 35.2357 17.426 32.6933 16.9217 30.1381C16.7574 29.3058 16.7188 28.8978 16.7188 28.0003C16.7188 27.1026 16.7576 26.6949 16.9217 25.8626C17.2533 24.1827 18.0407 22.4509 19.2024 20.8457C21.8302 17.2158 26.4407 13.984 32.4901 11.5322C42.5729 7.4449 55.775 5.82592 68.6308 7.10007C83.7226 8.59553 96.1373 14.0056 101.064 21.2331C103.316 24.5373 103.868 28.1262 102.663 31.6336C101.967 33.659 100.615 35.6832 98.7117 37.5492C93.4385 42.7191 84.1578 46.6177 73.0186 48.3424C68.0368 49.114 62.9008 49.4311 57.6139 49.2943L57.6141 49.2946ZM64.1957 46.5665C70.2363 46.1993 75.3373 45.327 80.3082 43.8114C84.2522 42.6088 87.9284 40.9443 90.7509 39.0826C92.1734 38.1446 93.1601 37.3528 94.2759 36.2541C95.6012 34.9494 96.4562 33.8047 97.1526 32.4034C97.9314 30.8357 98.2331 29.6068 98.2331 28.0001C98.2331 26.3844 97.9117 25.0902 97.1228 23.5277C96.4407 22.1767 95.5704 21.0207 94.2762 19.7463C92.3751 17.8749 90.1167 16.3313 87.1322 14.8636C81.5451 12.1162 74.5547 10.3187 66.7673 9.62696C62.4538 9.24393 57.5535 9.24368 53.2263 9.62646C42.2778 10.595 32.8795 13.7876 27.0642 18.5136C26.3266 19.1132 25.0119 20.4171 24.4608 21.0961C22.4902 23.5226 21.5598 26.1412 21.7718 28.664C22.0026 31.413 23.2628 33.837 25.7176 36.2541C27.577 38.0853 29.7879 39.6072 32.663 41.0354C39.2104 44.2877 47.2555 46.1514 56.7176 46.6083C57.7863 46.66 63.1543 46.6299 64.1957 46.5668V46.5665ZM33.5045 38.7795C33.4527 38.7581 33.3676 38.6945 33.3158 38.6379C33.2222 38.5355 33.2214 38.4612 33.2095 28.6118L33.1973 18.6886L33.0723 18.5605C32.9541 18.4393 32.9215 18.4316 32.4709 18.4194L31.9946 18.4062V17.1547L35.4232 17.143L38.8516 17.131L38.997 17.2512L39.1427 17.3717V20.9491C39.1427 24.8798 39.1318 24.7326 39.4196 24.7326C39.5982 24.7326 39.6599 24.6595 40.6547 23.2728C43.2894 19.5988 44.7387 17.6004 44.8696 17.4618C45.1916 17.1201 45.0456 17.1338 48.3806 17.1325L51.3669 17.1315L51.4807 17.2436C51.6207 17.3811 51.6734 17.5685 51.6099 17.7028C51.5694 17.7878 50.2773 19.6727 45.7653 26.228C45.2727 26.9437 45.135 27.177 45.1361 27.2941C45.1374 27.4156 45.4578 27.888 46.8259 29.7849C52.8716 38.1665 52.8911 38.194 52.9097 38.3634C52.9237 38.4907 52.9004 38.5613 52.8099 38.6647L52.692 38.7996L49.5732 38.8121C46.4979 38.8243 46.451 38.8233 46.2247 38.7276C46.0984 38.6741 45.9424 38.5748 45.8781 38.5065C45.8138 38.4383 44.392 36.4946 42.7188 34.1877C41.0456 31.8808 39.6425 29.9657 39.6011 29.9321C39.4849 29.8373 39.2718 29.8824 39.2034 30.0164C39.157 30.107 39.1437 31.0514 39.1435 34.3357L39.1427 38.5394L39.0286 38.6692L38.9148 38.7994L36.257 38.8088C34.7948 38.8139 33.5564 38.8007 33.5045 38.7795ZM57.1882 38.7586C57.1099 38.7248 57.0197 38.6407 56.9878 38.5722C56.9427 38.4749 56.93 36.2699 56.93 28.5739V18.7006L56.792 18.5651C56.6588 18.4342 56.6388 18.4296 56.2022 18.4296H55.7504V17.1318H62.7317L62.8857 17.267L63.04 17.4022V38.5427L62.9091 38.6713L62.7784 38.7996L60.0547 38.8101C57.8731 38.8185 57.3025 38.808 57.1882 38.7589V38.7586ZM67.3335 38.7668C67.1867 38.684 67.1242 38.5809 67.1224 38.4194C67.1216 38.3379 67.7913 36.3041 68.6108 33.9004L71.5069 25.4047C72.1092 23.6364 72.7135 21.8688 73.3198 20.1018C73.5433 19.4539 73.7263 18.8671 73.7263 18.7976C73.7263 18.7281 73.6859 18.6221 73.6364 18.562C73.5558 18.464 73.4982 18.45 73.0821 18.4296L72.6175 18.4062L72.6046 17.769L72.5916 17.1315L76.7801 17.132C79.5297 17.132 81.0292 17.1488 81.1451 17.1804C81.242 17.2069 81.3447 17.2716 81.3735 17.3241C81.4326 17.4323 81.9024 18.7966 84.1161 25.2893C87.7176 35.8515 88.5413 38.2895 88.5413 38.3891C88.5413 38.5521 88.4479 38.7151 88.3214 38.7714C88.2416 38.807 87.4042 38.8228 85.5785 38.8228C83.1696 38.8228 82.9368 38.8159 82.7885 38.7418C82.6996 38.6973 82.5878 38.6084 82.5399 38.5442C82.4922 38.4803 82.1263 37.4269 81.7266 36.2037C77.9182 24.5434 78.0234 24.8615 77.9379 24.7677C77.8433 24.6643 77.7712 24.6651 77.6734 24.7713C77.5957 24.8559 77.4489 25.299 75.3783 31.7084C74.8994 33.1919 74.4193 34.6751 73.9382 36.1579C73.7471 36.7441 73.5026 37.5 73.3942 37.838C73.1817 38.5022 73.0873 38.6606 72.8472 38.7589C72.6398 38.8442 67.4833 38.8513 67.3335 38.7668Z" fill="#4A4B4F"/>
</svg>
