<svg width="120" height="56" viewBox="0 0 120 56" fill="none" xmlns="http://www.w3.org/2000/svg">
<path d="M57.6122 49.2947C54.7415 49.2204 51.5758 48.972 48.7735 48.6017C36.8428 47.025 26.8455 43.006 21.2799 37.5496C18.9197 35.2358 17.424 32.6934 16.9198 30.1382C16.7554 29.3059 16.7168 28.8979 16.7168 28.0005C16.7168 27.1027 16.7557 26.695 16.9198 25.8627C17.2514 24.1829 18.0387 22.4511 19.2004 20.8458C21.8282 17.2159 26.4387 13.9841 32.4881 11.5323C42.5709 7.44502 55.773 5.82604 68.6288 7.10019C83.7206 8.59565 96.1354 14.0057 101.062 21.2332C103.314 24.5374 103.866 28.1263 102.661 31.6337C101.965 33.6591 100.613 35.6833 98.7098 37.5493C93.4366 42.7192 84.1559 46.6178 73.0166 48.3425C68.0349 49.1142 62.8988 49.4312 57.6119 49.2945L57.6122 49.2947ZM64.1938 46.5666C70.2343 46.1994 75.3354 45.3271 80.3063 43.8115C84.2503 42.609 87.9264 40.9444 90.7489 39.0827C92.1714 38.1447 93.1581 37.3529 94.274 36.2543C95.5992 34.9496 96.4543 33.8048 97.1506 32.4036C97.9294 30.8358 98.2312 29.607 98.2312 28.0002C98.2312 26.3845 97.9097 25.0903 97.1208 23.5278C96.4387 22.1768 95.5684 21.0208 94.2742 19.7464C92.3731 17.875 90.1148 16.3314 87.1303 14.8637C81.5432 12.1163 74.5527 10.3188 66.7653 9.62709C62.4519 9.24405 57.5515 9.2438 53.2243 9.62658C42.2759 10.5951 32.8775 13.7877 27.0622 18.5138C26.3247 19.1133 25.01 20.4172 24.4588 21.0962C22.4883 23.5227 21.5578 26.1413 21.7699 28.6642C22.0006 31.4131 23.2608 33.8371 25.7157 36.2543C27.575 38.0854 29.7859 39.6073 32.661 41.0356C39.2084 44.2878 47.2535 46.1515 56.7157 46.6084C57.7843 46.6601 63.1524 46.63 64.1938 46.5669V46.5666ZM33.5026 38.7796C33.4507 38.7582 33.3657 38.6946 33.3138 38.638C33.2202 38.5357 33.2195 38.4613 33.2075 28.6119L33.1953 18.6887L33.0704 18.5606C32.9522 18.4394 32.9195 18.4318 32.4689 18.4195L31.9927 18.4063V17.1548L35.4213 17.1431L38.8496 17.1311L38.9951 17.2513L39.1408 17.3718V20.9492C39.1408 24.8799 39.1299 24.7327 39.4176 24.7327C39.5963 24.7327 39.658 24.6596 40.6527 23.2729C43.2875 19.5989 44.7367 17.6005 44.8676 17.462C45.1896 17.1202 45.0437 17.1339 48.3787 17.1327L51.365 17.1316L51.4788 17.2437C51.6188 17.3812 51.6714 17.5687 51.6079 17.7029C51.5675 17.7879 50.2753 19.6728 45.7633 26.2282C45.2708 26.9438 45.1331 27.1771 45.1341 27.2942C45.1354 27.4157 45.4559 27.8881 46.8239 29.785C52.8697 38.1666 52.8891 38.1941 52.9078 38.3635C52.9218 38.4908 52.8985 38.5614 52.808 38.6648L52.69 38.7998L49.5712 38.8122C46.496 38.8245 46.4491 38.8234 46.2227 38.7277C46.0965 38.6742 45.9404 38.5749 45.8761 38.5066C45.8118 38.4384 44.3901 36.4947 42.7169 34.1878C41.0437 31.881 39.6406 29.9658 39.5991 29.9322C39.483 29.8374 39.2699 29.8825 39.2014 30.0165C39.155 30.1071 39.1418 31.0515 39.1415 34.3358L39.1408 38.5395L39.0267 38.6694L38.9129 38.7995L36.255 38.8089C34.7928 38.814 33.5544 38.8008 33.5026 38.7796ZM57.1862 38.7588C57.1079 38.7249 57.0177 38.6408 56.9858 38.5723C56.9407 38.475 56.928 36.2701 56.928 28.574V18.7007L56.7901 18.5652C56.6568 18.4343 56.6369 18.4297 56.2003 18.4297H55.7484V17.1319H62.7298L62.8838 17.2671L63.038 17.4024V38.5428L62.9071 38.6714L62.7765 38.7998L60.0528 38.8102C57.8712 38.8186 57.3005 38.8082 57.1862 38.759V38.7588ZM67.3315 38.7669C67.1848 38.6841 67.1223 38.581 67.1205 38.4195C67.1197 38.338 67.7893 36.3042 68.6088 33.9006L71.5049 25.4048C72.1072 23.6365 72.7115 21.8689 73.3179 20.1019C73.5414 19.454 73.7244 18.8673 73.7244 18.7977C73.7244 18.7282 73.6839 18.6223 73.6344 18.5622C73.5538 18.4641 73.4962 18.4501 73.0801 18.4297L72.6156 18.4063L72.6026 17.7691L72.5896 17.1316L76.7781 17.1321C79.5277 17.1321 81.0272 17.149 81.1431 17.1805C81.2401 17.207 81.3428 17.2717 81.3715 17.3242C81.4306 17.4324 81.9004 18.7967 84.1141 25.2894C87.7157 35.8516 88.5393 38.2896 88.5393 38.3892C88.5393 38.5522 88.446 38.7152 88.3195 38.7715C88.2396 38.8071 87.4022 38.8229 85.5766 38.8229C83.1676 38.8229 82.9348 38.8161 82.7865 38.742C82.6976 38.6974 82.5859 38.6085 82.5379 38.5443C82.4902 38.4804 82.1244 37.4271 81.7246 36.2038C77.9162 24.5435 78.0215 24.8616 77.9359 24.7679C77.8413 24.6645 77.7692 24.6652 77.6715 24.7714C77.5937 24.856 77.447 25.2991 75.3763 31.7086C74.8974 33.192 74.4174 34.6752 73.9362 36.158C73.7451 36.7443 73.5007 37.5001 73.3923 37.8381C73.1797 38.5023 73.0853 38.6607 72.8453 38.759C72.6379 38.8443 67.4814 38.8515 67.3315 38.7669Z" fill="#C41230"/>
</svg>
