<svg width="121" height="56" viewBox="0 0 121 56" fill="none" xmlns="http://www.w3.org/2000/svg">
<path fill-rule="evenodd" clip-rule="evenodd" d="M25.8368 14.6655C25.8368 7.30249 40.7782 1.33374 59.2103 1.33374C77.642 1.33374 92.5837 7.30249 92.5837 14.6655C92.5837 22.0286 77.642 27.9973 59.2103 27.9973C40.7786 27.9973 25.8368 22.0289 25.8368 14.6655ZM66.6538 15.8329C66.6492 15.811 66.6382 15.7909 66.622 15.7754C66.6059 15.7599 66.5854 15.7496 66.5633 15.746C65.6028 15.6058 64.6382 15.4958 63.6707 15.4162C63.6137 15.4063 63.5735 15.3536 63.6111 15.2287C66.6956 11.9874 67.8671 7.86301 66.3076 4.63614C66.3093 4.62143 66.314 4.60722 66.3212 4.5943C66.3285 4.58138 66.3382 4.57002 66.3498 4.56086C66.3615 4.55169 66.3748 4.54491 66.3891 4.5409C66.4034 4.53689 66.4183 4.53572 66.433 4.53747C77.0473 5.82321 84.7971 9.87132 84.7971 14.6655C84.7971 20.4946 73.3418 25.2201 59.2106 25.2201C45.0794 25.2201 33.6238 20.495 33.6238 14.6655C33.6238 9.6125 42.2336 5.3883 53.7325 4.35341C53.7884 4.35531 53.8355 4.39819 53.8385 4.48623L51.3419 18.2157C51.2952 18.457 51.3026 18.7055 51.3633 18.9436C51.4241 19.1817 51.5369 19.4034 51.6935 19.5929C51.8501 19.7824 52.0467 19.9349 52.2693 20.0397C52.4918 20.1444 52.7348 20.1987 52.9809 20.1986L53.0702 20.2032C55.297 20.0874 57.6899 19.3933 59.9501 18.0901C60.5906 17.7208 61.2071 17.3114 61.7958 16.8643C61.8127 16.8505 61.8334 16.8419 61.8552 16.8398C61.877 16.8377 61.8989 16.8422 61.9182 16.8526C62.671 17.3531 63.1042 17.9391 63.1042 18.566C63.1042 19.4176 62.3046 20.1944 60.9894 20.7838C59.4614 21.4684 57.2373 21.8988 54.7608 21.8988C52.662 21.8988 50.7445 21.5895 49.2568 21.0734C49.2424 21.0708 49.2277 21.0711 49.2134 21.0743C49.1991 21.0774 49.1856 21.0834 49.1736 21.0918C49.1616 21.1002 49.1514 21.1108 49.1436 21.1232C49.1358 21.1355 49.1305 21.1493 49.128 21.1637L48.916 22.3276C48.9124 22.3553 48.9193 22.3834 48.9354 22.4062C48.9515 22.429 48.9757 22.445 49.003 22.4509C52.029 23.1541 55.509 23.5541 59.2129 23.5541C63.8205 23.5541 67.5567 22.0616 67.5567 20.2214C67.5567 19.5053 66.992 18.8423 66.0313 18.2996C65.1896 17.8875 64.6595 17.3531 64.7895 16.9949C64.9244 16.6234 65.7296 16.5638 66.6861 16.8211C66.7404 16.8283 66.7929 16.7957 66.8122 16.6985L66.6538 15.8329ZM59.2103 7.42963C59.2103 7.50173 59.208 7.57346 59.2034 7.64366C59.325 10.0903 57.8103 13.3635 55.0428 16.1274C54.4934 16.6769 53.9083 17.1898 53.2913 17.6624C53.267 17.678 53.2375 17.6833 53.2092 17.6772C53.1515 17.6651 53.1139 17.6101 53.1241 17.5425L55.8366 2.63125C55.8351 2.60368 55.8235 2.57763 55.8039 2.55815C55.7843 2.53866 55.7582 2.52711 55.7306 2.52575C40.7812 3.22782 29.174 8.39507 29.174 14.6655C29.174 21.4149 42.6216 26.8861 59.2103 26.8861C75.7993 26.8861 89.2469 21.4149 89.2469 14.6655C89.2469 7.91614 75.7997 2.44491 59.2103 2.44491C58.6847 2.44491 58.1618 2.4506 57.6374 2.46161C57.6126 2.46172 57.5885 2.4701 57.5689 2.48543C57.5494 2.50076 57.5355 2.52215 57.5295 2.54624L57.2122 4.28624C57.2046 4.33292 57.2266 4.37732 57.2654 4.40047C57.8459 4.66651 58.3377 5.09336 58.6825 5.63032C59.0272 6.16727 59.2104 6.79177 59.2103 7.42963ZM28.1058 34.6632V50.9919H37.1841V54.6662H22.5V34.6632H28.1058ZM50.0396 46.5609L47.4206 39.276L44.8024 46.5609H50.0396ZM50.982 34.6719L58.5935 54.6609H52.7627L51.0865 49.9407H43.7551L42.0793 54.6609H37.4003L44.9415 34.6719H50.982ZM64.8032 50.9805H67.3165C68.8179 50.9805 70.8084 50.719 72.1 48.9991C73.3909 47.2804 73.4266 45.2694 73.4266 44.4539C73.4266 43.4042 73.2867 41.2779 71.7861 39.7914C70.3888 38.4514 68.5732 38.3345 67.212 38.3345H64.8032V50.9805ZM59.2163 34.6632H67.421C69.7956 34.6632 73.3912 34.8962 76.1501 37.2567C78.3845 39.1508 79.4318 42.2395 79.4318 44.6288C79.4318 46.3768 78.8739 49.9608 75.8012 52.3797C73.3567 54.3026 70.599 54.6525 68.0149 54.6525H59.2167L59.2163 34.6632ZM89.9469 46.5518L87.3286 39.2673L84.71 46.5518H89.9469ZM90.8897 34.6632L98.5007 54.6521H92.67L90.9945 49.9316H83.6627L81.9862 54.6521H77.3076L84.8495 34.6628L90.8897 34.6632Z" fill="#56575B"/>
</svg>
