<svg width="120" height="56" viewBox="0 0 120 56" fill="none" xmlns="http://www.w3.org/2000/svg">
<path fill-rule="evenodd" clip-rule="evenodd" d="M25.3368 14.6655C25.3368 7.30249 40.2782 1.33374 58.7103 1.33374C77.142 1.33374 92.0837 7.30249 92.0837 14.6655C92.0837 22.0286 77.142 27.9973 58.7103 27.9973C40.2786 27.9973 25.3368 22.0289 25.3368 14.6655ZM66.1538 15.8329C66.1492 15.811 66.1382 15.7909 66.122 15.7754C66.1059 15.7599 66.0854 15.7496 66.0633 15.746C65.1028 15.6058 64.1382 15.4958 63.1707 15.4162C63.1137 15.4063 63.0735 15.3536 63.1111 15.2287C66.1956 11.9874 67.3671 7.86301 65.8076 4.63614C65.8093 4.62143 65.814 4.60722 65.8212 4.5943C65.8285 4.58138 65.8382 4.57002 65.8498 4.56086C65.8615 4.55169 65.8748 4.54491 65.8891 4.5409C65.9033 4.53689 65.9183 4.53572 65.933 4.53747C76.5473 5.82321 84.2971 9.87132 84.2971 14.6655C84.2971 20.4946 72.8418 25.2201 58.7106 25.2201C44.5794 25.2201 33.1238 20.495 33.1238 14.6655C33.1238 9.6125 41.7336 5.3883 53.2325 4.35341C53.2884 4.35531 53.3355 4.39819 53.3385 4.48623L50.8419 18.2157C50.7952 18.457 50.8026 18.7055 50.8633 18.9436C50.9241 19.1817 51.0369 19.4034 51.1935 19.5929C51.3501 19.7824 51.5467 19.9349 51.7693 20.0397C51.9918 20.1444 52.2348 20.1987 52.4809 20.1986L52.5702 20.2032C54.797 20.0874 57.1899 19.3933 59.4501 18.0901C60.0906 17.7208 60.7071 17.3114 61.2958 16.8643C61.3127 16.8505 61.3334 16.8419 61.3552 16.8398C61.377 16.8377 61.3989 16.8422 61.4182 16.8526C62.171 17.3531 62.6042 17.9391 62.6042 18.566C62.6042 19.4176 61.8046 20.1944 60.4894 20.7838C58.9614 21.4684 56.7373 21.8988 54.2608 21.8988C52.162 21.8988 50.2445 21.5895 48.7568 21.0734C48.7424 21.0708 48.7277 21.0711 48.7134 21.0743C48.6991 21.0774 48.6856 21.0834 48.6736 21.0918C48.6616 21.1002 48.6514 21.1108 48.6436 21.1232C48.6358 21.1355 48.6305 21.1493 48.628 21.1637L48.416 22.3276C48.4124 22.3553 48.4193 22.3833 48.4354 22.4062C48.4515 22.429 48.4756 22.445 48.503 22.4509C51.529 23.1541 55.009 23.5541 58.7129 23.5541C63.3205 23.5541 67.0567 22.0616 67.0567 20.2214C67.0567 19.5053 66.492 18.8423 65.5313 18.2996C64.6896 17.8875 64.1595 17.3531 64.2895 16.9949C64.4244 16.6234 65.2296 16.5638 66.1861 16.8211C66.2404 16.8283 66.2929 16.7957 66.3122 16.6985L66.1538 15.8329ZM58.7103 7.42963C58.7103 7.50173 58.708 7.57346 58.7034 7.64366C58.825 10.0903 57.3103 13.3635 54.5428 16.1274C53.9934 16.6769 53.4083 17.1898 52.7913 17.6624C52.767 17.678 52.7375 17.6833 52.7092 17.6772C52.6515 17.6651 52.6139 17.6101 52.6241 17.5425L55.3366 2.63125C55.3351 2.60368 55.3235 2.57763 55.3039 2.55815C55.2843 2.53866 55.2582 2.52711 55.2306 2.52575C40.2812 3.22782 28.674 8.39507 28.674 14.6655C28.674 21.4149 42.1216 26.8861 58.7103 26.8861C75.2993 26.8861 88.7469 21.4149 88.7469 14.6655C88.7469 7.91614 75.2997 2.44491 58.7103 2.44491C58.1847 2.44491 57.6618 2.4506 57.1374 2.46161C57.1126 2.46172 57.0885 2.4701 57.0689 2.48543C57.0494 2.50076 57.0355 2.52215 57.0295 2.54624L56.7122 4.28624C56.7046 4.33292 56.7266 4.37732 56.7654 4.40047C57.3459 4.66651 57.8377 5.09336 58.1825 5.63032C58.5272 6.16727 58.7104 6.79177 58.7103 7.42963ZM27.6058 34.6632V50.9919H36.6841V54.6662H22V34.6632H27.6058ZM49.5396 46.5609L46.9206 39.276L44.3024 46.5609H49.5396ZM50.482 34.6719L58.0935 54.6609H52.2627L50.5865 49.9407H43.2551L41.5793 54.6609H36.9003L44.4415 34.6719H50.482ZM64.3032 50.9805H66.8165C68.3179 50.9805 70.3084 50.719 71.6 48.9991C72.8909 47.2804 72.9266 45.2694 72.9266 44.4539C72.9266 43.4042 72.7867 41.2779 71.2861 39.7914C69.8888 38.4514 68.0732 38.3345 66.712 38.3345H64.3032V50.9805ZM58.7163 34.6632H66.921C69.2956 34.6632 72.8912 34.8962 75.6501 37.2567C77.8845 39.1508 78.9318 42.2395 78.9318 44.6288C78.9318 46.3768 78.3739 49.9608 75.3012 52.3797C72.8567 54.3026 70.099 54.6525 67.5149 54.6525H58.7167L58.7163 34.6632ZM89.4469 46.5518L86.8286 39.2673L84.21 46.5518H89.4469ZM90.3897 34.6632L98.0008 54.6521H92.17L90.4945 49.9316H83.1627L81.4862 54.6521H76.8076L84.3495 34.6628L90.3897 34.6632Z" fill="#005AA1"/>
</svg>
