<svg width="120" height="56" viewBox="0 0 120 56" fill="none" xmlns="http://www.w3.org/2000/svg">
<path d="M59.6446 3.06299C32.7787 3.06299 11 14.2348 11 28C11 41.7652 32.7787 52.937 59.6446 52.937C86.5104 52.937 108.289 41.7652 108.289 28C108.289 14.2348 86.5104 3.06299 59.6446 3.06299Z" fill="#58595B"/>
<path d="M59.6446 3.06299C32.7787 3.06299 11 14.2348 11 28C11 41.7652 32.7787 52.937 59.6446 52.937C86.5104 52.937 108.289 41.7652 108.289 28C108.289 14.2348 86.5104 3.06299 59.6446 3.06299Z" fill="#595A5C"/>
<path d="M59.6437 3.08252C32.7778 3.08252 11.0195 14.2343 11.0195 27.9996C11.0195 41.7648 32.7982 52.9166 59.6437 52.9166C86.5095 52.9366 108.268 41.7648 108.268 27.9996C108.268 14.2343 86.5095 3.08252 59.6437 3.08252Z" fill="#5A5B5D"/>
<path d="M59.6437 3.08252C32.7778 3.08252 11.0195 14.2343 11.0195 27.9996C11.0195 41.7648 32.7982 52.9166 59.6437 52.9166C86.4891 52.9166 108.268 41.7648 108.268 27.9996C108.268 14.2343 86.4891 3.08252 59.6437 3.08252Z" fill="#5B5C5E"/>
<path d="M59.6437 3.08252C32.7982 3.08252 11.0195 14.2343 11.0195 27.9996C11.0195 41.7648 32.7982 52.9166 59.6437 52.9166C86.4891 52.9166 108.268 41.7648 108.268 27.9996C108.268 14.2343 86.4891 3.08252 59.6437 3.08252Z" fill="#5C5C5F"/>
<path d="M59.6437 3.08252C32.7982 3.08252 11.0195 14.2343 11.0195 27.9996C11.0195 41.7648 32.7778 52.9166 59.6437 52.9166C86.4891 52.9166 108.268 41.7648 108.268 27.9996C108.268 14.2343 86.4891 3.08252 59.6437 3.08252Z" fill="#5C5D60"/>
<path d="M59.6428 3.10205C32.7973 3.10205 11.0391 14.2539 11.0391 27.9992C11.0391 41.7444 32.7973 52.8963 59.6428 52.8963C86.4882 52.8963 108.267 41.7444 108.267 27.9992C108.246 14.2539 86.4882 3.10205 59.6428 3.10205Z" fill="#5D5E60"/>
<path d="M59.6428 3.10205C32.7973 3.10205 11.0391 14.2539 11.0391 27.9992C11.0391 41.7444 32.7973 52.8963 59.6428 52.8963C86.4882 52.8963 108.246 41.7444 108.246 27.9992C108.246 14.2539 86.4882 3.10205 59.6428 3.10205Z" fill="#5E5F61"/>
<path d="M59.6428 3.10205C32.7973 3.10205 11.0391 14.2539 11.0391 27.9992C11.0391 41.7444 32.7973 52.8963 59.6428 52.8963C86.4882 52.8963 108.246 41.7444 108.246 27.9992C108.246 14.2539 86.4882 3.10205 59.6428 3.10205Z" fill="#5F6062"/>
<path d="M59.6438 3.10205C32.7984 3.10205 11.0605 14.2539 11.0605 27.9992C11.0605 41.7444 32.8188 52.8963 59.6643 52.8963C86.4893 52.8963 108.248 41.7444 108.248 27.9992C108.248 14.2539 86.4893 3.10205 59.6438 3.10205Z" fill="#606163"/>
<path d="M59.6438 3.12354C32.8188 3.12354 11.0605 14.2554 11.0605 28.0007C11.0605 41.746 32.8188 52.8778 59.6438 52.8778C86.4893 52.8978 108.248 41.746 108.248 28.0007C108.248 14.2554 86.4893 3.12354 59.6438 3.12354Z" fill="#616264"/>
<path d="M59.6438 3.12354C32.8188 3.12354 11.0605 14.2554 11.0605 28.0007C11.0605 41.746 32.8188 52.8778 59.6438 52.8778C86.4688 52.8778 108.227 41.746 108.227 28.0007C108.227 14.2554 86.4688 3.12354 59.6438 3.12354Z" fill="#616365"/>
<path d="M59.6438 3.12354C32.8188 3.12354 11.0605 14.2554 11.0605 28.0007C11.0605 41.746 32.8188 52.8778 59.6438 52.8778C86.4688 52.8778 108.227 41.746 108.227 28.0007C108.227 14.2554 86.4688 3.12354 59.6438 3.12354Z" fill="#626366"/>
<path d="M59.6429 3.12354C32.8179 3.12354 11.0801 14.2754 11.0801 28.0007C11.0801 41.726 32.8179 52.8778 59.6429 52.8778C86.4679 52.8778 108.226 41.746 108.226 28.0007C108.226 14.2554 86.4679 3.12354 59.6429 3.12354Z" fill="#636467"/>
<path d="M59.6429 3.14307C32.8179 3.14307 11.0801 14.2749 11.0801 28.0003C11.0801 41.7256 32.8179 52.8774 59.6429 52.8774C86.4679 52.8774 108.206 41.7455 108.206 28.0003C108.226 14.2749 86.4679 3.14307 59.6429 3.14307Z" fill="#646567"/>
<path d="M59.6429 3.14307C32.8384 3.14307 11.0801 14.2749 11.0801 28.0003C11.0801 41.7256 32.8179 52.8575 59.6429 52.8575C86.4679 52.8575 108.206 41.7256 108.206 28.0003C108.206 14.2749 86.4679 3.14307 59.6429 3.14307Z" fill="#656668"/>
<path d="M59.6459 3.14307C32.8414 3.14307 11.1035 14.2749 11.1035 28.0003C11.1035 41.7256 32.8414 52.8575 59.6664 52.8575C86.4914 52.8575 108.229 41.7256 108.229 28.0003C108.209 14.2749 86.4709 3.14307 59.6459 3.14307Z" fill="#666769"/>
<path d="M59.6459 3.14307C32.8414 3.14307 11.1035 14.2749 11.1035 28.0003C11.1035 41.7256 32.8414 52.8575 59.6459 52.8575C86.4505 52.8575 108.209 41.7256 108.209 28.0003C108.209 14.2749 86.4709 3.14307 59.6459 3.14307Z" fill="#66686A"/>
<path d="M59.6459 3.1626C32.8414 3.1626 11.1035 14.2745 11.1035 27.9998C11.1035 41.7252 32.8414 52.8371 59.6459 52.8371C86.4505 52.8371 108.188 41.7052 108.188 27.9998C108.209 14.2745 86.4709 3.1626 59.6459 3.1626Z" fill="#67686B"/>
<path d="M59.6459 3.1626C32.8414 3.1626 11.1035 14.2745 11.1035 27.9998C11.1035 41.7252 32.8414 52.8371 59.6459 52.8371C86.4505 52.8371 108.188 41.7252 108.188 27.9998C108.188 14.2745 86.4505 3.1626 59.6459 3.1626Z" fill="#68696C"/>
<path d="M59.6411 3.1626C32.8366 3.1626 11.1191 14.2945 11.1191 27.9998C11.1191 41.7252 32.857 52.8371 59.6616 52.8371C86.4661 52.8371 108.204 41.7252 108.204 27.9998C108.184 14.2945 86.4457 3.1626 59.6411 3.1626Z" fill="#696A6C"/>
<path d="M59.6411 3.1626C32.857 3.1626 11.1191 14.2945 11.1191 27.9998C11.1191 41.7052 32.857 52.8371 59.6411 52.8371C86.4457 52.8371 108.184 41.7252 108.184 27.9998C108.184 14.2945 86.4457 3.1626 59.6411 3.1626Z" fill="#6A6B6D"/>
<path d="M59.6411 3.18311C32.857 3.18311 11.1191 14.295 11.1191 28.0004C11.1191 41.7058 32.8366 52.8377 59.6411 52.8377C86.4457 52.8377 108.163 41.7257 108.163 28.0004C108.184 14.295 86.4457 3.18311 59.6411 3.18311Z" fill="#6A6C6E"/>
<path d="M59.6461 3.18213C32.862 3.18213 11.1445 14.2941 11.1445 27.9994C11.1445 41.7048 32.862 52.8167 59.6665 52.8167C86.4711 52.8167 108.189 41.7048 108.189 27.9994C108.189 14.2941 86.4507 3.18213 59.6461 3.18213Z" fill="#6B6C6F"/>
<path d="M59.6461 3.18213C32.862 3.18213 11.1445 14.2941 11.1445 27.9994C11.1445 41.7048 32.862 52.8167 59.6665 52.8167C86.4711 52.8167 108.189 41.7048 108.189 27.9994C108.168 14.2941 86.4507 3.18213 59.6461 3.18213Z" fill="#6C6D70"/>
<path d="M59.6461 3.18213C32.862 3.18213 11.1445 14.2941 11.1445 27.9994C11.1445 41.7048 32.862 52.8167 59.6461 52.8167C86.4302 52.8167 108.168 41.7048 108.168 27.9994C108.168 14.2941 86.4507 3.18213 59.6461 3.18213Z" fill="#6D6E70"/>
<path d="M59.6665 3.20264C32.862 3.20264 11.1445 14.2946 11.1445 28C11.1445 41.7054 32.862 52.8173 59.6461 52.8173C86.4302 52.8173 108.168 41.7054 108.168 28C108.168 14.2946 86.4507 3.20264 59.6665 3.20264Z" fill="#6D6F71"/>
<path d="M59.6617 3.20264C32.8776 3.20264 11.1602 14.3146 11.1602 28C11.1602 41.7054 32.8776 52.7973 59.6617 52.7973C86.4459 52.7973 108.163 41.6854 108.163 28C108.163 14.3146 86.4459 3.20264 59.6617 3.20264Z" fill="#6E7072"/>
<path d="M59.6617 3.20264C32.8776 3.20264 11.1602 14.3146 11.1602 28C11.1602 41.6854 32.8776 52.7973 59.6617 52.7973C86.4459 52.7973 108.143 41.7054 108.143 28C108.143 14.3146 86.4254 3.20264 59.6617 3.20264Z" fill="#6F7073"/>
<path d="M59.6617 3.20264C32.8776 3.20264 11.1602 14.3146 11.1602 28C11.1602 41.6854 32.8776 52.7973 59.6413 52.7973C86.4254 52.7973 108.143 41.7054 108.143 28C108.143 14.3146 86.4254 3.20264 59.6617 3.20264Z" fill="#707174"/>
<path d="M59.6647 3.22217C32.8806 3.22217 11.1836 14.3141 11.1836 27.9996C11.1836 41.685 32.901 52.7969 59.6647 52.7969C86.4489 52.7969 108.146 41.7049 108.146 27.9996C108.146 14.3141 86.4284 3.22217 59.6647 3.22217Z" fill="#717275"/>
<path d="M59.6647 3.22217C32.8806 3.22217 11.1836 14.3141 11.1836 27.9996C11.1836 41.685 32.8806 52.777 59.6647 52.777C86.4489 52.777 108.146 41.685 108.146 27.9996C108.146 14.3141 86.4284 3.22217 59.6647 3.22217Z" fill="#717375"/>
<path d="M59.6647 3.22217C32.8806 3.22217 11.1836 14.3141 11.1836 27.9996C11.1836 41.685 32.8806 52.777 59.6647 52.777C86.4284 52.777 108.146 41.685 108.146 27.9996C108.125 14.3141 86.4284 3.22217 59.6647 3.22217Z" fill="#727476"/>
<path d="M59.6647 3.22217C32.901 3.22217 11.1836 14.3141 11.1836 27.9996C11.1836 41.685 32.8806 52.777 59.6443 52.777C86.408 52.777 108.125 41.685 108.125 27.9996C108.125 14.3141 86.4284 3.22217 59.6647 3.22217Z" fill="#737477"/>
<path d="M59.6638 3.24268C32.9001 3.24268 11.2031 14.3347 11.2031 28.0001C11.2031 41.6856 32.9001 52.7775 59.6638 52.7775C86.4275 52.7775 108.125 41.6856 108.125 28.0001C108.125 14.3347 86.4275 3.24268 59.6638 3.24268Z" fill="#747578"/>
<path d="M59.6638 3.24268C32.9001 3.24268 11.2031 14.3347 11.2031 28.0001C11.2031 41.6656 32.9001 52.7576 59.6638 52.7576C86.4275 52.7576 108.125 41.6656 108.125 28.0001C108.125 14.3347 86.4275 3.24268 59.6638 3.24268Z" fill="#747678"/>
<path d="M59.6638 3.24268C32.9001 3.24268 11.2031 14.3347 11.2031 28.0001C11.2031 41.6656 32.9001 52.7576 59.6638 52.7576C86.4275 52.7576 108.125 41.6656 108.125 28.0001C108.104 14.3347 86.4275 3.24268 59.6638 3.24268Z" fill="#757779"/>
<path d="M59.6649 3.24268C32.9012 3.24268 11.2246 14.3347 11.2246 28.0001C11.2246 41.6656 32.9216 52.7576 59.6649 52.7576C86.4286 52.7576 108.126 41.6656 108.126 28.0001C108.105 14.3347 86.4082 3.24268 59.6649 3.24268Z" fill="#76777A"/>
<path d="M59.6649 3.26221C32.9012 3.26221 11.2246 14.3342 11.2246 27.9997C11.2246 41.6652 32.9216 52.7572 59.6649 52.7572C86.4286 52.7572 108.105 41.6652 108.105 27.9997C108.105 14.3342 86.4082 3.26221 59.6649 3.26221Z" fill="#77787B"/>
<path d="M59.6649 3.26221C32.9216 3.26221 11.2246 14.3342 11.2246 27.9997C11.2246 41.6652 32.9012 52.7372 59.6649 52.7372C86.4286 52.7372 108.105 41.6652 108.105 27.9997C108.105 14.3342 86.4082 3.26221 59.6649 3.26221Z" fill="#77797C"/>
<path d="M59.6649 3.26221C32.9216 3.26221 11.2246 14.3342 11.2246 27.9997C11.2246 41.6652 32.9012 52.7372 59.6445 52.7372C86.3877 52.7372 108.085 41.6652 108.085 27.9997C108.105 14.3342 86.4082 3.26221 59.6649 3.26221Z" fill="#787A7C"/>
<path d="M59.6679 3.26221C32.9246 3.26221 11.248 14.3542 11.248 27.9997C11.248 41.6652 32.9246 52.7372 59.6679 52.7372C86.4112 52.7372 108.088 41.6652 108.088 27.9997C108.088 14.3542 86.4112 3.26221 59.6679 3.26221Z" fill="#797B7D"/>
<path d="M59.6679 3.28271C32.9246 3.28271 11.248 14.3547 11.248 28.0202C11.248 41.6857 32.9246 52.7577 59.6679 52.7577C86.4112 52.7577 108.088 41.6857 108.088 28.0202C108.088 14.3547 86.4112 3.28271 59.6679 3.28271Z" fill="#7A7B7E"/>
<path d="M59.6679 3.28271C32.9246 3.28271 11.248 14.3547 11.248 28.0202C11.248 41.6657 32.9246 52.7378 59.6679 52.7378C86.4112 52.7378 108.088 41.6657 108.088 28.0202C108.088 14.3547 86.4112 3.28271 59.6679 3.28271Z" fill="#7A7C7F"/>
<path d="M59.6679 3.28271C32.9246 3.28271 11.248 14.3547 11.248 28.0202C11.248 41.6657 32.9246 52.7378 59.6679 52.7378C86.4112 52.7378 108.088 41.6657 108.088 28.0202C108.088 14.3547 86.4112 3.28271 59.6679 3.28271Z" fill="#7B7D7F"/>
<path d="M59.6631 3.28271C32.9402 3.28271 11.2637 14.3547 11.2637 28.0202C11.2637 41.6657 32.9402 52.7378 59.6631 52.7378C86.3859 52.7378 108.063 41.6657 108.063 28.0202C108.063 14.3547 86.3859 3.28271 59.6631 3.28271Z" fill="#7C7E80"/>
<path d="M59.6631 3.30225C32.9402 3.30225 11.2637 14.3543 11.2637 28.0198C11.2637 41.6653 32.9402 52.7374 59.6631 52.7374C86.3859 52.7374 108.063 41.6653 108.063 28.0198C108.063 14.3543 86.3859 3.30225 59.6631 3.30225Z" fill="#7D7E81"/>
<path d="M59.6631 3.30225C32.9402 3.30225 11.2637 14.3543 11.2637 28.0198C11.2637 41.6653 32.9402 52.7174 59.6631 52.7174C86.3859 52.7174 108.063 41.6454 108.063 28.0198C108.063 14.3543 86.3859 3.30225 59.6631 3.30225Z" fill="#7D7F82"/>
<path d="M59.6622 3.30225C32.9393 3.30225 11.2832 14.3743 11.2832 28.0198C11.2832 41.6653 32.9393 52.7174 59.6622 52.7174C86.385 52.7174 108.062 41.6653 108.062 28.0198C108.062 14.3743 86.385 3.30225 59.6622 3.30225Z" fill="#7E8082"/>
<path d="M59.6622 3.30225C32.9393 3.30225 11.2832 14.3743 11.2832 28.0198C11.2832 41.6653 32.9393 52.7174 59.6622 52.7174C86.385 52.7174 108.041 41.6454 108.041 28.0198C108.041 14.3743 86.385 3.30225 59.6622 3.30225Z" fill="#7F8183"/>
<path d="M59.6622 3.32275C32.9393 3.32275 11.2832 14.3748 11.2832 28.0204C11.2832 41.6659 32.9393 52.718 59.6622 52.718C86.385 52.698 108.041 41.6459 108.041 28.0204C108.041 14.3748 86.385 3.32275 59.6622 3.32275Z" fill="#808184"/>
<path d="M59.6622 3.32275C32.9598 3.32275 11.2832 14.3748 11.2832 28.0204C11.2832 41.6459 32.9393 52.698 59.6622 52.698C86.385 52.698 108.041 41.6459 108.041 28.0204C108.041 14.3748 86.385 3.32275 59.6622 3.32275Z" fill="#808285"/>
<path d="M59.6671 3.32275C32.9647 3.32275 11.3086 14.3748 11.3086 28.0204C11.3086 41.6459 32.9647 52.698 59.6671 52.698C86.39 52.698 108.046 41.6459 108.046 28.0204C108.046 14.3748 86.39 3.32275 59.6671 3.32275Z" fill="#818385"/>
<path d="M59.6671 3.32275C32.9647 3.32275 11.3086 14.3748 11.3086 28.0204C11.3086 41.6459 32.9647 52.698 59.6671 52.698C86.3696 52.698 108.046 41.6459 108.046 28.0204C108.046 14.3748 86.39 3.32275 59.6671 3.32275Z" fill="#828486"/>
<path d="M59.6671 3.34204C32.9647 3.34204 11.3086 14.3742 11.3086 28.0197C11.3086 41.6453 32.9647 52.6974 59.6671 52.6974C86.3696 52.6974 108.026 41.6453 108.026 28.0197C108.026 14.3742 86.3696 3.34204 59.6671 3.34204Z" fill="#828487"/>
<path d="M59.6662 3.34204C32.9638 3.34204 11.3281 14.3941 11.3281 28.0197C11.3281 41.6453 32.9843 52.6974 59.6867 52.6974C86.3891 52.6974 108.045 41.6453 108.045 28.0197C108.025 14.3941 86.3687 3.34204 59.6662 3.34204Z" fill="#838588"/>
<path d="M59.6662 3.34204C32.9638 3.34204 11.3281 14.3941 11.3281 28.0197C11.3281 41.6453 32.9843 52.6774 59.6662 52.6774C86.3687 52.6774 108.025 41.6253 108.025 28.0197C108.025 14.3941 86.3687 3.34204 59.6662 3.34204Z" fill="#848688"/>
<path d="M59.6662 3.34204C32.9843 3.34204 11.3281 14.3941 11.3281 28.0197C11.3281 41.6453 32.9638 52.6774 59.6662 52.6774C86.3687 52.6774 108.004 41.6453 108.004 28.0197C108.025 14.3941 86.3687 3.34204 59.6662 3.34204Z" fill="#858789"/>
<path d="M59.6662 3.36194C32.9843 3.36194 11.3281 14.3941 11.3281 28.0196C11.3281 41.6253 32.9638 52.6774 59.6662 52.6774C86.3687 52.6774 108.004 41.6452 108.004 28.0196C108.004 14.3941 86.3687 3.36194 59.6662 3.36194Z" fill="#85878A"/>
<path d="M59.6654 3.36182C32.9834 3.36182 11.3477 14.3939 11.3477 28.0195C11.3477 41.6252 32.9834 52.6772 59.6858 52.6772C86.3678 52.6772 108.024 41.6451 108.024 28.0195C108.003 14.3939 86.3678 3.36182 59.6654 3.36182Z" fill="#86888B"/>
<path d="M59.6653 3.36182C32.9834 3.36182 11.3477 14.3939 11.3477 28.0195C11.3477 41.6252 32.9834 52.6573 59.6653 52.6573C86.3473 52.6573 108.003 41.6252 108.003 28.0195C108.003 14.3939 86.3678 3.36182 59.6653 3.36182Z" fill="#87898B"/>
<path d="M59.6653 3.36182C32.9834 3.36182 11.3477 14.3939 11.3477 28.0195C11.3477 41.6252 32.9834 52.6573 59.6653 52.6573C86.3473 52.6573 107.983 41.6252 107.983 28.0195C108.003 14.3939 86.3678 3.36182 59.6653 3.36182Z" fill="#888A8C"/>
<path d="M59.6644 3.38232C32.9825 3.38232 11.3672 14.4145 11.3672 28.0201C11.3672 41.6257 33.0029 52.6578 59.6849 52.6578C86.3669 52.6578 108.003 41.6257 108.003 28.0201C107.982 14.4145 86.3464 3.38232 59.6644 3.38232Z" fill="#888A8D"/>
<path d="M59.6644 3.38232C33.0029 3.38232 11.3672 14.4145 11.3672 28.0201C11.3672 41.6257 33.0029 52.6578 59.6849 52.6578C86.3669 52.6578 108.003 41.6257 108.003 28.0201C107.982 14.4145 86.3464 3.38232 59.6644 3.38232Z" fill="#898B8E"/>
<path d="M59.6644 3.38232C33.0029 3.38232 11.3672 14.4145 11.3672 28.0201C11.3672 41.6257 33.0029 52.6379 59.6644 52.6379C86.3464 52.6379 107.962 41.6058 107.962 28.0201C107.982 14.4145 86.3464 3.38232 59.6644 3.38232Z" fill="#8A8C8E"/>
<path d="M59.6644 3.40283C33.0029 3.40283 11.3672 14.415 11.3672 28.0206C11.3672 41.6063 32.9825 52.6384 59.6644 52.6384C86.3464 52.6384 107.962 41.6063 107.962 28.0206C107.982 14.415 86.3464 3.40283 59.6644 3.40283Z" fill="#8B8D8F"/>
<path d="M59.6859 3.40283C33.0039 3.40283 11.3887 14.415 11.3887 28.0206C11.3887 41.6063 33.0039 52.6384 59.6859 52.6384C86.3475 52.6384 107.983 41.6263 107.983 28.0206C107.983 14.415 86.3475 3.40283 59.6859 3.40283Z" fill="#8B8D90"/>
<path d="M59.6859 3.40283C33.0039 3.40283 11.3887 14.415 11.3887 28.0206C11.3887 41.6063 33.0039 52.6384 59.6859 52.6384C86.3475 52.6384 107.983 41.6263 107.983 28.0206C107.963 14.415 86.3475 3.40283 59.6859 3.40283Z" fill="#8C8E91"/>
<path d="M59.6859 3.40283C33.0039 3.40283 11.3887 14.415 11.3887 28.0206C11.3887 41.6063 33.0039 52.6185 59.6655 52.6185C86.3271 52.6185 107.963 41.6063 107.963 28.0206C107.963 14.415 86.3475 3.40283 59.6859 3.40283Z" fill="#8D8F92"/>
<path d="M59.685 3.40283C33.0235 3.40283 11.4082 14.435 11.4082 28.0206C11.4082 41.6063 33.0235 52.6185 59.685 52.6185C86.3466 52.6185 107.962 41.6063 107.962 28.0206C107.962 14.435 86.3466 3.40283 59.685 3.40283Z" fill="#8E9092"/>
<path d="M59.685 3.42236C33.0235 3.42236 11.4082 14.4345 11.4082 28.0202C11.4082 41.6059 33.0235 52.6181 59.685 52.6181C86.3466 52.6181 107.962 41.6059 107.962 28.0202C107.962 14.4345 86.3466 3.42236 59.685 3.42236Z" fill="#8E9093"/>
<path d="M59.685 3.42236C33.0235 3.42236 11.4082 14.4345 11.4082 28.0202C11.4082 41.6059 33.0235 52.6181 59.685 52.6181C86.3466 52.6181 107.962 41.6059 107.962 28.0202C107.941 14.4345 86.3262 3.42236 59.685 3.42236Z" fill="#8F9194"/>
<path d="M59.685 3.42236C33.0235 3.42236 11.4082 14.4345 11.4082 28.0202C11.4082 41.6059 33.0235 52.5981 59.6646 52.5981C86.3262 52.5981 107.921 41.5859 107.921 28.0202C107.941 14.4345 86.3262 3.42236 59.685 3.42236Z" fill="#909295"/>
<path d="M59.688 3.44287C33.0265 3.44287 11.4316 14.4351 11.4316 28.0208C11.4316 41.5865 33.0469 52.5987 59.688 52.5987C86.3292 52.5987 107.944 41.5865 107.944 28.0208C107.944 14.4351 86.3292 3.44287 59.688 3.44287Z" fill="#919395"/>
<path d="M59.688 3.44287C33.0265 3.44287 11.4316 14.4351 11.4316 28.0208C11.4316 41.5865 33.0265 52.5987 59.688 52.5987C86.3292 52.5987 107.944 41.5865 107.944 28.0208C107.944 14.4351 86.3292 3.44287 59.688 3.44287Z" fill="#919396"/>
<path d="M59.688 3.44287C33.0469 3.44287 11.4316 14.4351 11.4316 28.0208C11.4316 41.5865 33.0265 52.5987 59.6676 52.5987C86.3087 52.5987 107.924 41.5865 107.924 28.0208C107.924 14.455 86.3292 3.44287 59.688 3.44287Z" fill="#929497"/>
<path d="M59.6832 3.44287C33.0421 3.44287 11.4473 14.4551 11.4473 28.0208C11.4473 41.5865 33.0421 52.5787 59.6832 52.5787C86.3244 52.5787 107.919 41.5865 107.919 28.0208C107.919 14.4551 86.3244 3.44287 59.6832 3.44287Z" fill="#939598"/>
<path d="M59.6832 3.46143C33.0421 3.46143 11.4473 14.4537 11.4473 28.0194C11.4473 41.5851 33.0421 52.5773 59.6832 52.5773C86.3244 52.5773 107.919 41.5851 107.919 28.0194C107.919 14.4537 86.3244 3.46143 59.6832 3.46143Z" fill="#949698"/>
<path d="M59.6832 3.46143C33.0421 3.46143 11.4473 14.4537 11.4473 28.0194C11.4473 41.5851 33.0421 52.5773 59.6832 52.5773C86.3244 52.5773 107.919 41.5851 107.919 28.0194C107.919 14.4537 86.3244 3.46143 59.6832 3.46143Z" fill="#949699"/>
<path d="M59.6832 3.46143C33.0421 3.46143 11.4473 14.4537 11.4473 28.0194C11.4473 41.5851 33.0421 52.5773 59.6628 52.5773C86.3039 52.5773 107.899 41.5851 107.899 28.0194C107.919 14.4537 86.3244 3.46143 59.6832 3.46143Z" fill="#95979A"/>
<path d="M59.6882 3.46143C33.0471 3.46143 11.4727 14.4537 11.4727 28.0194C11.4727 41.5851 33.0675 52.5574 59.6882 52.5574C86.3089 52.5574 107.904 41.5652 107.904 28.0194C107.904 14.4537 86.3089 3.46143 59.6882 3.46143Z" fill="#96989B"/>
<path d="M59.6882 3.48193C33.0675 3.48193 11.4727 14.4742 11.4727 28.0199C11.4727 41.5657 33.0675 52.5579 59.6882 52.5579C86.3089 52.5579 107.904 41.5657 107.904 28.0199C107.904 14.4542 86.3089 3.48193 59.6882 3.48193Z" fill="#97999B"/>
<path d="M59.6882 3.48193C33.0675 3.48193 11.4727 14.4742 11.4727 28.0199C11.4727 41.5657 33.0471 52.5579 59.6882 52.5579C86.3089 52.5579 107.904 41.5657 107.904 28.0199C107.904 14.4542 86.3089 3.48193 59.6882 3.48193Z" fill="#979A9C"/>
<path d="M59.6834 3.48096C33.0627 3.48096 11.4883 14.4732 11.4883 28.019C11.4883 41.5647 33.0627 52.557 59.6834 52.557C86.3041 52.557 107.899 41.5647 107.899 28.019C107.899 14.4732 86.3041 3.48096 59.6834 3.48096Z" fill="#989A9D"/>
<path d="M59.6834 3.48096C33.0627 3.48096 11.4883 14.4732 11.4883 28.019C11.4883 41.5647 33.0627 52.537 59.6834 52.537C86.3041 52.537 107.879 41.5448 107.879 28.019C107.879 14.4732 86.3041 3.48096 59.6834 3.48096Z" fill="#999B9E"/>
<path d="M59.6834 3.50146C33.0627 3.50146 11.4883 14.4737 11.4883 28.0195C11.4883 41.5653 33.0627 52.5376 59.6834 52.5376C86.3041 52.5376 107.879 41.5653 107.879 28.0195C107.879 14.4737 86.3041 3.50146 59.6834 3.50146Z" fill="#9A9C9E"/>
<path d="M59.6834 3.50146C33.0627 3.50146 11.4883 14.4737 11.4883 28.0195C11.4883 41.5653 33.0627 52.5376 59.6834 52.5376C86.3041 52.5376 107.879 41.5653 107.879 28.0195C107.879 14.4737 86.3041 3.50146 59.6834 3.50146Z" fill="#9B9D9F"/>
<path d="M59.6864 3.50146C33.0861 3.50146 11.5117 14.4737 11.5117 28.0195C11.5117 41.5454 33.0861 52.5376 59.6864 52.5376C86.2867 52.5376 107.882 41.5653 107.882 28.0195C107.882 14.4737 86.3071 3.50146 59.6864 3.50146Z" fill="#9B9DA0"/>
<path d="M59.6864 3.50146C33.0861 3.50146 11.5117 14.4737 11.5117 28.0195C11.5117 41.5454 33.0861 52.5376 59.6864 52.5376C86.2867 52.5376 107.861 41.5653 107.861 28.0195C107.861 14.4737 86.2867 3.50146 59.6864 3.50146Z" fill="#9C9EA1"/>
<path d="M59.6864 3.52197C33.0861 3.52197 11.5117 14.4743 11.5117 28.0201C11.5117 41.5459 33.0861 52.5182 59.6864 52.5182C86.2867 52.5182 107.861 41.5459 107.861 28.0201C107.861 14.4743 86.2867 3.52197 59.6864 3.52197Z" fill="#9D9FA2"/>
<path d="M59.6855 3.52197C33.0852 3.52197 11.5312 14.4943 11.5312 28.0201C11.5312 41.5459 33.1057 52.5182 59.7059 52.5182C86.3062 52.5182 107.881 41.5459 107.881 28.0201C107.86 14.4943 86.2858 3.52197 59.6855 3.52197Z" fill="#9EA0A2"/>
<path d="M59.6855 3.52197C33.0852 3.52197 11.5312 14.4943 11.5312 28.0201C11.5312 41.5459 33.0852 52.5182 59.6855 52.5182C86.2858 52.5182 107.86 41.5459 107.86 28.0201C107.86 14.4943 86.2858 3.52197 59.6855 3.52197Z" fill="#9EA1A3"/>
<path d="M59.6855 3.52197C33.1057 3.52197 11.5312 14.4943 11.5312 28.0201C11.5312 41.5459 33.0852 52.5182 59.6855 52.5182C86.2858 52.5182 107.84 41.5459 107.84 28.0201C107.84 14.4943 86.2858 3.52197 59.6855 3.52197Z" fill="#9FA1A4"/>
<path d="M59.6855 3.5415C33.1057 3.5415 11.5312 14.4938 11.5312 28.0197C11.5312 41.5455 33.0852 52.4978 59.6855 52.4978C86.2858 52.4978 107.84 41.5255 107.84 28.0197C107.84 14.4938 86.2858 3.5415 59.6855 3.5415Z" fill="#A0A2A5"/>
<path d="M59.6866 3.5415C33.1067 3.5415 11.5527 14.4938 11.5527 28.0197C11.5527 41.5455 33.1067 52.4978 59.707 52.4978C86.2868 52.4978 107.861 41.5455 107.861 28.0197C107.841 14.4938 86.2868 3.5415 59.6866 3.5415Z" fill="#A1A3A5"/>
<path d="M59.6866 3.5415C33.1067 3.5415 11.5527 14.4938 11.5527 28.0197C11.5527 41.5255 33.1067 52.4978 59.6866 52.4978C86.2664 52.4978 107.82 41.5455 107.82 28.0197C107.841 14.4938 86.2868 3.5415 59.6866 3.5415Z" fill="#A2A4A6"/>
<path d="M59.6866 3.5415C33.1067 3.5415 11.5527 14.5138 11.5527 28.0197C11.5527 41.5255 33.1067 52.4978 59.6866 52.4978C86.2664 52.4978 107.82 41.5455 107.82 28.0197C107.841 14.5138 86.2664 3.5415 59.6866 3.5415Z" fill="#A2A4A7"/>
<path d="M59.6857 3.56104C33.1058 3.56104 11.5723 14.5134 11.5723 28.0192C11.5723 41.5251 33.1262 52.4775 59.7061 52.4775C86.2859 52.4775 107.84 41.5251 107.84 28.0192C107.819 14.5134 86.2655 3.56104 59.6857 3.56104Z" fill="#A3A5A8"/>
<path d="M59.6857 3.56104C33.1262 3.56104 11.5723 14.5134 11.5723 28.0192C11.5723 41.5251 33.1262 52.4775 59.7061 52.4775C86.2859 52.4775 107.84 41.5251 107.84 28.0192C107.819 14.5134 86.2655 3.56104 59.6857 3.56104Z" fill="#A4A6A9"/>
<path d="M59.6857 3.56104C33.1262 3.56104 11.5723 14.5134 11.5723 28.0192C11.5723 41.5251 33.1262 52.4775 59.6857 52.4775C86.2451 52.4775 107.799 41.5251 107.799 28.0192C107.819 14.5134 86.2655 3.56104 59.6857 3.56104Z" fill="#A5A7A9"/>
<path d="M59.6857 3.56104C33.1262 3.56104 11.5723 14.5134 11.5723 28.0192C11.5723 41.5251 33.1058 52.4775 59.6857 52.4775C86.2655 52.4775 107.799 41.5251 107.799 28.0192C107.819 14.5134 86.2655 3.56104 59.6857 3.56104Z" fill="#A5A8AA"/>
<path d="M59.6848 3.58154C33.1254 3.58154 11.5918 14.5139 11.5918 28.0198C11.5918 41.5257 33.1253 52.4581 59.7052 52.4581C86.2646 52.4581 107.819 41.5057 107.819 28.0198C107.798 14.5139 86.2646 3.58154 59.6848 3.58154Z" fill="#A6A8AB"/>
<path d="M59.6847 3.58154C33.1253 3.58154 11.5918 14.5139 11.5918 28.0198C11.5918 41.5257 33.1253 52.4581 59.6847 52.4581C86.2442 52.4581 107.798 41.5057 107.798 28.0198C107.798 14.5139 86.2646 3.58154 59.6847 3.58154Z" fill="#A7A9AC"/>
<path d="M59.6848 3.58154C33.1253 3.58154 11.5918 14.5139 11.5918 28.0198C11.5918 41.5057 33.1253 52.4581 59.6848 52.4581C86.2442 52.4581 107.778 41.5257 107.778 28.0198C107.798 14.5139 86.2646 3.58154 59.6848 3.58154Z" fill="#A8AAAD"/>
<path d="M59.6839 3.58154C33.1449 3.58154 11.6113 14.5339 11.6113 28.0198C11.6113 41.5057 33.1449 52.4581 59.7043 52.4581C86.2637 52.4581 107.797 41.5257 107.797 28.0198C107.797 14.5339 86.2637 3.58154 59.6839 3.58154Z" fill="#A9ABAD"/>
<path d="M59.7043 3.60229C33.1449 3.60229 11.6113 14.5347 11.6113 28.0206C11.6113 41.5065 33.1449 52.4389 59.7043 52.4389C86.2637 52.4389 107.797 41.5065 107.797 28.0206C107.777 14.5347 86.2433 3.60229 59.7043 3.60229Z" fill="#A9ACAE"/>
<path d="M59.7043 3.60229C33.1449 3.60229 11.6113 14.5347 11.6113 28.0206C11.6113 41.5065 33.1449 52.4389 59.6839 52.4389C86.2433 52.4389 107.777 41.5065 107.777 28.0206C107.777 14.5347 86.2433 3.60229 59.7043 3.60229Z" fill="#AAACAF"/>
<path d="M59.7043 3.60229C33.1449 3.60229 11.6113 14.5347 11.6113 28.0206C11.6113 41.5065 33.1449 52.4389 59.6839 52.4389C86.2433 52.4389 107.756 41.5065 107.756 28.0206C107.777 14.5347 86.2433 3.60229 59.7043 3.60229Z" fill="#ABADB0"/>
<path d="M59.7053 3.60205C33.1459 3.60205 11.6328 14.5344 11.6328 28.0204C11.6328 41.5063 33.1459 52.4387 59.7053 52.4387C86.2443 52.4387 107.778 41.5063 107.778 28.0204C107.778 14.5344 86.2443 3.60205 59.7053 3.60205Z" fill="#ACAEB0"/>
<path d="M59.7053 3.62158C33.1459 3.62158 11.6328 14.534 11.6328 28.0199C11.6328 41.5059 33.1459 52.4183 59.7053 52.4183C86.2443 52.4183 107.778 41.4859 107.778 28.0199C107.778 14.534 86.2443 3.62158 59.7053 3.62158Z" fill="#ADAFB1"/>
<path d="M59.7053 3.62158C33.1664 3.62158 11.6328 14.534 11.6328 28.0199C11.6328 41.4859 33.1459 52.4183 59.6849 52.4183C86.2239 52.4183 107.757 41.4859 107.757 28.0199C107.757 14.534 86.2443 3.62158 59.7053 3.62158Z" fill="#AEB0B2"/>
<path d="M59.7083 3.62158C33.1694 3.62158 11.6562 14.554 11.6562 28.0199C11.6562 41.4859 33.1694 52.4183 59.7083 52.4183C86.2473 52.4183 107.76 41.4859 107.76 28.0199C107.76 14.554 86.2473 3.62158 59.7083 3.62158Z" fill="#AEB0B3"/>
<path d="M59.7083 3.62158C33.1694 3.62158 11.6562 14.554 11.6562 28.0199C11.6562 41.4859 33.1694 52.4183 59.7083 52.4183C86.2473 52.4183 107.76 41.5059 107.76 28.0199C107.76 14.554 86.2473 3.62158 59.7083 3.62158Z" fill="#AFB1B4"/>
<path d="M59.7083 3.64111C33.1694 3.64111 11.6562 14.5535 11.6562 28.0195C11.6562 41.4855 33.1694 52.3979 59.7083 52.3979C86.2473 52.3979 107.76 41.4855 107.76 28.0195C107.76 14.5535 86.2269 3.64111 59.7083 3.64111Z" fill="#B0B2B4"/>
<path d="M59.7083 3.64111C33.1694 3.64111 11.6562 14.5535 11.6562 28.0195C11.6562 41.4855 33.1694 52.3979 59.6879 52.3979C86.2269 52.3979 107.74 41.4855 107.74 28.0195C107.74 14.5535 86.2269 3.64111 59.7083 3.64111Z" fill="#B1B3B5"/>
<path d="M59.7035 3.64111C33.1646 3.64111 11.6719 14.5535 11.6719 28.0195C11.6719 41.4855 33.185 52.3979 59.7035 52.3979C86.2221 52.3979 107.735 41.4855 107.735 28.0195C107.735 14.5535 86.2221 3.64111 59.7035 3.64111Z" fill="#B2B4B6"/>
<path d="M59.7035 3.64111C33.185 3.64111 11.6719 14.5535 11.6719 28.0195C11.6719 41.4855 33.185 52.3979 59.7035 52.3979C86.2221 52.3979 107.735 41.4855 107.735 28.0195C107.735 14.5535 86.2221 3.64111 59.7035 3.64111Z" fill="#B2B4B7"/>
<path d="M59.7035 3.66162C33.185 3.66162 11.6719 14.5741 11.6719 28.0201C11.6719 41.4661 33.1646 52.3785 59.7035 52.3785C86.2221 52.3785 107.735 41.4661 107.735 28.0201C107.735 14.5741 86.2221 3.66162 59.7035 3.66162Z" fill="#B3B5B8"/>
<path d="M59.7035 3.66162C33.185 3.66162 11.6719 14.5741 11.6719 28.0201C11.6719 41.4661 33.1646 52.3785 59.6831 52.3785C86.2017 52.3785 107.715 41.4661 107.715 28.0201C107.715 14.5741 86.2221 3.66162 59.7035 3.66162Z" fill="#B4B6B8"/>
<path d="M59.7066 3.66162C33.188 3.66162 11.6953 14.5741 11.6953 28.0201C11.6953 41.4661 33.188 52.3785 59.7066 52.3785C86.2251 52.3785 107.718 41.4661 107.718 28.0201C107.718 14.5741 86.2251 3.66162 59.7066 3.66162Z" fill="#B5B7B9"/>
<path d="M59.7066 3.66162C33.188 3.66162 11.6953 14.5741 11.6953 28.0201C11.6953 41.4661 33.188 52.3785 59.7066 52.3785C86.2251 52.3785 107.718 41.4661 107.718 28.0201C107.718 14.5741 86.2251 3.66162 59.7066 3.66162Z" fill="#B6B8BA"/>
<path d="M59.7066 3.68213C33.188 3.68213 11.6953 14.5746 11.6953 28.0406C11.6953 41.4866 33.188 52.3791 59.7066 52.3791C86.2251 52.3791 107.718 41.4667 107.718 28.0406C107.718 14.5746 86.2251 3.68213 59.7066 3.68213Z" fill="#B7B9BB"/>
<path d="M59.7076 3.68213C33.2095 3.68213 11.7168 14.5746 11.7168 28.0206C11.7168 41.4667 33.2095 52.3592 59.7076 52.3592C86.2057 52.3592 107.719 41.4667 107.719 28.0206C107.698 14.5746 86.2057 3.68213 59.7076 3.68213Z" fill="#B7B9BC"/>
<path d="M59.7076 3.68213C33.2095 3.68213 11.7168 14.5746 11.7168 28.0206C11.7168 41.4667 33.2095 52.3592 59.7076 52.3592C86.2057 52.3592 107.698 41.4667 107.698 28.0206C107.698 14.5746 86.2057 3.68213 59.7076 3.68213Z" fill="#B8BABC"/>
<path d="M59.7076 3.68213C33.2095 3.68213 11.7168 14.5946 11.7168 28.0206C11.7168 41.4667 33.2095 52.3592 59.7076 52.3592C86.2057 52.3592 107.698 41.4667 107.698 28.0206C107.698 14.5946 86.2057 3.68213 59.7076 3.68213Z" fill="#B9BBBD"/>
<path d="M59.7076 3.70166C33.2095 3.70166 11.7168 14.5941 11.7168 28.0202C11.7168 41.4463 33.2095 52.3388 59.7076 52.3388C86.2057 52.3388 107.698 41.4463 107.698 28.0202C107.698 14.5941 86.2057 3.70166 59.7076 3.70166Z" fill="#BABCBE"/>
<path d="M59.7067 3.70166C33.2086 3.70166 11.7363 14.5941 11.7363 28.0202C11.7363 41.4663 33.2086 52.3388 59.7067 52.3388C86.2048 52.3388 107.677 41.4463 107.677 28.0202C107.698 14.5941 86.2048 3.70166 59.7067 3.70166Z" fill="#BBBDBF"/>
<path d="M59.7067 3.70166C33.2086 3.70166 11.7363 14.5941 11.7363 28.0202C11.7363 41.4463 33.2086 52.3388 59.7067 52.3388C86.2048 52.3388 107.677 41.4463 107.677 28.0202C107.677 14.5941 86.2048 3.70166 59.7067 3.70166Z" fill="#BCBDC0"/>
<path d="M59.7067 3.70166C33.229 3.70166 11.7363 14.5941 11.7363 28.0202C11.7363 41.4463 33.229 52.3388 59.7067 52.3388C86.2048 52.3388 107.677 41.4463 107.677 28.0202C107.677 14.5941 86.2048 3.70166 59.7067 3.70166Z" fill="#BCBEC0"/>
<path d="M59.7058 3.72107C33.2281 3.72107 11.7559 14.5936 11.7559 28.0197C11.7559 41.4458 33.2281 52.3382 59.7058 52.3382C86.1835 52.3382 107.676 41.4458 107.676 28.0197C107.676 14.5936 86.2039 3.72107 59.7058 3.72107Z" fill="#BDBFC1"/>
<path d="M59.7058 3.72107C33.2281 3.72107 11.7559 14.5936 11.7559 28.0197C11.7559 41.4458 33.2281 52.3382 59.7058 52.3382C86.1835 52.3382 107.656 41.4458 107.656 28.0396C107.676 14.5936 86.1835 3.72107 59.7058 3.72107Z" fill="#BEC0C2"/>
<path d="M59.7058 3.72107C33.2281 3.72107 11.7559 14.6136 11.7559 28.0197C11.7559 41.4458 33.2281 52.3183 59.7058 52.3183C86.1835 52.3183 107.656 41.4458 107.656 28.0197C107.656 14.6136 86.1835 3.72107 59.7058 3.72107Z" fill="#BFC1C3"/>
<path d="M59.7058 3.74097C33.2281 3.74097 11.7559 14.6135 11.7559 28.0196C11.7559 41.4258 33.2281 52.3182 59.7058 52.3182C86.1835 52.3182 107.656 41.4457 107.656 28.0196C107.656 14.6135 86.1835 3.74097 59.7058 3.74097Z" fill="#C0C2C4"/>
<path d="M59.7049 3.74097C33.2272 3.74097 11.7754 14.6135 11.7754 28.0196C11.7754 41.4258 33.2476 52.3182 59.7049 52.3182C86.1826 52.3182 107.655 41.4457 107.655 28.0196C107.655 14.6135 86.1826 3.74097 59.7049 3.74097Z" fill="#C1C2C4"/>
<path d="M59.7049 3.74097C33.2476 3.74097 11.7754 14.6135 11.7754 28.0196C11.7754 41.4258 33.2476 52.2983 59.7049 52.2983C86.1826 52.2983 107.634 41.4258 107.634 28.0196C107.655 14.6135 86.1826 3.74097 59.7049 3.74097Z" fill="#C1C3C5"/>
<path d="M59.7049 3.74097C33.2476 3.74097 11.7754 14.6135 11.7754 28.0196C11.7754 41.4258 33.2272 52.2983 59.7049 52.2983C86.1826 52.2983 107.634 41.4258 107.634 28.0196C107.634 14.6135 86.1826 3.74097 59.7049 3.74097Z" fill="#C2C4C6"/>
<path d="M59.706 3.76025C33.2487 3.76025 11.7969 14.6128 11.7969 28.019C11.7969 41.4251 33.2487 52.2976 59.7264 52.2976C86.1837 52.2976 107.635 41.4251 107.635 28.019C107.635 14.6128 86.1837 3.76025 59.706 3.76025Z" fill="#C3C5C7"/>
<path d="M59.706 3.76025C33.2487 3.76025 11.7969 14.6128 11.7969 28.019C11.7969 41.4251 33.2487 52.2976 59.706 52.2976C86.1837 52.2976 107.635 41.4251 107.635 28.019C107.635 14.6128 86.1837 3.76025 59.706 3.76025Z" fill="#C4C6C8"/>
<path d="M59.706 3.76025C33.2487 3.76025 11.7969 14.6328 11.7969 28.019C11.7969 41.4251 33.2487 52.2777 59.706 52.2777C86.1837 52.2976 107.635 41.4251 107.635 28.019C107.635 14.6328 86.1837 3.76025 59.706 3.76025Z" fill="#C5C6C8"/>
<path d="M59.7051 3.76025C33.2478 3.76025 11.8164 14.6328 11.8164 28.019C11.8164 41.4251 33.2682 52.2777 59.7255 52.2777C86.1827 52.2777 107.635 41.4052 107.635 28.019C107.614 14.6328 86.1623 3.76025 59.7051 3.76025Z" fill="#C5C7C9"/>
<path d="M59.7051 3.78076C33.2682 3.78076 11.8164 14.6333 11.8164 28.0195C11.8164 41.4057 33.2682 52.2782 59.7255 52.2782C86.1827 52.2782 107.635 41.4257 107.635 28.0195C107.614 14.6333 86.1623 3.78076 59.7051 3.78076Z" fill="#C5C7C9"/>
<path d="M59.7051 3.78076C33.2682 3.78076 11.8164 14.6333 11.8164 28.0195C11.8164 41.4057 33.2682 52.2782 59.7051 52.2782C86.1419 52.2782 107.614 41.4257 107.614 28.0195C107.614 14.6333 86.1623 3.78076 59.7051 3.78076Z" fill="#C7C9CB"/>
<path d="M59.7255 3.78076C33.2682 3.78076 11.8164 14.6333 11.8164 28.0195C11.8164 41.4057 33.2682 52.2583 59.7051 52.2583C86.1419 52.2583 107.594 41.4057 107.594 28.0195C107.614 14.6333 86.1623 3.78076 59.7255 3.78076Z" fill="#C8CACC"/>
<path d="M59.7285 3.78076C33.2712 3.78076 11.8398 14.6333 11.8398 28.0195C11.8398 41.4057 33.2712 52.2583 59.7285 52.2583C86.1653 52.2583 107.617 41.4057 107.617 28.0195C107.617 14.6333 86.1653 3.78076 59.7285 3.78076Z" fill="#C9CBCC"/>
<path d="M59.7285 3.80127C33.2712 3.80127 11.8398 14.6339 11.8398 28.0201C11.8398 41.4063 33.2712 52.2589 59.7285 52.2589C86.1653 52.2589 107.617 41.4063 107.617 28.0201C107.597 14.6339 86.1653 3.80127 59.7285 3.80127Z" fill="#CACBCD"/>
<path d="M59.7285 3.80127C33.2712 3.80127 11.8398 14.6539 11.8398 28.0201C11.8398 41.4063 33.2712 52.2589 59.7081 52.2589C86.1449 52.2589 107.597 41.4063 107.597 28.0201C107.597 14.6539 86.1653 3.80127 59.7285 3.80127Z" fill="#CBCCCE"/>
<path d="M59.7285 3.80127C33.2917 3.80127 11.8398 14.6539 11.8398 28.0201C11.8398 41.4063 33.2712 52.2389 59.7081 52.2389C86.1449 52.2389 107.576 41.3863 107.576 28.0201C107.597 14.6539 86.1653 3.80127 59.7285 3.80127Z" fill="#CBCDCF"/>
<path d="M59.7276 3.80127C33.2908 3.80127 11.8594 14.6539 11.8594 28.0201C11.8594 41.3863 33.2908 52.2389 59.7276 52.2389C86.1644 52.2389 107.596 41.3863 107.596 28.0201C107.596 14.6539 86.1644 3.80127 59.7276 3.80127Z" fill="#CCCED0"/>
<path d="M59.7276 3.8208C33.2908 3.8208 11.8594 14.6534 11.8594 28.0197C11.8594 41.3859 33.2908 52.2385 59.7276 52.2385C86.1644 52.2385 107.596 41.3859 107.596 28.0197C107.575 14.6534 86.144 3.8208 59.7276 3.8208Z" fill="#CDCFD0"/>
<path d="M59.7276 3.8208C33.2908 3.8208 11.8594 14.6534 11.8594 28.0396C11.8594 41.4059 33.2908 52.2584 59.7072 52.2584C86.144 52.2584 107.575 41.4059 107.575 28.0396C107.575 14.6534 86.144 3.8208 59.7276 3.8208Z" fill="#CECFD1"/>
<path d="M59.7287 3.8208C33.2918 3.8208 11.8809 14.6534 11.8809 28.0197C11.8809 41.3859 33.3123 52.2185 59.7287 52.2185C86.145 52.2185 107.576 41.3859 107.576 28.0197C107.576 14.6534 86.145 3.8208 59.7287 3.8208Z" fill="#CFD0D2"/>
<path d="M59.7287 3.8208C33.2918 3.8208 11.8809 14.6534 11.8809 28.0396C11.8809 41.4058 33.3123 52.2385 59.7287 52.2385C86.145 52.2385 107.576 41.4058 107.576 28.0396C107.576 14.6534 86.145 3.8208 59.7287 3.8208Z" fill="#CFD0D2"/>
<path d="M59.7287 3.84229C33.3123 3.84229 11.8809 14.6749 11.8809 28.0412C11.8809 41.4074 33.2918 52.24 59.7287 52.24C86.145 52.24 107.576 41.4074 107.576 28.0412C107.576 14.6749 86.145 3.84229 59.7287 3.84229Z" fill="#D0D1D3"/>
<path d="M59.7287 3.84229C33.3123 3.84229 11.8809 14.6749 11.8809 28.0412C11.8809 41.4074 33.2918 52.24 59.7082 52.24C86.1246 52.24 107.556 41.4074 107.556 28.0412C107.556 14.6749 86.1451 3.84229 59.7287 3.84229Z" fill="#D0D2D3"/>
<path d="M59.7278 3.84131C33.3114 3.84131 11.9004 14.6739 11.9004 28.0402C11.9004 41.4064 33.3114 52.2191 59.7278 52.2191C86.1441 52.2191 107.555 41.3865 107.555 28.0402C107.555 14.6739 86.1441 3.84131 59.7278 3.84131Z" fill="#D2D3D5"/>
<path d="M59.7278 3.84131C33.3114 3.84131 11.9004 14.6739 11.9004 28.0402C11.9004 41.3865 33.3114 52.2191 59.7278 52.2191C86.1441 52.2191 107.555 41.3865 107.555 28.0402C107.555 14.6739 86.1441 3.84131 59.7278 3.84131Z" fill="#D3D4D6"/>
<path d="M59.7278 3.86182C33.3114 3.86182 11.9004 14.6745 11.9004 28.0407C11.9004 41.387 33.3114 52.2196 59.7278 52.2196C86.1441 52.2196 107.555 41.387 107.555 28.0407C107.555 14.6745 86.1237 3.86182 59.7278 3.86182Z" fill="#D4D5D7"/>
<path d="M59.7269 3.86182C33.3105 3.86182 11.9199 14.6745 11.9199 28.0407C11.9199 41.387 33.3309 52.2196 59.7269 52.2196C86.1432 52.2196 107.534 41.387 107.534 28.0407C107.534 14.6745 86.1228 3.86182 59.7269 3.86182Z" fill="#D5D6D7"/>
<path d="M59.7269 3.86182C33.3309 3.86182 11.9199 14.6745 11.9199 28.0407C11.9199 41.387 33.3309 52.1997 59.7269 52.1997C86.1228 52.1997 107.534 41.387 107.534 28.0407C107.534 14.6745 86.1228 3.86182 59.7269 3.86182Z" fill="#D5D7D8"/>
<path d="M59.7269 3.86182C33.3309 3.86182 11.9199 14.6944 11.9199 28.0407C11.9199 41.387 33.3309 52.1997 59.7269 52.1997C86.1228 52.1997 107.534 41.387 107.534 28.0407C107.534 14.6944 86.1228 3.86182 59.7269 3.86182Z" fill="#D6D7D9"/>
<path d="M59.7269 3.88049C33.3309 3.88049 11.9199 14.6932 11.9199 28.0395C11.9199 41.3857 33.3309 52.1984 59.7269 52.1984C86.1228 52.1984 107.534 41.3857 107.534 28.0395C107.534 14.6932 86.1228 3.88049 59.7269 3.88049Z" fill="#D7D8DA"/>
<path d="M59.726 3.88037C33.33 3.88037 11.9395 14.6931 11.9395 28.0393C11.9395 41.3856 33.33 52.1983 59.726 52.1983C86.1219 52.1983 107.512 41.3856 107.512 28.0393C107.512 14.6931 86.1219 3.88037 59.726 3.88037Z" fill="#D8D9DB"/>
<path d="M59.726 3.88037C33.33 3.88037 11.9395 14.6931 11.9395 28.0393C11.9395 41.3657 33.33 52.1784 59.726 52.1784C86.1219 52.1784 107.512 41.3657 107.512 28.0393C107.512 14.6931 86.1219 3.88037 59.726 3.88037Z" fill="#D8D9DB"/>
<path d="M59.726 3.88037C33.33 3.88037 11.9395 14.6931 11.9395 28.0393C11.9395 41.3657 33.33 52.1784 59.726 52.1784C86.1219 52.1784 107.512 41.3657 107.512 28.0393C107.512 14.6931 86.1219 3.88037 59.726 3.88037Z" fill="#D9DADB"/>
<path d="M59.727 3.90088C33.3515 3.90088 11.9609 14.6936 11.9609 28.0399C11.9609 41.3662 33.3515 52.1789 59.727 52.1789C86.1026 52.1789 107.514 41.3662 107.514 28.0399C107.514 14.6936 86.123 3.90088 59.727 3.90088Z" fill="#D9DBDC"/>
<path d="M59.727 3.90088C33.3515 3.90088 11.9609 14.6936 11.9609 28.0399C11.9609 41.3662 33.3515 52.1789 59.727 52.1789C86.1026 52.1789 107.493 41.3662 107.493 28.0399C107.493 14.6936 86.1026 3.90088 59.727 3.90088Z" fill="#DADCDD"/>
<path d="M59.727 3.90088C33.3515 3.90088 11.9609 14.7136 11.9609 28.0399C11.9609 41.3662 33.3515 52.1789 59.727 52.1789C86.1026 52.1789 107.493 41.3662 107.493 28.0399C107.493 14.7136 86.1026 3.90088 59.727 3.90088Z" fill="#DBDCDE"/>
<path d="M59.727 3.90088C33.3515 3.90088 11.9609 14.7136 11.9609 28.0399C11.9609 41.3662 33.3515 52.159 59.727 52.159C86.1026 52.159 107.493 41.3463 107.493 28.0399C107.493 14.7136 86.1026 3.90088 59.727 3.90088Z" fill="#DDDEDF"/>
<path d="M59.7261 3.92041C33.3506 3.92041 11.9805 14.7131 11.9805 28.0395C11.9805 41.3658 33.371 52.1585 59.7261 52.1585C86.1017 52.1585 107.492 41.3658 107.492 28.0395C107.492 14.7131 86.1017 3.92041 59.7261 3.92041Z" fill="#DEDFE0"/>
<path d="M59.7261 3.92041C33.3506 3.92041 11.9805 14.7131 11.9805 28.0395C11.9805 41.3459 33.3506 52.1386 59.7261 52.1386C86.1017 52.1386 107.472 41.3459 107.472 28.0195C107.492 14.7131 86.1017 3.92041 59.7261 3.92041Z" fill="#DEE0E1"/>
<path d="M59.7261 3.92041C33.371 3.92041 11.9805 14.7131 11.9805 28.0395C11.9805 41.3459 33.371 52.1386 59.7261 52.1386C86.1016 52.1386 107.472 41.3459 107.472 28.0195C107.472 14.7131 86.1016 3.92041 59.7261 3.92041Z" fill="#DFE0E2"/>
<path d="M59.7252 3.92041C33.3701 3.92041 12 14.7131 12 28.0395C12 41.3459 33.3701 52.1386 59.7252 52.1386C86.1008 52.1386 107.471 41.3459 107.471 28.0395C107.471 14.7131 86.1008 3.92041 59.7252 3.92041Z" fill="#E0E1E2"/>
<path d="M59.7252 3.94092C33.3701 3.94092 12 14.7137 12 28.04C12 41.3464 33.3701 52.1392 59.7252 52.1392C86.0803 52.1392 107.471 41.3464 107.471 28.04C107.471 14.7137 86.1008 3.94092 59.7252 3.94092Z" fill="#E1E2E3"/>
<path d="M59.7252 3.94092C33.3701 3.94092 12 14.7337 12 28.04C12 41.3464 33.3701 52.1392 59.7252 52.1392C86.0803 52.1392 107.45 41.3464 107.45 28.04C107.471 14.7337 86.0803 3.94092 59.7252 3.94092Z" fill="#E1E2E3"/>
<path d="M59.7252 3.94092C33.3701 3.94092 12 14.7337 12 28.04C12 41.3464 33.3701 52.1392 59.7252 52.1392C86.0803 52.1392 107.45 41.3464 107.45 28.04C107.45 14.7337 86.0803 3.94092 59.7252 3.94092Z" fill="#E2E3E4"/>
<path d="M59.7282 3.94092C33.3731 3.94092 12.0234 14.7337 12.0234 28.04C12.0234 41.3464 33.3935 52.1192 59.7487 52.1192C86.1038 52.1192 107.474 41.3265 107.474 28.04C107.453 14.7337 86.0833 3.94092 59.7282 3.94092Z" fill="#E3E4E5"/>
<path d="M59.7282 3.96143C33.3935 3.96143 12.0234 14.7342 12.0234 28.0406C12.0234 41.347 33.3935 52.1198 59.7282 52.1198C86.0833 52.1198 107.453 41.327 107.453 28.0406C107.453 14.7342 86.0833 3.96143 59.7282 3.96143Z" fill="#E3E4E5"/>
<path d="M59.7282 3.96143C33.3935 3.96143 12.0234 14.7342 12.0234 28.0406C12.0234 41.327 33.3935 52.1198 59.7282 52.1198C86.0833 52.1198 107.433 41.347 107.433 28.0406C107.453 14.7342 86.0833 3.96143 59.7282 3.96143Z" fill="#E4E5E6"/>
<path d="M59.7254 3.96143C33.3907 3.96143 12.041 14.7342 12.041 28.0406C12.041 41.327 33.3907 52.1198 59.7458 52.1198C86.0805 52.1198 107.451 41.347 107.451 28.0406C107.43 14.7342 86.0805 3.96143 59.7254 3.96143Z" fill="#E5E6E7"/>
<path d="M59.7254 3.96143C33.3907 3.96143 12.041 14.7342 12.041 28.0406C12.041 41.327 33.3907 52.0998 59.7458 52.0998C86.0805 52.0998 107.451 41.327 107.451 28.0406C107.43 14.7342 86.0805 3.96143 59.7254 3.96143Z" fill="#E7E8E9"/>
<mask id="mask0_655_4949" style="mask-type:luminance" maskUnits="userSpaceOnUse" x="12" y="5" width="95" height="46">
<path d="M12.8965 28C12.8965 40.688 33.8171 50.9819 59.6206 50.9819C85.4241 50.9819 106.365 40.688 106.365 28C106.365 15.3121 85.4445 5.01807 59.6206 5.01807C33.8171 5.01807 12.8965 15.3121 12.8965 28Z" fill="white"/>
</mask>
<g mask="url(#mask0_655_4949)">
<path d="M89.6755 -29.9331L124.407 42.7632L29.6104 85.9342L-5.12109 13.2378L89.6755 -29.9331Z" fill="url(#paint0_linear_655_4949)"/>
</g>
<path d="M59.6502 7.77197C35.4608 7.77197 15.8477 16.9288 15.8477 28.2004C15.8477 39.4719 35.4608 48.6288 59.6502 48.6288C83.8397 48.6288 103.453 39.4719 103.453 28.2004C103.453 16.9288 83.8397 7.77197 59.6502 7.77197Z" stroke="#004E25" stroke-width="2.9504"/>
<path d="M59.6468 6.57471C34.8035 6.57471 14.6797 16.1904 14.6797 28.0405C14.6797 39.8905 34.824 49.4863 59.6468 49.4863C84.4901 49.4863 104.634 39.8706 104.634 28.0405C104.614 16.1904 84.4901 6.57471 59.6468 6.57471Z" stroke="#F5F0CC" stroke-width="5.5897"/>
<mask id="mask1_655_4949" style="mask-type:luminance" maskUnits="userSpaceOnUse" x="78" y="19" width="10" height="6">
<path d="M79.9556 19.0024L79.0771 21.6158H83.8169L78.4029 23.531L78.0352 24.5883L86.3912 21.7954L87.3105 19.0024H79.9556Z" fill="white"/>
</mask>
<g mask="url(#mask1_655_4949)">
<path d="M85.6542 15.5317L89.5155 23.5914L79.6886 28.0601L75.8477 20.0004L85.6542 15.5317Z" fill="url(#paint1_linear_655_4949)"/>
</g>
<mask id="mask2_655_4949" style="mask-type:luminance" maskUnits="userSpaceOnUse" x="33" y="14" width="9" height="13">
<path d="M41.2142 23.4113C41.2142 23.3913 41.2142 23.3913 41.2142 23.4113V23.4113ZM36.9443 14.5337C37.455 14.793 37.0056 15.7706 37.0056 15.7706C37.0056 15.7706 33.6958 25.1868 33.4711 25.6656C33.2464 26.1444 33.0625 26.2042 33.0625 26.2042H40.2131L41.2142 23.4312C41.112 23.6906 40.4378 23.6108 40.4378 23.6108H37.455C37.455 23.6108 40.2335 16.0499 40.4583 15.4913C40.7852 14.6534 41.0099 14.5536 41.0712 14.5536L36.9443 14.5337ZM41.0508 14.5337H41.0712C41.0712 14.5337 41.0712 14.5337 41.0508 14.5337C41.0712 14.5337 41.0712 14.5337 41.0508 14.5337Z" fill="white"/>
</mask>
<g mask="url(#mask2_655_4949)">
<path d="M39.7639 11.481L45.7908 24.0891L34.5133 29.2361L28.4863 16.608L39.7639 11.481Z" fill="url(#paint2_linear_655_4949)"/>
</g>
<mask id="mask3_655_4949" style="mask-type:luminance" maskUnits="userSpaceOnUse" x="53" y="14" width="14" height="13">
<path d="M63.2434 15.2315C63.1208 15.5308 61.2821 20.5581 61.2821 20.5581L60.567 14.5532H57.0734C57.0734 14.5532 57.2573 14.8525 57.1347 15.1717C57.0326 15.431 53.4368 25.5255 53.4368 25.5255C53.4368 25.5255 53.2121 26.1639 53.0078 26.1639H56.3788C56.3788 26.1639 56.1541 25.8247 56.2971 25.4258C56.5014 24.8871 58.2788 19.9197 58.2788 19.9197L59.0552 26.1639H62.0993L66.1036 15.0719C66.1036 15.0719 66.2671 14.5532 66.4918 14.5532H63.2434C63.2638 14.5532 63.366 14.9323 63.2434 15.2315Z" fill="white"/>
</mask>
<g mask="url(#mask3_655_4949)">
<path d="M64.1008 9.50635L71.0675 24.0895L55.4179 31.2115L48.4512 16.6284L64.1008 9.50635Z" fill="url(#paint3_linear_655_4949)"/>
</g>
<mask id="mask4_655_4949" style="mask-type:luminance" maskUnits="userSpaceOnUse" x="64" y="14" width="13" height="13">
<path d="M71.1651 17.0473H72.0232C72.0232 17.0473 74.2705 16.9077 72.6565 20.8976C71.6758 23.3315 70.2253 23.511 69.4489 23.511C68.9382 23.511 68.9178 23.511 68.9178 23.511L71.1651 17.0473ZM72.2683 14.5536H68.4274C68.4274 14.5536 68.7135 15.0324 68.3457 16.1097C67.978 17.2069 65.036 25.2865 65.036 25.2865C65.036 25.2865 64.8113 26.0446 64.4844 26.1843H69.1016C69.1016 26.1843 74.6995 26.4037 76.4157 20.3989C76.4157 20.3989 78.5813 14.5337 72.35 14.5337C72.3296 14.5536 72.2888 14.5536 72.2683 14.5536Z" fill="white"/>
</mask>
<g mask="url(#mask4_655_4949)">
<path d="M76.0702 9.26709L83.2413 24.2891L66.9992 31.6904L59.8281 16.6684L76.0702 9.26709Z" fill="url(#paint4_linear_655_4949)"/>
</g>
<mask id="mask5_655_4949" style="mask-type:luminance" maskUnits="userSpaceOnUse" x="27" y="29" width="11" height="7">
<path d="M28.8569 32.768L27.9375 35.561H35.2924L36.1709 32.9476H31.4311L36.8451 31.0324L37.2129 29.9751L28.8569 32.768Z" fill="white"/>
</mask>
<g mask="url(#mask5_655_4949)">
<path d="M35.5605 26.5034L39.4014 34.5631L29.5948 39.0318L25.7539 30.9721L35.5605 26.5034Z" fill="url(#paint5_linear_655_4949)"/>
</g>
<mask id="mask6_655_4949" style="mask-type:luminance" maskUnits="userSpaceOnUse" x="37" y="28" width="13" height="13">
<path d="M43.6693 31.411C43.6693 31.411 44.0983 31.411 44.4661 31.411C46.1822 31.411 45.5693 32.7277 45.5693 32.7277C45.0381 33.8848 43.6284 33.7451 43.6284 33.7451H42.893L43.6693 31.411ZM45.5898 28.7378H40.8295C41.1768 29.1368 40.9112 29.9547 40.9112 29.9547C40.9112 29.9547 37.9488 38.5929 37.7241 39.2512C37.4994 39.9096 37.0703 40.3884 37.0703 40.3884H40.8295C40.7069 40.3884 40.7069 40.0093 40.7069 40.0093L42.0553 36.3585C42.0553 36.3585 43.7306 39.73 43.8532 39.9694C43.9758 40.2088 43.9145 40.4083 43.9145 40.4083H47.9392C47.5511 40.4083 47.1629 39.6702 47.1629 39.6702L45.1607 35.9994C47.9597 35.9994 48.8586 33.1666 48.8586 33.1666C50.1661 28.8774 46.0188 28.7777 45.6102 28.7777C45.5898 28.7378 45.5898 28.7378 45.5898 28.7378Z" fill="white"/>
</mask>
<g mask="url(#mask6_655_4949)">
<path d="M47.8382 23.8306L54.7437 38.294L39.4005 45.2963L32.4746 30.8129L47.8382 23.8306Z" fill="url(#paint6_linear_655_4949)"/>
</g>
<mask id="mask7_655_4949" style="mask-type:luminance" maskUnits="userSpaceOnUse" x="78" y="28" width="13" height="13">
<path d="M85.2862 31.471H86.3281C86.3281 31.471 87.5948 31.4311 87.084 32.7678C86.655 33.8849 85.2453 33.7852 85.2453 33.7852H84.5098L85.2862 31.471ZM87.2271 28.7778H82.5077C82.855 29.1768 82.5894 29.9948 82.5894 29.9948C82.5894 29.9948 79.5044 38.6728 79.2797 39.3312C79.0549 40.0095 78.6055 40.4284 78.6055 40.4284H82.5281C82.2625 40.4284 82.4464 39.7102 82.4464 39.7102L83.6518 36.3786C83.6518 36.3786 85.2862 39.7501 85.3883 39.9895C85.5109 40.2289 85.4496 40.4284 85.4496 40.4284H89.6174C89.2292 40.4284 88.8206 39.6903 88.8206 39.6903L86.8185 36.0195C89.6174 36.0195 90.4755 33.2864 90.4755 33.2864C91.8239 28.9773 88.0443 28.7778 87.3496 28.7778C87.2475 28.7778 87.2271 28.7778 87.2271 28.7778Z" fill="white"/>
</mask>
<g mask="url(#mask7_655_4949)">
<path d="M89.4347 23.8306L96.3605 38.3539L80.9356 45.3761L74.0098 30.8528L89.4347 23.8306Z" fill="url(#paint7_linear_655_4949)"/>
</g>
<mask id="mask8_655_4949" style="mask-type:luminance" maskUnits="userSpaceOnUse" x="49" y="28" width="12" height="13">
<path d="M54.1112 37.914C52.7015 37.6547 52.9467 35.4203 53.1714 34.383C53.6618 32.1287 54.908 31.0514 55.8274 31.1511C56.1338 31.191 57.7887 31.211 56.8898 34.9017C56.3586 37.0961 55.3779 37.934 54.4177 37.934C54.3155 37.954 54.2134 37.934 54.1112 37.914ZM49.637 34.8219C49.0649 38.0736 50.8628 40.687 53.8456 40.687C57.993 40.687 60.4855 36.5176 60.4855 33.5251C60.4855 30.393 59.2188 28.438 56.3381 28.438C52.6607 28.438 50.2499 31.2708 49.637 34.8219Z" fill="white"/>
</mask>
<g mask="url(#mask8_655_4949)">
<path d="M58.4423 24.1685L65.2865 38.4923L51.1078 44.936L44.2637 30.6122L58.4423 24.1685Z" fill="url(#paint8_linear_655_4949)"/>
</g>
<mask id="mask9_655_4949" style="mask-type:luminance" maskUnits="userSpaceOnUse" x="61" y="28" width="13" height="13">
<path d="M61.4609 28.7778C61.4609 28.7778 61.747 28.9374 61.747 29.6756V39.7701C61.747 39.7701 61.7061 40.3286 61.5018 40.4483H64.5868C64.5868 40.4483 64.5868 40.209 64.8932 39.81C65.1997 39.411 71.6148 30.6331 71.6148 30.6331C71.6148 30.6331 73.0858 28.7978 73.474 28.7978H69.0406C69.0406 28.7978 69.3879 29.0372 69.1223 29.4561C68.8567 29.895 64.9137 35.8998 64.9137 35.8998L64.9545 29.8551C64.9545 29.8551 64.9545 28.8776 65.3223 28.7978L61.4609 28.7778Z" fill="white"/>
</mask>
<g mask="url(#mask9_655_4949)">
<path d="M71.329 24.269L78.0506 38.3535L63.6063 44.9169L56.8848 30.8524L71.329 24.269Z" fill="url(#paint9_linear_655_4949)"/>
</g>
<mask id="mask10_655_4949" style="mask-type:luminance" maskUnits="userSpaceOnUse" x="69" y="28" width="13" height="13">
<path d="M73.6365 28.7778C73.6365 28.7778 73.9021 29.0172 73.5548 29.9948C73.2075 30.9723 70.1634 39.3312 70.1634 39.3312C70.1634 39.3312 69.6118 40.4284 69.4688 40.4284H77.1914L78.1108 37.6355C78.1108 37.6355 77.9882 37.7951 77.2731 37.7951H74.0043L74.6989 35.9198H77.2323C77.2323 35.9198 77.7635 35.8799 77.886 36.0395L78.928 33.067C78.9076 33.1069 78.8054 33.3263 78.1516 33.3263H75.7L76.4355 31.2516H79.5409C79.5409 31.2516 79.9699 31.1917 80.1129 31.5309L81.114 28.7778H73.6365Z" fill="white"/>
</mask>
<g mask="url(#mask10_655_4949)">
<path d="M79.0742 24.4095L85.7141 38.3543L71.5763 44.798L64.916 30.8533L79.0742 24.4095Z" fill="url(#paint10_linear_655_4949)"/>
</g>
<mask id="mask11_655_4949" style="mask-type:luminance" maskUnits="userSpaceOnUse" x="41" y="14" width="12" height="13">
<path d="M49.1051 18.5051L49.1256 21.9164H47.0417L49.1051 18.5051ZM48.4514 14.5351C48.4514 14.5351 48.717 14.8543 48.2266 15.5924C47.7363 16.3305 41.4846 25.7867 41.4846 25.7867C41.4846 25.7867 41.362 26.0261 41.0352 26.1657H44.733C44.733 26.1657 44.7126 25.8864 44.8148 25.6869C44.9986 25.3478 45.4481 24.5298 45.4481 24.5298H49.1664V25.5473C49.1664 25.5473 49.1869 25.9064 48.9213 26.1657H52.6191C52.6191 26.1657 52.3536 26.0061 52.2923 25.5473L51.8224 15.3131C51.8224 15.3131 51.8019 14.6548 52.1084 14.5151C52.1288 14.5351 48.4514 14.5351 48.4514 14.5351Z" fill="white"/>
</mask>
<g mask="url(#mask11_655_4949)">
<path d="M50.555 10.2056L57.1949 24.1104L43.1184 30.5143L36.4785 16.6094L50.555 10.2056Z" fill="url(#paint11_linear_655_4949)"/>
</g>
<path d="M86.6328 18.2642H79.2779L78.3789 20.8776H83.1392L77.7047 22.8127L77.3574 23.87L85.693 21.0571L86.6328 18.2642Z" fill="#F5F0CC"/>
<path d="M40.5423 22.6532L39.5412 25.4461H32.3906C32.3906 25.4461 32.5541 25.3863 32.7992 24.9075C33.024 24.4287 36.3337 15.0125 36.3337 15.0125C36.3337 15.0125 36.7831 14.0349 36.2724 13.7756H40.4197C40.4197 13.7756 40.1746 13.7157 39.7864 14.7132C39.5617 15.2918 36.7831 22.8327 36.7831 22.8327H39.766C39.766 22.8527 40.4402 22.9325 40.5423 22.6532Z" fill="#F5F0CC"/>
<path d="M52.332 25.4266H55.703C55.703 25.4266 55.4783 25.0675 55.6213 24.6885C55.8256 24.1498 57.6031 19.1824 57.6031 19.1824L58.3794 25.4266H61.444L65.4483 14.3346C65.4483 14.3346 65.6117 13.8159 65.8365 13.8159H62.588C62.588 13.8159 62.6902 14.195 62.5676 14.4942C62.445 14.7934 60.6063 19.8207 60.6063 19.8207L59.8912 13.8159H56.3977C56.3977 13.8159 56.5815 14.1152 56.459 14.4344C56.3568 14.6937 52.7611 24.7882 52.7611 24.7882C52.7611 24.7882 52.5159 25.4266 52.332 25.4266Z" fill="#F5F0CC"/>
<path d="M71.573 13.8154H67.7321C67.7321 13.8154 68.0181 14.2942 67.6504 15.3715C67.2826 16.4687 64.3407 24.5483 64.3407 24.5483C64.3407 24.5483 64.1159 25.3064 63.7891 25.446H68.4063C68.4063 25.446 74.0042 25.6655 75.7204 19.6606C75.7204 19.6806 77.9268 13.7555 71.573 13.8154ZM71.9816 20.1793C71.001 22.6132 69.5504 22.7927 68.7741 22.7927C68.2633 22.7927 68.2429 22.7927 68.2429 22.7927L70.4902 16.329H71.3483C71.3483 16.329 73.5752 16.1894 71.9816 20.1793Z" fill="#F5F0CC"/>
<path d="M27.2422 34.8427H34.5971L35.496 32.2293H30.7358L36.1702 30.2941L36.5176 29.2368L28.1616 32.0497L27.2422 34.8427Z" fill="#F5F0CC"/>
<path d="M48.1633 32.3897C49.5526 27.8811 44.8944 28.0008 44.8944 28.0008H40.1342C40.4815 28.3998 40.2159 29.2177 40.2159 29.2177C40.2159 29.2177 37.2535 37.8559 37.0288 38.5342C36.804 39.1925 36.375 39.6713 36.375 39.6713H40.1342C40.0116 39.6713 40.0116 39.2923 40.0116 39.2923L41.36 35.6415C41.36 35.6415 43.0353 39.013 43.1579 39.2524C43.2804 39.4918 43.2192 39.6913 43.2192 39.6913H47.2439C46.8558 39.6913 46.4676 38.9531 46.4676 38.9531L44.4654 35.2824C47.2644 35.2225 48.1633 32.3897 48.1633 32.3897ZM44.8944 31.9907C44.3633 33.1478 42.9536 33.0081 42.9536 33.0081H42.2181L42.9944 30.674C42.9944 30.674 43.4235 30.674 43.7912 30.674C45.5074 30.674 44.8944 31.9907 44.8944 31.9907Z" fill="#F5F0CC"/>
<path d="M89.7597 32.5488C91.2307 27.8207 86.5318 28.0402 86.5318 28.0402H81.8123C82.1597 28.4391 81.8941 29.2571 81.8941 29.2571C81.8941 29.2571 78.8091 37.9352 78.5844 38.5935C78.3596 39.2518 77.9102 39.6907 77.9102 39.6907H81.8328C81.5468 39.6907 81.7511 38.9725 81.7511 38.9725L82.9564 35.641C82.9564 35.641 84.5704 39.0124 84.693 39.2518C84.8156 39.4912 84.7543 39.6907 84.7543 39.6907H88.9221C88.5339 39.6907 88.1049 38.9526 88.1049 38.9526L86.1027 35.2819C88.9017 35.2819 89.7597 32.5488 89.7597 32.5488ZM86.4092 32.05C85.9801 33.1672 84.5704 33.0675 84.5704 33.0675H83.8349L84.6113 30.7533H85.6532C85.6532 30.7533 86.9199 30.7134 86.4092 32.05Z" fill="#F5F0CC"/>
<path d="M55.6389 27.7007C51.9615 27.7007 49.5507 30.5535 48.9378 34.0846C48.3657 37.3363 50.1636 39.9497 53.1464 39.9497C57.2938 39.9497 59.7863 35.7803 59.7863 32.7878C59.7863 29.6557 58.5196 27.7007 55.6389 27.7007ZM56.1905 34.1843C55.5981 36.6182 54.454 37.3762 53.412 37.1767C52.0023 36.9174 52.2475 34.683 52.4722 33.6457C52.9625 31.3914 54.2088 30.3141 55.1282 30.4138C55.4346 30.4737 57.0895 30.4936 56.1905 34.1843Z" fill="#F5F0CC"/>
<path d="M60.7656 28.0396C60.7656 28.0396 61.0516 28.1991 61.0516 28.9373V39.0318C61.0516 39.0318 61.0108 39.5904 60.8065 39.7101H63.9119C63.9119 39.7101 63.9119 39.4707 64.2183 39.0717C64.5248 38.6727 70.9399 29.8949 70.9399 29.8949C70.9399 29.8949 72.3905 28.0595 72.7786 28.0595H68.3453C68.3453 28.0595 68.6926 28.2989 68.427 28.7178C68.1614 29.1567 64.2183 35.1616 64.2183 35.1616L64.2592 29.0969C64.2592 29.0969 64.2592 28.1193 64.627 28.0396H60.7656Z" fill="#F5F0CC"/>
<path d="M79.4615 30.7926L80.4626 28.0396H72.9647C72.9647 28.0396 73.2303 28.2789 72.8829 29.2565C72.5356 30.234 69.4915 38.5929 69.4915 38.5929C69.4915 38.5929 68.9399 39.6901 68.7969 39.6901H76.5195L77.4389 36.8972C77.4389 36.8972 77.3163 37.0568 76.6013 37.0568H73.3324L74.027 35.1815H76.5808C76.5808 35.1815 77.112 35.1416 77.2346 35.3012L78.2765 32.3287C78.2765 32.3287 78.1948 32.608 77.5002 32.608H75.0486L75.784 30.5333H78.8894C78.8894 30.5133 79.2981 30.4535 79.4615 30.7926Z" fill="#F5F0CC"/>
<path d="M51.9425 25.447C51.9425 25.447 51.6769 25.2874 51.6156 24.8285L51.1457 14.5944C51.1457 14.5944 51.1252 13.936 51.4317 13.7964H47.7747C47.7747 13.7964 48.0403 14.1156 47.5499 14.8537C47.0596 15.5919 40.8079 25.048 40.8079 25.048C40.8079 25.048 40.6854 25.2874 40.3789 25.427H44.0768C44.0768 25.427 44.0564 25.1278 44.1585 24.9482C44.3424 24.6091 44.7919 23.7911 44.7919 23.7911H48.5102V24.8086C48.5102 24.8086 48.5306 25.1677 48.265 25.427C48.2446 25.447 51.9425 25.447 51.9425 25.447ZM46.365 21.1777L48.408 17.7664L48.4284 21.1777H46.365Z" fill="#F5F0CC"/>
<defs>
<linearGradient id="paint0_linear_655_4949" x1="47.3586" y1="2.27599" x2="70.9793" y2="54.1513" gradientUnits="userSpaceOnUse">
<stop stop-color="#008948"/>
<stop offset="0.3764" stop-color="#008948"/>
<stop offset="0.5955" stop-color="#004E25"/>
<stop offset="1"/>
</linearGradient>
<linearGradient id="paint1_linear_655_4949" x1="76.1149" y1="8.05391" x2="94.4226" y2="48.2609" gradientUnits="userSpaceOnUse">
<stop stop-color="#004E25"/>
<stop offset="1"/>
</linearGradient>
<linearGradient id="paint2_linear_655_4949" x1="50.0438" y1="47.3735" x2="85.3427" y2="124.896" gradientUnits="userSpaceOnUse">
<stop stop-color="#004E25"/>
<stop offset="1"/>
</linearGradient>
<linearGradient id="paint3_linear_655_4949" x1="60.7533" y1="22.4405" x2="92.2586" y2="91.6318" gradientUnits="userSpaceOnUse">
<stop stop-color="#004E25"/>
<stop offset="1"/>
</linearGradient>
<linearGradient id="paint4_linear_655_4949" x1="67.0433" y1="11.0715" x2="95.4002" y2="73.3483" gradientUnits="userSpaceOnUse">
<stop stop-color="#004E25"/>
<stop offset="1"/>
</linearGradient>
<linearGradient id="paint5_linear_655_4949" x1="39.3844" y1="47.022" x2="57.6927" y2="87.2305" gradientUnits="userSpaceOnUse">
<stop stop-color="#004E25"/>
<stop offset="1"/>
</linearGradient>
<linearGradient id="paint6_linear_655_4949" x1="48.086" y1="43.9251" x2="76.4885" y2="106.302" gradientUnits="userSpaceOnUse">
<stop stop-color="#004E25"/>
<stop offset="1"/>
</linearGradient>
<linearGradient id="paint7_linear_655_4949" x1="71.2991" y1="5.52361" x2="99.7184" y2="67.9375" gradientUnits="userSpaceOnUse">
<stop stop-color="#004E25"/>
<stop offset="1"/>
</linearGradient>
<linearGradient id="paint8_linear_655_4949" x1="54.4783" y1="33.9303" x2="81.4525" y2="93.1706" gradientUnits="userSpaceOnUse">
<stop stop-color="#004E25"/>
<stop offset="1"/>
</linearGradient>
<linearGradient id="paint9_linear_655_4949" x1="62.315" y1="23.8087" x2="89.8483" y2="84.2767" gradientUnits="userSpaceOnUse">
<stop stop-color="#004E25"/>
<stop offset="1"/>
</linearGradient>
<linearGradient id="paint10_linear_655_4949" x1="63.9499" y1="10.7835" x2="98.5193" y2="86.7042" gradientUnits="userSpaceOnUse">
<stop stop-color="#004E25"/>
<stop offset="1"/>
</linearGradient>
<linearGradient id="paint11_linear_655_4949" x1="52.9103" y1="33.0772" x2="82.4935" y2="98.0475" gradientUnits="userSpaceOnUse">
<stop stop-color="#004E25"/>
<stop offset="1"/>
</linearGradient>
</defs>
</svg>
