<svg width="120" height="56" viewBox="0 0 120 56" fill="none" xmlns="http://www.w3.org/2000/svg">
<path d="M59.6446 3C32.7787 3 11 14.1718 11 27.937C11 41.7022 32.7787 52.874 59.6446 52.874C86.5104 52.874 108.289 41.7022 108.289 27.937C108.289 14.1718 86.5104 3 59.6446 3Z" fill="#58595B"/>
<path d="M59.6446 3C32.7787 3 11 14.1718 11 27.937C11 41.7022 32.7787 52.874 59.6446 52.874C86.5104 52.874 108.289 41.7022 108.289 27.937C108.289 14.1718 86.5104 3 59.6446 3Z" fill="#595A5C"/>
<path d="M59.6437 3.01953C32.7778 3.01953 11.0195 14.1714 11.0195 27.9366C11.0195 41.7018 32.7982 52.8536 59.6437 52.8536C86.5095 52.8736 108.268 41.7018 108.268 27.9366C108.268 14.1714 86.5095 3.01953 59.6437 3.01953Z" fill="#5A5B5D"/>
<path d="M59.6437 3.01953C32.7778 3.01953 11.0195 14.1714 11.0195 27.9366C11.0195 41.7018 32.7982 52.8536 59.6437 52.8536C86.4891 52.8536 108.268 41.7018 108.268 27.9366C108.268 14.1714 86.4891 3.01953 59.6437 3.01953Z" fill="#5B5C5E"/>
<path d="M59.6437 3.01953C32.7982 3.01953 11.0195 14.1714 11.0195 27.9366C11.0195 41.7018 32.7982 52.8536 59.6437 52.8536C86.4891 52.8536 108.268 41.7018 108.268 27.9366C108.268 14.1714 86.4891 3.01953 59.6437 3.01953Z" fill="#5C5C5F"/>
<path d="M59.6437 3.01953C32.7982 3.01953 11.0195 14.1714 11.0195 27.9366C11.0195 41.7018 32.7778 52.8536 59.6437 52.8536C86.4891 52.8536 108.268 41.7018 108.268 27.9366C108.268 14.1714 86.4891 3.01953 59.6437 3.01953Z" fill="#5C5D60"/>
<path d="M59.6428 3.03906C32.7973 3.03906 11.0391 14.1909 11.0391 27.9362C11.0391 41.6814 32.7973 52.8333 59.6428 52.8333C86.4882 52.8333 108.267 41.6814 108.267 27.9362C108.246 14.1909 86.4882 3.03906 59.6428 3.03906Z" fill="#5D5E60"/>
<path d="M59.6428 3.03906C32.7973 3.03906 11.0391 14.1909 11.0391 27.9362C11.0391 41.6814 32.7973 52.8333 59.6428 52.8333C86.4882 52.8333 108.246 41.6814 108.246 27.9362C108.246 14.1909 86.4882 3.03906 59.6428 3.03906Z" fill="#5E5F61"/>
<path d="M59.6428 3.03906C32.7973 3.03906 11.0391 14.1909 11.0391 27.9362C11.0391 41.6814 32.7973 52.8333 59.6428 52.8333C86.4882 52.8333 108.246 41.6814 108.246 27.9362C108.246 14.1909 86.4882 3.03906 59.6428 3.03906Z" fill="#5F6062"/>
<path d="M59.6458 3.03906C32.8004 3.03906 11.0625 14.1909 11.0625 27.9362C11.0625 41.6814 32.8208 52.8333 59.6662 52.8333C86.4912 52.8333 108.249 41.6814 108.249 27.9362C108.249 14.1909 86.4912 3.03906 59.6458 3.03906Z" fill="#606163"/>
<path d="M59.6458 3.06055C32.8208 3.06055 11.0625 14.1924 11.0625 27.9377C11.0625 41.683 32.8208 52.8149 59.6458 52.8149C86.4912 52.8348 108.249 41.683 108.249 27.9377C108.249 14.1924 86.4912 3.06055 59.6458 3.06055Z" fill="#616264"/>
<path d="M59.6458 3.06055C32.8208 3.06055 11.0625 14.1924 11.0625 27.9377C11.0625 41.683 32.8208 52.8149 59.6458 52.8149C86.4708 52.8149 108.229 41.683 108.229 27.9377C108.229 14.1924 86.4708 3.06055 59.6458 3.06055Z" fill="#616365"/>
<path d="M59.6458 3.06055C32.8208 3.06055 11.0625 14.1924 11.0625 27.9377C11.0625 41.683 32.8208 52.8149 59.6458 52.8149C86.4708 52.8149 108.229 41.683 108.229 27.9377C108.229 14.1924 86.4708 3.06055 59.6458 3.06055Z" fill="#626366"/>
<path d="M59.641 3.06055C32.816 3.06055 11.0781 14.2124 11.0781 27.9377C11.0781 41.663 32.816 52.8149 59.641 52.8149C86.466 52.8149 108.224 41.683 108.224 27.9377C108.224 14.1924 86.466 3.06055 59.641 3.06055Z" fill="#636467"/>
<path d="M59.641 3.08008C32.816 3.08008 11.0781 14.212 11.0781 27.9373C11.0781 41.6626 32.816 52.8144 59.641 52.8144C86.466 52.8144 108.204 41.6826 108.204 27.9373C108.224 14.212 86.466 3.08008 59.641 3.08008Z" fill="#646567"/>
<path d="M59.641 3.08008C32.8364 3.08008 11.0781 14.212 11.0781 27.9373C11.0781 41.6626 32.816 52.7945 59.641 52.7945C86.466 52.7945 108.204 41.6626 108.204 27.9373C108.204 14.212 86.466 3.08008 59.641 3.08008Z" fill="#656668"/>
<path d="M59.644 3.08008C32.8394 3.08008 11.1016 14.212 11.1016 27.9373C11.1016 41.6626 32.8394 52.7945 59.6644 52.7945C86.4894 52.7945 108.227 41.6626 108.227 27.9373C108.207 14.212 86.469 3.08008 59.644 3.08008Z" fill="#666769"/>
<path d="M59.644 3.08008C32.8394 3.08008 11.1016 14.212 11.1016 27.9373C11.1016 41.6626 32.8394 52.7945 59.644 52.7945C86.4486 52.7945 108.207 41.6626 108.207 27.9373C108.207 14.212 86.469 3.08008 59.644 3.08008Z" fill="#66686A"/>
<path d="M59.644 3.09961C32.8394 3.09961 11.1016 14.2115 11.1016 27.9369C11.1016 41.6622 32.8394 52.7741 59.644 52.7741C86.4485 52.7741 108.186 41.6422 108.186 27.9369C108.207 14.2115 86.469 3.09961 59.644 3.09961Z" fill="#67686B"/>
<path d="M59.644 3.09961C32.8394 3.09961 11.1016 14.2115 11.1016 27.9369C11.1016 41.6622 32.8394 52.7741 59.644 52.7741C86.4486 52.7741 108.186 41.6622 108.186 27.9369C108.186 14.2115 86.4486 3.09961 59.644 3.09961Z" fill="#68696C"/>
<path d="M59.6392 3.09961C32.8346 3.09961 11.1172 14.2315 11.1172 27.9369C11.1172 41.6622 32.855 52.7741 59.6596 52.7741C86.4642 52.7741 108.202 41.6622 108.202 27.9369C108.182 14.2315 86.4437 3.09961 59.6392 3.09961Z" fill="#696A6C"/>
<path d="M59.6392 3.09961C32.855 3.09961 11.1172 14.2315 11.1172 27.9369C11.1172 41.6422 32.855 52.7741 59.6392 52.7741C86.4437 52.7741 108.182 41.6622 108.182 27.9369C108.182 14.2315 86.4437 3.09961 59.6392 3.09961Z" fill="#6A6B6D"/>
<path d="M59.6392 3.12012C32.855 3.12012 11.1172 14.232 11.1172 27.9374C11.1172 41.6428 32.8346 52.7747 59.6392 52.7747C86.4438 52.7747 108.161 41.6628 108.161 27.9374C108.182 14.232 86.4438 3.12012 59.6392 3.12012Z" fill="#6A6C6E"/>
<path d="M59.6461 3.11914C32.8619 3.11914 11.1445 14.2311 11.1445 27.9364C11.1445 41.6418 32.862 52.7537 59.6665 52.7537C86.4711 52.7537 108.189 41.6418 108.189 27.9364C108.189 14.2311 86.4507 3.11914 59.6461 3.11914Z" fill="#6B6C6F"/>
<path d="M59.6461 3.11914C32.8619 3.11914 11.1445 14.2311 11.1445 27.9364C11.1445 41.6418 32.862 52.7537 59.6665 52.7537C86.4711 52.7537 108.189 41.6418 108.189 27.9364C108.168 14.2311 86.4507 3.11914 59.6461 3.11914Z" fill="#6C6D70"/>
<path d="M59.6461 3.11914C32.862 3.11914 11.1445 14.2311 11.1445 27.9364C11.1445 41.6418 32.862 52.7537 59.6461 52.7537C86.4302 52.7537 108.168 41.6418 108.168 27.9364C108.168 14.2311 86.4507 3.11914 59.6461 3.11914Z" fill="#6D6E70"/>
<path d="M59.6665 3.13965C32.862 3.13965 11.1445 14.2316 11.1445 27.937C11.1445 41.6424 32.862 52.7543 59.6461 52.7543C86.4302 52.7543 108.168 41.6424 108.168 27.937C108.168 14.2316 86.4507 3.13965 59.6665 3.13965Z" fill="#6D6F71"/>
<path d="M59.6617 3.13965C32.8776 3.13965 11.1602 14.2516 11.1602 27.937C11.1602 41.6424 32.8776 52.7344 59.6617 52.7344C86.4459 52.7344 108.163 41.6224 108.163 27.937C108.163 14.2516 86.4459 3.13965 59.6617 3.13965Z" fill="#6E7072"/>
<path d="M59.6617 3.13965C32.8776 3.13965 11.1602 14.2516 11.1602 27.937C11.1602 41.6224 32.8776 52.7344 59.6617 52.7344C86.4459 52.7344 108.143 41.6424 108.143 27.937C108.143 14.2516 86.4254 3.13965 59.6617 3.13965Z" fill="#6F7073"/>
<path d="M59.6617 3.13965C32.8776 3.13965 11.1602 14.2516 11.1602 27.937C11.1602 41.6224 32.8776 52.7344 59.6413 52.7344C86.4254 52.7344 108.143 41.6424 108.143 27.937C108.143 14.2516 86.4254 3.13965 59.6617 3.13965Z" fill="#707174"/>
<path d="M59.6647 3.15918C32.8806 3.15918 11.1836 14.2512 11.1836 27.9366C11.1836 41.622 32.901 52.7339 59.6647 52.7339C86.4489 52.7339 108.146 41.642 108.146 27.9366C108.146 14.2512 86.4284 3.15918 59.6647 3.15918Z" fill="#717275"/>
<path d="M59.6647 3.15918C32.8806 3.15918 11.1836 14.2512 11.1836 27.9366C11.1836 41.622 32.8806 52.714 59.6647 52.714C86.4489 52.714 108.146 41.622 108.146 27.9366C108.146 14.2512 86.4284 3.15918 59.6647 3.15918Z" fill="#717375"/>
<path d="M59.6647 3.15918C32.8806 3.15918 11.1836 14.2512 11.1836 27.9366C11.1836 41.622 32.8806 52.714 59.6647 52.714C86.4284 52.714 108.146 41.622 108.146 27.9366C108.125 14.2512 86.4284 3.15918 59.6647 3.15918Z" fill="#727476"/>
<path d="M59.6647 3.15918C32.901 3.15918 11.1836 14.2512 11.1836 27.9366C11.1836 41.622 32.8806 52.714 59.6443 52.714C86.408 52.714 108.125 41.622 108.125 27.9366C108.125 14.2512 86.4284 3.15918 59.6647 3.15918Z" fill="#737477"/>
<path d="M59.6638 3.17969C32.9001 3.17969 11.2031 14.2717 11.2031 27.9371C11.2031 41.6226 32.9001 52.7146 59.6638 52.7146C86.4275 52.7146 108.125 41.6226 108.125 27.9371C108.125 14.2717 86.4275 3.17969 59.6638 3.17969Z" fill="#747578"/>
<path d="M59.6638 3.17969C32.9001 3.17969 11.2031 14.2717 11.2031 27.9371C11.2031 41.6026 32.9001 52.6946 59.6638 52.6946C86.4275 52.6946 108.125 41.6026 108.125 27.9371C108.125 14.2717 86.4275 3.17969 59.6638 3.17969Z" fill="#747678"/>
<path d="M59.6638 3.17969C32.9001 3.17969 11.2031 14.2717 11.2031 27.9371C11.2031 41.6026 32.9001 52.6946 59.6638 52.6946C86.4275 52.6946 108.125 41.6026 108.125 27.9371C108.104 14.2717 86.4275 3.17969 59.6638 3.17969Z" fill="#757779"/>
<path d="M59.6668 3.17969C32.9031 3.17969 11.2266 14.2717 11.2266 27.9371C11.2266 41.6026 32.9236 52.6946 59.6668 52.6946C86.4305 52.6946 108.128 41.6026 108.128 27.9371C108.107 14.2717 86.4101 3.17969 59.6668 3.17969Z" fill="#76777A"/>
<path d="M59.6668 3.19922C32.9031 3.19922 11.2266 14.2712 11.2266 27.9367C11.2266 41.6022 32.9236 52.6942 59.6668 52.6942C86.4305 52.6942 108.107 41.6022 108.107 27.9367C108.107 14.2712 86.4101 3.19922 59.6668 3.19922Z" fill="#77787B"/>
<path d="M59.6668 3.19922C32.9236 3.19922 11.2266 14.2712 11.2266 27.9367C11.2266 41.6022 32.9031 52.6742 59.6668 52.6742C86.4305 52.6742 108.107 41.6022 108.107 27.9367C108.107 14.2712 86.4101 3.19922 59.6668 3.19922Z" fill="#77797C"/>
<path d="M59.6668 3.19922C32.9236 3.19922 11.2266 14.2712 11.2266 27.9367C11.2266 41.6022 32.9031 52.6742 59.6464 52.6742C86.3897 52.6742 108.087 41.6022 108.087 27.9367C108.107 14.2712 86.4101 3.19922 59.6668 3.19922Z" fill="#787A7C"/>
<path d="M59.6659 3.19922C32.9227 3.19922 11.2461 14.2912 11.2461 27.9367C11.2461 41.6022 32.9227 52.6742 59.6659 52.6742C86.4092 52.6742 108.086 41.6022 108.086 27.9367C108.086 14.2912 86.4092 3.19922 59.6659 3.19922Z" fill="#797B7D"/>
<path d="M59.6659 3.21973C32.9227 3.21973 11.2461 14.2918 11.2461 27.9572C11.2461 41.6227 32.9227 52.6947 59.6659 52.6947C86.4092 52.6947 108.086 41.6227 108.086 27.9572C108.086 14.2918 86.4092 3.21973 59.6659 3.21973Z" fill="#7A7B7E"/>
<path d="M59.6659 3.21973C32.9227 3.21973 11.2461 14.2918 11.2461 27.9572C11.2461 41.6028 32.9227 52.6748 59.6659 52.6748C86.4092 52.6748 108.086 41.6028 108.086 27.9572C108.086 14.2918 86.4092 3.21973 59.6659 3.21973Z" fill="#7A7C7F"/>
<path d="M59.6659 3.21973C32.9227 3.21973 11.2461 14.2918 11.2461 27.9572C11.2461 41.6028 32.9227 52.6748 59.6659 52.6748C86.4092 52.6748 108.086 41.6028 108.086 27.9572C108.086 14.2918 86.4092 3.21973 59.6659 3.21973Z" fill="#7B7D7F"/>
<path d="M59.665 3.21973C32.9422 3.21973 11.2656 14.2918 11.2656 27.9572C11.2656 41.6028 32.9422 52.6748 59.665 52.6748C86.3879 52.6748 108.064 41.6028 108.064 27.9572C108.064 14.2918 86.3879 3.21973 59.665 3.21973Z" fill="#7C7E80"/>
<path d="M59.665 3.23926C32.9422 3.23926 11.2656 14.2913 11.2656 27.9568C11.2656 41.6023 32.9422 52.6744 59.665 52.6744C86.3879 52.6744 108.064 41.6023 108.064 27.9568C108.064 14.2913 86.3879 3.23926 59.665 3.23926Z" fill="#7D7E81"/>
<path d="M59.665 3.23926C32.9422 3.23926 11.2656 14.2913 11.2656 27.9568C11.2656 41.6023 32.9422 52.6544 59.665 52.6544C86.3879 52.6544 108.064 41.5824 108.064 27.9568C108.064 14.2913 86.3879 3.23926 59.665 3.23926Z" fill="#7D7F82"/>
<path d="M59.6602 3.23926C32.9374 3.23926 11.2812 14.3113 11.2812 27.9568C11.2812 41.6023 32.9374 52.6544 59.6602 52.6544C86.3831 52.6544 108.06 41.6023 108.06 27.9568C108.06 14.3113 86.3831 3.23926 59.6602 3.23926Z" fill="#7E8082"/>
<path d="M59.6602 3.23926C32.9374 3.23926 11.2812 14.3113 11.2812 27.9568C11.2812 41.6023 32.9374 52.6544 59.6602 52.6544C86.3831 52.6544 108.039 41.5824 108.039 27.9568C108.039 14.3113 86.3831 3.23926 59.6602 3.23926Z" fill="#7F8183"/>
<path d="M59.6602 3.25977C32.9374 3.25977 11.2812 14.3118 11.2812 27.9574C11.2812 41.6029 32.9374 52.655 59.6602 52.655C86.3831 52.635 108.039 41.5829 108.039 27.9574C108.039 14.3118 86.3831 3.25977 59.6602 3.25977Z" fill="#808184"/>
<path d="M59.6602 3.25977C32.9578 3.25977 11.2812 14.3118 11.2812 27.9574C11.2812 41.5829 32.9374 52.635 59.6602 52.635C86.3831 52.635 108.039 41.5829 108.039 27.9574C108.039 14.3118 86.3831 3.25977 59.6602 3.25977Z" fill="#808285"/>
<path d="M59.6671 3.25977C32.9647 3.25977 11.3086 14.3118 11.3086 27.9574C11.3086 41.5829 32.9647 52.635 59.6671 52.635C86.39 52.635 108.046 41.5829 108.046 27.9574C108.046 14.3118 86.39 3.25977 59.6671 3.25977Z" fill="#818385"/>
<path d="M59.6671 3.25977C32.9647 3.25977 11.3086 14.3118 11.3086 27.9574C11.3086 41.5829 32.9647 52.635 59.6671 52.635C86.3696 52.635 108.046 41.5829 108.046 27.9574C108.046 14.3118 86.39 3.25977 59.6671 3.25977Z" fill="#828486"/>
<path d="M59.6671 3.27905C32.9647 3.27905 11.3086 14.3112 11.3086 27.9567C11.3086 41.5823 32.9647 52.6344 59.6671 52.6344C86.3696 52.6344 108.026 41.5823 108.026 27.9567C108.026 14.3112 86.3696 3.27905 59.6671 3.27905Z" fill="#828487"/>
<path d="M59.6662 3.27905C32.9638 3.27905 11.3281 14.3311 11.3281 27.9567C11.3281 41.5823 32.9843 52.6344 59.6867 52.6344C86.3891 52.6344 108.045 41.5823 108.045 27.9567C108.025 14.3311 86.3687 3.27905 59.6662 3.27905Z" fill="#838588"/>
<path d="M59.6662 3.27905C32.9638 3.27905 11.3281 14.3311 11.3281 27.9567C11.3281 41.5823 32.9843 52.6144 59.6662 52.6144C86.3687 52.6144 108.025 41.5623 108.025 27.9567C108.025 14.3311 86.3687 3.27905 59.6662 3.27905Z" fill="#848688"/>
<path d="M59.6662 3.27905C32.9843 3.27905 11.3281 14.3311 11.3281 27.9567C11.3281 41.5823 32.9638 52.6144 59.6662 52.6144C86.3687 52.6144 108.004 41.5823 108.004 27.9567C108.025 14.3311 86.3687 3.27905 59.6662 3.27905Z" fill="#858789"/>
<path d="M59.6662 3.29883C32.9843 3.29883 11.3281 14.331 11.3281 27.9565C11.3281 41.5622 32.9638 52.6142 59.6662 52.6142C86.3687 52.6142 108.004 41.5821 108.004 27.9565C108.004 14.331 86.3687 3.29883 59.6662 3.29883Z" fill="#85878A"/>
<path d="M59.6654 3.29883C32.9834 3.29883 11.3477 14.331 11.3477 27.9565C11.3477 41.5622 32.9834 52.6142 59.6858 52.6142C86.3678 52.6142 108.024 41.5821 108.024 27.9565C108.003 14.331 86.3678 3.29883 59.6654 3.29883Z" fill="#86888B"/>
<path d="M59.6653 3.29883C32.9834 3.29883 11.3477 14.331 11.3477 27.9565C11.3477 41.5622 32.9834 52.5943 59.6653 52.5943C86.3473 52.5943 108.003 41.5622 108.003 27.9565C108.003 14.331 86.3678 3.29883 59.6653 3.29883Z" fill="#87898B"/>
<path d="M59.6653 3.29883C32.9834 3.29883 11.3477 14.331 11.3477 27.9565C11.3477 41.5622 32.9834 52.5943 59.6653 52.5943C86.3473 52.5943 107.983 41.5622 107.983 27.9565C108.003 14.331 86.3678 3.29883 59.6653 3.29883Z" fill="#888A8C"/>
<path d="M59.6645 3.31934C32.9825 3.31934 11.3672 14.3515 11.3672 27.9571C11.3672 41.5627 33.0029 52.5948 59.6849 52.5948C86.3669 52.5948 108.003 41.5627 108.003 27.9571C107.982 14.3515 86.3464 3.31934 59.6645 3.31934Z" fill="#888A8D"/>
<path d="M59.6645 3.31934C33.0029 3.31934 11.3672 14.3515 11.3672 27.9571C11.3672 41.5627 33.0029 52.5948 59.6849 52.5948C86.3669 52.5948 108.003 41.5627 108.003 27.9571C107.982 14.3515 86.3464 3.31934 59.6645 3.31934Z" fill="#898B8E"/>
<path d="M59.6644 3.31934C33.0029 3.31934 11.3672 14.3515 11.3672 27.9571C11.3672 41.5627 33.0029 52.5749 59.6644 52.5749C86.3464 52.5749 107.962 41.5428 107.962 27.9571C107.982 14.3515 86.3464 3.31934 59.6644 3.31934Z" fill="#8A8C8E"/>
<path d="M59.6644 3.33984C33.0029 3.33984 11.3672 14.352 11.3672 27.9577C11.3672 41.5433 32.9825 52.5755 59.6644 52.5755C86.3464 52.5755 107.962 41.5433 107.962 27.9577C107.982 14.352 86.3464 3.33984 59.6644 3.33984Z" fill="#8B8D8F"/>
<path d="M59.6879 3.33984C33.0059 3.33984 11.3906 14.352 11.3906 27.9577C11.3906 41.5433 33.0059 52.5755 59.6879 52.5755C86.3495 52.5755 107.985 41.5633 107.985 27.9577C107.985 14.352 86.3495 3.33984 59.6879 3.33984Z" fill="#8B8D90"/>
<path d="M59.6879 3.33984C33.0059 3.33984 11.3906 14.352 11.3906 27.9577C11.3906 41.5433 33.0059 52.5755 59.6879 52.5755C86.3495 52.5755 107.985 41.5633 107.985 27.9577C107.965 14.352 86.3495 3.33984 59.6879 3.33984Z" fill="#8C8E91"/>
<path d="M59.6879 3.33984C33.0059 3.33984 11.3906 14.352 11.3906 27.9577C11.3906 41.5433 33.0059 52.5555 59.6675 52.5555C86.329 52.5555 107.965 41.5433 107.965 27.9577C107.965 14.352 86.3495 3.33984 59.6879 3.33984Z" fill="#8D8F92"/>
<path d="M59.6831 3.33984C33.0215 3.33984 11.4062 14.372 11.4062 27.9577C11.4062 41.5433 33.0215 52.5555 59.6831 52.5555C86.3446 52.5555 107.96 41.5433 107.96 27.9577C107.96 14.372 86.3446 3.33984 59.6831 3.33984Z" fill="#8E9092"/>
<path d="M59.6831 3.35938C33.0215 3.35938 11.4062 14.3716 11.4062 27.9572C11.4062 41.5429 33.0215 52.5551 59.6831 52.5551C86.3446 52.5551 107.96 41.5429 107.96 27.9572C107.96 14.3716 86.3446 3.35938 59.6831 3.35938Z" fill="#8E9093"/>
<path d="M59.6831 3.35938C33.0215 3.35938 11.4062 14.3716 11.4062 27.9572C11.4062 41.5429 33.0215 52.5551 59.6831 52.5551C86.3446 52.5551 107.96 41.5429 107.96 27.9572C107.939 14.3716 86.3242 3.35938 59.6831 3.35938Z" fill="#8F9194"/>
<path d="M59.6831 3.35938C33.0215 3.35938 11.4062 14.3716 11.4062 27.9572C11.4062 41.5429 33.0215 52.5351 59.6626 52.5351C86.3242 52.5351 107.919 41.523 107.919 27.9572C107.939 14.3716 86.3242 3.35938 59.6831 3.35938Z" fill="#909295"/>
<path d="M59.6861 3.37988C33.0245 3.37988 11.4297 14.3721 11.4297 27.9578C11.4297 41.5235 33.045 52.5357 59.6861 52.5357C86.3272 52.5357 107.942 41.5235 107.942 27.9578C107.942 14.3721 86.3272 3.37988 59.6861 3.37988Z" fill="#919395"/>
<path d="M59.6861 3.37988C33.0245 3.37988 11.4297 14.3721 11.4297 27.9578C11.4297 41.5235 33.0245 52.5357 59.6861 52.5357C86.3272 52.5357 107.942 41.5235 107.942 27.9578C107.942 14.3721 86.3272 3.37988 59.6861 3.37988Z" fill="#919396"/>
<path d="M59.6861 3.37988C33.045 3.37988 11.4297 14.3721 11.4297 27.9578C11.4297 41.5235 33.0245 52.5357 59.6657 52.5357C86.3068 52.5357 107.922 41.5235 107.922 27.9578C107.922 14.3921 86.3272 3.37988 59.6861 3.37988Z" fill="#929497"/>
<path d="M59.6813 3.37988C33.0402 3.37988 11.4453 14.3921 11.4453 27.9578C11.4453 41.5235 33.0402 52.5158 59.6813 52.5158C86.3224 52.5158 107.917 41.5235 107.917 27.9578C107.917 14.3921 86.3224 3.37988 59.6813 3.37988Z" fill="#939598"/>
<path d="M59.6813 3.39844C33.0402 3.39844 11.4453 14.3907 11.4453 27.9564C11.4453 41.5221 33.0402 52.5144 59.6813 52.5144C86.3224 52.5144 107.917 41.5221 107.917 27.9564C107.917 14.3907 86.3224 3.39844 59.6813 3.39844Z" fill="#949698"/>
<path d="M59.6813 3.39844C33.0402 3.39844 11.4453 14.3907 11.4453 27.9564C11.4453 41.5221 33.0402 52.5144 59.6813 52.5144C86.3224 52.5144 107.917 41.5221 107.917 27.9564C107.917 14.3907 86.3224 3.39844 59.6813 3.39844Z" fill="#949699"/>
<path d="M59.6813 3.39844C33.0402 3.39844 11.4453 14.3907 11.4453 27.9564C11.4453 41.5221 33.0402 52.5144 59.6609 52.5144C86.302 52.5144 107.897 41.5221 107.897 27.9564C107.917 14.3907 86.3224 3.39844 59.6813 3.39844Z" fill="#95979A"/>
<path d="M59.6882 3.39844C33.0471 3.39844 11.4727 14.3907 11.4727 27.9564C11.4727 41.5221 33.0675 52.4944 59.6882 52.4944C86.3089 52.4944 107.904 41.5022 107.904 27.9564C107.904 14.3907 86.3089 3.39844 59.6882 3.39844Z" fill="#96989B"/>
<path d="M59.6882 3.41895C33.0675 3.41895 11.4727 14.4112 11.4727 27.957C11.4727 41.5027 33.0675 52.495 59.6882 52.495C86.3089 52.495 107.904 41.5027 107.904 27.957C107.904 14.3912 86.3089 3.41895 59.6882 3.41895Z" fill="#97999B"/>
<path d="M59.6882 3.41895C33.0675 3.41895 11.4727 14.4112 11.4727 27.957C11.4727 41.5027 33.0471 52.495 59.6882 52.495C86.3089 52.495 107.904 41.5027 107.904 27.957C107.904 14.3912 86.3089 3.41895 59.6882 3.41895Z" fill="#979A9C"/>
<path d="M59.6834 3.41797C33.0627 3.41797 11.4883 14.4102 11.4883 27.956C11.4883 41.5018 33.0627 52.494 59.6834 52.494C86.3041 52.494 107.899 41.5018 107.899 27.956C107.899 14.4102 86.3041 3.41797 59.6834 3.41797Z" fill="#989A9D"/>
<path d="M59.6834 3.41797C33.0627 3.41797 11.4883 14.4102 11.4883 27.956C11.4883 41.5018 33.0627 52.474 59.6834 52.474C86.3041 52.474 107.879 41.4818 107.879 27.956C107.879 14.4102 86.3041 3.41797 59.6834 3.41797Z" fill="#999B9E"/>
<path d="M59.6834 3.43848C33.0627 3.43848 11.4883 14.4108 11.4883 27.9565C11.4883 41.5023 33.0627 52.4746 59.6834 52.4746C86.3041 52.4746 107.879 41.5023 107.879 27.9565C107.879 14.4108 86.3041 3.43848 59.6834 3.43848Z" fill="#9A9C9E"/>
<path d="M59.6834 3.43848C33.0627 3.43848 11.4883 14.4108 11.4883 27.9565C11.4883 41.5023 33.0627 52.4746 59.6834 52.4746C86.3041 52.4746 107.879 41.5023 107.879 27.9565C107.879 14.4108 86.3041 3.43848 59.6834 3.43848Z" fill="#9B9D9F"/>
<path d="M59.6864 3.43848C33.0861 3.43848 11.5117 14.4108 11.5117 27.9565C11.5117 41.4824 33.0861 52.4746 59.6864 52.4746C86.2867 52.4746 107.882 41.5023 107.882 27.9565C107.882 14.4108 86.3071 3.43848 59.6864 3.43848Z" fill="#9B9DA0"/>
<path d="M59.6864 3.43848C33.0861 3.43848 11.5117 14.4108 11.5117 27.9565C11.5117 41.4824 33.0861 52.4746 59.6864 52.4746C86.2867 52.4746 107.861 41.5023 107.861 27.9565C107.861 14.4108 86.2867 3.43848 59.6864 3.43848Z" fill="#9C9EA1"/>
<path d="M59.6864 3.45898C33.0861 3.45898 11.5117 14.4113 11.5117 27.9571C11.5117 41.4829 33.0861 52.4552 59.6864 52.4552C86.2867 52.4552 107.861 41.4829 107.861 27.9571C107.861 14.4113 86.2867 3.45898 59.6864 3.45898Z" fill="#9D9FA2"/>
<path d="M59.6855 3.45898C33.0852 3.45898 11.5312 14.4313 11.5312 27.9571C11.5312 41.4829 33.1057 52.4552 59.7059 52.4552C86.3062 52.4552 107.881 41.4829 107.881 27.9571C107.86 14.4313 86.2858 3.45898 59.6855 3.45898Z" fill="#9EA0A2"/>
<path d="M59.6855 3.45898C33.0852 3.45898 11.5312 14.4313 11.5312 27.9571C11.5312 41.4829 33.0852 52.4552 59.6855 52.4552C86.2858 52.4552 107.86 41.4829 107.86 27.9571C107.86 14.4313 86.2858 3.45898 59.6855 3.45898Z" fill="#9EA1A3"/>
<path d="M59.6855 3.45898C33.1057 3.45898 11.5312 14.4313 11.5312 27.9571C11.5312 41.4829 33.0852 52.4552 59.6855 52.4552C86.2858 52.4552 107.84 41.4829 107.84 27.9571C107.84 14.4313 86.2858 3.45898 59.6855 3.45898Z" fill="#9FA1A4"/>
<path d="M59.6855 3.47852C33.1057 3.47852 11.5312 14.4308 11.5312 27.9567C11.5312 41.4825 33.0852 52.4348 59.6855 52.4348C86.2858 52.4348 107.84 41.4626 107.84 27.9567C107.84 14.4308 86.2858 3.47852 59.6855 3.47852Z" fill="#A0A2A5"/>
<path d="M59.6885 3.47852C33.1087 3.47852 11.5547 14.4308 11.5547 27.9567C11.5547 41.4825 33.1087 52.4348 59.7089 52.4348C86.2888 52.4348 107.863 41.4825 107.863 27.9567C107.843 14.4308 86.2888 3.47852 59.6885 3.47852Z" fill="#A1A3A5"/>
<path d="M59.6885 3.47852C33.1087 3.47852 11.5547 14.4308 11.5547 27.9567C11.5547 41.4626 33.1087 52.4348 59.6885 52.4348C86.2684 52.4348 107.822 41.4825 107.822 27.9567C107.843 14.4308 86.2888 3.47852 59.6885 3.47852Z" fill="#A2A4A6"/>
<path d="M59.6885 3.47852C33.1087 3.47852 11.5547 14.4508 11.5547 27.9567C11.5547 41.4626 33.1087 52.4348 59.6885 52.4348C86.2684 52.4348 107.822 41.4825 107.822 27.9567C107.843 14.4508 86.2684 3.47852 59.6885 3.47852Z" fill="#A2A4A7"/>
<path d="M59.6837 3.49805C33.1039 3.49805 11.5703 14.4504 11.5703 27.9563C11.5703 41.4621 33.1243 52.4145 59.7041 52.4145C86.284 52.4145 107.838 41.4621 107.838 27.9563C107.818 14.4504 86.2635 3.49805 59.6837 3.49805Z" fill="#A3A5A8"/>
<path d="M59.6837 3.49805C33.1243 3.49805 11.5703 14.4504 11.5703 27.9563C11.5703 41.4621 33.1243 52.4145 59.7041 52.4145C86.284 52.4145 107.838 41.4621 107.838 27.9563C107.818 14.4504 86.2635 3.49805 59.6837 3.49805Z" fill="#A4A6A9"/>
<path d="M59.6837 3.49805C33.1243 3.49805 11.5703 14.4504 11.5703 27.9563C11.5703 41.4621 33.1243 52.4145 59.6837 52.4145C86.2431 52.4145 107.797 41.4621 107.797 27.9563C107.818 14.4504 86.2635 3.49805 59.6837 3.49805Z" fill="#A5A7A9"/>
<path d="M59.6837 3.49805C33.1243 3.49805 11.5703 14.4504 11.5703 27.9563C11.5703 41.4621 33.1039 52.4145 59.6837 52.4145C86.2635 52.4145 107.797 41.4621 107.797 27.9563C107.818 14.4504 86.2635 3.49805 59.6837 3.49805Z" fill="#A5A8AA"/>
<path d="M59.6867 3.51855C33.1273 3.51855 11.5938 14.4509 11.5938 27.9568C11.5938 41.4627 33.1273 52.3951 59.7071 52.3951C86.2666 52.3951 107.821 41.4427 107.821 27.9568C107.8 14.4509 86.2666 3.51855 59.6867 3.51855Z" fill="#A6A8AB"/>
<path d="M59.6867 3.51855C33.1273 3.51855 11.5938 14.4509 11.5938 27.9568C11.5938 41.4627 33.1273 52.3951 59.6867 52.3951C86.2461 52.3951 107.8 41.4427 107.8 27.9568C107.8 14.4509 86.2665 3.51855 59.6867 3.51855Z" fill="#A7A9AC"/>
<path d="M59.6867 3.51855C33.1273 3.51855 11.5938 14.4509 11.5938 27.9568C11.5938 41.4427 33.1273 52.3951 59.6867 52.3951C86.2461 52.3951 107.78 41.4627 107.78 27.9568C107.8 14.4509 86.2665 3.51855 59.6867 3.51855Z" fill="#A8AAAD"/>
<path d="M59.6819 3.51855C33.1429 3.51855 11.6094 14.4709 11.6094 27.9568C11.6094 41.4427 33.1429 52.3951 59.7023 52.3951C86.2617 52.3951 107.795 41.4627 107.795 27.9568C107.795 14.4709 86.2617 3.51855 59.6819 3.51855Z" fill="#A9ABAD"/>
<path d="M59.7023 3.53931C33.1429 3.53931 11.6094 14.4717 11.6094 27.9576C11.6094 41.4435 33.1429 52.3759 59.7023 52.3759C86.2617 52.3759 107.795 41.4435 107.795 27.9576C107.775 14.4717 86.2413 3.53931 59.7023 3.53931Z" fill="#A9ACAE"/>
<path d="M59.7023 3.53931C33.1429 3.53931 11.6094 14.4717 11.6094 27.9576C11.6094 41.4435 33.1429 52.3759 59.6819 52.3759C86.2413 52.3759 107.775 41.4435 107.775 27.9576C107.775 14.4717 86.2413 3.53931 59.7023 3.53931Z" fill="#AAACAF"/>
<path d="M59.7023 3.53931C33.1429 3.53931 11.6094 14.4717 11.6094 27.9576C11.6094 41.4435 33.1429 52.3759 59.6819 52.3759C86.2413 52.3759 107.754 41.4435 107.754 27.9576C107.775 14.4717 86.2413 3.53931 59.7023 3.53931Z" fill="#ABADB0"/>
<path d="M59.7053 3.53906C33.1459 3.53906 11.6328 14.4714 11.6328 27.9574C11.6328 41.4433 33.1459 52.3757 59.7053 52.3757C86.2443 52.3757 107.778 41.4433 107.778 27.9574C107.778 14.4714 86.2443 3.53906 59.7053 3.53906Z" fill="#ACAEB0"/>
<path d="M59.7053 3.55859C33.1459 3.55859 11.6328 14.471 11.6328 27.957C11.6328 41.4429 33.1459 52.3553 59.7053 52.3553C86.2443 52.3553 107.778 41.4229 107.778 27.957C107.778 14.471 86.2443 3.55859 59.7053 3.55859Z" fill="#ADAFB1"/>
<path d="M59.7053 3.55859C33.1664 3.55859 11.6328 14.471 11.6328 27.957C11.6328 41.4229 33.1459 52.3553 59.6849 52.3553C86.2239 52.3553 107.757 41.4229 107.757 27.957C107.757 14.471 86.2443 3.55859 59.7053 3.55859Z" fill="#AEB0B2"/>
<path d="M59.7083 3.55859C33.1694 3.55859 11.6562 14.491 11.6562 27.957C11.6562 41.4229 33.1694 52.3553 59.7083 52.3553C86.2473 52.3553 107.76 41.4229 107.76 27.957C107.76 14.491 86.2473 3.55859 59.7083 3.55859Z" fill="#AEB0B3"/>
<path d="M59.7083 3.55859C33.1694 3.55859 11.6562 14.491 11.6562 27.957C11.6562 41.4229 33.1694 52.3553 59.7083 52.3553C86.2473 52.3553 107.76 41.4429 107.76 27.957C107.76 14.491 86.2473 3.55859 59.7083 3.55859Z" fill="#AFB1B4"/>
<path d="M59.7083 3.57812C33.1694 3.57812 11.6562 14.4906 11.6562 27.9565C11.6562 41.4225 33.1694 52.3349 59.7083 52.3349C86.2473 52.3349 107.76 41.4225 107.76 27.9565C107.76 14.4906 86.2269 3.57812 59.7083 3.57812Z" fill="#B0B2B4"/>
<path d="M59.7083 3.57812C33.1694 3.57812 11.6562 14.4906 11.6562 27.9565C11.6562 41.4225 33.1694 52.3349 59.6879 52.3349C86.2269 52.3349 107.74 41.4225 107.74 27.9565C107.74 14.4906 86.2269 3.57812 59.7083 3.57812Z" fill="#B1B3B5"/>
<path d="M59.7035 3.57812C33.1646 3.57812 11.6719 14.4906 11.6719 27.9565C11.6719 41.4225 33.185 52.3349 59.7035 52.3349C86.2221 52.3349 107.735 41.4225 107.735 27.9565C107.735 14.4906 86.2221 3.57812 59.7035 3.57812Z" fill="#B2B4B6"/>
<path d="M59.7035 3.57812C33.185 3.57812 11.6719 14.4906 11.6719 27.9565C11.6719 41.4225 33.185 52.3349 59.7035 52.3349C86.2221 52.3349 107.735 41.4225 107.735 27.9565C107.735 14.4906 86.2221 3.57812 59.7035 3.57812Z" fill="#B2B4B7"/>
<path d="M59.7035 3.59863C33.185 3.59863 11.6719 14.5111 11.6719 27.9571C11.6719 41.4031 33.1646 52.3156 59.7035 52.3156C86.2221 52.3156 107.735 41.4031 107.735 27.9571C107.735 14.5111 86.2221 3.59863 59.7035 3.59863Z" fill="#B3B5B8"/>
<path d="M59.7035 3.59863C33.185 3.59863 11.6719 14.5111 11.6719 27.9571C11.6719 41.4031 33.1646 52.3156 59.6831 52.3156C86.2017 52.3156 107.715 41.4031 107.715 27.9571C107.715 14.5111 86.2221 3.59863 59.7035 3.59863Z" fill="#B4B6B8"/>
<path d="M59.7066 3.59863C33.188 3.59863 11.6953 14.5111 11.6953 27.9571C11.6953 41.4031 33.188 52.3156 59.7066 52.3156C86.2251 52.3156 107.718 41.4031 107.718 27.9571C107.718 14.5111 86.2251 3.59863 59.7066 3.59863Z" fill="#B5B7B9"/>
<path d="M59.7066 3.59863C33.188 3.59863 11.6953 14.5111 11.6953 27.9571C11.6953 41.4031 33.188 52.3156 59.7066 52.3156C86.2251 52.3156 107.718 41.4031 107.718 27.9571C107.718 14.5111 86.2251 3.59863 59.7066 3.59863Z" fill="#B6B8BA"/>
<path d="M59.7066 3.61914C33.188 3.61914 11.6953 14.5116 11.6953 27.9776C11.6953 41.4236 33.188 52.3161 59.7066 52.3161C86.2251 52.3161 107.718 41.4037 107.718 27.9776C107.718 14.5116 86.2251 3.61914 59.7066 3.61914Z" fill="#B7B9BB"/>
<path d="M59.7096 3.61914C33.2114 3.61914 11.7188 14.5116 11.7188 27.9577C11.7188 41.4037 33.2114 52.2962 59.7096 52.2962C86.2077 52.2962 107.721 41.4037 107.721 27.9577C107.7 14.5116 86.2077 3.61914 59.7096 3.61914Z" fill="#B7B9BC"/>
<path d="M59.7096 3.61914C33.2114 3.61914 11.7188 14.5116 11.7188 27.9577C11.7188 41.4037 33.2114 52.2962 59.7096 52.2962C86.2077 52.2962 107.7 41.4037 107.7 27.9577C107.7 14.5116 86.2077 3.61914 59.7096 3.61914Z" fill="#B8BABC"/>
<path d="M59.7096 3.61914C33.2114 3.61914 11.7188 14.5316 11.7188 27.9577C11.7188 41.4037 33.2114 52.2962 59.7096 52.2962C86.2077 52.2962 107.7 41.4037 107.7 27.9577C107.7 14.5316 86.2077 3.61914 59.7096 3.61914Z" fill="#B9BBBD"/>
<path d="M59.7096 3.63867C33.2114 3.63867 11.7188 14.5312 11.7188 27.9572C11.7188 41.3833 33.2114 52.2758 59.7096 52.2758C86.2077 52.2758 107.7 41.3833 107.7 27.9572C107.7 14.5312 86.2077 3.63867 59.7096 3.63867Z" fill="#BABCBE"/>
<path d="M59.7048 3.63867C33.2066 3.63867 11.7344 14.5312 11.7344 27.9572C11.7344 41.4033 33.2066 52.2758 59.7048 52.2758C86.2029 52.2758 107.675 41.3833 107.675 27.9572C107.696 14.5312 86.2029 3.63867 59.7048 3.63867Z" fill="#BBBDBF"/>
<path d="M59.7048 3.63867C33.2066 3.63867 11.7344 14.5312 11.7344 27.9572C11.7344 41.3833 33.2066 52.2758 59.7048 52.2758C86.2029 52.2758 107.675 41.3833 107.675 27.9572C107.675 14.5312 86.2029 3.63867 59.7048 3.63867Z" fill="#BCBDC0"/>
<path d="M59.7048 3.63867C33.2271 3.63867 11.7344 14.5312 11.7344 27.9572C11.7344 41.3833 33.2271 52.2758 59.7048 52.2758C86.2029 52.2758 107.675 41.3833 107.675 27.9572C107.675 14.5312 86.2029 3.63867 59.7048 3.63867Z" fill="#BCBEC0"/>
<path d="M59.7078 3.6582C33.2301 3.6582 11.7578 14.5307 11.7578 27.9568C11.7578 41.3829 33.2301 52.2754 59.7078 52.2754C86.1854 52.2754 107.678 41.3829 107.678 27.9568C107.678 14.5307 86.2059 3.6582 59.7078 3.6582Z" fill="#BDBFC1"/>
<path d="M59.7078 3.6582C33.2301 3.6582 11.7578 14.5307 11.7578 27.9568C11.7578 41.3829 33.2301 52.2754 59.7078 52.2754C86.1854 52.2754 107.658 41.3829 107.658 27.9768C107.678 14.5307 86.1854 3.6582 59.7078 3.6582Z" fill="#BEC0C2"/>
<path d="M59.7078 3.6582C33.2301 3.6582 11.7578 14.5507 11.7578 27.9568C11.7578 41.3829 33.2301 52.2554 59.7078 52.2554C86.1854 52.2554 107.658 41.3829 107.658 27.9568C107.658 14.5507 86.1854 3.6582 59.7078 3.6582Z" fill="#BFC1C3"/>
<path d="M59.7078 3.67798C33.2301 3.67798 11.7578 14.5505 11.7578 27.9566C11.7578 41.3628 33.2301 52.2553 59.7078 52.2553C86.1854 52.2553 107.658 41.3827 107.658 27.9566C107.658 14.5505 86.1854 3.67798 59.7078 3.67798Z" fill="#C0C2C4"/>
<path d="M59.703 3.67798C33.2253 3.67798 11.7734 14.5505 11.7734 27.9566C11.7734 41.3628 33.2457 52.2553 59.703 52.2553C86.1806 52.2553 107.653 41.3827 107.653 27.9566C107.653 14.5505 86.1806 3.67798 59.703 3.67798Z" fill="#C1C2C4"/>
<path d="M59.7029 3.67798C33.2457 3.67798 11.7734 14.5505 11.7734 27.9566C11.7734 41.3628 33.2457 52.2353 59.7029 52.2353C86.1806 52.2353 107.632 41.3628 107.632 27.9566C107.653 14.5505 86.1806 3.67798 59.7029 3.67798Z" fill="#C1C3C5"/>
<path d="M59.7029 3.67798C33.2457 3.67798 11.7734 14.5505 11.7734 27.9566C11.7734 41.3628 33.2253 52.2353 59.7029 52.2353C86.1806 52.2353 107.632 41.3628 107.632 27.9566C107.632 14.5505 86.1806 3.67798 59.7029 3.67798Z" fill="#C2C4C6"/>
<path d="M59.706 3.69727C33.2487 3.69727 11.7969 14.5498 11.7969 27.956C11.7969 41.3621 33.2487 52.2346 59.7264 52.2346C86.1837 52.2346 107.635 41.3621 107.635 27.956C107.635 14.5498 86.1837 3.69727 59.706 3.69727Z" fill="#C3C5C7"/>
<path d="M59.706 3.69727C33.2487 3.69727 11.7969 14.5498 11.7969 27.956C11.7969 41.3621 33.2487 52.2346 59.706 52.2346C86.1837 52.2346 107.635 41.3621 107.635 27.956C107.635 14.5498 86.1837 3.69727 59.706 3.69727Z" fill="#C4C6C8"/>
<path d="M59.706 3.69727C33.2487 3.69727 11.7969 14.5698 11.7969 27.956C11.7969 41.3621 33.2487 52.2147 59.706 52.2147C86.1837 52.2346 107.635 41.3621 107.635 27.956C107.635 14.5698 86.1837 3.69727 59.706 3.69727Z" fill="#C5C6C8"/>
<path d="M59.7051 3.69727C33.2478 3.69727 11.8164 14.5698 11.8164 27.956C11.8164 41.3621 33.2682 52.2147 59.7255 52.2147C86.1827 52.2147 107.635 41.3422 107.635 27.956C107.614 14.5698 86.1623 3.69727 59.7051 3.69727Z" fill="#C5C7C9"/>
<path d="M59.7051 3.71777C33.2682 3.71777 11.8164 14.5704 11.8164 27.9565C11.8164 41.3427 33.2682 52.2153 59.7255 52.2153C86.1827 52.2153 107.635 41.3627 107.635 27.9565C107.614 14.5704 86.1623 3.71777 59.7051 3.71777Z" fill="#C5C7C9"/>
<path d="M59.7051 3.71777C33.2682 3.71777 11.8164 14.5704 11.8164 27.9565C11.8164 41.3427 33.2682 52.2153 59.7051 52.2153C86.1419 52.2153 107.614 41.3627 107.614 27.9565C107.614 14.5704 86.1623 3.71777 59.7051 3.71777Z" fill="#C7C9CB"/>
<path d="M59.7255 3.71777C33.2682 3.71777 11.8164 14.5704 11.8164 27.9565C11.8164 41.3427 33.2682 52.1953 59.7051 52.1953C86.1419 52.1953 107.594 41.3427 107.594 27.9565C107.614 14.5704 86.1623 3.71777 59.7255 3.71777Z" fill="#C8CACC"/>
<path d="M59.7285 3.71777C33.2712 3.71777 11.8398 14.5704 11.8398 27.9565C11.8398 41.3427 33.2712 52.1953 59.7285 52.1953C86.1653 52.1953 107.617 41.3427 107.617 27.9565C107.617 14.5704 86.1653 3.71777 59.7285 3.71777Z" fill="#C9CBCC"/>
<path d="M59.7285 3.73828C33.2712 3.73828 11.8398 14.5709 11.8398 27.9571C11.8398 41.3433 33.2712 52.1959 59.7285 52.1959C86.1653 52.1959 107.617 41.3433 107.617 27.9571C107.597 14.5709 86.1653 3.73828 59.7285 3.73828Z" fill="#CACBCD"/>
<path d="M59.7285 3.73828C33.2712 3.73828 11.8398 14.5909 11.8398 27.9571C11.8398 41.3433 33.2712 52.1959 59.7081 52.1959C86.1449 52.1959 107.597 41.3433 107.597 27.9571C107.597 14.5909 86.1653 3.73828 59.7285 3.73828Z" fill="#CBCCCE"/>
<path d="M59.7285 3.73828C33.2917 3.73828 11.8398 14.5909 11.8398 27.9571C11.8398 41.3433 33.2712 52.1759 59.7081 52.1759C86.1449 52.1759 107.576 41.3233 107.576 27.9571C107.597 14.5909 86.1653 3.73828 59.7285 3.73828Z" fill="#CBCDCF"/>
<path d="M59.7276 3.73828C33.2908 3.73828 11.8594 14.5909 11.8594 27.9571C11.8594 41.3233 33.2908 52.1759 59.7276 52.1759C86.1644 52.1759 107.596 41.3233 107.596 27.9571C107.596 14.5909 86.1644 3.73828 59.7276 3.73828Z" fill="#CCCED0"/>
<path d="M59.7276 3.75781C33.2908 3.75781 11.8594 14.5904 11.8594 27.9567C11.8594 41.3229 33.2908 52.1755 59.7276 52.1755C86.1644 52.1755 107.596 41.3229 107.596 27.9567C107.575 14.5904 86.144 3.75781 59.7276 3.75781Z" fill="#CDCFD0"/>
<path d="M59.7276 3.75781C33.2908 3.75781 11.8594 14.5904 11.8594 27.9766C11.8594 41.3429 33.2908 52.1954 59.7072 52.1954C86.144 52.1954 107.575 41.3429 107.575 27.9766C107.575 14.5904 86.144 3.75781 59.7276 3.75781Z" fill="#CECFD1"/>
<path d="M59.7306 3.75781C33.2938 3.75781 11.8828 14.5904 11.8828 27.9567C11.8828 41.3229 33.3142 52.1555 59.7306 52.1555C86.147 52.1555 107.578 41.3229 107.578 27.9567C107.578 14.5904 86.147 3.75781 59.7306 3.75781Z" fill="#CFD0D2"/>
<path d="M59.7306 3.75781C33.2938 3.75781 11.8828 14.5904 11.8828 27.9766C11.8828 41.3429 33.3142 52.1755 59.7306 52.1755C86.147 52.1755 107.578 41.3429 107.578 27.9766C107.578 14.5904 86.147 3.75781 59.7306 3.75781Z" fill="#CFD0D2"/>
<path d="M59.7306 3.7793C33.3142 3.7793 11.8828 14.6119 11.8828 27.9782C11.8828 41.3444 33.2938 52.177 59.7306 52.177C86.147 52.177 107.578 41.3444 107.578 27.9782C107.578 14.6119 86.147 3.7793 59.7306 3.7793Z" fill="#D0D1D3"/>
<path d="M59.7306 3.7793C33.3142 3.7793 11.8828 14.6119 11.8828 27.9782C11.8828 41.3444 33.2938 52.177 59.7102 52.177C86.1266 52.177 107.558 41.3444 107.558 27.9782C107.558 14.6119 86.147 3.7793 59.7306 3.7793Z" fill="#D0D2D3"/>
<path d="M59.7258 3.77832C33.3094 3.77832 11.8984 14.611 11.8984 27.9772C11.8984 41.3434 33.3094 52.1561 59.7258 52.1561C86.1422 52.1561 107.553 41.3235 107.553 27.9772C107.553 14.611 86.1422 3.77832 59.7258 3.77832Z" fill="#D2D3D5"/>
<path d="M59.7258 3.77832C33.3094 3.77832 11.8984 14.611 11.8984 27.9772C11.8984 41.3235 33.3094 52.1561 59.7258 52.1561C86.1422 52.1561 107.553 41.3235 107.553 27.9772C107.553 14.611 86.1422 3.77832 59.7258 3.77832Z" fill="#D3D4D6"/>
<path d="M59.7258 3.79883C33.3094 3.79883 11.8984 14.6115 11.8984 27.9777C11.8984 41.324 33.3094 52.1567 59.7258 52.1567C86.1422 52.1567 107.553 41.324 107.553 27.9777C107.553 14.6115 86.1218 3.79883 59.7258 3.79883Z" fill="#D4D5D7"/>
<path d="M59.7288 3.79883C33.3124 3.79883 11.9219 14.6115 11.9219 27.9777C11.9219 41.324 33.3328 52.1567 59.7288 52.1567C86.1452 52.1567 107.536 41.324 107.536 27.9777C107.536 14.6115 86.1248 3.79883 59.7288 3.79883Z" fill="#D5D6D7"/>
<path d="M59.7288 3.79883C33.3328 3.79883 11.9219 14.6115 11.9219 27.9777C11.9219 41.324 33.3328 52.1367 59.7288 52.1367C86.1248 52.1367 107.536 41.324 107.536 27.9777C107.536 14.6115 86.1248 3.79883 59.7288 3.79883Z" fill="#D5D7D8"/>
<path d="M59.7288 3.79883C33.3328 3.79883 11.9219 14.6315 11.9219 27.9777C11.9219 41.324 33.3328 52.1367 59.7288 52.1367C86.1248 52.1367 107.536 41.324 107.536 27.9777C107.536 14.6315 86.1248 3.79883 59.7288 3.79883Z" fill="#D6D7D9"/>
<path d="M59.7288 3.81763C33.3328 3.81763 11.9219 14.6303 11.9219 27.9766C11.9219 41.3229 33.3328 52.1356 59.7288 52.1356C86.1248 52.1356 107.536 41.3229 107.536 27.9766C107.536 14.6303 86.1248 3.81763 59.7288 3.81763Z" fill="#D7D8DA"/>
<path d="M59.724 3.81738C33.328 3.81738 11.9375 14.6301 11.9375 27.9763C11.9375 41.3226 33.328 52.1353 59.724 52.1353C86.12 52.1353 107.51 41.3226 107.51 27.9763C107.51 14.6301 86.12 3.81738 59.724 3.81738Z" fill="#D8D9DB"/>
<path d="M59.724 3.81738C33.328 3.81738 11.9375 14.6301 11.9375 27.9763C11.9375 41.3027 33.328 52.1154 59.724 52.1154C86.12 52.1154 107.51 41.3027 107.51 27.9763C107.51 14.6301 86.12 3.81738 59.724 3.81738Z" fill="#D8D9DB"/>
<path d="M59.724 3.81738C33.328 3.81738 11.9375 14.6301 11.9375 27.9763C11.9375 41.3027 33.328 52.1154 59.724 52.1154C86.12 52.1154 107.51 41.3027 107.51 27.9763C107.51 14.6301 86.12 3.81738 59.724 3.81738Z" fill="#D9DADB"/>
<path d="M59.727 3.83789C33.3515 3.83789 11.9609 14.6306 11.9609 27.9769C11.9609 41.3032 33.3515 52.1159 59.727 52.1159C86.1026 52.1159 107.514 41.3032 107.514 27.9769C107.514 14.6306 86.123 3.83789 59.727 3.83789Z" fill="#D9DBDC"/>
<path d="M59.727 3.83789C33.3515 3.83789 11.9609 14.6306 11.9609 27.9769C11.9609 41.3032 33.3515 52.1159 59.727 52.1159C86.1026 52.1159 107.493 41.3032 107.493 27.9769C107.493 14.6306 86.1026 3.83789 59.727 3.83789Z" fill="#DADCDD"/>
<path d="M59.727 3.83789C33.3515 3.83789 11.9609 14.6506 11.9609 27.9769C11.9609 41.3032 33.3515 52.1159 59.727 52.1159C86.1026 52.1159 107.493 41.3032 107.493 27.9769C107.493 14.6506 86.1026 3.83789 59.727 3.83789Z" fill="#DBDCDE"/>
<path d="M59.727 3.83789C33.3515 3.83789 11.9609 14.6506 11.9609 27.9769C11.9609 41.3032 33.3515 52.096 59.727 52.096C86.1026 52.096 107.493 41.2833 107.493 27.9769C107.493 14.6506 86.1026 3.83789 59.727 3.83789Z" fill="#DDDEDF"/>
<path d="M59.7261 3.85742C33.3506 3.85742 11.9805 14.6502 11.9805 27.9765C11.9805 41.3028 33.371 52.0956 59.7261 52.0956C86.1017 52.0956 107.492 41.3028 107.492 27.9765C107.492 14.6502 86.1017 3.85742 59.7261 3.85742Z" fill="#DEDFE0"/>
<path d="M59.7261 3.85742C33.3506 3.85742 11.9805 14.6502 11.9805 27.9765C11.9805 41.2829 33.3506 52.0756 59.7261 52.0756C86.1017 52.0756 107.472 41.2829 107.472 27.9565C107.492 14.6502 86.1017 3.85742 59.7261 3.85742Z" fill="#DEE0E1"/>
<path d="M59.7261 3.85742C33.371 3.85742 11.9805 14.6502 11.9805 27.9765C11.9805 41.2829 33.371 52.0756 59.7261 52.0756C86.1016 52.0756 107.472 41.2829 107.472 27.9565C107.472 14.6502 86.1016 3.85742 59.7261 3.85742Z" fill="#DFE0E2"/>
<path d="M59.7252 3.85742C33.3701 3.85742 12 14.6502 12 27.9765C12 41.2829 33.3701 52.0756 59.7252 52.0756C86.1008 52.0756 107.471 41.2829 107.471 27.9765C107.471 14.6502 86.1008 3.85742 59.7252 3.85742Z" fill="#E0E1E2"/>
<path d="M59.7252 3.87793C33.3701 3.87793 12 14.6507 12 27.977C12 41.2834 33.3701 52.0762 59.7252 52.0762C86.0803 52.0762 107.471 41.2834 107.471 27.977C107.471 14.6507 86.1008 3.87793 59.7252 3.87793Z" fill="#E1E2E3"/>
<path d="M59.7252 3.87793C33.3701 3.87793 12 14.6707 12 27.977C12 41.2834 33.3701 52.0762 59.7252 52.0762C86.0803 52.0762 107.45 41.2834 107.45 27.977C107.471 14.6707 86.0803 3.87793 59.7252 3.87793Z" fill="#E1E2E3"/>
<path d="M59.7252 3.87793C33.3701 3.87793 12 14.6707 12 27.977C12 41.2834 33.3701 52.0762 59.7252 52.0762C86.0803 52.0762 107.45 41.2834 107.45 27.977C107.45 14.6707 86.0803 3.87793 59.7252 3.87793Z" fill="#E2E3E4"/>
<path d="M59.7282 3.87793C33.3731 3.87793 12.0234 14.6707 12.0234 27.977C12.0234 41.2834 33.3935 52.0562 59.7487 52.0562C86.1038 52.0562 107.474 41.2635 107.474 27.977C107.453 14.6707 86.0833 3.87793 59.7282 3.87793Z" fill="#E3E4E5"/>
<path d="M59.7282 3.89844C33.3935 3.89844 12.0234 14.6712 12.0234 27.9776C12.0234 41.284 33.3935 52.0568 59.7282 52.0568C86.0833 52.0568 107.453 41.264 107.453 27.9776C107.453 14.6712 86.0833 3.89844 59.7282 3.89844Z" fill="#E3E4E5"/>
<path d="M59.7282 3.89844C33.3935 3.89844 12.0234 14.6712 12.0234 27.9776C12.0234 41.264 33.3935 52.0568 59.7282 52.0568C86.0833 52.0568 107.433 41.284 107.433 27.9776C107.453 14.6712 86.0833 3.89844 59.7282 3.89844Z" fill="#E4E5E6"/>
<path d="M59.7234 3.89844C33.3887 3.89844 12.0391 14.6712 12.0391 27.9776C12.0391 41.264 33.3887 52.0568 59.7438 52.0568C86.0785 52.0568 107.449 41.284 107.449 27.9776C107.428 14.6712 86.0785 3.89844 59.7234 3.89844Z" fill="#E5E6E7"/>
<path d="M59.7234 3.89844C33.3887 3.89844 12.0391 14.6712 12.0391 27.9776C12.0391 41.264 33.3887 52.0368 59.7438 52.0368C86.0785 52.0368 107.449 41.264 107.449 27.9776C107.428 14.6712 86.0785 3.89844 59.7234 3.89844Z" fill="#E7E8E9"/>
<mask id="mask0_596_8024" style="mask-type:luminance" maskUnits="userSpaceOnUse" x="12" y="4" width="95" height="47">
<path d="M12.8984 27.937C12.8984 40.625 33.8191 50.919 59.6226 50.919C85.426 50.919 106.367 40.625 106.367 27.937C106.367 15.2491 85.4465 4.95508 59.6226 4.95508C33.8191 4.95508 12.8984 15.2491 12.8984 27.937Z" fill="white"/>
</mask>
<g mask="url(#mask0_596_8024)">
<path d="M89.6755 -29.9961L124.407 42.7003L29.6104 85.8712L-5.12109 13.1748L89.6755 -29.9961Z" fill="url(#paint0_linear_596_8024)"/>
</g>
<path fill-rule="evenodd" clip-rule="evenodd" d="M28.0567 12.3593C36.2194 8.55124 47.392 6.23364 59.6528 6.23364C71.9135 6.23364 83.0862 8.55124 91.2488 12.3593C99.2909 16.1112 104.931 21.5871 104.931 28.1372C104.931 34.6873 99.2909 40.1633 91.2488 43.9151C83.0862 47.7232 71.9135 50.0408 59.6528 50.0408C47.392 50.0408 36.2194 47.7232 28.0567 43.9151C20.0147 40.1633 14.375 34.6873 14.375 28.1372C14.375 21.5871 20.0147 16.1112 28.0567 12.3593ZM29.3041 15.0331C21.4923 18.6776 17.3254 23.4158 17.3254 28.1372C17.3254 32.8587 21.4923 37.5969 29.3041 41.2414C36.9954 44.8296 47.7241 47.0904 59.6528 47.0904C71.5815 47.0904 82.3102 44.8296 90.0014 41.2414C97.8133 37.5969 101.98 32.8587 101.98 28.1372C101.98 23.4158 97.8133 18.6776 90.0014 15.0331C82.3102 11.4449 71.5815 9.18404 59.6528 9.18404C47.7241 9.18404 36.9954 11.4449 29.3041 15.0331Z" fill="#004E25"/>
<path fill-rule="evenodd" clip-rule="evenodd" d="M26.6446 10.2787C35.2337 6.17731 46.9046 3.7168 59.6487 3.7168C72.3929 3.7168 84.0636 6.17734 92.655 10.2785C101.041 14.2815 107.418 20.3536 107.431 27.9726L107.431 27.9774C107.431 35.5924 101.047 41.6605 92.6618 45.6593C84.0682 49.7576 72.3929 52.2181 59.6487 52.2181C46.9153 52.2181 35.2451 49.7628 26.6538 45.6669C18.2698 41.6698 11.8867 35.6015 11.8867 27.9774C11.8867 20.3554 18.2617 14.2816 26.6446 10.2787ZM29.0532 15.3228C21.1634 19.0903 17.4764 23.7494 17.4764 27.9774C17.4764 32.2034 21.1655 36.858 29.0593 40.6213C36.7459 44.2858 47.5592 46.6284 59.6487 46.6284C71.7478 46.6284 82.5662 44.2811 90.2556 40.614C98.153 36.8477 101.841 32.1933 101.841 27.9784C101.832 23.7483 98.1367 19.0892 90.247 15.323C82.5606 11.6538 71.7477 9.3065 59.6487 9.3065C47.5495 9.3065 36.7368 11.6538 29.0532 15.3228Z" fill="#ECEDF1"/>
<mask id="mask1_596_8024" style="mask-type:luminance" maskUnits="userSpaceOnUse" x="78" y="18" width="10" height="7">
<path d="M79.9556 18.9395L79.0771 21.5529H83.8169L78.4029 23.468L78.0352 24.5253L86.3912 21.7324L87.3105 18.9395H79.9556Z" fill="white"/>
</mask>
<g mask="url(#mask1_596_8024)">
<path d="M85.6542 15.4688L89.5155 23.5284L79.6886 27.9971L75.8477 19.9375L85.6542 15.4688Z" fill="url(#paint1_linear_596_8024)"/>
</g>
<mask id="mask2_596_8024" style="mask-type:luminance" maskUnits="userSpaceOnUse" x="33" y="14" width="9" height="13">
<path d="M41.2142 23.3483C41.2142 23.3283 41.2142 23.3283 41.2142 23.3483V23.3483ZM36.9443 14.4707C37.455 14.73 37.0056 15.7076 37.0056 15.7076C37.0056 15.7076 33.6958 25.1238 33.4711 25.6026C33.2464 26.0814 33.0625 26.1412 33.0625 26.1412H40.2131L41.2142 23.3682C41.112 23.6276 40.4378 23.5478 40.4378 23.5478H37.455C37.455 23.5478 40.2335 15.9869 40.4583 15.4283C40.7852 14.5904 41.0099 14.4907 41.0712 14.4907L36.9443 14.4707ZM41.0508 14.4707H41.0712C41.0712 14.4707 41.0712 14.4707 41.0508 14.4707C41.0712 14.4707 41.0712 14.4707 41.0508 14.4707Z" fill="white"/>
</mask>
<g mask="url(#mask2_596_8024)">
<path d="M39.7619 11.418L45.7889 24.0261L34.5113 29.1731L28.4844 16.545L39.7619 11.418Z" fill="url(#paint2_linear_596_8024)"/>
</g>
<mask id="mask3_596_8024" style="mask-type:luminance" maskUnits="userSpaceOnUse" x="53" y="14" width="14" height="13">
<path d="M63.2434 15.1685C63.1208 15.4678 61.2821 20.4951 61.2821 20.4951L60.567 14.4902H57.0734C57.0734 14.4902 57.2573 14.7895 57.1347 15.1087C57.0326 15.368 53.4368 25.4625 53.4368 25.4625C53.4368 25.4625 53.2121 26.1009 53.0078 26.1009H56.3788C56.3788 26.1009 56.1541 25.7618 56.2971 25.3628C56.5014 24.8241 58.2788 19.8567 58.2788 19.8567L59.0552 26.1009H62.0993L66.1036 15.0089C66.1036 15.0089 66.2671 14.4902 66.4918 14.4902H63.2434C63.2638 14.4902 63.366 14.8693 63.2434 15.1685Z" fill="white"/>
</mask>
<g mask="url(#mask3_596_8024)">
<path d="M64.1027 9.44336L71.0695 24.0265L55.4199 31.1485L48.4531 16.5654L64.1027 9.44336Z" fill="url(#paint3_linear_596_8024)"/>
</g>
<mask id="mask4_596_8024" style="mask-type:luminance" maskUnits="userSpaceOnUse" x="64" y="14" width="13" height="13">
<path d="M71.1651 16.9844H72.0232C72.0232 16.9844 74.2705 16.8447 72.6565 20.8346C71.6758 23.2685 70.2253 23.448 69.4489 23.448C68.9382 23.448 68.9178 23.448 68.9178 23.448L71.1651 16.9844ZM72.2683 14.4907H68.4274C68.4274 14.4907 68.7135 14.9694 68.3457 16.0467C67.978 17.144 65.036 25.2235 65.036 25.2235C65.036 25.2235 64.8113 25.9816 64.4844 26.1213H69.1016C69.1016 26.1213 74.6995 26.3407 76.4157 20.3359C76.4157 20.3359 78.5813 14.4707 72.35 14.4707C72.3296 14.4907 72.2888 14.4907 72.2683 14.4907Z" fill="white"/>
</mask>
<g mask="url(#mask4_596_8024)">
<path d="M76.0702 9.2041L83.2413 24.2262L66.9992 31.6275L59.8281 16.6054L76.0702 9.2041Z" fill="url(#paint4_linear_596_8024)"/>
</g>
<mask id="mask5_596_8024" style="mask-type:luminance" maskUnits="userSpaceOnUse" x="27" y="29" width="11" height="7">
<path d="M28.8569 32.7051L27.9375 35.498H35.2924L36.1709 32.8846H31.4311L36.8451 30.9694L37.2129 29.9121L28.8569 32.7051Z" fill="white"/>
</mask>
<g mask="url(#mask5_596_8024)">
<path d="M35.5605 26.4404L39.4014 34.5001L29.5948 38.9688L25.7539 30.9091L35.5605 26.4404Z" fill="url(#paint5_linear_596_8024)"/>
</g>
<mask id="mask6_596_8024" style="mask-type:luminance" maskUnits="userSpaceOnUse" x="37" y="28" width="13" height="13">
<path d="M43.6693 31.3481C43.6693 31.3481 44.0983 31.3481 44.4661 31.3481C46.1822 31.3481 45.5693 32.6647 45.5693 32.6647C45.0381 33.8218 43.6284 33.6822 43.6284 33.6822H42.893L43.6693 31.3481ZM45.5898 28.6748H40.8295C41.1768 29.0738 40.9112 29.8917 40.9112 29.8917C40.9112 29.8917 37.9488 38.5299 37.7241 39.1882C37.4993 39.8466 37.0703 40.3254 37.0703 40.3254H40.8295C40.7069 40.3254 40.7069 39.9463 40.7069 39.9463L42.0553 36.2956C42.0553 36.2956 43.7306 39.667 43.8532 39.9064C43.9758 40.1458 43.9145 40.3453 43.9145 40.3453H47.9392C47.5511 40.3453 47.1629 39.6072 47.1629 39.6072L45.1607 35.9365C47.9597 35.9365 48.8586 33.1036 48.8586 33.1036C50.1661 28.8145 46.0188 28.7147 45.6102 28.7147C45.5898 28.6748 45.5898 28.6748 45.5898 28.6748Z" fill="white"/>
</mask>
<g mask="url(#mask6_596_8024)">
<path d="M47.8402 23.7676L54.7456 38.231L39.4024 45.2333L32.4766 30.7499L47.8402 23.7676Z" fill="url(#paint6_linear_596_8024)"/>
</g>
<mask id="mask7_596_8024" style="mask-type:luminance" maskUnits="userSpaceOnUse" x="78" y="28" width="13" height="13">
<path d="M85.2862 31.408H86.3281C86.3281 31.408 87.5948 31.3681 87.084 32.7048C86.655 33.8219 85.2453 33.7222 85.2453 33.7222H84.5098L85.2862 31.408ZM87.2271 28.7148H82.5077C82.855 29.1138 82.5894 29.9318 82.5894 29.9318C82.5894 29.9318 79.5044 38.6098 79.2797 39.2682C79.0549 39.9465 78.6055 40.3654 78.6055 40.3654H82.5281C82.2625 40.3654 82.4464 39.6472 82.4464 39.6472L83.6518 36.3156C83.6518 36.3156 85.2862 39.6871 85.3883 39.9265C85.5109 40.1659 85.4496 40.3654 85.4496 40.3654H89.6174C89.2292 40.3654 88.8206 39.6273 88.8206 39.6273L86.8185 35.9565C89.6174 35.9565 90.4755 33.2235 90.4755 33.2235C91.8239 28.9143 88.0443 28.7148 87.3496 28.7148C87.2475 28.7148 87.2271 28.7148 87.2271 28.7148Z" fill="white"/>
</mask>
<g mask="url(#mask7_596_8024)">
<path d="M89.4327 23.7676L96.3586 38.2909L80.9337 45.3131L74.0078 30.7898L89.4327 23.7676Z" fill="url(#paint7_linear_596_8024)"/>
</g>
<mask id="mask8_596_8024" style="mask-type:luminance" maskUnits="userSpaceOnUse" x="49" y="28" width="12" height="13">
<path d="M54.1112 37.8511C52.7015 37.5917 52.9467 35.3574 53.1714 34.32C53.6618 32.0657 54.908 30.9884 55.8274 31.0881C56.1338 31.128 57.7887 31.148 56.8898 34.8387C56.3586 37.0331 55.3779 37.871 54.4177 37.871C54.3155 37.891 54.2134 37.871 54.1112 37.8511ZM49.637 34.7589C49.0649 38.0107 50.8628 40.6241 53.8456 40.6241C57.993 40.6241 60.4855 36.4546 60.4855 33.4621C60.4855 30.3301 59.2188 28.375 56.3381 28.375C52.6607 28.375 50.2499 31.2078 49.637 34.7589Z" fill="white"/>
</mask>
<g mask="url(#mask8_596_8024)">
<path d="M58.4443 24.1055L65.2884 38.4293L51.1098 44.873L44.2656 30.5492L58.4443 24.1055Z" fill="url(#paint8_linear_596_8024)"/>
</g>
<mask id="mask9_596_8024" style="mask-type:luminance" maskUnits="userSpaceOnUse" x="61" y="28" width="13" height="13">
<path d="M61.4609 28.7148C61.4609 28.7148 61.747 28.8744 61.747 29.6126V39.7071C61.747 39.7071 61.7061 40.2657 61.5018 40.3854H64.5868C64.5868 40.3854 64.5868 40.146 64.8932 39.747C65.1997 39.348 71.6148 30.5702 71.6148 30.5702C71.6148 30.5702 73.0858 28.7348 73.474 28.7348H69.0406C69.0406 28.7348 69.3879 28.9742 69.1223 29.3931C68.8567 29.832 64.9137 35.8369 64.9137 35.8369L64.9545 29.7921C64.9545 29.7921 64.9545 28.8146 65.3223 28.7348L61.4609 28.7148Z" fill="white"/>
</mask>
<g mask="url(#mask9_596_8024)">
<path d="M71.327 24.2061L78.0486 38.2905L63.6044 44.8539L56.8828 30.7894L71.327 24.2061Z" fill="url(#paint9_linear_596_8024)"/>
</g>
<mask id="mask10_596_8024" style="mask-type:luminance" maskUnits="userSpaceOnUse" x="69" y="28" width="13" height="13">
<path d="M73.6365 28.7148C73.6365 28.7148 73.9021 28.9542 73.5548 29.9318C73.2075 30.9093 70.1634 39.2682 70.1634 39.2682C70.1634 39.2682 69.6118 40.3654 69.4688 40.3654H77.1914L78.1108 37.5725C78.1108 37.5725 77.9882 37.7321 77.2731 37.7321H74.0043L74.6989 35.8568H77.2323C77.2323 35.8568 77.7635 35.8169 77.886 35.9765L78.928 33.004C78.9076 33.0439 78.8054 33.2634 78.1516 33.2634H75.7L76.4355 31.1886H79.5409C79.5409 31.1886 79.9699 31.1287 80.1129 31.4679L81.114 28.7148H73.6365Z" fill="white"/>
</mask>
<g mask="url(#mask10_596_8024)">
<path d="M79.0723 24.3467L85.7121 38.2914L71.5743 44.7352L64.9141 30.7904L79.0723 24.3467Z" fill="url(#paint10_linear_596_8024)"/>
</g>
<mask id="mask11_596_8024" style="mask-type:luminance" maskUnits="userSpaceOnUse" x="41" y="14" width="12" height="13">
<path d="M49.1051 18.4421L49.1256 21.8534H47.0417L49.1051 18.4421ZM48.4514 14.4721C48.4514 14.4721 48.717 14.7913 48.2266 15.5294C47.7363 16.2676 41.4846 25.7237 41.4846 25.7237C41.4846 25.7237 41.362 25.9631 41.0352 26.1027H44.733C44.733 26.1027 44.7126 25.8234 44.8148 25.6239C44.9986 25.2848 45.4481 24.4668 45.4481 24.4668H49.1664V25.4843C49.1664 25.4843 49.1869 25.8434 48.9213 26.1027H52.6191C52.6191 26.1027 52.3536 25.9431 52.2923 25.4843L51.8224 15.2501C51.8224 15.2501 51.8019 14.5918 52.1084 14.4521C52.1288 14.4721 48.4514 14.4721 48.4514 14.4721Z" fill="white"/>
</mask>
<g mask="url(#mask11_596_8024)">
<path d="M50.557 10.1426L57.1968 24.0474L43.1203 30.4513L36.4805 16.5464L50.557 10.1426Z" fill="url(#paint11_linear_596_8024)"/>
</g>
<path d="M86.6347 18.2012H79.2798L78.3809 20.8146H83.1412L77.7067 22.7497L77.3594 23.807L85.6949 20.9941L86.6347 18.2012Z" fill="#ECEDF1"/>
<path d="M40.5423 22.5902L39.5412 25.3831H32.3906C32.3906 25.3831 32.5541 25.3233 32.7992 24.8445C33.024 24.3657 36.3337 14.9495 36.3337 14.9495C36.3337 14.9495 36.7831 13.9719 36.2724 13.7126H40.4197C40.4197 13.7126 40.1746 13.6528 39.7864 14.6502C39.5617 15.2288 36.7831 22.7697 36.7831 22.7697H39.766C39.766 22.7897 40.4402 22.8695 40.5423 22.5902Z" fill="#ECEDF1"/>
<path d="M52.332 25.3636H55.703C55.703 25.3636 55.4783 25.0045 55.6213 24.6255C55.8256 24.0868 57.6031 19.1194 57.6031 19.1194L58.3794 25.3636H61.444L65.4483 14.2716C65.4483 14.2716 65.6117 13.7529 65.8365 13.7529H62.588C62.588 13.7529 62.6902 14.132 62.5676 14.4312C62.445 14.7305 60.6063 19.7578 60.6063 19.7578L59.8912 13.7529H56.3977C56.3977 13.7529 56.5815 14.0522 56.459 14.3714C56.3568 14.6307 52.7611 24.7252 52.7611 24.7252C52.7611 24.7252 52.5159 25.3636 52.332 25.3636Z" fill="#ECEDF1"/>
<path d="M71.573 13.7524H67.7321C67.7321 13.7524 68.0181 14.2312 67.6504 15.3085C67.2826 16.4057 64.3407 24.4853 64.3407 24.4853C64.3407 24.4853 64.1159 25.2434 63.7891 25.383H68.4063C68.4063 25.383 74.0042 25.6025 75.7204 19.5976C75.7204 19.6176 77.9268 13.6926 71.573 13.7524ZM71.9816 20.1163C71.001 22.5502 69.5504 22.7297 68.7741 22.7297C68.2633 22.7297 68.2429 22.7297 68.2429 22.7297L70.4902 16.2661H71.3483C71.3483 16.2661 73.5752 16.1264 71.9816 20.1163Z" fill="#ECEDF1"/>
<path d="M27.2422 34.7797H34.5971L35.496 32.1663H30.7358L36.1702 30.2312L36.5176 29.1738L28.1616 31.9867L27.2422 34.7797Z" fill="#ECEDF1"/>
<path d="M48.1633 32.3267C49.5526 27.8181 44.8944 27.9378 44.8944 27.9378H40.1342C40.4815 28.3368 40.2159 29.1547 40.2159 29.1547C40.2159 29.1547 37.2535 37.7929 37.0288 38.4712C36.804 39.1295 36.375 39.6083 36.375 39.6083H40.1342C40.0116 39.6083 40.0116 39.2293 40.0116 39.2293L41.36 35.5785C41.36 35.5785 43.0353 38.95 43.1579 39.1894C43.2804 39.4288 43.2192 39.6283 43.2192 39.6283H47.2439C46.8558 39.6283 46.4676 38.8901 46.4676 38.8901L44.4654 35.2194C47.2644 35.1596 48.1633 32.3267 48.1633 32.3267ZM44.8944 31.9277C44.3633 33.0848 42.9536 32.9452 42.9536 32.9452H42.2181L42.9944 30.611C42.9944 30.611 43.4235 30.611 43.7912 30.611C45.5074 30.611 44.8944 31.9277 44.8944 31.9277Z" fill="#ECEDF1"/>
<path d="M89.7597 32.4858C91.2307 27.7577 86.5318 27.9772 86.5318 27.9772H81.8123C82.1597 28.3762 81.8941 29.1941 81.8941 29.1941C81.8941 29.1941 78.8091 37.8722 78.5844 38.5305C78.3596 39.1888 77.9102 39.6277 77.9102 39.6277H81.8328C81.5468 39.6277 81.7511 38.9096 81.7511 38.9096L82.9564 35.578C82.9564 35.578 84.5704 38.9494 84.693 39.1888C84.8156 39.4282 84.7543 39.6277 84.7543 39.6277H88.9221C88.5339 39.6277 88.1049 38.8896 88.1049 38.8896L86.1027 35.2189C88.9017 35.2189 89.7597 32.4858 89.7597 32.4858ZM86.4092 31.987C85.9801 33.1042 84.5704 33.0045 84.5704 33.0045H83.8349L84.6113 30.6903H85.6532C85.6532 30.6903 86.9199 30.6504 86.4092 31.987Z" fill="#ECEDF1"/>
<path d="M55.6389 27.6377C51.9615 27.6377 49.5507 30.4905 48.9378 34.0216C48.3657 37.2734 50.1636 39.8867 53.1464 39.8867C57.2938 39.8867 59.7863 35.7173 59.7863 32.7248C59.7863 29.5928 58.5196 27.6377 55.6389 27.6377ZM56.1905 34.1213C55.5981 36.5552 54.454 37.3133 53.412 37.1138C52.0023 36.8544 52.2475 34.6201 52.4722 33.5827C52.9625 31.3284 54.2088 30.2511 55.1282 30.3508C55.4346 30.4107 57.0895 30.4306 56.1905 34.1213Z" fill="#ECEDF1"/>
<path d="M60.7656 27.9766C60.7656 27.9766 61.0516 28.1362 61.0516 28.8743V38.9688C61.0516 38.9688 61.0108 39.5274 60.8065 39.6471H63.9119C63.9119 39.6471 63.9119 39.4077 64.2183 39.0087C64.5248 38.6097 70.9399 29.8319 70.9399 29.8319C70.9399 29.8319 72.3905 27.9965 72.7786 27.9965H68.3453C68.3453 27.9965 68.6926 28.2359 68.427 28.6549C68.1614 29.0937 64.2183 35.0986 64.2183 35.0986L64.2592 29.0339C64.2592 29.0339 64.2592 28.0564 64.627 27.9766H60.7656Z" fill="#ECEDF1"/>
<path d="M79.4615 30.7296L80.4626 27.9766H72.9647C72.9647 27.9766 73.2303 28.216 72.8829 29.1935C72.5356 30.171 69.4915 38.5299 69.4915 38.5299C69.4915 38.5299 68.9399 39.6271 68.7969 39.6271H76.5195L77.4389 36.8342C77.4389 36.8342 77.3163 36.9938 76.6013 36.9938H73.3324L74.027 35.1185H76.5808C76.5808 35.1185 77.112 35.0786 77.2346 35.2382L78.2765 32.2657C78.2765 32.2657 78.1948 32.545 77.5002 32.545H75.0486L75.784 30.4703H78.8894C78.8894 30.4503 79.2981 30.3905 79.4615 30.7296Z" fill="#ECEDF1"/>
<path d="M51.9425 25.384C51.9425 25.384 51.6769 25.2244 51.6156 24.7655L51.1457 14.5314C51.1457 14.5314 51.1252 13.873 51.4317 13.7334H47.7747C47.7747 13.7334 48.0403 14.0526 47.5499 14.7907C47.0596 15.5289 40.8079 24.985 40.8079 24.985C40.8079 24.985 40.6854 25.2244 40.3789 25.364H44.0768C44.0768 25.364 44.0564 25.0648 44.1585 24.8852C44.3424 24.5461 44.7919 23.7281 44.7919 23.7281H48.5102V24.7456C48.5102 24.7456 48.5306 25.1047 48.265 25.364C48.2446 25.384 51.9425 25.384 51.9425 25.384ZM46.365 21.1148L48.408 17.7034L48.4284 21.1148H46.365Z" fill="#ECEDF1"/>
<defs>
<linearGradient id="paint0_linear_596_8024" x1="32.1562" y1="11" x2="88.6562" y2="56" gradientUnits="userSpaceOnUse">
<stop stop-color="#58595D"/>
<stop offset="1" stop-color="#101115"/>
</linearGradient>
<linearGradient id="paint1_linear_596_8024" x1="76.1149" y1="7.99092" x2="94.4226" y2="48.1979" gradientUnits="userSpaceOnUse">
<stop stop-color="#004E25"/>
<stop offset="1"/>
</linearGradient>
<linearGradient id="paint2_linear_596_8024" x1="50.0419" y1="47.3105" x2="85.3408" y2="124.833" gradientUnits="userSpaceOnUse">
<stop stop-color="#004E25"/>
<stop offset="1"/>
</linearGradient>
<linearGradient id="paint3_linear_596_8024" x1="60.7552" y1="22.3776" x2="92.2605" y2="91.5689" gradientUnits="userSpaceOnUse">
<stop stop-color="#004E25"/>
<stop offset="1"/>
</linearGradient>
<linearGradient id="paint4_linear_596_8024" x1="67.0433" y1="11.0085" x2="95.4002" y2="73.2854" gradientUnits="userSpaceOnUse">
<stop stop-color="#004E25"/>
<stop offset="1"/>
</linearGradient>
<linearGradient id="paint5_linear_596_8024" x1="39.3844" y1="46.959" x2="57.6927" y2="87.1675" gradientUnits="userSpaceOnUse">
<stop stop-color="#004E25"/>
<stop offset="1"/>
</linearGradient>
<linearGradient id="paint6_linear_596_8024" x1="48.0879" y1="43.8621" x2="76.4905" y2="106.239" gradientUnits="userSpaceOnUse">
<stop stop-color="#004E25"/>
<stop offset="1"/>
</linearGradient>
<linearGradient id="paint7_linear_596_8024" x1="71.2972" y1="5.46062" x2="99.7164" y2="67.8745" gradientUnits="userSpaceOnUse">
<stop stop-color="#004E25"/>
<stop offset="1"/>
</linearGradient>
<linearGradient id="paint8_linear_596_8024" x1="54.4803" y1="33.8673" x2="81.4545" y2="93.1076" gradientUnits="userSpaceOnUse">
<stop stop-color="#004E25"/>
<stop offset="1"/>
</linearGradient>
<linearGradient id="paint9_linear_596_8024" x1="62.3131" y1="23.7457" x2="89.8463" y2="84.2138" gradientUnits="userSpaceOnUse">
<stop stop-color="#004E25"/>
<stop offset="1"/>
</linearGradient>
<linearGradient id="paint10_linear_596_8024" x1="63.948" y1="10.7206" x2="98.5174" y2="86.6413" gradientUnits="userSpaceOnUse">
<stop stop-color="#004E25"/>
<stop offset="1"/>
</linearGradient>
<linearGradient id="paint11_linear_596_8024" x1="52.9122" y1="33.0142" x2="82.4955" y2="97.9845" gradientUnits="userSpaceOnUse">
<stop stop-color="#004E25"/>
<stop offset="1"/>
</linearGradient>
</defs>
</svg>
