<svg width="120" height="56" viewBox="0 0 120 56" fill="none" xmlns="http://www.w3.org/2000/svg">
<path d="M23.1872 52.2344C21.2868 51.9479 20.1343 51.2649 19.6686 49.9994L19.4208 49.3261L19.0449 45.9224V42.4186L20.7309 42.393C22.2315 42.3701 22.4302 42.385 22.5379 42.5276C22.6289 42.6484 22.6588 43.4366 22.6588 45.7239C22.6588 48.5937 22.6696 48.7815 22.8563 49.1556C22.965 49.3732 23.2036 49.662 23.3864 49.7972C24.0934 50.32 24.0287 50.3138 28.7992 50.3134H33.2112L33.5802 49.6164C33.7882 49.2237 34.2194 48.6364 34.568 48.2714C34.9083 47.9151 35.1867 47.5996 35.1867 47.5704C35.1867 47.5412 34.6988 47.5054 34.1026 47.4909L33.0184 47.4644L33.0406 47.1059C33.0922 46.2719 34.2241 44.6824 35.3813 43.8191C35.7006 43.5809 36.2753 43.2456 36.6584 43.074C38.0003 42.473 38.1238 42.4654 46.5448 42.4683L54.1232 42.4709L56.4139 44.1034C57.6737 45.0013 58.7509 45.7359 58.8076 45.7359C58.9361 45.7359 62.429 43.6396 63.4696 42.9379L64.2392 42.419L67.1788 42.4272C70.1817 42.4355 70.1103 42.4332 70.2399 42.5005C70.4285 42.5984 70.3614 42.6546 70.3614 45.789C70.3614 48.4782 70.3859 49.0691 70.5096 49.3561C70.7018 49.802 70.9001 50.0083 71.3733 50.2541C71.7441 50.4467 71.8941 50.4555 75.3161 50.484C77.2727 50.5004 78.9743 50.4891 79.0975 50.4591L79.3216 50.4046L79.3467 46.5053L79.3719 42.6059H81.1547H82.9375L82.9857 46.4834L83.0339 50.361L89.5009 50.385L95.9678 50.409L96.2343 50.2058C96.3808 50.094 96.5611 49.8625 96.6349 49.6912C96.7496 49.4252 96.7496 49.3346 96.6349 49.0686C96.5611 48.8973 96.3812 48.6661 96.2351 48.5547L95.9695 48.3521H90.0677C84.9407 48.3521 84.15 48.3337 84.0459 48.212C83.8917 48.0319 84.051 46.9134 84.3362 46.1745C84.5566 45.6033 85.1026 44.7442 85.5809 44.2161C86.0502 43.6979 87.1955 42.9957 87.9536 42.7614C88.6173 42.5563 88.673 42.5546 94.1645 42.5802L99.7058 42.6059L99.7338 43.4389C99.7542 44.0423 99.7276 44.293 99.6375 44.3485C99.569 44.3906 97.3538 44.4257 94.7148 44.4265C90.157 44.4281 89.8983 44.4369 89.5499 44.6093C88.9247 44.9185 88.1892 45.9172 88.3282 46.2683C88.3668 46.366 89.2986 46.39 93.0485 46.39C96.1408 46.39 97.8934 46.4255 98.2314 46.4951C98.9867 46.6504 99.5758 46.9751 100.071 47.5088C100.642 48.125 100.846 48.7116 100.797 49.5972C100.718 51.0319 99.751 52.0277 98.1996 52.2718C97.3219 52.4099 70.7819 52.4057 69.8621 52.2674C68.2639 52.027 67.4493 51.5628 66.9701 50.6195L66.6512 49.9918L66.603 46.7737C66.5716 44.6765 66.52 43.5444 66.4549 43.5235C66.2242 43.4491 60.7245 46.8693 60.7245 47.0871L67.579 52.4872C67.579 52.542 66.3777 52.2763 64.8049 52.2763H62.2358L59.948 50.688C58.6897 49.8144 57.5996 49.0996 57.5257 49.0996C57.3935 49.0996 53.5565 51.3559 52.5476 52.0269L52.0319 52.3698L37.9958 52.3605C27.3068 52.3534 23.7755 52.3234 23.1872 52.2348V52.2344ZM50.6259 50.7748C50.9593 50.5659 52.1862 49.8174 53.3523 49.1117C54.5183 48.4059 55.4724 47.7801 55.4724 47.721C55.4724 47.623 50.5849 43.9332 49.7745 43.2346C49.4811 42.9816 49.1225 43.6942 49.2923 43.9703L48.8885 44.4141L44.4381 44.4275C39.5834 44.4421 39.4667 44.4786 39.0897 44.6759C38.5217 44.9731 37.2358 46.0926 37.2358 46.4371C37.2358 46.5942 38.2705 46.5365 43.2156 46.5379C46.091 46.5395 48.5336 46.5323 48.5336 46.5323C48.5165 46.6157 48.5274 47.552 48.5274 47.552L48.5337 48.2117L44.1008 48.2584C39.3208 48.3087 39.5584 48.2827 38.8297 48.8364C38.4337 49.1373 37.5905 50.2505 37.7362 50.3918L49.6902 50.3606L49.7198 51.2916C49.7414 51.9713 49.8513 51.2602 50.6259 50.7748Z" fill="url(#paint0_linear_655_4901)"/>
<path d="M19.0762 42.355V43.2397H22.8587V42.355H19.0762ZM78.8287 42.4075V43.2952H82.9731V42.4075H78.8287ZM64.2546 42.4105L63.9167 42.6412H65.2683C65.7143 42.6305 66.0204 42.6544 66.2461 42.6937L66.2431 43.3098H70.217V42.4134L68.4708 42.4368C66.8527 42.4253 65.7077 42.4175 64.2546 42.4105ZM48.1735 42.463C47.3689 42.4647 46.4371 42.4681 45.3627 42.4719C38.713 42.4952 38.1755 42.5071 37.9561 42.6587C37.9561 42.7251 37.6516 42.848 38.4106 42.796C38.5231 42.7883 38.5738 42.8079 38.7365 42.7901C39.7923 42.8066 41.4864 42.7726 45.1534 42.7726C49.27 42.7726 52.6894 42.7907 52.6887 42.7521C52.6862 42.6279 52.9121 42.5551 52.4076 42.5127C51.8573 42.4664 50.5872 42.4581 48.1735 42.463ZM96.1508 42.539C95.5225 42.5406 94.795 42.544 93.956 42.5478C88.763 42.5711 88.3414 42.5859 88.17 42.7376C88.17 42.8039 87.9331 42.9239 88.5258 42.8719C88.6136 42.8642 88.6529 42.8868 88.78 42.8689C89.6045 42.8854 90.9279 42.8514 93.7915 42.8514C97.0063 42.8514 99.6767 42.8695 99.6762 42.831C99.6742 42.7067 99.8489 42.634 99.4549 42.5916C99.0251 42.5453 98.0356 42.534 96.1508 42.539Z" fill="url(#paint1_linear_655_4901)"/>
<path d="M87.2614 46.4622C87.0199 46.0797 87.8417 45.0043 88.7563 44.5084C89.7912 43.9472 90.1978 43.9089 95.1371 43.9075L99.7524 43.961L99.8239 44.6935C99.5832 44.7049 98.6692 44.7081 95.0433 44.7117C89.7172 44.717 89.6579 44.7229 88.925 45.3119C88.6898 45.501 88.4477 45.793 88.3758 45.9744C88.3263 46.0993 88.3285 46.2047 88.245 46.2819C88.0319 46.3883 87.7819 46.4867 87.585 46.5373C87.4963 46.5599 87.4057 46.6207 87.3518 46.5938C87.3144 46.5751 87.337 46.5749 87.3034 46.5302L87.2614 46.4622Z" fill="url(#paint2_linear_655_4901)"/>
<path d="M35.8951 47.1375C35.8935 47.0378 35.9653 46.7514 36.0627 46.4678C36.3137 45.7369 36.9439 45.0341 37.7722 44.5614C38.7681 43.9929 39.0398 43.9687 44.4925 43.9635C47.5134 43.9605 49.2768 43.9635 49.2768 43.9635C49.2768 43.9635 49.2768 44.2026 49.2768 44.3853C49.2768 44.5498 49.2768 44.8284 49.2768 44.8284C49.0423 44.8007 47.3936 44.8346 44.5336 44.8346C39.5384 44.8346 39.3006 44.8194 38.5906 45.2447C38.4156 45.3495 38.0985 45.6195 37.9045 45.8358C37.6464 46.1236 37.3918 46.382 37.2638 46.6723C37.0329 46.8726 36.7369 46.8781 36.5166 46.9772C36.0693 47.1784 35.8809 47.2174 35.8809 47.2174L35.8951 47.1375Z" fill="url(#paint3_linear_655_4901)"/>
<path d="M96.4977 49.7995C96.6328 49.2742 95.9544 48.5776 95.1923 48.4098C95.0043 48.3684 92.5289 48.3565 89.6914 48.3833C86.854 48.4102 84.3795 48.3711 84.1853 48.3686C83.9814 48.3658 83.9014 48.3828 83.8628 48.3388C83.7872 48.2525 83.9663 48.0428 84.3201 47.7785L84.7266 47.4749L89.7188 47.4799C95.234 47.4855 96.0193 47.5276 96.4712 47.8417C97.241 48.377 97.5529 49.2462 97.1528 49.7412C96.8902 50.0661 96.1576 50.5142 95.9939 50.4154C96.4009 50.0902 96.3773 50.1046 96.4977 49.7995Z" fill="url(#paint4_linear_655_4901)"/>
<path d="M79.2504 50.6124C79.0932 50.5253 78.8603 50.5319 78.8261 50.4449C78.7919 50.3579 78.781 48.4482 78.781 46.3438C78.781 43.6568 78.7744 42.8162 78.75 42.3823C78.8849 42.3756 79.2041 42.519 79.4755 42.784L79.9135 43.3061L79.8845 50.4355C79.8837 50.5826 79.9007 50.7327 79.8808 50.88C79.6059 50.7639 79.4393 50.6927 79.2504 50.6124Z" fill="url(#paint5_linear_655_4901)"/>
<path d="M36.3206 50.8094C36.3206 50.8094 36.2689 50.2907 36.4651 49.7796C36.6746 49.2339 37.4554 48.4529 38.0661 48.1783C39.0072 47.7552 39.2118 47.7397 43.8739 47.7386C47.1075 47.737 48.5174 47.7623 48.5174 47.7623L48.5492 48.5962C48.5492 48.5962 46.8156 48.5993 44.1008 48.5994C41.4924 48.5994 39.75 48.6339 39.5295 48.689C38.8339 48.8629 38.0925 49.566 37.8155 50.3143C37.7699 50.4374 36.4863 50.7973 36.381 50.8419L36.3206 50.8094Z" fill="url(#paint6_linear_655_4901)"/>
<path d="M70.3088 52.4134C69.5127 52.3139 68.1511 51.8596 67.666 51.5317C67.3092 51.2906 66.8436 50.774 66.6302 50.3827C66.3593 49.8858 66.2488 48.7371 66.2455 46.383C66.2436 45.0885 66.2537 43.9835 66.2088 43.9564C66.1639 43.9293 65.0877 44.5341 63.8764 45.2715C61.6099 46.6514 60.9596 47.0766 60.5194 47.2745L58.748 47.283C58.9772 47.0738 65.6867 42.908 66.0403 42.7637C66.2833 42.6646 66.1247 42.6391 66.2407 42.7039C66.4119 42.7997 66.9771 43.0054 67.0455 43.1613C67.1666 43.4374 67.0725 44.0047 67.1082 45.9534C67.1709 49.3766 67.2095 49.5637 68.0106 50.3274C68.3468 50.6479 68.7389 50.9022 69.174 51.0819C69.174 51.0819 69.6409 51.219 69.8787 51.2702C70.0463 51.3063 70.3866 51.3538 70.3866 51.3538L83.601 51.3777L97.1495 51.3859C97.1495 51.3859 97.4689 51.3365 97.621 51.2854C97.7374 51.2463 97.8429 51.1812 97.9538 51.1291C99.7002 50.3087 100.307 49.1971 99.6787 47.9668C99.5441 47.7031 99.2614 47.3351 99.0505 47.149C98.8396 46.963 98.5269 46.6718 98.5434 46.6242C98.5889 46.4938 99.6458 47.0372 99.9615 47.345C100.751 48.1144 101.085 49.6604 100.568 50.6912C100.038 51.7504 98.9632 52.3013 97.4544 52.433C96.2319 52.5397 71.1744 52.5216 70.3088 52.4134Z" fill="url(#paint7_linear_655_4901)"/>
<path d="M23.1375 52.3811C22.1171 52.2392 21.6502 52.0827 20.96 51.6516C20.2931 51.2351 19.7877 50.6578 19.4305 49.9045C19.3673 49.7711 19.2941 49.6413 19.2441 49.5026C19.2014 49.3844 19.1704 49.2619 19.1481 49.1385C19.1039 48.8937 19.0882 48.6444 19.0742 48.3963C19.0306 47.6228 19.0428 46.0725 19.0428 46.0725L19.0088 42.592C19.0078 42.4883 19 42.342 19 42.342C19 42.342 19.3884 42.5353 19.667 42.7696L20.1819 43.2028L20.1851 45.6216C20.1887 48.313 20.2399 48.6247 20.6675 49.5106C20.9248 50.0435 21.4865 50.5172 22.3935 50.966C23.4602 51.4938 23.4357 51.4929 36.8678 51.4929H49.1856L49.804 51.0491C50.1441 50.805 51.463 49.9746 52.7349 49.2038C54.0067 48.4329 55.0476 47.7576 55.0479 47.703C55.0491 47.5042 54.4679 47.0738 50.1442 44.0712C49.3111 43.4927 48.6697 43.075 48.3457 42.7863C48.6552 42.7938 49.3633 42.8037 49.8068 42.804L50.5035 42.8045L52.6086 44.2683C53.7664 45.0734 55.1442 46.0324 55.6704 46.3995C56.1966 46.7667 56.9176 47.3083 56.8486 47.3515L54.1874 49.0191C53.3776 49.5265 52.489 50.0607 52.2258 50.2267C51.9627 50.3927 51.4352 50.7248 51.0537 50.9648C50.6721 51.2047 50.3343 51.5011 50.3343 51.5521C50.4112 51.5976 50.6905 51.586 51.1494 51.5855L51.9388 51.5839L54.6406 49.8629C56.1266 48.9164 57.4275 48.1156 57.5315 48.0834C57.7944 48.0019 57.8799 48.0532 60.4069 49.8095C61.6437 50.6691 62.79 51.5212 62.8952 51.5734C63.0005 51.6256 63.555 51.5858 64.1865 51.6149C64.6444 51.636 64.8919 51.6081 65.1994 51.6589C66.8366 52.2423 65.3941 51.7338 67.5387 52.502L61.9811 52.5075C61.6865 52.3568 58.9605 50.4381 58.2099 49.8431C57.8658 49.5702 57.5235 49.3461 57.4493 49.3451C57.3751 49.3435 56.923 49.6052 56.4446 49.9253C55.9662 50.2454 54.8887 50.9602 54.0502 51.5137L52.5256 52.52L38.2621 52.51C27.219 52.5023 23.8042 52.4731 23.1375 52.3803V52.3811Z" fill="url(#paint8_linear_655_4901)"/>
<path d="M70.638 50.2744C70.0217 50.1121 69.5944 49.8056 69.4196 49.5739C69.3063 49.4238 69.3005 49.454 69.272 49.3697C69.2452 49.2908 69.1817 49.1548 69.169 49.0726C69.0404 48.2379 69.0503 46.2598 69.0503 46.2598V43.3822L69.5844 42.9176C69.8782 42.6621 70.1355 42.4366 70.1562 42.4164C70.1769 42.3962 70.2112 42.4094 70.2914 42.4743C70.417 42.5761 70.3648 43.124 70.3651 45.9921C70.3651 49.7805 70.6742 49.8784 71.4979 50.3497C71.8552 50.4418 71.1353 50.4139 70.638 50.2744ZM22.8127 50.0786C22.286 49.9539 21.833 49.5126 21.7396 49.2583L21.6187 48.9289C21.5393 47.0286 21.4844 45.1593 21.4844 43.2035L21.8633 42.8339C22.2876 42.4201 22.8229 42.3433 22.8229 42.3433C22.8583 42.4151 22.8475 43.9693 22.8614 45.7895C22.8917 49.7523 22.8326 49.4611 23.703 49.9318C23.95 50.0654 24.432 50.1941 24.4046 50.2381C24.3461 50.3321 23.232 50.1778 22.8127 50.0786ZM81.6807 47.041V43.2666L82.0169 42.9784C82.3837 42.6639 82.9159 42.3667 82.9874 42.4364C83.0471 42.4948 83.0622 50.2199 83.0019 50.3732C82.9761 50.4388 82.7114 50.5652 82.4553 50.654C82.1144 50.7722 81.7201 50.8777 81.7271 50.8401C81.6756 50.88 81.6807 49.583 81.6807 47.041Z" fill="url(#paint9_linear_655_4901)"/>
<path d="M83.83 48.3481C83.8331 47.8692 84.1309 46.4185 84.5416 45.5977C85.0612 44.5592 85.9875 43.5618 86.837 43.1262C87.1627 42.9592 87.4801 42.8223 87.5423 42.8219C87.8879 42.7207 88.4206 42.6279 88.8765 42.5912C88.5387 42.7389 88.2558 42.8245 87.867 43.0465C87.3388 43.3285 86.8683 43.5766 86.1392 44.4473C85.8791 44.7579 85.684 45.0242 85.4889 45.5585C85.2284 46.2721 85.157 47.0034 85.0838 47.4637C84.8306 47.5985 84.8485 47.6611 83.83 48.3481ZM32.7285 47.4276C32.7285 47.0923 33.186 46.0566 33.7277 45.1668C34.3532 44.1393 34.926 43.6425 35.9866 43.2078C36.7686 42.8873 38.1871 42.5626 38.5522 42.5724C38.7724 42.5783 37.9455 42.8505 37.4813 43.019C36.6656 43.3149 36.1813 43.6703 35.4719 44.368C35.0326 44.8 34.5932 45.3553 33.9641 46.8898L33.7675 47.4942L33.2053 47.4859C32.8039 47.48 32.7969 47.4681 32.7285 47.4276ZM52.0974 42.4697L54.1138 42.4673C56.8009 44.4043 58.3168 45.4081 58.7973 45.7458L57.6465 46.4409C55.0722 44.6362 54.3343 44.0413 52.0974 42.4697Z" fill="url(#paint10_linear_655_4901)"/>
<path d="M60.6027 48.5877L58.7871 47.271H59.7176C60.2294 47.271 60.6984 47.0708 60.7738 47.1354C60.7738 47.1354 62.277 48.3287 67.5639 52.4628C64.1548 51.6089 63.1732 50.452 60.6027 48.5877Z" fill="url(#paint11_linear_655_4901)"/>
<path d="M33.3516 50.405C33.1921 50.2956 33.1992 50.2516 33.4721 49.6575C33.8016 48.9406 34.9843 47.6571 35.4638 47.343C35.6489 47.2217 35.9371 47.0386 36.2002 46.9438C36.4634 46.849 36.7123 46.7326 36.9358 46.6482C37.07 46.5975 37.3371 46.5276 37.8243 46.5319L38.5924 46.5388L38.1139 46.7053C37.2085 47.0204 36.5831 47.3935 35.9271 48.0097C35.1763 48.7151 34.7229 49.359 34.3686 50.2231C34.233 50.554 34.1184 50.8179 34.0844 50.8384C33.8039 50.8322 33.5908 50.5658 33.3516 50.405Z" fill="url(#paint12_linear_655_4901)"/>
<path d="M56.2667 37.3559C52.8048 37.0011 49.5652 36.0973 46.3824 34.5983C43.7295 33.3489 42.044 32.1962 40.2454 30.4014C38.2283 28.3886 37.2445 26.9166 36.3224 24.5315C35.2202 21.6808 35.6031 17.8672 37.3251 14.5447C38.7752 11.7467 40.5947 9.7861 43.4497 7.94477C44.5114 7.25999 47.1434 5.94161 47.8352 5.74805C48.3231 5.61152 47.5934 5.87886 46.7594 6.34987C46.2449 6.62824 45.9271 6.79997 45.4525 7.07496C44.3497 7.73127 44.0638 7.9637 42.92 8.86409C39.7947 11.3245 37.8539 14.2428 37.1575 17.5291C36.9299 18.6031 36.9299 21.0098 37.1575 22.0839C37.9831 25.9802 40.3823 29.1726 44.4741 31.8198C46.8277 33.3424 49.5561 34.4637 52.7366 35.2153C55.4249 35.8506 56.4388 35.9525 60.0684 35.9525C62.7138 35.9525 63.5722 35.9158 64.6304 35.7572C68.0103 35.2506 71.6128 34.1091 74.026 32.7799C76.0004 31.6925 76.6568 31.3136 76.8349 31.1585C76.9366 31.0699 77.3923 30.8341 77.8475 30.6346C78.3929 30.3954 78.7807 30.1445 78.9846 29.8986C79.2882 29.5325 79.3087 29.5255 80.0815 29.5255C80.5443 29.5255 81.2537 28.8717 81.2537 28.9344C80.3511 30.1921 78.8585 31.5907 78.0111 32.2274C76.7526 33.1754 75.7642 33.8235 73.9717 34.6562C70.9563 36.0568 68.4875 36.8747 64.6847 37.3211C61.8974 37.6483 58.9315 37.6292 56.2667 37.3559Z" fill="url(#paint13_linear_655_4901)"/>
<path d="M56.0253 35.6864C54.0255 35.4785 51.0924 34.8568 49.5434 34.3126C48.447 33.9273 46.1257 32.9366 45.5241 32.5971C44.8569 32.2207 43.2325 31.041 42.2858 30.2454C41.0581 29.2135 39.0899 26.7912 39.2604 26.5218C39.3091 26.4448 40.1905 26.1244 40.3521 26.1244C40.3813 26.1244 40.544 26.3614 40.7374 26.6974C41.6164 28.2249 42.9247 29.5959 44.3815 30.7557C46.331 32.3077 47.7365 32.9938 50.5843 33.7836C56.4576 35.4127 63.2914 35.3371 68.7572 33.5827C70.8918 32.8976 73.0517 31.753 73.8641 30.8764C74.0844 30.6387 75.8319 30.0371 75.9544 30.1567C76.1088 30.3075 75.6982 30.8181 74.8512 31.5287C73.3418 32.7949 69.5872 34.3745 66.5808 35.008C63.876 35.5779 62.9224 35.6731 59.6163 35.7031C57.8806 35.7188 56.2647 35.7113 56.0253 35.6864Z" fill="url(#paint14_linear_655_4901)"/>
<path d="M45.3893 32.0699C44.509 31.7967 44.0237 31.5262 42.9408 30.7053C40.5606 28.901 38.8401 26.6166 38.0805 24.2522C37.6318 22.8556 37.5298 21.9407 37.5969 19.9178C37.6484 18.3654 37.7009 17.9455 37.9441 17.1387C38.5501 15.1283 39.3905 13.5995 40.7956 11.9518C43.9795 8.21796 49.9271 5.40106 55.9814 4.75942C57.6577 4.58177 60.79 4.56638 61.272 4.73344C61.7674 4.90513 62.2855 5.46509 62.452 6.00876C62.5621 6.36806 62.5477 6.47401 62.3332 6.88538C62.1989 7.14273 61.9493 7.52146 61.7784 7.72699C61.6076 7.93253 61.1622 8.49518 60.7887 8.97733C60.4152 9.45948 59.5429 10.5354 58.8504 11.3682C58.1579 12.201 57.0301 13.6475 56.3443 14.5825C55.0748 16.3134 52.2953 20.4195 51.7407 21.3832C51.5726 21.6754 51.2732 22.135 51.0755 22.4045C50.8778 22.674 50.5388 23.2596 50.3222 23.7058C49.9595 24.4528 49.9314 24.579 49.9685 25.2974C50.019 26.2751 50.3312 26.7835 51.2274 27.3479C52.5763 28.1975 51.3503 28.1307 65.5848 28.1307H78.282L79.3826 26.9723C80.2328 26.0775 80.5682 25.634 80.857 25.0225C81.2792 24.1288 81.7156 22.7333 81.9042 21.6741C82.0642 20.7753 81.9645 18.3676 81.7417 17.7526C81.3225 16.0883 80.581 14.4615 79.6661 13.0418C77.9228 10.3832 75.4391 8.27181 71.8491 6.39667C71.2119 6.06384 69.5842 5.2969 69.6096 5.27213C69.6876 5.19575 72.1113 6.18442 73.3066 6.76591C76.2591 8.20222 78.7978 10.2583 80.4839 12.5789C81.7335 14.2988 82.7702 16.2561 83.2815 18.2287C83.566 19.3263 83.6009 20.2816 83.5975 21.4772C83.5906 23.8636 83.0807 25.4306 81.8854 27.7067C81.0468 29.3034 80.8552 29.5079 79.585 30.1606L78.1777 30.6581L65.6501 30.734C52.8636 30.8115 52.8278 30.7334 51.5816 30.4986C48.9149 29.9961 47.8226 29.3757 47.1259 27.9682C46.7804 27.2699 46.7032 25.914 46.9535 24.9388C47.5263 22.7074 51.4559 16.7621 56.9533 9.80969C58.0002 8.48576 58.9064 7.31173 58.9671 7.20074C59.2568 6.67139 58.967 6.32095 58.1409 6.20149C57.5646 6.11815 54.6269 6.56467 53.3554 6.92885C50.2473 7.81906 49.048 8.27247 47.4962 9.14388C45.1607 10.4555 43.2454 12.0663 41.9159 13.8371C40.498 15.7257 39.9342 16.9138 39.3982 19.143C39.0812 20.4612 39.1547 22.5194 39.571 23.9828C40.4387 27.0331 42.2809 29.404 45.4708 31.576C45.9637 31.9116 46.367 32.2062 46.367 32.2305C46.367 32.3167 45.9792 32.2531 45.3893 32.0699Z" fill="url(#paint15_linear_655_4901)"/>
<path d="M45.4538 32.0924C44.5735 31.8192 44.0881 31.5487 43.0052 30.7278C40.6251 28.9235 38.9045 26.639 38.145 24.2746C37.6963 22.878 37.5942 21.9632 37.6613 19.9403C37.7128 18.3879 37.7653 17.968 38.0085 17.1612C38.6145 15.1508 39.455 13.622 40.86 11.9743C44.044 8.24042 49.9915 5.42352 56.0458 4.78188C57.7222 4.60423 60.8545 4.58884 61.3365 4.7559C61.8318 4.92759 62.3499 5.48755 62.5165 6.03123C62.6265 6.39053 62.6122 6.49648 62.3976 6.90784C62.2634 7.16519 62.0138 7.54392 61.8429 7.74946C61.6721 7.95499 61.2267 8.51764 60.8531 8.99979C60.4796 9.48194 59.6074 10.5578 58.9149 11.3906C58.2223 12.2235 57.0946 13.6699 56.4088 14.605C55.1393 16.3359 52.3598 20.442 51.8052 21.4056C51.637 21.6978 51.3377 22.1574 51.14 22.427C50.9423 22.6965 50.6033 23.2821 50.3866 23.7283C50.024 24.4752 49.9959 24.6015 50.033 25.3199C50.0835 26.2976 50.3956 26.806 51.2918 27.3704C52.6408 28.22 51.4147 28.1531 65.6493 28.1531H78.3465L79.4471 26.9948C80.2972 26.1 80.6327 25.6564 80.9215 25.045C81.3436 24.1513 81.7801 22.7558 81.9686 21.6965C82.1287 20.7977 82.0289 18.39 81.8062 17.7751C81.387 16.1107 80.4776 14.6297 79.5627 13.21C77.8194 10.5514 75.5036 8.81765 71.9136 6.94251C71.2764 6.60969 68.1232 4.95702 69.674 5.2946C69.7521 5.21821 72.1758 6.20689 73.3711 6.78837C76.3236 8.22468 78.8622 10.2808 80.5483 12.6013C81.798 14.3212 82.8347 16.2785 83.3459 18.2512C83.6304 19.3488 83.6653 20.3041 83.6619 21.4997C83.6551 23.886 83.1452 25.4531 81.9498 27.7292C81.1113 29.3259 80.9197 29.5303 79.6495 30.1831L78.2422 30.6806L65.7145 30.7565C52.928 30.834 52.8922 30.7559 51.646 30.5211C48.9794 30.0185 47.887 29.3981 47.1904 27.9906C46.8448 27.2924 46.7676 25.9364 47.0179 24.9613C47.5907 22.7298 51.5203 16.7846 57.0178 9.83215C58.0646 8.50822 58.9708 7.33419 59.0316 7.2232C59.3212 6.69386 59.0315 6.34341 58.2053 6.22395C57.6291 6.14061 54.6913 6.58713 53.4198 6.95131C50.3118 7.84152 49.1125 8.29493 47.5607 9.16634C45.2251 10.4779 43.3098 12.0887 41.9804 13.8596C40.5625 15.7482 39.9987 16.9363 39.4626 19.1655C39.1457 20.4836 39.2192 22.5419 39.6355 24.0053C40.5032 27.0556 42.3454 29.4265 45.5352 31.5984C46.0282 31.9341 46.4315 32.2286 46.4315 32.253C46.4315 32.3392 46.0437 32.2755 45.4538 32.0924Z" fill="url(#paint16_linear_655_4901)"/>
<path d="M45.4538 32.0924C44.5735 31.8192 44.0881 31.5487 43.0052 30.7278C40.6251 28.9235 38.9045 26.639 38.145 24.2746C37.6963 22.878 37.5942 21.9632 37.6613 19.9403C37.7128 18.3879 37.7653 17.968 38.0085 17.1612C38.6145 15.1508 39.455 13.622 40.86 11.9743C44.044 8.24042 49.9915 5.42352 56.0458 4.78188C57.7222 4.60423 60.8545 4.58884 61.3365 4.7559C61.8318 4.92759 62.3499 5.48755 62.5165 6.03123C62.6265 6.39053 62.6122 6.49648 62.3976 6.90784C62.2634 7.16519 62.0138 7.54392 61.8429 7.74946C61.6721 7.95499 61.2267 8.51764 60.8531 8.99979C60.4796 9.48194 59.6074 10.5578 58.9149 11.3906C58.2223 12.2235 57.0946 13.6699 56.4088 14.605C55.1393 16.3359 52.3598 20.442 51.8052 21.4056C51.637 21.6978 51.3377 22.1574 51.14 22.427C50.9423 22.6965 50.6033 23.2821 50.3866 23.7283C50.024 24.4752 49.9959 24.6015 50.033 25.3199C50.0835 26.2976 50.3956 26.806 51.2918 27.3704C52.6408 28.22 51.4147 28.1531 65.6493 28.1531H78.3465L79.4471 26.9948C80.2972 26.1 80.6327 25.6564 80.9215 25.045C81.3436 24.1513 81.7801 22.7558 81.9686 21.6965C82.1287 20.7977 82.0289 18.39 81.8062 17.7751C81.387 16.1107 80.6455 14.4839 79.7305 13.0642C77.9873 10.4056 75.5036 8.29427 71.9136 6.41913C71.2764 6.0863 69.6487 5.31936 69.674 5.2946C69.7521 5.21821 72.1758 6.20689 73.3711 6.78837C76.3236 8.22468 78.8622 10.2808 80.5483 12.6013C81.798 14.3212 82.8347 16.2785 83.3459 18.2512C83.6304 19.3488 83.6653 20.3041 83.6619 21.4997C83.6551 23.886 83.1452 25.4531 81.9498 27.7292C81.1113 29.3259 80.9197 29.5303 79.6495 30.1831L78.2422 30.6806L65.7145 30.7565C52.928 30.834 52.8922 30.7559 51.646 30.5211C48.9794 30.0185 47.887 29.3981 47.1904 27.9906C46.8448 27.2924 46.7676 25.9364 47.0179 24.9613C47.5907 22.7298 51.5203 16.7846 57.0178 9.83215C58.0646 8.50822 58.9708 7.33419 59.0316 7.2232C59.3212 6.69386 59.0315 6.34341 58.2053 6.22395C57.6291 6.14061 54.6913 6.58713 53.4198 6.95131C50.3118 7.84152 49.1125 8.29493 47.5607 9.16634C45.2251 10.4779 43.3098 12.0887 41.9804 13.8596C40.5625 15.7482 39.9987 16.9363 39.4626 19.1655C39.1457 20.4836 39.2192 22.5419 39.6355 24.0053C40.5032 27.0556 42.3454 29.4265 45.5352 31.5984C46.0282 31.9341 46.4315 32.2286 46.4315 32.253C46.4315 32.3392 46.0437 32.2755 45.4538 32.0924Z" fill="url(#paint17_linear_655_4901)"/>
<path d="M37.5979 19.9178C37.6494 18.3654 37.7019 17.9455 37.9451 17.1387C38.5511 15.1283 39.3915 13.5995 40.7966 11.9518C43.9805 8.21796 49.9281 5.40106 55.9824 4.75942C57.6587 4.58177 60.791 4.56638 61.273 4.73344C61.7684 4.90513 62.2865 5.46509 62.453 6.00876C62.5631 6.36806 62.5487 6.47401 62.3342 6.88538C62.1999 7.14273 61.9503 7.52146 61.7795 7.72699C61.6086 7.93253 61.1632 8.49518 60.7897 8.97733C60.4162 9.45948 59.544 10.5354 58.8514 11.3682C58.1589 12.201 57.0311 13.6475 56.3453 14.5825C55.0758 16.3134 52.2963 20.4195 51.7417 21.3832C51.5736 21.6754 51.2742 22.135 51.0765 22.4045C50.8788 22.674 50.5398 23.2596 50.3232 23.7058C49.9605 24.4528 49.9325 24.579 49.9696 25.2974C50.02 26.2751 50.3322 26.7835 51.2284 27.3479C52.5773 28.1975 51.3513 28.1307 65.5858 28.1307H78.283L79.3836 26.9723C80.2338 26.0776 80.5692 25.634 80.8581 25.0225C81.2802 24.1288 81.7166 22.7333 81.9052 21.6741C82.0652 20.7753 81.9655 18.3676 81.7427 17.7526C81.3235 16.0883 80.3759 14.6628 79.4609 13.2431C77.7177 10.5845 75.234 8.47311 71.644 6.59797C71.0068 6.26515 69.5852 5.2969 69.6105 5.27213C69.6886 5.19575 72.1123 6.18442 73.3076 6.76591C76.2601 8.20222 78.7988 10.2583 80.4849 12.5789C81.7346 14.2988 82.7712 16.2561 83.2825 18.2287C83.567 19.3263 83.6019 20.2816 83.5985 21.4772C83.5916 23.8636 83.0817 25.4306 81.8864 27.7067C81.0479 29.3035 80.8562 29.5079 79.586 30.1606L78.1787 30.6581L65.6511 30.734C52.8646 30.8115 52.8288 30.7334 51.5826 30.4986C48.9159 29.9961 47.8236 29.3757 47.127 27.9682C46.7814 27.2699 46.7042 25.914 46.9545 24.9388C47.5273 22.7074 51.4569 16.7621 56.9543 9.80969C58.0012 8.48576 58.9074 7.31173 58.9681 7.20074C59.2578 6.67139 58.968 6.32095 58.1419 6.20149C57.5656 6.11815 54.6279 6.56467 53.3564 6.92885C50.2483 7.81906 49.049 8.27247 47.4972 9.14388C45.1617 10.4555 43.2464 12.0663 41.9169 13.8371C40.499 15.7257 39.9353 16.9138 39.3992 19.143C39.0822 20.4612 39.1557 22.5194 39.572 23.9828C37.7648 22.5086 37.5588 21.2014 37.5979 19.9178Z" fill="url(#paint18_linear_655_4901)"/>
<path d="M38.0805 24.2522C37.6318 22.8556 37.5298 21.9407 37.5969 19.9178C37.6484 18.3654 37.7009 17.9455 37.9441 17.1387C38.5501 15.1283 39.3905 13.5995 40.7956 11.9518C43.9795 8.21796 49.9271 5.40106 55.9814 4.75942C57.6577 4.58177 60.79 4.56638 61.272 4.73344C61.7674 4.90513 62.2855 5.46509 62.452 6.00876C62.5621 6.36806 62.5477 6.47401 62.3332 6.88538C62.1989 7.14273 61.9493 7.52146 61.7784 7.72699C61.6076 7.93253 61.1622 8.49518 60.7887 8.97733C60.4152 9.45948 59.543 10.5354 58.8504 11.3682C58.1579 12.201 57.0301 13.6475 56.3443 14.5825C55.0748 16.3134 52.2953 20.4195 51.7407 21.3832C51.5726 21.6754 51.2732 22.135 51.0755 22.4045C50.8778 22.674 50.5388 23.2596 50.3222 23.7058C49.9595 24.4528 49.9314 24.579 49.9685 25.2974C50.019 26.2751 50.3312 26.7835 51.2274 27.3479C52.5763 28.1975 51.3503 28.1307 65.5848 28.1307H78.282L79.3826 26.9723C80.2328 26.0776 80.5682 25.634 80.857 25.0225C81.2792 24.1288 81.7156 22.7333 81.9042 21.6741C82.0642 20.7753 81.9645 18.3676 81.7417 17.7526C81.3225 16.0883 80.581 14.4615 79.6661 13.0418C77.9228 10.3832 75.4391 8.27181 71.8491 6.39667C71.2119 6.06384 69.5842 5.2969 69.6095 5.27213C69.6876 5.19575 72.1113 6.18442 73.3066 6.76591C76.2591 8.20222 78.7978 10.2583 80.4839 12.5789C81.7336 14.2988 82.7702 16.2561 83.2815 18.2287C83.566 19.3263 83.6009 20.2816 83.5975 21.4772C83.5906 23.8636 83.0807 25.4306 81.8854 27.7067C81.0468 29.3035 80.8552 29.5079 79.585 30.1606L78.1777 30.6581L65.6501 30.734C52.8636 30.8115 52.8278 30.7334 51.5816 30.4986C48.9149 29.9961 47.8226 29.3757 47.126 27.9682C46.7804 27.2699 46.7032 25.914 46.9535 24.9388C47.5263 22.7074 51.4559 16.7621 56.9533 9.80969C58.0002 8.48576 58.9064 7.31173 58.9671 7.20074C59.2567 6.67139 58.967 6.32095 58.1409 6.20149C57.5646 6.11815 54.6269 6.56467 53.3554 6.92885C50.2473 7.81906 49.048 8.27247 47.4962 9.14388C45.1607 10.4555 43.2454 12.0663 41.9159 13.8371C40.498 15.7257 39.9342 16.9138 39.3982 19.143C39.0812 20.4612 39.1547 22.5194 39.571 23.9828C39.064 24.2728 40.4183 26.2896 38.0805 24.2522Z" fill="url(#paint19_linear_655_4901)"/>
<path d="M38.1996 24.136C37.751 22.7394 37.6489 21.8245 37.716 19.8016C37.7675 18.2492 37.82 17.8293 38.0632 17.0225C38.6692 15.0121 39.5097 13.4833 40.9147 11.8356C44.0987 8.10175 50.0462 5.28484 56.1005 4.64321C57.7768 4.46556 60.9091 4.45017 61.3911 4.61723C61.8865 4.78892 62.4046 5.34888 62.5712 5.89255C62.6812 6.25185 62.6669 6.3578 62.4523 6.76916C62.3181 7.02652 62.0684 7.40525 61.8976 7.61078C61.7267 7.81632 61.2813 8.37897 60.9078 8.86112C60.5343 9.34327 59.6621 10.4192 58.9695 11.252C58.277 12.0848 57.1493 13.5312 56.4634 14.4663C55.194 16.1972 52.4144 20.3033 51.8599 21.267C51.6917 21.5592 51.3924 22.0188 51.1947 22.2883C50.997 22.5578 50.6579 23.1434 50.4413 23.5896C50.0786 24.3366 50.0506 24.4628 50.0877 25.1812C50.1382 26.1589 50.4503 26.6673 51.3465 27.2317C52.6955 28.0813 51.4694 28.0145 65.7039 28.0145H78.4012L79.5017 26.8561C80.3519 25.9613 80.6873 25.5177 80.9762 24.9063C81.3983 24.0126 81.8347 22.6171 82.0233 21.5579C82.1833 20.6591 82.0836 18.2513 81.8609 17.6364C81.4416 15.9721 80.494 14.5466 79.5791 13.1269C77.8358 10.4682 75.3521 8.3569 71.7621 6.48176C71.1249 6.14893 69.7034 5.18069 69.7287 5.15593C69.8068 5.07954 72.2305 6.06822 73.4258 6.6497C76.3782 8.08601 78.9169 10.1421 80.603 12.4627C81.8527 14.1826 82.8894 16.1399 83.4006 18.1125C83.6851 19.2101 83.72 20.1654 83.7166 21.361C83.7097 23.7474 83.1998 25.3144 82.0045 27.5905C81.166 29.1872 80.9743 29.3917 79.7041 30.0444L78.2969 30.5419L65.7692 30.6178C52.9827 30.6953 52.9469 30.6172 51.7007 30.3824C49.0341 29.8798 47.9417 29.2595 47.2451 27.852C46.8995 27.1537 46.8223 25.7978 47.0726 24.8226C47.6454 22.5911 51.575 16.6459 57.0725 9.69348C58.1193 8.36955 59.0255 7.19552 59.0863 7.08453C59.3759 6.55518 59.0861 6.20474 58.26 6.08528C57.6838 6.00194 54.746 6.44846 53.4745 6.81264C50.3665 7.70285 49.1671 8.15626 47.6154 9.02767C45.2798 10.3392 43.3645 11.9501 42.035 13.7209C40.6171 15.6095 40.0534 16.7976 39.5173 19.0268C39.2004 20.345 39.2739 22.4032 39.6902 23.8666C39.1832 24.1566 39.2935 24.0396 38.1996 24.136Z" fill="url(#paint20_linear_655_4901)"/>
<g opacity="0.8">
<path d="M56.1953 4.85505C57.7724 4.68478 60.7193 4.67004 61.1727 4.83015C61.6388 4.9947 62.1262 5.53138 62.2829 6.05245C62.3865 6.39682 62.3729 6.49836 62.1711 6.89262C62.0448 7.13927 61.81 7.50226 61.6492 7.69925C61.4885 7.89624 61.0695 8.4355 60.718 8.8976C58.1769 11.3945 58.6549 9.97557 59.0043 7.19487C59.2768 6.68753 59.0042 6.35166 58.227 6.23716C57.2359 5.47137 58.1818 5.59922 56.1953 4.85505Z" fill="url(#paint21_linear_655_4901)"/>
</g>
<path d="M58.1727 12.0176C57.5212 12.8158 56.4602 14.2021 55.815 15.0983C54.6207 16.7573 52.0057 20.6926 51.4839 21.6162C51.3257 21.8963 51.0441 22.3368 50.8581 22.5951C50.6721 22.8534 50.3532 23.4146 50.1493 23.8423C49.8081 24.5582 49.7818 24.6792 49.8167 25.3678C49.8641 26.3048 50.1578 26.7921 51.001 27.333C52.2701 28.1472 51.1166 28.0832 64.5085 28.0832C66.2504 28.8399 79.8382 30.0993 64.5699 30.5783C52.5403 30.6526 52.5066 30.5777 51.3342 30.3527C48.8254 29.871 47.7977 29.2764 47.1423 27.9274C46.8172 27.2582 46.7446 25.9586 46.9801 25.0241C49.9492 14.9485 59.588 9.86833 58.1727 12.0176Z" fill="url(#paint22_linear_655_4901)"/>
<path d="M55.3265 26.1071C54.7846 25.3655 54.7696 24.4957 55.2791 23.3642C56.1751 21.3743 61.2467 14.4479 65.0752 9.98551C67.2845 7.41039 68.1763 6.18474 68.1763 5.7235C68.1763 5.52053 68.0434 5.27323 67.7828 4.99161L67.087 4.37842L67.7086 4.56626C68.0949 4.68297 69.1975 5.04197 69.5269 5.25276C70.067 5.59828 69.9738 6.56086 69.4218 7.49933C69.1586 7.9466 68.1135 9.26632 67.2004 10.3043C64.7053 13.1405 61.756 17.0247 59.0109 21.0897C57.5527 23.249 57.0864 24.1672 57.2441 24.5687C57.3257 24.7763 55.9416 26.3509 55.6817 26.3462C55.5811 26.3444 55.4213 26.2367 55.3265 26.1071Z" fill="#505050"/>
<path d="M78.5896 26.8304C78.3551 26.5772 77.7745 25.3903 77.7745 25.1956C77.7745 25.111 78.0107 25.1108 78.1095 25.0328C78.4078 24.7973 78.6148 24.32 78.9088 23.1894C79.5965 20.5455 79.3097 17.9263 78.0534 15.3759C76.5063 12.2353 73.3041 9.555 69.7308 8.40993C69.2263 8.24824 69.0664 8.18998 68.9599 8.07174C68.7767 7.86836 68.8005 7.79271 69.101 7.15127C69.3241 6.67492 69.3749 6.42434 69.5416 6.40086C69.672 6.38247 70.306 6.63 71.2473 7.07848C75.8599 9.27614 78.8863 12.0515 80.4093 15.4805C81.2071 17.2766 81.3802 17.9866 81.4501 19.7479C81.5367 21.929 81.1821 23.5341 80.197 25.4206C79.4018 26.9434 78.9774 27.2495 78.5896 26.8304Z" fill="url(#paint23_linear_655_4901)"/>
<path d="M56.6903 26.9521C56.1274 26.8833 55.6074 26.5281 55.6074 26.3166C55.6074 26.106 57.0535 24.478 57.2345 24.478C57.2955 24.478 57.327 24.7091 57.5218 24.8061C57.8421 24.9656 58.8409 24.9865 67.9984 25.0255L78.121 25.0685L78.5574 25.8412C78.8216 26.3088 79.045 26.7596 79.0023 26.8666C78.937 27.03 72.7745 27.1273 62.7232 27.1126C56.7416 27.1039 56.8729 26.9744 56.6903 26.9521Z" fill="url(#paint24_linear_655_4901)"/>
<path opacity="0.5" d="M56.6903 26.9521C56.1274 26.8833 55.6074 26.5281 55.6074 26.3166C55.6074 26.106 57.0535 24.478 57.2345 24.478C57.2955 24.478 57.327 24.7091 57.5218 24.8061C57.8421 24.9656 58.8409 24.9865 67.9984 25.0255L78.121 25.0685L78.5574 25.8412C78.8216 26.3088 79.045 26.7596 79.0023 26.8666C78.937 27.03 72.7745 27.1273 62.7232 27.1126C56.7416 27.1039 56.8729 26.9744 56.6903 26.9521Z" fill="url(#paint25_linear_655_4901)"/>
<path d="M56.7043 36.3189C46.1848 35.4228 37.7731 29.4027 36.523 21.8757C35.7418 17.1722 37.8086 12.5819 42.366 8.89867C43.9346 7.63094 44.3473 7.37026 46.3664 6.37197C50.1409 4.50573 53.806 3.65453 58.6087 3.52878C61.1929 3.46112 63.0683 3.57524 65.1884 3.92915C67.0346 4.23736 67.2554 4.31347 67.7749 4.8207C68.1468 5.18389 68.2392 5.3491 68.2392 5.65082C68.2392 6.11165 67.7227 6.81466 64.9789 10.0881C61.7208 13.9752 59.7184 16.6065 57.1199 20.4157C54.9654 23.574 54.6674 24.2778 55.0048 25.411C55.2539 26.2479 56.0342 26.6361 56.8008 26.7786C57.7936 26.9631 58.9114 26.9197 66.4323 26.9081C70.383 26.902 78.7629 26.9195 79.0227 26.9009C79.3607 26.8767 79.5578 26.7811 79.7842 26.5694C80.5608 25.5877 80.8655 25.1776 79.8383 26.9603C79.3987 27.7233 78.7284 28.3148 77.9903 28.4644C77.1354 28.6377 54.6392 28.5521 53.4023 28.3709C52.3218 28.2125 51.6959 27.9796 50.8584 27.4243C50.3335 27.0762 50.1306 26.8583 49.8968 26.3917C49.634 25.8672 49.608 25.7215 49.667 25.1042C49.7411 24.3295 50.0718 23.5384 50.6996 22.6336C50.9269 22.306 51.278 21.7511 51.4797 21.4005C51.6814 21.0498 52.5379 19.7348 53.3829 18.4783C55.6254 15.1439 57.9083 12.107 59.5333 10.2963C60.5557 9.15712 62.0311 7.18535 62.1372 6.81631C62.3433 6.10007 61.767 5.13274 60.9701 4.85699C60.427 4.66909 57.5395 4.70948 55.8005 4.9293C46.2498 6.13659 39.0424 11.5136 37.8231 18.3413C37.6158 19.5017 37.6145 21.8055 37.8204 22.9539C38.389 26.1244 40.4682 29.0668 43.7611 31.3607C44.9607 32.1963 47.5864 33.511 49.1412 34.0545C56.1944 36.5202 65.1318 36.1276 71.8489 33.0571C73.4643 32.3187 74.1567 31.8605 75.163 30.864L76.0472 29.9884L77.5727 29.9173C79.0293 29.8494 79.8349 29.9227 79.7282 30.0913C79.6308 30.2451 77.5767 31.0297 76.7549 31.3145C76.2907 31.4753 75.8592 31.7661 75.2023 32.1694C70.1653 35.2613 63.1707 36.8698 56.7043 36.3189Z" fill="url(#paint26_linear_655_4901)"/>
<path opacity="0.3" d="M56.8254 36.2994C46.3059 35.4033 37.8942 29.3832 36.6441 21.8562C35.8629 17.1527 37.9297 12.5624 42.4871 8.87917C44.0557 7.61144 44.4684 7.35076 46.4875 6.35247C50.262 4.48623 53.9271 3.63502 58.7298 3.50928C57.1571 4.26018 58.0129 4.82348 55.9216 4.90979C46.3708 6.11709 39.1635 11.4941 37.9441 18.3217C37.7369 19.4822 37.7356 21.786 37.9415 22.9344C38.5101 26.1049 40.5893 29.0473 43.8822 31.3412C45.0817 32.1767 47.7075 33.4915 49.2623 34.035C56.3155 36.5007 65.2529 36.1081 71.97 33.0376C73.5854 32.2992 74.2778 31.8409 75.2841 30.8445L76.1683 29.9689L77.6938 29.8977C79.1504 29.8298 79.9559 29.9032 79.8493 30.0718C79.7519 30.2256 77.6978 31.0102 76.876 31.295C76.4118 31.4558 75.9803 31.7466 75.3234 32.1499C70.2864 35.2418 63.2918 36.8503 56.8254 36.2994Z" fill="url(#paint27_linear_655_4901)"/>
<path d="M56.7538 36.3121C46.2343 35.4159 38.0699 29.7985 36.8198 22.2715C36.0387 17.568 38.1055 13.0582 42.6629 9.37495C44.2315 8.10722 44.6954 7.8425 46.5908 6.76369C50.2459 4.68324 53.8555 3.64769 58.6581 3.52195C61.2424 3.45429 63.1178 3.5684 65.2378 3.92231C67.0841 4.23052 67.3049 4.30663 67.8244 4.81387C68.1963 5.17706 68.2887 5.34227 68.2887 5.64399C68.2887 6.10481 67.7722 6.80783 65.0284 10.0812C61.7702 13.9684 59.7679 16.5997 57.1694 20.4089C55.0149 23.5672 54.7169 24.2709 55.0543 25.4042C55.3034 26.2411 56.0837 26.6293 56.8503 26.7718C57.8431 26.9563 58.9609 26.9129 66.4818 26.9013C70.4325 26.8951 78.8124 26.9127 79.0722 26.8941C79.4102 26.8698 79.6073 26.7743 79.8337 26.5625C80.6103 25.5809 80.9151 25.1708 79.8878 26.9535C79.4482 27.7165 78.7779 28.3079 78.0397 28.4576C77.1849 28.6309 54.6887 28.5453 53.4518 28.364C52.3713 28.2057 51.7454 27.9728 50.9079 27.4175C50.383 27.0694 50.1801 26.8515 49.9463 26.3849C49.6835 25.8604 49.6575 25.7147 49.7165 25.0973C49.7906 24.3227 50.1213 23.5316 50.7491 22.6268C50.9764 22.2992 51.3274 21.7443 51.5292 21.3936C51.7309 21.043 52.5874 19.728 53.4324 18.4715C55.6749 15.1371 57.9578 12.1002 59.5828 10.2895C60.6052 9.15028 62.0806 7.17851 62.1867 6.80947C62.3928 6.09324 61.8165 5.1259 61.0196 4.85015C60.4765 4.66226 57.5889 4.70265 55.85 4.92246C46.2992 6.12976 39.0919 11.5068 37.8725 18.3344C37.6653 19.4949 37.664 21.7986 37.8699 22.947C38.4385 26.1176 40.5177 29.0599 43.8106 31.3538C45.0101 32.1894 47.6359 33.5042 49.1907 34.0477C56.2439 36.5134 65.1813 36.1208 71.8984 33.0502C73.5138 32.3118 74.2062 31.8536 75.2125 30.8572L76.0967 29.9815L77.6222 29.9104C79.0788 29.8425 79.8844 29.9159 79.7777 30.0845C79.6803 30.2383 77.6262 31.0229 76.8044 31.3077C76.3402 31.4685 75.9087 31.7593 75.2517 32.1626C70.2147 35.2544 63.2202 36.8629 56.7538 36.3121Z" fill="url(#paint28_linear_655_4901)"/>
<path opacity="0.5" d="M56.7043 36.318C46.1848 35.4218 37.7731 29.4018 36.523 21.8747C35.7418 17.1712 37.8086 12.581 42.366 8.89772C43.9346 7.62999 44.3473 7.36931 46.3664 6.37101C50.1409 4.50477 53.806 3.65358 58.6087 3.52783C58.5075 4.54941 56.8516 4.93265 55.8005 4.92834C46.2498 6.13564 39.0424 11.5126 37.8231 18.3403C37.6158 19.5008 37.6145 21.8045 37.8204 22.9529C38.389 26.1235 40.4682 29.0658 43.7611 31.3597C44.9607 32.1953 47.5864 33.51 49.1412 34.0536C56.1944 36.5192 65.1318 36.1267 71.8489 33.0561C73.4643 32.3177 74.1567 31.8595 75.163 30.8631L76.0473 29.9874L77.5727 29.9163C79.0293 29.8484 79.8349 29.9218 79.7282 30.0903C79.6308 30.2441 77.5767 31.0288 76.7549 31.3135C76.2907 31.4744 75.8592 31.7652 75.2023 32.1684C70.1653 35.2603 63.1707 36.8688 56.7043 36.318Z" fill="url(#paint29_linear_655_4901)"/>
<path opacity="0.3" d="M56.8254 36.2994C46.3059 35.4033 37.8942 29.3832 36.6441 21.8562C35.8629 17.1527 37.9297 12.5624 42.4871 8.87917C44.0557 7.61144 44.4684 7.35076 46.4875 6.35247C50.262 4.48623 53.9271 3.63502 58.7298 3.50928C57.1571 4.26018 58.0129 4.82348 55.9216 4.90979C46.3708 6.11709 39.1635 11.4941 37.9441 18.3217C37.7369 19.4822 37.7356 21.786 37.9415 22.9344C38.5101 26.1049 40.5893 29.0473 43.8822 31.3412C45.0817 32.1767 47.7075 33.4915 49.2623 34.035C56.3155 36.5007 65.2529 36.1081 71.97 33.0376C73.5854 32.2992 74.2778 31.8409 75.2841 30.8445L76.1683 29.9689L77.6938 29.8977C79.1504 29.8298 79.9559 29.9032 79.8493 30.0718C79.7519 30.2256 77.6978 31.0102 76.876 31.295C76.4118 31.4558 75.9803 31.7466 75.3234 32.1499C70.2864 35.2418 63.2918 36.8503 56.8254 36.2994Z" fill="url(#paint30_linear_655_4901)"/>
<path opacity="0.3" d="M57.9127 27.4082C57.0481 27.3878 55.4421 26.1584 55.5609 26.2569C56.4674 27.0081 60.274 26.9398 67.7222 26.9219L79.025 26.8949L79.313 26.6255C79.4713 26.4773 79.8271 25.8918 80.1036 25.3243C81.7433 21.9585 81.7493 18.5459 80.1213 15.2253C79.4594 13.8752 78.6857 12.8096 77.4579 11.5572C75.6775 9.74105 73.9985 8.50713 71.3096 7.34833C69.4026 6.5265 69.3474 6.70841 69.4259 6.19172C69.4259 6.06367 69.3545 5.89955 69.2964 5.69705C69.0454 4.82225 69.1612 5.01484 71.4246 6.16954C74.466 7.72113 76.1074 8.77783 78.0219 10.7255C82.2507 15.0276 83.3023 20.5791 80.8335 25.5676C80.3613 26.5218 79.6841 27.1734 78.9302 27.399C78.5943 27.4995 76.6228 27.5074 68.7442 27.4984C63.0883 27.492 62.3432 27.5125 57.9127 27.4082Z" fill="url(#paint31_linear_655_4901)"/>
<path d="M57.9123 27.125C56.4064 27.1049 55.0486 25.9034 55.1674 26.0006C56.0739 26.7419 60.2737 26.6627 67.7218 26.6451L79.0246 26.6184L79.3126 26.3525C79.471 26.2063 79.8267 25.6284 80.1032 25.0684C81.7429 21.7465 81.7489 18.3785 80.1209 15.1012C79.4591 13.7688 78.6853 12.717 77.4576 11.481C75.6771 9.68857 73.9981 8.47076 71.3092 7.32709C69.4023 6.51599 69.3471 6.69552 69.4255 6.18558C69.4255 6.0592 69.3542 5.89722 69.296 5.69736C69.0451 4.83398 69.2774 5.4736 71.5409 6.61323C74.5823 8.14456 75.8738 8.9627 77.7883 10.8849C82.0171 15.1309 83.302 20.3852 80.8331 25.3085C80.3609 26.2502 79.6837 26.8933 78.9298 27.116C78.5939 27.2152 76.6225 27.2229 68.7438 27.2141C63.0879 27.2078 62.3437 27.1841 57.9123 27.125Z" fill="url(#paint32_linear_655_4901)"/>
<path opacity="0.5" d="M80.1211 15.2265C79.4592 13.8764 78.6854 12.8107 77.4577 11.5584C75.6773 9.74222 73.9982 8.5083 71.3094 7.3495C69.4024 6.52767 69.3472 6.70958 69.4257 6.19289C69.4257 6.06484 69.3543 5.90072 69.2962 5.69822C69.0452 4.82342 69.0152 5.30069 71.2786 6.45539C74.32 8.00699 76.1072 8.779 78.0216 10.7267C79.6556 12.8992 78.573 11.7389 80.1211 15.2265Z" fill="url(#paint33_linear_655_4901)"/>
<path opacity="0.3" d="M75.2803 30.8455L76.1646 29.9698L77.6901 29.8987C79.1467 29.8308 79.9522 29.9042 79.8455 30.0727C78.8229 31.2028 74.2934 32.0055 75.2803 30.8455Z" fill="url(#paint34_linear_655_4901)"/>
<path opacity="0.6" d="M56.7538 36.2886C46.2343 35.3925 38.0699 29.7751 36.8198 22.248C36.0387 17.5445 38.1055 13.0348 42.6629 9.35152C44.2315 8.08379 44.6954 7.81906 46.5908 6.74025C50.246 4.6598 53.8555 3.62426 58.6582 3.49851C61.2424 3.43085 63.1178 3.54496 65.2378 3.89888C67.0841 4.20708 67.3049 4.28319 67.8244 4.79043C68.1963 5.15362 68.2888 5.31883 68.2888 5.62055C68.2888 6.08137 67.7722 6.78438 65.0284 10.0578C61.7702 13.9449 59.7679 16.5762 57.1694 20.3854C55.0149 23.5437 54.7169 24.2475 55.0543 25.3807C55.3034 26.2177 56.0837 26.6059 56.8503 26.7483C57.8431 26.9328 58.9609 26.8894 66.4818 26.8778C70.4325 26.8717 78.8124 26.8892 79.0722 26.8706C79.4102 26.8464 79.6073 26.7509 79.8337 26.5391C80.6103 25.5574 80.9151 25.1473 79.8878 26.9301C79.4482 27.693 78.7779 28.2845 78.0397 28.4341C77.1849 28.6074 54.6887 28.5219 53.4518 28.3406C52.3713 28.1823 51.7454 27.9493 50.9079 27.394C50.383 27.046 50.1801 26.828 49.9463 26.3614C49.6835 25.837 49.6575 25.6913 49.7165 25.0739C49.7906 24.2993 50.1213 23.5081 50.7491 22.6034C50.9764 22.2758 51.3274 21.7208 51.5292 21.3702C51.7309 21.0195 52.5874 19.7046 53.4324 18.448C55.6749 15.1137 57.9578 12.0767 59.5828 10.266C60.6052 9.12685 62.0806 7.15508 62.1867 6.78603C62.3928 6.0698 61.8165 5.10246 61.0196 4.82672C60.4765 4.63882 57.5889 4.67921 55.85 4.89902C46.2992 6.10632 39.0919 11.4833 37.8725 18.311C37.6653 19.4715 37.664 21.7752 37.8699 22.9236C38.4385 26.0942 40.5177 29.0365 43.8106 31.3304C45.0102 32.166 47.6359 33.4807 49.1907 34.0243C56.2439 36.4899 65.1813 36.0974 71.8984 33.0268C73.5138 32.2884 74.2062 31.8302 75.2125 30.8338L76.0967 29.9581L77.6222 29.887C79.0788 29.8191 79.8844 29.8925 79.7777 30.061C79.6803 30.2148 77.6262 30.9994 76.8044 31.2842C76.3402 31.4451 75.9087 31.7358 75.2517 32.1391C70.2147 35.231 63.2202 36.8395 56.7538 36.2886Z" fill="url(#paint35_radial_655_4901)"/>
<defs>
<linearGradient id="paint0_linear_655_4901" x1="57.3191" y1="55.5815" x2="56.944" y2="39.6973" gradientUnits="userSpaceOnUse">
<stop stop-color="#505050"/>
<stop offset="0.0584744" stop-color="#525252"/>
<stop offset="0.56152" stop-color="#555555"/>
<stop offset="0.786532" stop-color="#5A5A5A"/>
<stop offset="1" stop-color="#C8C8C8"/>
</linearGradient>
<linearGradient id="paint1_linear_655_4901" x1="75.4145" y1="41.9932" x2="75.4145" y2="43.5033" gradientUnits="userSpaceOnUse">
<stop stop-color="#B8B8B8"/>
<stop offset="1" stop-color="#828282"/>
</linearGradient>
<linearGradient id="paint2_linear_655_4901" x1="62.2993" y1="40.4865" x2="62.0416" y2="51.9353" gradientUnits="userSpaceOnUse">
<stop stop-color="#464646"/>
<stop offset="1"/>
</linearGradient>
<linearGradient id="paint3_linear_655_4901" x1="62.2984" y1="40.402" x2="62.0197" y2="52.3098" gradientUnits="userSpaceOnUse">
<stop stop-color="#464646"/>
<stop offset="1"/>
</linearGradient>
<linearGradient id="paint4_linear_655_4901" x1="62.299" y1="39.5176" x2="61.9571" y2="52.7044" gradientUnits="userSpaceOnUse">
<stop stop-color="#464646"/>
<stop offset="1"/>
</linearGradient>
<linearGradient id="paint5_linear_655_4901" x1="62.3008" y1="39.5184" x2="61.9589" y2="52.7052" gradientUnits="userSpaceOnUse">
<stop stop-color="#464646"/>
<stop offset="1"/>
</linearGradient>
<linearGradient id="paint6_linear_655_4901" x1="62.3017" y1="40.4011" x2="62.0111" y2="52.5605" gradientUnits="userSpaceOnUse">
<stop stop-color="#464646"/>
<stop offset="1"/>
</linearGradient>
<linearGradient id="paint7_linear_655_4901" x1="62.2966" y1="39.5182" x2="61.9548" y2="52.7049" gradientUnits="userSpaceOnUse">
<stop stop-color="#464646"/>
<stop offset="1"/>
</linearGradient>
<linearGradient id="paint8_linear_655_4901" x1="62.2982" y1="39.5181" x2="61.9564" y2="52.7048" gradientUnits="userSpaceOnUse">
<stop stop-color="#464646"/>
<stop offset="1"/>
</linearGradient>
<linearGradient id="paint9_linear_655_4901" x1="53.6657" y1="40.1043" x2="53.3892" y2="53.79" gradientUnits="userSpaceOnUse">
<stop stop-color="#787878"/>
<stop offset="1" stop-color="#1E1E1E"/>
</linearGradient>
<linearGradient id="paint10_linear_655_4901" x1="57.2426" y1="40.2938" x2="57.7035" y2="51.4318" gradientUnits="userSpaceOnUse">
<stop stop-color="#B4B4B4"/>
<stop offset="0.322353" stop-color="#828282"/>
<stop offset="1" stop-color="#3C3C3C"/>
</linearGradient>
<linearGradient id="paint11_linear_655_4901" x1="58.9839" y1="54.4683" x2="59.4401" y2="46.7108" gradientUnits="userSpaceOnUse">
<stop stop-color="#828282"/>
<stop offset="0.5" stop-color="#828282"/>
<stop offset="1" stop-color="#3C3C3C"/>
</linearGradient>
<linearGradient id="paint12_linear_655_4901" x1="57.9187" y1="45.7686" x2="58.1031" y2="51.6206" gradientUnits="userSpaceOnUse">
<stop stop-color="#828282"/>
<stop offset="0.5" stop-color="#828282"/>
<stop offset="1" stop-color="#3C3C3C"/>
</linearGradient>
<linearGradient id="paint13_linear_655_4901" x1="35.4866" y1="13.5593" x2="77.8279" y2="41.8098" gradientUnits="userSpaceOnUse">
<stop stop-color="#000032"/>
<stop offset="0.25" stop-color="#646464"/>
<stop offset="0.423823"/>
<stop offset="1" stop-color="#787878"/>
</linearGradient>
<linearGradient id="paint14_linear_655_4901" x1="37.4673" y1="33.5403" x2="81.5012" y2="33.2025" gradientUnits="userSpaceOnUse">
<stop stop-color="#999999"/>
<stop offset="0.220528" stop-color="#3C3C3C" stop-opacity="0.87451"/>
<stop offset="0.515847" stop-color="#969696"/>
<stop offset="0.752781" stop-color="#828282"/>
<stop offset="1" stop-color="#5A5A5A"/>
</linearGradient>
<linearGradient id="paint15_linear_655_4901" x1="66.4092" y1="37.3239" x2="66.3303" y2="26.7757" gradientUnits="userSpaceOnUse">
<stop/>
<stop offset="1" stop-opacity="0"/>
</linearGradient>
<linearGradient id="paint16_linear_655_4901" x1="51.4035" y1="5.03608" x2="82.1186" y2="40.8169" gradientUnits="userSpaceOnUse">
<stop stop-color="#5A5A5A"/>
<stop offset="0.268765" stop-color="#505050"/>
<stop offset="0.632019" stop-color="#666666"/>
<stop offset="0.667453" stop-color="#666666"/>
<stop offset="1" stop-color="#666666"/>
</linearGradient>
<linearGradient id="paint17_linear_655_4901" x1="51.4035" y1="5.03608" x2="82.1186" y2="40.8169" gradientUnits="userSpaceOnUse">
<stop stop-color="#5A5A5A"/>
<stop offset="0.268765" stop-color="#505050"/>
<stop offset="0.632019" stop-color="#666666"/>
<stop offset="0.667453" stop-color="#666666"/>
<stop offset="1" stop-color="#666666"/>
</linearGradient>
<linearGradient id="paint18_linear_655_4901" x1="39.2318" y1="8.49984" x2="71.2749" y2="22.6543" gradientUnits="userSpaceOnUse">
<stop stop-color="#323232" stop-opacity="0"/>
<stop offset="0.39399" stop-color="#323232" stop-opacity="0.94902"/>
<stop offset="0.466851" stop-color="#323232" stop-opacity="0.901961"/>
<stop offset="0.704071" stop-color="#E1E1E1" stop-opacity="0.498039"/>
<stop offset="1" stop-color="#C8C8C8" stop-opacity="0"/>
</linearGradient>
<linearGradient id="paint19_linear_655_4901" x1="66.1619" y1="31.929" x2="66.3196" y2="26.7755" gradientUnits="userSpaceOnUse">
<stop/>
<stop offset="1" stop-opacity="0"/>
</linearGradient>
<linearGradient id="paint20_linear_655_4901" x1="37.8622" y1="11.454" x2="42.1696" y2="16.1059" gradientUnits="userSpaceOnUse">
<stop stop-color="#28170B"/>
<stop offset="1" stop-color="#28170B" stop-opacity="0"/>
</linearGradient>
<linearGradient id="paint21_linear_655_4901" x1="59.1053" y1="8.56144" x2="57.5231" y2="4.89536" gradientUnits="userSpaceOnUse">
<stop stop-color="#B3B3B3" stop-opacity="0"/>
<stop offset="0.160949" stop-color="#B3B3B3" stop-opacity="0.300885"/>
<stop offset="0.341789" stop-color="#B3B3B3" stop-opacity="0.87451"/>
<stop offset="0.405936" stop-color="#B3B3B3" stop-opacity="0.74902"/>
<stop offset="0.658295" stop-color="#B3B3B3" stop-opacity="0"/>
<stop offset="1" stop-color="#B3B3B3" stop-opacity="0"/>
</linearGradient>
<linearGradient id="paint22_linear_655_4901" x1="48.8809" y1="28.5615" x2="46.8509" y2="22.2106" gradientUnits="userSpaceOnUse">
<stop stop-color="#B3B3B3" stop-opacity="0"/>
<stop offset="0.12143" stop-color="#B3B3B3" stop-opacity="0.368627"/>
<stop offset="0.285824" stop-color="#B3B3B3" stop-opacity="0.87451"/>
<stop offset="0.383948" stop-color="#B3B3B3" stop-opacity="0.74902"/>
<stop offset="0.516942" stop-color="#B3B3B3" stop-opacity="0.498039"/>
<stop offset="1" stop-color="#B3B3B3" stop-opacity="0"/>
</linearGradient>
<linearGradient id="paint23_linear_655_4901" x1="72.2183" y1="5.36136" x2="78.4394" y2="24.3869" gradientUnits="userSpaceOnUse">
<stop/>
<stop offset="0.552013" stop-color="#7D7D7D"/>
<stop offset="0.693304" stop-color="#969696"/>
<stop offset="0.857541" stop-color="#8A8A8A"/>
<stop offset="1" stop-color="#505050"/>
</linearGradient>
<linearGradient id="paint24_linear_655_4901" x1="55.2197" y1="25.0111" x2="76.5188" y2="30.1706" gradientUnits="userSpaceOnUse">
<stop stop-color="#323232"/>
<stop offset="0.105545" stop-color="#B4B4B6"/>
<stop offset="0.253205" stop-color="#B4B4B4"/>
<stop offset="1" stop-color="#AAAAAA"/>
</linearGradient>
<linearGradient id="paint25_linear_655_4901" x1="68.6058" y1="24.1501" x2="68.6058" y2="27.6232" gradientUnits="userSpaceOnUse">
<stop stop-color="#505050"/>
<stop offset="1" stop-color="#FAFAFA" stop-opacity="0"/>
</linearGradient>
<linearGradient id="paint26_linear_655_4901" x1="40.8018" y1="1.66082" x2="49.8842" y2="16.5102" gradientUnits="userSpaceOnUse">
<stop stop-color="#8282A9"/>
<stop offset="1" stop-color="#A9A9A9" stop-opacity="0"/>
</linearGradient>
<linearGradient id="paint27_linear_655_4901" x1="78.1368" y1="29.8919" x2="66.6692" y2="33.9198" gradientUnits="userSpaceOnUse">
<stop stop-color="#FAFAFA"/>
<stop offset="0.25" stop-color="#FAFAFA" stop-opacity="0.901961"/>
<stop offset="0.5" stop-color="#E1E1E1" stop-opacity="0.498039"/>
<stop offset="1" stop-color="#C8C8C8" stop-opacity="0"/>
</linearGradient>
<linearGradient id="paint28_linear_655_4901" x1="61.0542" y1="1.81503" x2="60.8124" y2="41.6371" gradientUnits="userSpaceOnUse">
<stop stop-color="#AAAAAA"/>
<stop offset="0.101807" stop-color="#BEBEBE"/>
<stop offset="0.211525" stop-color="#BEBEBE"/>
<stop offset="0.549206" stop-color="#B4B4B4"/>
<stop offset="0.673505" stop-color="#878787"/>
<stop offset="0.778718" stop-color="#969696"/>
<stop offset="1" stop-color="#AAAAAA"/>
</linearGradient>
<linearGradient id="paint29_linear_655_4901" x1="35.3249" y1="29.433" x2="44.6129" y2="21.1619" gradientUnits="userSpaceOnUse">
<stop stop-color="#E6E6E6"/>
<stop offset="1" stop-color="#FAFAFA" stop-opacity="0"/>
</linearGradient>
<linearGradient id="paint30_linear_655_4901" x1="78.1368" y1="29.8919" x2="66.6692" y2="33.9198" gradientUnits="userSpaceOnUse">
<stop stop-color="#FAFAFA"/>
<stop offset="0.25" stop-color="#FAFAFA" stop-opacity="0.901961"/>
<stop offset="0.5" stop-color="#E1E1E1" stop-opacity="0.498039"/>
<stop offset="1" stop-color="#C8C8C8" stop-opacity="0"/>
</linearGradient>
<linearGradient id="paint31_linear_655_4901" x1="68.5835" y1="5.13416" x2="70.8953" y2="6.79635" gradientUnits="userSpaceOnUse">
<stop stop-color="#FAFAFA"/>
<stop offset="0.25" stop-color="#EDEDED" stop-opacity="0.74902"/>
<stop offset="0.5" stop-color="#E1E1E1" stop-opacity="0.498039"/>
<stop offset="1" stop-color="#C8C8C8" stop-opacity="0"/>
</linearGradient>
<linearGradient id="paint32_linear_655_4901" x1="56.8458" y1="28.387" x2="78.1607" y2="5.81707" gradientUnits="userSpaceOnUse">
<stop stop-color="#969696"/>
<stop offset="0.132623" stop-color="#C0BEBE"/>
<stop offset="0.5" stop-color="#B4B4B4"/>
<stop offset="1" stop-color="#BEBEBE"/>
</linearGradient>
<linearGradient id="paint33_linear_655_4901" x1="68.2255" y1="6.32522" x2="72.9175" y2="7.25252" gradientUnits="userSpaceOnUse">
<stop stop-opacity="0"/>
<stop offset="0.109171" stop-color="#323232" stop-opacity="0.94902"/>
<stop offset="0.218341" stop-color="#323232" stop-opacity="0.901961"/>
<stop offset="0.506057" stop-color="#E1E1E1" stop-opacity="0.498039"/>
<stop offset="1" stop-color="#C8C8C8" stop-opacity="0"/>
</linearGradient>
<linearGradient id="paint34_linear_655_4901" x1="77.5146" y1="29.8929" x2="77.4924" y2="31.2973" gradientUnits="userSpaceOnUse">
<stop stop-color="#FAFAFA"/>
<stop offset="0.5" stop-color="#FAFAFA" stop-opacity="0.901961"/>
<stop offset="0.697845" stop-color="#E1E1E1" stop-opacity="0.498039"/>
<stop offset="1" stop-color="#C8C8C8" stop-opacity="0"/>
</linearGradient>
<radialGradient id="paint35_radial_655_4901" cx="0" cy="0" r="1" gradientUnits="userSpaceOnUse" gradientTransform="translate(59.4328 13.4723) rotate(76.424) scale(11.0454 14.3444)">
<stop stop-color="#DCDCDC" stop-opacity="0.901961"/>
<stop offset="0.752174" stop-color="#E1E1E1" stop-opacity="0.45098"/>
<stop offset="1" stop-color="#C8C8C8" stop-opacity="0"/>
</radialGradient>
</defs>
</svg>
