<svg width="120" height="56" viewBox="0 0 120 56" fill="none" xmlns="http://www.w3.org/2000/svg">
<path fill-rule="evenodd" clip-rule="evenodd" d="M64.1586 2.07494L64.1957 2.11203L64.2328 2.14912L64.2699 2.18622H64.3069H64.3811H64.4182H64.4924H64.5295H64.6408H64.7521H64.8633H64.9746L65.4939 2.33459L66.0132 2.48296L66.5325 2.63133L67.0518 2.7797L67.5711 2.96517L68.0904 3.15063L68.3501 3.22482L68.6097 3.3361L68.8694 3.44738L69.1291 3.55866L69.3887 3.66994L69.6484 3.78122L69.908 3.8925L70.1677 4.00378L70.4273 4.11506L70.6499 4.22634L70.9095 4.33762L71.1321 4.44889L71.3546 4.56017L71.5772 4.67145L71.7998 4.78273L72.0223 4.89401L72.2449 5.00529L72.4674 5.15366L72.69 5.30203L72.9125 5.45041L72.9867 5.4875L73.0609 5.52459L73.1351 5.56168L73.2093 5.59878L73.2835 5.63587L73.3577 5.67296L73.4318 5.71006L73.506 5.74715L73.6544 5.85843L73.8028 5.96971L73.877 6.00681L73.9512 6.0439L74.0253 6.08099L74.0995 6.11808L74.2108 6.19227L74.3221 6.26646L74.4334 6.34064L74.5446 6.41483L74.6559 6.48901L74.7672 6.60029L74.8414 6.63739L74.9156 6.67448L74.9898 6.74867L75.0639 6.82285L75.2123 6.93413L75.3607 7.04541L75.5091 7.15669L75.6574 7.26797L75.8058 7.37925L75.9542 7.49053L76.1026 7.6018L76.2509 7.71308L78.1056 9.41937V9.45646V9.49355V9.53065V9.56774L78.1427 9.60483L78.1798 9.64192L78.2169 9.67902L78.2539 9.71611L78.291 9.7532L78.3281 9.7903L78.4023 9.86448L78.4765 9.93867L78.5136 9.97576L78.5507 10.0129V10.0499V10.087V10.1241L78.6249 10.1612L78.662 10.1983L78.6991 10.2354L78.7362 10.2725L78.8103 10.3467L78.8845 10.458L78.9587 10.5692L79.0329 10.6434L79.07 10.6805L79.1071 10.7176L79.1442 10.7547L79.2184 10.7918L79.2555 10.866L79.2926 10.9402L79.3296 11.0144L79.3667 11.0886L79.4038 11.1627L79.4409 11.2369L79.478 11.3482L79.5151 11.4224H79.5522L79.5893 11.4595L79.6264 11.4966L79.6635 11.5337L79.7006 11.6079L79.7377 11.682L79.8119 11.8304L79.886 11.9788L80.0715 12.1272L80.257 12.4239L80.4053 12.7206L80.5537 13.0174L80.7021 13.3512L80.8505 13.6851L80.9988 14.0189L81.1101 14.3527L81.2214 14.6866L81.3327 15.0204L81.444 15.3543L81.5181 15.6881L81.5923 16.0219L81.6665 16.3929L81.7407 16.7638L81.7778 17.1347L81.8149 17.5057L81.852 17.8766L81.8891 18.2475V18.6185V18.9894V19.3603V19.7312L81.852 20.1022L81.8149 20.4731L81.7778 20.844L81.7407 21.215L81.6665 21.5859L81.5923 21.9568L81.5181 22.3278L81.444 22.6987L81.2214 22.8471L81.1101 23.1809L81.0359 23.4035L80.9617 23.626L80.8876 23.8486L80.8134 24.0711L80.7392 24.2937L80.665 24.5162L80.5537 24.7388L80.4424 24.9614L80.3312 25.1839L80.2199 25.4065L80.1086 25.629L79.9973 25.8516L79.886 26.0371L79.7748 26.2225L79.6635 26.408L79.5151 26.5935L79.3667 26.7789L79.2184 26.9644L79.07 27.1499L78.9216 27.3353L78.7733 27.5208L78.6249 27.7063L78.4765 27.8917L78.3281 28.0772L78.1798 28.2627L77.9943 28.4481L77.8088 28.6336L77.6234 28.819L77.4379 29.0045L77.2524 29.19L77.067 29.3754L76.8815 29.5609H76.8073L76.696 29.6722L76.5848 29.7835L76.5477 29.8577L76.5106 29.9318L76.4735 30.006L76.4364 30.0431L76.3622 30.0802L76.288 30.1173L76.2138 30.1544L76.1396 30.1915L76.0655 30.2286L75.9913 30.2657L75.9171 30.3028L75.8429 30.3399L75.8058 30.414L75.7687 30.4511L75.7316 30.4882L75.6945 30.5253L75.6574 30.5624L75.6203 30.5995L75.5832 30.6366L75.5462 30.6737L75.4349 30.7479L75.3236 30.8221L75.2865 30.8592L75.2494 30.8963L75.2123 30.9333L75.1752 31.0075H75.1381H75.101H75.0639L75.0268 31.0446L74.9898 31.0817L74.9527 31.1559L74.9156 31.193L74.8785 31.2301L74.8414 31.2672L74.8043 31.3043L74.7672 31.3414H74.7301H74.693H74.6559L74.5817 31.4156L74.5075 31.4897L74.4334 31.5639L74.3592 31.6381L74.1737 31.7494L73.9882 31.8607L73.8028 31.972L73.6173 32.0832L73.5431 32.1574L73.4689 32.2316L73.3948 32.3058L73.3206 32.38L73.2464 32.4171L73.1722 32.4542L73.098 32.4913L73.0238 32.5284L72.9125 32.6025L72.8013 32.6767L72.69 32.7509L72.5787 32.8251L72.5045 32.8622L72.4303 32.8993L72.3562 32.9364L72.282 32.9735L72.0965 33.1218L71.8369 33.2331L71.5772 33.3444L71.3175 33.4557L71.0579 33.567L70.7982 33.6782L70.5386 33.7895L70.2789 33.9008L70.0193 34.0121L69.7596 34.1234L69.5 34.2346L69.2403 34.3459L68.9807 34.4572L68.721 34.5685L68.4614 34.6427L68.1646 34.7168L67.8679 34.791L67.7566 34.8652L67.6453 34.9023L67.5341 34.9394L67.4228 34.9765L67.3115 35.0136L67.2002 35.0507L67.0889 35.0878L66.9777 35.1249L66.8664 35.162L66.7551 35.1991L66.6438 35.2361L66.5325 35.2732L66.4213 35.3103L66.31 35.3474H66.2729H66.2358H66.1987H66.1616L66.0874 35.3845L66.0132 35.4216L65.939 35.4587L65.8649 35.4958L65.7907 35.5329H65.7165H65.6423H65.5681H65.4939H65.4197H65.3456L65.2714 35.57L65.1972 35.6071L65.123 35.6442L65.0488 35.6813L64.9746 35.7184L64.6779 35.7925L64.3811 35.8667L64.0844 35.9409L63.7876 35.8296L63.4909 35.9038L63.1571 35.9409L62.8603 35.978L62.5265 36.0151L62.1927 36.0522L61.8588 36.0893L61.525 36.1264L61.1911 36.1635L60.8573 36.2006L60.5235 36.2377L60.1896 36.2748L59.8558 36.3118H59.5219H59.1881H58.8543H58.5204H58.1866H57.8528H57.5189H57.1851H56.8512H56.5174H56.1836H55.8497L55.5159 36.2748L55.1821 36.2377L54.8482 36.2006L54.5144 36.1635L53.9951 36.0893L53.4758 36.0151L52.9565 35.9409L52.4372 35.8667L51.9179 35.7925L51.3986 35.6813L50.9163 35.57L50.4341 35.4587L49.9519 35.3474L49.4697 35.2361L48.9875 35.0878L48.5053 34.9394L48.0231 34.791L47.5409 34.6427L47.0587 34.4943L46.5765 34.3459L46.4652 34.2717L46.3539 34.1975L46.2055 34.1234L46.0572 34.0492L45.983 34.0121L45.9088 33.975L45.8346 33.9379L45.7604 33.9008H45.6862H45.612H45.5378H45.4637L45.3153 33.7895L45.1669 33.6782L45.0185 33.567L44.8331 33.4557L44.7589 33.4186L44.6847 33.3815L44.6105 33.3444L44.5363 33.3073L44.4622 33.2702L44.388 33.2331L44.2767 33.196L44.1654 33.1589L43.7574 32.9364L43.3494 32.7138L42.9413 32.4913L42.5333 32.2316L42.1253 31.972L41.7173 31.7123L41.5318 31.5639L41.3463 31.4156L41.1609 31.2672L40.9754 31.1188L40.7899 30.9704L40.6045 30.8221L40.419 30.6737L40.2335 30.5253L40.0481 30.377L39.8626 30.2286L39.6771 30.0802L39.4917 29.9318L39.3062 29.7835L39.1208 29.6351L38.9353 29.4867L38.7498 29.3383L38.5644 29.1529L38.3789 28.9674L38.1934 28.782L38.008 28.5965V28.5594L37.9709 28.5223L37.9338 28.4852L37.8967 28.4481L37.8225 28.3739L37.7112 28.2997L37.5999 28.2256L37.4887 28.1143L37.4516 28.0772L37.4145 28.0401L37.3774 27.9659L37.3403 27.8917L37.2661 27.8546L37.229 27.8175L37.1919 27.7804L37.1548 27.7434L37.0806 27.6321L37.0064 27.5208L37.0806 27.6692L37.0435 27.595L37.0064 27.5579L36.9694 27.5208L36.9323 27.4837L36.8581 27.4466L36.7839 27.4095L36.7097 27.3724L36.6726 27.2982L36.6355 27.187L36.5984 27.0757L36.5613 27.0015L36.4871 26.8902L36.413 26.816L36.3388 26.7047L36.2646 26.5935H36.2275L36.1904 26.5564L36.1533 26.5193V26.4822L36.1162 26.408L36.0791 26.3338V26.2967V26.2596V26.2225L36.042 26.1854L36.0049 26.1483L35.9678 26.1112V26.1854H35.9307V26.1112V26.0371V26L35.8936 25.9629L35.8566 25.9258L35.8195 25.8887L35.7824 25.8516L35.7453 25.8145L35.6711 25.7032L35.5969 25.5919L35.5598 25.5178L35.5227 25.4436L35.4856 25.3694V25.2952L35.4114 25.221L35.2631 24.9243L35.1147 24.6275L34.9663 24.3308L34.855 23.9599L34.7438 23.626L34.6325 23.2922L34.5212 22.9583L34.4099 22.6245L34.3357 22.2907L34.2616 21.9568L34.1874 21.623L34.1132 21.2891L34.039 20.9553L34.0019 20.6215L33.9648 20.2876L33.9277 19.9538L33.8906 19.62V19.2861V18.9523V18.5814V18.2475V17.9137L33.9277 17.5798L33.9648 17.246L34.0019 16.9122L34.039 16.5783L34.1132 16.2445L34.1874 15.9107L34.2616 15.5768L34.3357 15.243L34.447 14.9091L34.5583 14.5753L34.6325 14.3527L34.7067 14.1302L34.7809 13.9076L34.8921 13.6851L35.0034 13.4625L35.1147 13.24L35.226 13.0174L35.3373 12.7948L35.4485 12.5723L35.5598 12.3497L35.6711 12.1272L35.7824 11.9046L35.9307 11.682L36.0791 11.4595L36.2275 11.2369L36.3759 11.0144L36.5242 10.8289L36.6726 10.6434L36.821 10.458L36.9694 10.2725L37.1177 10.087L37.2661 9.90158L37.4516 9.71611L37.637 9.53065L37.8225 9.34518L38.008 9.15972L38.1934 8.97425L38.3789 8.78879L38.5644 8.60332L38.7498 8.41786L38.9353 8.23239L39.1208 8.04692L39.1949 8.00983L39.2691 7.97273L39.3062 7.93564L39.3433 7.89855L39.3804 7.86146L39.4175 7.82436L39.4546 7.78727L39.4917 7.75018L39.5659 7.67599L39.6401 7.6018L39.6771 7.56471L39.7142 7.52762L39.7513 7.49053L39.7884 7.45343L39.8255 7.37925L39.8626 7.34215L39.8997 7.30506L39.9368 7.26797L40.0481 7.19378L40.1594 7.1196L40.2706 7.04541L40.3819 6.97122L40.419 6.93413L40.4561 6.89704L40.4932 6.85994L40.5303 6.82285L40.6416 6.74867L40.7528 6.67448L40.8641 6.60029L40.9754 6.5632L41.0867 6.52611L41.198 6.48901L41.3092 6.45192L41.4205 6.41483L41.4576 6.37774L41.4947 6.34064L41.5318 6.30355L41.5689 6.26646L41.6431 6.19227L41.7544 6.11808L41.8656 6.0439L41.9398 5.96971L41.9769 5.93261L42.014 5.89553L42.0511 5.85843L42.0882 5.82134H42.1624L42.2366 5.78424L42.3108 5.74715L42.3849 5.71006L42.4962 5.63587L42.6075 5.56168L42.7188 5.4875L42.8301 5.41331L42.9043 5.37622L42.9784 5.33913L43.0526 5.30203H43.1268L43.1639 5.26494L43.201 5.22785L43.2381 5.19075L43.2752 5.15366L43.3865 5.07948L43.4977 5.00529L43.609 4.9682L43.7203 4.9311L43.8316 4.89401L43.9429 4.81982L44.2025 4.70855L44.4622 4.59727L44.7218 4.48599L44.9815 4.37471L45.2411 4.26343L45.5008 4.15215L45.7604 4.04087L46.0201 3.92959V3.8925V3.85541V3.81831H46.0572H46.0942H46.1684H46.2797L46.5765 3.66994L46.8732 3.52156L47.17 3.41029L47.4667 3.29901L47.7634 3.18773L48.0973 3.07645L48.4311 2.96517L48.765 2.85389L49.0988 2.74261L49.4326 2.63133L49.7665 2.52005L50.1003 2.44587L50.4341 2.37168L50.768 2.2975L51.1018 2.22331L51.4357 2.14912L51.4727 2.11203H51.5098H51.5469H51.584H51.6211H51.6582H51.6953H51.7324H51.8066H51.8808H51.9179H51.955H51.9921H52.0291L52.3259 2.03784L52.6226 1.96366L52.9565 1.88947L53.2903 1.85238L53.6241 1.81529L53.958 1.77819L54.2918 1.7411L54.6257 1.70401L54.9595 1.66691L55.2933 1.62982L55.6272 1.59273L55.961 1.55564L56.2948 1.51854L56.6287 1.48145H56.9625H57.2964H57.6302H57.964H58.2979H58.6317H58.9655H59.2994H59.6332H59.9671L60.3009 1.51854L60.6347 1.55564L60.9686 1.59273L61.3024 1.62982L61.6363 1.66691L61.9701 1.70401L62.3039 1.7411L62.6378 1.77819L62.8603 1.81529L63.0829 1.85238L63.3054 1.88947L63.528 1.92657L63.7135 1.96366L63.936 2.00075L64.1586 2.03784V2.07494ZM66.2729 4.04087L66.4584 4.11506L66.6809 4.18924L66.8664 4.26343L67.0889 4.33762L67.2744 4.4118L67.497 4.48599L67.6824 4.56017L67.905 4.67145L68.0904 4.78273L68.2759 4.89401L68.4985 5.00529L68.6839 5.11657L68.9065 5.22785L69.092 5.33913L69.3145 5.45041L69.5 5.56168L69.6854 5.67296L69.8709 5.78424L70.0564 5.89553L70.2418 6.00681L70.4273 6.11808L70.6128 6.22936L70.7982 6.34064L70.9837 6.45192L71.1692 6.5632L71.3546 6.71157L71.5401 6.85994L71.7256 7.00832L71.911 7.15669L72.0965 7.30506L72.282 7.45343L72.4674 7.6018H72.5416L72.69 7.71308L72.8384 7.86146L72.9867 8.00983L73.1351 8.1582L73.2093 8.23239L73.2835 8.30658L73.3577 8.38076L73.4318 8.45495L73.506 8.52913L73.5431 8.60332L73.5802 8.67751L73.6173 8.75169H70.4273L69.908 9.7532L69.3887 10.7547L68.8694 11.7562L68.3501 12.7577L67.8308 13.7593L67.3115 14.7608L66.7922 15.7623L66.2729 16.7638L65.7536 17.7653L65.2343 18.7668L64.715 19.7683L64.1957 20.7698L63.6764 21.7714L63.1571 22.7729L62.6378 23.7744L62.1185 24.7759L62.1927 24.8501H69.6854L69.7596 24.7759L69.8338 24.7017L69.908 24.6275L69.9822 24.5533L70.0193 24.4792L70.0564 24.3679L70.0935 24.3308L70.1306 24.2937V24.2195V24.1453L70.2047 24.034L70.2789 23.9228L70.3531 23.8115L70.4273 23.7002L70.4644 23.5889L70.5015 23.4776L70.5386 23.3664L70.5757 23.2551L64.0844 23.1809V23.1438V23.1067V23.0696V23.0325V22.9954L64.1215 22.9583L64.1586 22.9213L64.1957 22.8842L64.2328 22.8471H64.2699L64.3811 22.81L64.4924 22.7729H64.5666L64.6408 22.7358L64.6779 22.6987L64.715 22.6616L64.8263 22.5874L64.9375 22.5132L65.0488 22.4761L65.1601 22.439L65.3826 22.3278L65.6052 22.2165L65.8278 22.1052L66.0503 21.9939L66.1616 21.9568L66.2729 21.9197L66.3842 21.8455L66.4954 21.7714V21.7343V21.6972L66.5325 21.6601L66.5696 21.623H66.6067H66.6438H66.6809H66.718H66.7551H66.7922H66.8293H66.8664L66.9035 21.5859L66.9406 21.5488V21.5117V21.4746H67.0148L67.0889 21.4375L67.1631 21.4004L67.2373 21.3633L67.3115 21.3262L67.3857 21.2891L67.4599 21.2521L67.5341 21.215L67.6082 21.1779L67.6824 21.1408L67.7566 21.1037L67.8308 21.0666L67.905 21.0295L67.9792 20.9924L68.0534 20.9553H68.1275L68.2388 20.8811L68.3501 20.8069L68.4614 20.7328L68.5727 20.6586L68.6839 20.5844L68.7952 20.5102L68.8323 20.4731L68.8694 20.436L68.9065 20.3989H68.9436L69.092 20.2876L69.2403 20.1764L69.3887 20.028L69.5371 19.8796L69.8338 19.62L70.1306 19.3603L70.4273 19.1007L70.7241 18.841L70.8724 18.6926L71.0208 18.5443L71.1692 18.3959L71.3175 18.2846V18.2475V18.2104V18.1733L71.3546 18.1362L71.3917 18.0992L71.4288 18.0621L71.4659 18.025L71.503 17.9879L71.5772 17.9137L71.6514 17.8395L71.6885 17.8024L71.7256 17.7653L71.7627 17.7282L71.7998 17.6911L71.8369 17.654L71.8739 17.6169L71.911 17.5798L71.9481 17.5428L71.9852 17.4686L72.0223 17.3944L72.0594 17.3202L72.0965 17.246L72.1336 17.2089L72.1707 17.1718L72.2078 17.1347L72.2449 17.0976L72.3191 17.0234L72.3562 16.9493L72.3932 16.8751L72.4303 16.8009L72.4674 16.7267L72.5045 16.6525L72.5416 16.5783L72.6158 16.5041L72.8013 16.1703L72.9867 15.8365L73.1722 15.5026L73.3577 15.1688L73.5431 14.835L73.7286 14.5011L73.9141 14.1673L74.0995 13.8334L74.285 13.4996L74.4705 13.1658L74.6559 12.8319L74.8414 12.4981L75.0268 12.1643L75.2123 11.8304L75.3978 11.4966L75.5832 11.1627H75.6203H75.6574H75.6945H75.7316L75.8058 11.2369L75.8429 11.3111L75.88 11.3853L75.9171 11.4595L75.9913 11.5708L76.0655 11.682L76.2138 11.9417L76.3622 12.2013L76.5106 12.461L76.659 12.7206L76.8073 12.9803L76.9557 13.24L77.0299 13.3883L77.1041 13.5367L77.1783 13.6851L77.2524 13.8334L77.4008 14.2044L77.5492 14.6124L77.6976 15.0204L77.8088 15.4284L77.9201 15.8365L77.9943 16.2445L78.0685 16.6525L78.1427 17.0605L78.1798 17.4686L78.2169 17.8766L78.2539 18.2846V18.7297V19.1748V19.62L78.2169 20.028L78.1798 20.436L78.1427 20.844L78.0685 21.2521L77.9943 21.6601L77.9201 22.0681L77.8088 22.4761L77.6976 22.8842L77.5863 23.2922L77.4379 23.7002L77.2895 24.1082L77.1412 24.4792L76.9557 24.8501L76.7702 25.221L76.5848 25.5919L76.3622 25.9629L76.1396 26.2967L75.9171 26.6306L75.88 26.6676L75.8429 26.7047L75.8058 26.7418L75.7687 26.7789L75.6945 26.8902L75.6203 27.0015L75.5832 27.0386L75.5462 27.0757L75.5091 27.1128L75.472 27.1499L75.4349 27.187L75.3978 27.224L75.3236 27.2611L75.2494 27.2982V27.3353V27.3724V27.4095V27.4466L75.2123 27.4837L75.1752 27.5208L75.1381 27.5579L75.101 27.595L75.0639 27.6321L75.0268 27.6692L74.9898 27.7063V27.7434V27.7804V27.8175L74.8785 28.003L74.7301 28.1514L74.5817 28.2997L74.4334 28.4481L74.285 28.5965L74.1366 28.7449L73.9882 28.8932L73.8399 29.0416L73.6915 29.19L73.5431 29.3383L73.3948 29.4867L73.2464 29.6351L72.9496 29.9318L72.6158 30.1915H72.5787L72.5416 30.2286L72.5045 30.2657L72.4674 30.3028L72.3932 30.377L72.3191 30.4511L72.2449 30.5253L72.1707 30.5995L72.1336 30.6366L72.0965 30.6737L72.0594 30.7108H72.0223L71.9852 30.7479L71.9481 30.785L71.911 30.8221L71.8739 30.8592L71.7627 30.9333L71.6885 30.9704L71.6514 31.0075L71.6143 31.0446L71.5772 31.0817L71.5401 31.1188L71.503 31.1559L71.4659 31.193L71.4288 31.2301L71.3917 31.3043L71.2805 31.3414L71.1692 31.3785L71.0579 31.4156L70.9466 31.4527L70.8353 31.4897L70.7241 31.5639L70.6128 31.6381L70.5015 31.7123L70.4644 31.7494L70.316 31.8607L70.1677 31.9349L70.0193 32.0461L69.8709 32.1574L69.7225 32.2316L69.5742 32.3429L69.4258 32.4171L69.3145 32.4542L69.2032 32.4913L69.1291 32.5284L69.0549 32.5655L68.9807 32.6025L68.9065 32.6396L68.8694 32.6767L68.8323 32.7138L68.7952 32.7509L68.7581 32.788L68.4985 32.8993L68.2388 33.0106L67.9792 33.1218L67.7195 33.2331L67.4599 33.3444L67.2373 33.4557L67.0148 33.567L66.7922 33.6782H66.7551H66.718H66.6809H66.6438H66.6067H66.5696L66.5325 33.7153L66.4954 33.7524H66.4584H66.4213H66.3842H66.3471H66.31H66.2729H66.1987L66.1245 33.7895L66.0503 33.8266L65.9761 33.8637L65.902 33.9008L65.8278 33.975L65.7165 34.0121L65.6052 34.0492L65.4939 34.0863L65.3826 34.1234L65.2714 34.1605L65.1601 34.1975L65.0488 34.2346L64.9375 34.2717L64.4553 34.4201L63.9731 34.5314L63.4909 34.6427L63.0087 34.7539L62.4894 34.8652L61.9701 34.9394L61.4508 35.0136L60.9315 35.0878L60.4122 35.1249L59.8929 35.162L59.3736 35.1991L58.8543 35.2361H58.335H57.8157H57.2964H56.7771L56.2578 35.1991L55.7384 35.162L55.2191 35.1249L54.6998 35.0507L54.1805 34.9765L53.6612 34.9023L53.1419 34.8281L52.6226 34.7168L52.1033 34.6056L51.6211 34.4943L51.1389 34.3459L50.6567 34.1975L50.1745 34.0492L49.6923 33.9008L49.2472 33.7153L48.802 33.5299L48.6908 33.4557L48.5424 33.3815L48.394 33.3444L48.2457 33.3073L47.9489 33.196L47.6522 33.0848L47.5038 33.0106L47.3554 32.9364L47.207 32.8622L47.0587 32.788L46.9103 32.7138L46.7619 32.6396L46.6877 32.6025L46.6136 32.5655L46.5394 32.5284L46.4652 32.4913H46.391L46.3168 32.4542L46.2426 32.4171L46.1684 32.38L46.0942 32.3429L46.0201 32.3058L45.9459 32.2687L45.8717 32.2316L45.7233 32.1574L45.5749 32.0832L45.5008 32.0461L45.4266 32.0091L45.3524 31.972L45.2782 31.9349L45.2411 31.8607L45.204 31.8236L45.1669 31.7865L45.1298 31.7494L45.0927 31.7123L45.0185 31.6752L44.9815 31.6381L44.9073 31.601L44.8702 31.5639L44.796 31.5268L44.7589 31.4897L44.6847 31.4527L44.6476 31.4156L44.6105 31.3785L44.5734 31.3414L44.5363 31.2672H44.4992H44.4622H44.4251H44.388L44.3509 31.2301L44.3138 31.193L44.2767 31.1559L44.2396 31.1188H44.2025H44.1654H44.1283H44.0912L44.0541 31.0446L44.017 31.0075L43.9799 30.9704L43.9429 30.9333L43.8316 30.8592L43.7203 30.785L43.6832 30.7479L43.6461 30.7108L43.3865 30.6366L43.3494 30.5995L43.3123 30.5624L43.2752 30.5253L43.2381 30.4882L43.201 30.414L43.1268 30.377L43.0526 30.3399L42.9784 30.3028L42.9043 30.2657L42.8301 30.2286L42.793 30.1915L42.7559 30.1544L42.7188 30.1173L42.6446 30.006L42.5704 29.8947L42.4962 29.7835L42.422 29.6722V29.598L50.1745 29.5238L50.2116 29.4867L50.2487 29.4496L50.2858 29.4125L50.3229 29.3754L50.3599 29.3383V29.3013V29.2642V29.2271L50.397 29.1529L50.4341 29.0787V29.0416V29.0045L50.4712 28.9674L50.5083 28.9303L50.6196 28.7078L50.7309 28.4852L50.8422 28.2627L50.9534 28.0401L51.0647 27.8175L51.176 27.5579L51.2131 27.4466L51.2502 27.2982L51.2873 27.1499L51.3244 27.0015L41.7173 26.9273V26.8902L41.7544 26.8531V26.816L41.7915 26.7789L41.8285 26.7418L41.8656 26.7047L41.9027 26.6676L41.9769 26.6306L42.0511 26.5935H42.1253L42.2737 26.5564L42.422 26.5193H42.4962L42.5704 26.4822L42.6446 26.4451L42.7188 26.408L43.0155 26.2967L43.3123 26.1854L43.609 26.0742L43.9058 25.9629L44.2025 25.8145L44.4992 25.6661L44.796 25.5178L45.0927 25.3694L45.3895 25.221L45.6862 25.0726L45.9459 24.9243L46.2426 24.7759L46.5394 24.6275L46.799 24.4792L47.0958 24.3308L47.3925 24.1824L47.5409 24.0711L47.6893 23.9599L47.8376 23.8486L47.986 23.7373L48.0602 23.7002L48.1344 23.6631L48.2086 23.626L48.2827 23.5889L48.3569 23.5518L48.4311 23.5147L48.5053 23.4776L48.5795 23.4406L48.6166 23.3664L48.6537 23.3293L48.6908 23.2922L48.7279 23.2551L48.765 23.218L48.802 23.1809L48.8391 23.1438L48.8762 23.1067L48.9875 23.0696L49.0617 22.9954L49.0988 22.9583L49.1359 22.9213L49.173 22.8842L49.2101 22.8471H49.2472L49.2843 22.81L49.3213 22.7729L49.3584 22.7358L49.4326 22.6616L49.5068 22.5874L49.581 22.5132L49.6552 22.439L49.6923 22.4019H49.7294H49.7665H49.8036L51.9921 20.2876V20.2505V20.2135V20.1764V20.1393L52.0291 20.1022L52.0662 20.0651L52.1033 20.028L52.1404 19.9909L52.1775 19.9538L52.2146 19.9167L52.2517 19.8796L52.2888 19.8425L52.3259 19.8054L52.363 19.7683L52.4001 19.7312L52.4372 19.6941V19.6571V19.62V19.5829V19.5458L52.5855 19.3603L52.7339 19.1748L52.8823 18.9894L53.0307 18.8039L53.179 18.6185L53.3274 18.433L53.4758 18.2475L53.6241 18.0621L53.7725 17.8766L53.8838 17.6911L53.9951 17.5057L54.1064 17.3202L54.2176 17.1347L54.3289 16.9493L54.4402 16.7638L54.5515 16.5783L54.7369 16.5041L54.8482 16.2445L54.9595 15.9848L55.0708 15.7252L55.1821 15.4655L55.2933 15.2059L55.4046 14.9462L55.5159 14.6866L55.6272 14.4269L55.7384 14.1673L55.8868 13.9076L56.0352 13.648L56.1836 13.3883L56.3319 13.1287L56.4803 12.869L56.6287 12.6094L56.7771 12.3497L56.8883 12.1272L56.9996 11.9046L57.1109 11.682L57.2222 11.4595L57.3335 11.2369L57.4447 11.0144L57.556 10.7918L57.6673 10.5692L57.7786 10.3467L57.8899 10.1241L58.0011 9.90158L58.1124 9.67902L58.2237 9.45646L58.335 9.2339L58.4462 9.01134L58.5575 8.78879L58.6317 8.7146L58.5575 8.64041H49.6923L49.0988 9.7903L48.5053 10.9402L47.9118 12.0901L47.3183 13.24L46.7248 14.3898L46.1313 15.5397L45.5378 16.6896L44.9444 17.8395L44.3509 18.9894L43.7574 20.1393L43.1639 21.2891L42.5704 22.439L41.9769 23.5889L41.3834 24.7388L40.7899 25.8887L40.1964 27.0386H40.1594H40.1223H40.0852H40.0481H40.011H39.9739H39.9368L39.8997 27.0015L39.8626 26.9644L39.8255 26.9273L39.7884 26.8531L39.7513 26.7789L39.7142 26.7418L39.6771 26.7047H39.6401H39.603H39.5659L39.5288 26.6306L39.4917 26.5564L39.4546 26.4822L39.4175 26.408L39.3804 26.3338L39.3433 26.2596L39.3062 26.1854L39.2691 26.1112L39.232 26.0742L39.1949 26.0371L39.1578 26L39.1208 25.9629L39.0837 25.8887L39.0466 25.8145V25.7774V25.7403L39.0095 25.7032L38.9724 25.6661L38.9353 25.629L38.8982 25.5919L38.8611 25.5549L38.824 25.5178L38.7869 25.3694L38.7127 25.221L38.6385 25.0726L38.5644 24.9614L38.416 24.7017L38.2676 24.4792L38.1934 24.3679L38.1192 24.2566L38.0451 24.1453L37.9709 24.034L37.8967 23.9228L37.8596 23.8115L37.8225 23.7002L37.7854 23.5889L37.7112 23.4406L37.637 23.2922L37.5628 23.1438L37.4887 22.9954L37.4516 22.81L37.4145 22.6245L37.3774 22.439L37.3403 22.2536L37.229 21.9197L37.1548 21.5859L37.0806 21.2521L37.0064 20.9182L36.9694 20.6957L36.9323 20.4731L36.8952 20.2505L36.8581 20.028L36.821 19.8054V19.5829V19.3603V19.1378V18.9152V18.6926V18.4701V18.2475V18.025V17.8024L36.8581 17.5798L36.8952 17.3573L36.9323 17.1347L36.9694 16.9122L37.0064 16.6896L37.0435 16.467L37.0806 16.2445L37.1177 16.0219L37.1548 15.7994L37.1919 15.6139L37.2661 15.2059L37.3774 14.7979L37.4887 14.3898L37.5999 14.0189L37.637 13.9818L37.6741 13.9447L37.7112 13.9076L37.7483 13.8705L37.7854 13.7593L37.8225 13.648L37.8596 13.6109L37.8967 13.5738L37.9338 13.5367L37.9709 13.4996L38.008 13.4625L38.0451 13.4254L38.0821 13.3883L38.1192 13.3512L38.1934 13.1658L38.2676 12.9803L38.3418 12.7948L38.416 12.6094L38.4902 12.4239L38.5644 12.2384L38.6756 12.053L38.7869 11.9046L38.9724 11.5708L39.1578 11.2369L39.3433 10.9031L39.5288 10.5692L39.603 10.5322L39.6401 10.4951L39.6771 10.458L39.7142 10.4209L39.7513 10.3838L39.7884 10.3467L39.8255 10.3096L39.8626 10.2725L39.8997 10.2354L39.9368 10.1983L39.9739 10.1612L40.011 10.1241L40.0481 10.087L40.0852 10.0499L40.1223 10.0129L40.1964 9.97576V9.93867V9.90158V9.86448L40.2335 9.82739L40.2706 9.7903L40.3077 9.7532L40.3448 9.71611L40.3819 9.67902L40.419 9.64192L40.4561 9.60483L40.4932 9.56774L40.5303 9.53065L40.5674 9.49355V9.45646V9.41937V9.38227L40.6787 9.27099L40.7899 9.15972L40.9012 9.04844L41.0125 8.93716L41.198 8.7146L41.3834 8.49204L41.4947 8.38076L41.606 8.26948L41.7173 8.1582L41.8285 8.04692L41.8656 8.00983L41.9027 7.97273L41.9769 7.93564L42.014 7.89855L42.0882 7.86146L42.1624 7.82436L42.2366 7.78727L42.3108 7.75018L42.3849 7.67599L42.4591 7.6018L42.5333 7.52762L42.6075 7.45343L42.6817 7.37925L42.7559 7.30506L42.8301 7.23087L42.9043 7.15669L43.0526 7.04541L43.201 6.93413L43.2752 6.85994L43.3494 6.78576L43.4236 6.71157L43.4977 6.63739L43.609 6.5632L43.7203 6.48901L43.8316 6.41483L43.9429 6.34064L44.0541 6.26646L44.1654 6.19227L44.2767 6.11808L44.388 6.0439L44.4251 6.00681L44.4622 5.96971L44.4992 5.93261L44.5363 5.89553L44.5734 5.85843L44.6105 5.82134L44.6476 5.78424H44.6847L44.7589 5.74715L44.8331 5.71006L44.8702 5.67296L44.9073 5.63587L44.9444 5.59878L44.9815 5.56168L45.0556 5.4875L45.1298 5.45041L45.204 5.41331L45.2782 5.37622L45.3895 5.30203L45.5008 5.22785L45.7233 5.07948L45.9459 4.9311L46.1684 4.81982L46.391 4.70855L46.6136 4.59727L46.8361 4.48599L47.0587 4.37471L47.2812 4.26343L47.5038 4.15215L47.7264 4.04087L47.9489 3.92959L48.1715 3.81831L48.394 3.70703L48.6166 3.59576L48.8391 3.48447L49.0617 3.37319L49.2843 3.29901L49.5068 3.22482L49.7294 3.15063L49.9148 3.07645L50.1374 3.00226L50.3599 2.92808L50.5825 2.85389L50.8051 2.7797L50.8793 2.74261L50.9534 2.70552L51.0276 2.66843L51.1018 2.63133L51.2502 2.59424L51.3986 2.55715L51.5469 2.52005L51.6953 2.48296L51.7695 2.44587L51.8437 2.40877L51.9179 2.37168L51.9921 2.33459L52.2146 2.2975L52.4372 2.2604L52.6597 2.22331L52.8823 2.18622L53.1419 2.14912L53.4016 2.11203L53.6612 2.07494L53.9209 2.03784L54.1805 2.00075L54.4402 1.96366L54.6998 1.92657L54.9595 1.88947L55.2191 1.85238L55.4788 1.81529H55.7384H55.9981H56.2578H56.5174H56.7771H57.0367H57.556H58.0753H58.5946H59.1139L59.6332 1.85238L60.1525 1.88947L60.5605 1.92657L60.9686 1.96366L61.3766 2.00075L61.7846 2.03784L62.1927 2.11203L62.6007 2.18622L63.0087 2.2604L63.3796 2.33459L63.7506 2.40877L64.1215 2.48296L64.4924 2.59424L64.8633 2.70552L65.2343 2.8168L65.6052 2.92808L65.9761 3.03936L66.2729 4.04087ZM68.2017 8.7146L68.0163 9.12262L67.8308 9.53065L67.6453 9.97576L67.4599 10.3838L67.2744 10.7918L67.0889 11.1998L66.9035 11.645L66.718 12.053L66.5325 12.461L66.3471 12.869L66.1616 13.3141L65.9761 13.7222L65.7907 14.1302L65.6052 14.5753L65.4197 14.9833L65.2343 15.3913L65.123 15.5026L65.0488 15.6139L64.9746 15.7252L64.9004 15.8365L64.8263 15.9477L64.7521 16.059L64.6779 16.1703L64.6037 16.2816L64.5295 16.3929L64.4553 16.5041L64.3811 16.6154L64.3069 16.7267L64.1586 16.9493L64.0102 17.1718L63.936 17.2831L63.8618 17.3944L63.7876 17.5057L63.7135 17.6169L63.6393 17.7282L63.4167 18.025L63.3425 18.1362L63.2313 18.2475V18.2846V18.3217V18.3588V18.3959L63.1942 18.433L63.1571 18.4701L63.12 18.5072L63.0829 18.5443L63.0458 18.5814V18.6185V18.6555V18.6926V18.7297V18.7668L62.9345 18.8781L62.8232 18.9894L62.7861 19.0265L62.749 19.0636L62.712 19.1007L62.6749 19.1378V19.1748V19.2119L62.4152 19.5087L62.1556 19.7683L61.8959 20.028L61.6363 20.2876L61.3766 20.5473L61.1169 20.8069L60.8573 21.0666L60.5605 21.3633H60.5235H60.4864H60.4493L60.4122 21.4004L60.3751 21.4375L60.338 21.4746L60.3009 21.5117L60.2638 21.5488L60.2267 21.623L60.1896 21.6601L60.1525 21.6972H60.1154H60.0783H60.0412L60.0042 21.7343L59.9671 21.7714L59.93 21.8085L59.8929 21.8455L59.7816 21.9197L59.6703 21.9568L59.6332 21.9939L59.5961 22.031L59.559 22.0681L59.5219 22.1052L59.4848 22.1423L59.4478 22.1794L59.4107 22.2165L59.3736 22.2907L59.2623 22.3278L59.151 22.3649L59.0397 22.4019L58.9285 22.439L58.8172 22.4761L58.7059 22.5503L58.5946 22.6245L58.4833 22.6987V22.7358L58.4462 22.7729L58.4092 22.81L58.3721 22.8471L58.2979 22.8842L58.2237 22.9213L58.1495 22.9583L58.0753 22.9954L58.0382 23.0325L58.0011 23.0696L57.964 23.1067L57.9269 23.1438L57.7044 23.2551L57.4818 23.3664L57.2593 23.4776L57.0367 23.5889L56.8142 23.7002L56.5916 23.8115L56.4803 23.8486L56.369 23.8857L56.2578 23.9228L56.1465 23.9599L55.9981 24.034L55.8497 24.1082L55.7014 24.1824L55.553 24.2566L55.4046 24.3308L55.2562 24.405L55.1079 24.4792L54.9595 24.5533L54.6627 24.6646L54.366 24.7759L54.0322 24.8872L53.7354 24.9985L53.9209 25.1468H61.933V25.221V25.2952V25.3694V25.4436L61.8959 25.5549L61.8588 25.6661L61.8217 25.7774L61.7846 25.8887L61.7104 26L61.6363 26.1112L61.4879 26.3338L61.3766 26.5564L61.3024 26.6676L61.2282 26.7789L61.154 26.8902L61.1169 27.0015H51.584V26.8531L52.1404 25.7403L52.6968 24.6275L53.2532 23.5147L53.8096 22.4019L54.366 21.2891L54.9224 20.1764L55.4788 19.0636L56.0352 17.9508L56.5916 16.838L57.148 15.7252L57.7044 14.6124L58.2608 13.4996L58.8172 12.3868L59.3736 11.274L59.93 10.1612L60.4864 9.04844H68.2017V8.7146Z" fill="#4D5456"/>
<path fill-rule="evenodd" clip-rule="evenodd" d="M36.0632 41.2512V41.3665V41.4819V41.5973L36.0055 41.7126L35.9479 41.828L35.8902 41.9434L35.8325 42.0587L35.7748 42.1741L35.6594 42.4048L35.5441 42.6355L35.4864 42.7509L35.4287 42.8663L35.371 42.9816L35.3133 43.097L35.0826 43.6738L34.8519 44.2507L34.6211 44.8275L34.3904 45.4043L34.1597 45.9812L33.929 46.558L33.6982 47.1348L33.4675 47.7116L33.2368 48.2885L33.006 48.8653L32.7753 49.4421L32.5446 50.0189L32.3138 50.5958L32.0831 51.1726L31.8524 51.7494L31.6217 52.3262L38.7166 52.4416V52.557L38.6589 52.6723L38.6013 52.7877L38.5436 52.9031L38.4859 53.0184L38.4282 53.1338L38.3705 53.2491L38.3128 53.3645L38.2552 53.4799L38.1975 53.5952L38.1398 53.7106L38.0244 53.826L37.9091 53.9413L37.7937 54.0567L37.6783 54.1721L37.563 54.2874L36.9284 54.5182H26.7186H26.6609H26.6033H26.5456H26.4879H26.4302H26.3725H26.3148H26.2572L26.0841 54.2298L25.9688 54.1144L26.3148 53.3068L26.6609 52.4993L27.007 51.6917L27.3531 50.8842L27.6992 50.0766L28.0453 49.269L28.3914 48.4615L28.7375 47.6539L29.0836 46.8464L29.4297 46.0388L29.7758 45.2313L30.1219 44.4237L30.468 43.6162L30.8141 42.8086L31.1602 42.001L31.5063 41.1935H36.0632V41.2512ZM48.9264 41.3665L48.5803 42.1741L48.2342 42.9816L47.8881 43.7892L47.5421 44.5968L47.196 45.4043L46.8499 46.2119L46.5038 47.0194L46.1577 47.827L45.8116 48.6345L45.4655 49.4421L45.1194 50.2497L44.7733 51.0572L44.4272 51.8648L44.0811 52.6723L43.735 53.4799L43.3889 54.2874H43.1005H42.8121H42.5237H42.2353H41.9468H41.6584H41.37H41.0816H40.7932H40.5048H40.2164H39.9279H39.6395H39.3511H39.0627H38.7743L39.1204 53.4799L39.4665 52.6723L39.8126 51.8648L40.1587 51.0572L40.5048 50.2497L40.8509 49.4421L41.197 48.6345L41.5431 47.827L41.8892 47.0194L42.2353 46.2119L42.5814 45.4043L42.9275 44.5968L43.2735 43.7892L43.6196 42.9816L43.9657 42.1741L44.3118 41.3665H48.9264ZM63.8662 41.4819L63.9239 41.5973V41.655V41.7126V41.828V41.9434L63.8662 42.1164V42.2895L63.8085 42.3471L63.7509 42.4048L63.6932 42.4625L63.6355 42.5202L63.5201 42.6932L63.4048 42.8663L63.3471 42.924L63.2894 42.9816L63.2317 43.0393L63.174 43.097L63.1164 43.1547L63.0587 43.2124L62.9433 43.2701L62.828 43.3277L62.7703 43.3854L62.7126 43.4431L62.6549 43.5008L62.5972 43.5585L62.5395 43.6162L62.4819 43.6738L62.4242 43.7315H62.3665H62.3088H62.2511H62.1934H62.1358H61.9627H61.7897H54.6947L54.637 43.9046L54.5793 44.0776L54.5216 44.2507L54.4063 44.4237L54.2332 44.7698L54.0602 45.1159L53.9448 45.289L53.8295 45.462L53.7141 45.6351L53.6564 45.8081L53.5987 45.9812L53.5411 46.2119L53.4834 46.4426L53.4257 46.6733L53.5411 46.7887H61.5589V46.8464V46.9041V46.9617V47.0194V47.0771V47.1348V47.1925V47.2502L61.5012 47.3078L61.4436 47.3655V47.4232V47.4809V47.5386V47.5963L61.2705 47.7693L61.1551 47.9424L61.0398 48.1154L60.9244 48.2885L60.8667 48.3461L60.8091 48.4038L60.7514 48.4615L60.6937 48.5192L60.636 48.5769L60.5783 48.6345L60.5207 48.6922H60.463L60.4053 48.7499L60.3476 48.8076L60.2899 48.8653L60.2322 48.923L60.1746 48.9806H60.1169H60.0592H60.0015H59.8861H59.7708H59.7131H59.6554H59.5977H59.54H52.6181L52.4451 49.3267L52.272 49.6728L52.099 50.0189L51.9259 50.365L51.7529 50.7111L51.5798 51.0572L51.4068 51.4033L51.2337 51.7494L51.0607 52.0955L50.8876 52.4416L50.7146 52.7877L50.5415 53.1338L50.3685 53.4799L50.1954 53.826L50.0224 54.1721L49.8494 54.5182H49.561H49.2725H48.9841H48.6957H48.4073H48.1189H47.8305H47.5421H47.2536H46.9652H46.6768H46.3884H46.1H45.8116H45.5232H45.2348L45.5808 53.7683L45.9269 53.0184L46.273 52.2686L46.6191 51.5187L46.9652 50.7688L47.3113 50.0189L47.6574 49.269L48.0035 48.5192L48.3496 47.7693L48.6957 47.0194L49.0418 46.2696L49.3879 45.5197L49.734 44.7698L50.0801 44.0199L50.4262 43.2701L50.7723 42.5202L50.83 42.4048L50.8876 42.2895L50.9453 42.2318L51.003 42.1741L51.1184 42.1164L51.2337 42.0587L51.3491 42.001L51.4645 41.9434L51.5798 41.8857L51.6952 41.828H51.8106H51.9259L52.1567 41.7703L52.3874 41.7126H63.8662V41.4819ZM72.2302 41.7703L72.634 42.4048V53.5952V53.6529V53.7106V53.7683V53.826L72.9801 53.1338L73.3262 52.4416L73.6723 51.7494L74.0184 51.0572L74.3645 50.365L74.7106 49.6728L75.0567 48.9806L75.4028 48.2885L75.7489 47.5963L76.095 46.9041L76.441 46.2119L76.7871 45.5197L77.1332 44.8275L77.4793 44.1353L77.8254 43.4431L78.1715 42.7509L78.2292 42.6355L78.2869 42.5202L78.3446 42.4048L78.4023 42.3471L78.5176 42.2895L78.633 42.2318L78.7483 42.1741L78.8637 42.1164L78.9791 42.0587L79.0944 42.001L79.2098 41.9434L79.3252 41.8857L79.4405 41.828H79.5559H79.6713H79.7866H79.902H80.0174H80.1327H80.2481H80.4788H80.7096H80.9403H81.171H81.4017H81.6325L81.8055 41.8857L81.9786 41.9434L82.1516 42.001L82.3247 42.1164L82.4977 42.2318L82.6708 42.3471L82.8438 42.4625L83.0169 42.5779L83.1899 42.9816L83.363 43.3277L83.536 43.7315L83.7091 44.0776L83.8821 44.4237L84.0552 44.7698L84.2282 45.1159L84.4013 45.462L84.5743 45.8081L84.7473 46.1542L84.9204 46.5003L85.0934 46.8464L85.2665 47.1925L85.4395 47.5963L85.6126 47.9424L85.7856 48.3461V48.4038V48.4615V48.5192V48.5769L86.0164 48.1731L86.2471 47.7693L86.4778 47.3078L86.7086 46.8464L86.9393 46.3849L87.17 45.9235L87.4007 45.462L87.6315 45.0005L87.8622 44.5391L88.0929 44.0776L88.3237 43.6162L88.5544 43.1547L88.7851 42.6932L89.0159 42.2318L89.1889 41.7703L89.4196 41.3089H89.708H89.9965H90.2849H90.5733H90.8617H91.1501H91.4385H91.7269H92.0153H92.3038H92.5922H92.8806H93.169H93.4574H93.7458H94.0342L93.6882 42.0587L93.3421 42.8086L92.996 43.5585L92.6499 44.3083L92.3038 45.0582L91.9577 45.8081L91.6116 46.558L91.2655 47.3078L90.9194 48.0577L90.5733 48.8076L90.2272 49.5575L89.8811 50.3073L89.535 51.0572L89.1889 51.8071L88.8428 52.557L88.4967 53.3068L88.439 53.3645L88.3813 53.4222L88.3237 53.4799L88.266 53.5376L88.2083 53.5952L88.1506 53.6529L88.0929 53.7106L88.0352 53.7683H87.9776H87.9199H87.8045H87.6891H87.5161H87.3431H87.17H86.997H86.8239H86.6509H86.3048H85.9587L85.8433 53.7106L85.7279 53.6529L85.6703 53.5952L85.6126 53.5376L85.5549 53.4799L85.4972 53.4222L85.4395 53.3645L85.3818 53.3068L85.2665 53.1915L85.1511 53.0761L85.0358 52.9607L84.9204 52.7877L81.6325 46.4426H81.5748H81.5171H81.4594H81.4017L81.3441 46.5003L81.2864 46.558L81.2287 46.6156L81.171 46.6733L81.1133 46.8464L81.0556 47.0194L80.998 47.0771L80.9403 47.1348L80.8826 47.1925L80.8249 47.2502L80.6519 47.6539L80.4788 48.0577L80.3058 48.4615L80.1327 48.8653L79.9597 49.269L79.7866 49.6728L79.5559 50.0766L79.3252 50.4804L79.0944 50.8842L78.8637 51.2879L78.633 51.6917L78.4023 52.0955L78.1715 52.4993L77.9408 52.9031L77.7101 53.3068L77.4793 53.7106H73.0378L72.9224 53.1915L72.4033 53.4222H63.4625L63.4048 53.3645L63.3471 53.3068L63.2894 53.2491L63.2317 53.1915L63.174 53.0761L63.1164 52.9607L63.0587 52.8454L63.001 52.73L62.9433 52.6147V52.4993V52.3839V52.2686V52.1532V52.0378V51.9225V51.8071V51.6917V51.5764H69.3461L69.4615 51.461V46.5003L69.3461 46.3849L68.7693 46.8464L68.1924 47.3078L67.6156 47.7693L67.0388 48.2308L66.462 48.6922L65.8851 49.1537L65.3083 49.6151L64.7315 50.0766L64.1546 50.5381L63.5778 50.9995L63.001 51.461L62.4242 51.9225L61.8473 52.3262L61.2705 52.73L60.6937 53.1338L60.1169 53.5376H59.7708H59.4247H58.9632H58.6171H58.271H57.9249H57.5788H57.2327H56.8866H56.5405H56.1945H55.8484H55.5023H55.1562H54.8101H54.464L55.4446 52.73L56.4252 51.9225L57.4058 51.1149L58.3864 50.3073L59.367 49.4998L60.3476 48.6922L61.3282 47.8847L62.3088 47.0771L63.2894 46.2696L64.27 45.462L65.2506 44.6544L66.2312 43.8469L67.2118 43.0393L68.1924 42.2318L69.173 41.4242L70.1536 40.6167L70.3267 40.559L70.4997 40.5013L70.6728 40.4436L70.8458 40.3859L71.0189 40.3282L71.1919 40.2706L71.365 40.2129H71.538H71.7111H71.8841H71.9418H71.9995H72.0572H72.1148H72.1725H72.2302H72.2879H72.3456L72.4033 40.2706L72.4609 40.3282L72.5186 40.3859L72.2302 41.7703Z" fill="#4D5456"/>
</svg>
