<svg width="120" height="56" viewBox="0 0 120 56" fill="none" xmlns="http://www.w3.org/2000/svg">
<path fill-rule="evenodd" clip-rule="evenodd" d="M64.1557 2.07506L64.1927 2.11215L64.2298 2.14924L64.2669 2.18634H64.304H64.3782H64.4153H64.4895H64.5266H64.6379H64.7491H64.8604H64.9717L65.491 2.33471L66.0103 2.48309L66.5296 2.63146L67.0489 2.77983L67.5682 2.96529L68.0875 3.15076L68.3472 3.22495L68.6068 3.33622L68.8665 3.4475L69.1261 3.55878L69.3858 3.67006L69.6454 3.78134L69.9051 3.89262L70.1647 4.0039L70.4244 4.11518L70.6469 4.22646L70.9066 4.33774L71.1291 4.44901L71.3517 4.56029L71.5743 4.67157L71.7968 4.78285L72.0194 4.89414L72.2419 5.00541L72.4645 5.15379L72.6871 5.30216L72.9096 5.45053L72.9838 5.48762L73.058 5.52472L73.1322 5.56181L73.2064 5.5989L73.2805 5.636L73.3547 5.67309L73.4289 5.71018L73.5031 5.74727L73.6515 5.85855L73.7999 5.96983L73.874 6.00693L73.9482 6.04402L74.0224 6.08111L74.0966 6.1182L74.2079 6.19239L74.3192 6.26658L74.4304 6.34076L74.5417 6.41495L74.653 6.48913L74.7643 6.60041L74.8385 6.63751L74.9126 6.6746L74.9868 6.74879L75.061 6.82297L75.2094 6.93425L75.3578 7.04553L75.5061 7.15681L75.6545 7.26809L75.8029 7.37937L75.9512 7.49065L76.0996 7.60193L76.248 7.71321L78.1027 9.41949V9.45658V9.49367V9.53077V9.56786L78.1397 9.60496L78.1768 9.64204L78.2139 9.67914L78.251 9.71624L78.2881 9.75333L78.3252 9.79042L78.3994 9.86461L78.4736 9.93879L78.5107 9.97589L78.5478 10.013V10.0501V10.0872V10.1243L78.622 10.1614L78.659 10.1984L78.6961 10.2355L78.7332 10.2726L78.8074 10.3468L78.8816 10.4581L78.9558 10.5694L79.03 10.6436L79.0671 10.6807L79.1042 10.7177L79.1413 10.7548L79.2154 10.7919L79.2525 10.8661L79.2896 10.9403L79.3267 11.0145L79.3638 11.0887L79.4009 11.1629L79.438 11.237L79.4751 11.3483L79.5122 11.4225H79.5493L79.5864 11.4596L79.6235 11.4967L79.6606 11.5338L79.6976 11.608L79.7347 11.6822L79.8089 11.8305L79.8831 11.9789L80.0686 12.1273L80.254 12.424L80.4024 12.7208L80.5508 13.0175L80.6992 13.3514L80.8475 13.6852L80.9959 14.019L81.1072 14.3529L81.2185 14.6867L81.3297 15.0205L81.441 15.3544L81.5152 15.6882L81.5894 16.0221L81.6636 16.393L81.7378 16.7639L81.7749 17.1349L81.812 17.5058L81.8491 17.8767L81.8861 18.2476V18.6186V18.9895V19.3604V19.7314L81.8491 20.1023L81.812 20.4732L81.7749 20.8442L81.7378 21.2151L81.6636 21.586L81.5894 21.957L81.5152 22.3279L81.441 22.6988L81.2185 22.8472L81.1072 23.181L81.033 23.4036L80.9588 23.6261L80.8846 23.8487L80.8104 24.0713L80.7363 24.2938L80.6621 24.5164L80.5508 24.7389L80.4395 24.9615L80.3282 25.184L80.2169 25.4066L80.1057 25.6292L79.9944 25.8517L79.8831 26.0372L79.7718 26.2227L79.6606 26.4081L79.5122 26.5936L79.3638 26.7791L79.2154 26.9645L79.0671 27.15L78.9187 27.3354L78.7703 27.5209L78.622 27.7064L78.4736 27.8918L78.3252 28.0773L78.1768 28.2628L77.9914 28.4482L77.8059 28.6337L77.6204 28.8192L77.435 29.0046L77.2495 29.1901L77.064 29.3756L76.8786 29.561H76.8044L76.6931 29.6723L76.5818 29.7836L76.5447 29.8578L76.5076 29.932L76.4706 30.0061L76.4335 30.0432L76.3593 30.0803L76.2851 30.1174L76.2109 30.1545L76.1367 30.1916L76.0625 30.2287L75.9883 30.2658L75.9142 30.3029L75.84 30.34L75.8029 30.4142L75.7658 30.4513L75.7287 30.4884L75.6916 30.5255L75.6545 30.5625L75.6174 30.5996L75.5803 30.6367L75.5432 30.6738L75.4319 30.748L75.3207 30.8222L75.2836 30.8593L75.2465 30.8964L75.2094 30.9335L75.1723 31.0077H75.1352H75.0981H75.061L75.0239 31.0448L74.9868 31.0819L74.9497 31.156L74.9126 31.1931L74.8755 31.2302L74.8385 31.2673L74.8014 31.3044L74.7643 31.3415H74.7272H74.6901H74.653L74.5788 31.4157L74.5046 31.4899L74.4304 31.5641L74.3562 31.6382L74.1708 31.7495L73.9853 31.8608L73.7999 31.9721L73.6144 32.0834L73.5402 32.1575L73.466 32.2317L73.3918 32.3059L73.3176 32.3801L73.2435 32.4172L73.1693 32.4543L73.0951 32.4914L73.0209 32.5285L72.9096 32.6027L72.7983 32.6768L72.6871 32.751L72.5758 32.8252L72.5016 32.8623L72.4274 32.8994L72.3532 32.9365L72.279 32.9736L72.0936 33.122L71.8339 33.2332L71.5743 33.3445L71.3146 33.4558L71.055 33.5671L70.7953 33.6784L70.5357 33.7896L70.276 33.9009L70.0164 34.0122L69.7567 34.1235L69.4971 34.2348L69.2374 34.346L68.9778 34.4573L68.7181 34.5686L68.4584 34.6428L68.1617 34.717L67.865 34.7912L67.7537 34.8653L67.6424 34.9024L67.5311 34.9395L67.4198 34.9766L67.3086 35.0137L67.1973 35.0508L67.086 35.0879L66.9747 35.125L66.8634 35.1621L66.7522 35.1992L66.6409 35.2363L66.5296 35.2734L66.4183 35.3105L66.307 35.3476H66.27H66.2329H66.1958H66.1587L66.0845 35.3846L66.0103 35.4217L65.9361 35.4588L65.8619 35.4959L65.7877 35.533H65.7136H65.6394H65.5652H65.491H65.4168H65.3426L65.2684 35.5701L65.1943 35.6072L65.1201 35.6443L65.0459 35.6814L64.9717 35.7185L64.675 35.7927L64.3782 35.8669L64.0815 35.941L63.7847 35.8298L63.488 35.904L63.1541 35.941L62.8574 35.9781L62.5236 36.0152L62.1897 36.0523L61.8559 36.0894L61.522 36.1265L61.1882 36.1636L60.8544 36.2007L60.5205 36.2378L60.1867 36.2749L59.8529 36.312H59.519H59.1852H58.8513H58.5175H58.1837H57.8498H57.516H57.1822H56.8483H56.5145H56.1806H55.8468L55.513 36.2749L55.1791 36.2378L54.8453 36.2007L54.5114 36.1636L53.9921 36.0894L53.4728 36.0152L52.9535 35.941L52.4342 35.8669L51.9149 35.7927L51.3956 35.6814L50.9134 35.5701L50.4312 35.4588L49.949 35.3476L49.4668 35.2363L48.9846 35.0879L48.5024 34.9395L48.0202 34.7912L47.538 34.6428L47.0557 34.4944L46.5735 34.346L46.4622 34.2718L46.351 34.1977L46.2026 34.1235L46.0542 34.0493L45.98 34.0122L45.9059 33.9751L45.8317 33.938L45.7575 33.9009H45.6833H45.6091H45.5349H45.4607L45.3124 33.7896L45.164 33.6784L45.0156 33.5671L44.8302 33.4558L44.756 33.4187L44.6818 33.3816L44.6076 33.3445L44.5334 33.3074L44.4592 33.2703L44.385 33.2332L44.2738 33.1962L44.1625 33.1591L43.7545 32.9365L43.3464 32.7139L42.9384 32.4914L42.5304 32.2317L42.1224 31.9721L41.7143 31.7124L41.5289 31.5641L41.3434 31.4157L41.1579 31.2673L40.9725 31.1189L40.787 30.9706L40.6015 30.8222L40.4161 30.6738L40.2306 30.5255L40.0451 30.3771L39.8597 30.2287L39.6742 30.0803L39.4888 29.932L39.3033 29.7836L39.1178 29.6352L38.9324 29.4868L38.7469 29.3385L38.5614 29.153L38.376 28.9675L38.1905 28.7821L38.005 28.5966V28.5595L37.9679 28.5224L37.9308 28.4853L37.8938 28.4482L37.8196 28.374L37.7083 28.2999L37.597 28.2257L37.4857 28.1144L37.4486 28.0773L37.4115 28.0402L37.3744 27.966L37.3374 27.8918L37.2632 27.8547L37.2261 27.8177L37.189 27.7806L37.1519 27.7435L37.0777 27.6322L37.0035 27.5209L37.0777 27.6693L37.0406 27.5951L37.0035 27.558L36.9664 27.5209L36.9293 27.4838L36.8551 27.4467L36.781 27.4096L36.7068 27.3725L36.6697 27.2984L36.6326 27.1871L36.5955 27.0758L36.5584 27.0016L36.4842 26.8903L36.41 26.8161L36.3358 26.7049L36.2617 26.5936H36.2246L36.1875 26.5565L36.1504 26.5194V26.4823L36.1133 26.4081L36.0762 26.3339V26.2968V26.2598V26.2227L36.0391 26.1856L36.002 26.1485L35.9649 26.1114V26.1856H35.9278V26.1114V26.0372V26.0001L35.8907 25.963L35.8536 25.9259L35.8165 25.8888L35.7794 25.8517L35.7423 25.8146L35.6682 25.7034L35.594 25.5921L35.5569 25.5179L35.5198 25.4437L35.4827 25.3695V25.2953L35.4085 25.2211L35.2601 24.9244L35.1118 24.6276L34.9634 24.3309L34.8521 23.96L34.7408 23.6261L34.6296 23.2923L34.5183 22.9585L34.407 22.6246L34.3328 22.2908L34.2586 21.957L34.1844 21.6231L34.1103 21.2893L34.0361 20.9554L33.999 20.6216L33.9619 20.2878L33.9248 19.9539L33.8877 19.6201V19.2862V18.9524V18.5815V18.2476V17.9138L33.9248 17.58L33.9619 17.2461L33.999 16.9123L34.0361 16.5785L34.1103 16.2446L34.1844 15.9108L34.2586 15.5769L34.3328 15.2431L34.4441 14.9093L34.5554 14.5754L34.6296 14.3529L34.7037 14.1303L34.7779 13.9077L34.8892 13.6852L35.0005 13.4626L35.1118 13.2401L35.223 13.0175L35.3343 12.795L35.4456 12.5724L35.5569 12.3498L35.6682 12.1273L35.7794 11.9047L35.9278 11.6822L36.0762 11.4596L36.2246 11.237L36.3729 11.0145L36.5213 10.829L36.6697 10.6436L36.818 10.4581L36.9664 10.2726L37.1148 10.0872L37.2632 9.9017L37.4486 9.71624L37.6341 9.53077L37.8196 9.3453L38.005 9.15984L38.1905 8.97437L38.376 8.78891L38.5614 8.60344L38.7469 8.41798L38.9324 8.23251L39.1178 8.04705L39.192 8.00995L39.2662 7.97286L39.3033 7.93577L39.3404 7.89867L39.3775 7.86158L39.4146 7.82449L39.4517 7.78739L39.4888 7.7503L39.5629 7.67612L39.6371 7.60193L39.6742 7.56484L39.7113 7.52774L39.7484 7.49065L39.7855 7.45356L39.8226 7.37937L39.8597 7.34228L39.8968 7.30519L39.9339 7.26809L40.0451 7.1939L40.1564 7.11972L40.2677 7.04553L40.379 6.97134L40.4161 6.93425L40.4532 6.89716L40.4903 6.86006L40.5274 6.82297L40.6386 6.74879L40.7499 6.6746L40.8612 6.60041L40.9725 6.56332L41.0838 6.52623L41.195 6.48913L41.3063 6.45204L41.4176 6.41495L41.4547 6.37786L41.4918 6.34076L41.5289 6.30367L41.566 6.26658L41.6401 6.19239L41.7514 6.1182L41.8627 6.04402L41.9369 5.96983L41.974 5.93274L42.0111 5.89565L42.0482 5.85855L42.0853 5.82146H42.1595L42.2336 5.78437L42.3078 5.74727L42.382 5.71018L42.4933 5.636L42.6046 5.56181L42.7159 5.48762L42.8271 5.41344L42.9013 5.37634L42.9755 5.33925L43.0497 5.30216H43.1239L43.161 5.26507L43.1981 5.22797L43.2352 5.19088L43.2723 5.15379L43.3835 5.0796L43.4948 5.00541L43.6061 4.96832L43.7174 4.93122L43.8286 4.89414L43.9399 4.81994L44.1996 4.70867L44.4592 4.59739L44.7189 4.48611L44.9785 4.37483L45.2382 4.26355L45.4978 4.15227L45.7575 4.04099L46.0171 3.92971V3.89262V3.85553V3.81843H46.0542H46.0913H46.1655H46.2768L46.5735 3.67006L46.8703 3.52169L47.167 3.41041L47.4638 3.29913L47.7605 3.18785L48.0944 3.07657L48.4282 2.96529L48.762 2.85402L49.0959 2.74274L49.4297 2.63146L49.7635 2.52017L50.0974 2.44599L50.4312 2.3718L50.765 2.29762L51.0989 2.22343L51.4327 2.14924L51.4698 2.11215H51.5069H51.544H51.5811H51.6182H51.6553H51.6924H51.7295H51.8037H51.8778H51.9149H51.952H51.9891H52.0262L52.323 2.03796L52.6197 1.96378L52.9535 1.88959L53.2874 1.8525L53.6212 1.81541L53.9551 1.77831L54.2889 1.74122L54.6227 1.70413L54.9566 1.66703L55.2904 1.62994L55.6242 1.59285L55.9581 1.55576L56.2919 1.51866L56.6258 1.48157H56.9596H57.2934H57.6273H57.9611H58.2949H58.6288H58.9626H59.2965H59.6303H59.9641L60.298 1.51866L60.6318 1.55576L60.9656 1.59285L61.2995 1.62994L61.6333 1.66703L61.9672 1.70413L62.301 1.74122L62.6348 1.77831L62.8574 1.81541L63.08 1.8525L63.3025 1.88959L63.5251 1.92669L63.7105 1.96378L63.9331 2.00087L64.1557 2.03796V2.07506ZM66.27 4.04099L66.4554 4.11518L66.678 4.18936L66.8634 4.26355L67.086 4.33774L67.2715 4.41192L67.494 4.48611L67.6795 4.56029L67.9021 4.67157L68.0875 4.78285L68.273 4.89414L68.4955 5.00541L68.681 5.11669L68.9036 5.22797L69.089 5.33925L69.3116 5.45053L69.4971 5.56181L69.6825 5.67309L69.868 5.78437L70.0534 5.89565L70.2389 6.00693L70.4244 6.1182L70.6098 6.22948L70.7953 6.34076L70.9808 6.45204L71.1662 6.56332L71.3517 6.71169L71.5372 6.86006L71.7226 7.00844L71.9081 7.15681L72.0936 7.30519L72.279 7.45356L72.4645 7.60193H72.5387L72.6871 7.71321L72.8354 7.86158L72.9838 8.00995L73.1322 8.15832L73.2064 8.23251L73.2805 8.3067L73.3547 8.38088L73.4289 8.45507L73.5031 8.52925L73.5402 8.60344L73.5773 8.67763L73.6144 8.75181H70.4244L69.9051 9.75333L69.3858 10.7548L68.8665 11.7564L68.3472 12.7579L67.8279 13.7594L67.3086 14.7609L66.7893 15.7624L66.27 16.7639L65.7506 17.7654L65.2313 18.7669L64.712 19.7685L64.1927 20.77L63.6734 21.7715L63.1541 22.773L62.6348 23.7745L62.1155 24.776L62.1897 24.8502H69.6825L69.7567 24.776L69.8309 24.7018L69.9051 24.6276L69.9793 24.5535L70.0164 24.4793L70.0534 24.368L70.0905 24.3309L70.1276 24.2938V24.2196V24.1454L70.2018 24.0342L70.276 23.9229L70.3502 23.8116L70.4244 23.7003L70.4615 23.589L70.4986 23.4778L70.5357 23.3665L70.5727 23.2552L64.0815 23.181V23.1439V23.1068V23.0697V23.0326V22.9956L64.1186 22.9585L64.1557 22.9214L64.1927 22.8843L64.2298 22.8472H64.2669L64.3782 22.8101L64.4895 22.773H64.5637L64.6379 22.7359L64.675 22.6988L64.712 22.6617L64.8233 22.5875L64.9346 22.5133L65.0459 22.4763L65.1572 22.4392L65.3797 22.3279L65.6023 22.2166L65.8248 22.1053L66.0474 21.994L66.1587 21.957L66.27 21.9199L66.3812 21.8457L66.4925 21.7715V21.7344V21.6973L66.5296 21.6602L66.5667 21.6231H66.6038H66.6409H66.678H66.7151H66.7522H66.7893H66.8264H66.8634L66.9005 21.586L66.9376 21.5489V21.5118V21.4747H67.0118L67.086 21.4377L67.1602 21.4006L67.2344 21.3635L67.3086 21.3264L67.3828 21.2893L67.4569 21.2522L67.5311 21.2151L67.6053 21.178L67.6795 21.1409L67.7537 21.1038L67.8279 21.0667L67.9021 21.0296L67.9762 20.9925L68.0504 20.9554H68.1246L68.2359 20.8813L68.3472 20.8071L68.4584 20.7329L68.5697 20.6587L68.681 20.5845L68.7923 20.5103L68.8294 20.4732L68.8665 20.4361L68.9036 20.399H68.9407L69.089 20.2878L69.2374 20.1765L69.3858 20.0281L69.5341 19.8797L69.8309 19.6201L70.1276 19.3604L70.4244 19.1008L70.7211 18.8411L70.8695 18.6928L71.0179 18.5444L71.1662 18.396L71.3146 18.2847V18.2476V18.2105V18.1735L71.3517 18.1364L71.3888 18.0993L71.4259 18.0622L71.463 18.0251L71.5001 17.988L71.5743 17.9138L71.6485 17.8396L71.6855 17.8025L71.7226 17.7654L71.7597 17.7283L71.7968 17.6912L71.8339 17.6542L71.871 17.6171L71.9081 17.58L71.9452 17.5429L71.9823 17.4687L72.0194 17.3945L72.0565 17.3203L72.0936 17.2461L72.1307 17.209L72.1678 17.1719L72.2049 17.1349L72.2419 17.0978L72.3161 17.0236L72.3532 16.9494L72.3903 16.8752L72.4274 16.801L72.4645 16.7268L72.5016 16.6526L72.5387 16.5785L72.6129 16.5043L72.7983 16.1704L72.9838 15.8366L73.1693 15.5028L73.3547 15.1689L73.5402 14.8351L73.7257 14.5012L73.9111 14.1674L74.0966 13.8336L74.2821 13.4997L74.4675 13.1659L74.653 12.8321L74.8385 12.4982L75.0239 12.1644L75.2094 11.8305L75.3948 11.4967L75.5803 11.1629H75.6174H75.6545H75.6916H75.7287L75.8029 11.237L75.84 11.3112L75.8771 11.3854L75.9142 11.4596L75.9883 11.5709L76.0625 11.6822L76.2109 11.9418L76.3593 12.2015L76.5076 12.4611L76.656 12.7208L76.8044 12.9804L76.9528 13.2401L77.027 13.3884L77.1011 13.5368L77.1753 13.6852L77.2495 13.8336L77.3979 14.2045L77.5463 14.6125L77.6946 15.0205L77.8059 15.4286L77.9172 15.8366L77.9914 16.2446L78.0656 16.6526L78.1397 17.0607L78.1768 17.4687L78.2139 17.8767L78.251 18.2847V18.7298V19.175V19.6201L78.2139 20.0281L78.1768 20.4361L78.1397 20.8442L78.0656 21.2522L77.9914 21.6602L77.9172 22.0682L77.8059 22.4763L77.6946 22.8843L77.5833 23.2923L77.435 23.7003L77.2866 24.1083L77.1382 24.4793L76.9528 24.8502L76.7673 25.2211L76.5818 25.5921L76.3593 25.963L76.1367 26.2968L75.9142 26.6307L75.8771 26.6678L75.84 26.7049L75.8029 26.742L75.7658 26.7791L75.6916 26.8903L75.6174 27.0016L75.5803 27.0387L75.5432 27.0758L75.5061 27.1129L75.469 27.15L75.4319 27.1871L75.3948 27.2242L75.3207 27.2613L75.2465 27.2984V27.3354V27.3725V27.4096V27.4467L75.2094 27.4838L75.1723 27.5209L75.1352 27.558L75.0981 27.5951L75.061 27.6322L75.0239 27.6693L74.9868 27.7064V27.7435V27.7806V27.8177L74.8755 28.0031L74.7272 28.1515L74.5788 28.2999L74.4304 28.4482L74.2821 28.5966L74.1337 28.745L73.9853 28.8934L73.8369 29.0417L73.6886 29.1901L73.5402 29.3385L73.3918 29.4868L73.2435 29.6352L72.9467 29.932L72.6129 30.1916H72.5758L72.5387 30.2287L72.5016 30.2658L72.4645 30.3029L72.3903 30.3771L72.3161 30.4513L72.2419 30.5255L72.1678 30.5996L72.1307 30.6367L72.0936 30.6738L72.0565 30.7109H72.0194L71.9823 30.748L71.9452 30.7851L71.9081 30.8222L71.871 30.8593L71.7597 30.9335L71.6855 30.9706L71.6485 31.0077L71.6114 31.0448L71.5743 31.0819L71.5372 31.1189L71.5001 31.156L71.463 31.1931L71.4259 31.2302L71.3888 31.3044L71.2775 31.3415L71.1662 31.3786L71.055 31.4157L70.9437 31.4528L70.8324 31.4899L70.7211 31.5641L70.6098 31.6382L70.4986 31.7124L70.4615 31.7495L70.3131 31.8608L70.1647 31.935L70.0164 32.0463L69.868 32.1575L69.7196 32.2317L69.5712 32.343L69.4229 32.4172L69.3116 32.4543L69.2003 32.4914L69.1261 32.5285L69.0519 32.5656L68.9778 32.6027L68.9036 32.6398L68.8665 32.6768L68.8294 32.7139L68.7923 32.751L68.7552 32.7881L68.4955 32.8994L68.2359 33.0107L67.9762 33.122L67.7166 33.2332L67.4569 33.3445L67.2344 33.4558L67.0118 33.5671L66.7893 33.6784H66.7522H66.7151H66.678H66.6409H66.6038H66.5667L66.5296 33.7155L66.4925 33.7525H66.4554H66.4183H66.3812H66.3441H66.307H66.27H66.1958L66.1216 33.7896L66.0474 33.8267L65.9732 33.8638L65.899 33.9009L65.8248 33.9751L65.7136 34.0122L65.6023 34.0493L65.491 34.0864L65.3797 34.1235L65.2684 34.1606L65.1572 34.1977L65.0459 34.2348L64.9346 34.2718L64.4524 34.4202L63.9702 34.5315L63.488 34.6428L63.0058 34.7541L62.4865 34.8653L61.9672 34.9395L61.4479 35.0137L60.9285 35.0879L60.4092 35.125L59.8899 35.1621L59.3706 35.1992L58.8513 35.2363H58.332H57.8127H57.2934H56.7741L56.2548 35.1992L55.7355 35.1621L55.2162 35.125L54.6969 35.0508L54.1776 34.9766L53.6583 34.9024L53.139 34.8282L52.6197 34.717L52.1004 34.6057L51.6182 34.4944L51.136 34.346L50.6538 34.1977L50.1716 34.0493L49.6893 33.9009L49.2442 33.7155L48.7991 33.53L48.6878 33.4558L48.5395 33.3816L48.3911 33.3445L48.2427 33.3074L47.946 33.1962L47.6492 33.0849L47.5009 33.0107L47.3525 32.9365L47.2041 32.8623L47.0557 32.7881L46.9074 32.7139L46.759 32.6398L46.6848 32.6027L46.6106 32.5656L46.5364 32.5285L46.4622 32.4914H46.3881L46.3139 32.4543L46.2397 32.4172L46.1655 32.3801L46.0913 32.343L46.0171 32.3059L45.9429 32.2688L45.8688 32.2317L45.7204 32.1575L45.572 32.0834L45.4978 32.0463L45.4236 32.0092L45.3495 31.9721L45.2753 31.935L45.2382 31.8608L45.2011 31.8237L45.164 31.7866L45.1269 31.7495L45.0898 31.7124L45.0156 31.6753L44.9785 31.6382L44.9043 31.6012L44.8672 31.5641L44.7931 31.527L44.756 31.4899L44.6818 31.4528L44.6447 31.4157L44.6076 31.3786L44.5705 31.3415L44.5334 31.2673H44.4963H44.4592H44.4221H44.385L44.3479 31.2302L44.3109 31.1931L44.2738 31.156L44.2367 31.1189H44.1996H44.1625H44.1254H44.0883L44.0512 31.0448L44.0141 31.0077L43.977 30.9706L43.9399 30.9335L43.8286 30.8593L43.7174 30.7851L43.6803 30.748L43.6432 30.7109L43.3835 30.6367L43.3464 30.5996L43.3093 30.5625L43.2723 30.5255L43.2352 30.4884L43.1981 30.4142L43.1239 30.3771L43.0497 30.34L42.9755 30.3029L42.9013 30.2658L42.8271 30.2287L42.79 30.1916L42.7529 30.1545L42.7159 30.1174L42.6417 30.0061L42.5675 29.8949L42.4933 29.7836L42.4191 29.6723V29.5981L50.1716 29.5239L50.2087 29.4868L50.2457 29.4497L50.2828 29.4127L50.3199 29.3756L50.357 29.3385V29.3014V29.2643V29.2272L50.3941 29.153L50.4312 29.0788V29.0417V29.0046L50.4683 28.9675L50.5054 28.9304L50.6167 28.7079L50.728 28.4853L50.8392 28.2628L50.9505 28.0402L51.0618 27.8177L51.1731 27.558L51.2102 27.4467L51.2473 27.2984L51.2843 27.15L51.3214 27.0016L41.7143 26.9274V26.8903L41.7514 26.8532V26.8161L41.7885 26.7791L41.8256 26.742L41.8627 26.7049L41.8998 26.6678L41.974 26.6307L42.0482 26.5936H42.1224L42.2707 26.5565L42.4191 26.5194H42.4933L42.5675 26.4823L42.6417 26.4452L42.7159 26.4081L43.0126 26.2968L43.3093 26.1856L43.6061 26.0743L43.9028 25.963L44.1996 25.8146L44.4963 25.6663L44.7931 25.5179L45.0898 25.3695L45.3865 25.2211L45.6833 25.0728L45.9429 24.9244L46.2397 24.776L46.5364 24.6276L46.7961 24.4793L47.0928 24.3309L47.3896 24.1825L47.538 24.0713L47.6863 23.96L47.8347 23.8487L47.9831 23.7374L48.0573 23.7003L48.1314 23.6632L48.2056 23.6261L48.2798 23.589L48.354 23.5519L48.4282 23.5149L48.5024 23.4778L48.5766 23.4407L48.6137 23.3665L48.6507 23.3294L48.6878 23.2923L48.7249 23.2552L48.762 23.2181L48.7991 23.181L48.8362 23.1439L48.8733 23.1068L48.9846 23.0697L49.0588 22.9956L49.0959 22.9585L49.133 22.9214L49.17 22.8843L49.2071 22.8472H49.2442L49.2813 22.8101L49.3184 22.773L49.3555 22.7359L49.4297 22.6617L49.5039 22.5875L49.5781 22.5133L49.6523 22.4392L49.6893 22.4021H49.7264H49.7635H49.8006L51.9891 20.2878V20.2507V20.2136V20.1765V20.1394L52.0262 20.1023L52.0633 20.0652L52.1004 20.0281L52.1375 19.991L52.1746 19.9539L52.2117 19.9168L52.2488 19.8797L52.2859 19.8426L52.323 19.8055L52.3601 19.7685L52.3971 19.7314L52.4342 19.6943V19.6572V19.6201V19.583V19.5459L52.5826 19.3604L52.731 19.175L52.8794 18.9895L53.0277 18.804L53.1761 18.6186L53.3245 18.4331L53.4728 18.2476L53.6212 18.0622L53.7696 17.8767L53.8809 17.6912L53.9921 17.5058L54.1034 17.3203L54.2147 17.1349L54.326 16.9494L54.4373 16.7639L54.5485 16.5785L54.734 16.5043L54.8453 16.2446L54.9566 15.985L55.0678 15.7253L55.1791 15.4657L55.2904 15.206L55.4017 14.9464L55.513 14.6867L55.6242 14.4271L55.7355 14.1674L55.8839 13.9077L56.0323 13.6481L56.1806 13.3884L56.329 13.1288L56.4774 12.8691L56.6258 12.6095L56.7741 12.3498L56.8854 12.1273L56.9967 11.9047L57.108 11.6822L57.2192 11.4596L57.3305 11.237L57.4418 11.0145L57.5531 10.7919L57.6644 10.5694L57.7756 10.3468L57.8869 10.1243L57.9982 9.9017L58.1095 9.67914L58.2208 9.45658L58.332 9.23402L58.4433 9.01146L58.5546 8.78891L58.6288 8.71472L58.5546 8.64053H49.6893L49.0959 9.79042L48.5024 10.9403L47.9089 12.0902L47.3154 13.2401L46.7219 14.39L46.1284 15.5398L45.5349 16.6897L44.9414 17.8396L44.3479 18.9895L43.7545 20.1394L43.161 21.2893L42.5675 22.4392L41.974 23.589L41.3805 24.7389L40.787 25.8888L40.1935 27.0387H40.1564H40.1193H40.0822H40.0451H40.0081H39.971H39.9339L39.8968 27.0016L39.8597 26.9645L39.8226 26.9274L39.7855 26.8532L39.7484 26.7791L39.7113 26.742L39.6742 26.7049H39.6371H39.6H39.5629L39.5258 26.6307L39.4888 26.5565L39.4517 26.4823L39.4146 26.4081L39.3775 26.3339L39.3404 26.2598L39.3033 26.1856L39.2662 26.1114L39.2291 26.0743L39.192 26.0372L39.1549 26.0001L39.1178 25.963L39.0807 25.8888L39.0436 25.8146V25.7775V25.7404L39.0065 25.7034L38.9695 25.6663L38.9324 25.6292L38.8953 25.5921L38.8582 25.555L38.8211 25.5179L38.784 25.3695L38.7098 25.2211L38.6356 25.0728L38.5614 24.9615L38.4131 24.7018L38.2647 24.4793L38.1905 24.368L38.1163 24.2567L38.0421 24.1454L37.9679 24.0342L37.8938 23.9229L37.8567 23.8116L37.8196 23.7003L37.7825 23.589L37.7083 23.4407L37.6341 23.2923L37.5599 23.1439L37.4857 22.9956L37.4486 22.8101L37.4115 22.6246L37.3744 22.4392L37.3374 22.2537L37.2261 21.9199L37.1519 21.586L37.0777 21.2522L37.0035 20.9183L36.9664 20.6958L36.9293 20.4732L36.8922 20.2507L36.8551 20.0281L36.818 19.8055V19.583V19.3604V19.1379V18.9153V18.6928V18.4702V18.2476V18.0251V17.8025L36.8551 17.58L36.8922 17.3574L36.9293 17.1349L36.9664 16.9123L37.0035 16.6897L37.0406 16.4672L37.0777 16.2446L37.1148 16.0221L37.1519 15.7995L37.189 15.614L37.2632 15.206L37.3744 14.798L37.4857 14.39L37.597 14.019L37.6341 13.9819L37.6712 13.9448L37.7083 13.9077L37.7454 13.8707L37.7825 13.7594L37.8196 13.6481L37.8567 13.611L37.8938 13.5739L37.9308 13.5368L37.9679 13.4997L38.005 13.4626L38.0421 13.4255L38.0792 13.3884L38.1163 13.3514L38.1905 13.1659L38.2647 12.9804L38.3389 12.795L38.4131 12.6095L38.4872 12.424L38.5614 12.2386L38.6727 12.0531L38.784 11.9047L38.9695 11.5709L39.1549 11.237L39.3404 10.9032L39.5258 10.5694L39.6 10.5323L39.6371 10.4952L39.6742 10.4581L39.7113 10.421L39.7484 10.3839L39.7855 10.3468L39.8226 10.3097L39.8597 10.2726L39.8968 10.2355L39.9339 10.1984L39.971 10.1614L40.0081 10.1243L40.0451 10.0872L40.0822 10.0501L40.1193 10.013L40.1935 9.97589V9.93879V9.9017V9.86461L40.2306 9.82751L40.2677 9.79042L40.3048 9.75333L40.3419 9.71624L40.379 9.67914L40.4161 9.64204L40.4532 9.60496L40.4903 9.56786L40.5274 9.53077L40.5644 9.49367V9.45658V9.41949V9.38239L40.6757 9.27111L40.787 9.15984L40.8983 9.04856L41.0096 8.93728L41.195 8.71472L41.3805 8.49216L41.4918 8.38088L41.6031 8.2696L41.7143 8.15832L41.8256 8.04705L41.8627 8.00995L41.8998 7.97286L41.974 7.93577L42.0111 7.89867L42.0853 7.86158L42.1595 7.82449L42.2336 7.78739L42.3078 7.7503L42.382 7.67612L42.4562 7.60193L42.5304 7.52774L42.6046 7.45356L42.6788 7.37937L42.7529 7.30519L42.8271 7.23099L42.9013 7.15681L43.0497 7.04553L43.1981 6.93425L43.2723 6.86006L43.3464 6.78588L43.4206 6.71169L43.4948 6.63751L43.6061 6.56332L43.7174 6.48913L43.8286 6.41495L43.9399 6.34076L44.0512 6.26658L44.1625 6.19239L44.2738 6.1182L44.385 6.04402L44.4221 6.00693L44.4592 5.96983L44.4963 5.93274L44.5334 5.89565L44.5705 5.85855L44.6076 5.82146L44.6447 5.78437H44.6818L44.756 5.74727L44.8302 5.71018L44.8672 5.67309L44.9043 5.636L44.9414 5.5989L44.9785 5.56181L45.0527 5.48762L45.1269 5.45053L45.2011 5.41344L45.2753 5.37634L45.3865 5.30216L45.4978 5.22797L45.7204 5.0796L45.9429 4.93122L46.1655 4.81994L46.3881 4.70867L46.6106 4.59739L46.8332 4.48611L47.0557 4.37483L47.2783 4.26355L47.5009 4.15227L47.7234 4.04099L47.946 3.92971L48.1685 3.81843L48.3911 3.70715L48.6137 3.59588L48.8362 3.4846L49.0588 3.37332L49.2813 3.29913L49.5039 3.22495L49.7264 3.15076L49.9119 3.07657L50.1345 3.00239L50.357 2.9282L50.5796 2.85402L50.8021 2.77983L50.8763 2.74274L50.9505 2.70564L51.0247 2.66855L51.0989 2.63146L51.2473 2.59436L51.3956 2.55727L51.544 2.52017L51.6924 2.48309L51.7666 2.44599L51.8407 2.40889L51.9149 2.3718L51.9891 2.33471L52.2117 2.29762L52.4342 2.26052L52.6568 2.22343L52.8794 2.18634L53.139 2.14924L53.3987 2.11215L53.6583 2.07506L53.918 2.03796L54.1776 2.00087L54.4373 1.96378L54.6969 1.92669L54.9566 1.88959L55.2162 1.8525L55.4759 1.81541H55.7355H55.9952H56.2548H56.5145H56.7741H57.0338H57.5531H58.0724H58.5917H59.111L59.6303 1.8525L60.1496 1.88959L60.5576 1.92669L60.9656 1.96378L61.3737 2.00087L61.7817 2.03796L62.1897 2.11215L62.5977 2.18634L63.0058 2.26052L63.3767 2.33471L63.7476 2.40889L64.1186 2.48309L64.4895 2.59436L64.8604 2.70564L65.2313 2.81692L65.6023 2.9282L65.9732 3.03948L66.27 4.04099ZM68.1988 8.71472L68.0133 9.12274L67.8279 9.53077L67.6424 9.97589L67.4569 10.3839L67.2715 10.7919L67.086 11.2L66.9005 11.6451L66.7151 12.0531L66.5296 12.4611L66.3441 12.8691L66.1587 13.3143L65.9732 13.7223L65.7877 14.1303L65.6023 14.5754L65.4168 14.9835L65.2313 15.3915L65.1201 15.5028L65.0459 15.614L64.9717 15.7253L64.8975 15.8366L64.8233 15.9479L64.7491 16.0592L64.675 16.1704L64.6008 16.2817L64.5266 16.393L64.4524 16.5043L64.3782 16.6156L64.304 16.7268L64.1557 16.9494L64.0073 17.1719L63.9331 17.2832L63.8589 17.3945L63.7847 17.5058L63.7105 17.6171L63.6363 17.7283L63.4138 18.0251L63.3396 18.1364L63.2283 18.2476V18.2847V18.3218V18.3589V18.396L63.1912 18.4331L63.1541 18.4702L63.117 18.5073L63.08 18.5444L63.0429 18.5815V18.6186V18.6557V18.6928V18.7298V18.7669L62.9316 18.8782L62.8203 18.9895L62.7832 19.0266L62.7461 19.0637L62.709 19.1008L62.6719 19.1379V19.175V19.2121L62.4123 19.5088L62.1526 19.7685L61.893 20.0281L61.6333 20.2878L61.3737 20.5474L61.114 20.8071L60.8544 21.0667L60.5576 21.3635H60.5205H60.4834H60.4463L60.4092 21.4006L60.3722 21.4377L60.3351 21.4747L60.298 21.5118L60.2609 21.5489L60.2238 21.6231L60.1867 21.6602L60.1496 21.6973H60.1125H60.0754H60.0383L60.0012 21.7344L59.9641 21.7715L59.927 21.8086L59.8899 21.8457L59.7787 21.9199L59.6674 21.957L59.6303 21.994L59.5932 22.0311L59.5561 22.0682L59.519 22.1053L59.4819 22.1424L59.4448 22.1795L59.4077 22.2166L59.3706 22.2908L59.2594 22.3279L59.1481 22.365L59.0368 22.4021L58.9255 22.4392L58.8142 22.4763L58.703 22.5504L58.5917 22.6246L58.4804 22.6988V22.7359L58.4433 22.773L58.4062 22.8101L58.3691 22.8472L58.2949 22.8843L58.2208 22.9214L58.1466 22.9585L58.0724 22.9956L58.0353 23.0326L57.9982 23.0697L57.9611 23.1068L57.924 23.1439L57.7015 23.2552L57.4789 23.3665L57.2563 23.4778L57.0338 23.589L56.8112 23.7003L56.5887 23.8116L56.4774 23.8487L56.3661 23.8858L56.2548 23.9229L56.1435 23.96L55.9952 24.0342L55.8468 24.1083L55.6984 24.1825L55.5501 24.2567L55.4017 24.3309L55.2533 24.4051L55.1049 24.4793L54.9566 24.5535L54.6598 24.6647L54.3631 24.776L54.0292 24.8873L53.7325 24.9986L53.918 25.147H61.9301V25.2211V25.2953V25.3695V25.4437L61.893 25.555L61.8559 25.6663L61.8188 25.7775L61.7817 25.8888L61.7075 26.0001L61.6333 26.1114L61.4849 26.3339L61.3737 26.5565L61.2995 26.6678L61.2253 26.7791L61.1511 26.8903L61.114 27.0016H51.5811V26.8532L52.1375 25.7404L52.6939 24.6276L53.2503 23.5149L53.8067 22.4021L54.3631 21.2893L54.9195 20.1765L55.4759 19.0637L56.0323 17.9509L56.5887 16.8381L57.1451 15.7253L57.7015 14.6125L58.2579 13.4997L58.8142 12.3869L59.3706 11.2741L59.927 10.1614L60.4834 9.04856H68.1988V8.71472Z" fill="#02589D"/>
<path fill-rule="evenodd" clip-rule="evenodd" d="M36.0613 41.2514V41.3668V41.4821V41.5975L36.0036 41.7129L35.9459 41.8282L35.8882 41.9436L35.8305 42.059L35.7728 42.1743L35.6575 42.4051L35.5421 42.6358L35.4844 42.7512L35.4268 42.8665L35.3691 42.9819L35.3114 43.0973L35.0807 43.6741L34.8499 44.2509L34.6192 44.8277L34.3885 45.4046L34.1577 45.9814L33.927 46.5582L33.6963 47.135L33.4655 47.7119L33.2348 48.2887L33.0041 48.8655L32.7734 49.4424L32.5426 50.0192L32.3119 50.596L32.0812 51.1728L31.8504 51.7497L31.6197 52.3265L38.7147 52.4418V52.5572L38.657 52.6726L38.5993 52.7879L38.5416 52.9033L38.4839 53.0187L38.4262 53.134L38.3686 53.2494L38.3109 53.3648L38.2532 53.4801L38.1955 53.5955L38.1378 53.7109L38.0225 53.8262L37.9071 53.9416L37.7917 54.057L37.6764 54.1723L37.561 54.2877L36.9265 54.5184H26.7167H26.659H26.6013H26.5436H26.486H26.4283H26.3706H26.3129H26.2552L26.0822 54.23L25.9668 54.1146L26.3129 53.3071L26.659 52.4995L27.0051 51.692L27.3512 50.8844L27.6973 50.0768L28.0434 49.2693L28.3895 48.4617L28.7356 47.6542L29.0817 46.8466L29.4278 46.0391L29.7739 45.2315L30.12 44.424L30.4661 43.6164L30.8122 42.8089L31.1582 42.0013L31.5043 41.1937H36.0613V41.2514ZM48.9245 41.3668L48.5784 42.1743L48.2323 42.9819L47.8862 43.7894L47.5401 44.597L47.194 45.4046L46.8479 46.2121L46.5018 47.0197L46.1557 47.8272L45.8096 48.6348L45.4635 49.4424L45.1174 50.2499L44.7713 51.0575L44.4252 51.865L44.0792 52.6726L43.7331 53.4801L43.387 54.2877H43.0985H42.8101H42.5217H42.2333H41.9449H41.6565H41.3681H41.0796H40.7912H40.5028H40.2144H39.926H39.6376H39.3492H39.0608H38.7723L39.1184 53.4801L39.4645 52.6726L39.8106 51.865L40.1567 51.0575L40.5028 50.2499L40.8489 49.4424L41.195 48.6348L41.5411 47.8272L41.8872 47.0197L42.2333 46.2121L42.5794 45.4046L42.9255 44.597L43.2716 43.7894L43.6177 42.9819L43.9638 42.1743L44.3099 41.3668H48.9245ZM63.8643 41.4821L63.922 41.5975V41.6552V41.7129V41.8282V41.9436L63.8643 42.1167V42.2897L63.8066 42.3474L63.7489 42.4051L63.6912 42.4628L63.6336 42.5204L63.5182 42.6935L63.4028 42.8665L63.3451 42.9242L63.2875 42.9819L63.2298 43.0396L63.1721 43.0973L63.1144 43.1549L63.0567 43.2126L62.9414 43.2703L62.826 43.328L62.7683 43.3857L62.7106 43.4433L62.6529 43.501L62.5953 43.5587L62.5376 43.6164L62.4799 43.6741L62.4222 43.7318H62.3645H62.3068H62.2492H62.1915H62.1338H61.9608H61.7877H54.6927L54.6351 43.9048L54.5774 44.0779L54.5197 44.2509L54.4043 44.424L54.2313 44.7701L54.0582 45.1162L53.9429 45.2892L53.8275 45.4622L53.7121 45.6353L53.6545 45.8083L53.5968 45.9814L53.5391 46.2121L53.4814 46.4428L53.4237 46.6736L53.5391 46.7889H61.557V46.8466V46.9043V46.962V47.0197V47.0774V47.135V47.1927V47.2504L61.4993 47.3081L61.4416 47.3658V47.4235V47.4811V47.5388V47.5965L61.2686 47.7695L61.1532 47.9426L61.0378 48.1156L60.9225 48.2887L60.8648 48.3464L60.8071 48.4041L60.7494 48.4617L60.6917 48.5194L60.6341 48.5771L60.5764 48.6348L60.5187 48.6925H60.461L60.4033 48.7502L60.3456 48.8078L60.288 48.8655L60.2303 48.9232L60.1726 48.9809H60.1149H60.0572H59.9995H59.8842H59.7688H59.7111H59.6535H59.5958H59.5381H52.6162L52.4431 49.327L52.2701 49.6731L52.097 50.0192L51.924 50.3653L51.7509 50.7114L51.5779 51.0575L51.4048 51.4036L51.2318 51.7497L51.0587 52.0957L50.8857 52.4418L50.7127 52.7879L50.5396 53.134L50.3666 53.4801L50.1935 53.8262L50.0205 54.1723L49.8474 54.5184H49.559H49.2706H48.9822H48.6938H48.4053H48.1169H47.8285H47.5401H47.2517H46.9633H46.6749H46.3865H46.098H45.8096H45.5212H45.2328L45.5789 53.7685L45.925 53.0187L46.2711 52.2688L46.6172 51.5189L46.9633 50.769L47.3094 50.0192L47.6555 49.2693L48.0016 48.5194L48.3477 47.7695L48.6938 47.0197L49.0398 46.2698L49.3859 45.5199L49.732 44.7701L50.0781 44.0202L50.4242 43.2703L50.7703 42.5204L50.828 42.4051L50.8857 42.2897L50.9434 42.232L51.0011 42.1743L51.1164 42.1167L51.2318 42.059L51.3471 42.0013L51.4625 41.9436L51.5779 41.8859L51.6932 41.8282H51.8086H51.924L52.1547 41.7706L52.3854 41.7129H63.8643V41.4821ZM72.2283 41.7706L72.632 42.4051V53.5955V53.6532V53.7109V53.7685V53.8262L72.9781 53.134L73.3242 52.4418L73.6703 51.7497L74.0164 51.0575L74.3625 50.3653L74.7086 49.6731L75.0547 48.9809L75.4008 48.2887L75.7469 47.5965L76.093 46.9043L76.4391 46.2121L76.7852 45.5199L77.1313 44.8277L77.4774 44.1355L77.8235 43.4433L78.1696 42.7512L78.2273 42.6358L78.2849 42.5204L78.3426 42.4051L78.4003 42.3474L78.5157 42.2897L78.631 42.232L78.7464 42.1743L78.8618 42.1167L78.9771 42.059L79.0925 42.0013L79.2079 41.9436L79.3232 41.8859L79.4386 41.8282H79.554H79.6693H79.7847H79.9H80.0154H80.1308H80.2461H80.4769H80.7076H80.9383H81.1691H81.3998H81.6305L81.8036 41.8859L81.9766 41.9436L82.1497 42.0013L82.3227 42.1167L82.4958 42.232L82.6688 42.3474L82.8419 42.4628L83.0149 42.5781L83.188 42.9819L83.361 43.328L83.5341 43.7318L83.7071 44.0779L83.8802 44.424L84.0532 44.7701L84.2262 45.1162L84.3993 45.4622L84.5723 45.8083L84.7454 46.1544L84.9184 46.5005L85.0915 46.8466L85.2645 47.1927L85.4376 47.5965L85.6106 47.9426L85.7837 48.3464V48.4041V48.4617V48.5194V48.5771L86.0144 48.1733L86.2451 47.7695L86.4759 47.3081L86.7066 46.8466L86.9373 46.3852L87.1681 45.9237L87.3988 45.4622L87.6295 45.0008L87.8603 44.5393L88.091 44.0779L88.3217 43.6164L88.5524 43.1549L88.7832 42.6935L89.0139 42.232L89.1869 41.7706L89.4177 41.3091H89.7061H89.9945H90.2829H90.5713H90.8597H91.1482H91.4366H91.725H92.0134H92.3018H92.5902H92.8786H93.167H93.4555H93.7439H94.0323L93.6862 42.059L93.3401 42.8089L92.994 43.5587L92.6479 44.3086L92.3018 45.0585L91.9557 45.8083L91.6096 46.5582L91.2635 47.3081L90.9174 48.058L90.5713 48.8078L90.2252 49.5577L89.8791 50.3076L89.533 51.0575L89.1869 51.8073L88.8408 52.5572L88.4948 53.3071L88.4371 53.3648L88.3794 53.4224L88.3217 53.4801L88.264 53.5378L88.2064 53.5955L88.1487 53.6532L88.091 53.7109L88.0333 53.7685H87.9756H87.9179H87.8026H87.6872H87.5142H87.3411H87.1681H86.995H86.822H86.6489H86.3028H85.9567L85.8414 53.7109L85.726 53.6532L85.6683 53.5955L85.6106 53.5378L85.5529 53.4801L85.4953 53.4224L85.4376 53.3648L85.3799 53.3071L85.2645 53.1917L85.1492 53.0763L85.0338 52.961L84.9184 52.7879L81.6305 46.4428H81.5729H81.5152H81.4575H81.3998L81.3421 46.5005L81.2844 46.5582L81.2268 46.6159L81.1691 46.6736L81.1114 46.8466L81.0537 47.0197L80.996 47.0774L80.9383 47.135L80.8807 47.1927L80.823 47.2504L80.6499 47.6542L80.4769 48.058L80.3038 48.4617L80.1308 48.8655L79.9577 49.2693L79.7847 49.6731L79.554 50.0768L79.3232 50.4806L79.0925 50.8844L78.8618 51.2882L78.631 51.692L78.4003 52.0957L78.1696 52.4995L77.9388 52.9033L77.7081 53.3071L77.4774 53.7109H73.0358L72.9205 53.1917L72.4013 53.4224H63.4605L63.4028 53.3648L63.3451 53.3071L63.2875 53.2494L63.2298 53.1917L63.1721 53.0763L63.1144 52.961L63.0567 52.8456L62.999 52.7303L62.9414 52.6149V52.4995V52.3842V52.2688V52.1534V52.0381V51.9227V51.8073V51.692V51.5766H69.3441L69.4595 51.4612V46.5005L69.3441 46.3852L68.7673 46.8466L68.1905 47.3081L67.6137 47.7695L67.0368 48.231L66.46 48.6925L65.8832 49.1539L65.3063 49.6154L64.7295 50.0768L64.1527 50.5383L63.5759 50.9998L62.999 51.4612L62.4222 51.9227L61.8454 52.3265L61.2686 52.7303L60.6917 53.134L60.1149 53.5378H59.7688H59.4227H58.9613H58.6152H58.2691H57.923H57.5769H57.2308H56.8847H56.5386H56.1925H55.8464H55.5003H55.1542H54.8081H54.462L55.4426 52.7303L56.4232 51.9227L57.4038 51.1151L58.3844 50.3076L59.365 49.5L60.3456 48.6925L61.3263 47.8849L62.3068 47.0774L63.2875 46.2698L64.2681 45.4622L65.2487 44.6547L66.2293 43.8471L67.2099 43.0396L68.1905 42.232L69.1711 41.4245L70.1517 40.6169L70.3247 40.5592L70.4978 40.5015L70.6708 40.4439L70.8439 40.3862L71.0169 40.3285L71.19 40.2708L71.363 40.2131H71.5361H71.7091H71.8822H71.9398H71.9975H72.0552H72.1129H72.1706H72.2283H72.2859H72.3436L72.4013 40.2708L72.459 40.3285L72.5167 40.3862L72.2283 41.7706Z" fill="#02589D"/>
</svg>
