<svg width="120" height="56" viewBox="0 0 120 56" fill="none" xmlns="http://www.w3.org/2000/svg">
<path d="M55.5379 19.2508C53.9368 17.1341 52.0307 15.9467 50.0681 14.9924C49.7501 14.8378 49.4302 14.6893 49.1094 14.5435C50.039 14.9007 50.9374 15.3089 52.3733 16.1086C53.9483 16.9858 55.3639 18.857 56.2583 20.1507C56.3693 20.3113 56.4819 20.4719 56.5952 20.632C56.2469 20.1906 55.8974 19.726 55.5379 19.2508Z" fill="#43565C"/>
<path fill-rule="evenodd" clip-rule="evenodd" d="M39.6742 22.6777C39.7422 23.2371 39.8252 23.7946 39.9233 24.3496C43.8381 37.1341 48.3927 38.0834 59.5866 38.5671C68.2821 38.9428 73.2596 36.8356 76.1911 34.197C79.1251 31.5562 80.0267 28.3686 80.5404 26.5429C80.9095 25.2308 81.1539 23.9639 81.2613 22.6781L87.4945 22.6777C87.2415 26.807 85.9122 30.8038 83.1028 34.3413C79.629 38.5191 74.1977 40.4406 69.4979 41.3142C64.7956 42.1883 60.8048 42.0179 60.1924 41.9989C59.581 41.98 57.345 42.0108 54.5901 41.7778C51.8345 41.5444 48.5514 41.0466 45.852 39.9663C44.6627 39.4904 43.6351 39.0016 42.731 38.488C40.2862 37.0499 38.0255 34.9581 36.9202 33.4225C35.5326 31.4948 33.867 28.1181 33.3906 22.6783L39.6742 22.6777ZM60.048 22.6777C60.2385 22.9355 60.3879 23.086 60.4689 23.1063C60.517 23.0977 60.5727 23.0593 60.6548 22.9629C60.7187 22.8879 60.7883 22.7904 60.8621 22.6781L66.3053 22.6777C65.3654 23.3652 64.5517 24.1515 63.786 25.0931C62.5347 26.6317 61.8189 28.1451 61.5902 28.8824C61.3521 29.6498 60.8992 30.2967 60.8287 30.3927C60.7452 30.5066 60.3616 30.6037 60.2332 30.3855C60.101 30.2701 59.9663 30.0325 59.843 29.7213C59.682 29.3154 59.481 28.68 59.0754 27.8811C58.6717 27.0864 58.0639 26.1273 57.0873 25.069C56.2441 24.1554 55.367 23.3544 54.471 22.6781L60.048 22.6777Z" fill="#657681"/>
<path fill-rule="evenodd" clip-rule="evenodd" d="M33.3869 22.6778C33.3011 21.698 33.2539 20.6507 33.2539 19.5328V19.4979L33.2541 19.4641L33.2542 19.4301L33.2544 19.3963C33.2969 14.2377 35.7226 9.56031 37.4902 7.54735C37.7332 7.2706 38.6249 6.27173 39.3951 5.5638C41.6088 3.529 47.5954 -0.33034 60.9381 0.0226507C68.5265 0.03976 73.1482 1.01364 76.2751 2.33825C77.8392 3.00086 79.027 3.75037 80.0236 4.50918C81.0161 5.26521 81.8186 6.03063 82.6159 6.72903L82.6373 6.74779L82.6463 6.77436C82.6513 6.78936 86.4236 11.2208 87.2789 17.4929C87.5155 19.2284 87.5958 20.9642 87.4909 22.6773L81.2577 22.6777C81.3673 21.3651 81.3341 20.0325 81.1451 18.6119C81.0123 17.8722 80.8733 17.2806 80.7729 16.8915C80.7949 16.8769 80.6386 17.0092 80.6386 17.0092C80.6386 17.0092 79.532 17.6786 74.172 19.2556C70.608 20.3043 68.1982 21.29 66.3017 22.6775L60.8585 22.6776C60.8737 22.6548 60.8891 22.631 60.9046 22.6067C61.0879 22.319 61.2841 21.9677 61.4651 21.6797C61.8652 21.0436 63.0801 19.3537 64.8073 17.7729C66.4933 16.2297 70.5402 14.412 73.5305 13.3274C74.0318 13.1459 74.5287 12.9531 75.0209 12.7492C76.2514 12.1952 77.4694 11.4923 78.5616 10.789C78.49 10.5165 78.4091 10.3416 78.3655 10.2532C78.3655 10.2532 78.3131 10.1203 78.191 9.89635C78.0668 9.66815 77.8696 9.3433 77.5785 8.95676C76.9958 8.18279 76.0345 7.15879 74.523 6.16555C73.8206 5.69205 72.8035 5.16706 71.4718 4.59075C68.82 3.52765 65.2034 2.74032 60.3066 2.74032C52.7209 2.74032 48.2845 4.60838 45.7473 6.46534C44.4781 7.39412 43.6819 8.32169 43.2036 9.01522C42.9651 9.36101 42.8052 9.64916 42.7051 9.85095C42.6071 10.0483 42.461 10.3318 42.461 10.3318C42.3167 10.7261 42.4805 10.8942 42.7751 11.0812C43.3711 11.4594 44.2642 11.9795 44.4282 12.0745C45.1523 12.4256 46.1501 12.8647 47.4259 13.3274C50.4161 14.4121 54.463 16.2298 56.149 17.773C57.8782 19.3556 59.0096 21.0774 59.4076 21.7101C59.5881 21.997 59.801 22.3411 60.0024 22.6208C60.0166 22.6405 60.0307 22.6596 60.0443 22.6782L54.4674 22.6777C53.2819 21.7831 52.0634 21.1064 50.8471 20.6759C48.693 19.9133 46.4851 19.4403 45.5157 19.151C45.0537 19.0131 44.4974 18.8401 44.0411 18.6967C43.7937 18.6189 43.5464 18.5406 43.2994 18.4618L43.1839 18.4228C42.1361 18.066 41.0623 17.6155 40.05 17.0433C40.0105 17.0209 39.9857 17.0159 39.9723 17.0154C39.962 17.0148 39.9518 17.0176 39.9433 17.0234C39.9322 17.0305 39.9192 17.0427 39.9029 17.0636C39.8845 17.0872 39.8684 17.1128 39.8522 17.1363C39.7938 17.222 39.5647 19.0457 39.526 21.2013C39.5306 21.2012 39.5605 21.7742 39.6705 22.678L33.387 22.6777" fill="#657681"/>
<path d="M39.7585 24.1458C43.7075 37.2225 48.3013 38.1975 59.5955 38.6854C77.0266 39.4386 79.6299 30.2386 80.6579 26.5839C81.7926 22.55 81.1574 17.2751 81.1574 17.2751L82.9278 23.1706L79.4325 34.2524L74.5298 37.7988L69.3096 39.3501L60.9571 40.2808L50.2897 39.3501L44.2523 36.3803L41.2108 32.1249L40.0307 28.0911C40.0307 28.0911 39.5312 25.2099 39.7585 24.1458Z" fill="#CCCCCC"/>
<path d="M80.8364 15.8995C80.8364 15.8995 82.7441 23.6132 79.6998 29.7763C76.6556 35.9397 73.7594 39.7046 60.2282 39.7492C46.6972 39.7938 43.8869 34.2944 41.7965 30.4848C39.7061 26.6752 39.4375 21.2204 39.4375 21.2204L39.1914 27.6279L43.0646 34.7405L46.2915 37.624L50.8726 39.5707L63.13 40.3238L68.5333 39.5707L74.2966 38.1539L79.7913 33.6753L81.9676 26.006L81.7446 17.5C81.4065 16.194 81.1037 15.6604 80.8364 15.8995Z" fill="#666666"/>
<path d="M37.0437 11.8591L38.2994 12.6628C38.2994 12.6628 38.1028 21.5868 38.0635 21.7379C38.0241 21.8888 38.0635 26.7143 38.0635 26.7143L39.6704 32.8377L38.9652 33.4136L35.5547 24.6076L35.9086 17.3348L36.6137 12.7781L37.0437 11.8591Z" fill="#808080"/>
<path d="M81.2088 16.1347C81.2088 16.1347 83.1454 24.0515 80.2161 30.1695C77.2868 36.2876 75.1755 39.3758 60.8522 39.9262C49.234 40.2106 46.2136 37.257 44.0663 35.1076C42.3677 33.4073 41.186 30.5626 41.186 30.5626C41.186 30.5626 35.9426 21.0888 36.4983 24.0773C37.2265 27.9932 38.3887 33.6045 42.9051 37.1265C45.6715 39.2839 51.251 40.6137 51.251 40.6137L59.9898 41.2889L67.8089 40.8362L80.1765 36.18L85.4653 24.8896C85.219 19.6421 84.701 15.3011 83.9113 11.8669L82.1863 13.3211L81.2088 16.1347Z" fill="url(#paint0_linear_583_5509)"/>
<path d="M37.5616 8.47493C37.5616 8.47493 37.3337 10.8556 37.8789 12.2533C37.1422 13.4053 36.1721 16.8562 36.0463 19.6284C35.9205 22.4009 36.451 29.6354 40.1106 33.7646C39.4996 34.8935 39.1357 35.5887 39.1357 35.5887C39.1357 35.5887 33.375 31.7703 33.375 19.5466C33.375 13.6512 36.6274 8.35359 38.3523 6.95581C37.8254 7.67515 37.5616 8.47493 37.5616 8.47493Z" fill="url(#paint1_radial_583_5509)"/>
<path d="M33.7969 21.8934C33.7969 21.8934 33.9624 27.8164 36.2294 31.5738C38.4965 35.331 40.5419 37.7339 45.9103 39.8825C51.2788 42.031 58.9918 41.8694 60.2134 41.9072C61.4349 41.945 76.1359 42.5878 83.0358 34.2894C86.9889 29.3117 88.0169 23.4162 87.1931 17.5207C86.3695 11.6252 83.3067 8.18066 83.3067 8.18066C83.3067 8.18066 83.7326 9.24977 83.2292 12.2027C83.9756 13.4713 85.1865 17.6823 84.9543 21.0512C84.7219 24.4201 84.0887 28.9897 81.4656 32.5672C79.7794 34.867 78.4416 36.4758 74.7593 38.1603C71.0771 39.8447 65.4376 40.6869 60.3401 40.6113C55.2427 40.5356 50.3389 40.1471 46.2202 38.3115C42.1013 36.4758 39.9117 33.6845 38.3416 31.4603C36.7716 29.2361 37.9825 30.3637 36.064 28.5177C34.1455 26.6716 33.7969 21.8934 33.7969 21.8934Z" fill="#121113"/>
<path d="M37.6836 7.52681C37.6836 7.52681 43.0022 -0.333923 60.9507 0.140784C76.1134 0.174777 79.3771 4.03239 82.5592 6.82037C82.6282 7.02373 81.2987 8.0764 81.2987 8.0764L79.1162 8.87664L72.8648 4.08469L61.7596 1.72076C61.7596 1.72076 51.3088 2.92877 50.8745 2.87654C50.4403 2.82431 43.594 6.55908 43.594 6.55908L42.314 10.3918L38.2585 7.40126L37.6836 7.52673" fill="#C9CDD1"/>
<path d="M38.6374 6.93031C38.6374 6.93031 43.505 -0.177834 60.9367 0.283215C75.6627 0.316233 79.2397 4.43319 82.3305 7.14095C81.3445 7.96317 80.3064 7.84814 80.3064 7.84814L78.5792 8.76753L72.5077 4.11359L61.7223 1.8178C61.7223 1.8178 51.5725 2.99113 51.1507 2.9404C50.7289 2.8896 44.0797 6.51684 44.0797 6.51684L40.5521 8.65745L38.4219 7.40412L38.6374 6.93031Z" fill="#E6E6E6"/>
<path d="M38.6367 7.72049C38.6367 7.72049 44.5124 1.29858 60.1987 1.29858C75.885 1.29858 81.6164 6.48404 82.218 7.26731C81.5364 8.12308 80.3053 9.03655 80.3053 9.03655C76.2867 6.57071 72.5132 4.62303 68.9852 3.19366L59.498 1.82507C59.498 1.82507 48.2858 4.35169 48.0701 4.35169C47.8546 4.35169 42.0327 8.35225 42.0327 8.35225C42.0327 8.35225 41.5567 9.13433 41.114 9.03752C39.908 8.08346 38.6367 7.72049 38.6367 7.72049Z" fill="#808080"/>
<path d="M78.4695 10.2253C78.4695 10.2253 75.5273 2.64856 60.3184 2.64856C45.1097 2.64856 42.4771 10.1405 42.4771 10.1405L41.75 8.89651L44.3374 5.43962L51.1921 2.37908L55.9531 1.66822L60.4989 1.44873L66.3259 1.75812L70.9141 2.71264L77.2469 5.84123L80.6775 8.4958L80.9225 8.76444L78.4695 10.2253Z" fill="#2A2E33"/>
<path d="M78.0436 11.3989C78.0436 11.3989 76.5756 12.3546 73.5839 13.4397C70.5923 14.5247 66.5653 16.3364 64.897 17.8633C63.1781 19.4365 61.9691 21.1188 61.573 21.7485C61.1769 22.3781 60.7089 23.3114 60.4602 23.2203C60.4291 23.7589 60.3047 26.9759 60.3047 26.9759L60.4913 27.0973L62.0607 24.4492L67.2667 18.918L69.6364 16.4522L77.7097 12.6886L78.0436 11.3989Z" fill="#B3B3B3"/>
<path d="M73.2873 13.632C72.3156 14.048 67.7557 15.4513 65.4976 18.1449C64.7277 19.0632 63.3777 21.4816 63.009 22.0666C62.6403 22.6518 60.8561 26.3806 60.4215 26.895C59.987 27.4094 62.7391 24.7219 62.7391 24.7219C62.7391 24.7219 70.205 18.2414 70.3697 18.1449C70.5343 18.0485 73.1875 15.7147 73.1875 15.7147C73.1875 15.7147 74.05 13.3055 73.2874 13.632" fill="#121113"/>
<path d="M82.8166 7.81445C82.8166 7.81445 78.9058 11.1835 74.9226 12.9321C70.9394 14.6809 65.971 16.3536 62.9966 22.7433C60.7348 26.6403 66.5282 19.2457 66.5282 19.2457L69.5766 17.1111L76.6475 14.0315L80.262 11.7685L82.8166 7.81445Z" fill="#333333"/>
<path d="M82.8758 7.74951C82.8758 7.74951 80.0932 10.4855 76.1735 12.6422C74.8765 13.3558 71.4277 14.8306 69.84 15.6509C66.3419 17.4584 64.5334 20.64 63.9672 21.2893C63.401 21.9387 60.4844 27.0563 60.4844 27.0563L61.7419 26.7927L66.5876 20.5436L70.5313 18.2098L79.5248 15.4581L82.4744 13.0601C82.4744 13.0601 83.189 13.414 83.4027 10.1477C83.5344 8.1353 82.8759 7.74959 82.8759 7.74959L82.8758 7.74951Z" fill="#E6E6E6"/>
<path d="M76.2629 18.4846L70.3065 20.3533L66.9643 21.6955L62.7328 24.7749C62.7328 24.7749 61.7355 26.5121 61.6547 26.8805C61.5738 27.249 60.954 29.2492 60.954 29.2492L60.8731 29.9073L60.6574 30.1703L60.4688 28.986L60.5752 27.3697L61.4013 25.8772L62.3555 24.2749L64.1344 22.4062L66.587 20.9849L70.7377 19.7216L74.1876 18.8531L76.2629 18.4846Z" fill="#333333"/>
<path d="M80.5914 16.9384C80.5914 16.9384 79.4959 17.5984 74.1579 19.169C68.8197 20.7396 66.0459 22.1754 63.7149 25.0418C62.4561 26.5897 61.7334 28.1148 61.5003 28.866C61.2673 29.6172 60.8223 30.253 60.7544 30.3456C60.6845 30.4409 60.3249 30.4816 60.3203 30.2768C60.3188 30.2062 60.6285 30.4681 60.7334 29.7149C60.7301 28.8411 60.8121 27.2945 61.3373 26.3849C62.0598 25.1328 63.1554 23.6305 64.9269 22.6062C66.6986 21.5819 68.9829 20.6942 70.4747 20.1707C71.9667 19.647 75.6962 18.6455 77.3047 18.0764C78.9131 17.5073 80.941 16.6423 80.941 16.6423L80.5914 16.9384Z" fill="#999999"/>
<path d="M60.6176 27.2495C60.6176 27.2495 60.7041 29.6495 60.6176 29.9029C60.5311 30.1564 60.1012 29.7761 60.1012 29.7761L58.3546 25.7974L55.897 23.3131L52.1658 21.0371L50.5274 20.4061L47.8967 19.6061L46.8179 19.2894L46.6016 18.6794L52.101 19.9863L56.2187 22.0905L58.3329 24.0284L59.9066 26.1327L60.6176 27.2495Z" fill="#B3B3B3"/>
<path d="M42.9453 11.3989C42.9453 11.3989 44.4134 12.3546 47.405 13.4397C50.3967 14.5247 54.4238 16.3364 56.092 17.8633C57.8109 19.4365 58.9364 21.1491 59.3324 21.7788C59.7285 22.4085 60.28 23.3114 60.5289 23.2203C60.5598 23.7589 60.6843 26.9759 60.6843 26.9759L60.4977 27.0973L58.9282 24.4492L53.7222 18.918L51.3524 16.4522L43.2791 12.6886L42.9453 11.3989Z" fill="#CCCCCC"/>
<path d="M59.964 26.1944L57.8302 23.593L53.9552 20.346L41.6439 15.6558L37.8913 12.3433C37.8913 12.3433 37.0145 9.53502 37.5636 8.49233C37.544 8.16516 38.169 6.46346 38.402 6.99332C39.0375 7.62449 39.8028 8.56167 42.4119 10.225C42.1869 10.7421 42.3973 10.9683 42.7348 11.1826C43.3946 11.6015 44.4181 12.1936 44.4181 12.1936L46.616 13.3772L50.895 15.4836L53.1603 16.878L55.3758 19.1567L57.0333 21.1551L58.8258 23.4337L60.6611 27.01L59.964 26.1944Z" fill="#E6E6E6"/>
<path d="M42.013 32.1547C41.0634 31.5038 39.8707 30.9645 38.7072 30.2364C37.7717 29.651 37.0353 27.2276 36.6692 25.2119C35.3653 18.0329 37.9413 12.7556 37.9413 12.7556C37.9413 12.7556 37.9864 12.6314 37.9367 12.5871C37.7496 12.42 37.8839 12.1193 38.1779 12.31C41.467 14.4442 42.31 14.4627 44.8863 15.636C48.5759 17.3163 52.4439 17.3006 56.5472 21.3389C58.5005 23.2612 60.4416 27.0461 60.6667 26.9988C60.6506 27.3759 60.5922 29.1557 60.5922 29.1557C60.5922 29.1557 60.6963 27.4437 60.1374 26.5849C57.8702 23.1019 54.5489 21.653 54.5489 21.653C54.5489 21.653 51.6881 20.1984 47.2046 19.3562C45.2718 18.9931 42.5188 18.3233 40.1192 16.9667C39.9206 16.8545 39.8469 16.9913 39.7777 17.0926C39.6472 17.2839 39.1302 22.1088 39.6662 25.2119C40.1637 28.0924 40.8458 29.651 42.013 32.1547Z" fill="#1A1A1A"/>
<path d="M38.4259 7.01294C38.4259 7.01294 39.867 8.67974 42.3287 10.2339C41.2992 9.86103 40.8385 9.80287 39.9081 9.11017C39.2835 8.645 38.4259 7.01294 38.4259 7.01294Z" fill="#3C444B"/>
<path d="M82.5228 6.93953C82.5228 6.93953 81.3792 8.14183 80.6131 8.70193C79.8469 9.26196 78.5625 10.1797 78.5625 10.1797L80.902 9.05035L82.5228 6.93945" fill="#121113"/>
<path d="M40.2969 8.51132C40.2969 8.51132 42.3593 5.72161 45.8092 4.08707C49.2591 2.45269 51.5603 2.10315 53.6909 1.79683C55.737 1.50267 59.883 1.42628 60.2089 1.42065H60.2293C60.5648 1.42606 64.9474 1.50245 66.9958 1.79683C69.1264 2.10315 71.4453 2.3859 74.8951 4.02044C78.3451 5.65482 80.7747 8.59236 80.7747 8.59236C80.7747 8.59236 79.9091 8.79092 79.3807 9.2137C78.8523 9.63648 78.6537 9.44565 78.6537 9.44565C78.6537 9.44565 78.6066 8.27832 77.0011 6.57054C75.3954 4.86284 72.9138 3.85407 69.7025 2.73236C66.5981 1.6478 60.6235 1.61163 60.2293 1.61051H60.2089C59.8249 1.61171 54.087 1.64825 50.9841 2.73236C47.7728 3.85407 45.9047 5.14244 44.299 6.85022C42.6934 8.55792 42.3593 10.289 42.3593 10.289C42.3593 10.289 41.8344 9.63648 41.306 9.21362C40.7776 8.79092 40.297 8.51124 40.297 8.51124L40.2969 8.51132Z" fill="#1A1A1A"/>
<path fill-rule="evenodd" clip-rule="evenodd" d="M56.5883 20.637C56.241 20.1729 55.8925 19.7097 55.5427 19.2474C53.9408 17.1296 52.0334 15.9417 50.0703 14.987C49.7528 14.8332 49.4331 14.6835 49.1115 14.5379C50.0351 14.9081 50.9332 15.3162 52.3688 16.1158C53.9421 16.992 55.3568 18.8619 56.2514 20.1557C56.3628 20.3168 56.4751 20.4772 56.5883 20.637ZM37.9766 7.85132C38.2576 8.15493 40.4796 9.98585 44.1371 12.3156C47.8742 14.696 52.2224 15.2134 55.3693 19.374C57.8203 22.6145 58.0718 22.2683 60.2796 26.2739C59.8696 25.131 59.4365 24.3351 58.8816 23.4865C58.3267 22.6378 57.3222 21.327 56.4301 20.0365C55.538 18.7462 54.0982 16.835 52.4753 15.9312C50.8525 15.0273 49.9114 14.6202 48.8507 14.2061C47.7899 13.7921 46.0618 13.1367 44.39 12.2052C42.7182 11.2736 39.8451 9.35543 37.9766 7.85132Z" fill="#3C444B"/>
<path d="M60.7734 27.0402C62.4265 23.5449 64.0221 21.5377 67.3354 19.1969C69.2529 17.8424 70.6366 17.5928 72.8247 16.745C74.2741 16.1833 75.1449 16.0032 76.5891 15.429C79.2284 14.3793 80.4042 13.8629 83.1192 12.2275C83.3079 12.8523 81.904 15.3053 80.9014 16.745C78.0806 17.9583 75.8098 18.6317 72.4312 19.404C70.4044 19.8673 68.9134 20.3457 66.8539 21.1586C63.404 22.5203 62.4056 24.1971 60.7734 27.0403V27.0402Z" fill="#1A1A1A"/>
<path d="M59.8444 26.8814C60.3797 27.9145 60.626 28.8291 60.626 29.7502C60.626 30.6714 60.2756 30.5134 59.9521 29.6976C59.6286 28.8817 59.1436 27.1446 57.176 25.0127C55.2085 22.8808 53.0523 21.3543 50.8962 20.591C48.7399 19.8279 46.5298 19.354 45.5595 19.0645C44.5892 18.775 43.2031 18.3306 43.2031 18.3306L45.6404 18.933C45.6404 18.933 51.1656 20.1437 54.3191 21.9597C57.4725 23.7757 58.9981 25.2486 59.8444 26.8814Z" fill="#CCCCCC"/>
<path d="M37.558 8.47896C37.4376 8.62176 34.3556 12.3385 33.375 19.5463C33.375 13.9669 36.2986 8.7936 38.0743 7.07007C37.8258 7.43214 37.5562 8.24093 37.558 8.47896Z" fill="#C9CDD1"/>
<path d="M42.3463 10.2714C42.3463 10.2714 41.5672 9.26994 40.5924 8.52343C39.6177 7.77693 38.875 7.47241 38.875 7.47241C38.875 7.47241 39.4147 8.11979 40.5127 8.96542C41.6109 9.81113 42.3463 10.2714 42.3463 10.2714Z" fill="#121113"/>
<path d="M38.875 7.47925C38.875 7.47925 39.4975 7.6661 40.407 8.38439C40.407 8.38439 42.3605 5.79646 45.2503 4.35988C48.1402 2.92353 50.9951 2.02784 54.9139 1.64941C54.9139 1.64941 50.0786 1.80933 45.167 4.24822C42.3824 5.631 40.385 8.17825 40.385 8.17825C39.8982 7.82781 39.3949 7.59488 38.875 7.47925Z" fill="#C9CDD1"/>
<path d="M83.1545 12.0977C83.1545 12.0977 83.6863 12.775 84.3461 15.3774C84.8476 17.3555 84.9566 19.2992 84.9566 19.2992C84.9566 19.2992 84.5308 15.2543 83.1172 12.2298L83.1545 12.0977Z" fill="#E6E6E6"/>
<path d="M60.2305 1.29927C60.5857 1.29071 64.9628 1.35968 67.017 1.65496C68.0867 1.80879 69.2036 1.95685 70.4862 2.27142C71.7715 2.58667 73.2228 3.0688 74.9587 3.89125C76.7011 4.71684 78.1829 5.86962 79.2275 6.8137C79.6652 7.20993 80.0852 7.62447 80.4863 8.05615C80.6195 8.19993 80.7501 8.34604 80.878 8.49439L80.7746 8.59119C80.7746 8.59119 78.345 5.6538 74.8951 4.01934C71.4452 2.38481 69.1263 2.10205 66.9957 1.79574C64.9474 1.50135 60.2305 1.29927 60.2305 1.29927Z" fill="#F2F2F2"/>
<path d="M47.4844 36.9072C54.2974 40.0676 67.9762 39.88 73.8341 36.9072C67.6753 40.533 54.2222 40.7207 47.4844 36.9072Z" fill="#E6E6E6"/>
<path d="M80.5042 29.8236H82.8661C82.8661 29.8236 80.2817 36.3968 73.0487 38.6844C70.0219 39.6419 65.4883 39.6941 65.4883 39.6941C73.7599 39.2204 78.0133 36.6381 80.5042 29.8235V29.8236Z" fill="#CCCCCC"/>
<path d="M61.8828 24.8914C61.8828 24.8914 64.045 20.456 69.1685 17.9485C70.5176 17.2881 72.7761 16.7588 72.7761 16.7588L71.4616 17.2412C69.9904 17.7579 68.8235 18.1434 67.3349 19.195C64.7786 21.0009 63.2448 22.6084 61.9181 24.8538L61.8828 24.8914Z" fill="white"/>
<path d="M61.1172 26.8475C61.1172 26.8475 62.1134 22.5268 69.24 20.4578C64.6971 22.1349 62.6743 23.6001 61.1172 26.8475V26.8475Z" fill="#B3B3B3"/>
<path d="M60.3811 30.0394C60.3277 29.9554 60.2563 29.8212 60.1748 29.6156C60.0114 29.2033 59.8066 28.5587 59.3947 27.7476C58.9783 26.9277 58.3534 25.943 57.3544 24.8604C56.5244 23.9612 55.6596 23.1668 54.7734 22.4897C57.5245 24.143 58.8752 25.5059 59.6414 26.9844C60.1641 27.9929 60.398 28.8723 60.398 29.7504C60.398 29.8728 60.3913 29.9681 60.3811 30.0394Z" fill="#E6E6E6"/>
<path d="M78.4844 10.2594L78.6497 10.7397C78.6497 10.7397 79.4721 10.2965 80.9518 9.18295C82.4316 8.06919 82.8894 7.73789 82.8894 7.73789C82.8894 7.73789 83.3136 8.05681 84.8102 10.4416C84.8102 10.4416 84.3437 9.03789 82.6477 6.95972L80.9264 9.03384L78.4844 10.2594Z" fill="#ECECEC"/>
<path d="M55.2018 19.1598C52.8187 16.656 51.138 16.0877 48.0865 15.0212C45.1561 13.9971 43.948 12.3877 43.7188 12.0481C43.857 12.1374 43.9955 12.2263 44.1344 12.3147C47.8067 14.6539 52.0691 15.194 55.2018 19.1598Z" fill="#666666"/>
<path d="M69.0854 54.0136H71.8496C71.8496 54.0136 73.0576 54.0055 73.0576 52.1532C73.0576 50.2646 71.8496 50.2618 71.8496 50.2618H69.0854V54.0136ZM51.8425 52.7509C51.5485 52.7509 51.31 53.0168 51.31 53.345C51.31 53.6731 51.5485 53.9391 51.8426 53.9391L55.0658 53.9385V52.7513L51.8425 52.7509ZM78.0748 52.7509C77.7807 52.7509 77.5423 53.0169 77.5423 53.345C77.5423 53.6732 77.7807 53.9391 78.0748 53.9391L81.298 53.9385V52.7514L78.0748 52.7509V52.7509ZM76.9492 51.2167H81.3448C81.3455 50.7985 81.3159 50.1364 80.3118 50.1359C79.2748 50.1354 75.8033 50.1359 75.8033 50.1359V48.2502C75.8033 48.2502 79.155 48.2512 81.298 48.2507C82.6361 48.2504 83.6936 48.7832 83.6939 50.3443L83.6928 55.9952H76.9639L77.0407 56.0001C76.1496 56.0001 75.4004 55.2341 75.1901 54.1985C74.5909 55.995 73.1422 55.9943 72.0216 55.9916L66.6047 55.9916V49.9248L58.9825 55.9952H50.7318L50.8084 56C50.0684 56 49.426 55.4716 49.1092 54.6992L49.1079 55.9952H46.7536V51.0101C46.7536 51.0101 46.7481 50.3461 46.0237 50.3445H44.2833V55.9951H41.9542V50.3445H39.5119V55.9951H37.0977L37.1015 48.2501L46.9291 48.25C48.0137 48.25 49.1117 48.9454 49.1117 50.3446L49.1108 52.5099C49.428 51.7401 50.0684 51.214 50.807 51.214L50.717 51.2167H55.1126C55.1132 50.7985 55.0836 50.1364 54.0796 50.1358C53.0425 50.1354 49.5711 50.1358 49.5711 50.1358V48.2502C49.5711 48.2502 52.9227 48.2512 55.0658 48.2507C56.4039 48.2504 57.4615 48.7832 57.4616 50.3443L57.4608 54.2308L65.1576 48.2502H66.6047L72.0402 48.2503C73.4705 48.2503 75.4681 48.2503 75.4681 52.1113L75.4673 52.2503C75.8115 51.6244 76.3871 51.214 77.0392 51.214L76.9492 51.2167ZM58.3051 48.2502H63.7989L61.3662 50.3446H58.3036L58.3051 48.2502ZM65.8911 55.9892H60.3973L62.8302 53.8948H65.8927L65.8911 55.9892Z" fill="url(#paint2_linear_583_5509)"/>
<path d="M47.6914 19.4475C47.6914 19.4475 48.1838 19.5526 48.3412 19.5886C50.1441 19.9901 51.6268 20.4714 52.6908 20.8684C53.6006 21.271 54.6208 21.7983 55.7283 22.4891C60.272 25.323 60.2969 27.6871 60.2969 27.6871C60.2969 27.6871 60.2323 26.0597 57.4596 23.7975C54.6654 21.5178 49.9169 20.0727 48.5126 19.6798C48.2552 19.6078 47.6914 19.4475 47.6914 19.4475Z" fill="#808080"/>
<defs>
<linearGradient id="paint0_linear_583_5509" x1="79.6108" y1="14.1991" x2="79.1493" y2="33.4557" gradientUnits="userSpaceOnUse">
<stop stop-color="#999999"/>
<stop offset="1" stop-color="#D7D7D7"/>
</linearGradient>
<radialGradient id="paint1_radial_583_5509" cx="0" cy="0" r="1" gradientUnits="userSpaceOnUse" gradientTransform="translate(35.2702 19.1464) rotate(-36.1227) scale(12.0547 7.39241)">
<stop stop-color="white"/>
<stop offset="1" stop-color="#919191"/>
</radialGradient>
<linearGradient id="paint2_linear_583_5509" x1="82.7418" y1="59.062" x2="28.6611" y2="44.3014" gradientUnits="userSpaceOnUse">
<stop stop-color="#121113"/>
<stop offset="1" stop-color="#808080"/>
</linearGradient>
</defs>
</svg>
