<svg width="120" height="56" viewBox="0 0 120 56" fill="none" xmlns="http://www.w3.org/2000/svg">
<path d="M55.1414 19.2508C53.5403 17.1341 51.6342 15.9467 49.6716 14.9924C49.3536 14.8378 49.0337 14.6893 48.7129 14.5435C49.6425 14.9007 50.5409 15.3089 51.9768 16.1086C53.5518 16.9858 54.9674 18.857 55.8618 20.1507C55.9728 20.3113 56.0855 20.4719 56.1987 20.632C55.8504 20.1906 55.5009 19.726 55.1414 19.2508Z" fill="#43565C"/>
<path fill-rule="evenodd" clip-rule="evenodd" d="M39.2787 22.6776C39.3466 23.237 39.4297 23.7945 39.5278 24.3495C43.4426 37.134 47.9972 38.0832 59.1911 38.567C67.8866 38.9427 72.8641 36.8355 75.7956 34.1969C78.7296 31.556 79.6312 28.3685 80.1449 26.5427C80.514 25.2306 80.7584 23.9638 80.8658 22.678L87.099 22.6776C86.846 26.8069 85.5167 30.8037 82.7072 34.3412C79.2334 38.519 73.8022 40.4405 69.1024 41.3141C64.4001 42.1882 60.4093 42.0178 59.7969 41.9988C59.1855 41.9799 56.9495 42.0107 54.1946 41.7776C51.439 41.5443 48.1559 41.0465 45.4565 39.9661C44.2672 39.4902 43.2396 39.0015 42.3355 38.4878C39.8907 37.0498 37.63 34.9579 36.5247 33.4224C35.1371 31.4947 33.4715 28.118 32.9951 22.6781L39.2787 22.6776ZM59.6524 22.6776C59.843 22.9354 59.9924 23.0858 60.0734 23.1062C60.1215 23.0976 60.1772 23.0592 60.2593 22.9628C60.3232 22.8878 60.3928 22.7903 60.4666 22.678L65.9098 22.6776C64.9699 23.3651 64.1562 24.1514 63.3905 25.0929C62.1392 26.6316 61.4234 28.145 61.1947 28.8823C60.9566 29.6497 60.5037 30.2966 60.4332 30.3925C60.3497 30.5065 59.9661 30.6036 59.8376 30.3854C59.7055 30.27 59.5708 30.0323 59.4475 29.7212C59.2865 29.3153 59.0855 28.6799 58.6798 27.881C58.2762 27.0862 57.6684 26.1272 56.6918 25.0689C55.8486 24.1552 54.9715 23.3543 54.0755 22.678L59.6524 22.6776Z" fill="#657681"/>
<path fill-rule="evenodd" clip-rule="evenodd" d="M32.9924 22.6778C32.9066 21.698 32.8594 20.6507 32.8594 19.5328V19.4979L32.8595 19.4641L32.8597 19.4301L32.8599 19.3963C32.9023 14.2377 35.3281 9.56031 37.0957 7.54735C37.3387 7.2706 38.2303 6.27173 39.0005 5.5638C41.2142 3.529 47.2009 -0.33034 60.5436 0.0226507C68.132 0.03976 72.7537 1.01364 75.8806 2.33825C77.4447 3.00086 78.6325 3.75037 79.6291 4.50918C80.6216 5.26521 81.4241 6.03063 82.2214 6.72903L82.2427 6.74779L82.2517 6.77436C82.2568 6.78936 86.0291 11.2208 86.8844 17.4929C87.121 19.2284 87.2013 20.9642 87.0964 22.6773L80.8632 22.6777C80.9728 21.3651 80.9396 20.0325 80.7506 18.6119C80.6178 17.8722 80.4788 17.2806 80.3784 16.8915C80.4004 16.8769 80.2441 17.0092 80.2441 17.0092C80.2441 17.0092 79.1374 17.6786 73.7775 19.2556C70.2134 20.3043 67.8037 21.29 65.9071 22.6775L60.4639 22.6776C60.4792 22.6548 60.4945 22.631 60.51 22.6067C60.6934 22.319 60.8895 21.9677 61.0706 21.6797C61.4707 21.0436 62.6856 19.3537 64.4127 17.7729C66.0988 16.2297 70.1457 14.412 73.1359 13.3274C73.6372 13.1459 74.1342 12.9531 74.6264 12.7492C75.8568 12.1952 77.0749 11.4923 78.1671 10.789C78.0954 10.5165 78.0145 10.3416 77.9709 10.2532C77.9709 10.2532 77.9185 10.1203 77.7965 9.89635C77.6722 9.66815 77.4751 9.3433 77.184 8.95676C76.6013 8.18279 75.64 7.15879 74.1285 6.16555C73.4261 5.69205 72.409 5.16706 71.0772 4.59075C68.4255 3.52765 64.8089 2.74032 59.9121 2.74032C52.3264 2.74032 47.89 4.60838 45.3528 6.46534C44.0836 7.39412 43.2874 8.32169 42.8091 9.01522C42.5705 9.36101 42.4107 9.64916 42.3106 9.85095C42.2126 10.0483 42.0665 10.3318 42.0665 10.3318C41.9222 10.7261 42.086 10.8942 42.3806 11.0812C42.9765 11.4594 43.8697 11.9795 44.0337 12.0745C44.7578 12.4256 45.7555 12.8647 47.0314 13.3274C50.0216 14.4121 54.0684 16.2298 55.7545 17.773C57.4837 19.3556 58.615 21.0774 59.013 21.7101C59.1935 21.997 59.4064 22.3411 59.6079 22.6208C59.6221 22.6405 59.6361 22.6596 59.6498 22.6782L54.0729 22.6777C52.8873 21.7831 51.6688 21.1064 50.4525 20.6759C48.2985 19.9133 46.0906 19.4403 45.1211 19.151C44.6591 19.0131 44.1029 18.8401 43.6466 18.6967C43.3992 18.6189 43.1519 18.5406 42.9048 18.4618L42.7893 18.4228C41.7416 18.066 40.6678 17.6155 39.6554 17.0433C39.6159 17.0209 39.5912 17.0159 39.5778 17.0154C39.5675 17.0148 39.5572 17.0176 39.5488 17.0234C39.5377 17.0305 39.5246 17.0427 39.5084 17.0636C39.49 17.0872 39.4738 17.1128 39.4577 17.1363C39.3993 17.222 39.1702 19.0457 39.1315 21.2013C39.1361 21.2012 39.166 21.7742 39.2759 22.678L32.9925 22.6777" fill="#657681"/>
<path d="M39.365 24.1459C43.3139 37.2226 47.9078 38.1976 59.202 38.6855C76.633 39.4387 79.2364 30.2388 80.2644 26.584C81.399 22.5501 80.7639 17.2753 80.7639 17.2753L82.5343 23.1708L79.0389 34.2525L74.1363 37.799L68.916 39.3502L60.5636 40.2809L49.8962 39.3502L43.8588 36.3805L40.8173 32.1251L39.6372 28.0912C39.6372 28.0912 39.1376 25.2101 39.365 24.1459Z" fill="#CCCCCC"/>
<path d="M80.4429 15.8995C80.4429 15.8995 82.3505 23.6132 79.3063 29.7763C76.262 35.9397 73.3658 39.7046 59.8347 39.7492C46.3037 39.7938 43.4933 34.2944 41.403 30.4848C39.3125 26.6752 39.0439 21.2204 39.0439 21.2204L38.7979 27.6279L42.671 34.7405L45.898 37.624L50.479 39.5707L62.7364 40.3238L68.1397 39.5707L73.903 38.154L79.3977 33.6753L81.5741 26.006L81.3511 17.5C81.0129 16.194 80.7101 15.6604 80.4429 15.8995Z" fill="#666666"/>
<path d="M36.6511 11.8593L37.9068 12.6629C37.9068 12.6629 37.7102 21.5869 37.6709 21.738C37.6316 21.889 37.6709 26.7144 37.6709 26.7144L39.2778 32.8378L38.5727 33.4138L35.1621 24.6078L35.516 17.335L36.2212 12.7782L36.6511 11.8593Z" fill="#808080"/>
<path d="M80.8153 16.1347C80.8153 16.1347 82.7519 24.0515 79.8225 30.1695C76.8932 36.2876 74.782 39.3758 60.4586 39.9262C48.8405 40.2106 45.8201 37.257 43.6728 35.1076C41.9742 33.4073 40.7925 30.5626 40.7925 30.5626C40.7925 30.5626 35.5491 21.0888 36.1047 24.0773C36.8329 27.9932 37.9952 33.6045 42.5115 37.1265C45.2779 39.2839 50.8575 40.6137 50.8575 40.6137L59.5962 41.289L67.4154 40.8362L79.783 36.18L85.0718 24.8896C84.8254 19.6421 84.3074 15.3011 83.5177 11.8669L81.7927 13.3211L80.8153 16.1347Z" fill="url(#paint0_linear_655_5529)"/>
<path d="M37.1681 8.47493C37.1681 8.47493 36.9402 10.8556 37.4853 12.2533C36.7487 13.4053 35.7785 16.8562 35.6528 19.6284C35.527 22.4009 36.0574 29.6354 39.717 33.7646C39.1061 34.8935 38.7421 35.5887 38.7421 35.5887C38.7421 35.5887 32.9814 31.7703 32.9814 19.5466C32.9814 13.6512 36.2338 8.35359 37.9588 6.95581C37.4318 7.67515 37.1681 8.47493 37.1681 8.47493Z" fill="url(#paint1_radial_655_5529)"/>
<path d="M33.4004 21.8934C33.4004 21.8934 33.5659 27.8164 35.833 31.5738C38.1 35.331 40.1454 37.7339 45.5138 39.8825C50.8823 42.031 58.5953 41.8694 59.8169 41.9072C61.0385 41.945 75.7394 42.5878 82.6393 34.2894C86.5925 29.3117 87.6205 23.4162 86.7966 17.5207C85.973 11.6252 82.9102 8.18066 82.9102 8.18066C82.9102 8.18066 83.3361 9.24977 82.8327 12.2027C83.5791 13.4713 84.79 17.6823 84.5578 21.0512C84.3254 24.4201 83.6923 28.9897 81.0691 32.5672C79.3829 34.867 78.0451 36.4758 74.3628 38.1603C70.6806 39.8447 65.0411 40.6869 59.9437 40.6113C54.8462 40.5356 49.9424 40.1471 45.8237 38.3115C41.7048 36.4758 39.5152 33.6845 37.9452 31.4603C36.3751 29.2361 37.586 30.3637 35.6675 28.5177C33.749 26.6716 33.4004 21.8934 33.4004 21.8934Z" fill="#121113"/>
<path d="M37.29 7.52681C37.29 7.52681 42.6087 -0.333923 60.5572 0.140784C75.7198 0.174777 78.9835 4.03239 82.1657 6.82037C82.2346 7.02373 80.9051 8.0764 80.9051 8.0764L78.7226 8.87664L72.4712 4.08469L61.366 1.72076C61.366 1.72076 50.9153 2.92877 50.4809 2.87654C50.0467 2.82431 43.2005 6.55908 43.2005 6.55908L41.9205 10.3918L37.8649 7.40126L37.29 7.52673" fill="#C9CDD1"/>
<path d="M38.2439 6.93019C38.2439 6.93019 43.1114 -0.177956 60.5431 0.283093C75.2692 0.316111 78.8462 4.43307 81.9369 7.14083C80.9509 7.96305 79.9129 7.84801 79.9129 7.84801L78.1856 8.76741L72.1142 4.11347L61.3287 1.81767C61.3287 1.81767 51.1789 2.99101 50.7571 2.94028C50.3354 2.88948 43.6862 6.51672 43.6862 6.51672L40.1586 8.65733L38.0283 7.404L38.2439 6.93019Z" fill="#E6E6E6"/>
<path d="M38.2412 7.72049C38.2412 7.72049 44.1169 1.29858 59.8031 1.29858C75.4895 1.29858 81.2209 6.48404 81.8225 7.26731C81.1409 8.12308 79.9098 9.03655 79.9098 9.03655C75.8912 6.57071 72.1177 4.62303 68.5897 3.19366L59.1025 1.82507C59.1025 1.82507 47.8903 4.35169 47.6746 4.35169C47.4591 4.35169 41.6372 8.35225 41.6372 8.35225C41.6372 8.35225 41.1612 9.13432 40.7185 9.03752C39.5125 8.08346 38.2412 7.72049 38.2412 7.72049Z" fill="#808080"/>
<path d="M78.0779 10.2254C78.0779 10.2254 75.1357 2.64868 59.9268 2.64868C44.7181 2.64868 42.0855 10.1406 42.0855 10.1406L41.3584 8.89663L43.9458 5.43974L50.8005 2.37921L55.5615 1.66835L60.1073 1.44885L65.9343 1.75824L70.5225 2.71276L76.8553 5.84136L80.2859 8.49592L80.5309 8.76456L78.0779 10.2254Z" fill="#2A2E33"/>
<path d="M77.6462 11.3989C77.6462 11.3989 76.1781 12.3546 73.1864 13.4397C70.1948 14.5247 66.1678 16.3364 64.4996 17.8633C62.7806 19.4365 61.5716 21.1188 61.1755 21.7485C60.7795 22.3781 60.3115 23.3114 60.0627 23.2203C60.0316 23.7589 59.9072 26.9759 59.9072 26.9759L60.0938 27.0973L61.6632 24.4492L66.8693 18.918L69.239 16.4522L77.3123 12.6886L77.6462 11.3989Z" fill="#B3B3B3"/>
<path d="M72.8918 13.632C71.9201 14.048 67.3602 15.4513 65.1021 18.1449C64.3322 19.0632 62.9822 21.4816 62.6135 22.0666C62.2448 22.6518 60.4606 26.3806 60.026 26.895C59.5915 27.4094 62.3435 24.7219 62.3435 24.7219C62.3435 24.7219 69.8095 18.2414 69.9742 18.1449C70.1388 18.0485 72.792 15.7147 72.792 15.7147C72.792 15.7147 73.6545 13.3055 72.8919 13.632" fill="#121113"/>
<path d="M82.4201 7.81445C82.4201 7.81445 78.5093 11.1835 74.5261 12.9321C70.5429 14.6809 65.5745 16.3536 62.6001 22.7433C60.3383 26.6403 66.1318 19.2457 66.1318 19.2457L69.1801 17.1111L76.2511 14.0315L79.8656 11.7685L82.4201 7.81445Z" fill="#333333"/>
<path d="M82.4832 7.74951C82.4832 7.74951 79.7006 10.4855 75.7809 12.6422C74.484 13.3558 71.0351 14.8306 69.4474 15.6509C65.9493 17.4584 64.1408 20.64 63.5746 21.2893C63.0084 21.9387 60.0918 27.0563 60.0918 27.0563L61.3493 26.7927L66.195 20.5436L70.1387 18.2098L79.1322 15.4581L82.0818 13.0601C82.0818 13.0601 82.7964 13.414 83.0101 10.1477C83.1418 8.1353 82.4833 7.74959 82.4833 7.74959L82.4832 7.74951Z" fill="#E6E6E6"/>
<path d="M75.8683 18.4846L69.9119 20.3533L66.5698 21.6955L62.3383 24.7749C62.3383 24.7749 61.341 26.5121 61.2602 26.8805C61.1793 27.249 60.5594 29.2492 60.5594 29.2492L60.4785 29.9073L60.2629 30.1703L60.0742 28.986L60.1807 27.3697L61.0068 25.8772L61.9609 24.2749L63.7398 22.4062L66.1925 20.9849L70.3431 19.7216L73.793 18.8531L75.8683 18.4846Z" fill="#333333"/>
<path d="M80.1959 16.9385C80.1959 16.9385 79.1004 17.5985 73.7624 19.1691C68.4242 20.7397 65.6504 22.1755 63.3194 25.0419C62.0606 26.5898 61.3379 28.115 61.1048 28.8661C60.8718 29.6173 60.4268 30.2531 60.3589 30.3457C60.289 30.441 59.9294 30.4817 59.9248 30.2769C59.9233 30.2063 60.233 30.4682 60.3379 29.715C60.3346 28.8412 60.4166 27.2946 60.9417 26.385C61.6643 25.1329 62.7599 23.6306 64.5314 22.6063C66.3031 21.582 68.5874 20.6943 70.0792 20.1708C71.5712 19.6472 75.3007 18.6457 76.9092 18.0766C78.5176 17.5074 80.5455 16.6425 80.5455 16.6425L80.1959 16.9385Z" fill="#999999"/>
<path d="M60.225 27.2493C60.225 27.2493 60.3115 29.6494 60.225 29.9028C60.1385 30.1563 59.7086 29.776 59.7086 29.776L57.962 25.7973L55.5044 23.3129L51.7732 21.0369L50.1348 20.406L47.5041 19.606L46.4253 19.2893L46.209 18.6793L51.7084 19.9862L55.8262 22.0904L57.9403 24.0283L59.514 26.1326L60.225 27.2493Z" fill="#B3B3B3"/>
<path d="M42.5498 11.399C42.5498 11.399 44.0178 12.3547 47.0095 13.4398C50.0012 14.5249 54.0283 16.3366 55.6965 17.8634C57.4154 19.4366 58.5409 21.1492 58.9369 21.7789C59.333 22.4086 59.8845 23.3115 60.1334 23.2204C60.1643 23.7591 60.2887 26.976 60.2887 26.976L60.1022 27.0974L58.5327 24.4494L53.3267 18.9181L50.9569 16.4523L42.8836 12.6887L42.5498 11.399Z" fill="#CCCCCC"/>
<path d="M59.5685 26.1944L57.4347 23.593L53.5597 20.346L41.2484 15.6558L37.4957 12.3433C37.4957 12.3433 36.619 9.53502 37.1681 8.49233C37.1485 8.16516 37.7735 6.46346 38.0065 6.99332C38.642 7.62449 39.4073 8.56167 42.0164 10.225C41.7914 10.7421 42.0018 10.9683 42.3393 11.1826C42.9991 11.6015 44.0226 12.1936 44.0226 12.1936L46.2205 13.3772L50.4995 15.4836L52.7648 16.878L54.9803 19.1567L56.6378 21.1551L58.4303 23.4337L60.2656 27.01L59.5685 26.1944Z" fill="#E6E6E6"/>
<path d="M41.6205 32.1547C40.6708 31.5038 39.4782 30.9645 38.3146 30.2364C37.3791 29.651 36.6427 27.2276 36.2766 25.2119C34.9727 18.0329 37.5487 12.7556 37.5487 12.7556C37.5487 12.7556 37.5938 12.6314 37.5441 12.5871C37.3571 12.42 37.4913 12.1193 37.7853 12.31C41.0745 14.4442 41.9174 14.4627 44.4938 15.636C48.1834 17.3163 52.0513 17.3006 56.1547 21.3389C58.1079 23.2612 60.049 27.0461 60.2741 26.9989C60.258 27.3759 60.1996 29.1557 60.1996 29.1557C60.1996 29.1557 60.3037 27.4437 59.7448 26.5849C57.4776 23.1019 54.1564 21.653 54.1564 21.653C54.1564 21.653 51.2955 20.1984 46.8121 19.3562C44.8792 18.9931 42.1262 18.3233 39.7266 16.9667C39.528 16.8545 39.4543 16.9913 39.3852 17.0926C39.2546 17.2839 38.7376 22.1088 39.2737 25.2119C39.7711 28.0924 40.4532 29.651 41.6205 32.1547Z" fill="#1A1A1A"/>
<path d="M38.0323 7.01306C38.0323 7.01306 39.4734 8.67986 41.9351 10.234C40.9057 9.86115 40.4449 9.803 39.5146 9.1103C38.8899 8.64512 38.0323 7.01306 38.0323 7.01306Z" fill="#3C444B"/>
<path d="M82.1282 6.93941C82.1282 6.93941 80.9847 8.14171 80.2185 8.70181C79.4523 9.26184 78.168 10.1796 78.168 10.1796L80.5075 9.05022L82.1282 6.93933" fill="#121113"/>
<path d="M39.9004 8.51132C39.9004 8.51132 41.9629 5.72161 45.4128 4.08707C48.8627 2.45269 51.1638 2.10315 53.2944 1.79683C55.3405 1.50267 59.4865 1.42628 59.8125 1.42065H59.8328C60.1684 1.42606 64.551 1.50245 66.5993 1.79683C68.7299 2.10315 71.0488 2.3859 74.4987 4.02044C77.9486 5.65482 80.3782 8.59236 80.3782 8.59236C80.3782 8.59236 79.5127 8.79092 78.9843 9.2137C78.4558 9.63648 78.2573 9.44565 78.2573 9.44565C78.2573 9.44565 78.2102 8.27832 76.6046 6.57054C74.9989 4.86284 72.5173 3.85407 69.306 2.73236C66.2016 1.6478 60.2271 1.61163 59.8328 1.61051H59.8125C59.4284 1.61171 53.6905 1.64825 50.5876 2.73236C47.3763 3.85407 45.5082 5.14244 43.9025 6.85022C42.2969 8.55792 41.9629 10.289 41.9629 10.289C41.9629 10.289 41.4379 9.63648 40.9095 9.21362C40.3811 8.79092 39.9005 8.51124 39.9005 8.51124L39.9004 8.51132Z" fill="#1A1A1A"/>
<path fill-rule="evenodd" clip-rule="evenodd" d="M56.1937 20.6369C55.8465 20.1728 55.4979 19.7096 55.1481 19.2473C53.5462 17.1294 51.6389 15.9416 49.6758 14.9869C49.3582 14.8331 49.0386 14.6834 48.717 14.5378C49.6406 14.908 50.5387 15.3161 51.9743 16.1156C53.5476 16.9919 54.9622 18.8618 55.8569 20.1556C55.9682 20.3167 56.0805 20.4771 56.1937 20.6369ZM37.582 7.8512C37.8631 8.15481 40.0851 9.98573 43.7425 12.3154C47.4797 14.6959 51.8279 15.2133 54.9748 19.3739C57.4258 22.6144 57.6773 22.2682 59.8851 26.2737C59.475 25.1309 59.042 24.335 58.4871 23.4864C57.9322 22.6377 56.9276 21.3268 56.0356 20.0364C55.1434 18.746 53.7037 16.8349 52.0808 15.931C50.458 15.0272 49.5169 14.6201 48.4561 14.206C47.3953 13.792 45.6673 13.1365 43.9955 12.2051C42.3237 11.2735 39.4506 9.35531 37.582 7.8512Z" fill="#3C444B"/>
<path d="M60.377 27.0401C62.03 23.5447 63.6256 21.5376 66.9389 19.1968C68.8565 17.8423 70.2401 17.5927 72.4282 16.7449C73.8776 16.1832 74.7485 16.0031 76.1926 15.4289C78.8319 14.3792 80.0078 13.8628 82.7227 12.2274C82.9114 12.8521 81.5075 15.3051 80.505 16.7449C77.6841 17.9582 75.4133 18.6316 72.0347 19.4039C70.0079 19.8672 68.5169 20.3456 66.4574 21.1585C63.0075 22.5202 62.0091 24.197 60.377 27.0401V27.0401Z" fill="#1A1A1A"/>
<path d="M59.4527 26.8814C59.9881 27.9145 60.2344 28.829 60.2344 29.7502C60.2344 30.6714 59.8839 30.5134 59.5605 29.6976C59.237 28.8817 58.752 27.1446 56.7844 25.0127C54.8169 22.8808 52.6607 21.3543 50.5046 20.591C48.3483 19.8279 46.1382 19.354 45.1679 19.0645C44.1976 18.775 42.8115 18.3306 42.8115 18.3306L45.2488 18.933C45.2488 18.933 50.774 20.1437 53.9275 21.9597C57.0809 23.7757 58.6065 25.2486 59.4527 26.8814Z" fill="#CCCCCC"/>
<path d="M37.1644 8.47896C37.0441 8.62176 33.962 12.3385 32.9814 19.5463C32.9814 13.9669 35.9051 8.7936 37.6808 7.07007C37.4322 7.43214 37.1626 8.24093 37.1644 8.47896Z" fill="#C9CDD1"/>
<path d="M41.9508 10.2713C41.9508 10.2713 41.1717 9.26981 40.1969 8.52331C39.2222 7.7768 38.4795 7.47229 38.4795 7.47229C38.4795 7.47229 39.0192 8.11967 40.1172 8.9653C41.2154 9.81101 41.9508 10.2713 41.9508 10.2713Z" fill="#121113"/>
<path d="M38.4795 7.47912C38.4795 7.47912 39.102 7.66598 40.0115 8.38426C40.0115 8.38426 41.965 5.79634 44.8548 4.35976C47.7447 2.92341 50.5996 2.02772 54.5184 1.64929C54.5184 1.64929 49.6831 1.8092 44.7715 4.2481C41.9869 5.63087 39.9895 8.17813 39.9895 8.17813C39.5027 7.82769 38.9994 7.59476 38.4795 7.47912Z" fill="#C9CDD1"/>
<path d="M82.7581 12.0977C82.7581 12.0977 83.2898 12.775 83.9496 15.3774C84.4511 17.3555 84.5601 19.2992 84.5601 19.2992C84.5601 19.2992 84.1343 15.2543 82.7207 12.2298L82.7581 12.0977Z" fill="#E6E6E6"/>
<path d="M59.8379 1.29927C60.1932 1.29071 64.5702 1.35968 66.6244 1.65496C67.6941 1.80879 68.811 1.95685 70.0936 2.27142C71.3789 2.58667 72.8303 3.0688 74.5661 3.89125C76.3085 4.71684 77.7903 5.86962 78.8349 6.8137C79.2727 7.20993 79.6927 7.62447 80.0937 8.05615C80.2269 8.19993 80.3575 8.34604 80.4854 8.49439L80.382 8.59119C80.382 8.59119 77.9525 5.6538 74.5025 4.01934C71.0526 2.38481 68.7338 2.10205 66.6031 1.79574C64.5548 1.50135 59.8379 1.29927 59.8379 1.29927Z" fill="#F2F2F2"/>
<path d="M47.0869 36.9072C53.8999 40.0676 67.5787 39.88 73.4367 36.9072C67.2778 40.533 53.8247 40.7207 47.0869 36.9072Z" fill="#E6E6E6"/>
<path d="M80.1077 29.8236H82.4696C82.4696 29.8236 79.8852 36.3968 72.6522 38.6844C69.6254 39.6419 65.0918 39.6941 65.0918 39.6941C73.3634 39.2204 77.6168 36.6381 80.1077 29.8235V29.8236Z" fill="#CCCCCC"/>
<path d="M61.4893 24.8913C61.4893 24.8913 63.6514 20.4559 68.7749 17.9484C70.1241 17.288 72.3825 16.7587 72.3825 16.7587L71.068 17.2411C69.5968 17.7578 68.4299 18.1432 66.9414 19.1949C64.385 21.0008 62.8513 22.6083 61.5245 24.8537L61.4893 24.8913Z" fill="white"/>
<path d="M60.7217 26.8474C60.7217 26.8474 61.7179 22.5267 68.8444 20.4576C64.3016 22.1348 62.2788 23.6 60.7217 26.8473V26.8474Z" fill="#B3B3B3"/>
<path d="M59.9856 30.0393C59.9322 29.9553 59.8608 29.8211 59.7792 29.6155C59.6159 29.2032 59.4111 28.5586 58.9992 27.7475C58.5828 26.9276 57.9579 25.9429 56.9589 24.8603C56.1289 23.9611 55.2641 23.1666 54.3779 22.4896C57.129 24.1429 58.4797 25.5058 59.2459 26.9843C59.7686 27.9928 60.0025 28.8722 60.0025 29.7503C60.0025 29.8726 59.9958 29.9679 59.9856 30.0393Z" fill="#E6E6E6"/>
<path d="M78.0889 10.2594L78.2542 10.7397C78.2542 10.7397 79.0766 10.2965 80.5563 9.18295C82.0361 8.06919 82.4939 7.73789 82.4939 7.73789C82.4939 7.73789 82.9181 8.05681 84.4147 10.4416C84.4147 10.4416 83.9482 9.03789 82.2522 6.95972L80.5309 9.03384L78.0889 10.2594Z" fill="#ECECEC"/>
<path d="M54.8102 19.1599C52.427 16.6561 50.7464 16.0878 47.6949 15.0213C44.7645 13.9972 43.5564 12.3879 43.3271 12.0482C43.4654 12.1376 43.6039 12.2264 43.7428 12.3148C47.4151 14.654 51.6775 15.1941 54.8102 19.1599Z" fill="#666666"/>
<path d="M68.6899 54.0134H71.4541C71.4541 54.0134 72.6621 54.0054 72.6621 52.153C72.6621 50.2645 71.4541 50.2617 71.4541 50.2617H68.6899V54.0134ZM51.447 52.7507C51.153 52.7507 50.9145 53.0167 50.9145 53.3448C50.9145 53.673 51.153 53.9389 51.4471 53.9389L54.6703 53.9383V52.7512L51.447 52.7507ZM77.6793 52.7507C77.3852 52.7507 77.1468 53.0168 77.1468 53.3449C77.1468 53.6731 77.3852 53.939 77.6793 53.939L80.9025 53.9384V52.7513L77.6793 52.7508V52.7507ZM76.5537 51.2166H80.9493C80.95 50.7984 80.9204 50.1362 79.9163 50.1358C78.8792 50.1353 75.4078 50.1358 75.4078 50.1358V48.2501C75.4078 48.2501 78.7594 48.2511 80.9025 48.2506C82.2406 48.2503 83.2981 48.783 83.2984 50.3442L83.2973 55.9951H76.5684L76.6452 56C75.7541 56 75.0048 55.234 74.7946 54.1984C74.1954 55.9949 72.7467 55.9941 71.6261 55.9914L66.2092 55.9915V49.9247L58.587 55.995H50.3363L50.4129 55.9999C49.6728 55.9999 49.0305 55.4715 48.7137 54.6991L48.7124 55.995H46.3581V51.0099C46.3581 51.0099 46.3526 50.346 45.6282 50.3444H43.8877V55.995H41.5587V50.3444H39.1164V55.995H36.7021L36.706 48.25L46.5336 48.2499C47.6182 48.2499 48.7162 48.9453 48.7162 50.3445L48.7153 52.5098C49.0325 51.74 49.6729 51.2138 50.4114 51.2138L50.3215 51.2165H54.7171C54.7177 50.7983 54.6881 50.1362 53.6841 50.1357C52.647 50.1353 49.1756 50.1357 49.1756 50.1357V48.2501C49.1756 48.2501 52.5272 48.2511 54.6703 48.2506C56.0083 48.2503 57.066 48.783 57.0661 50.3442L57.0653 54.2307L64.7621 48.2501H66.2092L71.6447 48.2502C73.075 48.2502 75.0726 48.2502 75.0726 52.1112L75.0718 52.2501C75.416 51.6242 75.9916 51.2139 76.6437 51.2139L76.5537 51.2166ZM57.9096 48.2501H63.4034L60.9707 50.3445H57.9081L57.9096 48.2501ZM65.4956 55.989H60.0018L62.4347 53.8947H65.4972L65.4956 55.989Z" fill="#0080C5"/>
<path d="M47.2959 19.4476C47.2959 19.4476 47.7883 19.5527 47.9457 19.5887C49.7486 19.9902 51.2313 20.4716 52.2953 20.8685C53.2051 21.2711 54.2253 21.7984 55.3328 22.4892C59.8765 25.3231 59.9014 27.6872 59.9014 27.6872C59.9014 27.6872 59.8368 26.0598 57.0641 23.7977C54.2699 21.5179 49.5214 20.0729 48.1171 19.68C47.8597 19.6079 47.2959 19.4476 47.2959 19.4476Z" fill="#808080"/>
<defs>
<linearGradient id="paint0_linear_655_5529" x1="79.2173" y1="14.1991" x2="78.7557" y2="33.4557" gradientUnits="userSpaceOnUse">
<stop stop-color="#999999"/>
<stop offset="1" stop-color="#D7D7D7"/>
</linearGradient>
<radialGradient id="paint1_radial_655_5529" cx="0" cy="0" r="1" gradientUnits="userSpaceOnUse" gradientTransform="translate(34.8767 19.1464) rotate(-36.1227) scale(12.0547 7.39241)">
<stop stop-color="white"/>
<stop offset="1" stop-color="#919191"/>
</radialGradient>
</defs>
</svg>
