<svg width="120" height="56" viewBox="0 0 120 56" fill="none" xmlns="http://www.w3.org/2000/svg">
<path d="M87.75 27.9999C87.75 43.285 75.2485 55.8081 60 55.8081C44.764 55.8081 32.25 43.285 32.25 27.9999C32.25 12.7148 44.7515 0.19165 60 0.19165C75.2579 0.19165 87.75 12.7148 87.75 27.9999ZM53.8511 31.1071L53.8166 31.1699L53.9043 31.1385L59.22 27.9999L58.2772 27.4663L53.8511 31.1071ZM78.1178 38.2632H78.2181L78.1616 38.1691L62.036 27.3094L60.8112 27.9999L78.1178 38.2632ZM59.834 8.54039L59.7901 8.47763L59.7431 8.54039L58.6217 26.7131L59.621 27.3094L59.834 8.54039ZM76.6488 8.38346L76.6832 8.47763C77.9956 9.7017 79.2392 11.0199 80.3638 12.4323C83.8658 16.8264 85.6919 22.3818 85.6919 27.9999C85.6919 32.4254 84.5111 36.6939 82.3998 40.5544L82.688 41.088L82.0866 41.1193C77.4725 48.8404 68.9963 53.7053 60 53.7053C50.9911 53.7053 42.5619 48.8718 37.9447 41.1193L37.3778 41.088L37.6127 40.5544C36.2658 38.0749 35.3417 35.4384 34.7967 32.6765L34.7435 32.6137L34.7089 32.7078C35.0661 35.6268 35.987 38.4829 37.3778 41.088C41.9166 49.625 50.3803 54.6468 60.0125 54.6468C74.6345 54.6468 86.5596 42.6259 86.5596 27.9999C86.5596 20.4986 82.7005 12.9345 76.7395 8.38346H76.6488ZM59.5771 2.89089C45.9543 3.14196 34.9533 14.2841 34.9533 27.9999C34.9533 32.2684 36.1216 36.38 38.0575 40.1464L55.4392 25.8656L56.8645 26.6817L37.879 40.6486L37.8006 40.8369H38.0136L59.5991 28.659L59.5552 33.0217L38.5117 40.931C42.9722 48.4324 51.3012 53.0775 60 53.0775C68.7425 53.0775 76.962 48.4324 81.4757 40.931L60.4448 33.0217L60.3884 28.659L82.0333 40.8369H82.2213L82.1335 40.6799L63.1356 26.6817L64.5483 25.8656L81.9425 40.1464C83.9347 36.4114 85.0779 32.2684 85.0779 27.9999C85.0779 14.1586 74.124 3.29889 60.4573 2.85949L64.1034 25.1124L60.379 27.3094L60.1096 2.45148L60 2.32593L59.8997 2.45148L57.2748 25.897L55.8746 25.1124L59.5771 2.89089ZM42.2831 48.4324C36.8891 43.0025 33.7849 35.7209 33.7849 27.9999C33.7849 13.5308 45.5627 1.72959 60 1.72959C72.6454 1.72959 83.421 10.8944 86.5815 22.9153L86.6474 22.9467L86.6818 22.8839C84.157 10.1725 73.0245 0.8194 60 0.8194C45.0866 0.8194 32.8639 13.06 32.8639 27.9999C32.8639 35.8778 36.3566 43.3164 42.2267 48.5265H42.305L42.2831 48.4324Z" fill="#231F20"/>
</svg>
