<svg width="120" height="56" viewBox="0 0 120 56" fill="none" xmlns="http://www.w3.org/2000/svg">
<path d="M87.7535 27.9999C87.7535 43.286 75.2512 55.8099 60.0017 55.8099C44.7648 55.8099 32.25 43.286 32.25 27.9999C32.25 12.7139 44.7522 0.189941 60.0017 0.189941C75.2606 0.189941 87.7535 12.7139 87.7535 27.9999ZM53.8524 31.1074L53.818 31.1702L53.9057 31.1388L59.2217 27.9999L58.2788 27.4663L53.8524 31.1074ZM78.1207 38.2639H78.221L78.1645 38.1697L62.0379 27.3094L60.813 27.9999L78.1207 38.2639ZM59.8357 8.53921L59.7919 8.47644L59.7448 8.53921L58.6234 26.713L59.6227 27.3094L59.8357 8.53921ZM76.6515 8.38227L76.686 8.47644C77.9985 9.70059 79.2421 11.0189 80.3668 12.4314C83.8691 16.8257 85.6953 22.3814 85.6953 27.9999C85.6953 32.4257 84.5143 36.6945 82.403 40.5552L82.6912 41.0888L82.0897 41.1202C77.4754 48.8417 68.9986 53.7069 60.0017 53.7069C50.9923 53.7069 42.5626 48.8731 37.9451 41.1202L37.3781 41.0888L37.613 40.5552C36.2661 38.0756 35.3419 35.4389 34.7968 32.6768L34.7436 32.614L34.7091 32.7082C35.0663 35.6273 35.9872 38.4836 37.3781 41.0888C41.9172 49.6264 50.3815 54.6486 60.0142 54.6486C74.6372 54.6486 86.5631 42.6269 86.5631 27.9999C86.5631 20.4981 82.7037 12.9336 76.7423 8.38227H76.6515ZM59.5788 2.88935C45.9552 3.14044 34.9535 14.2833 34.9535 27.9999C34.9535 32.2687 36.1219 36.3806 38.0579 40.1472L55.4406 25.8655L56.866 26.6816L37.8793 40.6494L37.801 40.8377H38.014L59.6008 28.6591L59.5569 33.0221L38.5121 40.9319C42.9729 48.4337 51.3024 53.0791 60.0017 53.0791C68.7448 53.0791 76.9648 48.4337 81.4788 40.9319L60.4466 33.0221L60.3902 28.6591L82.0365 40.8377H82.2244L82.1366 40.6808L63.1375 26.6816L64.5503 25.8655L81.9456 40.1472C83.9379 36.412 85.0813 32.2687 85.0813 27.9999C85.0813 14.1577 74.1266 3.29738 60.4591 2.85795L64.1054 25.1122L60.3808 27.3094L60.1114 2.44991L60.0017 2.32436L59.9014 2.44991L57.2763 25.8969L55.8761 25.1122L59.5788 2.88935ZM42.2838 48.4337C36.8894 43.0035 33.785 35.7214 33.785 27.9999C33.785 13.53 45.5636 1.72798 60.0017 1.72798C72.648 1.72798 83.4242 10.8933 86.585 22.9151L86.6508 22.9464L86.6852 22.8836C84.1603 10.1714 73.0271 0.81773 60.0017 0.81773C45.0874 0.81773 32.864 13.0591 32.864 27.9999C32.864 35.8784 36.3569 43.3174 42.2273 48.5279H42.3057L42.2838 48.4337Z" fill="#5C4F52"/>
</svg>
