<svg width="120" height="56" viewBox="0 0 120 56" fill="none" xmlns="http://www.w3.org/2000/svg">
<path d="M36.9907 45.1952L34.8316 41.7034V46.5788H33.2461V39.6611H35.3039L36.9907 42.494L38.61 39.6611H40.7016V46.5788H39.116V41.7034L36.9907 45.1952ZM42.051 39.6611H43.6365V46.5788H42.051V39.6611ZM49.7763 41.1105H47.8534V46.5788H46.2341V41.1105H44.3449V39.6611H49.7763V41.1105ZM50.3498 46.5129V45.0635C50.6871 45.1293 51.4631 45.2611 52.4414 45.2611C53.251 45.2611 53.6558 45.1623 53.6558 44.7011C53.6558 44.207 53.3185 44.1411 52.1715 43.614C51.0582 43.1199 50.2149 42.6917 50.2149 41.5058C50.2149 40.0564 51.1257 39.5623 52.8799 39.5623C53.7908 39.5623 54.4317 39.6281 54.8703 39.694V41.1434C54.4655 41.1105 53.757 41.0117 52.9474 41.0117C52.0028 41.0117 51.8004 41.1105 51.8004 41.5058C51.8004 41.9011 52.3064 42.0987 53.0823 42.4282C54.2631 42.9552 55.2076 43.3835 55.2076 44.7011C55.2076 46.0846 54.3305 46.7105 52.4414 46.7105C51.6992 46.6776 51.0245 46.6117 50.3498 46.5129ZM56.186 44.2399V39.6611H57.7715V44.174C57.7715 44.9646 58.2438 45.2282 59.0197 45.2282C59.7619 45.2282 60.2679 44.9646 60.2679 44.174V39.6611H61.8535V44.2399C61.8535 45.9199 60.7402 46.6776 59.0197 46.6776C57.2992 46.6776 56.186 45.9199 56.186 44.2399ZM63.2029 39.6611H66.3065C67.7571 39.6611 68.5668 40.1881 68.5668 41.4399C68.5668 42.4282 67.9933 42.7576 67.4535 42.9552C68.0945 43.1529 68.7692 43.4823 68.7692 44.6352C68.7692 45.8541 68.027 46.5788 66.4414 46.5788H63.2366V39.6611H63.2029ZM66.0704 42.4611C66.7113 42.4611 66.9475 42.1317 66.9475 41.6705C66.9475 41.1105 66.6776 40.9787 66.0704 40.9787H64.7884V42.4611H66.0704ZM66.1716 45.294C66.8125 45.294 67.0824 45.0635 67.0824 44.4705C67.0824 43.9435 66.8463 43.7129 66.239 43.7129H64.7884V45.294H66.1716ZM69.68 39.6611H71.2656V46.5788H69.68V39.6611ZM72.4126 46.5129V45.0635C72.7499 45.1293 73.5258 45.2611 74.5041 45.2611C75.3138 45.2611 75.7186 45.1623 75.7186 44.7011C75.7186 44.207 75.3812 44.1411 74.2343 43.614C73.121 43.1199 72.2776 42.6917 72.2776 41.5058C72.2776 40.0564 73.1885 39.5623 74.9427 39.5623C75.8535 39.5623 76.4945 39.6281 76.9331 39.694V41.1434C76.5282 41.1105 75.8198 41.0117 75.0102 41.0117C74.0656 41.0117 73.8632 41.1105 73.8632 41.5058C73.8632 41.9011 74.3692 42.0987 75.1451 42.4282C76.3258 42.9552 77.2704 43.3835 77.2704 44.7011C77.2704 46.0846 76.3933 46.7105 74.5041 46.7105C73.7957 46.6776 73.0873 46.6117 72.4126 46.5129ZM79.7331 43.8446V46.5788H78.1475V39.6611H79.7331V42.3952H82.2632V39.6611H83.8488V46.5788H82.2632V43.8446H79.7331ZM85.1644 39.6611H86.75V46.5788H85.1644V39.6611ZM44.4124 54.5176L42.2871 51.0258V55.9012H40.6678V48.9835H42.7257L44.4124 51.7835L46.0654 48.9835H48.157V55.9012H46.5377V51.0258L44.4124 54.5176ZM49.2365 52.4423C49.2365 49.9717 50.2149 48.8847 52.3064 48.8847C54.398 48.8847 55.3763 49.9717 55.3763 52.4423C55.3763 54.9129 54.398 56 52.3064 56C50.2149 56 49.2365 54.9129 49.2365 52.4423ZM53.6896 52.4423C53.6896 51.0258 53.4534 50.3011 52.2727 50.3011C51.1257 50.3011 50.8558 51.0258 50.8558 52.4423C50.8558 53.8588 51.092 54.5835 52.2727 54.5835C53.4534 54.5835 53.6896 53.8588 53.6896 52.4423ZM61.0438 50.4329H59.1209V55.9012H57.5354V50.4329H55.6125V48.9835H61.0438V50.4329ZM61.3137 52.4423C61.3137 49.9717 62.292 48.8847 64.3836 48.8847C66.4752 48.8847 67.4535 49.9717 67.4535 52.4423C67.4535 54.9129 66.4752 56 64.3836 56C62.292 56 61.3137 54.9129 61.3137 52.4423ZM65.7667 52.4423C65.7667 51.0258 65.5306 50.3011 64.3499 50.3011C63.1691 50.3011 62.933 51.0258 62.933 52.4423C62.933 53.8588 63.1691 54.5835 64.3499 54.5835C65.5306 54.5835 65.7667 53.8588 65.7667 52.4423ZM68.4993 48.9835H71.3668C72.8848 48.9835 73.8632 49.5435 73.8632 51.1905C73.8632 52.2776 73.3234 52.9694 72.4126 53.167L74.1668 55.9012H72.3114L70.827 53.4306H70.1186V55.9012H68.533V48.9835H68.4993ZM71.2993 52.08C72.0077 52.08 72.2439 51.7176 72.2439 51.1905C72.2439 50.6635 72.0077 50.3011 71.2993 50.3011H70.1186V52.08H71.2993ZM74.8077 55.8023V54.3529C75.1451 54.4188 75.921 54.5506 76.8993 54.5506C77.709 54.5506 78.1138 54.4517 78.1138 53.9906C78.1138 53.4964 77.7764 53.4306 76.6294 52.9035C75.5162 52.4094 74.6728 51.9811 74.6728 50.7953C74.6728 49.3458 75.5837 48.8517 77.3379 48.8517C78.2487 48.8517 78.8897 48.9176 79.3283 48.9835V50.4329C78.9234 50.4 78.215 50.3011 77.4053 50.3011C76.4608 50.3011 76.2584 50.4 76.2584 50.7623C76.2584 51.1576 76.7644 51.3553 77.5403 51.6847C78.721 52.2117 79.6656 52.64 79.6656 53.9576C79.6656 55.3412 78.7885 55.967 76.8993 55.967C76.1909 56 75.4824 55.9341 74.8077 55.8023Z" fill="#231916"/>
<path d="M53.1162 11.4636L59.897 22.9601L66.7114 11.4636L59.897 0L53.1162 11.4636ZM73.4922 22.9601H59.897L66.7114 34.4237H80.273L73.4922 22.9601ZM46.3354 22.9601H59.897L53.1162 34.4237H39.5547L46.3354 22.9601Z" fill="#49494D"/>
</svg>
