<svg width="120" height="56" viewBox="0 0 120 56" fill="none" xmlns="http://www.w3.org/2000/svg">
<path d="M36.9926 45.1952L34.8336 41.7034V46.5788H33.248V39.6611H35.3059L36.9926 42.494L38.6119 39.6611H40.7035V46.5788H39.118V41.7034L36.9926 45.1952ZM42.0529 39.6611H43.6385V46.5788H42.0529V39.6611ZM49.7782 41.1105H47.8553V46.5788H46.2361V41.1105H44.3469V39.6611H49.7782V41.1105ZM50.3517 46.5129V45.0635C50.6891 45.1293 51.465 45.2611 52.4433 45.2611C53.253 45.2611 53.6578 45.1623 53.6578 44.7011C53.6578 44.207 53.3204 44.1411 52.1734 43.614C51.0602 43.1199 50.2168 42.6917 50.2168 41.5058C50.2168 40.0564 51.1277 39.5623 52.8819 39.5623C53.7927 39.5623 54.4337 39.6281 54.8723 39.694V41.1434C54.4674 41.1105 53.759 41.0117 52.9494 41.0117C52.0048 41.0117 51.8024 41.1105 51.8024 41.5058C51.8024 41.9011 52.3084 42.0987 53.0843 42.4282C54.265 42.9552 55.2096 43.3835 55.2096 44.7011C55.2096 46.0846 54.3325 46.7105 52.4433 46.7105C51.7012 46.6776 51.0264 46.6117 50.3517 46.5129ZM56.1879 44.2399V39.6611H57.7735V44.174C57.7735 44.9646 58.2458 45.2282 59.0217 45.2282C59.7638 45.2282 60.2699 44.9646 60.2699 44.174V39.6611H61.8554V44.2399C61.8554 45.9199 60.7422 46.6776 59.0217 46.6776C57.3012 46.6776 56.1879 45.9199 56.1879 44.2399ZM63.2048 39.6611H66.3085C67.7591 39.6611 68.5687 40.1881 68.5687 41.4399C68.5687 42.4282 67.9952 42.7576 67.4554 42.9552C68.0964 43.1529 68.7711 43.4823 68.7711 44.6352C68.7711 45.8541 68.0289 46.5788 66.4434 46.5788H63.2386V39.6611H63.2048ZM66.0723 42.4611C66.7133 42.4611 66.9494 42.1317 66.9494 41.6705C66.9494 41.1105 66.6795 40.9787 66.0723 40.9787H64.7904V42.4611H66.0723ZM66.1735 45.294C66.8145 45.294 67.0844 45.0635 67.0844 44.4705C67.0844 43.9435 66.8482 43.7129 66.241 43.7129H64.7904V45.294H66.1735ZM69.682 39.6611H71.2675V46.5788H69.682V39.6611ZM72.4145 46.5129V45.0635C72.7519 45.1293 73.5278 45.2611 74.5061 45.2611C75.3157 45.2611 75.7205 45.1623 75.7205 44.7011C75.7205 44.207 75.3832 44.1411 74.2362 43.614C73.1229 43.1199 72.2796 42.6917 72.2796 41.5058C72.2796 40.0564 73.1904 39.5623 74.9446 39.5623C75.8555 39.5623 76.4965 39.6281 76.935 39.694V41.1434C76.5302 41.1105 75.8218 41.0117 75.0121 41.0117C74.0675 41.0117 73.8651 41.1105 73.8651 41.5058C73.8651 41.9011 74.3711 42.0987 75.1471 42.4282C76.3278 42.9552 77.2724 43.3835 77.2724 44.7011C77.2724 46.0846 76.3953 46.7105 74.5061 46.7105C73.7976 46.6776 73.0892 46.6117 72.4145 46.5129ZM79.735 43.8446V46.5788H78.1495V39.6611H79.735V42.3952H82.2652V39.6611H83.8507V46.5788H82.2652V43.8446H79.735ZM85.1664 39.6611H86.7519V46.5788H85.1664V39.6611ZM44.4144 54.5176L42.2891 51.0258V55.9012H40.6698V48.9835H42.7276L44.4144 51.7835L46.0674 48.9835H48.159V55.9012H46.5397V51.0258L44.4144 54.5176ZM49.2385 52.4423C49.2385 49.9717 50.2168 48.8847 52.3084 48.8847C54.4 48.8847 55.3783 49.9717 55.3783 52.4423C55.3783 54.9129 54.4 56 52.3084 56C50.2168 56 49.2385 54.9129 49.2385 52.4423ZM53.6915 52.4423C53.6915 51.0258 53.4554 50.3011 52.2746 50.3011C51.1277 50.3011 50.8578 51.0258 50.8578 52.4423C50.8578 53.8588 51.0939 54.5835 52.2746 54.5835C53.4554 54.5835 53.6915 53.8588 53.6915 52.4423ZM61.0458 50.4329H59.1229V55.9012H57.5373V50.4329H55.6144V48.9835H61.0458V50.4329ZM61.3157 52.4423C61.3157 49.9717 62.294 48.8847 64.3856 48.8847C66.4771 48.8847 67.4554 49.9717 67.4554 52.4423C67.4554 54.9129 66.4771 56 64.3856 56C62.294 56 61.3157 54.9129 61.3157 52.4423ZM65.7687 52.4423C65.7687 51.0258 65.5325 50.3011 64.3518 50.3011C63.1711 50.3011 62.9349 51.0258 62.9349 52.4423C62.9349 53.8588 63.1711 54.5835 64.3518 54.5835C65.5325 54.5835 65.7687 53.8588 65.7687 52.4423ZM68.5012 48.9835H71.3687C72.8868 48.9835 73.8651 49.5435 73.8651 51.1905C73.8651 52.2776 73.3254 52.9694 72.4145 53.167L74.1687 55.9012H72.3133L70.829 53.4306H70.1205V55.9012H68.535V48.9835H68.5012ZM71.3013 52.08C72.0097 52.08 72.2458 51.7176 72.2458 51.1905C72.2458 50.6635 72.0097 50.3011 71.3013 50.3011H70.1205V52.08H71.3013ZM74.8097 55.8023V54.3529C75.1471 54.4188 75.923 54.5506 76.9013 54.5506C77.7109 54.5506 78.1157 54.4517 78.1157 53.9906C78.1157 53.4964 77.7784 53.4306 76.6314 52.9035C75.5181 52.4094 74.6748 51.9811 74.6748 50.7953C74.6748 49.3458 75.5856 48.8517 77.3398 48.8517C78.2507 48.8517 78.8917 48.9176 79.3302 48.9835V50.4329C78.9254 50.4 78.2169 50.3011 77.4073 50.3011C76.4627 50.3011 76.2603 50.4 76.2603 50.7623C76.2603 51.1576 76.7663 51.3553 77.5422 51.6847C78.723 52.2117 79.6676 52.64 79.6676 53.9576C79.6676 55.3412 78.7904 55.967 76.9013 55.967C76.1928 56 75.4844 55.9341 74.8097 55.8023Z" fill="#231916"/>
<path d="M53.1162 11.4636L59.897 22.9601L66.7114 11.4636L59.897 0L53.1162 11.4636ZM73.4922 22.9601H59.897L66.7114 34.4237H80.273L73.4922 22.9601ZM46.3354 22.9601H59.897L53.1162 34.4237H39.5547L46.3354 22.9601Z" fill="#E60013"/>
</svg>
