<svg width="121" height="56" viewBox="0 0 121 56" fill="none" xmlns="http://www.w3.org/2000/svg">
<g opacity="0.8">
<path d="M91.3359 21.2198C90.7167 21.051 90.0272 20.9712 88.5748 20.7963C82.5635 20.5557 67.7077 19.9919 60.1374 19.9919C52.5674 19.9919 37.7113 20.5553 31.7007 20.7963C30.2476 20.9712 29.5574 21.051 28.9386 21.2198C27.0486 21.6546 26.6328 22.3168 26.6328 23.6378V32.6915C26.6328 34.0129 28.0832 34.9032 29.083 35.0827C30.0834 35.2636 30.7163 35.3358 31.7687 35.4336C37.1451 35.7586 49.6187 36.4361 60.1371 36.4469C70.6557 36.4371 83.1287 35.7589 88.5055 35.4336C89.5575 35.3358 90.1907 35.2632 91.1915 35.0827C92.1909 34.9029 93.6413 34.0129 93.6413 32.6915V23.6378C93.6413 22.3168 93.2259 21.6546 91.3359 21.2198Z" fill="url(#paint0_linear_583_6546)"/>
<path d="M36.03 21.5755C38.9877 11.5339 48.7063 4.16606 60.2428 4.16606C71.7462 4.16606 81.445 11.4934 84.4316 21.4947C84.441 21.53 84.4473 21.5483 84.4577 21.5823C86.1724 21.3943 87.7086 21.104 88.7942 20.8211C88.7744 20.7567 88.7694 20.7436 88.7523 20.6802C85.358 8.76667 73.8801 0 60.2428 0C46.5597 0 35.0517 8.82357 31.6992 20.796C33.2072 21.1991 34.3119 21.3682 36.03 21.5755Z" fill="url(#paint1_radial_583_6546)"/>
<path d="M84.3586 34.7371C84.3288 34.8263 84.2956 34.9247 84.2802 34.9735C81.1352 44.7345 71.563 51.8339 60.2409 51.8339C48.8293 51.8339 39.1969 44.625 36.1282 34.7465C34.2526 35.0706 33.6191 35.1939 31.7656 35.4345C35.1998 47.2898 46.6462 55.9999 60.2409 55.9999C73.8413 55.9999 85.2917 47.2807 88.7195 35.4155C87.0865 35.2187 86.1246 35.0699 84.3586 34.7371Z" fill="url(#paint2_radial_583_6546)"/>
<path d="M36.6333 21.5536C37.3453 21.2665 38.0341 20.8087 39.1079 20.5141C42.3093 12.3968 50.5627 6.61647 60.2421 6.61647C69.8913 6.61647 78.1243 12.3612 81.3458 20.4392C81.3571 20.4667 81.3689 20.5001 81.3779 20.5207C81.9321 20.708 83.5647 21.3541 84.0727 21.5703C84.1447 21.5719 84.2985 21.5771 84.4573 21.5814C84.448 21.5523 84.4393 21.5231 84.4312 21.4938C81.4433 11.4957 71.7448 4.17065 60.2421 4.17065C48.7086 4.17065 38.99 11.5352 36.0312 21.5748C36.2021 21.5752 36.5274 21.5608 36.6333 21.5536Z" fill="url(#paint3_radial_583_6546)"/>
<path d="M60.0595 4.85085C70.8522 4.85085 80.4194 11.1315 84.0432 21.484L84.0727 21.572C84.1289 21.572 84.3343 21.5792 84.4573 21.5831C84.4476 21.5455 84.4375 21.5236 84.4312 21.4955C81.4432 11.4974 71.7448 4.17236 60.2421 4.17236C48.7086 4.17236 38.99 11.5369 36.0312 21.5766C36.2618 21.573 36.3727 21.573 36.634 21.555C39.8739 11.7266 49.3462 4.85085 60.0595 4.85085Z" fill="white"/>
<path d="M83.7492 34.7652C82.9739 35.188 82.0086 35.5947 81.237 35.8324C81.2266 35.8566 81.1827 35.9639 81.1734 35.9891C77.8357 43.8438 69.7219 49.3884 60.2429 49.3884C50.7043 49.3884 42.549 43.7764 39.2502 35.8439C38.3626 35.6036 37.0359 35.013 36.5336 34.7665C36.3457 34.7577 36.2445 34.7524 36.1289 34.7465C39.1976 44.6236 48.8317 51.8339 60.2433 51.8339C71.6032 51.8339 81.2002 44.6897 84.3137 34.8822C84.3204 34.8633 84.3549 34.7554 84.3623 34.7371C84.1824 34.7439 83.9073 34.7652 83.7492 34.7652Z" fill="url(#paint4_radial_583_6546)"/>
<path d="M90.7988 21.8751C89.2067 21.6861 88.1212 21.7064 84.2427 21.5759C84.0665 21.5697 83.8872 21.5645 83.7053 21.5583C76.6728 21.3229 66.1089 21.0083 60.1371 21.0083C54.1656 21.0083 43.602 21.3229 36.5685 21.5583C36.3869 21.5645 36.2083 21.5697 36.0324 21.5759C32.1533 21.7064 31.0681 21.6861 29.4756 21.8751C27.8835 22.0658 26.6328 22.7462 26.6328 23.9034V32.2993C26.6328 33.4571 28.1395 34.3946 29.4753 34.3946C29.4753 34.3946 46.4774 35.419 60.1371 35.4311C73.7971 35.419 90.7988 34.3946 90.7988 34.3946C92.1346 34.3946 93.6413 33.4571 93.6413 32.2993V23.9034C93.6413 22.7462 92.3909 22.0658 90.7988 21.8751Z" fill="url(#paint5_radial_583_6546)"/>
<path d="M83.7511 34.7648C80.4144 44.4248 71.0305 51.154 60.4308 51.154C49.7231 51.154 40.222 44.9721 36.5345 34.7648C36.3992 34.7579 36.2652 34.7527 36.1328 34.7452C39.2008 44.6226 48.8366 51.8328 60.2485 51.8328C71.6641 51.8328 81.3009 44.618 84.3662 34.7354C84.1645 34.7445 83.9598 34.7553 83.7511 34.7648Z" fill="white"/>
<path d="M83.7725 34.7646L83.7521 34.7653C82.9768 35.1881 82.0122 35.5949 81.2399 35.8326C81.2296 35.8568 81.1857 35.964 81.1766 35.9892C80.1206 38.4749 78.5861 40.7291 76.6797 42.6501C79.6636 40.5211 82.0973 37.8314 83.7725 34.7646Z" fill="#8C8C8C"/>
<path d="M44.4549 43.2753C42.2108 41.1892 40.4243 38.6639 39.2517 35.8437C38.3642 35.603 37.0377 35.0122 36.5352 34.7656C37.0722 35.8522 37.7054 36.8909 38.4275 37.87C39.9047 39.7475 41.6951 41.421 43.7332 42.8371C43.9704 42.9889 44.211 43.1347 44.4549 43.2753Z" fill="#4D4D4D"/>
<path d="M36.1279 34.7467V34.7461L36.1202 34.7474C34.2506 35.0708 33.6164 35.1947 31.7656 35.4341C31.9147 35.9507 32.0799 36.4598 32.2598 36.9637L36.1279 34.7467Z" fill="#252525"/>
<path d="M73.7546 25.5931C73.1958 24.3741 73.3941 24.502 72.1776 24.4706C72.0788 24.4379 71.8151 24.4379 71.4539 24.4379C71.0934 24.4379 71.0271 24.4379 70.7309 24.4706C69.581 24.4706 69.778 24.4065 69.384 25.2082C69.384 25.2082 67.4103 29.5381 66.5566 31.3342L66.5237 31.3983C66.3596 31.7184 66.4584 31.7184 66.7207 31.7184H68.4961C68.6281 31.7184 68.6931 31.6556 68.726 31.5902C68.726 31.5902 68.989 31.0448 69.3177 30.2754H73.6561C73.9851 31.0134 74.215 31.5582 74.215 31.5902C74.2478 31.6867 74.3467 31.7184 74.4448 31.7184H76.2855C76.5486 31.7184 76.6146 31.7521 76.5161 31.5262C76.1867 30.7568 74.0505 26.2657 73.7546 25.5931ZM69.9743 28.736C70.5332 27.4533 71.0927 26.2026 71.0927 26.1702C71.1259 26.1058 71.1916 26.0737 71.2897 26.0737C71.3229 26.0411 71.4221 26.0411 71.5202 26.0411C71.5862 26.0411 71.6841 26.0411 71.7172 26.0737C71.7826 26.0737 71.8496 26.1058 71.8811 26.2023C72.0138 26.5544 72.5056 27.6455 72.9656 28.736H69.9743ZM46.3096 24.3738C46.4738 24.3738 46.507 24.4375 46.507 24.566V31.431C46.507 31.5906 46.4738 31.656 46.2771 31.656H44.5677C44.3711 31.656 44.3382 31.6233 44.3382 31.431V24.566C44.3382 24.4375 44.3711 24.3738 44.5021 24.3738H46.3096ZM42.6613 24.4375C42.858 24.4375 42.8919 24.5013 42.8919 24.6625V31.4951C42.8919 31.688 42.858 31.72 42.6613 31.72H40.6561C39.4734 31.72 39.3746 31.72 38.9806 31.0792C38.1587 29.8285 35.6931 26.1395 35.6931 26.1395V31.4957C35.6931 31.689 35.6603 31.7204 35.4636 31.7204H33.9841C33.7871 31.7204 33.7539 31.689 33.7539 31.4957V24.6625C33.7539 24.502 33.7871 24.4375 33.9841 24.4375H35.6931C36.975 24.4375 37.1392 24.4058 37.6002 25.0474C37.9614 25.6251 40.9523 30.1156 40.9523 30.1156V24.6625C40.9523 24.502 40.9851 24.4375 41.1828 24.4375H42.6613ZM86.5399 24.4375C86.7382 24.4375 86.7704 24.5013 86.7704 24.6625V31.4951C86.7704 31.688 86.7375 31.72 86.5399 31.72H84.5366C83.3523 31.72 83.2534 31.72 82.8594 31.0792C82.0369 29.8275 79.572 26.1388 79.572 26.1388V31.4954C79.572 31.6883 79.5391 31.7197 79.3415 31.7197H77.8633C77.6663 31.7197 77.6324 31.6883 77.6324 31.4954V24.6625C77.6324 24.502 77.6666 24.4375 77.8633 24.4375H79.572C80.8539 24.4375 81.0187 24.4058 81.478 25.0474C81.8727 25.6251 84.8311 30.1156 84.8311 30.1156V24.6625C84.8311 24.502 84.8643 24.4375 85.0616 24.4375H86.5399ZM53.8367 27.2293C55.1517 27.3571 56.1053 27.5815 56.3679 28.8008C56.3679 28.8962 56.4011 29.2173 56.4011 29.5705C56.4011 29.7954 56.4011 30.0832 56.3351 30.3402C56.1056 31.4948 55.2174 31.7191 53.8377 31.7191H48.3149C48.1175 31.7191 48.0843 31.6877 48.0843 31.4948V30.3402C48.0843 30.1473 48.1175 30.1152 48.3149 30.1152H53.9017C54.1322 30.1152 54.1979 30.0515 54.2304 29.8903V29.6015V29.4093C54.1972 29.2804 54.1647 29.0882 53.8692 29.0568C53.2443 29.0247 51.4043 28.8639 50.1546 28.736C48.544 28.5755 48.15 27.9026 48.084 27.3248C48.0512 27.1319 48.0512 26.8755 48.0512 26.6509C48.0512 26.4583 48.0512 26.1699 48.084 25.9449C48.3145 24.9179 49.1035 24.4375 50.4832 24.4375H55.8406C56.0386 24.4375 56.1046 24.4702 56.1046 24.6301V25.8174C56.1046 25.9766 56.0386 26.0414 55.8406 26.0093H50.5821C50.3519 26.0093 50.2537 26.1055 50.2202 26.3298V26.6185C50.2202 26.779 50.3191 26.9076 50.5489 26.9386C51.1748 27.004 53.1133 27.1642 53.8367 27.2293ZM63.3348 27.2293C64.6509 27.3571 65.6034 27.5815 65.8667 28.8008C65.8667 28.8962 65.8996 29.2173 65.8996 29.5705C65.8996 29.7954 65.8996 30.0832 65.8339 30.3402C65.6044 31.4948 64.7172 31.7191 63.3362 31.7191H57.8136C57.6163 31.7191 57.5831 31.6877 57.5831 31.4948V30.3402C57.5831 30.1473 57.6163 30.1152 57.8136 30.1152H63.4015C63.6313 30.1152 63.696 30.0515 63.7298 29.8903V29.6015V29.4093C63.6957 29.2804 63.6307 29.0882 63.368 29.0568C62.7438 29.0247 60.9031 28.8639 59.6544 28.736C58.0431 28.5755 57.6823 27.9026 57.5831 27.3248C57.5503 27.1319 57.5503 26.8755 57.5503 26.6509C57.5503 26.4583 57.5503 26.1699 57.5831 25.9449C57.8136 24.9179 58.6023 24.4375 59.9824 24.4375H65.3407C65.537 24.4375 65.6037 24.4702 65.6037 24.6301V25.8174C65.6037 25.9766 65.537 26.0414 65.3407 26.0093H60.0812C59.8514 26.0093 59.7532 26.1055 59.7197 26.3298V26.6185C59.7197 26.779 59.7857 26.9076 60.049 26.9386C60.6736 27.004 62.6121 27.1642 63.3348 27.2293Z" fill="url(#paint6_radial_583_6546)"/>
</g>
<defs>
<linearGradient id="paint0_linear_583_6546" x1="60.1371" y1="0.826968" x2="60.1371" y2="46.4084" gradientUnits="userSpaceOnUse">
<stop offset="0.194" stop-color="white"/>
<stop offset="0.208" stop-color="#F8F8F8"/>
<stop offset="0.366" stop-color="#AEAEAE"/>
<stop offset="0.513" stop-color="#707070"/>
<stop offset="0.647" stop-color="#404040"/>
<stop offset="0.764" stop-color="#1D1D1D"/>
<stop offset="0.86" stop-color="#080808"/>
<stop offset="0.922"/>
</linearGradient>
<radialGradient id="paint1_radial_583_6546" cx="0" cy="0" r="1" gradientUnits="userSpaceOnUse" gradientTransform="translate(41.326 -11.2576) scale(46.726 45.6017)">
<stop offset="0.202" stop-color="white"/>
<stop offset="0.382" stop-color="#FDFDFD"/>
<stop offset="0.487" stop-color="#F4F4F4"/>
<stop offset="0.573" stop-color="#E6E6E6"/>
<stop offset="0.648" stop-color="#D2D2D2"/>
<stop offset="0.689" stop-color="#C4C4C4"/>
<stop offset="1" stop-color="#333333"/>
</radialGradient>
<radialGradient id="paint2_radial_583_6546" cx="0" cy="0" r="1" gradientUnits="userSpaceOnUse" gradientTransform="translate(154.404 61.7852) scale(97.3131 94.9715)">
<stop offset="0.202" stop-color="white"/>
<stop offset="0.368" stop-color="#E4E4E4"/>
<stop offset="0.594" stop-color="#C4C4C4"/>
<stop offset="1" stop-color="#333333"/>
</radialGradient>
<radialGradient id="paint3_radial_583_6546" cx="0" cy="0" r="1" gradientUnits="userSpaceOnUse" gradientTransform="translate(52.5488 40.8265) scale(29.8754 29.1565)">
<stop offset="0.202" stop-color="white"/>
<stop offset="0.368" stop-color="#E4E4E4"/>
<stop offset="0.594" stop-color="#C4C4C4"/>
<stop offset="1" stop-color="#333333"/>
</radialGradient>
<radialGradient id="paint4_radial_583_6546" cx="0" cy="0" r="1" gradientUnits="userSpaceOnUse" gradientTransform="translate(76.658 70.6405) scale(56.6872 55.3231)">
<stop offset="0.202" stop-color="white"/>
<stop offset="0.368" stop-color="#E4E4E4"/>
<stop offset="0.594" stop-color="#C4C4C4"/>
<stop offset="1" stop-color="#333333"/>
</radialGradient>
<radialGradient id="paint5_radial_583_6546" cx="0" cy="0" r="1" gradientUnits="userSpaceOnUse" gradientTransform="translate(59.6881 5.76905) scale(45.0471 43.9632)">
<stop offset="0.202" stop-color="white"/>
<stop offset="0.397" stop-color="#FDFDFD"/>
<stop offset="0.51" stop-color="#F4F4F4"/>
<stop offset="0.603" stop-color="#E6E6E6"/>
<stop offset="0.684" stop-color="#D2D2D2"/>
<stop offset="0.728" stop-color="#C4C4C4"/>
<stop offset="1" stop-color="#4D4D4D"/>
</radialGradient>
<radialGradient id="paint6_radial_583_6546" cx="0" cy="0" r="1" gradientUnits="userSpaceOnUse" gradientTransform="translate(60.7339 10.1711) scale(30.3418 29.6117)">
<stop offset="0.111" stop-color="#4D4D4D"/>
<stop offset="0.248" stop-color="#494949"/>
<stop offset="0.355" stop-color="#404040"/>
<stop offset="0.451" stop-color="#2F2F2F"/>
<stop offset="0.541" stop-color="#181818"/>
<stop offset="0.611"/>
</radialGradient>
</defs>
</svg>
