<svg width="120" height="56" viewBox="0 0 120 56" fill="none" xmlns="http://www.w3.org/2000/svg">
<path d="M91.1992 21.2198C90.58 21.051 89.8905 20.9712 88.4381 20.7963C82.4268 20.5557 67.571 19.9919 60.0007 19.9919C52.4307 19.9919 37.5746 20.5553 31.5639 20.7963C30.1109 20.9712 29.4207 21.051 28.8019 21.2198C26.9119 21.6546 26.4961 22.3168 26.4961 23.6378V32.6915C26.4961 34.0129 27.9465 34.9032 28.9463 35.0827C29.9467 35.2636 30.5796 35.3358 31.632 35.4336C37.0084 35.7586 49.482 36.4361 60.0003 36.4469C70.519 36.4371 82.992 35.7589 88.3687 35.4336C89.4208 35.3358 90.054 35.2632 91.0548 35.0827C92.0542 34.9029 93.5046 34.0129 93.5046 32.6915V23.6378C93.5046 22.3168 93.0891 21.6546 91.1992 21.2198Z" fill="url(#paint0_linear_655_6566)"/>
<path d="M35.8933 21.5755C38.851 11.5339 48.5696 4.16606 60.1061 4.16606C71.6095 4.16606 81.3083 11.4934 84.2949 21.4947C84.3042 21.53 84.3106 21.5483 84.321 21.5823C86.0357 21.3943 87.5719 21.104 88.6574 20.8211C88.6377 20.7567 88.6326 20.7436 88.6156 20.6802C85.2212 8.76667 73.7434 0 60.1061 0C46.423 0 34.9149 8.82357 31.5625 20.796C33.0705 21.1991 34.1752 21.3682 35.8933 21.5755Z" fill="url(#paint1_radial_655_6566)"/>
<path d="M84.2238 34.7371C84.194 34.8263 84.1608 34.9247 84.1454 34.9735C81.0004 44.7345 71.4282 51.8339 60.1061 51.8339C48.6946 51.8339 39.0621 44.625 35.9934 34.7465C34.1179 35.0706 33.4843 35.1939 31.6309 35.4345C35.065 47.2898 46.5114 55.9999 60.1061 55.9999C73.7065 55.9999 85.1569 47.2807 88.5847 35.4155C86.9517 35.2187 85.9898 35.0699 84.2238 34.7371Z" fill="url(#paint2_radial_655_6566)"/>
<path d="M36.4976 21.5537C37.2095 21.2666 37.8984 20.8089 38.9722 20.5142C42.1735 12.397 50.427 6.61659 60.1064 6.61659C69.7556 6.61659 77.9886 12.3613 81.21 20.4394C81.2214 20.4668 81.2331 20.5002 81.2422 20.5208C81.7963 20.7081 83.429 21.3543 83.9369 21.5704C84.009 21.572 84.1627 21.5773 84.3215 21.5815C84.3122 21.5525 84.3035 21.5233 84.2954 21.4939C81.3075 11.4958 71.609 4.17078 60.1064 4.17078C48.5728 4.17078 38.8543 11.5354 35.8955 21.575C36.0664 21.5753 36.3917 21.5609 36.4976 21.5537Z" fill="url(#paint3_radial_655_6566)"/>
<path d="M59.9237 4.85097C70.7165 4.85097 80.2836 11.1316 83.9074 21.4841L83.9369 21.5721C83.9932 21.5721 84.1986 21.5793 84.3215 21.5832C84.3118 21.5456 84.3018 21.5237 84.2954 21.4956C81.3075 11.4975 71.609 4.17249 60.1064 4.17249C48.5728 4.17249 38.8543 11.5371 35.8955 21.5767C36.126 21.5731 36.2369 21.5731 36.4983 21.5551C39.7381 11.7267 49.2104 4.85097 59.9237 4.85097Z" fill="white"/>
<path d="M83.6124 34.7652C82.8372 35.188 81.8719 35.5947 81.1003 35.8324C81.0899 35.8566 81.046 35.9639 81.0366 35.9891C77.6989 43.8438 69.5852 49.3884 60.1062 49.3884C50.5675 49.3884 42.4123 43.7764 39.1134 35.8439C38.2259 35.6036 36.8991 35.013 36.3969 34.7665C36.209 34.7577 36.1078 34.7524 35.9922 34.7465C39.0608 44.6236 48.695 51.8339 60.1065 51.8339C71.4665 51.8339 81.0634 44.6897 84.177 34.8822C84.1837 34.8633 84.2182 34.7554 84.2256 34.7371C84.0457 34.7439 83.7706 34.7652 83.6124 34.7652Z" fill="url(#paint4_radial_655_6566)"/>
<path d="M90.6621 21.8751C89.07 21.6861 87.9844 21.7064 84.106 21.5759C83.9298 21.5697 83.7505 21.5645 83.5686 21.5583C76.536 21.3229 65.9721 21.0083 60.0003 21.0083C54.0289 21.0083 43.4653 21.3229 36.4318 21.5583C36.2502 21.5645 36.0716 21.5697 35.8957 21.5759C32.0166 21.7064 30.9314 21.6861 29.3389 21.8751C27.7468 22.0658 26.4961 22.7462 26.4961 23.9034V32.2993C26.4961 33.4571 28.0028 34.3946 29.3386 34.3946C29.3386 34.3946 46.3407 35.419 60.0003 35.4311C73.6604 35.419 90.6621 34.3946 90.6621 34.3946C91.9979 34.3946 93.5046 33.4571 93.5046 32.2993V23.9034C93.5046 22.7462 92.2542 22.0658 90.6621 21.8751Z" fill="url(#paint5_radial_655_6566)"/>
<path d="M83.6134 34.7648C80.2767 44.4248 70.8928 51.154 60.2931 51.154C49.5854 51.154 40.0843 44.9721 36.3968 34.7648C36.2615 34.7579 36.1275 34.7527 35.9951 34.7452C39.0631 44.6226 48.6989 51.8328 60.1108 51.8328C71.5264 51.8328 81.1632 44.618 84.2285 34.7354C84.0268 34.7445 83.8221 34.7553 83.6134 34.7648Z" fill="white"/>
<path d="M83.6329 34.7646L83.6124 34.7653C82.8372 35.1881 81.8726 35.5949 81.1003 35.8326C81.0899 35.8568 81.046 35.964 81.037 35.9892C79.9809 38.4749 78.4464 40.7291 76.54 42.6501C79.5239 40.5211 81.9577 37.8314 83.6329 34.7646Z" fill="#8C8C8C"/>
<path d="M44.3182 43.2753C42.0741 41.1892 40.2876 38.6639 39.115 35.8437C38.2274 35.603 36.901 35.0122 36.3984 34.7656C36.9355 35.8522 37.5687 36.8909 38.2908 37.87C39.768 39.7475 41.5584 41.421 43.5965 42.8371C43.8337 42.9889 44.0743 43.1347 44.3182 43.2753Z" fill="#4D4D4D"/>
<path d="M35.9931 34.7466V34.746L35.9854 34.7473C34.1159 35.0707 33.4816 35.1946 31.6309 35.4339C31.78 35.9506 31.9451 36.4597 32.125 36.9636L35.9931 34.7466Z" fill="#252525"/>
<path d="M73.616 25.593C73.0571 24.374 73.2555 24.5018 72.0389 24.4704C71.9401 24.4377 71.6764 24.4377 71.3152 24.4377C70.9547 24.4377 70.8884 24.4377 70.5922 24.4704C69.4423 24.4704 69.6393 24.4064 69.2453 25.2081C69.2453 25.2081 67.2716 29.538 66.4179 31.3341L66.3851 31.3982C66.2209 31.7183 66.3197 31.7183 66.5821 31.7183H68.3575C68.4895 31.7183 68.5545 31.6555 68.5873 31.5901C68.5873 31.5901 68.8503 31.0447 69.179 30.2753H73.5175C73.8465 31.0133 74.0763 31.5581 74.0763 31.5901C74.1091 31.6866 74.208 31.7183 74.3062 31.7183H76.1469C76.4099 31.7183 76.4759 31.752 76.3774 31.526C76.048 30.7566 73.9118 26.2656 73.616 25.593ZM69.8357 28.7359C70.3945 27.4532 70.954 26.2025 70.954 26.1701C70.9872 26.1057 71.0529 26.0736 71.1511 26.0736C71.1842 26.0409 71.2834 26.0409 71.3816 26.0409C71.4476 26.0409 71.5454 26.0409 71.5786 26.0736C71.6439 26.0736 71.7109 26.1057 71.7424 26.2021C71.8751 26.5543 72.3669 27.6454 72.8269 28.7359H69.8357ZM46.171 24.3737C46.3351 24.3737 46.3683 24.4374 46.3683 24.5659V31.4309C46.3683 31.5904 46.3351 31.6558 46.1385 31.6558H44.4291C44.2324 31.6558 44.1996 31.6231 44.1996 31.4309V24.5659C44.1996 24.4374 44.2324 24.3737 44.3634 24.3737H46.171ZM42.5227 24.4374C42.7193 24.4374 42.7532 24.5012 42.7532 24.6624V31.495C42.7532 31.6879 42.7193 31.7199 42.5227 31.7199H40.5174C39.3347 31.7199 39.2359 31.7199 38.8419 31.079C38.02 29.8283 35.5545 26.1394 35.5545 26.1394V31.4956C35.5545 31.6889 35.5216 31.7203 35.325 31.7203H33.8454C33.6484 31.7203 33.6152 31.6889 33.6152 31.4956V24.6624C33.6152 24.5018 33.6484 24.4374 33.8454 24.4374H35.5545C36.8363 24.4374 37.0005 24.4057 37.4615 25.0472C37.8227 25.625 40.8136 30.1154 40.8136 30.1154V24.6624C40.8136 24.5018 40.8465 24.4374 41.0441 24.4374H42.5227ZM86.4012 24.4374C86.5995 24.4374 86.6317 24.5012 86.6317 24.6624V31.495C86.6317 31.6879 86.5989 31.7199 86.4012 31.7199H84.398C83.2136 31.7199 83.1148 31.7199 82.7207 31.079C81.8982 29.8274 79.4333 26.1387 79.4333 26.1387V31.4953C79.4333 31.6882 79.4005 31.7196 79.2028 31.7196H77.7246C77.5276 31.7196 77.4937 31.6882 77.4937 31.4953V24.6624C77.4937 24.5018 77.5279 24.4374 77.7246 24.4374H79.4333C80.7152 24.4374 80.88 24.4057 81.3394 25.0472C81.734 25.625 84.6925 30.1154 84.6925 30.1154V24.6624C84.6925 24.5018 84.7256 24.4374 84.923 24.4374H86.4012ZM53.698 27.2292C55.0131 27.357 55.9666 27.5813 56.2293 28.8006C56.2293 28.8961 56.2624 29.2172 56.2624 29.5704C56.2624 29.7953 56.2624 30.0831 56.1964 30.3401C55.9669 31.4946 55.0787 31.7189 53.699 31.7189H48.1762C47.9788 31.7189 47.9457 31.6876 47.9457 31.4946V30.3401C47.9457 30.1472 47.9788 30.1151 48.1762 30.1151H53.763C53.9935 30.1151 54.0592 30.0513 54.0917 29.8901V29.6014V29.4092C54.0585 29.2803 54.026 29.0881 53.7305 29.0567C53.1057 29.0246 51.2656 28.8638 50.0159 28.7359C48.4054 28.5754 48.0113 27.9024 47.9453 27.3247C47.9125 27.1317 47.9125 26.8754 47.9125 26.6507C47.9125 26.4582 47.9125 26.1698 47.9453 25.9448C48.1758 24.9178 48.9649 24.4374 50.3446 24.4374H55.7019C55.8999 24.4374 55.9659 24.4701 55.9659 24.63V25.8173C55.9659 25.9765 55.8999 26.0413 55.7019 26.0092H50.4434C50.2132 26.0092 50.1151 26.1053 50.0816 26.3297V26.6184C50.0816 26.7789 50.1804 26.9074 50.4102 26.9385C51.0361 27.0039 52.9747 27.1641 53.698 27.2292ZM63.1961 27.2292C64.5122 27.357 65.4647 27.5813 65.7281 28.8006C65.7281 28.8961 65.7609 29.2172 65.7609 29.5704C65.7609 29.7953 65.7609 30.0831 65.6952 30.3401C65.4657 31.4946 64.5785 31.7189 63.1975 31.7189H57.675C57.4776 31.7189 57.4445 31.6876 57.4445 31.4946V30.3401C57.4445 30.1472 57.4776 30.1151 57.675 30.1151H63.2628C63.4927 30.1151 63.5573 30.0513 63.5912 29.8901V29.6014V29.4092C63.557 29.2803 63.492 29.0881 63.2293 29.0567C62.6051 29.0246 60.7644 28.8638 59.5157 28.7359C57.9045 28.5754 57.5436 27.9024 57.4445 27.3247C57.4116 27.1317 57.4116 26.8754 57.4116 26.6507C57.4116 26.4582 57.4116 26.1698 57.4445 25.9448C57.675 24.9178 58.4637 24.4374 59.8437 24.4374H65.202C65.3984 24.4374 65.465 24.4701 65.465 24.63V25.8173C65.465 25.9765 65.3984 26.0413 65.202 26.0092H59.9425C59.7127 26.0092 59.6145 26.1053 59.581 26.3297V26.6184C59.581 26.7789 59.647 26.9074 59.9104 26.9385C60.5349 27.0039 62.4735 27.1641 63.1961 27.2292Z" fill="url(#paint6_radial_655_6566)"/>
<defs>
<linearGradient id="paint0_linear_655_6566" x1="60.0003" y1="0.826968" x2="60.0003" y2="46.4084" gradientUnits="userSpaceOnUse">
<stop offset="0.194" stop-color="white"/>
<stop offset="0.208" stop-color="#F8F8F8"/>
<stop offset="0.366" stop-color="#AEAEAE"/>
<stop offset="0.513" stop-color="#707070"/>
<stop offset="0.647" stop-color="#404040"/>
<stop offset="0.764" stop-color="#1D1D1D"/>
<stop offset="0.86" stop-color="#080808"/>
<stop offset="0.922"/>
</linearGradient>
<radialGradient id="paint1_radial_655_6566" cx="0" cy="0" r="1" gradientUnits="userSpaceOnUse" gradientTransform="translate(41.1893 -11.2576) scale(46.726 45.6017)">
<stop offset="0.202" stop-color="white"/>
<stop offset="0.382" stop-color="#FDFDFD"/>
<stop offset="0.487" stop-color="#F4F4F4"/>
<stop offset="0.573" stop-color="#E6E6E6"/>
<stop offset="0.648" stop-color="#D2D2D2"/>
<stop offset="0.689" stop-color="#C4C4C4"/>
<stop offset="1" stop-color="#333333"/>
</radialGradient>
<radialGradient id="paint2_radial_655_6566" cx="0" cy="0" r="1" gradientUnits="userSpaceOnUse" gradientTransform="translate(154.269 61.7852) scale(97.3131 94.9715)">
<stop offset="0.202" stop-color="white"/>
<stop offset="0.368" stop-color="#E4E4E4"/>
<stop offset="0.594" stop-color="#C4C4C4"/>
<stop offset="1" stop-color="#333333"/>
</radialGradient>
<radialGradient id="paint3_radial_655_6566" cx="0" cy="0" r="1" gradientUnits="userSpaceOnUse" gradientTransform="translate(52.4131 40.8266) scale(29.8754 29.1565)">
<stop offset="0.202" stop-color="white"/>
<stop offset="0.368" stop-color="#E4E4E4"/>
<stop offset="0.594" stop-color="#C4C4C4"/>
<stop offset="1" stop-color="#333333"/>
</radialGradient>
<radialGradient id="paint4_radial_655_6566" cx="0" cy="0" r="1" gradientUnits="userSpaceOnUse" gradientTransform="translate(76.5213 70.6405) scale(56.6872 55.3231)">
<stop offset="0.202" stop-color="white"/>
<stop offset="0.368" stop-color="#E4E4E4"/>
<stop offset="0.594" stop-color="#C4C4C4"/>
<stop offset="1" stop-color="#333333"/>
</radialGradient>
<radialGradient id="paint5_radial_655_6566" cx="0" cy="0" r="1" gradientUnits="userSpaceOnUse" gradientTransform="translate(59.5514 5.76905) scale(45.0471 43.9632)">
<stop offset="0.202" stop-color="white"/>
<stop offset="0.397" stop-color="#FDFDFD"/>
<stop offset="0.51" stop-color="#F4F4F4"/>
<stop offset="0.603" stop-color="#E6E6E6"/>
<stop offset="0.684" stop-color="#D2D2D2"/>
<stop offset="0.728" stop-color="#C4C4C4"/>
<stop offset="1" stop-color="#4D4D4D"/>
</radialGradient>
<radialGradient id="paint6_radial_655_6566" cx="0" cy="0" r="1" gradientUnits="userSpaceOnUse" gradientTransform="translate(60.5952 10.1709) scale(30.3418 29.6117)">
<stop offset="0.111" stop-color="#4D4D4D"/>
<stop offset="0.248" stop-color="#494949"/>
<stop offset="0.355" stop-color="#404040"/>
<stop offset="0.451" stop-color="#2F2F2F"/>
<stop offset="0.541" stop-color="#181818"/>
<stop offset="0.611"/>
</radialGradient>
</defs>
</svg>
