<svg width="120" height="56" viewBox="0 0 120 56" fill="none" xmlns="http://www.w3.org/2000/svg">
<path fill-rule="evenodd" clip-rule="evenodd" d="M85.5303 50.614C85.5303 53.8623 83.5846 55.92 80.428 55.9977C77.3117 56.0746 75.3563 54.2423 75.2834 51.1578C75.2102 48.0874 77.2473 45.9697 80.337 45.8936C83.4256 45.8176 85.5303 47.7291 85.5303 50.614ZM77.8165 51.1864C77.8716 53.519 78.8574 54.834 80.4791 54.8324C82.6089 54.8296 83.0536 52.3682 83.0198 50.9746C82.9663 48.7016 82.1528 47.0919 80.4308 47.0952C78.7101 47.0988 77.7557 48.6432 77.8165 51.1864ZM64.2669 47.6373L64.6356 46.5055C63.6269 46.0438 62.3642 45.8864 61.2677 45.8864C56.7522 45.8864 55.2673 48.923 55.2673 50.9734C55.2673 53.6268 57.0352 55.9981 60.802 55.9981C63.401 55.9981 64.8859 55.1133 64.8859 55.1133V51.0431H62.3947L62.3939 54.5752C62.3939 54.5752 62.3609 54.6058 62.3058 54.6311C61.9882 54.7724 61.3554 54.8505 60.7058 54.7587C59.0498 54.5257 57.9525 53.0279 57.9525 51.0089C57.9525 48.6231 60.0613 47.3302 61.4718 47.2723C62.8846 47.2135 63.8185 47.5106 64.2669 47.6373ZM94.5089 47.5464H91.3745V55.5698H88.837V47.5464H85.788V46.2438H94.5089V47.5464ZM25.4922 46.2438H30.4496C32.3318 46.2438 32.7597 46.3098 33.4371 46.6021C34.2953 46.9599 34.9268 48.0523 34.9268 48.9516C34.9268 51.6452 32.9871 52.1331 30.6694 52.1331H28.1577V55.5694H25.4922V46.2438ZM28.1492 51.0737L30.0455 51.0733C31.34 51.0733 32.2296 50.2634 32.2296 49.2358C32.2296 48.2174 31.3259 47.3962 30.1642 47.3962L28.1496 47.4051V51.0737H28.1492ZM49.4308 55.9977H49.4465C51.1395 55.9977 52.1386 55.5493 53.0366 54.6492C53.5739 54.1103 53.908 53.4558 53.908 51.929V46.2434H51.4301C51.4301 46.2434 51.4277 51.2013 51.4277 52.6382C51.4277 53.911 50.5981 54.7285 49.4465 54.7285H49.4373C48.2824 54.7285 47.4178 53.9545 47.4178 52.5344C47.4178 51.1143 47.4158 46.2434 47.4158 46.2434H44.9375V51.8747C44.9375 53.4529 45.3239 54.1799 45.8617 54.7181C46.7593 55.6177 47.7447 55.9973 49.4373 55.9973H49.4308V55.9977ZM38.5547 54.0676H43.2099V55.5694H36.0301V46.2438H43.2099V47.5669H38.5547V49.9059H42.3155V51.0374H38.5547V54.0676ZM69.5576 54.1022H74.2135V55.5694H67.0334V46.2438H74.2135V47.6011H69.5576V49.9402H73.3187V51.072H69.5576V54.1022ZM80.112 40.3767V0H39.7353V40.3767H80.112Z" fill="#808080"/>
<path fill-rule="evenodd" clip-rule="evenodd" d="M64.1799 29.5471C65.2953 30.2816 65.7948 30.6129 66.8921 31.1684C67.8042 30.7949 68.866 31.1511 68.7018 31.899C68.5927 32.3941 68.5021 33.4515 67.9233 33.4116C67.2817 33.3609 66.5749 33.0554 65.7179 33.5565C65.1407 33.8786 64.3477 35.3578 63.8357 35.477C64.2125 35.9789 64.5055 36.3742 64.5055 36.3742C65.9546 36.3742 67.0458 37.1176 67.6126 37.4662C69.9798 36.4704 70.9096 36.889 73.2535 37.3092C73.5453 37.362 73.6991 36.9152 73.6073 36.5529C73.4507 35.935 73.0595 35.0563 73.0333 34.6651L73.0317 29.4955C72.6859 29.0906 72.2077 28.3491 72.2053 28.3496C71.2107 28.6011 70.747 28.5448 70.5639 27.9748C70.3666 27.3598 69.886 26.091 69.5105 25.2916C69.5105 25.2916 71.6386 25.0421 72.9113 23.5125C73.3879 22.9397 73.8963 21.9893 73.8862 20.8466C73.8625 18.2854 71.8249 14.5142 71.3137 13.2128C71.007 12.4303 70.1179 10.3702 70.9797 9.52655C71.317 9.19648 72.0133 9.01575 72.5096 10.0494C72.7503 10.5498 72.8562 10.3328 72.8091 10.4242C72.1904 11.3789 71.8225 11.8909 72.0809 12.7636C72.4416 13.9816 74.0187 15.1429 74.5226 15.4621C74.5226 15.4621 75.3647 16.0099 75.5346 15.8815C75.9371 15.5756 74.9505 13.9607 74.971 13.6339C74.99 13.3344 75.0032 13.0631 75.1006 12.7483C75.2105 12.3953 75.3796 11.8752 75.4786 11.3395C75.7938 9.63523 74.3818 7.27244 72.7403 7.04904C72.3023 6.98947 70.9068 7.51717 69.6868 9.33696C69.4557 9.68152 69.1232 10.5691 69.1587 11.2481C68.5613 9.82119 67.8267 8.19904 67.0257 7.00034C66.7669 6.43399 65.4076 4.85612 64.999 4.74744C63.8732 4.44716 62.8842 4.63192 61.8207 4.46729C61.3828 4.51156 58.2536 5.19182 58.1485 5.33793C58.1485 5.33793 57.387 6.52859 57.387 6.53503C56.6105 6.72542 55.6103 7.0579 55.4931 7.21005C55.1482 7.62867 54.8197 7.80538 54.9308 7.97645C55.0781 8.4635 55.4078 8.55809 55.4078 8.55809L57.1169 8.5605C57.5629 7.81101 58.9238 7.92331 59.72 8.57741C60.0022 8.80966 59.7204 8.61525 59.8496 8.97188C59.3875 9.16227 58.6477 9.39694 58.1176 9.2637C57.3894 9.16106 55.9206 9.06124 55.5169 9.20333L55.8099 9.68313C56.2559 9.87272 57.1998 9.95523 57.5508 9.96167C58.118 9.97415 58.9624 10.0313 59.7019 9.97415C59.332 10.5006 59.1114 11.199 58.6118 11.199H56.6274C56.6564 11.3298 56.2072 11.3 56.2515 11.424C56.2515 11.424 56.5433 11.7718 56.7043 11.9944L57.8905 12.0544C58.4327 12.0862 58.3965 12.601 58.1997 12.8928C57.8668 13.3811 56.9362 14.2944 56.1347 14.3705C54.1254 12.6199 52.6212 11.3451 50.6488 9.77853C50.3163 9.51246 49.9464 9.38526 49.3978 9.29027C48.8495 9.19527 47.9306 9.11276 47.1235 9.11276C46.7782 9.11276 44.9829 8.91995 44.8594 9.03387L45.1963 9.53621C45.2422 9.80388 45.1766 9.93913 45.1246 10.4391C45.1073 10.6391 45.026 10.9913 45.026 10.9913C45.026 10.9913 45.2848 11.3439 45.4933 11.6571C46.3688 11.3166 47.0994 11.9702 47.0994 11.9702L46.4558 12.4315L47.0732 13.2929C48.1206 13.6854 48.85 13.7232 50.3703 13.4165L53.297 16.9868L47.9483 17.2593C47.2085 17.2847 46.6413 17.8619 46.463 18.3502C46.2783 18.832 45.2973 19.0232 45.2538 19.4096L45.8838 20.3265L46.2493 20.2171C46.467 20.4783 46.8237 21 47.3715 21.2523C47.5631 20.9046 48.0759 20.4783 48.6865 20.6035C48.8459 20.8043 49.2299 21.3743 49.2299 21.3743C50.142 21.52 51.2337 20.8237 51.4249 19.9357L55.8429 19.8741L58.285 22.7392C56.5803 25.0376 54.8205 27.7293 53.1561 30.3718C53.8835 31.0315 53.6319 32.3784 52.4372 32.5044C51.6225 32.5905 50.7237 31.8386 49.6264 32.0861C48.5328 32.3244 47.2475 33.0429 46.595 33.9884C46.7106 34.1583 47.2185 34.8611 47.2185 34.8611C48.1548 35.0922 49.2802 35.6138 50.0684 36.6439C51.4289 35.7495 54.5066 36.565 55.6533 36.9454C55.9677 37.0746 56.2245 36.8395 56.2012 36.3975C56.175 35.902 55.6791 35.1972 55.9532 34.3881C56.4427 32.9435 60.0822 29.9476 62.0767 28.0613C62.0767 28.0605 63.4715 29.0817 64.1799 29.5471ZM71.0783 16.8749C71.7058 18.4589 71.932 19.1371 72.1349 20.2126C72.2959 21.072 72.2089 21.8525 71.8741 22.3017C71.4816 22.8278 70.4415 23.6598 68.4047 23.1804L68.4063 23.176C67.772 22.2502 66.5133 20.4779 65.9425 19.5972C66.3491 18.1127 66.5346 17.7516 66.8554 16.3372L67.6581 16.7457C68.034 15.6927 68.9506 13.0731 69.1289 12.1216C69.1289 12.1216 69.4135 12.6412 69.6212 13.2539C70.0792 14.6063 70.6178 15.7113 71.0783 16.8749ZM60.2851 6.25729C59.8955 6.42876 59.185 6.67671 58.6042 6.87395C58.4746 6.55596 58.4621 6.30197 58.5181 5.92642C58.9975 5.85155 59.7164 5.75494 60.1801 5.75494C60.4759 5.75494 60.5572 6.13009 60.2851 6.25729Z" fill="#A6A8AA"/>
<path fill-rule="evenodd" clip-rule="evenodd" d="M74.0906 12.7176C74.1144 12.4177 74.1993 12.1452 74.2975 11.8301C74.4098 11.4698 74.6151 10.9578 74.6763 10.4184C74.8711 8.71496 73.8821 7.14473 72.2366 6.92093C71.7971 6.86135 70.0533 6.58643 68.8309 8.41065C68.599 8.75642 68.2658 9.64518 68.3012 10.3262C67.7022 8.89569 66.9664 7.26991 66.163 6.06839C65.9899 5.83292 65.0875 4.77148 64.8407 4.70144C63.7165 4.40277 62.3753 4.09122 61.307 3.92578C60.8683 3.97006 57.5873 5.14018 57.4827 5.28589C57.4827 5.28589 57.1055 5.67996 57.1055 5.6864C56.327 5.8776 54.7206 6.12515 54.603 6.2777C54.2573 6.69753 54.498 7.0916 54.6095 7.26307C54.6465 7.32667 54.9061 8.23596 55.3694 8.23596L56.6112 8.23958C57.2166 7.22242 58.9861 7.1725 59.4804 8.53946C59.0151 8.73106 58.6464 8.94721 57.7322 8.83128C56.6241 8.6743 55.5164 9.05106 55.5216 9.20442C55.53 9.44754 56.8262 9.52805 57.1611 9.53408C57.7318 9.54696 58.5868 9.60372 59.3318 9.54656C58.9611 10.0743 58.2301 10.2771 57.7294 10.2771H55.7402C55.8281 10.6845 55.9985 11.0696 56.2409 11.4086H57.056C57.5998 11.4404 57.4319 11.6413 57.3156 11.9746C57.1059 12.5771 56.7251 13.488 56.1266 14.0185C54.1124 12.264 51.4127 10.067 49.5059 8.67189C48.9489 8.26413 46.6585 7.97875 45.5109 8.41387C45.1817 8.53865 44.9736 8.80713 44.8585 9.0253L45.4292 9.18872C44.3819 9.81585 45.0307 10.9916 45.0307 10.9916C45.5379 10.8829 46.3353 10.6293 47.1685 11.861L46.4621 12.423C46.8199 12.6765 48.9714 12.9257 49.5877 12.5453C49.5877 12.5453 52.1296 15.9333 52.4009 16.0778C52.5486 16.1563 51.3668 16.2219 50.0477 16.3173C48.9142 16.3355 47.8536 16.3536 47.0216 16.3717C46.2737 16.3878 45.7291 16.9553 45.55 17.4448C45.3648 17.9278 45.1672 18.9534 45.2537 19.3986L45.6675 19.265C46.1928 20.136 46.2174 20.3317 46.8972 20.5865C47.2776 19.6256 48.7065 19.7287 48.7065 19.7287L48.6904 20.6038C50.6745 20.5913 50.8648 19.1559 50.8648 19.1559L54.7347 19.0955L57.1828 22.0617C55.1742 24.15 53.7735 26.7337 52.2592 29.495C52.9885 30.1568 52.7362 31.5068 51.5383 31.6328C50.7216 31.7189 49.8207 30.9654 48.7206 31.2134C47.3798 31.506 47.658 32.5803 46.6018 33.9855C47.658 34.2459 48.7609 34.9339 49.487 35.7707C50.9373 34.8525 53.8737 35.5622 55.0229 35.9438C55.2785 36.0271 55.3839 35.5646 55.2177 35.1742C55.0824 34.8566 54.888 34.3615 55.2326 33.5536C55.5421 32.8287 58.9957 29.3187 61.4414 27.09C61.4555 27.0771 62.2984 27.7159 63.1473 28.3394C64.4744 29.3139 66.2387 30.2992 66.2387 30.2992L66.5933 30.2719C68.1985 29.9273 68.4722 31.3446 68.2939 31.8212C68.1156 32.2974 67.6414 32.5843 67.0618 32.5437C66.4186 32.493 65.7098 32.1867 64.8512 32.6894C63.9866 33.1724 64.3565 34.7873 63.8316 35.4676C65.2835 35.4676 66.4512 36.2114 67.0196 36.5608C69.3924 35.563 70.0855 35.8677 72.489 36.275C72.6564 36.3064 72.7885 35.8411 72.6037 35.5731C72.4314 35.3223 72.1625 34.6533 72.2113 34.1006V28.3519C70.6789 28.5551 69.9745 27.9196 69.7088 27.0932C69.5116 26.4765 68.9303 25.2178 68.5532 24.4168C68.5532 24.4168 70.9171 24.3565 72.1923 22.8237C72.6697 22.2497 73.0791 21.0884 72.8597 19.9972C72.5554 18.4841 72.3582 17.9773 71.8268 16.6551C71.3849 15.5542 70.5658 13.5424 70.2276 12.3964C69.749 10.7763 69.6782 10.0541 70.1858 9.15934C70.4941 8.61553 71.1631 8.10393 71.9247 8.47666C72.4238 8.72099 72.3147 8.86188 72.2676 8.95325C71.6473 9.91004 71.3974 11.1498 71.6566 12.0245C72.0188 13.2457 73.1725 14.2311 73.6772 14.5511C73.6772 14.5511 74.5209 15.1005 74.6916 14.9713C75.0953 14.6642 74.0512 13.1962 74.0906 12.7176ZM60.0507 5.86713C59.6623 6.03861 58.9535 6.28615 58.3742 6.48218C58.2446 6.165 58.2322 5.91141 58.2881 5.53707C58.7748 5.46099 59.484 5.366 59.9461 5.366C60.2419 5.3664 60.3224 5.74034 60.0507 5.86713ZM70.1226 16.1583C70.7513 17.7455 70.9779 18.4257 71.1808 19.5041C71.3426 20.3655 71.2565 21.1476 70.92 21.598C70.5267 22.1253 69.4838 22.9593 67.4418 22.4787L67.4434 22.4747C66.8074 21.5465 65.6759 19.8688 65.104 18.986C65.5121 17.4983 65.6977 17.1361 66.0181 15.7184C66.0181 15.7184 66.9105 16.2079 66.9511 16.0364C67.0997 15.4076 68.1184 12.4467 68.298 11.4927C68.298 11.4927 68.4537 11.9146 68.661 12.5288C69.1203 13.8837 69.6605 14.9914 70.1226 16.1583Z" fill="white"/>
<path fill-rule="evenodd" clip-rule="evenodd" d="M70.1247 16.1667C70.753 17.753 70.9792 18.4321 71.1821 19.51C71.3415 20.3573 71.259 21.1382 70.9212 21.5915C70.528 22.1188 69.4867 22.956 67.4463 22.4754L67.4479 22.4778C66.8119 21.5504 65.6812 19.8743 65.1097 18.992C65.517 17.5055 65.7026 17.1436 66.0234 15.7272C66.0234 15.7272 66.915 16.2162 66.9556 16.0448C67.1041 15.4168 68.1221 12.4579 68.3016 11.5051C68.3016 11.5051 68.4566 11.927 68.6647 12.5404C69.1232 13.8945 69.6626 15.001 70.1247 16.1667ZM63.0005 9.99851C63.0005 14.1916 61.0241 17.2861 60.7693 21.0223C60.6067 23.4137 60.7677 24.897 61.458 27.0919C61.458 27.0919 62.3001 27.715 63.1482 28.3377C64.4745 29.3114 66.2174 30.3237 66.2174 30.3237L66.6678 30.2815C68.1821 29.9333 68.4486 31.3683 68.2698 31.844C68.0923 32.3198 67.6415 32.569 67.0615 32.5287C66.4199 32.478 65.7114 32.1721 64.8533 32.6736C63.9895 33.1563 64.3517 34.7889 63.8264 35.4683C65.2771 35.4683 66.4521 36.2198 67.02 36.5692C69.3913 35.5718 70.1041 35.8906 72.5051 36.2975C72.6718 36.3289 72.7938 35.8479 72.605 35.5287C72.4508 35.2667 72.1743 34.6291 72.2133 34.1126L72.2069 28.3409C70.6761 28.5442 69.9725 27.909 69.7068 27.0834C69.5096 26.4672 68.9481 25.2282 68.5717 24.4276C68.5717 24.4276 70.9325 24.3676 72.2069 22.8357C72.6843 22.2621 73.0868 21.3141 72.9105 20.0233C72.7173 18.6136 72.2037 17.4278 71.8986 16.6296C71.4747 15.5227 70.6085 13.6031 70.2704 12.4587C69.7922 10.8398 69.6428 10.1527 70.183 9.17174C70.4849 8.62471 71.1603 8.10908 71.9203 8.48142C72.4202 8.72574 72.3103 8.86622 72.2632 8.9576C71.6438 9.91358 71.3946 11.1521 71.653 12.0264C72.0145 13.2464 73.1673 14.2314 73.6721 14.551C73.6721 14.551 74.5314 15.1101 74.7013 14.9813C75.1054 14.6754 74.0557 13.1981 74.0943 12.7195C74.1189 12.4201 74.1998 12.148 74.2972 11.8328C74.4095 11.4729 74.6288 10.9384 74.6904 10.3994C74.8852 8.69717 73.8769 7.12855 72.2322 6.90515C71.7935 6.84558 70.0514 6.57508 68.8297 8.39769C68.6019 8.73822 68.2614 9.57144 68.3008 10.3133C67.7019 8.88394 66.9745 7.25937 66.1727 6.05905C65.9996 5.82439 65.098 4.76334 64.8512 4.69331C63.8449 4.42563 61.8662 3.95106 61.3207 3.91846C61.3203 3.91966 63.0005 5.80547 63.0005 9.99851Z" fill="#E6E6E7"/>
</svg>
