<svg width="120" height="56" viewBox="0 0 120 56" fill="none" xmlns="http://www.w3.org/2000/svg">
<path fill-rule="evenodd" clip-rule="evenodd" d="M85.5294 50.614C85.5294 53.8623 83.5836 55.92 80.427 55.9977C77.3107 56.0746 75.3553 54.2423 75.2824 51.1578C75.2092 48.0874 77.2463 45.9697 80.3361 45.8936C83.4246 45.8176 85.5294 47.7291 85.5294 50.614ZM77.8155 51.1864C77.8706 53.519 78.8564 54.834 80.4782 54.8324C82.6079 54.8296 83.0527 52.3682 83.0189 50.9746C82.9653 48.7016 82.1518 47.0919 80.4299 47.0952C78.7091 47.0988 77.7547 48.6432 77.8155 51.1864ZM64.2659 47.6373L64.6346 46.5055C63.6259 46.0438 62.3632 45.8864 61.2667 45.8864C56.7513 45.8864 55.2664 48.923 55.2664 50.9734C55.2664 53.6268 57.0342 55.9981 60.801 55.9981C63.4001 55.9981 64.885 55.1133 64.885 55.1133V51.0431H62.3938L62.393 54.5752C62.393 54.5752 62.36 54.6058 62.3048 54.6311C61.9872 54.7724 61.3545 54.8505 60.7048 54.7587C59.0488 54.5257 57.9516 53.0279 57.9516 51.0088C57.9516 48.6231 60.0604 47.3302 61.4708 47.2723C62.8836 47.2135 63.8175 47.5106 64.2659 47.6373ZM94.508 47.5464H91.3736V55.5698H88.8361V47.5464H85.787V46.2438H94.508V47.5464ZM25.4912 46.2438H30.4486C32.3308 46.2438 32.7587 46.3098 33.4361 46.6021C34.2943 46.9599 34.9259 48.0523 34.9259 48.9516C34.9259 51.6452 32.9861 52.1331 30.6684 52.1331H28.1567V55.5694H25.4912V46.2438ZM28.1482 51.0737L30.0445 51.0733C31.339 51.0733 32.2286 50.2634 32.2286 49.2358C32.2286 48.2174 31.3249 47.3962 30.1633 47.3962L28.1486 47.4051V51.0737H28.1482ZM49.4298 55.9977H49.4455C51.1385 55.9977 52.1376 55.5493 53.0356 54.6492C53.573 54.1103 53.9071 53.4558 53.9071 51.929V46.2434H51.4291C51.4291 46.2434 51.4267 51.2013 51.4267 52.6382C51.4267 53.911 50.5971 54.7285 49.4455 54.7285H49.4363C48.2814 54.7285 47.4168 53.9545 47.4168 52.5344C47.4168 51.1143 47.4148 46.2434 47.4148 46.2434H44.9365V51.8747C44.9365 53.4529 45.3229 54.1799 45.8607 54.7181C46.7583 55.6177 47.7437 55.9973 49.4363 55.9973H49.4298V55.9977ZM38.5538 54.0676H43.2089V55.5694H36.0292V46.2438H43.2089V47.5669H38.5538V49.9059H42.3145V51.0374H38.5538V54.0676ZM69.5566 54.1022H74.2125V55.5694H67.0324V46.2438H74.2125V47.6011H69.5566V49.9402H73.3177V51.072H69.5566V54.1022ZM80.1111 40.3767V0H39.7344V40.3767H80.1111Z" fill="#255398"/>
<path fill-rule="evenodd" clip-rule="evenodd" d="M64.1818 29.5469C65.2972 30.2815 65.7968 30.6128 66.894 31.1683C67.8061 30.7947 68.868 31.151 68.7038 31.8988C68.5947 32.3939 68.5041 33.4514 67.9253 33.4115C67.2837 33.3608 66.5768 33.0553 65.7199 33.5564C65.1427 33.8784 64.3497 35.3577 63.8377 35.4768C64.2145 35.9788 64.5075 36.3741 64.5075 36.3741C65.9566 36.3741 67.0478 37.1175 67.6145 37.4661C69.9817 36.4703 70.9116 36.8889 73.2554 37.3091C73.5473 37.3618 73.701 36.915 73.6093 36.5528C73.4527 35.9349 73.0614 35.0562 73.0353 34.665L73.0337 29.4954C72.6879 29.0905 72.2097 28.349 72.2073 28.3494C71.2127 28.601 70.749 28.5447 70.5658 27.9747C70.3686 27.3596 69.888 26.0909 69.5124 25.2915C69.5124 25.2915 71.6405 25.0419 72.9133 23.5124C73.3899 22.9396 73.8983 21.9892 73.8882 20.8465C73.8645 18.2852 71.8269 14.514 71.3157 13.2127C71.009 12.4302 70.1198 10.3701 70.9816 9.52643C71.3189 9.19636 72.0153 9.01563 72.5116 10.0493C72.7523 10.5496 72.8582 10.3327 72.8111 10.424C72.1924 11.3788 71.8245 11.8908 72.0829 12.7635C72.4436 13.9815 74.0206 15.1428 74.5246 15.462C74.5246 15.462 75.3667 16.0098 75.5365 15.8814C75.939 15.5755 74.9525 13.9606 74.973 13.6337C74.9919 13.3343 75.0052 13.063 75.1026 12.7482C75.2125 12.3952 75.3815 11.8751 75.4806 11.3394C75.7957 9.63511 74.3837 7.27232 72.7422 7.04892C72.3043 6.98935 70.9088 7.51705 69.6887 9.33684C69.4577 9.6814 69.1252 10.569 69.1606 11.248C68.5633 9.82107 67.8287 8.19892 67.0277 7.00022C66.7688 6.43387 65.4095 4.856 65.001 4.74732C63.8751 4.44704 62.8861 4.63179 61.8227 4.46716C61.3847 4.51144 58.2556 5.1917 58.1505 5.33781C58.1505 5.33781 57.3889 6.52846 57.3889 6.5349C56.6125 6.7253 55.6122 7.05778 55.4951 7.20993C55.1501 7.62855 54.8217 7.80525 54.9328 7.97632C55.0801 8.46337 55.4097 8.55797 55.4097 8.55797L57.1188 8.56038C57.5648 7.81089 58.9258 7.92319 59.7219 8.57729C60.0041 8.80954 59.7223 8.61512 59.8515 8.97176C59.3895 9.16215 58.6496 9.39682 58.1195 9.26358C57.3913 9.16094 55.9226 9.06111 55.5188 9.2032L55.8119 9.68301C56.2579 9.87259 57.2018 9.95511 57.5528 9.96155C58.1199 9.97403 58.9644 10.0312 59.7038 9.97403C59.3339 10.5005 59.1133 11.1989 58.6138 11.1989H56.6294C56.6584 11.3297 56.2092 11.2999 56.2534 11.4239C56.2534 11.4239 56.5453 11.7717 56.7063 11.9943L57.8925 12.0542C58.4347 12.086 58.3985 12.6009 58.2016 12.8927C57.8687 13.381 56.9381 14.2943 56.1367 14.3703C54.1273 12.6198 52.6231 11.345 50.6508 9.7784C50.3183 9.51234 49.9484 9.38514 49.3997 9.29015C48.8515 9.19515 47.9325 9.11264 47.1255 9.11264C46.7801 9.11264 44.9849 8.91983 44.8613 9.03374L45.1982 9.53609C45.2441 9.80376 45.1785 9.93901 45.1266 10.4389C45.1093 10.639 45.028 10.9912 45.028 10.9912C45.028 10.9912 45.2868 11.3438 45.4953 11.657C46.3708 11.3164 47.1013 11.9701 47.1013 11.9701L46.4577 12.4314L47.0752 13.2928C48.1225 13.6853 48.8519 13.7231 50.3722 13.4164L53.2989 16.9867L47.9503 17.2592C47.2104 17.2846 46.6433 17.8618 46.465 18.3501C46.2802 18.8319 45.2993 19.0231 45.2558 19.4095L45.8857 20.3264L46.2512 20.2169C46.469 20.4782 46.8256 20.9998 47.3735 21.2522C47.5651 20.9044 48.0779 20.4782 48.6885 20.6034C48.8479 20.8042 49.2319 21.3742 49.2319 21.3742C50.144 21.5199 51.2356 20.8235 51.4268 19.9356L55.8449 19.874L58.287 22.7391C56.5823 25.0375 54.8225 27.7292 53.1581 30.3717C53.8854 31.0314 53.6338 32.3782 52.4392 32.5042C51.6245 32.5904 50.7256 31.8385 49.6284 32.086C48.5347 32.3243 47.2495 33.0428 46.597 33.9883C46.7125 34.1582 47.2205 34.861 47.2205 34.861C48.1568 35.092 49.2822 35.6137 50.0703 36.6437C51.4308 35.7493 54.5085 36.5648 55.6553 36.9452C55.9697 37.0744 56.2265 36.8394 56.2031 36.3974C56.1769 35.9019 55.681 35.1971 55.9552 34.388C56.4446 32.9434 60.0842 29.9474 62.0787 28.0612C62.0787 28.0604 63.4734 29.0816 64.1818 29.5469ZM71.0802 16.8748C71.7077 18.4587 71.934 19.137 72.1368 20.2125C72.2978 21.0719 72.2109 21.8524 71.876 22.3016C71.4835 22.8277 70.4434 23.6597 68.4067 23.1803L68.4083 23.1759C67.7739 22.2501 66.5153 20.4778 65.9445 19.5971C66.351 18.1126 66.5366 17.7515 66.8574 16.3371L67.66 16.7456C68.036 15.6926 68.9525 13.073 69.1308 12.1215C69.1308 12.1215 69.4154 12.6411 69.6231 13.2538C70.0812 14.6062 70.6197 15.7111 71.0802 16.8748ZM60.2871 6.25717C59.8974 6.42864 59.187 6.67659 58.6062 6.87383C58.4765 6.55584 58.4641 6.30185 58.52 5.9263C58.9994 5.85143 59.7183 5.75482 60.182 5.75482C60.4779 5.75482 60.5592 6.12997 60.2871 6.25717Z" fill="#A6A8AA"/>
<path fill-rule="evenodd" clip-rule="evenodd" d="M74.0906 12.7176C74.1144 12.4177 74.1993 12.1452 74.2975 11.8301C74.4098 11.4698 74.6151 10.9578 74.6763 10.4184C74.8711 8.71496 73.8821 7.14473 72.2366 6.92093C71.7971 6.86135 70.0533 6.58643 68.8309 8.41065C68.599 8.75642 68.2658 9.64518 68.3012 10.3262C67.7022 8.89569 66.9664 7.26991 66.163 6.06839C65.9899 5.83292 65.0875 4.77147 64.8407 4.70144C63.7165 4.40277 62.3753 4.09122 61.307 3.92578C60.8683 3.97006 57.5873 5.14018 57.4827 5.28589C57.4827 5.28589 57.1055 5.67996 57.1055 5.6864C56.327 5.8776 54.7206 6.12515 54.603 6.2777C54.2573 6.69753 54.498 7.0916 54.6095 7.26307C54.6465 7.32667 54.9061 8.23596 55.3694 8.23596L56.6112 8.23958C57.2166 7.22242 58.9861 7.1725 59.4804 8.53946C59.0151 8.73106 58.6464 8.94721 57.7322 8.83128C56.6241 8.6743 55.5164 9.05106 55.5216 9.20442C55.53 9.44754 56.8262 9.52805 57.1611 9.53408C57.7318 9.54696 58.5868 9.60372 59.3318 9.54656C58.9611 10.0743 58.2301 10.2771 57.7294 10.2771H55.7402C55.8281 10.6845 55.9985 11.0696 56.2409 11.4086H57.056C57.5998 11.4404 57.4319 11.6413 57.3156 11.9746C57.1059 12.5771 56.7251 13.488 56.1266 14.0185C54.1124 12.264 51.4127 10.067 49.5059 8.67189C48.9489 8.26413 46.6585 7.97875 45.5109 8.41387C45.1817 8.53865 44.9736 8.80713 44.8585 9.0253L45.4292 9.18872C44.3819 9.81585 45.0307 10.9916 45.0307 10.9916C45.5379 10.8829 46.3353 10.6293 47.1685 11.861L46.4621 12.423C46.8199 12.6766 48.9714 12.9257 49.5877 12.5453C49.5877 12.5453 52.1296 15.9333 52.4009 16.0778C52.5486 16.1563 51.3668 16.2219 50.0477 16.3173C48.9142 16.3354 47.8536 16.3536 47.0216 16.3717C46.2737 16.3878 45.7291 16.9553 45.55 17.4448C45.3648 17.9278 45.1672 18.9534 45.2537 19.3986L45.6675 19.265C46.1928 20.136 46.2174 20.3317 46.8972 20.5865C47.2776 19.6256 48.7065 19.7287 48.7065 19.7287L48.6904 20.6038C50.6745 20.5913 50.8648 19.1559 50.8648 19.1559L54.7347 19.0955L57.1828 22.0617C55.1742 24.15 53.7735 26.7337 52.2592 29.495C52.9885 30.1568 52.7362 31.5068 51.5383 31.6328C50.7216 31.7189 49.8207 30.9654 48.7206 31.2134C47.3798 31.506 47.658 32.5803 46.6018 33.9855C47.658 34.2459 48.7609 34.9339 49.487 35.7707C50.9373 34.8525 53.8737 35.5622 55.0229 35.9438C55.2785 36.0271 55.3839 35.5646 55.2177 35.1742C55.0824 34.8566 54.888 34.3615 55.2326 33.5536C55.5421 32.8287 58.9957 29.3187 61.4414 27.09C61.4555 27.0771 62.2984 27.7159 63.1473 28.3394C64.4744 29.3139 66.2387 30.2992 66.2387 30.2992L66.5933 30.2719C68.1985 29.9273 68.4722 31.3446 68.2939 31.8212C68.1156 32.2974 67.6414 32.5843 67.0618 32.5437C66.4186 32.493 65.7098 32.1867 64.8512 32.6894C63.9866 33.1724 64.3565 34.7873 63.8316 35.4676C65.2835 35.4676 66.4512 36.2114 67.0196 36.5608C69.3924 35.563 70.0855 35.8677 72.489 36.275C72.6564 36.3064 72.7885 35.8411 72.6037 35.5731C72.4314 35.3223 72.1625 34.6533 72.2113 34.1006V28.3519C70.6789 28.5551 69.9745 27.9196 69.7088 27.0932C69.5116 26.4765 68.9303 25.2178 68.5532 24.4168C68.5532 24.4168 70.9171 24.3565 72.1923 22.8237C72.6697 22.2497 73.0791 21.0884 72.8597 19.9972C72.5554 18.4841 72.3582 17.9773 71.8268 16.6551C71.3849 15.5542 70.5658 13.5424 70.2276 12.3964C69.749 10.7763 69.6782 10.0541 70.1858 9.15934C70.4941 8.61553 71.1631 8.10393 71.9247 8.47666C72.4238 8.72099 72.3147 8.86188 72.2676 8.95325C71.6473 9.91004 71.3974 11.1498 71.6566 12.0245C72.0188 13.2457 73.1725 14.2311 73.6772 14.5511C73.6772 14.5511 74.5209 15.1005 74.6916 14.9713C75.0953 14.6642 74.0512 13.1962 74.0906 12.7176ZM60.0507 5.86713C59.6623 6.03861 58.9535 6.28615 58.3742 6.48218C58.2446 6.165 58.2322 5.91141 58.2881 5.53707C58.7748 5.46099 59.484 5.366 59.9461 5.366C60.2419 5.3664 60.3224 5.74034 60.0507 5.86713ZM70.1226 16.1583C70.7513 17.7455 70.9779 18.4257 71.1808 19.5041C71.3426 20.3655 71.2565 21.1476 70.92 21.598C70.5267 22.1253 69.4838 22.9593 67.4418 22.4787L67.4434 22.4747C66.8074 21.5465 65.6759 19.8688 65.104 18.986C65.5121 17.4983 65.6977 17.1361 66.0181 15.7184C66.0181 15.7184 66.9105 16.2079 66.9511 16.0364C67.0997 15.4076 68.1184 12.4467 68.298 11.4927C68.298 11.4927 68.4537 11.9146 68.661 12.5288C69.1203 13.8837 69.6605 14.9914 70.1226 16.1583Z" fill="white"/>
<path fill-rule="evenodd" clip-rule="evenodd" d="M70.1246 16.1667C70.753 17.753 70.9792 18.4321 71.1821 19.51C71.3415 20.3573 71.259 21.1382 70.9212 21.5915C70.528 22.1188 69.4867 22.956 67.4463 22.4754L67.4479 22.4778C66.8119 21.5504 65.6812 19.8743 65.1097 18.992C65.517 17.5055 65.7026 17.1436 66.0234 15.7272C66.0234 15.7272 66.915 16.2162 66.9556 16.0448C67.1041 15.4168 68.1221 12.4579 68.3016 11.5051C68.3016 11.5051 68.4566 11.927 68.6647 12.5404C69.1232 13.8945 69.6626 15.001 70.1246 16.1667ZM63.0005 9.99851C63.0005 14.1916 61.0241 17.2861 60.7693 21.0223C60.6067 23.4137 60.7677 24.897 61.458 27.0919C61.458 27.0919 62.3001 27.715 63.1482 28.3377C64.4745 29.3114 66.2174 30.3237 66.2174 30.3237L66.6678 30.2815C68.1821 29.9333 68.4486 31.3683 68.2698 31.844C68.0923 32.3198 67.6415 32.569 67.0615 32.5287C66.4199 32.478 65.7114 32.1721 64.8533 32.6736C63.9895 33.1563 64.3517 34.7889 63.8264 35.4683C65.2771 35.4683 66.4521 36.2198 67.02 36.5692C69.3913 35.5718 70.1041 35.8906 72.5051 36.2975C72.6718 36.3289 72.7938 35.8479 72.605 35.5287C72.4508 35.2667 72.1743 34.6291 72.2133 34.1126L72.2069 28.3409C70.6761 28.5442 69.9725 27.909 69.7068 27.0834C69.5096 26.4672 68.9481 25.2282 68.5717 24.4276C68.5717 24.4276 70.9325 24.3676 72.2069 22.8357C72.6843 22.2621 73.0868 21.3141 72.9105 20.0233C72.7173 18.6136 72.2037 17.4278 71.8986 16.6296C71.4747 15.5227 70.6085 13.6031 70.2704 12.4587C69.7922 10.8398 69.6428 10.1527 70.183 9.17174C70.4849 8.62471 71.1603 8.10908 71.9203 8.48142C72.4202 8.72574 72.3103 8.86622 72.2632 8.9576C71.6438 9.91358 71.3946 11.1521 71.653 12.0264C72.0145 13.2464 73.1673 14.2314 73.6721 14.551C73.6721 14.551 74.5314 15.1101 74.7013 14.9813C75.1054 14.6754 74.0557 13.1981 74.0943 12.7195C74.1189 12.4201 74.1998 12.148 74.2972 11.8328C74.4095 11.4729 74.6288 10.9384 74.6904 10.3994C74.8852 8.69717 73.8769 7.12855 72.2322 6.90515C71.7935 6.84558 70.0514 6.57508 68.8297 8.39769C68.6019 8.73822 68.2614 9.57144 68.3008 10.3133C67.7019 8.88394 66.9745 7.25937 66.1727 6.05905C65.9996 5.82439 65.098 4.76334 64.8512 4.69331C63.8449 4.42563 61.8662 3.95106 61.3207 3.91846C61.3203 3.91966 63.0005 5.80547 63.0005 9.99851Z" fill="#E6E6E7"/>
</svg>
