<svg width="120" height="56" viewBox="0 0 120 56" fill="none" xmlns="http://www.w3.org/2000/svg">
<g opacity="0.8">
<mask id="mask0_583_5613" style="mask-type:luminance" maskUnits="userSpaceOnUse" x="38" y="1" width="44" height="54">
<path d="M59.6071 41.2141C57.3043 36.8709 55.727 33.883 53.5504 29.0777C53.3611 28.6773 53.2349 28.3693 53.2349 27.9688C53.2349 27.5992 53.3926 27.2912 53.5504 26.8907C55.727 22.0854 57.3043 19.0975 59.6071 14.7851C59.7332 14.5387 59.8594 14.3847 59.9856 14.3847C60.1433 14.3847 60.238 14.5387 60.3957 14.7851C62.6985 19.1283 64.2442 22.1162 66.4524 26.8907C66.6417 27.2912 66.7679 27.5992 66.7679 27.9996C66.7679 28.4001 66.6417 28.6773 66.4524 29.0777C64.2442 33.883 62.6985 36.8709 60.3957 41.2141C60.2695 41.4606 60.1433 41.6146 60.0172 41.6454C59.8279 41.6146 59.7332 41.4606 59.6071 41.2141ZM53.7081 1.17014C53.4873 1.20095 53.4242 1.23175 53.3295 1.26255C53.2349 1.32415 53.1087 1.38576 52.951 1.63219C52.4463 2.37146 47.3044 10.6267 44.0237 16.4177C41.6893 20.5453 39.4181 24.9193 38.4402 26.9215C38.1878 27.4452 38.1562 27.8148 38.1562 27.9688C38.1562 28.2461 38.2509 28.6157 38.4402 29.0161C39.4181 31.0183 41.7209 35.3924 44.0237 39.52C47.3044 45.3418 52.4147 53.597 52.951 54.3055C53.0456 54.4287 53.1087 54.5211 53.1718 54.5827C53.298 54.7059 53.3926 54.7675 53.5188 54.8291C53.645 54.8599 53.8974 54.8599 54.1182 54.8291C54.2444 54.8291 54.3705 54.8291 54.4967 54.8291C55.8216 54.8599 57.8405 54.9215 59.9856 54.9215C62.6354 54.9215 65.7584 54.8599 66.2316 54.7983H66.2947C66.4839 54.7675 66.5786 54.7367 66.6417 54.7367C66.7363 54.7059 66.8309 54.6135 67.0518 54.3055C67.588 53.597 72.6668 45.3726 75.9475 39.5508C78.2819 35.4232 80.5532 31.0491 81.5311 29.0469C81.7834 28.5233 81.815 28.092 81.815 27.938C81.815 27.6608 81.7203 27.3528 81.5311 26.9523C80.5532 24.9193 78.2504 20.5761 75.9475 16.4485C72.6668 10.6267 67.5565 2.37146 67.0202 1.66299C66.8625 1.47817 66.7679 1.35496 66.6417 1.26255C66.5786 1.20094 66.5155 1.17014 66.4524 1.17014C66.3262 1.13934 66.0423 1.13934 65.8215 1.17014C65.6953 1.20095 65.5691 1.17014 65.443 1.17014C64.3389 1.13934 62.1622 1.07773 59.9856 1.07773C57.3358 1.04693 54.1497 1.13934 53.7081 1.17014Z" fill="white"/>
</mask>
<g mask="url(#mask0_583_5613)">
<path d="M81.8781 1.04639H38.1562V54.921H81.8781V1.04639Z" fill="url(#paint0_linear_583_5613)"/>
</g>
<mask id="mask1_583_5613" style="mask-type:luminance" maskUnits="userSpaceOnUse" x="38" y="1" width="44" height="54">
<path d="M59.6071 41.2141C57.3043 36.8709 55.727 33.883 53.5504 29.0777C53.3611 28.6773 53.2349 28.3693 53.2349 27.9688C53.2349 27.5992 53.3926 27.2912 53.5504 26.8907C55.7585 22.0854 57.3043 19.0975 59.6071 14.7851C59.7332 14.5387 59.8594 14.3847 59.9856 14.3847C60.1433 14.3847 60.238 14.5387 60.3957 14.8159C62.6985 19.1591 64.2442 22.147 66.4524 26.9215C66.6417 27.322 66.7679 27.63 66.7679 28.0304C66.7679 28.4309 66.6417 28.7081 66.4524 29.1085C64.2442 33.9138 62.6985 36.9017 60.3957 41.245C60.2695 41.4914 60.1433 41.6454 60.0172 41.6762C59.8279 41.6146 59.7332 41.4606 59.6071 41.2141ZM53.7081 1.17014C53.4873 1.20095 53.4242 1.23175 53.3295 1.26255C53.2349 1.32415 53.1087 1.38576 52.951 1.63219C52.4463 2.37146 47.3044 10.6267 44.0237 16.4177C41.6893 20.5453 39.4181 24.9193 38.4402 26.9215C38.1878 27.4452 38.1562 27.8148 38.1562 27.9688C38.1562 28.2461 38.2509 28.6157 38.4402 29.0161C39.4181 31.0183 41.7209 35.3924 44.0237 39.52C47.3044 45.3418 52.4147 53.597 52.951 54.3055C53.0456 54.4287 53.1087 54.5211 53.1718 54.5827C53.298 54.7059 53.3926 54.7675 53.5188 54.8291C53.645 54.8599 53.8974 54.8599 54.1182 54.8291C54.2444 54.8291 54.3705 54.8291 54.4967 54.8291C55.7901 54.8599 57.7774 54.9215 59.891 54.9215H59.9856C62.6354 54.9215 65.7584 54.8599 66.2316 54.7983H66.2947C66.4839 54.7675 66.5786 54.7367 66.6417 54.7367C66.7363 54.7059 66.8309 54.6135 67.0518 54.3055C67.588 53.597 72.6668 45.3726 75.9475 39.5508C78.2819 35.4232 80.5532 31.0491 81.5311 29.0469C81.7834 28.5233 81.815 28.092 81.815 27.938C81.815 27.6608 81.7203 27.3528 81.5311 26.9523C80.5532 24.9193 78.2504 20.5761 75.9475 16.4485C72.6668 10.6267 67.5565 2.37146 67.0202 1.66299C66.8625 1.47817 66.7679 1.35496 66.6417 1.26255C66.5786 1.20094 66.5155 1.17014 66.4524 1.17014C66.3262 1.13934 66.0423 1.13934 65.8215 1.17014C65.6953 1.20095 65.5691 1.17014 65.443 1.17014C64.3389 1.13934 62.1622 1.07773 59.9856 1.07773C57.3358 1.04693 54.1497 1.13934 53.7081 1.17014Z" fill="white"/>
</mask>
<g mask="url(#mask1_583_5613)">
<path d="M81.8781 1.04639H38.1562V54.921H81.8781V1.04639Z" fill="url(#paint1_radial_583_5613)"/>
</g>
<mask id="mask2_583_5613" style="mask-type:luminance" maskUnits="userSpaceOnUse" x="38" y="27" width="22" height="28">
<path d="M51.0584 27.9691C50.8691 28.1539 50.5537 28.308 49.7335 28.308C49.008 28.308 42.9197 28.308 39.986 28.308C39.5444 28.308 38.9766 28.2772 38.9766 28.924C38.9766 29.3245 39.3236 30.0945 40.0176 31.4499C43.8661 38.8426 48.1878 46.2045 52.7619 53.4125C52.7619 53.4125 53.4559 54.5214 53.5505 54.6138C53.6136 54.7062 53.7082 54.737 53.866 54.737C53.866 54.737 56.7997 49.5313 59.134 43.8327C56.5158 39.1198 54.0868 34.4378 51.8155 29.7249C51.8155 29.7249 51.1846 28.5544 51.1531 28.0923C51.1531 28.0307 51.1531 27.9999 51.1531 27.9383C51.1531 27.8767 51.1531 27.8767 51.1215 27.8767C51.1846 27.8767 51.1215 27.9383 51.0584 27.9691Z" fill="white"/>
</mask>
<g mask="url(#mask2_583_5613)">
<path d="M59.1968 27.8767H39.0078V54.737H59.1968V27.8767Z" fill="url(#paint2_linear_583_5613)"/>
</g>
<mask id="mask3_583_5613" style="mask-type:luminance" maskUnits="userSpaceOnUse" x="54" y="28" width="28" height="27">
<path d="M81.3111 28.0618C81.2164 28.1543 80.901 28.3083 80.2385 28.3083H72.226C68.5352 28.3083 68.9138 28.2159 67.9674 30.1257C67.5573 30.9573 67.1157 31.9738 66.6425 32.7747C63.4249 39.3358 55.6016 52.5503 54.5291 54.1829C54.119 54.7989 54.0559 54.8297 54.3714 54.8297C54.3714 54.8297 57.0212 54.9221 59.9864 54.9221C64.6236 54.9221 66.264 54.7989 66.264 54.7989C68.9453 50.7329 75.349 40.3831 79.9231 31.4502C80.9641 29.3864 81.5004 28.4931 81.4373 28.0618C81.4373 28.031 81.4057 28.0002 81.4057 28.0002C81.3742 28.0002 81.3426 28.031 81.3111 28.0618Z" fill="white"/>
</mask>
<g mask="url(#mask3_583_5613)">
<path d="M81.4988 28.0002H54.0859V54.9221H81.4988V28.0002Z" fill="url(#paint3_linear_583_5613)"/>
</g>
<mask id="mask4_583_5613" style="mask-type:luminance" maskUnits="userSpaceOnUse" x="51" y="1" width="16" height="27">
<path d="M66.0421 1.23218C65.8528 1.23218 65.7266 1.38619 65.4427 1.78663C63.1715 5.20578 55.3482 19.6216 52.1306 26.3367C51.7521 27.1684 51.5312 27.5688 51.5312 27.9693H53.2032C53.2032 27.5996 53.3609 27.2916 53.5186 26.8911C55.6952 22.0859 57.2725 19.098 59.5753 14.7855C59.7015 14.5391 59.8277 14.3851 59.9539 14.3851L60.6163 12.5369C62.8876 7.02316 66.0736 1.23218 66.0421 1.23218Z" fill="white"/>
</mask>
<g mask="url(#mask4_583_5613)">
<path d="M66.0733 1.23218H51.5625V27.9693H66.0733V1.23218Z" fill="url(#paint4_linear_583_5613)"/>
</g>
<mask id="mask5_583_5613" style="mask-type:luminance" maskUnits="userSpaceOnUse" x="59" y="12" width="10" height="16">
<path d="M59.9844 14.355C60.1421 14.355 60.2367 14.509 60.3945 14.7555C62.6973 19.0987 64.243 22.0866 66.4512 26.8611C66.6404 27.2615 66.7666 27.5695 66.7666 27.97H68.4385C68.4385 27.5695 68.2492 27.1691 67.8707 26.3682C65.6625 21.7786 63.3597 17.3121 60.6784 12.5068L59.9844 14.355Z" fill="white"/>
</mask>
<g mask="url(#mask5_583_5613)">
<path d="M68.407 12.5378H59.9844V28.001H68.407V12.5378Z" fill="url(#paint5_linear_583_5613)"/>
</g>
<mask id="mask6_583_5613" style="mask-type:luminance" maskUnits="userSpaceOnUse" x="51" y="27" width="9" height="17">
<path d="M51.5625 27.9695C51.5625 28.3699 51.7518 28.7704 52.1303 29.602C54.3385 34.1917 56.6413 38.6581 59.3226 43.4634L59.9851 41.6152C59.8274 41.6152 59.7327 41.4612 59.6066 41.184C57.3037 36.8716 55.7265 33.8837 53.5499 29.0784C53.3606 28.678 53.2344 28.3699 53.2344 27.9695H51.8149H51.5625Z" fill="white"/>
</mask>
<g mask="url(#mask6_583_5613)">
<path d="M60.0166 27.9695H51.5625V43.4634H60.0166V27.9695Z" fill="url(#paint6_linear_583_5613)"/>
</g>
<mask id="mask7_583_5613" style="mask-type:luminance" maskUnits="userSpaceOnUse" x="51" y="27" width="10" height="17">
<path d="M52.1619 29.602C54.37 34.1917 56.6728 38.6581 59.3542 43.4634L60.0166 41.6152C59.8589 41.6152 59.7643 41.4612 59.6381 41.184C57.3037 36.8716 55.7265 33.8837 53.5499 29.0784C53.3606 28.678 53.2344 28.3699 53.2344 27.9695H51.5625C51.5625 28.3699 51.7518 28.8012 52.1619 29.602Z" fill="white"/>
</mask>
<g mask="url(#mask7_583_5613)">
<mask id="mask8_583_5613" style="mask-type:luminance" maskUnits="userSpaceOnUse" x="45" y="24" width="21" height="23">
<path d="M65.9167 24.8896H45.6016V46.5442H65.9167V24.8896Z" fill="white"/>
</mask>
<g mask="url(#mask8_583_5613)">
<mask id="mask9_583_5613" style="mask-type:luminance" maskUnits="userSpaceOnUse" x="45" y="24" width="21" height="23">
<path d="M45.6016 40.8454L58.5667 46.544L65.9483 30.588L52.9832 24.8894L45.6016 40.8454Z" fill="white"/>
</mask>
<g mask="url(#mask9_583_5613)">
<path d="M74.2758 28.5555L49.0395 17.4355L37.3047 42.9097L62.5094 53.9988L74.2758 28.5555Z" fill="url(#paint7_linear_583_5613)"/>
</g>
</g>
</g>
<mask id="mask10_583_5613" style="mask-type:luminance" maskUnits="userSpaceOnUse" x="53" y="28" width="16" height="27">
<path d="M66.7647 28.0002C66.7647 28.4007 66.6385 28.6779 66.4493 29.0784C64.2411 33.8836 62.6954 36.8715 60.3926 41.2148C60.2664 41.4612 60.1402 41.6152 60.014 41.646L59.3516 43.4942C56.9857 49.316 53.9258 54.7681 53.9258 54.7681C54.1151 54.7681 54.3359 54.5525 54.5882 54.1829C54.6513 54.0905 54.746 53.9364 54.8406 53.7516C56.544 50.9177 64.7774 36.0706 67.8373 29.6636C68.2158 28.8319 68.4366 28.4315 68.4366 28.031H66.7647V28.0002Z" fill="white"/>
</mask>
<g mask="url(#mask10_583_5613)">
<path d="M68.4093 28.0002H53.8984V54.7681H68.4093V28.0002Z" fill="url(#paint8_linear_583_5613)"/>
</g>
<mask id="mask11_583_5613" style="mask-type:luminance" maskUnits="userSpaceOnUse" x="37" y="28" width="17" height="28">
<path d="M37.082 28.0002C37.082 28.3699 37.1767 28.8319 37.4921 29.5096C38.2492 31.1114 40.3943 35.2082 43.1072 40.075C46.0724 45.3732 51.4982 54.1829 52.0976 54.9837C52.35 55.3226 52.5392 55.5074 52.7601 55.6306L53.2017 54.6141C53.1386 54.5525 53.044 54.4601 52.9809 54.3369C52.4446 53.6284 47.3343 45.3424 44.0535 39.5514C41.7192 35.4238 39.4479 31.0497 38.47 29.0475C38.2808 28.6471 38.1861 28.2775 38.1861 28.0002H37.082Z" fill="white"/>
</mask>
<g mask="url(#mask11_583_5613)">
<path d="M53.2017 28.0002H37.082V55.6306H53.2017V28.0002Z" fill="url(#paint9_linear_583_5613)"/>
</g>
<mask id="mask12_583_5613" style="mask-type:luminance" maskUnits="userSpaceOnUse" x="52" y="54" width="16" height="2">
<path d="M52.7578 55.6301C53.0417 55.8149 53.3256 55.8457 53.6411 55.8765C54.4297 55.9381 57.9628 55.9997 60.0132 55.9997C62.0637 55.9997 65.8491 55.9073 66.3854 55.8765C66.6378 55.8457 66.8586 55.8149 67.1109 55.7225L66.6693 54.7368C66.6062 54.7676 66.5116 54.7984 66.3223 54.7984H66.2592C65.786 54.86 62.6946 54.9216 60.0132 54.9216C57.8682 54.9216 55.8493 54.8908 54.5243 54.8292C54.3982 54.8292 54.272 54.8292 54.1458 54.8292C53.925 54.86 53.6726 54.86 53.5464 54.8292C53.4203 54.7984 53.3256 54.706 53.1994 54.5828L52.7578 55.6301Z" fill="white"/>
</mask>
<g mask="url(#mask12_583_5613)">
<path d="M52.1289 55.6606L63.4852 62.0369L67.6808 54.9522L56.3244 48.5759L52.1289 55.6606Z" fill="url(#paint10_linear_583_5613)"/>
</g>
<mask id="mask13_583_5613" style="mask-type:luminance" maskUnits="userSpaceOnUse" x="66" y="0" width="17" height="28">
<path d="M66.6719 1.23326C66.7981 1.32567 66.8927 1.44888 67.0504 1.6337C67.5867 2.34217 72.697 10.6282 75.9777 16.4192C78.3121 20.5468 80.5834 24.9208 81.5613 26.923C81.7505 27.3235 81.8452 27.6315 81.8452 27.9087L82.9177 27.9703C82.9177 27.6931 82.8546 27.1386 82.5076 26.461C81.6874 24.7976 79.0692 19.7767 76.8926 15.8955C73.9588 10.6898 68.533 1.81851 67.9021 0.986831C67.5867 0.555588 67.3343 0.339968 67.082 0.247559L66.6719 1.23326Z" fill="white"/>
</mask>
<g mask="url(#mask13_583_5613)">
<path d="M54.7188 21.5935L79.1979 34.6849L94.9075 6.65405L70.4283 -6.43726L54.7188 21.5935Z" fill="url(#paint11_linear_583_5613)"/>
</g>
<mask id="mask14_583_5613" style="mask-type:luminance" maskUnits="userSpaceOnUse" x="52" y="0" width="16" height="2">
<path d="M53.5765 0.123248C53.2926 0.154051 53.1033 0.184854 52.9141 0.277264L53.3557 1.29377C53.4503 1.26296 53.5134 1.20136 53.7342 1.20136C54.1443 1.17055 57.362 1.07815 60.0118 1.07815C62.1884 1.07815 64.365 1.13975 65.4691 1.17056C65.5953 1.17056 65.7215 1.17056 65.8476 1.17056C66.0685 1.13975 66.3524 1.13975 66.4785 1.17056C66.5416 1.20136 66.6047 1.23216 66.6678 1.26296L67.0779 0.308069C66.8255 0.184856 66.6047 0.184856 66.3208 0.154053C65.4691 0.061644 61.8729 0.0308381 59.9802 0.0308381C58.3399 3.50364e-05 54.4598 0.0308391 53.5765 0.123248Z" fill="white"/>
</mask>
<g mask="url(#mask14_583_5613)">
<path d="M67.4282 0.0929403L53.9899 -3.66504L52.5703 1.17105L66.0086 4.92902L67.4282 0.0929403Z" fill="url(#paint12_linear_583_5613)"/>
</g>
<mask id="mask15_583_5613" style="mask-type:luminance" maskUnits="userSpaceOnUse" x="37" y="0" width="17" height="28">
<path d="M52.0661 1.04669C51.4352 1.84757 46.0094 10.7805 43.1072 15.9246C41.0567 19.5285 37.776 25.8124 37.4921 26.49C37.1767 27.1677 37.082 27.6297 37.082 27.9994H38.1546C38.1546 27.8454 38.1861 27.4757 38.4385 26.9521C39.4164 24.9191 41.7192 20.5758 44.022 16.4482C47.3027 10.6265 52.4446 2.37122 52.9493 1.66275C53.1386 1.41633 53.2332 1.35472 53.3279 1.29311L52.8862 0.276611C52.5708 0.399824 52.3815 0.646248 52.0661 1.04669Z" fill="white"/>
</mask>
<g mask="url(#mask15_583_5613)">
<path d="M39.1634 33.2969L62.8224 24.4256L51.2452 -5.05298L27.5547 3.81831L39.1634 33.2969Z" fill="url(#paint13_linear_583_5613)"/>
</g>
<mask id="mask16_583_5613" style="mask-type:luminance" maskUnits="userSpaceOnUse" x="66" y="27" width="17" height="29">
<path d="M81.5613 29.0474C80.5834 31.0804 78.2806 35.4236 75.9777 39.5512C72.697 45.373 67.5867 53.5974 67.082 54.3059C66.8611 54.6139 66.7665 54.6756 66.6719 54.7372L67.1135 55.7229C67.3659 55.5996 67.6498 55.384 67.9337 54.9836C68.533 54.1827 74.3689 44.6954 76.9241 40.0749C79.5108 35.4544 82.2553 30.1563 82.5392 29.5094C82.9177 28.7086 82.9493 28.2773 82.9493 28.0001L81.8767 27.9385C81.8452 28.0925 81.8136 28.5237 81.5613 29.0474Z" fill="white"/>
</mask>
<g mask="url(#mask16_583_5613)">
<path d="M82.918 27.9385H66.6406V55.7229H82.918V27.9385Z" fill="url(#paint14_linear_583_5613)"/>
</g>
<path d="M65.8218 1.13977C65.8533 1.13977 65.8533 1.13977 65.8849 1.13977C65.8849 1.13977 65.601 1.35539 64.907 1.35539C64.0868 1.35539 62.3518 1.32459 60.9953 1.29379C58.4402 1.26299 55.4118 1.32459 53.9923 1.3862C53.2352 1.417 53.2036 1.50941 52.7305 2.00226L52.9828 1.63262C53.1406 1.3862 53.2667 1.32459 53.3614 1.26298C53.456 1.23218 53.5191 1.17058 53.7399 1.17058C54.15 1.13978 57.3676 1.04736 60.0174 1.04736C62.1941 1.04736 64.3707 1.10897 65.4748 1.13977C65.5694 1.13977 65.7271 1.13977 65.8218 1.13977Z" fill="white"/>
<mask id="mask17_583_5613" style="mask-type:luminance" maskUnits="userSpaceOnUse" x="52" y="12" width="31" height="32">
<path d="M60.1427 14.9703C60.3319 15.3399 61.9723 18.3586 63.4549 21.3157C64.8429 24.088 66.0416 26.7371 66.1678 27.0451C66.3571 27.4455 66.4517 27.6919 66.4517 28.0308C66.4517 28.3388 66.3571 28.5852 66.1678 28.9857V29.0165C66.1678 29.0473 64.906 31.8196 63.4234 34.7459C62.13 37.3641 60.6789 40.044 60.1427 41.0605L60.1111 41.1221C60.048 41.2145 60.0165 41.3069 59.9849 41.3069C59.9534 41.3069 59.9218 41.2453 59.8588 41.1221C59.8588 41.0913 59.8272 41.0605 59.7957 40.9681C58.2499 38.0726 57.1774 36.0088 56.5465 34.7459C55.1585 31.9428 53.8967 29.2321 53.8021 29.0165V28.9857C53.6443 28.616 53.5181 28.3388 53.5181 28.0308C53.5181 27.7228 53.6759 27.3839 53.8021 27.0759C53.8021 27.0451 53.8336 27.0143 53.8651 26.9219C54.7484 24.9505 55.6317 23.1023 56.515 21.3773C57.7768 18.8515 59.1963 16.1716 59.6695 15.2783C55.3162 18.0198 52.4141 22.8251 52.4141 28.2772C52.4141 36.8097 59.4802 43.7404 68.1867 43.7404C70.9943 43.7404 73.6125 43.0319 75.9153 41.769C76.2623 41.1837 76.5778 40.6292 76.8617 40.1364C79.3853 35.67 82.1613 30.2794 82.4768 29.5709C82.8238 28.8009 82.8868 28.4004 82.8868 28.0616C82.8868 27.8152 82.8238 27.2607 82.4768 26.5522C81.6566 24.8581 79.0383 19.868 76.8617 15.9868C76.704 15.6788 76.5147 15.3707 76.3254 15.0627C73.9595 13.6457 71.152 12.8449 68.1867 12.8449C65.2846 12.7833 62.5086 13.5841 60.1427 14.9703Z" fill="white"/>
</mask>
<g mask="url(#mask17_583_5613)">
<mask id="mask18_583_5613" style="mask-type:luminance" maskUnits="userSpaceOnUse" x="52" y="12" width="33" height="32">
<path d="M84.1754 12.7834H52.5039V43.7097H84.1754V12.7834Z" fill="white"/>
</mask>
<g mask="url(#mask18_583_5613)">
<mask id="mask19_583_5613" style="mask-type:luminance" maskUnits="userSpaceOnUse" x="52" y="12" width="33" height="32">
<path d="M68.1501 12.7834C59.5698 12.9067 52.6613 19.6525 52.5352 28.031V28.4622C52.6613 36.9023 59.6959 43.7097 68.3709 43.7097C77.109 43.7097 84.2067 36.779 84.2067 28.2466C84.2067 19.7757 77.2351 12.9067 68.5917 12.7834H68.1501Z" fill="white"/>
</mask>
<g mask="url(#mask19_583_5613)">
<mask id="mask20_583_5613" style="mask-type:luminance" maskUnits="userSpaceOnUse" x="52" y="12" width="33" height="32">
<path d="M84.1754 12.7834H52.5039V43.7097H84.1754V12.7834Z" fill="white"/>
</mask>
<g mask="url(#mask20_583_5613)">
<mask id="mask21_583_5613" style="mask-type:luminance" maskUnits="userSpaceOnUse" x="52" y="12" width="33" height="32">
<path d="M84.2067 12.7834H52.5352V43.7097H84.2067V12.7834Z" fill="white"/>
</mask>
<g mask="url(#mask21_583_5613)">
<path d="M84.2067 12.7834H52.5352V43.7097H84.2067V12.7834Z" fill="url(#paint15_radial_583_5613)"/>
</g>
</g>
</g>
</g>
</g>
<path d="M66.4519 26.8909C66.3572 26.7061 65.127 23.9954 63.7074 21.1615C62.1617 18.0812 60.4583 14.9085 60.3952 14.7545C60.269 14.5081 60.1428 14.3232 60.0166 14.3232C59.8589 14.3232 59.7643 14.4773 59.6065 14.7545C59.5434 14.8777 57.7769 18.1736 56.2627 21.1615C54.7801 24.1186 53.6129 26.7369 53.5498 26.8909C53.3921 27.2297 53.2344 27.5994 53.2344 27.969C53.2344 28.3386 53.3921 28.6775 53.5498 29.0779C53.6445 29.2627 54.8747 32.0042 56.2943 34.8073C57.84 37.8876 59.5434 41.0603 59.6065 41.1835C59.7327 41.43 59.8589 41.6148 59.9851 41.6148C60.1428 41.6148 60.2374 41.4608 60.3636 41.2143C60.4267 41.0911 62.1302 37.9184 63.6759 34.8381C65.0954 32.035 66.3257 29.2935 66.4203 29.0779C66.6096 28.6467 66.7358 28.3695 66.7358 27.9998C66.7673 27.6302 66.6411 27.3221 66.4519 26.8909ZM66.168 28.9547C66.1364 29.0163 64.8746 31.7886 63.4235 34.7149C62.0986 37.3331 60.6791 40.013 60.1428 41.0295L60.1113 41.0911C60.0482 41.1835 60.0166 41.2759 59.9851 41.2759C59.9535 41.2759 59.922 41.2143 59.8589 41.0911C59.8589 41.0603 59.8273 41.0295 59.7643 40.9371C58.2185 38.0416 57.146 35.9778 56.5466 34.7149C55.1586 31.9118 53.8968 29.2011 53.8022 28.9855V28.9547C53.6445 28.5851 53.5183 28.3078 53.5183 27.9998C53.5183 27.6918 53.676 27.353 53.8022 27.0449C53.8022 27.0141 53.8337 26.9833 53.8653 26.8909C54.7486 24.9195 55.6318 23.0713 56.5151 21.3463C58.0608 18.2968 59.8273 15.0009 59.8273 14.9701C59.8589 14.8777 59.922 14.7853 59.9535 14.7853C59.9851 14.7853 60.0166 14.8777 60.0797 14.9701C60.0797 15.0009 61.8147 18.2044 63.392 21.3463C64.78 24.1186 65.9787 26.7677 66.1049 27.0757C66.2941 27.4762 66.3888 27.7226 66.3888 28.0614C66.4519 28.3078 66.3572 28.5543 66.168 28.9547Z" fill="black"/>
<path d="M82.5391 26.4906C81.719 24.7965 79.1007 19.8064 76.9241 15.9252C73.8957 10.5963 68.533 1.81738 67.9337 1.0165C67.3343 0.215623 66.9873 0.184817 66.4195 0.12321H66.3248C65.5047 0.0308012 62.0662 0 59.9842 0C58.2177 0 54.4323 0.0308012 53.549 0.12321C52.7288 0.21562 52.508 0.462044 52.0348 1.0473C51.3724 1.87899 45.915 10.9043 43.0759 15.9252C41.0255 19.56 37.7448 25.813 37.4609 26.4906C37.177 27.1067 37.0508 27.5688 37.0508 28C37.0508 28.4312 37.177 28.9241 37.4609 29.5093C38.1549 30.9571 40.2053 34.9615 43.0759 40.0748C46.0727 45.4037 51.4985 54.2134 52.0664 54.9835C52.6657 55.7844 53.0758 55.8152 53.6121 55.8768C54.4323 55.9384 58.06 56 59.9842 56C62.0662 56 65.8201 55.9076 66.3564 55.8768C66.8611 55.8152 67.3027 55.7844 67.9021 54.9835C68.4384 54.2442 74.2743 44.7569 76.8925 40.0748C79.4162 35.6084 82.1921 30.2178 82.5076 29.5093C82.8546 28.7393 82.9177 28.3388 82.9177 28C82.9492 27.7228 82.8861 27.1991 82.5391 26.4906ZM82.2552 29.3861C81.9398 30.0946 79.1638 35.4543 76.6402 39.9208C74.0219 44.6029 68.2176 54.0594 67.6497 54.7987C67.145 55.5071 66.798 55.5071 66.3248 55.5688C65.8201 55.6304 62.0662 55.692 59.9842 55.692C58.06 55.692 54.4638 55.6304 53.6436 55.5688C53.1389 55.538 52.855 55.5071 52.3187 54.7987C51.7509 54.0286 46.3251 45.2497 43.3283 39.9208C40.4577 34.8075 38.4072 30.8031 37.7132 29.3861C37.4609 28.8317 37.3347 28.4004 37.3347 28C37.3347 27.6304 37.4609 27.1991 37.7132 26.6139C38.0287 25.9362 41.2779 19.6832 43.3283 16.0792C46.1674 11.0583 51.6247 2.0638 52.2556 1.26292C52.6973 0.677665 52.855 0.523652 53.549 0.462046C54.4007 0.369637 58.1861 0.338831 59.9527 0.338831C62.0347 0.338831 65.4416 0.369637 66.2618 0.462046H66.3564C66.8927 0.523652 67.1135 0.554455 67.6497 1.23212C68.2491 2.033 73.6118 10.7811 76.6402 16.11C78.8483 19.9912 81.4351 24.9813 82.2552 26.6755C82.5707 27.3223 82.6338 27.8152 82.6338 28.0616C82.6338 28.2772 82.5707 28.6469 82.2552 29.3861Z" fill="black"/>
</g>
<defs>
<linearGradient id="paint0_linear_583_5613" x1="60.0026" y1="54.9335" x2="60.0026" y2="1.05305" gradientUnits="userSpaceOnUse">
<stop stop-color="#E5E5E8"/>
<stop offset="0.3125" stop-color="#EEEEF0"/>
<stop offset="0.6866" stop-color="white"/>
<stop offset="0.7839" stop-color="#DEDFE2"/>
<stop offset="0.9271" stop-color="#B3B5BB"/>
<stop offset="1" stop-color="#A2A5AC"/>
</linearGradient>
<radialGradient id="paint1_radial_583_5613" cx="0" cy="0" r="1" gradientUnits="userSpaceOnUse" gradientTransform="translate(57.1526 14.9351) scale(27.5122 26.9647)">
<stop stop-color="white"/>
<stop offset="0.401" stop-color="white"/>
<stop offset="0.5869" stop-color="#DEDFE2"/>
<stop offset="0.8606" stop-color="#B3B5BB"/>
<stop offset="1" stop-color="#A2A5AC"/>
</radialGradient>
<linearGradient id="paint2_linear_583_5613" x1="49.0798" y1="54.6631" x2="49.0798" y2="28.1217" gradientUnits="userSpaceOnUse">
<stop stop-color="#E5E5E8"/>
<stop offset="0.0104233" stop-color="#E5E5E8"/>
<stop offset="0.3385" stop-color="#B1B5BB"/>
<stop offset="0.4201" stop-color="#999DA3"/>
<stop offset="0.6035" stop-color="#686B71"/>
<stop offset="0.6941" stop-color="#55585E"/>
<stop offset="0.8452" stop-color="#3C3E42"/>
<stop offset="0.8977" stop-color="#323438"/>
<stop offset="0.948" stop-color="#242529"/>
<stop offset="0.9599" stop-color="#27282C"/>
<stop offset="0.9701" stop-color="#313337"/>
<stop offset="0.9797" stop-color="#424449"/>
<stop offset="0.9888" stop-color="#5A5C62"/>
<stop offset="0.9977" stop-color="#787C81"/>
<stop offset="1" stop-color="#81858B"/>
</linearGradient>
<linearGradient id="paint3_linear_583_5613" x1="67.7921" y1="54.6665" x2="67.7921" y2="28.1019" gradientUnits="userSpaceOnUse">
<stop stop-color="#E5E5E8"/>
<stop offset="0.0104233" stop-color="#E5E5E8"/>
<stop offset="0.3385" stop-color="#B1B5BB"/>
<stop offset="0.4201" stop-color="#999DA3"/>
<stop offset="0.6035" stop-color="#686B71"/>
<stop offset="0.6941" stop-color="#55585E"/>
<stop offset="0.8452" stop-color="#3C3E42"/>
<stop offset="0.9007" stop-color="#323438"/>
<stop offset="0.9538" stop-color="#242529"/>
<stop offset="0.9643" stop-color="#27282C"/>
<stop offset="0.9734" stop-color="#313337"/>
<stop offset="0.9819" stop-color="#424449"/>
<stop offset="0.9901" stop-color="#5A5C62"/>
<stop offset="0.998" stop-color="#787C81"/>
<stop offset="1" stop-color="#81858B"/>
</linearGradient>
<linearGradient id="paint4_linear_583_5613" x1="58.825" y1="27.8194" x2="58.825" y2="1.07824" gradientUnits="userSpaceOnUse">
<stop stop-color="#55585E"/>
<stop offset="0.0105573" stop-color="#494B50"/>
<stop offset="0.0242596" stop-color="#3F4145"/>
<stop offset="0.0400373" stop-color="#3C3E42"/>
<stop offset="0.1019" stop-color="#393B3F"/>
<stop offset="0.1498" stop-color="#303235"/>
<stop offset="0.1931" stop-color="#212225"/>
<stop offset="0.2334" stop-color="#0C0D0E"/>
<stop offset="0.2521"/>
<stop offset="1"/>
</linearGradient>
<linearGradient id="paint5_linear_583_5613" x1="64.2084" y1="28.0004" x2="64.2084" y2="12.5228" gradientUnits="userSpaceOnUse">
<stop stop-color="#8B8E94"/>
<stop offset="0.152" stop-color="#85888E"/>
<stop offset="0.3554" stop-color="#75787D"/>
<stop offset="0.5869" stop-color="#5A5D61"/>
<stop offset="0.7954" stop-color="#3C3E42"/>
<stop offset="0.823" stop-color="#37393C"/>
<stop offset="0.8589" stop-color="#28292C"/>
<stop offset="0.8993" stop-color="#101011"/>
<stop offset="0.9207"/>
<stop offset="1"/>
</linearGradient>
<linearGradient id="paint6_linear_583_5613" x1="55.7783" y1="43.496" x2="55.7783" y2="28.0121" gradientUnits="userSpaceOnUse">
<stop stop-color="#C6C8CC"/>
<stop offset="0.3571" stop-color="#C6C8CC"/>
<stop offset="0.4869" stop-color="#C0C2C7"/>
<stop offset="0.6562" stop-color="#B0B3B7"/>
<stop offset="0.8464" stop-color="#95999E"/>
<stop offset="0.9631" stop-color="#81858B"/>
<stop offset="1" stop-color="#55585E"/>
</linearGradient>
<linearGradient id="paint7_linear_583_5613" x1="61.9264" y1="38.4304" x2="47.6179" y2="31.8207" gradientUnits="userSpaceOnUse">
<stop stop-color="#F1F2F1"/>
<stop offset="0.0132" stop-color="#F1F2F1"/>
<stop offset="0.1096" stop-color="#EEEDEE"/>
<stop offset="1" stop-color="#EEEDEE"/>
</linearGradient>
<linearGradient id="paint8_linear_583_5613" x1="61.1768" y1="54.5754" x2="61.1768" y2="27.8224" gradientUnits="userSpaceOnUse">
<stop stop-color="white"/>
<stop offset="0.262" stop-color="#F5F5F6"/>
<stop offset="0.7126" stop-color="#D9DADD"/>
<stop offset="0.9693" stop-color="#C6C8CC"/>
<stop offset="0.9713" stop-color="#C0C2C7"/>
<stop offset="0.9913" stop-color="#8B8E94"/>
<stop offset="1" stop-color="#8B8E94"/>
</linearGradient>
<linearGradient id="paint9_linear_583_5613" x1="45.1274" y1="55.6328" x2="45.1274" y2="27.996" gradientUnits="userSpaceOnUse">
<stop stop-color="#81858B"/>
<stop offset="0.1214" stop-color="#7C8086"/>
<stop offset="0.5586" stop-color="#707379"/>
<stop offset="0.9698" stop-color="#6C6F75"/>
<stop offset="1" stop-color="#9EA2A8"/>
</linearGradient>
<linearGradient id="paint10_linear_583_5613" x1="54.5695" y1="52.2794" x2="65.3376" y2="58.6463" gradientUnits="userSpaceOnUse">
<stop stop-color="#81858B"/>
<stop offset="0.019312" stop-color="#81858B"/>
<stop offset="0.0374513" stop-color="#6C6F75"/>
<stop offset="0.0607416" stop-color="#585B60"/>
<stop offset="0.0835109" stop-color="#4C4E53"/>
<stop offset="0.105" stop-color="#484A4F"/>
<stop offset="1" stop-color="#484A4F"/>
</linearGradient>
<linearGradient id="paint11_linear_583_5613" x1="62.8828" y1="7.74887" x2="86.773" y2="21.1436" gradientUnits="userSpaceOnUse">
<stop stop-color="#787A80"/>
<stop offset="1" stop-color="#8B8E94"/>
</linearGradient>
<linearGradient id="paint12_linear_583_5613" x1="66.4324" y1="2.44351" x2="53.3944" y2="-1.38515" gradientUnits="userSpaceOnUse">
<stop stop-color="#787A80"/>
<stop offset="0.00955204" stop-color="#787A80"/>
<stop offset="0.0358349" stop-color="#979AA0"/>
<stop offset="0.0584987" stop-color="#AAAEB4"/>
<stop offset="0.0737603" stop-color="#B1B5BB"/>
<stop offset="0.5011" stop-color="#C4C8CB"/>
<stop offset="1" stop-color="#C6C8CC"/>
</linearGradient>
<linearGradient id="paint13_linear_583_5613" x1="33.3612" y1="18.5822" x2="56.5529" y2="9.4651" gradientUnits="userSpaceOnUse">
<stop stop-color="#9EA2A8"/>
<stop offset="0.9868" stop-color="#8B8E94"/>
<stop offset="0.997" stop-color="#B8BABF"/>
<stop offset="1" stop-color="#C6C8CC"/>
</linearGradient>
<linearGradient id="paint14_linear_583_5613" x1="74.7904" y1="55.7163" x2="74.7904" y2="27.9279" gradientUnits="userSpaceOnUse">
<stop stop-color="#484A4F"/>
<stop offset="0.0190238" stop-color="#484A4F"/>
<stop offset="0.2412" stop-color="#52555A"/>
<stop offset="0.6025" stop-color="#5D6165"/>
<stop offset="0.9698" stop-color="#616569"/>
<stop offset="0.9767" stop-color="#6B6F74"/>
<stop offset="1" stop-color="#8B8E94"/>
</linearGradient>
<radialGradient id="paint15_radial_583_5613" cx="0" cy="0" r="1" gradientUnits="userSpaceOnUse" gradientTransform="translate(68.3586 28.2195) scale(15.8293 15.4569)">
<stop stop-color="white"/>
<stop offset="0.5897" stop-color="white"/>
<stop offset="1" stop-color="white"/>
</radialGradient>
</defs>
</svg>
