<svg width="120" height="56" viewBox="0 0 120 56" fill="none" xmlns="http://www.w3.org/2000/svg">
<mask id="mask0_655_5633" style="mask-type:luminance" maskUnits="userSpaceOnUse" x="38" y="1" width="44" height="54">
<path d="M59.6061 41.2143C57.3033 36.871 55.726 33.8831 53.5494 29.0779C53.3601 28.6774 53.2339 28.3694 53.2339 27.9689C53.2339 27.5993 53.3917 27.2913 53.5494 26.8908C55.726 22.0856 57.3033 19.0977 59.6061 14.7852C59.7323 14.5388 59.8585 14.3848 59.9846 14.3848C60.1424 14.3848 60.237 14.5388 60.3947 14.7852C62.6975 19.1285 64.2433 22.1164 66.4514 26.8908C66.6407 27.2913 66.7669 27.5993 66.7669 27.9998C66.7669 28.4002 66.6407 28.6774 66.4514 29.0779C64.2433 33.8831 62.6975 36.871 60.3947 41.2143C60.2685 41.4607 60.1424 41.6147 60.0162 41.6455C59.8269 41.6147 59.7323 41.4607 59.6061 41.2143ZM53.7071 1.17027C53.4863 1.20107 53.4232 1.23187 53.3286 1.26267C53.2339 1.32428 53.1078 1.38589 52.95 1.63231C52.4453 2.37159 47.3034 10.6268 44.0227 16.4178C41.6883 20.5454 39.4171 24.9194 38.4392 26.9216C38.1868 27.4453 38.1553 27.8149 38.1553 27.9689C38.1553 28.2462 38.2499 28.6158 38.4392 29.0162C39.4171 31.0184 41.7199 35.3925 44.0227 39.5201C47.3034 45.3419 52.4138 53.5971 52.95 54.3056C53.0447 54.4288 53.1078 54.5212 53.1708 54.5828C53.297 54.706 53.3917 54.7676 53.5178 54.8292C53.644 54.86 53.8964 54.86 54.1172 54.8292C54.2434 54.8292 54.3696 54.8292 54.4957 54.8292C55.8207 54.86 57.8396 54.9216 59.9846 54.9216C62.6344 54.9216 65.7574 54.86 66.2306 54.7984H66.2937C66.483 54.7676 66.5776 54.7368 66.6407 54.7368C66.7353 54.706 66.83 54.6136 67.0508 54.3056C67.5871 53.5971 72.6659 45.3727 75.9466 39.5509C78.2809 35.4233 80.5522 31.0493 81.5301 29.0471C81.7825 28.5234 81.814 28.0922 81.814 27.9381C81.814 27.6609 81.7194 27.3529 81.5301 26.9524C80.5522 24.9194 78.2494 20.5762 75.9466 16.4486C72.6659 10.6268 67.5555 2.37158 67.0192 1.66311C66.8615 1.47829 66.7669 1.35508 66.6407 1.26267C66.5776 1.20106 66.5145 1.17027 66.4514 1.17027C66.3252 1.13946 66.0413 1.13946 65.8205 1.17027C65.6943 1.20107 65.5682 1.17027 65.442 1.17027C64.3379 1.13946 62.1613 1.07785 59.9846 1.07785C57.3348 1.04705 54.1488 1.13946 53.7071 1.17027Z" fill="white"/>
</mask>
<g mask="url(#mask0_655_5633)">
<path d="M81.8771 1.04651H38.1553V54.9211H81.8771V1.04651Z" fill="url(#paint0_linear_655_5633)"/>
</g>
<mask id="mask1_655_5633" style="mask-type:luminance" maskUnits="userSpaceOnUse" x="38" y="1" width="44" height="54">
<path d="M59.6061 41.2143C57.3033 36.871 55.726 33.8831 53.5494 29.0779C53.3601 28.6774 53.2339 28.3694 53.2339 27.9689C53.2339 27.5993 53.3917 27.2913 53.5494 26.8908C55.7576 22.0856 57.3033 19.0977 59.6061 14.7852C59.7323 14.5388 59.8585 14.3848 59.9846 14.3848C60.1424 14.3848 60.237 14.5388 60.3947 14.816C62.6975 19.1593 64.2433 22.1472 66.4514 26.9216C66.6407 27.3221 66.7669 27.6301 66.7669 28.0305C66.7669 28.431 66.6407 28.7082 66.4514 29.1087C64.2433 33.9139 62.6975 36.9018 60.3947 41.2451C60.2685 41.4915 60.1424 41.6455 60.0162 41.6763C59.8269 41.6147 59.7323 41.4607 59.6061 41.2143ZM53.7071 1.17027C53.4863 1.20107 53.4232 1.23187 53.3286 1.26267C53.2339 1.32428 53.1078 1.38589 52.95 1.63231C52.4453 2.37159 47.3034 10.6268 44.0227 16.4178C41.6883 20.5454 39.4171 24.9194 38.4392 26.9216C38.1868 27.4453 38.1553 27.8149 38.1553 27.9689C38.1553 28.2462 38.2499 28.6158 38.4392 29.0162C39.4171 31.0184 41.7199 35.3925 44.0227 39.5201C47.3034 45.3419 52.4138 53.5971 52.95 54.3056C53.0447 54.4288 53.1078 54.5212 53.1708 54.5828C53.297 54.706 53.3917 54.7676 53.5178 54.8292C53.644 54.86 53.8964 54.86 54.1172 54.8292C54.2434 54.8292 54.3696 54.8292 54.4957 54.8292C55.7891 54.86 57.7765 54.9216 59.89 54.9216H59.9846C62.6344 54.9216 65.7574 54.86 66.2306 54.7984H66.2937C66.483 54.7676 66.5776 54.7368 66.6407 54.7368C66.7353 54.706 66.83 54.6136 67.0508 54.3056C67.5871 53.5971 72.6659 45.3727 75.9466 39.5509C78.2809 35.4233 80.5522 31.0493 81.5301 29.0471C81.7825 28.5234 81.814 28.0922 81.814 27.9381C81.814 27.6609 81.7194 27.3529 81.5301 26.9524C80.5522 24.9194 78.2494 20.5762 75.9466 16.4486C72.6659 10.6268 67.5555 2.37158 67.0192 1.66311C66.8615 1.47829 66.7669 1.35508 66.6407 1.26267C66.5776 1.20106 66.5145 1.17027 66.4514 1.17027C66.3252 1.13946 66.0413 1.13946 65.8205 1.17027C65.6943 1.20107 65.5682 1.17027 65.442 1.17027C64.3379 1.13946 62.1613 1.07785 59.9846 1.07785C57.3348 1.04705 54.1488 1.13946 53.7071 1.17027Z" fill="white"/>
</mask>
<g mask="url(#mask1_655_5633)">
<path d="M81.8771 1.04651H38.1553V54.9211H81.8771V1.04651Z" fill="url(#paint1_radial_655_5633)"/>
</g>
<mask id="mask2_655_5633" style="mask-type:luminance" maskUnits="userSpaceOnUse" x="38" y="27" width="22" height="28">
<path d="M51.0574 27.9691C50.8682 28.1539 50.5527 28.308 49.7325 28.308C49.007 28.308 42.9188 28.308 39.985 28.308C39.5434 28.308 38.9756 28.2772 38.9756 28.924C38.9756 29.3245 39.3226 30.0945 40.0166 31.4499C43.8651 38.8426 48.1868 46.2046 52.7609 53.4125C52.7609 53.4125 53.4549 54.5214 53.5495 54.6138C53.6126 54.7062 53.7073 54.737 53.865 54.737C53.865 54.737 56.7987 49.5313 59.133 43.8327C56.5148 39.1198 54.0858 34.4378 51.8145 29.7249C51.8145 29.7249 51.1836 28.5544 51.1521 28.0923C51.1521 28.0307 51.1521 27.9999 51.1521 27.9383C51.1521 27.8767 51.1521 27.8767 51.1205 27.8767C51.1836 27.8767 51.1205 27.9383 51.0574 27.9691Z" fill="white"/>
</mask>
<g mask="url(#mask2_655_5633)">
<path d="M59.1958 27.8767H39.0068V54.737H59.1958V27.8767Z" fill="url(#paint2_linear_655_5633)"/>
</g>
<mask id="mask3_655_5633" style="mask-type:luminance" maskUnits="userSpaceOnUse" x="54" y="28" width="28" height="27">
<path d="M81.3101 28.062C81.2155 28.1544 80.9 28.3084 80.2376 28.3084H72.2251C68.5343 28.3084 68.9128 28.216 67.9664 30.1258C67.5563 30.9575 67.1147 31.974 66.6415 32.7748C63.4239 39.3359 55.6007 52.5504 54.5281 54.183C54.118 54.799 54.0549 54.8298 54.3704 54.8298C54.3704 54.8298 57.0202 54.9223 59.9855 54.9223C64.6226 54.9223 66.263 54.799 66.263 54.799C68.9443 50.733 75.348 40.3832 79.9221 31.4503C80.9631 29.3865 81.4994 28.4932 81.4363 28.062C81.4363 28.0312 81.4047 28.0004 81.4047 28.0004C81.3732 28.0004 81.3417 28.0312 81.3101 28.062Z" fill="white"/>
</mask>
<g mask="url(#mask3_655_5633)">
<path d="M81.5008 28.0004H54.0879V54.9223H81.5008V28.0004Z" fill="url(#paint3_linear_655_5633)"/>
</g>
<mask id="mask4_655_5633" style="mask-type:luminance" maskUnits="userSpaceOnUse" x="51" y="1" width="16" height="27">
<path d="M66.0392 1.2323C65.8499 1.2323 65.7237 1.38632 65.4398 1.78676C63.1685 5.2059 55.3453 19.6217 52.1277 26.3368C51.7491 27.1685 51.5283 27.5689 51.5283 27.9694H53.2002C53.2002 27.5997 53.358 27.2917 53.5157 26.8913C55.6923 22.086 57.2696 19.0981 59.5724 14.7856C59.6986 14.5392 59.8247 14.3852 59.9509 14.3852L60.6134 12.537C62.8846 7.02328 66.0707 1.2323 66.0392 1.2323Z" fill="white"/>
</mask>
<g mask="url(#mask4_655_5633)">
<path d="M66.0704 1.2323H51.5596V27.9694H66.0704V1.2323Z" fill="url(#paint4_linear_655_5633)"/>
</g>
<mask id="mask5_655_5633" style="mask-type:luminance" maskUnits="userSpaceOnUse" x="59" y="12" width="10" height="16">
<path d="M59.9844 14.3549C60.1421 14.3549 60.2367 14.5089 60.3945 14.7553C62.6973 19.0986 64.243 22.0865 66.4512 26.861C66.6404 27.2614 66.7666 27.5694 66.7666 27.9699H68.4385C68.4385 27.5694 68.2492 27.169 67.8707 26.3681C65.6625 21.7784 63.3597 17.312 60.6784 12.5067L59.9844 14.3549Z" fill="white"/>
</mask>
<g mask="url(#mask5_655_5633)">
<path d="M68.407 12.5378H59.9844V28.001H68.407V12.5378Z" fill="url(#paint5_linear_655_5633)"/>
</g>
<mask id="mask6_655_5633" style="mask-type:luminance" maskUnits="userSpaceOnUse" x="51" y="27" width="9" height="17">
<path d="M51.5596 27.9694C51.5596 28.3698 51.7488 28.7702 52.1274 29.6019C54.3356 34.1916 56.6384 38.658 59.3197 43.4633L59.9822 41.6151C59.8244 41.6151 59.7298 41.4611 59.6036 41.1839C57.3008 36.8714 55.7236 33.8836 53.5469 29.0783C53.3577 28.6778 53.2315 28.3698 53.2315 27.9694H51.8119H51.5596V27.9694Z" fill="white"/>
</mask>
<g mask="url(#mask6_655_5633)">
<path d="M60.0137 27.9694H51.5596V43.4633H60.0137V27.9694Z" fill="url(#paint6_linear_655_5633)"/>
</g>
<mask id="mask7_655_5633" style="mask-type:luminance" maskUnits="userSpaceOnUse" x="51" y="27" width="10" height="17">
<path d="M52.1589 29.6019C54.3671 34.1916 56.6699 38.658 59.3513 43.4633L60.0137 41.6151C59.856 41.6151 59.7614 41.4611 59.6352 41.1839C57.3008 36.8714 55.7236 33.8836 53.5469 29.0783C53.3577 28.6778 53.2315 28.3698 53.2315 27.9694H51.5596C51.5596 28.3698 51.7488 28.801 52.1589 29.6019Z" fill="white"/>
</mask>
<g mask="url(#mask7_655_5633)">
<mask id="mask8_655_5633" style="mask-type:luminance" maskUnits="userSpaceOnUse" x="45" y="24" width="21" height="23">
<path d="M65.9167 24.8896H45.6016V46.5442H65.9167V24.8896Z" fill="white"/>
</mask>
<g mask="url(#mask8_655_5633)">
<mask id="mask9_655_5633" style="mask-type:luminance" maskUnits="userSpaceOnUse" x="45" y="24" width="21" height="23">
<path d="M45.6016 40.8455L58.5667 46.5441L65.9483 30.5881L52.9832 24.8895L45.6016 40.8455Z" fill="white"/>
</mask>
<g mask="url(#mask9_655_5633)">
<path d="M74.2758 28.5557L49.0395 17.4358L37.3047 42.9099L62.5094 53.999L74.2758 28.5557Z" fill="url(#paint7_linear_655_5633)"/>
</g>
</g>
</g>
<mask id="mask10_655_5633" style="mask-type:luminance" maskUnits="userSpaceOnUse" x="53" y="28" width="16" height="27">
<path d="M66.7647 28.0004C66.7647 28.4008 66.6385 28.678 66.4493 29.0785C64.2411 33.8838 62.6954 36.8717 60.3926 41.2149C60.2664 41.4613 60.1402 41.6153 60.014 41.6461L59.3516 43.4943C56.9857 49.3161 53.9258 54.7682 53.9258 54.7682C54.1151 54.7682 54.3359 54.5526 54.5882 54.183C54.6513 54.0906 54.746 53.9366 54.8406 53.7517C56.544 50.9178 64.7774 36.0708 67.8373 29.6637C68.2158 28.832 68.4366 28.4316 68.4366 28.0312H66.7647V28.0004Z" fill="white"/>
</mask>
<g mask="url(#mask10_655_5633)">
<path d="M68.4093 28.0004H53.8984V54.7682H68.4093V28.0004Z" fill="url(#paint8_linear_655_5633)"/>
</g>
<mask id="mask11_655_5633" style="mask-type:luminance" maskUnits="userSpaceOnUse" x="37" y="28" width="17" height="28">
<path d="M37.082 28.0004C37.082 28.37 37.1767 28.832 37.4921 29.5097C38.2492 31.1115 40.3943 35.2083 43.1072 40.0752C46.0724 45.3733 51.4982 54.183 52.0976 54.9839C52.35 55.3227 52.5392 55.5075 52.7601 55.6307L53.2017 54.6142C53.1386 54.5526 53.044 54.4602 52.9809 54.337C52.4446 53.6285 47.3343 45.3425 44.0535 39.5515C41.7192 35.4239 39.4479 31.0499 38.47 29.0477C38.2808 28.6472 38.1861 28.2776 38.1861 28.0004H37.082Z" fill="white"/>
</mask>
<g mask="url(#mask11_655_5633)">
<path d="M53.2017 28.0004H37.082V55.6307H53.2017V28.0004Z" fill="url(#paint9_linear_655_5633)"/>
</g>
<mask id="mask12_655_5633" style="mask-type:luminance" maskUnits="userSpaceOnUse" x="52" y="54" width="16" height="2">
<path d="M52.7568 55.6299C53.0407 55.8148 53.3247 55.8456 53.6401 55.8764C54.4287 55.938 57.9618 55.9996 60.0123 55.9996C62.0627 55.9996 65.8481 55.9072 66.3844 55.8764C66.6368 55.8456 66.8576 55.8148 67.11 55.7224L66.6683 54.7367C66.6052 54.7675 66.5106 54.7983 66.3213 54.7983H66.2582C65.7851 54.8599 62.6936 54.9215 60.0123 54.9215C57.8672 54.9215 55.8483 54.8907 54.5234 54.8291C54.3972 54.8291 54.271 54.8291 54.1448 54.8291C53.924 54.8599 53.6717 54.8599 53.5455 54.8291C53.4193 54.7983 53.3247 54.7059 53.1985 54.5826L52.7568 55.6299Z" fill="white"/>
</mask>
<g mask="url(#mask12_655_5633)">
<path d="M52.126 55.6605L63.4823 62.0368L67.6778 54.952L56.3215 48.5758L52.126 55.6605Z" fill="url(#paint10_linear_655_5633)"/>
</g>
<mask id="mask13_655_5633" style="mask-type:luminance" maskUnits="userSpaceOnUse" x="66" y="0" width="17" height="28">
<path d="M66.6719 1.23326C66.7981 1.32567 66.8927 1.44888 67.0504 1.6337C67.5867 2.34217 72.697 10.6282 75.9777 16.4192C78.3121 20.5468 80.5834 24.9208 81.5613 26.923C81.7505 27.3235 81.8452 27.6315 81.8452 27.9087L82.9177 27.9703C82.9177 27.6931 82.8546 27.1386 82.5076 26.461C81.6874 24.7976 79.0692 19.7767 76.8926 15.8955C73.9588 10.6898 68.533 1.81851 67.9021 0.986831C67.5867 0.555588 67.3343 0.339968 67.082 0.247559L66.6719 1.23326Z" fill="white"/>
</mask>
<g mask="url(#mask13_655_5633)">
<path d="M54.7188 21.5935L79.1979 34.6849L94.9075 6.65405L70.4283 -6.43726L54.7188 21.5935Z" fill="url(#paint11_linear_655_5633)"/>
</g>
<mask id="mask14_655_5633" style="mask-type:luminance" maskUnits="userSpaceOnUse" x="52" y="0" width="16" height="2">
<path d="M53.5785 0.123248C53.2946 0.154051 53.1053 0.184854 52.916 0.277264L53.3577 1.29377C53.4523 1.26296 53.5154 1.20136 53.7362 1.20136C54.1463 1.17055 57.3639 1.07815 60.0137 1.07815C62.1903 1.07815 64.367 1.13975 65.4711 1.17056C65.5972 1.17056 65.7234 1.17056 65.8496 1.17056C66.0704 1.13975 66.3543 1.13975 66.4805 1.17056C66.5436 1.20136 66.6067 1.23216 66.6698 1.26296L67.0799 0.308069C66.8275 0.184856 66.6067 0.184856 66.3228 0.154053C65.4711 0.061644 61.8749 0.0308381 59.9822 0.0308381C58.3418 3.50366e-05 54.4617 0.0308391 53.5785 0.123248Z" fill="white"/>
</mask>
<g mask="url(#mask14_655_5633)">
<path d="M67.4291 0.0929403L53.9908 -3.66504L52.5713 1.17105L66.0096 4.92902L67.4291 0.0929403Z" fill="url(#paint12_linear_655_5633)"/>
</g>
<mask id="mask15_655_5633" style="mask-type:luminance" maskUnits="userSpaceOnUse" x="37" y="0" width="17" height="28">
<path d="M52.0661 1.04669C51.4352 1.84757 46.0094 10.7805 43.1072 15.9246C41.0567 19.5285 37.776 25.8124 37.4921 26.49C37.1767 27.1677 37.082 27.6297 37.082 27.9994H38.1546C38.1546 27.8454 38.1861 27.4757 38.4385 26.9521C39.4164 24.9191 41.7192 20.5758 44.022 16.4482C47.3027 10.6265 52.4446 2.37122 52.9493 1.66275C53.1386 1.41633 53.2332 1.35472 53.3279 1.29311L52.8862 0.276611C52.5708 0.399824 52.3815 0.646248 52.0661 1.04669Z" fill="white"/>
</mask>
<g mask="url(#mask15_655_5633)">
<path d="M39.1653 33.2969L62.8243 24.4256L51.2472 -5.05298L27.5566 3.81831L39.1653 33.2969Z" fill="url(#paint13_linear_655_5633)"/>
</g>
<mask id="mask16_655_5633" style="mask-type:luminance" maskUnits="userSpaceOnUse" x="66" y="27" width="17" height="29">
<path d="M81.5613 29.0474C80.5834 31.0804 78.2806 35.4236 75.9777 39.5512C72.697 45.373 67.5867 53.5974 67.082 54.3059C66.8611 54.6139 66.7665 54.6756 66.6719 54.7372L67.1135 55.7229C67.3659 55.5996 67.6498 55.384 67.9337 54.9836C68.533 54.1827 74.3689 44.6954 76.9241 40.0749C79.5108 35.4544 82.2553 30.1563 82.5392 29.5094C82.9177 28.7086 82.9493 28.2773 82.9493 28.0001L81.8767 27.9385C81.8452 28.0925 81.8136 28.5237 81.5613 29.0474Z" fill="white"/>
</mask>
<g mask="url(#mask16_655_5633)">
<path d="M82.918 27.9385H66.6406V55.7229H82.918V27.9385Z" fill="url(#paint14_linear_655_5633)"/>
</g>
<path d="M65.8218 1.1399C65.8533 1.1399 65.8533 1.1399 65.8849 1.1399C65.8849 1.1399 65.601 1.35552 64.907 1.35552C64.0868 1.35552 62.3518 1.32471 60.9953 1.29391C58.4402 1.26311 55.4118 1.32471 53.9923 1.38632C53.2352 1.41712 53.2036 1.50953 52.7305 2.00238L52.9828 1.63275C53.1406 1.38632 53.2667 1.32471 53.3614 1.26311C53.456 1.2323 53.5191 1.1707 53.7399 1.1707C54.15 1.1399 57.3676 1.04749 60.0174 1.04749C62.1941 1.04749 64.3707 1.10909 65.4748 1.1399C65.5694 1.1399 65.7271 1.1399 65.8218 1.1399Z" fill="white"/>
<mask id="mask17_655_5633" style="mask-type:luminance" maskUnits="userSpaceOnUse" x="52" y="12" width="31" height="32">
<path d="M60.1417 14.9702C60.331 15.3398 61.9713 18.3585 63.4539 21.3156C64.8419 24.0879 66.0407 26.7369 66.1668 27.045C66.3561 27.4454 66.4508 27.6918 66.4508 28.0307C66.4508 28.3387 66.3561 28.5851 66.1668 28.9856V29.0164C66.1668 29.0472 64.905 31.8194 63.4224 34.7457C62.129 37.364 60.678 40.0439 60.1417 41.0604L60.1101 41.122C60.0471 41.2144 60.0155 41.3068 59.984 41.3068C59.9524 41.3068 59.9209 41.2452 59.8578 41.122C59.8578 41.0912 59.8262 41.0604 59.7947 40.968C58.249 38.0725 57.1764 36.0087 56.5455 34.7457C55.1575 31.9427 53.8957 29.232 53.8011 29.0164V28.9856C53.6434 28.6159 53.5172 28.3387 53.5172 28.0307C53.5172 27.7226 53.6749 27.3838 53.8011 27.0758C53.8011 27.045 53.8326 27.0142 53.8642 26.9218C54.7474 24.9504 55.6307 23.1022 56.514 21.3772C57.7758 18.8513 59.1953 16.1715 59.6685 15.2782C55.3153 18.0197 52.4131 22.8249 52.4131 28.2771C52.4131 36.8095 59.4792 43.7402 68.1857 43.7402C70.9933 43.7402 73.6115 43.0318 75.9144 41.7688C76.2614 41.1836 76.5768 40.6291 76.8607 40.1363C79.3843 35.6698 82.1603 30.2793 82.4758 29.5708C82.8228 28.8007 82.8859 28.4003 82.8859 28.0615C82.8859 27.815 82.8228 27.2606 82.4758 26.5521C81.6556 24.8579 79.0373 19.8679 76.8607 15.9867C76.703 15.6786 76.5137 15.3706 76.3244 15.0626C73.9585 13.6456 71.151 12.8447 68.1857 12.8447C65.2836 12.7831 62.5076 13.584 60.1417 14.9702Z" fill="white"/>
</mask>
<g mask="url(#mask17_655_5633)">
<mask id="mask18_655_5633" style="mask-type:luminance" maskUnits="userSpaceOnUse" x="52" y="12" width="33" height="32">
<path d="M84.1754 12.7834H52.5039V43.7097H84.1754V12.7834Z" fill="white"/>
</mask>
<g mask="url(#mask18_655_5633)">
<mask id="mask19_655_5633" style="mask-type:luminance" maskUnits="userSpaceOnUse" x="52" y="12" width="33" height="32">
<path d="M68.1501 12.7834C59.5698 12.9067 52.6613 19.6525 52.5352 28.031V28.4622C52.6613 36.9023 59.6959 43.7097 68.3709 43.7097C77.109 43.7097 84.2067 36.779 84.2067 28.2466C84.2067 19.7757 77.2351 12.9067 68.5917 12.7834H68.1501Z" fill="white"/>
</mask>
<g mask="url(#mask19_655_5633)">
<mask id="mask20_655_5633" style="mask-type:luminance" maskUnits="userSpaceOnUse" x="52" y="12" width="33" height="32">
<path d="M84.1754 12.7834H52.5039V43.7097H84.1754V12.7834Z" fill="white"/>
</mask>
<g mask="url(#mask20_655_5633)">
<mask id="mask21_655_5633" style="mask-type:luminance" maskUnits="userSpaceOnUse" x="52" y="12" width="33" height="32">
<path d="M84.2067 12.7834H52.5352V43.7097H84.2067V12.7834Z" fill="white"/>
</mask>
<g mask="url(#mask21_655_5633)">
<path d="M84.2067 12.7834H52.5352V43.7097H84.2067V12.7834Z" fill="url(#paint15_radial_655_5633)"/>
</g>
</g>
</g>
</g>
</g>
<path d="M66.4509 26.8909C66.3563 26.7061 65.126 23.9954 63.7064 21.1615C62.1607 18.0812 60.4573 14.9085 60.3942 14.7545C60.268 14.5081 60.1418 14.3232 60.0156 14.3232C59.8579 14.3232 59.7633 14.4773 59.6056 14.7545C59.5425 14.8777 57.7759 18.1736 56.2617 21.1615C54.7791 24.1186 53.6119 26.7369 53.5489 26.8909C53.3911 27.2297 53.2334 27.5994 53.2334 27.969C53.2334 28.3386 53.3911 28.6775 53.5489 29.0779C53.6435 29.2627 54.8738 32.0042 56.2933 34.8073C57.839 37.8876 59.5425 41.0603 59.6056 41.1835C59.7317 41.43 59.8579 41.6148 59.9841 41.6148C60.1418 41.6148 60.2365 41.4608 60.3626 41.2143C60.4257 41.0911 62.1292 37.9184 63.6749 34.8381C65.0944 32.035 66.3247 29.2935 66.4193 29.0779C66.6086 28.6467 66.7348 28.3695 66.7348 27.9998C66.7663 27.6302 66.6402 27.3221 66.4509 26.8909ZM66.167 28.9547C66.1354 29.0163 64.8736 31.7886 63.4225 34.7149C62.0976 37.3331 60.6781 40.013 60.1418 41.0295L60.1103 41.0911C60.0472 41.1835 60.0156 41.2759 59.9841 41.2759C59.9526 41.2759 59.921 41.2143 59.8579 41.0911C59.8579 41.0603 59.8264 41.0295 59.7633 40.9371C58.2176 38.0416 57.145 35.9778 56.5457 34.7149C55.1577 31.9118 53.8959 29.2011 53.8012 28.9855V28.9547C53.6435 28.5851 53.5173 28.3078 53.5173 27.9998C53.5173 27.6918 53.675 27.3529 53.8012 27.0449C53.8012 27.0141 53.8328 26.9833 53.8643 26.8909C54.7476 24.9195 55.6308 23.0713 56.5141 21.3463C58.0598 18.2968 59.8264 15.0009 59.8264 14.9701C59.8579 14.8777 59.921 14.7853 59.9526 14.7853C59.9841 14.7853 60.0156 14.8777 60.0787 14.9701C60.0787 15.0009 61.8137 18.2044 63.391 21.3463C64.779 24.1186 65.9777 26.7677 66.1039 27.0757C66.2932 27.4762 66.3878 27.7226 66.3878 28.0614C66.4509 28.3078 66.3563 28.5543 66.167 28.9547Z" fill="black"/>
<path d="M82.5391 26.4906C81.719 24.7965 79.1007 19.8064 76.9241 15.9252C73.8957 10.5963 68.533 1.81738 67.9337 1.0165C67.3343 0.215623 66.9873 0.184817 66.4195 0.12321H66.3248C65.5047 0.0308012 62.0662 0 59.9842 0C58.2177 0 54.4323 0.0308012 53.549 0.12321C52.7288 0.21562 52.508 0.462044 52.0348 1.0473C51.3724 1.87899 45.915 10.9043 43.0759 15.9252C41.0255 19.56 37.7448 25.813 37.4609 26.4906C37.177 27.1067 37.0508 27.5688 37.0508 28C37.0508 28.4312 37.177 28.9241 37.4609 29.5094C38.1549 30.9571 40.2053 34.9615 43.0759 40.0748C46.0727 45.4037 51.4985 54.2134 52.0664 54.9835C52.6657 55.7844 53.0758 55.8152 53.6121 55.8768C54.4323 55.9384 58.06 56 59.9842 56C62.0662 56 65.8201 55.9076 66.3564 55.8768C66.8611 55.8152 67.3027 55.7844 67.9021 54.9835C68.4384 54.2442 74.2743 44.7569 76.8925 40.0748C79.4162 35.6084 82.1921 30.2178 82.5076 29.5094C82.8546 28.7393 82.9177 28.3388 82.9177 28C82.9492 27.7228 82.8861 27.1991 82.5391 26.4906ZM82.2552 29.3861C81.9398 30.0946 79.1638 35.4543 76.6402 39.9208C74.0219 44.6029 68.2176 54.0594 67.6497 54.7987C67.145 55.5072 66.798 55.5072 66.3248 55.5688C65.8201 55.6304 62.0662 55.692 59.9842 55.692C58.06 55.692 54.4638 55.6304 53.6436 55.5688C53.1389 55.538 52.855 55.5072 52.3187 54.7987C51.7509 54.0286 46.3251 45.2497 43.3283 39.9208C40.4577 34.8075 38.4072 30.8031 37.7132 29.3861C37.4609 28.8317 37.3347 28.4004 37.3347 28C37.3347 27.6304 37.4609 27.1991 37.7132 26.6139C38.0287 25.9362 41.2779 19.6832 43.3283 16.0792C46.1674 11.0583 51.6247 2.0638 52.2556 1.26292C52.6973 0.677665 52.855 0.523652 53.549 0.462046C54.4007 0.369637 58.1861 0.338831 59.9527 0.338831C62.0347 0.338831 65.4416 0.369637 66.2618 0.462046H66.3564C66.8927 0.523652 67.1135 0.554455 67.6497 1.23212C68.2491 2.033 73.6118 10.7811 76.6402 16.11C78.8483 19.9912 81.4351 24.9813 82.2552 26.6755C82.5707 27.3223 82.6338 27.8152 82.6338 28.0616C82.6338 28.2772 82.5707 28.6469 82.2552 29.3861Z" fill="black"/>
<defs>
<linearGradient id="paint0_linear_655_5633" x1="60.0017" y1="54.9336" x2="60.0017" y2="1.05317" gradientUnits="userSpaceOnUse">
<stop stop-color="#E5E5E8"/>
<stop offset="0.3125" stop-color="#EEEEF0"/>
<stop offset="0.6866" stop-color="white"/>
<stop offset="0.7839" stop-color="#DEDFE2"/>
<stop offset="0.9271" stop-color="#B3B5BB"/>
<stop offset="1" stop-color="#A2A5AC"/>
</linearGradient>
<radialGradient id="paint1_radial_655_5633" cx="0" cy="0" r="1" gradientUnits="userSpaceOnUse" gradientTransform="translate(57.1516 14.9352) scale(27.5122 26.9647)">
<stop stop-color="white"/>
<stop offset="0.401" stop-color="white"/>
<stop offset="0.5869" stop-color="#DEDFE2"/>
<stop offset="0.8606" stop-color="#B3B5BB"/>
<stop offset="1" stop-color="#A2A5AC"/>
</radialGradient>
<linearGradient id="paint2_linear_655_5633" x1="49.0788" y1="54.6631" x2="49.0788" y2="28.1217" gradientUnits="userSpaceOnUse">
<stop stop-color="#E5E5E8"/>
<stop offset="0.0104233" stop-color="#E5E5E8"/>
<stop offset="0.3385" stop-color="#B1B5BB"/>
<stop offset="0.4201" stop-color="#999DA3"/>
<stop offset="0.6035" stop-color="#686B71"/>
<stop offset="0.6941" stop-color="#55585E"/>
<stop offset="0.8452" stop-color="#3C3E42"/>
<stop offset="0.8977" stop-color="#323438"/>
<stop offset="0.948" stop-color="#242529"/>
<stop offset="0.9599" stop-color="#27282C"/>
<stop offset="0.9701" stop-color="#313337"/>
<stop offset="0.9797" stop-color="#424449"/>
<stop offset="0.9888" stop-color="#5A5C62"/>
<stop offset="0.9977" stop-color="#787C81"/>
<stop offset="1" stop-color="#81858B"/>
</linearGradient>
<linearGradient id="paint3_linear_655_5633" x1="67.7941" y1="54.6666" x2="67.7941" y2="28.102" gradientUnits="userSpaceOnUse">
<stop stop-color="#E5E5E8"/>
<stop offset="0.0104233" stop-color="#E5E5E8"/>
<stop offset="0.3385" stop-color="#B1B5BB"/>
<stop offset="0.4201" stop-color="#999DA3"/>
<stop offset="0.6035" stop-color="#686B71"/>
<stop offset="0.6941" stop-color="#55585E"/>
<stop offset="0.8452" stop-color="#3C3E42"/>
<stop offset="0.9007" stop-color="#323438"/>
<stop offset="0.9538" stop-color="#242529"/>
<stop offset="0.9643" stop-color="#27282C"/>
<stop offset="0.9734" stop-color="#313337"/>
<stop offset="0.9819" stop-color="#424449"/>
<stop offset="0.9901" stop-color="#5A5C62"/>
<stop offset="0.998" stop-color="#787C81"/>
<stop offset="1" stop-color="#81858B"/>
</linearGradient>
<linearGradient id="paint4_linear_655_5633" x1="58.8221" y1="27.8195" x2="58.8221" y2="1.07836" gradientUnits="userSpaceOnUse">
<stop stop-color="#55585E"/>
<stop offset="0.0105573" stop-color="#494B50"/>
<stop offset="0.0242596" stop-color="#3F4145"/>
<stop offset="0.0400373" stop-color="#3C3E42"/>
<stop offset="0.1019" stop-color="#393B3F"/>
<stop offset="0.1498" stop-color="#303235"/>
<stop offset="0.1931" stop-color="#212225"/>
<stop offset="0.2334" stop-color="#0C0D0E"/>
<stop offset="0.2521"/>
<stop offset="1"/>
</linearGradient>
<linearGradient id="paint5_linear_655_5633" x1="64.2084" y1="28.0004" x2="64.2084" y2="12.5228" gradientUnits="userSpaceOnUse">
<stop stop-color="#8B8E94"/>
<stop offset="0.152" stop-color="#85888E"/>
<stop offset="0.3554" stop-color="#75787D"/>
<stop offset="0.5869" stop-color="#5A5D61"/>
<stop offset="0.7954" stop-color="#3C3E42"/>
<stop offset="0.823" stop-color="#37393C"/>
<stop offset="0.8589" stop-color="#28292C"/>
<stop offset="0.8993" stop-color="#101011"/>
<stop offset="0.9207"/>
<stop offset="1"/>
</linearGradient>
<linearGradient id="paint6_linear_655_5633" x1="55.7754" y1="43.4958" x2="55.7754" y2="28.0119" gradientUnits="userSpaceOnUse">
<stop stop-color="#C6C8CC"/>
<stop offset="0.3571" stop-color="#C6C8CC"/>
<stop offset="0.4869" stop-color="#C0C2C7"/>
<stop offset="0.6562" stop-color="#B0B3B7"/>
<stop offset="0.8464" stop-color="#95999E"/>
<stop offset="0.9631" stop-color="#81858B"/>
<stop offset="1" stop-color="#55585E"/>
</linearGradient>
<linearGradient id="paint7_linear_655_5633" x1="61.9264" y1="38.4307" x2="47.6179" y2="31.821" gradientUnits="userSpaceOnUse">
<stop stop-color="#F1F2F1"/>
<stop offset="0.0132" stop-color="#F1F2F1"/>
<stop offset="0.1096" stop-color="#EEEDEE"/>
<stop offset="1" stop-color="#EEEDEE"/>
</linearGradient>
<linearGradient id="paint8_linear_655_5633" x1="61.1768" y1="54.5756" x2="61.1768" y2="27.8225" gradientUnits="userSpaceOnUse">
<stop stop-color="white"/>
<stop offset="0.262" stop-color="#F5F5F6"/>
<stop offset="0.7126" stop-color="#D9DADD"/>
<stop offset="0.9693" stop-color="#C6C8CC"/>
<stop offset="0.9713" stop-color="#C0C2C7"/>
<stop offset="0.9913" stop-color="#8B8E94"/>
<stop offset="1" stop-color="#8B8E94"/>
</linearGradient>
<linearGradient id="paint9_linear_655_5633" x1="45.1274" y1="55.6329" x2="45.1274" y2="27.9962" gradientUnits="userSpaceOnUse">
<stop stop-color="#81858B"/>
<stop offset="0.1214" stop-color="#7C8086"/>
<stop offset="0.5586" stop-color="#707379"/>
<stop offset="0.9698" stop-color="#6C6F75"/>
<stop offset="1" stop-color="#9EA2A8"/>
</linearGradient>
<linearGradient id="paint10_linear_655_5633" x1="54.5666" y1="52.2793" x2="65.3347" y2="58.6461" gradientUnits="userSpaceOnUse">
<stop stop-color="#81858B"/>
<stop offset="0.019312" stop-color="#81858B"/>
<stop offset="0.0374513" stop-color="#6C6F75"/>
<stop offset="0.0607416" stop-color="#585B60"/>
<stop offset="0.0835109" stop-color="#4C4E53"/>
<stop offset="0.105" stop-color="#484A4F"/>
<stop offset="1" stop-color="#484A4F"/>
</linearGradient>
<linearGradient id="paint11_linear_655_5633" x1="62.8828" y1="7.74887" x2="86.773" y2="21.1436" gradientUnits="userSpaceOnUse">
<stop stop-color="#787A80"/>
<stop offset="1" stop-color="#8B8E94"/>
</linearGradient>
<linearGradient id="paint12_linear_655_5633" x1="66.4334" y1="2.44351" x2="53.3954" y2="-1.38515" gradientUnits="userSpaceOnUse">
<stop stop-color="#787A80"/>
<stop offset="0.00955204" stop-color="#787A80"/>
<stop offset="0.0358349" stop-color="#979AA0"/>
<stop offset="0.0584987" stop-color="#AAAEB4"/>
<stop offset="0.0737603" stop-color="#B1B5BB"/>
<stop offset="0.5011" stop-color="#C4C8CB"/>
<stop offset="1" stop-color="#C6C8CC"/>
</linearGradient>
<linearGradient id="paint13_linear_655_5633" x1="33.3631" y1="18.5822" x2="56.5549" y2="9.4651" gradientUnits="userSpaceOnUse">
<stop stop-color="#9EA2A8"/>
<stop offset="0.9868" stop-color="#8B8E94"/>
<stop offset="0.997" stop-color="#B8BABF"/>
<stop offset="1" stop-color="#C6C8CC"/>
</linearGradient>
<linearGradient id="paint14_linear_655_5633" x1="74.7904" y1="55.7163" x2="74.7904" y2="27.9279" gradientUnits="userSpaceOnUse">
<stop stop-color="#484A4F"/>
<stop offset="0.0190238" stop-color="#484A4F"/>
<stop offset="0.2412" stop-color="#52555A"/>
<stop offset="0.6025" stop-color="#5D6165"/>
<stop offset="0.9698" stop-color="#616569"/>
<stop offset="0.9767" stop-color="#6B6F74"/>
<stop offset="1" stop-color="#8B8E94"/>
</linearGradient>
<radialGradient id="paint15_radial_655_5633" cx="0" cy="0" r="1" gradientUnits="userSpaceOnUse" gradientTransform="translate(68.3586 28.2195) scale(15.8293 15.4569)">
<stop stop-color="white"/>
<stop offset="0.5897" stop-color="white"/>
<stop offset="1" stop-color="white"/>
</radialGradient>
</defs>
</svg>
