<svg width="121" height="57" viewBox="0 0 121 57" fill="none" xmlns="http://www.w3.org/2000/svg">
<path d="M18.28 47.8413C18.28 47.8413 16.1661 46.878 16.4792 45.5936C16.4792 45.5936 16.6567 43.9882 19.825 44.3551C20.8101 44.4216 21.7692 44.6927 22.6384 45.1502V42.8974C22.6384 42.8974 16.7037 40.665 13.9895 44.1614C13.9895 44.1614 11.458 48.3408 17.7737 50.2776C17.7737 50.2776 21.0307 51.2154 20.1173 53.2541C20.1173 53.2541 19.4335 54.141 16.7193 54.141C15.6505 54.0469 14.5982 53.8208 13.5876 53.4682V55.8586C13.5876 55.8586 18.4209 57.4692 21.8293 55.1501C21.8293 55.1501 24.7367 53.1573 22.0225 49.8953C22.0225 49.8953 20.9785 48.7231 18.2748 47.8566" fill="#333438"/>
<path d="M30.3461 50.9711C30.3461 50.9711 29.5058 50.0129 27.2927 49.3095C27.2927 49.3095 25.5337 48.7998 25.6276 47.597C25.6276 47.597 25.6694 46.2769 28.2374 46.5776C29.1168 46.7179 29.9879 46.9033 30.8472 47.1332V45.2983C30.8472 45.2983 25.8103 43.5552 23.5972 46.4043C23.5972 46.4043 21.5093 49.7478 26.6715 51.3177C26.6715 51.3177 29.391 51.8273 28.6498 53.4787C28.6498 53.4787 28.2374 54.4369 26.04 54.4369C25.1322 54.3618 24.2378 54.1752 23.378 53.8814V55.8334C23.378 55.8334 27.3188 57.1688 30.0956 55.2779C30.698 54.7322 31.0605 53.9799 31.1072 53.1789C31.154 52.3778 30.8812 51.5902 30.3461 50.9813" fill="#333438"/>
<path d="M79.0155 54.533C76.9277 54.533 75.5497 52.7083 75.5497 50.4555C75.5497 48.2027 76.6354 46.3781 79.0155 46.3781C81.3957 46.3781 82.4813 48.2027 82.4813 50.4555C82.4813 52.7083 81.1034 54.533 79.0155 54.533ZM79.0155 44.584C77.8278 44.5911 76.6689 44.9414 75.6849 45.5908C74.7009 46.2403 73.9359 47.1597 73.4864 48.2332C73.0369 49.3067 72.923 50.4861 73.1591 51.6227C73.3952 52.7593 73.9708 53.8022 74.8131 54.6197C75.6555 55.4373 76.727 55.993 77.8924 56.2167C79.0578 56.4404 80.2649 56.322 81.3615 55.8766C82.4581 55.4312 83.3951 54.6786 84.0542 53.7138C84.7133 52.749 85.065 51.6153 85.0651 50.4555C85.063 49.682 84.9049 48.9165 84.5997 48.2027C84.2945 47.4889 83.8482 46.8409 83.2864 46.2956C82.7246 45.7503 82.0582 45.3185 81.3254 45.0248C80.5926 44.7311 79.8076 44.5813 79.0155 44.584Z" fill="#333438"/>
<path d="M59.0723 51.4298H61.9431V54.4217C55.7735 55.0741 56.0084 50.4971 56.0084 50.4971C56.0084 44.9416 63.8953 46.8937 63.8953 46.8937V45.1098C63.8953 45.1098 54.0145 42.6685 53.456 50.3187C53.456 50.3187 52.9811 58.1882 64.1928 55.701V49.7428H59.0776L59.0723 51.4298Z" fill="#333438"/>
<path d="M34.8185 51.6894L36.5828 46.9494L38.3209 51.6894H34.8185ZM35.1004 44.8852L30.8203 55.721H33.1222L34.1661 53.3663H38.9942L40.0382 55.7261H42.34L38.1643 44.875L35.1004 44.8852Z" fill="#333438"/>
<path d="M50.5454 53.0405L45.7851 44.8958L42.8047 44.8856V55.7469H44.8664V47.3576L49.7938 55.7214L52.5915 55.7469V44.8652H50.5454V53.0405Z" fill="#333438"/>
<path d="M73.3079 42.5771L69.7533 48.6831L65.9273 42.5771H63.4062L68.5945 50.8594L65.3845 56.2977H67.9056L75.8289 42.5771H73.3079Z" fill="#333438"/>
<path d="M102.15 49.7376V51.4144H105.021V54.4011C98.8464 55.0535 99.0813 50.4766 99.0813 50.4766C99.0813 44.9211 106.973 46.8732 106.973 46.8732V45.0893C106.973 45.0893 97.0926 42.6479 96.5341 50.2982C96.5341 50.2982 96.0592 58.1677 107.271 55.6855V49.7274L102.15 49.7376Z" fill="#333438"/>
<path d="M93.6157 53.0299L88.8554 44.8852L85.8594 44.875L85.875 55.7312H87.9368V47.3418L92.8902 55.721L95.6618 55.7312V44.8903H93.6157V53.0299Z" fill="#333438"/>
<path d="M88.1408 12.2865C86.4966 6.28246 78.5575 3.29064 78.5575 3.29064C76.4436 2.53632 77.2892 3.72387 77.2892 3.72387C77.2892 3.72387 86.4079 7.8013 86.4079 13.525C86.4079 20.5892 76.4906 22.6992 76.4906 22.6992C85.5257 19.896 85.5518 13.9022 85.5518 13.9022C85.3952 7.91344 77.3101 3.70858 77.3101 3.70858C75.7985 2.81063 74.1853 2.08713 72.5028 1.55263C68.4315 0.222367 69.7521 1.7667 69.7521 1.7667C69.7521 1.7667 82.0234 5.54342 82.0234 13.8767C82.0234 22.3832 64.9135 25.1202 64.9135 25.1202C81.0056 22.2049 81.0055 13.9481 81.0055 13.9481C81.0055 6.50672 69.7521 1.77179 69.7521 1.77179C68.29 1.08974 66.7641 0.546971 65.1953 0.151012C62.5386 -0.399443 64.047 0.732039 64.047 0.732039C74.8307 6.88387 74.8308 13.683 74.8308 13.683C74.8308 21.2416 67.7373 23.1274 67.7373 23.1274C65.6494 23.9123 61.6877 24.5392 61.6877 24.5392C61.4049 24.5872 61.1453 24.7225 60.9471 24.9252C60.7488 25.128 60.6224 25.3875 60.5864 25.6656C60.5769 25.8743 60.6498 26.0786 60.79 26.2364C61.3329 26.7167 61.9008 27.1692 62.4916 27.5922C62.7167 27.7835 62.8991 28.0179 63.0275 28.2809C63.1559 28.544 63.2276 28.83 63.238 29.1212C63.238 30.5381 61.5677 31.6696 59.4903 31.7155H59.3389C57.2511 31.69 55.5913 30.5381 55.5913 29.1212C55.6017 28.83 55.6733 28.544 55.8017 28.2809C55.9301 28.0179 56.1125 27.7835 56.3377 27.5922C56.9286 27.1694 57.4965 26.7169 58.0393 26.2364C58.18 26.0789 58.2529 25.8744 58.2428 25.6656C58.2071 25.3882 58.0815 25.1292 57.8843 24.9265C57.687 24.7239 57.4286 24.5881 57.1467 24.5392C57.1467 24.5392 53.1589 23.9123 51.0972 23.1274C51.0972 23.1274 44.0037 21.2365 44.0037 13.683C44.0037 13.683 44.0037 6.88387 54.7874 0.732039C54.7874 0.732039 56.2907 -0.399443 53.6391 0.151012C52.0704 0.547123 50.5445 1.08989 49.0824 1.77179C49.0824 1.77179 37.8289 6.51182 37.8289 13.9481C37.8289 13.9481 37.8289 22.2049 53.921 25.1202C53.921 25.1202 36.8111 22.3883 36.8111 13.8767C36.8111 5.54342 49.0824 1.7667 49.0824 1.7667C49.0824 1.7667 50.403 0.237657 46.3369 1.55263C44.6544 2.08713 43.0412 2.81063 41.5296 3.70858C41.5296 3.70858 33.4027 7.91344 33.2565 13.9277C33.2565 13.9277 33.2565 19.9164 42.3178 22.7247C42.3178 22.7247 32.4005 20.6096 32.4005 13.5505C32.4005 7.84718 41.5192 3.74935 41.5192 3.74935C41.5192 3.74935 42.3648 2.56179 40.2508 3.31612C40.2508 3.31612 32.3274 6.33343 30.6676 12.3069C30.6676 12.3069 30.1456 14.5597 30.9025 16.2059C31.795 18.2192 34.1178 21.5525 40.0368 23.4281C40.0368 23.4281 42.7353 24.5086 53.5138 26.6136L54.1506 26.7563C54.1506 26.7563 54.6152 26.9551 54.2811 27.3119L52.7988 28.5555C52.7988 28.5555 50.617 30.1966 53.7279 31.5728C54.9459 32.0139 56.0504 32.7097 56.964 33.6115C57.6165 34.1397 58.4341 34.4346 59.2815 34.4474H59.5321C60.3912 34.4414 61.2215 34.1441 61.8809 33.6064C62.7934 32.7057 63.896 32.01 65.1118 31.5677C68.2436 30.1915 66.0409 28.5504 66.0409 28.5504L64.5585 27.3068C64.2245 26.95 64.689 26.7512 64.689 26.7512L65.3258 26.6085C76.1043 24.5035 78.8029 23.423 78.8029 23.423C84.7219 21.5525 87.0499 18.2141 87.9424 16.2008C88.6784 14.5546 88.1773 12.3018 88.1773 12.3018" fill="#333438"/>
</svg>
