<svg width="120" height="57" viewBox="0 0 120 57" fill="none" xmlns="http://www.w3.org/2000/svg">
<path d="M17.8649 48.2979C17.8649 48.2979 15.7661 47.3415 16.077 46.0663C16.077 46.0663 16.2532 44.4723 19.3989 44.8366C20.3769 44.9027 21.3292 45.1718 22.1921 45.6261V43.3894C22.1921 43.3894 16.2998 41.1729 13.605 44.6443C13.605 44.6443 11.0916 48.7939 17.3622 50.7168C17.3622 50.7168 20.596 51.6479 19.6891 53.672C19.6891 53.672 19.0102 54.5526 16.3154 54.5526C15.2542 54.4592 14.2094 54.2347 13.206 53.8846V56.2579C13.206 56.2579 18.0048 57.857 21.3889 55.5545C21.3889 55.5545 24.2754 53.5759 21.5806 50.3373C21.5806 50.3373 20.5442 49.1734 17.8597 48.3131" fill="#1C395B"/>
<path d="M29.8467 51.4053C29.8467 51.4053 29.0123 50.4539 26.815 49.7556C26.815 49.7556 25.0686 49.2496 25.1619 48.0553C25.1619 48.0553 25.2033 46.7447 27.753 47.0432C28.6261 47.1825 29.491 47.3666 30.3442 47.5948V45.7731C30.3442 45.7731 25.3433 44.0424 23.146 46.8712C23.146 46.8712 21.073 50.1908 26.1983 51.7494C26.1983 51.7494 28.8983 52.2554 28.1624 53.895C28.1624 53.895 27.753 54.8463 25.5713 54.8463C24.67 54.7718 23.782 54.5865 22.9283 54.2948V56.2329C22.9283 56.2329 26.841 57.5587 29.5979 55.6813C30.196 55.1395 30.556 54.3926 30.6024 53.5973C30.6487 52.802 30.3779 52.02 29.8467 51.4154" fill="#1C395B"/>
<path d="M78.1642 54.9417C76.0913 54.9417 74.7232 53.1301 74.7232 50.8934C74.7232 48.6567 75.8011 46.8451 78.1642 46.8451C80.5273 46.8451 81.6053 48.6567 81.6053 50.8934C81.6053 53.1301 80.2371 54.9417 78.1642 54.9417ZM78.1642 45.0639C76.985 45.0709 75.8344 45.4187 74.8574 46.0635C73.8804 46.7083 73.1209 47.6212 72.6746 48.687C72.2283 49.7528 72.1152 50.9238 72.3496 52.0523C72.5841 53.1807 73.1555 54.2161 73.9919 55.0279C74.8282 55.8396 75.892 56.3913 77.0491 56.6134C78.2062 56.8355 79.4047 56.718 80.4934 56.2757C81.5822 55.8335 82.5125 55.0863 83.1669 54.1284C83.8213 53.1705 84.1705 52.0449 84.1705 50.8934C84.1685 50.1254 84.0115 49.3654 83.7085 48.6567C83.4055 47.948 82.9624 47.3046 82.4046 46.7632C81.8468 46.2218 81.1852 45.7931 80.4576 45.5015C79.73 45.2099 78.9507 45.0612 78.1642 45.0639Z" fill="#1C395B"/>
<path d="M58.3681 51.8608H61.2184V54.8312C55.0929 55.479 55.3261 50.9347 55.3261 50.9347C55.3261 45.4189 63.1566 47.357 63.1566 47.357V45.5859C63.1566 45.5859 53.3464 43.162 52.7919 50.7576C52.7919 50.7576 52.3204 58.5709 63.452 56.1014V50.1858H58.3733L58.3681 51.8608Z" fill="#1C395B"/>
<path d="M34.287 52.1185L36.0387 47.4124L37.7644 52.1185H34.287ZM34.5669 45.3629L30.3174 56.1213H32.6028L33.6392 53.7834H38.4329L39.4694 56.1263H41.7548L37.6089 45.3528L34.5669 45.3629Z" fill="#1C395B"/>
<path d="M49.8973 53.46L45.171 45.3735L42.2119 45.3634V56.147H44.2589V47.8177L49.151 56.1217L51.9288 56.147V45.3431H49.8973V53.46Z" fill="#1C395B"/>
<path d="M72.5017 43.0714L68.9726 49.1337L65.174 43.0714H62.6709L67.8221 51.2945L64.635 56.6939H67.1381L75.0048 43.0714H72.5017Z" fill="#1C395B"/>
<path d="M101.138 50.1806V51.8455H103.988V54.8108C97.8572 55.4586 98.0904 50.9144 98.0904 50.9144C98.0904 45.3986 105.926 47.3367 105.926 47.3367V45.5655C105.926 45.5655 96.116 43.1416 95.5615 50.7372C95.5615 50.7372 95.0899 58.5505 106.221 56.0861V50.1705L101.138 50.1806Z" fill="#1C395B"/>
<path d="M92.6619 53.4494L87.9356 45.3629L84.9609 45.3528L84.9765 56.1314H87.0235V47.802L91.9415 56.1213L94.6933 56.1314V45.368H92.6619V53.4494Z" fill="#1C395B"/>
<path d="M87.2249 12.9972C85.5925 7.03603 77.7102 4.06559 77.7102 4.06559C75.6113 3.31665 76.4509 4.49572 76.4509 4.49572C76.4509 4.49572 85.5044 8.54402 85.5044 14.2268C85.5044 21.2405 75.658 23.3355 75.658 23.3355C84.6286 20.5523 84.6545 14.6013 84.6545 14.6013C84.499 8.65536 76.4716 4.48054 76.4716 4.48054C74.9709 3.58901 73.3692 2.87068 71.6987 2.34C67.6565 1.01924 68.9676 2.55254 68.9676 2.55254C68.9676 2.55254 81.1512 6.30227 81.1512 14.576C81.1512 23.0218 64.1636 25.7392 64.1636 25.7392C80.1407 22.8446 80.1407 14.6468 80.1407 14.6468C80.1407 7.25869 68.9676 2.55759 68.9676 2.55759C67.516 1.88042 66.001 1.34152 64.4434 0.948394C61.8057 0.401874 63.3033 1.52527 63.3033 1.52527C74.01 7.63315 74.01 14.3837 74.01 14.3837C74.01 21.8882 66.9672 23.7606 66.9672 23.7606C64.8943 24.5399 60.9609 25.1623 60.9609 25.1623C60.6801 25.2099 60.4223 25.3443 60.2255 25.5456C60.0287 25.7469 59.9032 26.0045 59.8675 26.2806C59.858 26.4879 59.9303 26.6907 60.0696 26.8474C60.6086 27.3242 61.1725 27.7735 61.759 28.1935C61.9825 28.3834 62.1636 28.6162 62.2911 28.8773C62.4186 29.1385 62.4897 29.4224 62.5001 29.7116C62.5001 31.1184 60.8417 32.2418 58.7792 32.2873H58.6289C56.556 32.262 54.908 31.1184 54.908 29.7116C54.9183 29.4224 54.9895 29.1385 55.117 28.8773C55.2444 28.6162 55.4256 28.3834 55.6491 28.1935C56.2357 27.7737 56.7997 27.3244 57.3385 26.8474C57.4782 26.691 57.5506 26.4879 57.5406 26.2806C57.5052 26.0052 57.3804 25.7481 57.1846 25.5469C56.9888 25.3457 56.7322 25.2109 56.4523 25.1623C56.4523 25.1623 52.493 24.5399 50.446 23.7606C50.446 23.7606 43.4033 21.8832 43.4033 14.3837C43.4033 14.3837 43.4033 7.63315 54.1099 1.52527C54.1099 1.52527 55.6024 0.401874 52.9698 0.948394C51.4123 1.34167 49.8973 1.88056 48.4456 2.55759C48.4456 2.55759 37.2726 7.26375 37.2726 14.6468C37.2726 14.6468 37.2726 22.8446 53.2496 25.7392C53.2496 25.7392 36.262 23.0268 36.262 14.576C36.262 6.30227 48.4456 2.55254 48.4456 2.55254C48.4456 2.55254 49.7568 1.03442 45.7197 2.34C44.0493 2.87068 42.4476 3.58901 40.9468 4.48054C40.9468 4.48054 32.878 8.65535 32.7329 14.6266C32.7329 14.6266 32.7329 20.5725 41.7294 23.3608C41.7294 23.3608 31.883 21.2608 31.883 14.2521C31.883 8.58957 40.9365 4.52102 40.9365 4.52102C40.9365 4.52102 41.776 3.34195 39.6772 4.09088C39.6772 4.09088 31.8104 7.08664 30.1624 13.0174C30.1624 13.0174 29.6442 15.2541 30.3956 16.8886C31.2818 18.8874 33.5879 22.1969 39.4647 24.0591C39.4647 24.0591 42.144 25.1319 52.8454 27.2219L53.4777 27.3636C53.4777 27.3636 53.9389 27.5609 53.6072 27.9152L52.1355 29.1499C52.1355 29.1499 49.9692 30.7793 53.0579 32.1456C54.2672 32.5835 55.3639 33.2744 56.2709 34.1698C56.9188 34.6942 57.7305 34.987 58.5719 34.9997H58.8206C59.6736 34.9937 60.498 34.6986 61.1527 34.1647C62.0587 33.2705 63.1534 32.5797 64.3605 32.1406C67.4699 30.7743 65.283 29.1448 65.283 29.1448L63.8112 27.9101C63.4795 27.5559 63.9407 27.3585 63.9407 27.3585L64.573 27.2168C75.2745 25.1269 77.9537 24.0541 77.9537 24.0541C83.8305 22.1969 86.1418 18.8824 87.028 16.8835C87.7587 15.249 87.2612 13.0123 87.2612 13.0123" fill="#1C395B"/>
</svg>
