<svg width="120" height="56" viewBox="0 0 120 56" fill="none" xmlns="http://www.w3.org/2000/svg">
<path d="M18.7676 51.549L25.0453 51.5822C25.1532 52.1705 24.9836 52.1683 25.3138 52.4753C25.8308 52.9544 26.633 53.0635 27.3063 52.9454C27.8577 52.8491 28.7125 52.6812 28.7533 51.9993C28.7979 51.2592 28.2835 51.0014 27.6381 50.9169C26.7458 50.8009 25.8453 50.7704 24.9556 50.6287C22.6635 50.2538 21.4447 50.0859 20.4686 49.4661C19.4838 48.8457 19.399 47.4949 19.399 46.5334C19.399 45.9013 19.6508 45.305 20.1545 44.7419C20.6581 44.1809 21.4157 43.7392 22.4267 43.4167C23.4383 43.0953 24.8241 42.9359 26.5858 42.9359C28.7463 42.9359 30.3952 43.2274 31.5287 43.8103C32.6638 44.3932 33.3387 45.6932 33.554 46.9633H28.2164C28.2561 46.8879 28.1117 46.5478 28.0886 46.4628C27.884 45.7253 27.1694 45.5103 26.4848 45.3595C25.9237 45.236 25.2826 45.2253 24.7769 45.5333C24.4692 45.7216 24.2303 45.92 24.2303 46.1895C24.2303 46.3847 24.357 46.5606 24.6115 46.7173C24.859 46.8788 25.4437 47.0302 26.3667 47.1692C28.6513 47.5286 30.2873 47.8901 31.2763 48.2554C32.2643 48.6233 32.9832 49.0762 33.4337 49.618C33.8831 50.1597 34.1086 50.7661 34.1086 51.4367C34.1086 52.225 33.8085 52.9512 33.2082 53.6154C32.609 54.2796 31.7708 54.7855 30.6943 55.1289C29.6172 55.4727 28.2604 55.6438 26.6228 55.6438C23.7476 55.6438 21.755 55.2417 20.6484 54.4374C19.5402 53.6342 18.9136 52.7908 18.7676 51.549ZM44.2388 43.1669H48.8784V51.8549C48.8784 53.6379 47.7664 54.9005 45.5419 55.6465C44.5126 55.9866 43.2788 55.9995 41.8817 55.9995C40.629 55.9995 39.5053 56.0225 38.4658 55.7529C36.0174 54.7786 34.7937 53.4791 34.7937 51.8549V43.1669H39.4661V50.6073C39.4661 51.9619 39.6465 52.97 41.8822 52.97C44.1631 52.97 44.2087 51.918 44.2087 50.5635L44.2388 43.1669ZM74.5746 43.1669H79.2147V51.8549C79.2147 53.6379 78.1027 54.9005 75.8782 55.6465C74.8495 55.9866 73.6151 55.9995 72.218 55.9995C70.9654 55.9995 69.841 56.0225 68.8021 55.7529C66.3532 54.7786 65.1295 53.4791 65.1295 51.8549V43.1669H69.8018V50.6073C69.8018 51.9619 69.9828 52.97 72.218 52.97C74.4989 52.97 74.5445 51.918 74.5445 50.5635L74.5746 43.1669ZM49.833 43.2568H64.2044V45.9275L57.1841 52.2116H64.2049V55.7096H49.833V52.7026L56.6917 46.5077H49.8459L49.833 43.2568ZM80.3637 55.6877V43.2354H84.97L84.9689 47.8446L89.9371 43.2354H95.7021L89.0866 49.2704L95.9775 55.6877H89.7578L85.0146 51.2319L85.0597 55.6877H80.3637ZM101.233 43.2338V55.6877H96.6358V43.2354H101.233V43.2338Z" fill="#015CD0"/>
<path d="M54.7088 9.64664C55.0615 8.49951 55.9548 9.08491 55.9548 9.08491C55.9548 9.08491 58.2696 10.8406 64.6188 14.8647C70.9679 18.8887 78.8834 13.3044 78.8834 13.3044L60.0836 0C51.8378 8.70524 41.2837 11.8261 41.2837 11.8261L41.3136 11.8377L65.3446 28.6211C64.9918 29.7683 64.0986 29.1831 64.0986 29.1831C64.0986 29.1831 61.7837 27.4272 55.4346 23.4029C49.0854 19.3788 41.1699 24.9634 41.1699 24.9634L59.9698 38.2678C68.2155 29.5623 78.7696 26.4417 78.7696 26.4417L78.7392 26.4298L54.7088 9.64664Z" fill="#FF0016"/>
</svg>
