<svg width="121" height="56" viewBox="0 0 121 56" fill="none" xmlns="http://www.w3.org/2000/svg">
<path d="M19.2656 51.5492L25.5434 51.5823C25.6513 52.1706 25.4816 52.1684 25.8118 52.4754C26.3289 52.9546 27.1311 53.0637 27.8044 52.9455C28.3558 52.8492 29.2106 52.6813 29.2514 51.9995C29.2959 51.2593 28.7816 51.0016 28.1362 50.9171C27.2438 50.801 26.3434 50.7705 25.4537 50.6288C23.1616 50.2539 21.9427 50.086 20.9666 49.4662C19.9819 48.8459 19.897 47.495 19.897 46.5335C19.897 45.9014 20.1489 45.3051 20.6525 44.742C21.1561 44.181 21.9137 43.7393 22.9248 43.4168C23.9363 43.0954 25.3221 42.936 27.0838 42.936C29.2444 42.936 30.8933 43.2275 32.0267 43.8104C33.1618 44.3933 33.8367 45.6934 34.052 46.9635H28.7144C28.7542 46.888 28.6097 46.5479 28.5867 46.4629C28.3821 45.7254 27.6674 45.5105 26.9829 45.3596C26.4218 45.2361 25.7807 45.2254 25.2749 45.5334C24.9672 45.7217 24.7283 45.9201 24.7283 46.1896C24.7283 46.3848 24.855 46.5608 25.1095 46.7175C25.357 46.879 25.9418 47.0303 26.8647 47.1693C29.1494 47.5287 30.7854 47.8902 31.7744 48.2555C32.7623 48.6234 33.4813 49.0764 33.9318 49.6181C34.3812 50.1598 34.6067 50.7663 34.6067 51.4369C34.6067 52.2251 34.3065 52.9514 33.7062 53.6156C33.107 54.2797 32.2689 54.7856 31.1924 55.129C30.1153 55.4728 28.7585 55.644 27.1208 55.644C24.2456 55.644 22.2531 55.2418 21.1465 54.4375C20.0383 53.6343 19.4117 52.7909 19.2656 51.5492ZM44.7368 43.1671H49.3764V51.8551C49.3764 53.638 48.2644 54.9006 46.04 55.6466C45.0107 55.9868 43.7768 55.9996 42.3797 55.9996C41.1271 55.9996 40.0033 56.0226 38.9638 55.7531C36.5154 54.7787 35.2918 53.4792 35.2918 51.8551V43.1671H39.9641V50.6074C39.9641 51.962 40.1445 52.9701 42.3803 52.9701C44.6611 52.9701 44.7068 51.9182 44.7068 50.5636L44.7368 43.1671ZM75.0726 43.1671H79.7127V51.8551C79.7127 53.638 78.6007 54.9006 76.3763 55.6466C75.3475 55.9868 74.1131 55.9996 72.716 55.9996C71.4634 55.9996 70.3391 56.0226 69.3001 55.7531C66.8512 54.7787 65.6276 53.4792 65.6276 51.8551V43.1671H70.2999V50.6074C70.2999 51.962 70.4808 52.9701 72.716 52.9701C74.9969 52.9701 75.0425 51.9182 75.0425 50.5636L75.0726 43.1671ZM50.3311 43.2569H64.7024V45.9276L57.6821 52.2118H64.703V55.7097H50.3311V52.7027L57.1898 46.5078H50.344L50.3311 43.2569ZM80.8617 55.6878V43.2355H85.468L85.467 47.8448L90.4351 43.2355H96.2001L89.5846 49.2705L96.4755 55.6878H90.2558L85.5126 51.232L85.5577 55.6878H80.8617ZM101.731 43.2339V55.6878H97.1338V43.2355H101.731V43.2339Z" fill="#4B4C50"/>
<path d="M55.2068 9.64664C55.5596 8.49951 56.4528 9.08491 56.4528 9.08491C56.4528 9.08491 58.7677 10.8406 65.1168 14.8647C71.466 18.8887 79.3815 13.3044 79.3815 13.3044L60.5816 0C52.3359 8.70524 41.7818 11.8261 41.7818 11.8261L41.8117 11.8377L65.8426 28.6211C65.4899 29.7683 64.5966 29.1831 64.5966 29.1831C64.5966 29.1831 62.2818 27.4272 55.9326 23.4029C49.5834 19.3788 41.668 24.9634 41.668 24.9634L60.4678 38.2678C68.7135 29.5623 79.2677 26.4417 79.2677 26.4417L79.2372 26.4298L55.2068 9.64664Z" fill="#727276"/>
</svg>
