<svg width="120" height="56" viewBox="0 0 120 56" fill="none" xmlns="http://www.w3.org/2000/svg">
<path d="M59.9172 49.9553C59.9067 46.6147 62.667 43.9198 66.1149 43.9141C69.4782 43.9193 72.2408 46.6143 72.3086 49.9553C72.2415 53.2584 69.4789 55.9533 66.1149 56C62.667 55.9533 59.9069 53.2584 59.9172 49.9553ZM66.1151 53.7732C67.9763 53.7452 69.5173 52.0393 69.5364 49.9553C69.5173 47.8312 67.9763 46.1253 66.1151 46.1373C64.1734 46.1249 62.6287 47.8307 62.6901 49.9553C62.6287 52.0391 64.1734 53.7449 66.1151 53.7732ZM79.3189 46.4557V55.6819H76.7121V46.4557H72.9609V44.3915H82.907V46.4557H79.3189ZM86.0029 53.1341L85.0268 55.6822H81.9312L86.8212 44.3915H90.0804L94.8103 55.6822H91.7144L90.7362 53.1341H86.0029ZM88.4523 51.228H90.0804L88.4523 47.0917L86.8212 51.228H88.4523ZM31.3844 46.4557V55.6819H28.7758V46.4557H25.1895V44.3915H34.9725V46.4557H31.3844ZM35.6248 49.9553C35.6299 46.6147 38.3888 43.9198 41.8175 43.9141C45.202 43.9193 47.965 46.6143 48.0149 49.9553C47.965 53.2584 45.202 55.9533 41.8175 56C38.3888 55.9533 35.6297 53.2584 35.6248 49.9553ZM41.8175 53.7732C43.7008 53.7452 45.2405 52.0393 45.2422 49.9553C45.2403 47.8312 43.7008 46.1253 41.8175 46.1373C39.8949 46.1249 38.3525 47.8307 38.3974 49.9553C38.3525 52.0391 39.8949 53.7449 41.8175 53.7732ZM53.8846 55.6819H55.1876V51.3868L59.7542 44.3915H56.8204L53.8846 49.16L51.112 44.3915H48.0151L52.5817 51.3868V55.6819H53.8846Z" fill="#AB002F"/>
<path d="M27.2891 19.5379C27.2891 30.3109 41.6512 39.076 59.3039 39.076C76.9564 39.076 91.3187 30.3109 91.3187 19.5379C91.3184 8.76391 76.9564 0 59.3036 0C41.6509 0 27.2891 8.76391 27.2891 19.5379ZM28.2715 19.5379C28.2715 9.29428 42.1922 0.959874 59.3039 0.959874C76.415 0.959874 90.3363 9.29428 90.3363 19.5379C90.3363 29.7837 76.415 38.1178 59.3039 38.1178C42.1922 38.1176 28.2715 29.7839 28.2715 19.5379Z" fill="black"/>
<path d="M56.2787 3.55118C48.7858 3.99746 43.3434 5.93446 42.4157 8.48638C42.3212 8.74352 42.2726 9.01452 42.2718 9.28767C42.2718 9.71814 42.3966 10.1486 42.6441 10.5602C43.684 12.2883 46.912 13.7133 51.5056 14.4777L51.9919 14.5554L52.0734 14.0815C52.8275 9.59549 54.4826 6.06789 56.6162 4.4023L57.8251 3.45752L56.2787 3.55118ZM43.4922 10.077C43.3321 9.81133 43.2532 9.54926 43.2532 9.29103C43.2532 9.12813 43.282 8.96907 43.3414 8.80714C44.0495 6.85768 48.8597 5.15497 55.0045 4.60568C53.2516 6.53956 51.9037 9.65586 51.2006 13.4419C47.2075 12.7214 44.3364 11.4805 43.4922 10.077ZM54.9087 14.3683L54.8127 14.8895L55.3548 14.9298C56.6403 15.0234 57.9692 15.074 59.3026 15.074C60.6373 15.074 61.967 15.0234 63.2527 14.9298L63.7938 14.8895L63.6975 14.3683C62.9585 10.3204 61.3144 7.90236 59.3034 7.90236C57.2909 7.90236 55.6475 10.3204 54.9087 14.3683ZM59.3036 8.86056C60.6785 8.86056 61.9478 10.8687 62.6166 14.0034C61.5293 14.0727 60.4219 14.1158 59.3026 14.1158C58.1849 14.1158 57.0769 14.0727 55.9909 14.0034C56.6577 10.8687 57.929 8.86056 59.3036 8.86056ZM61.9901 4.40278C64.1229 6.06837 65.7798 9.59645 66.5338 14.082L66.6143 14.5558L67.0999 14.4782C71.6954 13.7138 74.9252 12.2883 75.9614 10.5604C76.3644 9.89637 76.4411 9.17916 76.1918 8.4871C75.2644 5.93542 69.8217 3.99842 62.3292 3.55166L60.7849 3.458L61.9901 4.40278ZM63.6047 4.60568C69.7478 5.15497 74.5577 6.8608 75.2639 8.80714C75.3253 8.96907 75.354 9.12813 75.354 9.29103C75.354 9.54926 75.2734 9.81133 75.117 10.077C74.2699 11.4803 71.3978 12.7214 67.4067 13.4419C66.7035 9.6561 65.3576 6.5398 63.6047 4.60568ZM37.6745 10.3671C34.307 13.1183 32.5273 16.3867 32.5273 19.8207C32.5273 27.8987 42.6267 34.7269 56.0179 35.6999L57.5136 35.8094L56.3748 34.8605C53.441 32.4126 51.6191 26.6045 51.6191 19.7018L51.6498 18.071L51.2391 17.9895C44.1954 16.7583 39.1843 13.8695 38.4708 10.6347L38.3001 9.85804L37.6745 10.3671ZM33.5108 19.8207C33.5108 16.8761 34.9834 14.0502 37.7484 11.5957C39.0367 14.8644 43.8501 17.5873 50.6538 18.8543C50.6452 19.2285 50.6376 19.7018 50.6376 19.7018C50.6376 26.1021 52.1948 31.6295 54.7631 34.6116C42.5614 33.3418 33.5108 27.1257 33.5108 19.8207ZM54.5086 18.9573L54.5057 19.1312C54.5057 25.5473 56.5683 30.3879 59.3036 30.3879C62.038 30.3879 64.1008 25.5473 64.1008 19.1312L64.0942 18.4389L63.5666 18.483C62.1755 18.6018 60.7431 18.6608 59.3041 18.6608C57.8651 18.6608 56.4308 18.6018 55.0433 18.483L54.5138 18.4363L54.5086 18.9573ZM63.1125 19.4716C63.0386 25.4414 61.1103 29.4304 59.3036 29.4304C57.4952 29.4304 55.5667 25.4414 55.4947 19.4716C56.7439 19.5615 58.0198 19.6175 59.3036 19.6175C60.5894 19.6175 61.8616 19.5615 63.1125 19.4716ZM80.1347 10.6347C79.422 13.8695 74.4099 16.758 67.3683 17.9895L66.9557 18.0643L66.9884 19.7016C66.9884 26.6042 65.1655 32.4126 62.2327 34.8603L61.0938 35.8091L62.5876 35.6997C75.9801 34.7266 86.0796 27.8985 86.0796 19.8204C86.0796 16.3865 84.298 13.1181 80.9305 10.3668L80.3069 9.8578L80.1347 10.6347ZM80.8571 11.5957C83.6241 14.0502 85.0977 16.8761 85.0977 19.8207C85.0977 27.1257 76.0476 33.3418 63.8446 34.6116C66.4129 31.6295 67.9701 26.1021 67.9701 19.7018C67.9701 19.7018 67.9605 19.2283 67.9539 18.8543C74.7555 17.5873 79.5686 14.8641 80.8571 11.5957Z" fill="black"/>
<path d="M80.4821 8.16871C80.5273 8.2904 80.5686 8.41449 80.601 8.53929C80.7862 9.25698 80.7479 9.96173 80.5079 10.6485C83.7028 13.2182 85.5861 16.3874 85.5861 19.8213C85.5861 28.3924 73.8181 35.3422 59.3028 35.3422C44.7864 35.3422 33.0194 28.3924 33.0194 19.8213C33.0194 16.3903 34.9047 13.2184 38.0956 10.6485C37.8576 9.96173 37.8193 9.25698 38.0045 8.53929C38.0428 8.40311 38.0939 8.27064 38.157 8.14355C33.7975 11.1729 31.1543 15.1429 31.1543 19.491C31.1543 28.9848 43.7559 36.6804 59.3025 36.6804C74.8472 36.6804 87.4507 28.9848 87.4507 19.491C87.4512 15.1521 84.8186 11.1911 80.4821 8.16871Z" fill="url(#paint0_linear_655_5805)"/>
<path d="M63.2124 14.4528C61.9719 14.5436 60.6643 14.5931 59.3009 14.5931C57.9385 14.5931 56.6319 14.5436 55.3913 14.4528H55.3874L54.5767 15.0272C56.0724 15.1544 57.6519 15.2265 59.3016 15.2265C60.9516 15.2265 62.5309 15.1544 64.0276 15.0272L63.2124 14.4528ZM77.5905 8.43025C76.6024 5.24496 68.4571 2.90576 59.3019 2.90576C50.1481 2.90576 42.0031 5.24544 41.015 8.43025C40.1574 11.1935 44.8391 13.7509 52.2255 14.7651L51.5837 14.0031C45.6086 13.0114 42.0571 10.8967 42.8765 8.64824C43.8694 5.91834 51.0819 3.94157 59.3012 3.94157C67.5201 3.94157 74.7343 5.91881 75.7263 8.64824C76.5447 10.8969 72.9949 13.0116 67.0184 14.0031L66.3788 14.7651C73.7625 13.7509 78.4474 11.1935 77.5905 8.43025Z" fill="url(#paint1_linear_655_5805)"/>
<path d="M55.404 14.4537C56.09 10.7359 57.5781 8.4125 59.304 8.4125C61.0319 8.4125 62.5188 10.7359 63.2057 14.4537H63.2195L64.0219 15.0217C63.3445 10.1119 61.4892 6.97424 59.3052 6.97424C57.1198 6.97424 55.2653 10.1119 54.5889 15.0217L55.391 14.4537H55.404Z" fill="url(#paint2_linear_655_5805)"/>
<path d="M64.265 17.8036L63.6087 18.9611C63.6087 19.0454 63.6126 19.1321 63.6126 19.22C63.6126 25.3827 61.6804 30.0553 59.3042 30.0553C56.9257 30.0553 54.9975 25.3822 54.9975 19.22C54.9975 19.1228 54.9994 19.0262 55.0014 18.9331L54.3442 17.8036C54.3248 18.2733 54.3153 18.7434 54.3154 19.2136C54.3154 26.2005 56.549 31.4931 59.3052 31.4931C62.0614 31.4931 64.2969 26.2005 64.2969 19.2136C64.2959 18.7434 64.2852 18.2733 64.265 17.8036Z" fill="url(#paint3_linear_655_5805)"/>
<path d="M52.2355 14.7686C53.1796 7.94433 55.9859 2.90588 59.3016 2.90588C55.747 2.90588 52.7172 7.36965 51.5928 14.0171L52.2259 14.7686H52.2355Z" fill="url(#paint4_linear_655_5805)"/>
<path d="M66.3698 14.7685H66.3765L67.0096 14.017C65.8872 7.36953 62.8554 2.90576 59.3027 2.90576C62.6184 2.90624 65.4267 7.9442 66.3698 14.7685Z" fill="url(#paint5_linear_655_5805)"/>
<path d="M67.4507 18.4586L66.6449 17.52H66.6383C66.6835 18.2657 66.7092 19.0237 66.7092 19.7936C66.7092 29.1202 63.3926 36.6806 59.3027 36.6806C63.8885 36.6806 67.4768 29.6685 67.4768 19.7936C67.4768 19.3418 67.4672 18.8986 67.4507 18.4586Z" fill="url(#paint6_linear_655_5805)"/>
<path d="M51.9008 19.7936C51.9008 19.0237 51.9266 18.2657 51.9708 17.52H51.9654L51.1576 18.4557C51.1405 18.9015 51.1316 19.3475 51.1309 19.7936C51.1309 29.6685 54.7219 36.6806 59.3059 36.6806C55.2175 36.6806 51.9008 29.12 51.9008 19.7936Z" fill="url(#paint7_linear_655_5805)"/>
<path d="M80.5067 10.6485C81.7281 11.6312 82.7584 12.7034 83.5643 13.8422C83.2853 12.031 82.5465 10.3166 81.4152 8.85478C81.1099 8.61817 80.7982 8.38956 80.4804 8.16919C80.5259 8.29088 80.5671 8.41496 80.5991 8.53977C80.785 9.25722 80.7467 9.96173 80.5067 10.6485ZM38.0947 10.6485C37.8567 9.96173 37.8183 9.25698 38.0035 8.53929C38.0419 8.40311 38.0929 8.27064 38.1561 8.14355C37.8284 8.37413 37.5057 8.61125 37.1881 8.85478C36.0585 10.3175 35.3199 12.0315 35.0391 13.8422C35.8449 12.7034 36.8733 11.6309 38.0947 10.6485Z" fill="#2D2F34"/>
<path d="M27.7822 19.5376C27.7822 9.0132 41.8948 0.479492 59.3058 0.479492C76.7144 0.479492 90.8272 9.0132 90.8272 19.5376C90.8272 30.0641 76.7144 38.5947 59.3058 38.5947C41.8948 38.5944 27.7822 30.0643 27.7822 19.5376ZM59.3056 36.68C74.8505 36.68 87.4538 28.9844 87.4538 19.4906C87.4538 9.99583 74.8505 2.29767 59.3056 2.29767C43.7587 2.29767 31.1564 9.99631 31.1564 19.4906C31.1564 28.9844 43.7589 36.68 59.3056 36.68Z" fill="url(#paint8_linear_655_5805)"/>
<path d="M51.8975 19.7928C51.8975 10.5642 55.2141 2.90576 59.302 2.90576C63.3918 2.90576 66.7088 10.5642 66.7088 19.7928C66.7088 29.1194 63.3918 36.6798 59.302 36.6798C55.2122 36.6798 51.8975 29.1192 51.8975 19.7928ZM59.302 31.4922C62.0584 31.4922 64.294 26.1995 64.294 19.2155C64.294 11.9674 62.0582 6.97355 59.302 6.97355C56.5458 6.97355 54.3123 11.9674 54.3123 19.2155C54.3123 26.1995 56.5458 31.4922 59.302 31.4922Z" fill="url(#paint9_linear_655_5805)"/>
<path d="M38.0073 8.539C38.8198 5.40162 48.6455 0.835327 59.3053 0.835327C69.9641 0.835327 79.4524 4.09799 80.6036 8.539C81.892 13.5168 72.4227 18.0218 59.3053 18.0218C46.1858 18.0218 36.7169 13.5171 38.0073 8.539ZM59.3053 2.90599C50.1516 2.90599 42.0065 5.24567 41.0184 8.43048C39.9112 11.9986 48.0411 15.2267 59.3053 15.2267C70.5718 15.2267 78.7001 11.9981 77.5939 8.43048C76.6058 5.24519 68.461 2.90599 59.3053 2.90599Z" fill="url(#paint10_linear_655_5805)"/>
<path d="M54.3333 17.7933L54.339 17.7972L55.0154 18.9602C56.392 19.0749 57.8237 19.1406 59.3039 19.1406C60.7911 19.1406 62.2262 19.0752 63.6119 18.9573L64.2701 17.7967L64.274 17.7928C62.6911 17.9397 61.0313 18.0211 59.3044 18.0211C57.6446 18.0221 55.9857 17.946 54.3333 17.7933ZM80.7134 9.61511C80.5445 13.1743 74.9351 16.3278 66.6434 17.5162L66.6463 17.519L67.4551 18.4617C75.5682 17.0392 80.9055 13.5452 80.7134 9.61511ZM37.8947 9.61511C37.7028 13.549 43.0396 17.039 51.1513 18.4617L51.962 17.519L51.964 17.5162C43.6708 16.328 38.0654 13.1746 37.8947 9.61511Z" fill="url(#paint11_linear_655_5805)"/>
<defs>
<linearGradient id="paint0_linear_655_5805" x1="59.3025" y1="34.557" x2="59.3025" y2="12.8406" gradientUnits="userSpaceOnUse">
<stop stop-color="#F0F3F5"/>
<stop offset="0.056" stop-color="#E2E5E8"/>
<stop offset="0.138" stop-color="#D4D8DD"/>
<stop offset="0.242" stop-color="#CCD0D6"/>
<stop offset="0.44" stop-color="#CACED4"/>
<stop offset="0.568" stop-color="#B3B7BD"/>
<stop offset="0.835" stop-color="#797C83"/>
<stop offset="1" stop-color="#52545C"/>
</linearGradient>
<linearGradient id="paint1_linear_655_5805" x1="59.3026" y1="18.0101" x2="59.3026" y2="6.24245" gradientUnits="userSpaceOnUse">
<stop stop-color="#F0F3F5"/>
<stop offset="0.056" stop-color="#E2E5E8"/>
<stop offset="0.138" stop-color="#D4D8DD"/>
<stop offset="0.242" stop-color="#CCD0D6"/>
<stop offset="0.44" stop-color="#CACED4"/>
<stop offset="0.568" stop-color="#B3B7BD"/>
<stop offset="0.835" stop-color="#797C83"/>
<stop offset="1" stop-color="#52545C"/>
</linearGradient>
<linearGradient id="paint2_linear_655_5805" x1="63.3106" y1="15.8481" x2="55.9332" y2="9.50115" gradientUnits="userSpaceOnUse">
<stop stop-color="#F0F3F5"/>
<stop offset="0.056" stop-color="#E2E5E8"/>
<stop offset="0.138" stop-color="#D4D8DD"/>
<stop offset="0.242" stop-color="#CCD0D6"/>
<stop offset="0.44" stop-color="#CACED4"/>
<stop offset="0.568" stop-color="#B3B7BD"/>
<stop offset="0.835" stop-color="#797C83"/>
<stop offset="1" stop-color="#52545C"/>
</linearGradient>
<linearGradient id="paint3_linear_655_5805" x1="64.0768" y1="26.1049" x2="53.2304" y2="19.6845" gradientUnits="userSpaceOnUse">
<stop stop-color="#F0F3F5"/>
<stop offset="0.056" stop-color="#E2E5E8"/>
<stop offset="0.138" stop-color="#D4D8DD"/>
<stop offset="0.242" stop-color="#CCD0D6"/>
<stop offset="0.44" stop-color="#CACED4"/>
<stop offset="0.568" stop-color="#B3B7BD"/>
<stop offset="0.835" stop-color="#797C83"/>
<stop offset="1" stop-color="#52545C"/>
</linearGradient>
<linearGradient id="paint4_linear_655_5805" x1="55.4473" y1="0.47829" x2="55.4473" y2="19.143" gradientUnits="userSpaceOnUse">
<stop stop-color="#F0F3F5"/>
<stop offset="0.056" stop-color="#E2E5E8"/>
<stop offset="0.138" stop-color="#D4D8DD"/>
<stop offset="0.242" stop-color="#CCD0D6"/>
<stop offset="0.44" stop-color="#CACED4"/>
<stop offset="0.568" stop-color="#B3B7BD"/>
<stop offset="0.835" stop-color="#797C83"/>
<stop offset="1" stop-color="#52545C"/>
</linearGradient>
<linearGradient id="paint5_linear_655_5805" x1="63.1563" y1="0.478168" x2="63.1563" y2="19.1429" gradientUnits="userSpaceOnUse">
<stop stop-color="#F0F3F5"/>
<stop offset="0.056" stop-color="#E2E5E8"/>
<stop offset="0.138" stop-color="#D4D8DD"/>
<stop offset="0.242" stop-color="#CCD0D6"/>
<stop offset="0.44" stop-color="#CACED4"/>
<stop offset="0.568" stop-color="#B3B7BD"/>
<stop offset="0.835" stop-color="#797C83"/>
<stop offset="1" stop-color="#52545C"/>
</linearGradient>
<linearGradient id="paint6_linear_655_5805" x1="63.3896" y1="0.321809" x2="63.3896" y2="31.4714" gradientUnits="userSpaceOnUse">
<stop stop-color="#F0F3F5"/>
<stop offset="0.056" stop-color="#E2E5E8"/>
<stop offset="0.138" stop-color="#D4D8DD"/>
<stop offset="0.242" stop-color="#CCD0D6"/>
<stop offset="0.44" stop-color="#CACED4"/>
<stop offset="0.568" stop-color="#B3B7BD"/>
<stop offset="0.835" stop-color="#797C83"/>
<stop offset="1" stop-color="#52545C"/>
</linearGradient>
<linearGradient id="paint7_linear_655_5805" x1="55.2182" y1="0.321569" x2="55.2182" y2="31.4711" gradientUnits="userSpaceOnUse">
<stop stop-color="#F0F3F5"/>
<stop offset="0.056" stop-color="#E2E5E8"/>
<stop offset="0.138" stop-color="#D4D8DD"/>
<stop offset="0.242" stop-color="#CCD0D6"/>
<stop offset="0.44" stop-color="#CACED4"/>
<stop offset="0.568" stop-color="#B3B7BD"/>
<stop offset="0.835" stop-color="#797C83"/>
<stop offset="1" stop-color="#52545C"/>
</linearGradient>
<linearGradient id="paint8_linear_655_5805" x1="59.3046" y1="0.479492" x2="59.3046" y2="38.5947" gradientUnits="userSpaceOnUse">
<stop stop-color="#F0F3F5"/>
<stop offset="0.253" stop-color="#EDF0F3"/>
<stop offset="0.406" stop-color="#E5E8EA"/>
<stop offset="0.531" stop-color="#D7DADC"/>
<stop offset="0.642" stop-color="#C3C5C9"/>
<stop offset="0.744" stop-color="#A9ABAF"/>
<stop offset="0.839" stop-color="#888B90"/>
<stop offset="0.926" stop-color="#63656B"/>
<stop offset="1" stop-color="#3D3F46"/>
</linearGradient>
<linearGradient id="paint9_linear_655_5805" x1="59.303" y1="0.477449" x2="59.303" y2="38.595" gradientUnits="userSpaceOnUse">
<stop stop-color="#F0F3F5"/>
<stop offset="0.253" stop-color="#EDF0F3"/>
<stop offset="0.406" stop-color="#E5E8EA"/>
<stop offset="0.531" stop-color="#D7DADC"/>
<stop offset="0.642" stop-color="#C3C5C9"/>
<stop offset="0.744" stop-color="#A9ABAF"/>
<stop offset="0.839" stop-color="#888B90"/>
<stop offset="0.926" stop-color="#63656B"/>
<stop offset="1" stop-color="#3D3F46"/>
</linearGradient>
<linearGradient id="paint10_linear_655_5805" x1="59.3053" y1="0.481752" x2="59.3053" y2="38.5984" gradientUnits="userSpaceOnUse">
<stop stop-color="#F0F3F5"/>
<stop offset="0.253" stop-color="#EDF0F3"/>
<stop offset="0.406" stop-color="#E5E8EA"/>
<stop offset="0.531" stop-color="#D7DADC"/>
<stop offset="0.642" stop-color="#C3C5C9"/>
<stop offset="0.744" stop-color="#A9ABAF"/>
<stop offset="0.839" stop-color="#888B90"/>
<stop offset="0.926" stop-color="#63656B"/>
<stop offset="1" stop-color="#3D3F46"/>
</linearGradient>
<linearGradient id="paint11_linear_655_5805" x1="59.3042" y1="8.38455" x2="59.3042" y2="19.2476" gradientUnits="userSpaceOnUse">
<stop stop-color="#CACED4"/>
<stop offset="1" stop-color="#52545C"/>
</linearGradient>
</defs>
</svg>
