<svg width="121" height="56" viewBox="0 0 121 56" fill="none" xmlns="http://www.w3.org/2000/svg">
<path d="M60.5051 49.9553C60.4946 46.6147 63.2549 43.9198 66.7028 43.9141C70.0661 43.9193 72.8287 46.6143 72.8965 49.9553C72.8294 53.2584 70.0668 55.9533 66.7028 56C63.2549 55.9533 60.4948 53.2584 60.5051 49.9553ZM66.703 53.7732C68.5642 53.7452 70.1052 52.0393 70.1243 49.9553C70.1052 47.8312 68.5642 46.1253 66.703 46.1373C64.7612 46.1249 63.2166 47.8307 63.278 49.9553C63.2166 52.0391 64.7612 53.7449 66.703 53.7732ZM79.9068 46.4557V55.6819H77.2999V46.4557H73.5488V44.3915H83.4949V46.4557H79.9068ZM86.5908 53.1341L85.6147 55.6822H82.5191L87.4091 44.3915H90.6683L95.3982 55.6822H92.3023L91.3241 53.1341H86.5908ZM89.0402 51.228H90.6683L89.0402 47.0917L87.4091 51.228H89.0402ZM31.9723 46.4557V55.6819H29.3637V46.4557H25.7773V44.3915H35.5603V46.4557H31.9723ZM36.2127 49.9553C36.2178 46.6147 38.9767 43.9198 42.4054 43.9141C45.7899 43.9193 48.5529 46.6143 48.6028 49.9553C48.5529 53.2584 45.7899 55.9533 42.4054 56C38.9767 55.9533 36.2176 53.2584 36.2127 49.9553ZM42.4054 53.7732C44.2887 53.7452 45.8284 52.0393 45.8301 49.9553C45.8282 47.8312 44.2887 46.1253 42.4054 46.1373C40.4828 46.1249 38.9404 47.8307 38.9853 49.9553C38.9404 52.0391 40.4828 53.7449 42.4054 53.7732ZM54.4725 55.6819H55.7755V51.3868L60.342 44.3915H57.4083L54.4725 49.16L51.6999 44.3915H48.603L53.1696 51.3868V55.6819H54.4725Z" fill="#37383C"/>
<path d="M27.875 19.5379C27.875 30.3109 42.2371 39.076 59.8898 39.076C77.5423 39.076 91.9046 30.3109 91.9046 19.5379C91.9044 8.76391 77.5423 0 59.8896 0C42.2368 0 27.875 8.76391 27.875 19.5379ZM28.8574 19.5379C28.8574 9.29428 42.7782 0.959875 59.8898 0.959875C77.001 0.959875 90.9222 9.29428 90.9222 19.5379C90.9222 29.7837 77.001 38.1178 59.8898 38.1178C42.7782 38.1176 28.8574 29.7839 28.8574 19.5379Z" fill="black"/>
<path d="M56.8647 3.55118C49.3717 3.99746 43.9293 5.93446 43.0016 8.48638C42.9072 8.74352 42.8585 9.01452 42.8577 9.28767C42.8577 9.71814 42.9825 10.1486 43.2301 10.5602C44.27 12.2883 47.498 13.7133 52.0915 14.4777L52.5778 14.5554L52.6594 14.0815C53.4134 9.59549 55.0685 6.06789 57.2021 4.4023L58.411 3.45752L56.8647 3.55118ZM44.0781 10.077C43.918 9.81133 43.8392 9.54926 43.8392 9.29103C43.8392 9.12813 43.8679 8.96907 43.9273 8.80714C44.6354 6.85768 49.4456 5.15497 55.5905 4.60568C53.8376 6.53956 52.4897 9.65586 51.7865 13.4419C47.7934 12.7214 44.9223 11.4805 44.0781 10.077ZM55.4947 14.3683L55.3986 14.8895L55.9407 14.9298C57.2262 15.0234 58.5552 15.074 59.8886 15.074C61.2232 15.074 62.5529 15.0234 63.8387 14.9298L64.3797 14.8895L64.2835 14.3683C63.5444 10.3204 61.9003 7.90236 59.8893 7.90236C57.8768 7.90236 56.2335 10.3204 55.4947 14.3683ZM59.8896 8.86056C61.2645 8.86056 62.5338 10.8687 63.2025 14.0034C62.1152 14.0727 61.0078 14.1158 59.8886 14.1158C58.7708 14.1158 57.6629 14.0727 56.5768 14.0034C57.2436 10.8687 58.5149 8.86056 59.8896 8.86056ZM62.576 4.40278C64.7088 6.06837 66.3657 9.59645 67.1197 14.082L67.2003 14.5558L67.6858 14.4782C72.2814 13.7138 75.5111 12.2883 76.5473 10.5604C76.9504 9.89637 77.027 9.17916 76.7777 8.4871C75.8503 5.93542 70.4076 3.99842 62.9152 3.55166L61.3708 3.458L62.576 4.40278ZM64.1906 4.60568C70.3337 5.15497 75.1437 6.8608 75.8498 8.80714C75.9112 8.96907 75.9399 9.12813 75.9399 9.29103C75.9399 9.54926 75.8594 9.81133 75.7029 10.077C74.8558 11.4803 71.9837 12.7214 67.9926 13.4419C67.2894 9.6561 65.9435 6.5398 64.1906 4.60568ZM38.2605 10.3671C34.8929 13.1183 33.1133 16.3867 33.1133 19.8207C33.1133 27.8987 43.2126 34.7269 56.6038 35.6999L58.0996 35.8094L56.9607 34.8605C54.0269 32.4126 52.205 26.6045 52.205 19.7018L52.2357 18.071L51.8251 17.9895C44.7813 16.7583 39.7702 13.8695 39.0567 10.6347L38.886 9.85804L38.2605 10.3671ZM34.0967 19.8207C34.0967 16.8761 35.5693 14.0502 38.3344 11.5957C39.6226 14.8644 44.436 17.5873 51.2398 18.8543C51.2312 19.2285 51.2236 19.7018 51.2236 19.7018C51.2236 26.1021 52.7807 31.6295 55.349 34.6116C43.1473 33.3418 34.0967 27.1257 34.0967 19.8207ZM55.0946 18.9573L55.0916 19.1312C55.0916 25.5473 57.1542 30.3879 59.8896 30.3879C62.6239 30.3879 64.6867 25.5473 64.6867 19.1312L64.6801 18.4389L64.1525 18.483C62.7614 18.6018 61.3291 18.6608 59.89 18.6608C58.451 18.6608 57.0167 18.6018 55.6293 18.483L55.0997 18.4363L55.0946 18.9573ZM63.6984 19.4716C63.6245 25.4414 61.6962 29.4304 59.8896 29.4304C58.0812 29.4304 56.1526 25.4414 56.0807 19.4716C57.3298 19.5615 58.6058 19.6175 59.8896 19.6175C61.1753 19.6175 62.4475 19.5615 63.6984 19.4716ZM80.7207 10.6347C80.0079 13.8695 74.9958 16.758 67.9543 17.9895L67.5417 18.0643L67.5743 19.7016C67.5743 26.6042 65.7514 32.4126 62.8187 34.8603L61.6798 35.8091L63.1736 35.6997C76.566 34.7266 86.6656 27.8985 86.6656 19.8204C86.6656 16.3865 84.8839 13.1181 81.5164 10.3668L80.8928 9.8578L80.7207 10.6347ZM81.443 11.5957C84.21 14.0502 85.6836 16.8761 85.6836 19.8207C85.6836 27.1257 76.6335 33.3418 64.4306 34.6116C66.9989 31.6295 68.556 26.1021 68.556 19.7018C68.556 19.7018 68.5464 19.2283 68.5398 18.8543C75.3414 17.5873 80.1545 14.8641 81.443 11.5957Z" fill="black"/>
<path d="M81.07 8.16871C81.1152 8.2904 81.1565 8.41449 81.1889 8.53929C81.3741 9.25698 81.3358 9.96173 81.0958 10.6485C84.2907 13.2182 86.174 16.3874 86.174 19.8213C86.174 28.3924 74.406 35.3422 59.8907 35.3422C45.3743 35.3422 33.6073 28.3924 33.6073 19.8213C33.6073 16.3903 35.4926 13.2184 38.6835 10.6485C38.4455 9.96173 38.4072 9.25698 38.5924 8.53929C38.6307 8.40311 38.6818 8.27064 38.7449 8.14355C34.3854 11.1729 31.7422 15.1429 31.7422 19.491C31.7422 28.9848 44.3438 36.6804 59.8904 36.6804C75.4351 36.6804 88.0386 28.9848 88.0386 19.491C88.0391 15.1521 85.4065 11.1911 81.07 8.16871Z" fill="url(#paint0_linear_583_5785)"/>
<path d="M63.7984 14.4528C62.5578 14.5436 61.2502 14.5931 59.8868 14.5931C58.5245 14.5931 57.2178 14.5436 55.9773 14.4528H55.9733L55.1626 15.0272C56.6583 15.1544 58.2378 15.2265 59.8876 15.2265C61.5376 15.2265 63.1168 15.1544 64.6135 15.0272L63.7984 14.4528ZM78.1764 8.43025C77.1883 5.24496 69.0431 2.90576 59.8878 2.90576C50.7341 2.90576 42.589 5.24544 41.6009 8.43025C40.7433 11.1935 45.425 13.7509 52.8114 14.7651L52.1696 14.0031C46.1945 13.0114 42.6431 10.8967 43.4624 8.64824C44.4554 5.91834 51.6679 3.94157 59.8871 3.94157C68.1061 3.94157 75.3203 5.91881 76.3123 8.64824C77.1306 10.8969 73.5809 13.0116 67.6043 14.0031L66.9647 14.7651C74.3484 13.7509 79.0333 11.1935 78.1764 8.43025Z" fill="url(#paint1_linear_583_5785)"/>
<path d="M55.9909 14.4538C56.6769 10.736 58.1651 8.41262 59.8909 8.41262C61.6188 8.41262 63.1057 10.736 63.7926 14.4538H63.8064L64.6088 15.0218C63.9314 10.112 62.0761 6.97437 59.8922 6.97437C57.7068 6.97437 55.8522 10.112 55.1758 15.0218L55.9779 14.4538H55.9909Z" fill="url(#paint2_linear_583_5785)"/>
<path d="M64.8519 17.8035L64.1956 18.961C64.1956 19.0453 64.1995 19.132 64.1995 19.2199C64.1995 25.3826 62.2673 30.0552 59.8911 30.0552C57.5127 30.0552 55.5844 25.3821 55.5844 19.2199C55.5844 19.1227 55.5864 19.0261 55.5883 18.9329L54.9311 17.8035C54.9117 18.2732 54.9022 18.7433 54.9023 19.2135C54.9023 26.2004 57.1359 31.493 59.8921 31.493C62.6483 31.493 64.8838 26.2004 64.8838 19.2135C64.8828 18.7433 64.8722 18.2732 64.8519 17.8035Z" fill="url(#paint3_linear_583_5785)"/>
<path d="M52.8224 14.7687C53.7666 7.94445 56.5729 2.90601 59.8885 2.90601C56.3339 2.90601 53.3041 7.36977 52.1797 14.0173L52.8129 14.7687H52.8224Z" fill="url(#paint4_linear_583_5785)"/>
<path d="M66.9577 14.7685H66.9643L67.5975 14.017C66.4751 7.36953 63.4433 2.90576 59.8906 2.90576C63.2063 2.90624 66.0146 7.9442 66.9577 14.7685Z" fill="url(#paint5_linear_583_5785)"/>
<path d="M68.0386 18.4586L67.2328 17.52H67.2262C67.2713 18.2657 67.2971 19.0237 67.2971 19.7936C67.2971 29.1202 63.9805 36.6806 59.8906 36.6806C64.4763 36.6806 68.0647 29.6685 68.0647 19.7936C68.0647 19.3418 68.0551 18.8986 68.0386 18.4586Z" fill="url(#paint6_linear_583_5785)"/>
<path d="M52.4887 19.7936C52.4887 19.0237 52.5145 18.2657 52.5587 17.52H52.5533L51.7455 18.4557C51.7284 18.9015 51.7195 19.3475 51.7188 19.7936C51.7188 29.6685 55.3098 36.6806 59.8938 36.6806C55.8054 36.6806 52.4887 29.12 52.4887 19.7936Z" fill="url(#paint7_linear_583_5785)"/>
<path d="M81.0927 10.6485C82.3141 11.6312 83.3444 12.7034 84.1502 13.8422C83.8712 12.031 83.1325 10.3166 82.0012 8.85478C81.6959 8.61817 81.3842 8.38956 81.0664 8.16919C81.1118 8.29088 81.1531 8.41496 81.185 8.53977C81.3709 9.25722 81.3326 9.96173 81.0927 10.6485ZM38.6806 10.6485C38.4426 9.96173 38.4043 9.25698 38.5895 8.53929C38.6278 8.40311 38.6788 8.27064 38.742 8.14355C38.4144 8.37413 38.0917 8.61125 37.7741 8.85478C36.6444 10.3175 35.9058 12.0315 35.625 13.8422C36.4308 12.7034 37.4592 11.6309 38.6806 10.6485Z" fill="#2D2F34"/>
<path d="M28.3672 19.5376C28.3672 9.0132 42.4797 0.479492 59.8908 0.479492C77.2994 0.479492 91.4122 9.0132 91.4122 19.5376C91.4122 30.0641 77.2994 38.5947 59.8908 38.5947C42.4797 38.5944 28.3672 30.0643 28.3672 19.5376ZM59.8905 36.68C75.4355 36.68 88.0388 28.9844 88.0388 19.4906C88.0388 9.99583 75.4355 2.29767 59.8905 2.29767C44.3436 2.29767 31.7413 9.99631 31.7413 19.4906C31.7413 28.9844 44.3439 36.68 59.8905 36.68Z" fill="url(#paint8_linear_583_5785)"/>
<path d="M52.4844 19.7928C52.4844 10.5642 55.801 2.90576 59.8889 2.90576C63.9788 2.90576 67.2957 10.5642 67.2957 19.7928C67.2957 29.1194 63.9788 36.6798 59.8889 36.6798C55.7991 36.6798 52.4844 29.1192 52.4844 19.7928ZM59.8889 31.4922C62.6454 31.4922 64.8809 26.1996 64.8809 19.2155C64.8809 11.9674 62.6451 6.97355 59.8889 6.97355C57.1327 6.97355 54.8992 11.9674 54.8992 19.2155C54.8992 26.1996 57.1327 31.4922 59.8889 31.4922Z" fill="url(#paint9_linear_583_5785)"/>
<path d="M38.5942 8.53912C39.4067 5.40174 49.2324 0.835449 59.8922 0.835449C70.5511 0.835449 80.0393 4.09811 81.1905 8.53912C82.4789 13.517 73.0096 18.0219 59.8922 18.0219C46.7727 18.0219 37.3038 13.5172 38.5942 8.53912ZM59.8922 2.90611C50.7385 2.90611 42.5934 5.24579 41.6054 8.4306C40.4982 11.9987 48.628 15.2269 59.8922 15.2269C71.1587 15.2269 79.287 11.9982 78.1808 8.4306C77.1928 5.24531 69.048 2.90611 59.8922 2.90611Z" fill="url(#paint10_linear_583_5785)"/>
<path d="M54.9203 17.7932L54.9259 17.797L55.6023 18.9601C56.9789 19.0748 58.4106 19.1404 59.8908 19.1404C61.378 19.1404 62.8131 19.075 64.1988 18.9572L64.857 17.7966L64.8609 17.7927C63.278 17.9396 61.6182 18.021 59.8913 18.021C58.2315 18.0219 56.5726 17.9459 54.9203 17.7932ZM81.3004 9.61499C81.1314 13.1742 75.522 16.3276 67.2303 17.516L67.2332 17.5189L68.042 18.4615C76.1552 17.0391 81.4924 13.545 81.3004 9.61499ZM38.4816 9.61499C38.2897 13.5489 43.6265 17.0389 51.7382 18.4615L52.5489 17.5189L52.5509 17.516C44.2577 16.3279 38.6523 13.1745 38.4816 9.61499Z" fill="url(#paint11_linear_583_5785)"/>
<defs>
<linearGradient id="paint0_linear_583_5785" x1="59.8904" y1="34.557" x2="59.8904" y2="12.8406" gradientUnits="userSpaceOnUse">
<stop stop-color="#F0F3F5"/>
<stop offset="0.056" stop-color="#E2E5E8"/>
<stop offset="0.138" stop-color="#D4D8DD"/>
<stop offset="0.242" stop-color="#CCD0D6"/>
<stop offset="0.44" stop-color="#CACED4"/>
<stop offset="0.568" stop-color="#B3B7BD"/>
<stop offset="0.835" stop-color="#797C83"/>
<stop offset="1" stop-color="#52545C"/>
</linearGradient>
<linearGradient id="paint1_linear_583_5785" x1="59.8886" y1="18.0101" x2="59.8886" y2="6.24245" gradientUnits="userSpaceOnUse">
<stop stop-color="#F0F3F5"/>
<stop offset="0.056" stop-color="#E2E5E8"/>
<stop offset="0.138" stop-color="#D4D8DD"/>
<stop offset="0.242" stop-color="#CCD0D6"/>
<stop offset="0.44" stop-color="#CACED4"/>
<stop offset="0.568" stop-color="#B3B7BD"/>
<stop offset="0.835" stop-color="#797C83"/>
<stop offset="1" stop-color="#52545C"/>
</linearGradient>
<linearGradient id="paint2_linear_583_5785" x1="63.8975" y1="15.8482" x2="56.5201" y2="9.50127" gradientUnits="userSpaceOnUse">
<stop stop-color="#F0F3F5"/>
<stop offset="0.056" stop-color="#E2E5E8"/>
<stop offset="0.138" stop-color="#D4D8DD"/>
<stop offset="0.242" stop-color="#CCD0D6"/>
<stop offset="0.44" stop-color="#CACED4"/>
<stop offset="0.568" stop-color="#B3B7BD"/>
<stop offset="0.835" stop-color="#797C83"/>
<stop offset="1" stop-color="#52545C"/>
</linearGradient>
<linearGradient id="paint3_linear_583_5785" x1="64.6637" y1="26.1048" x2="53.8173" y2="19.6843" gradientUnits="userSpaceOnUse">
<stop stop-color="#F0F3F5"/>
<stop offset="0.056" stop-color="#E2E5E8"/>
<stop offset="0.138" stop-color="#D4D8DD"/>
<stop offset="0.242" stop-color="#CCD0D6"/>
<stop offset="0.44" stop-color="#CACED4"/>
<stop offset="0.568" stop-color="#B3B7BD"/>
<stop offset="0.835" stop-color="#797C83"/>
<stop offset="1" stop-color="#52545C"/>
</linearGradient>
<linearGradient id="paint4_linear_583_5785" x1="56.0342" y1="0.478412" x2="56.0342" y2="19.1431" gradientUnits="userSpaceOnUse">
<stop stop-color="#F0F3F5"/>
<stop offset="0.056" stop-color="#E2E5E8"/>
<stop offset="0.138" stop-color="#D4D8DD"/>
<stop offset="0.242" stop-color="#CCD0D6"/>
<stop offset="0.44" stop-color="#CACED4"/>
<stop offset="0.568" stop-color="#B3B7BD"/>
<stop offset="0.835" stop-color="#797C83"/>
<stop offset="1" stop-color="#52545C"/>
</linearGradient>
<linearGradient id="paint5_linear_583_5785" x1="63.7442" y1="0.478168" x2="63.7442" y2="19.1429" gradientUnits="userSpaceOnUse">
<stop stop-color="#F0F3F5"/>
<stop offset="0.056" stop-color="#E2E5E8"/>
<stop offset="0.138" stop-color="#D4D8DD"/>
<stop offset="0.242" stop-color="#CCD0D6"/>
<stop offset="0.44" stop-color="#CACED4"/>
<stop offset="0.568" stop-color="#B3B7BD"/>
<stop offset="0.835" stop-color="#797C83"/>
<stop offset="1" stop-color="#52545C"/>
</linearGradient>
<linearGradient id="paint6_linear_583_5785" x1="63.9775" y1="0.321809" x2="63.9775" y2="31.4714" gradientUnits="userSpaceOnUse">
<stop stop-color="#F0F3F5"/>
<stop offset="0.056" stop-color="#E2E5E8"/>
<stop offset="0.138" stop-color="#D4D8DD"/>
<stop offset="0.242" stop-color="#CCD0D6"/>
<stop offset="0.44" stop-color="#CACED4"/>
<stop offset="0.568" stop-color="#B3B7BD"/>
<stop offset="0.835" stop-color="#797C83"/>
<stop offset="1" stop-color="#52545C"/>
</linearGradient>
<linearGradient id="paint7_linear_583_5785" x1="55.8061" y1="0.321569" x2="55.8061" y2="31.4711" gradientUnits="userSpaceOnUse">
<stop stop-color="#F0F3F5"/>
<stop offset="0.056" stop-color="#E2E5E8"/>
<stop offset="0.138" stop-color="#D4D8DD"/>
<stop offset="0.242" stop-color="#CCD0D6"/>
<stop offset="0.44" stop-color="#CACED4"/>
<stop offset="0.568" stop-color="#B3B7BD"/>
<stop offset="0.835" stop-color="#797C83"/>
<stop offset="1" stop-color="#52545C"/>
</linearGradient>
<linearGradient id="paint8_linear_583_5785" x1="59.8896" y1="0.479492" x2="59.8896" y2="38.5947" gradientUnits="userSpaceOnUse">
<stop stop-color="#F0F3F5"/>
<stop offset="0.253" stop-color="#EDF0F3"/>
<stop offset="0.406" stop-color="#E5E8EA"/>
<stop offset="0.531" stop-color="#D7DADC"/>
<stop offset="0.642" stop-color="#C3C5C9"/>
<stop offset="0.744" stop-color="#A9ABAF"/>
<stop offset="0.839" stop-color="#888B90"/>
<stop offset="0.926" stop-color="#63656B"/>
<stop offset="1" stop-color="#3D3F46"/>
</linearGradient>
<linearGradient id="paint9_linear_583_5785" x1="59.8899" y1="0.477449" x2="59.8899" y2="38.595" gradientUnits="userSpaceOnUse">
<stop stop-color="#F0F3F5"/>
<stop offset="0.253" stop-color="#EDF0F3"/>
<stop offset="0.406" stop-color="#E5E8EA"/>
<stop offset="0.531" stop-color="#D7DADC"/>
<stop offset="0.642" stop-color="#C3C5C9"/>
<stop offset="0.744" stop-color="#A9ABAF"/>
<stop offset="0.839" stop-color="#888B90"/>
<stop offset="0.926" stop-color="#63656B"/>
<stop offset="1" stop-color="#3D3F46"/>
</linearGradient>
<linearGradient id="paint10_linear_583_5785" x1="59.8922" y1="0.481874" x2="59.8922" y2="38.5985" gradientUnits="userSpaceOnUse">
<stop stop-color="#F0F3F5"/>
<stop offset="0.253" stop-color="#EDF0F3"/>
<stop offset="0.406" stop-color="#E5E8EA"/>
<stop offset="0.531" stop-color="#D7DADC"/>
<stop offset="0.642" stop-color="#C3C5C9"/>
<stop offset="0.744" stop-color="#A9ABAF"/>
<stop offset="0.839" stop-color="#888B90"/>
<stop offset="0.926" stop-color="#63656B"/>
<stop offset="1" stop-color="#3D3F46"/>
</linearGradient>
<linearGradient id="paint11_linear_583_5785" x1="59.8911" y1="8.38442" x2="59.8911" y2="19.2475" gradientUnits="userSpaceOnUse">
<stop stop-color="#CACED4"/>
<stop offset="1" stop-color="#52545C"/>
</linearGradient>
</defs>
</svg>
