<svg width="120" height="56" viewBox="0 0 120 56" fill="none" xmlns="http://www.w3.org/2000/svg">
<path d="M59.9247 2.73376C45.5915 2.73376 34.125 14.0778 34.125 27.9264C34.125 41.775 45.5915 53.2663 59.9247 53.2663C74.2578 53.2663 85.8752 41.9223 85.8752 27.9264C85.8752 13.9305 74.2578 2.73376 59.9247 2.73376ZM59.9247 47.226C49.0617 47.226 40.16 38.5338 40.16 27.9264C40.16 17.319 49.0617 8.62677 59.9247 8.62677C70.7877 8.62677 79.6893 17.319 79.6893 27.9264C79.6893 38.6811 70.7877 47.226 59.9247 47.226Z" fill="url(#paint0_radial_655_5576)" stroke="black" stroke-width="3.97388" stroke-miterlimit="10"/>
<path d="M60.0747 47.0791C70.9071 47.0791 79.6885 38.5043 79.6885 27.9268C79.6885 17.3493 70.9071 8.77454 60.0747 8.77454C49.2423 8.77454 40.4609 17.3493 40.4609 27.9268C40.4609 38.5043 49.2423 47.0791 60.0747 47.0791Z" fill="url(#paint1_radial_655_5576)"/>
<path d="M58.5696 27.4845H57.2118L50.875 13.636L51.4785 12.1627L58.5696 27.4845Z" fill="#BFBBB9"/>
<path d="M60.0791 7.44824C48.4617 7.44824 39.1074 16.5824 39.1074 27.9265C39.1074 39.2705 48.4617 48.4047 60.0791 48.4047C71.6965 48.4047 81.0508 39.2705 81.0508 27.9265C81.0508 16.7297 71.6965 7.44824 60.0791 7.44824ZM65.058 10.6894L60.0791 21.8861L54.9493 10.6894C56.609 10.2474 58.4195 9.95277 60.0791 9.95277C61.7387 10.1001 63.3983 10.2474 65.058 10.6894ZM51.4792 12.1627L58.5703 27.4845H61.2861L68.5281 12.0153C71.2439 13.3413 73.507 15.4038 75.3175 17.9083L65.9632 38.2392L61.2861 28.3684H58.4195L54.0441 38.0919L44.8407 17.9083C46.5003 15.5511 48.7634 13.4886 51.4792 12.1627ZM41.6723 28.0738C41.6723 25.8639 42.1249 23.8013 42.7284 22.0334L53.1388 44.7215C46.3494 42.0697 41.6723 35.5874 41.6723 28.0738ZM54.6476 45.1635L59.9282 33.8195L65.2088 45.1635C63.5492 45.6055 61.7387 45.9001 59.9282 45.9001C58.1177 46.0475 56.3072 45.7528 54.6476 45.1635ZM66.8685 44.7215L77.2789 21.7388C78.0332 23.654 78.4859 25.8639 78.4859 28.0738C78.4859 35.5874 73.6579 42.0697 66.8685 44.7215Z" fill="url(#paint2_linear_655_5576)"/>
<path d="M50.8758 13.636L51.3285 12.1627C48.7636 13.4886 46.5004 15.5512 44.8408 17.9084H46.1987C47.4057 16.1405 49.0653 14.8146 50.8758 13.636Z" fill="#544E4E"/>
<mask id="mask0_655_5576" style="mask-type:luminance" maskUnits="userSpaceOnUse" x="44" y="12" width="8" height="6">
<path d="M50.8788 13.6352L51.3314 12.162C48.7665 13.4879 46.5034 15.5505 44.8438 17.9077H46.2016C47.4086 16.1398 49.0683 14.8138 50.8788 13.6352V13.6352Z" fill="white"/>
</mask>
<g mask="url(#mask0_655_5576)">
<path d="M51.6331 12.4571C48.3139 14.3723 47.1069 15.2563 44.9946 18.2028L43.9385 18.0554V17.6135L46.0507 15.2563L48.3139 13.0464L50.2752 12.0151L51.4822 11.7205L51.9349 12.0151L51.6331 12.4571Z" fill="#352D2B"/>
</g>
<path d="M58.4193 28.3685H57.0615L54.0439 35.1455V38.2393L58.4193 28.3685Z" fill="url(#paint3_linear_655_5576)"/>
<path d="M54.0427 35.1454L46.0464 17.9083H44.6885L53.8919 38.2392L54.0427 35.1454Z" fill="white"/>
<mask id="mask1_655_5576" style="mask-type:luminance" maskUnits="userSpaceOnUse" x="44" y="17" width="11" height="22">
<path d="M54.0427 35.1454L46.0464 17.9083H44.6885L53.8919 38.2392L54.0427 35.1454Z" fill="white"/>
</mask>
<g mask="url(#mask1_655_5576)">
<path d="M54.1931 38.2395L45.1406 17.614L44.3862 17.7613L43.9336 22.3284L45.7441 31.4626L47.5546 33.9671L49.9686 36.0297L53.7405 38.0922L54.1931 38.2395Z" fill="#979190"/>
</g>
<path d="M60.0791 44.8681C61.7388 44.8681 63.2475 44.5735 64.7563 44.2788L65.2089 45.3101C63.5493 45.7521 61.7388 46.0467 59.9283 46.0467C58.1178 46.0467 56.3073 45.7521 54.4968 45.3101L54.9494 44.2788C56.609 44.5735 58.2686 44.8681 60.0791 44.8681ZM52.988 44.7208L52.2336 42.9529C46.6512 40.1537 42.7285 34.5553 42.7285 27.9257C42.7285 26.4524 42.8794 24.8319 43.332 23.5059L42.5776 21.8854C41.8232 23.8006 41.5215 25.8631 41.5215 27.9257C41.6724 35.5866 46.3495 42.0689 52.988 44.7208ZM78.4859 28.073C78.4859 25.8631 78.0333 23.6533 77.2789 21.738L76.5245 23.3586C76.9772 24.8319 77.128 26.4524 77.128 28.073C77.128 34.7027 73.2053 40.301 67.6229 43.1002L66.8685 44.7208C73.6579 42.0689 78.4859 35.5866 78.4859 28.073Z" fill="url(#paint4_linear_655_5576)"/>
<mask id="mask2_655_5576" style="mask-type:luminance" maskUnits="userSpaceOnUse" x="41" y="21" width="38" height="26">
<path d="M60.083 44.8681C61.7427 44.8681 63.2514 44.5735 64.7602 44.2788L65.2128 45.3101C63.5532 45.7521 61.7427 46.0467 59.9322 46.0467C58.1217 46.0467 56.3112 45.7521 54.5007 45.3101L54.9533 44.2788C56.6129 44.5735 58.2725 44.8681 60.083 44.8681V44.8681ZM52.9919 44.7208L52.2375 42.9529C46.6551 40.1537 42.7324 34.5553 42.7324 27.9257C42.7324 26.4524 42.8833 24.8319 43.3359 23.5059L42.5815 21.8854C41.8271 23.8006 41.5254 25.8631 41.5254 27.9257C41.6763 35.5866 46.3534 42.0689 52.9919 44.7208ZM78.4898 28.073C78.4898 25.8631 78.0372 23.6533 77.2828 21.738L76.5285 23.3586C76.9811 24.8319 77.1319 26.4524 77.1319 28.073C77.1319 34.7027 73.2092 40.301 67.6268 43.1002L66.8724 44.7208C73.6618 42.0689 78.4898 35.5866 78.4898 28.073V28.073Z" fill="white"/>
</mask>
<g mask="url(#mask2_655_5576)">
<path d="M78.4903 28.073C78.4903 35.5866 73.6623 42.0689 67.0238 44.7208L67.1747 44.2788C73.6623 41.6269 78.1886 35.292 78.1886 28.073C78.1886 26.0105 77.8868 23.9479 77.1324 22.18L77.2833 21.738C78.0377 23.6533 78.4903 25.8631 78.4903 28.073ZM41.9785 28.073C41.9785 26.0105 42.2803 24.0952 42.8838 22.3273L42.7329 21.8854C41.9785 23.8006 41.6768 25.8631 41.6768 27.9257C41.6768 35.4393 46.3539 41.9216 53.1433 44.5735L52.8415 44.2788C46.3539 41.6269 41.9785 35.292 41.9785 28.073ZM60.0835 46.0467C58.273 46.0467 56.4625 45.7521 54.652 45.3101L54.8029 45.0154C56.4625 45.4574 58.273 45.7521 60.0835 45.7521C61.894 45.7521 63.5537 45.4574 65.2133 45.0154L65.3642 45.3101C63.5537 45.7521 61.894 46.0467 60.0835 46.0467Z" fill="url(#paint5_linear_655_5576)"/>
</g>
<path d="M60.0791 48.552C71.6614 48.552 81.0508 39.3836 81.0508 28.0738C81.0508 16.764 71.6614 7.59558 60.0791 7.59558C48.4968 7.59558 39.1074 16.764 39.1074 28.0738C39.1074 39.3836 48.4968 48.552 60.0791 48.552Z" stroke="black" stroke-width="3.62301" stroke-miterlimit="10"/>
<path d="M73.808 17.761L75.1659 17.9083C73.5062 15.5511 71.0922 13.4885 68.5273 12.1626L68.6782 12.4572L69.1308 13.6359C70.9413 14.6671 72.4501 16.1404 73.808 17.761Z" fill="#5F585A"/>
<mask id="mask3_655_5576" style="mask-type:luminance" maskUnits="userSpaceOnUse" x="68" y="12" width="8" height="6">
<path d="M73.808 17.761L75.1659 17.9083C73.5062 15.5511 71.0922 13.4885 68.5273 12.1626L68.6782 12.4572L69.1308 13.6359C70.9413 14.6671 72.4501 16.1404 73.808 17.761V17.761Z" fill="white"/>
</mask>
<g mask="url(#mask3_655_5576)">
<path d="M75.012 18.055C73.5033 15.8451 70.0332 12.8986 67.9209 12.3093L68.3735 11.1307L71.0893 11.72L74.4085 15.2558L76.219 17.3184V18.3497L75.012 18.055Z" fill="#282423"/>
</g>
<path d="M54.7979 10.8373L55.2505 11.7213C56.7592 11.2793 58.4189 11.132 60.0785 11.132C61.5872 11.132 63.2469 11.2793 64.6047 11.7213L65.0574 10.8373C63.3977 10.3954 61.7381 10.1007 60.0785 10.1007C58.268 10.1007 56.4575 10.3954 54.7979 10.8373Z" fill="#544D4F"/>
<mask id="mask4_655_5576" style="mask-type:luminance" maskUnits="userSpaceOnUse" x="54" y="10" width="12" height="2">
<path d="M54.7979 10.8372L55.2505 11.7212C56.7592 11.2792 58.4189 11.1319 60.0785 11.1319C61.5872 11.1319 63.2469 11.2792 64.6047 11.7212L65.0574 10.8372C63.3977 10.3952 61.7381 10.1006 60.0785 10.1006C58.268 10.1006 56.4575 10.3952 54.7979 10.8372Z" fill="white"/>
</mask>
<g mask="url(#mask4_655_5576)">
<path d="M65.0588 10.9841C61.8904 9.95285 56.9116 10.2475 54.6484 11.1315L54.3467 10.5422L55.2519 9.80553C55.2519 9.80553 56.9116 9.6582 57.0624 9.6582H61.5887L63.7009 9.80553L65.3606 10.2475L65.6623 10.6895L65.0588 10.9841Z" fill="#352D2B"/>
</g>
<path d="M61.2861 28.3677H62.7949L65.8124 34.9973L73.8088 17.7603L75.3175 17.9076L65.9633 38.2385L61.2861 28.3677Z" fill="white"/>
<mask id="mask5_655_5576" style="mask-type:luminance" maskUnits="userSpaceOnUse" x="61" y="17" width="15" height="22">
<path d="M61.2861 28.3677H62.7949L65.8124 34.9973L73.8088 17.7603L75.3175 17.9076L65.9633 38.2385L61.2861 28.3677Z" fill="white"/>
</mask>
<g mask="url(#mask5_655_5576)">
<path d="M65.8114 34.4076L65.9623 38.5327L61.436 32.787L60.9834 28.8092L61.1343 27.778L62.7939 27.9253L64.0009 28.6619L65.8114 34.4076Z" fill="url(#paint6_linear_655_5576)"/>
</g>
<mask id="mask6_655_5576" style="mask-type:luminance" maskUnits="userSpaceOnUse" x="61" y="17" width="15" height="22">
<path d="M61.2861 28.3677H62.7949L65.8124 34.9973L73.8088 17.7603L75.3175 17.9076L65.9633 38.2385L61.2861 28.3677Z" fill="white"/>
</mask>
<g mask="url(#mask6_655_5576)">
<path d="M61.436 28.3678L65.8114 37.7966L75.1657 17.613L75.3166 18.2023L71.8464 26.7472L66.4149 38.9752L65.057 38.5332L61.1343 28.6624L60.9834 28.0731L61.436 28.3678Z" fill="url(#paint7_linear_655_5576)"/>
</g>
<path d="M61.2861 27.4848L68.5281 12.0156L69.1316 13.4889L62.7949 27.4848H61.2861Z" fill="#ADA6A5"/>
<path d="M59.9252 2.8811C45.7429 2.8811 34.2764 14.0778 34.2764 27.9264C34.2764 41.775 45.7429 52.9717 59.9252 52.9717C74.1074 52.9717 85.574 41.775 85.574 27.9264C85.574 14.0778 74.1074 2.8811 59.9252 2.8811ZM59.9252 52.2351C46.1955 52.2351 35.0307 41.333 35.0307 27.9264C35.0307 14.5198 46.1955 3.61773 59.9252 3.61773C73.6548 3.61773 84.8196 14.5198 84.8196 27.9264C84.8196 41.333 73.6548 52.2351 59.9252 52.2351Z" fill="black"/>
<path d="M59.9247 2.73376C45.5915 2.73376 34.125 14.0778 34.125 27.9264C34.125 41.775 45.5915 53.2663 59.9247 53.2663C74.2578 53.2663 85.8752 41.9223 85.8752 27.9264C85.8752 13.9305 74.2578 2.73376 59.9247 2.73376ZM59.9247 52.5297C46.0441 52.5297 34.8794 41.4803 34.8794 27.9264C34.8794 14.3725 46.0441 3.47039 59.9247 3.47039C73.8052 3.47039 84.97 14.3725 84.97 27.9264C84.97 41.4803 73.8052 52.5297 59.9247 52.5297Z" fill="url(#paint8_linear_655_5576)"/>
<defs>
<radialGradient id="paint0_radial_655_5576" cx="0" cy="0" r="1" gradientUnits="userSpaceOnUse" gradientTransform="translate(49.6923 16.9212) scale(33.8036 33.0082)">
<stop stop-color="#386EAC"/>
<stop offset="0.213" stop-color="#366CAA"/>
<stop offset="0.349" stop-color="#3166A3"/>
<stop offset="0.464" stop-color="#295B98"/>
<stop offset="0.567" stop-color="#1D4D88"/>
<stop offset="0.661" stop-color="#0F3C75"/>
<stop offset="0.749" stop-color="#002A60"/>
<stop offset="0.788" stop-color="#002256"/>
</radialGradient>
<radialGradient id="paint1_radial_655_5576" cx="0" cy="0" r="1" gradientUnits="userSpaceOnUse" gradientTransform="translate(51.8641 19.3746) scale(24.7873 24.2041)">
<stop stop-color="#6895C7"/>
<stop offset="0.136" stop-color="#6490C3"/>
<stop offset="0.285" stop-color="#5882B6"/>
<stop offset="0.439" stop-color="#446CA2"/>
<stop offset="0.598" stop-color="#2C5087"/>
<stop offset="0.758" stop-color="#0F3469"/>
<stop offset="0.861" stop-color="#002256"/>
</radialGradient>
<linearGradient id="paint2_linear_655_5576" x1="60.1711" y1="7.52485" x2="60.138" y2="48.5962" gradientUnits="userSpaceOnUse">
<stop stop-color="#F8F8F7"/>
<stop offset="0.192" stop-color="#F5F5F4"/>
<stop offset="0.315" stop-color="#ECECEB"/>
<stop offset="0.418" stop-color="#DDDBDB"/>
<stop offset="0.511" stop-color="#C8C6C5"/>
<stop offset="0.596" stop-color="#AEABAB"/>
<stop offset="0.633" stop-color="#A09D9E"/>
<stop offset="0.704" stop-color="#B4B1B1"/>
<stop offset="0.807" stop-color="#CAC7C8"/>
<stop offset="0.907" stop-color="#D8D5D6"/>
<stop offset="1" stop-color="#DDDADB"/>
</linearGradient>
<linearGradient id="paint3_linear_655_5576" x1="55.2992" y1="32.8737" x2="56.1503" y2="33.2297" gradientUnits="userSpaceOnUse">
<stop offset="0.76" stop-color="white"/>
<stop offset="0.84" stop-color="#FDFDFD"/>
<stop offset="0.878" stop-color="#F8F8F8"/>
<stop offset="0.906" stop-color="#EFEFF0"/>
<stop offset="0.93" stop-color="#E1E2E3"/>
<stop offset="0.952" stop-color="#CFD0D1"/>
<stop offset="0.971" stop-color="#B8B9BB"/>
<stop offset="0.988" stop-color="#9C9D9F"/>
<stop offset="1" stop-color="#848687"/>
</linearGradient>
<linearGradient id="paint4_linear_655_5576" x1="41.5954" y1="33.8629" x2="78.409" y2="33.8629" gradientUnits="userSpaceOnUse">
<stop stop-color="#7C7571"/>
<stop offset="0.021" stop-color="#8F8885"/>
<stop offset="0.061" stop-color="#AFAAA7"/>
<stop offset="0.107" stop-color="#CBC7C5"/>
<stop offset="0.16" stop-color="#E2E0DE"/>
<stop offset="0.223" stop-color="#F3F1F1"/>
<stop offset="0.308" stop-color="#FCFCFC"/>
<stop offset="0.511" stop-color="white"/>
<stop offset="0.727" stop-color="#FCFCFC"/>
<stop offset="0.805" stop-color="#F3F2F1"/>
<stop offset="0.861" stop-color="#E4E1E0"/>
<stop offset="0.906" stop-color="#CECAC8"/>
<stop offset="0.945" stop-color="#B3ADAA"/>
<stop offset="0.978" stop-color="#948D8A"/>
<stop offset="1" stop-color="#7C7571"/>
</linearGradient>
<linearGradient id="paint5_linear_655_5576" x1="41.6873" y1="33.8629" x2="78.5009" y2="33.8629" gradientUnits="userSpaceOnUse">
<stop stop-color="#191515"/>
<stop offset="0.068" stop-color="#342D2D"/>
<stop offset="0.167" stop-color="#5B5352"/>
<stop offset="0.261" stop-color="#7F7676"/>
<stop offset="0.349" stop-color="#9B9393"/>
<stop offset="0.427" stop-color="#AEA6A6"/>
<stop offset="0.489" stop-color="#B4ADAC"/>
<stop offset="0.56" stop-color="#AAA2A2"/>
<stop offset="0.669" stop-color="#8F8686"/>
<stop offset="0.803" stop-color="#675E5F"/>
<stop offset="0.955" stop-color="#393233"/>
<stop offset="1" stop-color="#2C2628"/>
</linearGradient>
<linearGradient id="paint6_linear_655_5576" x1="63.6569" y1="33.1111" x2="65.2433" y2="32.3847" gradientUnits="userSpaceOnUse">
<stop stop-color="#8A817F"/>
<stop offset="0.349" stop-color="#B5AFAE"/>
<stop offset="0.776" stop-color="#EAE7E7"/>
<stop offset="1" stop-color="white"/>
</linearGradient>
<linearGradient id="paint7_linear_655_5576" x1="60.7043" y1="28.2647" x2="75.1325" y2="28.2647" gradientUnits="userSpaceOnUse">
<stop stop-color="#332726"/>
<stop offset="0.084" stop-color="#3C302E"/>
<stop offset="0.343" stop-color="#564A47"/>
<stop offset="0.588" stop-color="#6A605D"/>
<stop offset="0.814" stop-color="#786F6C"/>
<stop offset="1" stop-color="#7C7571"/>
</linearGradient>
<linearGradient id="paint8_linear_655_5576" x1="40.9446" y1="12.3025" x2="79.8349" y2="45.6701" gradientUnits="userSpaceOnUse">
<stop stop-color="#EEEFEE"/>
<stop offset="0.089" stop-color="#D7D7D6"/>
<stop offset="0.223" stop-color="#BFBFBF"/>
<stop offset="0.381" stop-color="#AFAEAE"/>
<stop offset="0.586" stop-color="#A6A5A5"/>
<stop offset="1" stop-color="#A3A2A3"/>
</linearGradient>
</defs>
</svg>
