<svg width="120" height="56" viewBox="0 0 120 56" fill="none" xmlns="http://www.w3.org/2000/svg">
<path d="M60.1265 3C45.7941 3 34.3281 14.3435 34.3281 28.1913C34.3281 42.0392 45.7941 53.53 60.1265 53.53C74.4589 53.53 86.0757 42.1865 86.0757 28.1913C86.0757 14.1962 74.4589 3 60.1265 3ZM60.1265 47.49C49.264 47.49 40.3628 38.7982 40.3628 28.1913C40.3628 17.5845 49.264 8.89271 60.1265 8.89271C70.989 8.89271 79.8901 17.5845 79.8901 28.1913C79.8901 38.9455 70.989 47.49 60.1265 47.49Z" fill="#F3F3F3" stroke="black" stroke-width="3.97388" stroke-miterlimit="10"/>
<path d="M60.2769 47.3432C71.1087 47.3432 79.8896 38.7688 79.8896 28.1918C79.8896 17.6149 71.1087 9.04053 60.2769 9.04053C49.445 9.04053 40.6641 17.6149 40.6641 28.1918C40.6641 38.7688 49.445 47.3432 60.2769 47.3432Z" fill="url(#paint0_linear_583_5556)"/>
<path d="M58.7724 27.7498H57.4146L51.0781 13.9019L51.6816 12.4287L58.7724 27.7498Z" fill="#BFBBB9"/>
<path d="M60.2831 7.71436C48.6663 7.71436 39.3125 16.8481 39.3125 28.1915C39.3125 39.535 48.6663 48.6687 60.2831 48.6687C71.8999 48.6687 81.2537 39.535 81.2537 28.1915C81.2537 16.9954 71.8999 7.71436 60.2831 7.71436ZM65.2617 10.9553L60.2831 22.1515L55.1536 10.9553C56.8131 10.5134 58.6236 10.2188 60.2831 10.2188C61.9426 10.3661 63.6022 10.5134 65.2617 10.9553ZM51.6836 12.4285L58.7744 27.7496H61.49L68.7317 12.2812C71.4473 13.6071 73.7103 15.6695 75.5207 18.1739L66.1669 38.5038L61.49 28.6335H58.6236L54.2484 38.3565L45.0455 18.1739C46.705 15.8168 48.968 13.7544 51.6836 12.4285ZM41.8772 28.3388C41.8772 26.1291 42.3299 24.0666 42.9333 22.2988L53.3432 44.9858C46.5541 42.334 41.8772 35.8521 41.8772 28.3388ZM54.8519 45.4277L60.1322 34.0842L65.4126 45.4277C63.7531 45.8697 61.9426 46.1643 60.1322 46.1643C58.3218 46.3116 56.5114 46.017 54.8519 45.4277ZM67.0721 44.9858L77.482 22.0042C78.2363 23.9193 78.6889 26.1291 78.6889 28.3388C78.6889 35.8521 73.8612 42.334 67.0721 44.9858Z" fill="url(#paint1_linear_583_5556)"/>
<path d="M51.0816 13.9019L51.5342 12.4287C48.9694 13.7546 46.7064 15.817 45.0469 18.1741H46.4047C47.6116 16.4063 49.2712 15.0804 51.0816 13.9019Z" fill="#544E4E"/>
<mask id="mask0_583_5556" style="mask-type:luminance" maskUnits="userSpaceOnUse" x="45" y="12" width="7" height="7">
<path d="M51.0816 13.9012L51.5342 12.428C48.9694 13.7538 46.7064 15.8163 45.0469 18.1734H46.4047C47.6116 16.4056 49.2712 15.0797 51.0816 13.9012Z" fill="white"/>
</mask>
<g mask="url(#mask0_583_5556)">
<path d="M51.8349 12.7232C48.5158 14.6383 47.3088 15.5222 45.1967 18.4686L44.1406 18.3212V17.8793L46.2528 15.5222L48.5158 13.3124L50.4771 12.2812L51.684 11.9866L52.1366 12.2812L51.8349 12.7232Z" fill="#352D2B"/>
</g>
<path d="M58.6252 28.6338H57.2674L54.25 35.4104V38.5041L58.6252 28.6338Z" fill="url(#paint2_linear_583_5556)"/>
<path d="M54.2483 35.41L46.2523 18.1738H44.8945L54.0975 38.5037L54.2483 35.41Z" fill="white"/>
<mask id="mask1_583_5556" style="mask-type:luminance" maskUnits="userSpaceOnUse" x="44" y="18" width="11" height="21">
<path d="M54.2483 35.41L46.2523 18.1738H44.8945L54.0975 38.5037L54.2483 35.41Z" fill="white"/>
</mask>
<g mask="url(#mask1_583_5556)">
<path d="M54.3996 38.5039L45.3476 17.8794L44.5932 18.0267L44.1406 22.5936L45.951 31.7273L47.7614 34.2317L50.1753 36.2941L53.947 38.3566L54.3996 38.5039Z" fill="#979190"/>
</g>
<path d="M60.2833 45.1323C61.9428 45.1323 63.4515 44.8377 64.9602 44.543L65.4128 45.5743C63.7532 46.0162 61.9428 46.3109 60.1324 46.3109C58.322 46.3109 56.5116 46.0162 54.7012 45.5743L55.1538 44.543C56.8133 44.8377 58.4729 45.1323 60.2833 45.1323ZM53.1925 44.985L52.4382 43.2172C46.8561 40.4181 42.9335 34.8201 42.9335 28.1908C42.9335 26.7176 43.0844 25.0971 43.537 23.7712L42.7826 22.1507C42.0283 24.0659 41.7266 26.1283 41.7266 28.1908C41.8774 35.8513 46.5543 42.3333 53.1925 44.985ZM78.6891 28.3381C78.6891 26.1283 78.2365 23.9185 77.4822 22.0034L76.7279 23.6239C77.1805 25.0971 77.3313 26.7176 77.3313 28.3381C77.3313 34.9674 73.4088 40.5655 67.8267 43.3645L67.0723 44.985C73.8614 42.3333 78.6891 35.8513 78.6891 28.3381Z" fill="url(#paint3_linear_583_5556)"/>
<mask id="mask2_583_5556" style="mask-type:luminance" maskUnits="userSpaceOnUse" x="41" y="22" width="38" height="25">
<path d="M60.2872 45.1323C61.9467 45.1323 63.4554 44.8377 64.9641 44.543L65.4167 45.5743C63.7571 46.0162 61.9467 46.3109 60.1363 46.3109C58.3259 46.3109 56.5155 46.0162 54.7051 45.5743L55.1577 44.543C56.8172 44.8377 58.4768 45.1323 60.2872 45.1323ZM53.1964 44.985L52.4421 43.2172C46.86 40.4181 42.9374 34.8201 42.9374 28.1908C42.9374 26.7176 43.0883 25.0971 43.5409 23.7712L42.7865 22.1507C42.0322 24.0659 41.7305 26.1283 41.7305 28.1908C41.8813 35.8513 46.5582 42.3333 53.1964 44.985ZM78.693 28.3381C78.693 26.1283 78.2404 23.9185 77.4861 22.0034L76.7318 23.6239C77.1844 25.0971 77.3352 26.7176 77.3352 28.3381C77.3352 34.9674 73.4127 40.5655 67.8306 43.3645L67.0762 44.985C73.8653 42.3333 78.693 35.8513 78.693 28.3381Z" fill="white"/>
</mask>
<g mask="url(#mask2_583_5556)">
<path d="M78.6945 28.3381C78.6945 35.8513 73.8667 42.3333 67.2286 44.985L67.3794 44.543C73.8668 41.8913 78.3928 35.5567 78.3928 28.3381C78.3928 26.2756 78.091 24.2132 77.3367 22.4454L77.4876 22.0034C78.2419 23.9185 78.6945 26.1283 78.6945 28.3381ZM42.1845 28.3381C42.1845 26.2756 42.4863 24.3605 43.0898 22.5927L42.9389 22.1507C42.1845 24.0659 41.8828 26.1283 41.8828 28.1908C41.8828 35.704 46.5597 42.186 53.3488 44.8377L53.047 44.543C46.5597 41.8913 42.1845 35.5567 42.1845 28.3381ZM60.2887 46.3109C58.4783 46.3109 56.6678 46.0162 54.8574 45.5743L55.0083 45.2796C56.6678 45.7216 58.4783 46.0162 60.2887 46.0162C62.0991 46.0162 63.7586 45.7216 65.4182 45.2796L65.569 45.5743C63.7586 46.0162 62.0991 46.3109 60.2887 46.3109Z" fill="url(#paint4_linear_583_5556)"/>
</g>
<path d="M60.2831 48.8162C71.8648 48.8162 81.2537 39.6482 81.2537 28.339C81.2537 17.0298 71.8648 7.86182 60.2831 7.86182C48.7014 7.86182 39.3125 17.0298 39.3125 28.339C39.3125 39.6482 48.7014 48.8162 60.2831 48.8162Z" stroke="black" stroke-width="3.62301" stroke-miterlimit="10"/>
<path d="M74.0147 18.0265L75.3725 18.1739C73.713 15.8168 71.2991 13.7543 68.7344 12.4285L68.8852 12.7231L69.3378 13.9016C71.1483 14.9329 72.6569 16.406 74.0147 18.0265Z" fill="#5F585A"/>
<mask id="mask3_583_5556" style="mask-type:luminance" maskUnits="userSpaceOnUse" x="68" y="12" width="8" height="7">
<path d="M74.0147 18.0265L75.3725 18.1739C73.713 15.8168 71.2991 13.7543 68.7344 12.4285L68.8852 12.7231L69.3378 13.9016C71.1483 14.9329 72.6569 16.406 74.0147 18.0265Z" fill="white"/>
</mask>
<g mask="url(#mask3_583_5556)">
<path d="M75.2197 18.3204C73.711 16.1107 70.2411 13.1643 68.1289 12.575L68.5815 11.3965L71.2971 11.9858L74.6162 15.5214L76.4266 17.5838V18.6151L75.2197 18.3204Z" fill="#282423"/>
</g>
<path d="M55 11.1033L55.4526 11.9872C56.9613 11.5452 58.6208 11.3979 60.2804 11.3979C61.789 11.3979 63.4486 11.5452 64.8064 11.9872L65.259 11.1033C63.5995 10.6613 61.9399 10.3667 60.2804 10.3667C58.47 10.3667 56.6595 10.6613 55 11.1033Z" fill="#544D4F"/>
<mask id="mask4_583_5556" style="mask-type:luminance" maskUnits="userSpaceOnUse" x="55" y="10" width="11" height="2">
<path d="M55 11.1033L55.4526 11.9872C56.9613 11.5452 58.6208 11.3979 60.2804 11.3979C61.789 11.3979 63.4486 11.5452 64.8064 11.9872L65.259 11.1033C63.5995 10.6613 61.9399 10.3667 60.2804 10.3667C58.47 10.3667 56.6595 10.6613 55 11.1033Z" fill="white"/>
</mask>
<g mask="url(#mask4_583_5556)">
<path d="M65.2585 11.2502C62.0903 10.219 57.1116 10.5136 54.8486 11.3975L54.5469 10.8082L55.4521 10.0716C55.4521 10.0716 57.1116 9.92432 57.2625 9.92432H61.7885L63.9007 10.0716L65.5602 10.5136L65.8619 10.9555L65.2585 11.2502Z" fill="#352D2B"/>
</g>
<path d="M61.4883 28.6328H62.997L66.0143 35.2621L74.0103 18.0259L75.519 18.1732L66.1652 38.503L61.4883 28.6328Z" fill="white"/>
<mask id="mask5_583_5556" style="mask-type:luminance" maskUnits="userSpaceOnUse" x="61" y="18" width="15" height="21">
<path d="M61.4883 28.6328H62.997L66.0143 35.2621L74.0103 18.0259L75.519 18.1732L66.1652 38.503L61.4883 28.6328Z" fill="white"/>
</mask>
<g mask="url(#mask5_583_5556)">
<path d="M66.0153 34.6723L66.1661 38.7972L61.6401 33.0518L61.1875 29.0742L61.3384 28.043L62.9979 28.1903L64.2049 28.9269L66.0153 34.6723Z" fill="url(#paint5_linear_583_5556)"/>
</g>
<mask id="mask6_583_5556" style="mask-type:luminance" maskUnits="userSpaceOnUse" x="61" y="18" width="15" height="21">
<path d="M61.4883 28.6328H62.997L66.0143 35.2621L74.0103 18.0259L75.519 18.1732L66.1652 38.503L61.4883 28.6328Z" fill="white"/>
</mask>
<g mask="url(#mask6_583_5556)">
<path d="M61.6401 28.6329L66.0153 38.0612L75.3691 17.8787L75.5199 18.4679L72.05 27.0124L66.6187 39.2397L65.2609 38.7978L61.3384 28.9275L61.1875 28.3382L61.6401 28.6329Z" fill="url(#paint6_linear_583_5556)"/>
</g>
<path d="M61.4883 27.7499L68.7299 12.2815L69.3334 13.7547L62.997 27.7499H61.4883Z" fill="#ADA6A5"/>
<path d="M60.128 3.14746C45.9464 3.14746 34.4805 14.3436 34.4805 28.1915C34.4805 42.0394 45.9464 53.2355 60.128 53.2355C74.3095 53.2355 85.7755 42.0394 85.7755 28.1915C85.7755 14.3436 74.3095 3.14746 60.128 3.14746ZM60.128 52.4989C46.399 52.4989 35.2348 41.5974 35.2348 28.1915C35.2348 14.7856 46.399 3.88405 60.128 3.88405C73.8569 3.88405 85.0211 14.7856 85.0211 28.1915C85.0211 41.5974 73.8569 52.4989 60.128 52.4989Z" fill="black"/>
<path d="M60.1265 3C45.7941 3 34.3281 14.3435 34.3281 28.1913C34.3281 42.0392 45.7941 53.53 60.1265 53.53C74.4589 53.53 86.0757 42.1865 86.0757 28.1913C86.0757 14.1962 74.4589 3 60.1265 3ZM60.1265 52.7934C46.2467 52.7934 35.0825 41.7446 35.0825 28.1913C35.0825 14.6381 46.2467 3.73659 60.1265 3.73659C74.0063 3.73659 85.1705 14.6381 85.1705 28.1913C85.1705 41.7446 74.0063 52.7934 60.1265 52.7934Z" fill="url(#paint7_linear_583_5556)"/>
<defs>
<linearGradient id="paint0_linear_583_5556" x1="49.3736" y1="13.2819" x2="60.2769" y2="47.3432" gradientUnits="userSpaceOnUse">
<stop stop-color="#86868A"/>
<stop offset="1" stop-color="#1D1E21"/>
</linearGradient>
<linearGradient id="paint1_linear_583_5556" x1="60.3751" y1="7.79096" x2="60.342" y2="48.8602" gradientUnits="userSpaceOnUse">
<stop stop-color="#F8F8F7"/>
<stop offset="0.192" stop-color="#F5F5F4"/>
<stop offset="0.315" stop-color="#ECECEB"/>
<stop offset="0.418" stop-color="#DDDBDB"/>
<stop offset="0.511" stop-color="#C8C6C5"/>
<stop offset="0.596" stop-color="#AEABAB"/>
<stop offset="0.633" stop-color="#A09D9E"/>
<stop offset="0.704" stop-color="#B4B1B1"/>
<stop offset="0.807" stop-color="#CAC7C8"/>
<stop offset="0.907" stop-color="#D8D5D6"/>
<stop offset="1" stop-color="#DDDADB"/>
</linearGradient>
<linearGradient id="paint2_linear_583_5556" x1="55.5052" y1="33.1388" x2="56.3562" y2="33.4947" gradientUnits="userSpaceOnUse">
<stop offset="0.76" stop-color="white"/>
<stop offset="0.84" stop-color="#FDFDFD"/>
<stop offset="0.878" stop-color="#F8F8F8"/>
<stop offset="0.906" stop-color="#EFEFF0"/>
<stop offset="0.93" stop-color="#E1E2E3"/>
<stop offset="0.952" stop-color="#CFD0D1"/>
<stop offset="0.971" stop-color="#B8B9BB"/>
<stop offset="0.988" stop-color="#9C9D9F"/>
<stop offset="1" stop-color="#848687"/>
</linearGradient>
<linearGradient id="paint3_linear_583_5556" x1="41.8005" y1="34.1277" x2="78.6122" y2="34.1277" gradientUnits="userSpaceOnUse">
<stop stop-color="#7C7571"/>
<stop offset="0.021" stop-color="#8F8885"/>
<stop offset="0.061" stop-color="#AFAAA7"/>
<stop offset="0.107" stop-color="#CBC7C5"/>
<stop offset="0.16" stop-color="#E2E0DE"/>
<stop offset="0.223" stop-color="#F3F1F1"/>
<stop offset="0.308" stop-color="#FCFCFC"/>
<stop offset="0.511" stop-color="white"/>
<stop offset="0.727" stop-color="#FCFCFC"/>
<stop offset="0.805" stop-color="#F3F2F1"/>
<stop offset="0.861" stop-color="#E4E1E0"/>
<stop offset="0.906" stop-color="#CECAC8"/>
<stop offset="0.945" stop-color="#B3ADAA"/>
<stop offset="0.978" stop-color="#948D8A"/>
<stop offset="1" stop-color="#7C7571"/>
</linearGradient>
<linearGradient id="paint4_linear_583_5556" x1="41.8934" y1="34.1277" x2="78.7051" y2="34.1277" gradientUnits="userSpaceOnUse">
<stop stop-color="#191515"/>
<stop offset="0.068" stop-color="#342D2D"/>
<stop offset="0.167" stop-color="#5B5352"/>
<stop offset="0.261" stop-color="#7F7676"/>
<stop offset="0.349" stop-color="#9B9393"/>
<stop offset="0.427" stop-color="#AEA6A6"/>
<stop offset="0.489" stop-color="#B4ADAC"/>
<stop offset="0.56" stop-color="#AAA2A2"/>
<stop offset="0.669" stop-color="#8F8686"/>
<stop offset="0.803" stop-color="#675E5F"/>
<stop offset="0.955" stop-color="#393233"/>
<stop offset="1" stop-color="#2C2628"/>
</linearGradient>
<linearGradient id="paint5_linear_583_5556" x1="63.8609" y1="33.3759" x2="65.4472" y2="32.6494" gradientUnits="userSpaceOnUse">
<stop stop-color="#8A817F"/>
<stop offset="0.349" stop-color="#B5AFAE"/>
<stop offset="0.776" stop-color="#EAE7E7"/>
<stop offset="1" stop-color="white"/>
</linearGradient>
<linearGradient id="paint6_linear_583_5556" x1="60.9084" y1="28.5297" x2="75.3359" y2="28.5297" gradientUnits="userSpaceOnUse">
<stop stop-color="#332726"/>
<stop offset="0.084" stop-color="#3C302E"/>
<stop offset="0.343" stop-color="#564A47"/>
<stop offset="0.588" stop-color="#6A605D"/>
<stop offset="0.814" stop-color="#786F6C"/>
<stop offset="1" stop-color="#7C7571"/>
</linearGradient>
<linearGradient id="paint7_linear_583_5556" x1="41.1473" y1="12.5683" x2="80.0357" y2="45.9341" gradientUnits="userSpaceOnUse">
<stop stop-color="#EEEFEE"/>
<stop offset="0.089" stop-color="#D7D7D6"/>
<stop offset="0.223" stop-color="#BFBFBF"/>
<stop offset="0.381" stop-color="#AFAEAE"/>
<stop offset="0.586" stop-color="#A6A5A5"/>
<stop offset="1" stop-color="#A3A2A3"/>
</linearGradient>
</defs>
</svg>
