<svg width="120" height="56" viewBox="0 0 120 56" fill="none" xmlns="http://www.w3.org/2000/svg">
<path fill-rule="evenodd" clip-rule="evenodd" d="M59.9587 10.7683C64.587 10.7683 69.0257 12.5877 72.2984 15.8263C75.5711 19.0649 77.4097 23.4574 77.4097 28.0375V28.0375C77.4247 30.3002 76.98 32.5428 76.1021 34.6321C75.2242 36.7214 73.9309 38.6148 72.299 40.1999C70.6886 41.8212 68.768 43.1088 66.6492 43.9877C64.5305 44.8666 62.2561 45.3192 59.9587 45.3189V45.3189C55.3197 45.3056 50.8727 43.4842 47.581 40.2492C44.3343 37.0164 42.5107 32.6446 42.5078 28.0868V28.0868C42.5078 23.5067 44.3464 19.1143 47.6191 15.8757C50.8918 12.6371 55.3305 10.8177 59.9587 10.8177V10.7683ZM59.9587 11.0397C55.4025 11.0689 51.0419 12.8754 47.8236 16.0671C44.6053 19.2588 42.7892 23.578 42.7696 28.0868V28.0868C42.7666 30.3221 43.2175 32.5353 44.0954 34.5949C44.9733 36.6545 46.2604 38.5186 47.8802 40.0765C49.4629 41.66 51.3509 42.9127 53.4322 43.7603C55.5135 44.6078 57.7456 45.033 59.9961 45.0105C64.5343 45.0073 68.8862 43.2244 72.0986 40.0523C75.3111 36.8803 77.1223 32.5776 77.1354 28.0868V28.0868C77.1453 25.8496 76.7081 23.6325 75.849 21.563C74.9899 19.4936 73.7259 17.6126 72.1295 16.0284C70.5332 14.4441 68.6362 13.1878 66.5474 12.3316C64.4587 11.4755 62.2196 11.0364 59.9587 11.0397V11.0397Z" fill="#C6C5C0"/>
<path fill-rule="evenodd" clip-rule="evenodd" d="M59.9585 1.61499C65.8143 1.62279 71.5061 3.5292 76.1629 7.04243L79.1296 4.10668L84.34 9.26275L81.4481 12.2725C85.0291 17.0413 86.8805 22.8657 86.7031 28.8044C86.5258 34.7432 84.3301 40.4492 80.4708 45.0004C76.6115 49.5517 71.3141 52.6822 65.4348 53.886C59.5555 55.0898 53.4377 54.2967 48.0702 51.6347C42.7027 48.9728 38.399 44.5975 35.8547 39.2161C33.3104 33.8346 32.6742 27.7614 34.0487 21.9779C35.4233 16.1944 38.7284 11.0386 43.4299 7.34356C48.1315 3.64856 53.9547 1.63031 59.9585 1.61499V1.61499ZM59.9585 7.78254C55.9314 7.78987 51.9968 8.97767 48.6513 11.196C45.3058 13.4144 42.6994 16.5638 41.1611 20.2468C39.6229 23.9297 39.2217 27.9811 40.0083 31.8895C40.7948 35.7979 42.7339 39.3881 45.5806 42.2069C48.4273 45.0257 52.0541 46.9467 56.0032 47.7275C59.9522 48.5082 64.0465 48.1137 67.7692 46.5937C71.4919 45.0737 74.6761 42.4964 76.9198 39.1871C79.1635 35.8778 80.3662 31.9849 80.3761 27.9998C80.3662 22.6475 78.2107 17.5178 74.3827 13.7367C70.5548 9.95551 65.3671 7.83187 59.9585 7.83188V7.78254Z" fill="url(#paint0_radial_655_3810)"/>
<path fill-rule="evenodd" clip-rule="evenodd" d="M59.9627 7.7451C62.666 7.73698 65.3444 8.25729 67.844 9.27616C70.3436 10.295 72.6152 11.7924 74.5285 13.6824C76.4418 15.5723 77.9591 17.8175 78.9933 20.2893C80.0274 22.761 80.5581 25.4105 80.5548 28.0857V28.0857C80.5581 30.7609 80.0274 33.4104 78.9933 35.8821C77.9591 38.3538 76.4418 40.5991 74.5285 42.489C72.6152 44.3789 70.3436 45.8763 67.844 46.8952C65.3444 47.9141 62.666 48.4344 59.9627 48.4263C54.5177 48.4165 49.2991 46.2691 45.4525 42.4556C41.6058 38.642 39.4453 33.4739 39.4453 28.0857V28.0857C39.4406 25.4138 39.9702 22.7675 41.0035 20.299C42.0367 17.8306 43.5533 15.5889 45.4659 13.703V13.703C47.3593 11.8042 49.6171 10.2991 52.1066 9.27594C54.596 8.25281 57.267 7.73234 59.9627 7.7451V7.7451ZM59.9627 8.01647C54.5806 8.00912 49.4157 10.1165 45.603 13.8756V13.8756C43.7211 15.7412 42.232 17.9579 41.222 20.3971C40.2121 22.8364 39.7014 25.4497 39.7196 28.0857V28.0857C39.7121 33.4117 41.8417 38.5227 45.6404 42.2957C49.4665 46.0122 54.6016 48.1129 59.9627 48.1549V48.1549C65.3372 48.1251 70.4884 46.0232 74.3223 42.2957C76.21 40.4305 77.7078 38.2156 78.7301 35.7773C79.7525 33.3391 80.2793 30.7255 80.2805 28.0857V28.0857C80.2888 25.4447 79.7686 22.8283 78.75 20.3873C77.7314 17.9463 76.2345 15.729 74.3457 13.8633C72.4569 11.9976 70.2135 10.5204 67.7449 9.51687C65.2763 8.51337 62.6314 8.00344 59.9627 8.01647Z" fill="url(#paint1_linear_655_3810)"/>
<path fill-rule="evenodd" clip-rule="evenodd" d="M59.9637 1.44227C65.8895 1.42398 71.6525 3.3597 76.3427 6.94372L76.2429 7.0424C70.9124 3.01533 64.2371 1.138 57.5631 1.78894C50.889 2.43987 44.7126 5.57065 40.279 10.55C35.8454 15.5294 33.4845 21.9871 33.6722 28.621C33.8599 35.2549 36.5824 41.5717 41.2906 46.2978C45.9988 51.0238 52.3427 53.8076 59.0431 54.0879C65.7435 54.3682 72.3021 52.1242 77.3966 47.8082C82.4911 43.4922 85.7425 37.4253 86.4953 30.8308C87.2482 24.2362 85.4464 17.6044 81.4533 12.2725L81.5406 12.1861C84.9891 16.7512 86.8481 22.3001 86.8382 27.9997V27.9997C86.8371 31.4975 86.1385 34.9607 84.7824 38.1908C83.4263 41.4209 81.4393 44.3544 78.9354 46.8231C76.4501 49.2938 73.4927 51.2501 70.2354 52.578C66.9782 53.9059 63.4864 54.5787 59.9637 54.5572C52.878 54.5589 46.0814 51.7772 41.0668 46.8231C36.0236 41.8279 33.1825 35.0608 33.1641 27.9997V27.9997C33.2032 20.9746 36.0382 14.2477 41.0546 9.27666C46.0709 4.30561 52.8647 1.49083 59.9637 1.44227V1.44227Z" fill="url(#paint2_radial_655_3810)"/>
<path fill-rule="evenodd" clip-rule="evenodd" d="M59.9592 7.93045C63.9892 7.92313 67.9308 9.09901 71.2851 11.3093C74.6395 13.5195 77.2559 16.6648 78.8032 20.3471C80.3505 24.0294 80.7592 28.0832 79.9776 31.9954C79.1959 35.9077 77.259 39.5025 74.412 42.325C71.565 45.1475 67.9359 47.0708 63.984 47.8515C60.032 48.6322 55.9348 48.2353 52.2109 46.7108C48.487 45.1864 45.3038 42.603 43.0641 39.2877C40.8244 35.9723 39.6289 32.074 39.6289 28.086C39.6256 22.7458 41.7653 17.6229 45.5776 13.8433C49.3899 10.0638 54.5629 7.93699 59.9592 7.93045V7.93045ZM59.9592 10.7675C56.5078 10.7675 53.1338 11.7803 50.264 13.6779C47.3942 15.5755 45.1575 18.2725 43.8367 21.4281C42.5159 24.5836 42.1703 28.0558 42.8436 31.4057C43.517 34.7556 45.179 37.8327 47.6196 40.2478C50.0601 42.6629 53.1696 44.3076 56.5547 44.974C59.9399 45.6403 63.4487 45.2983 66.6374 43.9913C69.8262 42.6842 72.5516 40.4708 74.4692 37.6309C76.3867 34.791 77.4102 31.4522 77.4102 28.0367C77.4102 23.4566 75.5716 19.0641 72.2989 15.8255C69.0262 12.5869 64.5875 10.7675 59.9592 10.7675V10.7675Z" fill="url(#paint3_radial_655_3810)"/>
<path style="mix-blend-mode:multiply" opacity="0.67" fill-rule="evenodd" clip-rule="evenodd" d="M35.6417 34.4017C35.6352 34.4218 35.6352 34.4435 35.6417 34.4636H35.7761V34.2655C35.7224 34.2714 35.6715 34.2929 35.6295 34.3274C35.6272 34.3528 35.6314 34.3784 35.6417 34.4017V34.4017Z" fill="url(#paint4_linear_655_3810)"/>
<path style="mix-blend-mode:multiply" opacity="0.67" d="M39.5682 33.8347H39.4453V33.9338H39.5682V33.8347Z" fill="url(#paint5_linear_655_3810)"/>
<path style="mix-blend-mode:multiply" opacity="0.67" d="M39.5682 33.9578H39.4453V34.0692H39.5682V33.9578Z" fill="url(#paint6_linear_655_3810)"/>
<path style="mix-blend-mode:multiply" opacity="0.67" fill-rule="evenodd" clip-rule="evenodd" d="M36.9136 34.4016C36.9061 34.4215 36.9061 34.4436 36.9136 34.4635V34.4635C36.9337 34.4687 36.9547 34.4687 36.9747 34.4635V34.2654C36.921 34.2713 36.8701 34.2928 36.8281 34.3273C36.8362 34.3452 36.8481 34.3611 36.8628 34.3739C36.8776 34.3868 36.8949 34.3962 36.9136 34.4016V34.4016Z" fill="url(#paint7_linear_655_3810)"/>
<path style="mix-blend-mode:multiply" opacity="0.67" d="M40.3379 34.0183H39.9883V34.1789H40.3379V34.0183Z" fill="url(#paint8_linear_655_3810)"/>
<path style="mix-blend-mode:multiply" opacity="0.67" d="M33.9219 33.5134H43.47C43.8621 34.6421 44.3762 35.7257 45.0032 36.7452H34.8567C34.4739 35.6894 34.1616 34.6098 33.9219 33.5134Z" fill="url(#paint9_linear_655_3810)"/>
<path style="mix-blend-mode:multiply" opacity="0.67" d="M40.3379 33.8591H39.9883V34.0074H40.3379V33.8591Z" fill="url(#paint10_linear_655_3810)"/>
<path style="mix-blend-mode:multiply" opacity="0.86" fill-rule="evenodd" clip-rule="evenodd" d="M76.5536 33.5134H86.1392C85.8995 34.6098 85.5872 35.6894 85.2043 36.7452H75.0703C75.6748 35.7208 76.1718 34.6379 76.5536 33.5134Z" fill="url(#paint11_linear_655_3810)"/>
<path fill-rule="evenodd" clip-rule="evenodd" d="M86.5618 21.3386C87.1828 23.5048 87.485 25.7481 87.4593 27.9996C87.442 30.3335 87.1407 32.6569 86.5618 34.9196H33.5234V34.8332H86.4746C87.1002 32.5794 87.4065 30.2505 87.3845 27.9132C87.3991 25.6957 87.1226 23.4857 86.5618 21.3386V21.3386Z" fill="#1D1D1B"/>
<path fill-rule="evenodd" clip-rule="evenodd" d="M33.4365 21.2527H86.5622C87.1133 23.4306 87.3856 25.6685 87.3724 27.9136C87.3984 30.2503 87.0964 32.5792 86.4749 34.8336H33.5238C32.8794 32.582 32.5481 30.2539 32.5391 27.9136C32.5606 25.6653 32.8621 23.4281 33.4365 21.2527V21.2527Z" fill="url(#paint12_radial_655_3810)"/>
<path fill-rule="evenodd" clip-rule="evenodd" d="M80.2788 2.33081L86.2122 8.18998L81.812 12.5443L82.0738 12.902L78.9326 15.3813L77.9479 15.7391L84.4172 9.26314L79.2068 4.10707L72.75 10.4966L73.0118 9.60852L80.2788 2.33081Z" fill="url(#paint13_linear_655_3810)"/>
<path fill-rule="evenodd" clip-rule="evenodd" d="M74.3594 1.71362C79.5386 4.49207 83.8073 8.67775 86.6623 13.7774V1.71362H74.3594Z" fill="url(#paint14_radial_655_3810)"/>
<path d="M74.3594 1.71362C79.5386 4.49207 83.8073 8.67775 86.6623 13.7774" stroke="#B2B1A7" stroke-width="0.275748" stroke-linecap="round"/>
<path d="M74.3594 1.71362C79.5128 4.49259 83.7491 8.6805 86.5626 13.7774" stroke="#CCCBC3" stroke-width="0.194646" stroke-linecap="round"/>
<path d="M74.2734 1.71362C79.4768 4.50067 83.7475 8.72684 86.5639 13.876" stroke="#E7E6E1" stroke-width="0.105433" stroke-linecap="round"/>
<path d="M74.2734 1.71362C79.4304 4.53259 83.6648 8.75279 86.4766 13.876" stroke="white" stroke-width="0.0243307" stroke-linecap="round"/>
<path fill-rule="evenodd" clip-rule="evenodd" d="M86.6571 1.44214C86.7444 1.44214 86.8316 1.52848 86.8316 1.71351H74.1797C74.1797 1.52848 74.2669 1.44214 74.3542 1.44214H86.6571Z" fill="url(#paint15_linear_655_3810)"/>
<path fill-rule="evenodd" clip-rule="evenodd" d="M86.8367 13.7772C86.8367 13.9499 86.7495 14.0363 86.6622 14.0363L86.5625 13.8636V1.44214H86.6622C86.7495 1.44214 86.8367 1.52848 86.8367 1.71351V13.7772Z" fill="url(#paint16_linear_655_3810)"/>
<path fill-rule="evenodd" clip-rule="evenodd" d="M79.2109 31.3186C76.8176 31.3186 74.8606 29.8754 74.8606 28.0868C74.8606 26.2982 76.8176 24.8796 79.2109 24.8796C81.6042 24.8796 83.6484 26.2982 83.6484 28.0868C83.6484 29.8754 81.654 31.3186 79.2109 31.3186ZM79.2109 25.8171C78.3508 25.8171 77.7276 26.7669 77.7276 28.0868C77.7276 29.4066 78.3633 30.2701 79.2109 30.2701C80.0585 30.2701 80.6942 29.2709 80.6942 28.0868C80.6942 26.9026 80.0336 25.8171 79.2109 25.8171V25.8171ZM51.9251 31.3186C49.5318 31.3186 47.5873 29.8754 47.5873 28.0868C47.5873 26.2982 49.5692 24.9413 51.9251 24.9413C54.281 24.9413 56.3626 26.3475 56.3626 28.0868C56.3626 29.826 54.3683 31.3186 51.9251 31.3186ZM51.9251 25.9035C51.0775 25.9035 50.4418 26.8409 50.4418 28.0868C50.4418 29.3326 51.0775 30.2701 51.9251 30.2701C52.7727 30.2701 53.4209 29.2709 53.4209 28.0868C53.4209 26.9026 52.7353 25.9035 51.9251 25.9035ZM67.9052 31.1459L65.0881 25.9775H63.7045V25.1387H69.8497V25.9775H68.2916L70.473 29.567L72.2929 25.9281H71.2458V25.0893H75.5088V25.9281H74.0255L71.2707 31.0842L67.9052 31.1459ZM56.6867 31.1459V30.1344H58.1576V25.9898H56.7615V25.151H62.4455V25.9898H60.9747V30.1344H62.4705C62.9461 30.1318 63.4027 29.9486 63.7459 29.6227C64.0891 29.2968 64.2929 28.853 64.3153 28.3828H65.2502V31.2075L56.6867 31.1459ZM40.6194 31.1459L37.8023 25.9775H36.4062V25.1387H42.539V25.9775H40.9809L43.1623 29.567L45.0694 25.9281H43.9351V25.0893H48.1981V25.9281H46.7272L43.96 31.1459H40.6194Z" fill="white"/>
<path d="M79.2066 24.8796C81.6248 24.8796 83.6442 26.3105 83.6442 28.0868C83.6442 29.863 81.6622 31.2816 79.244 31.2816C76.8258 31.2816 74.9187 29.8137 74.9187 28.0868C74.9187 26.3599 76.8757 24.8796 79.2066 24.8796ZM79.2066 30.2947C80.0169 30.2947 80.7274 29.3203 80.7274 28.0744C80.7274 26.8286 80.0169 25.7678 79.2066 25.7678C78.3964 25.7678 77.6859 26.7422 77.6859 28.0744C77.6859 29.4066 78.3092 30.2947 79.2066 30.2947ZM51.9209 24.9783C54.3515 24.9783 56.321 26.3969 56.321 28.0868C56.321 29.7767 54.3515 31.2816 51.9209 31.2816C49.4902 31.2816 47.6205 29.8137 47.6205 28.0868C47.6205 26.3599 49.5899 24.9783 51.9209 24.9783V24.9783ZM51.9209 30.3071C52.7311 30.3071 53.4541 29.3326 53.4541 28.0868C53.4541 26.8409 52.7311 25.8664 51.9209 25.8664C51.1106 25.8664 50.4001 26.8409 50.4001 28.0868C50.4001 29.3326 51.0234 30.3071 51.9209 30.3071ZM75.4422 25.151V25.9528H73.9963L71.1792 31.1089H67.9009L65.1212 25.9528H63.7002V25.151H69.8081V25.9528H68.2624L70.4064 29.5916L72.3011 25.9528H71.1792V25.151H75.4048H75.4422ZM62.2917 25.151V25.9528H60.8956V30.1344H62.4537C62.9382 30.1349 63.4042 29.9506 63.7547 29.6197C64.1053 29.2889 64.3135 28.837 64.336 28.3581H65.2334V31.1089H56.6825V30.1344H58.1159V25.9528H56.6825V25.151H62.3291H62.2917ZM48.1564 25.151V25.9528H46.723L43.9308 31.1089H40.6151L37.8355 25.9528H36.402V25.151H42.5098V25.9528H40.9766L43.1331 29.5916L45.1025 25.9528H43.9308V25.151H48.1564V25.151ZM79.2066 24.8796C76.7884 24.8796 74.819 26.3475 74.819 28.1484C74.819 29.9494 76.7884 31.4172 79.2066 31.4172C81.6248 31.4172 83.6442 29.8877 83.6442 28.0868C83.6442 26.2858 81.6747 24.8796 79.2066 24.8796ZM79.2066 30.2947C78.384 30.2947 77.7607 29.3696 77.7607 28.1484C77.7607 26.9273 78.3715 25.9158 79.2066 25.9158C80.0418 25.9158 80.6526 26.9149 80.6526 28.1484C80.6526 29.382 79.9919 30.2947 79.2066 30.2947ZM51.9209 24.8796C49.5525 24.8796 47.4958 26.3599 47.4958 28.0868C47.4958 29.8137 49.4528 31.3556 51.871 31.3556C54.2892 31.3556 56.3459 29.8877 56.3459 28.0868C56.3459 26.2858 54.3889 24.8796 51.9209 24.8796ZM51.9209 30.2084C51.0982 30.2084 50.4749 29.2833 50.4749 28.0621C50.4749 26.8409 51.0982 25.9158 51.9209 25.9158C52.7435 25.9158 53.3793 26.9026 53.3793 28.0621C53.3793 29.2216 52.7062 30.2084 51.9209 30.2084V30.2084ZM75.517 25.0523H71.1792V26.0021H72.2138L70.4064 29.4436L68.3871 26.0268H69.8579V25.077H63.6255V26.0268H65.0714L67.8386 31.1459H71.254L74.0088 26.0268H75.4796V25.077L75.517 25.0523ZM62.4537 25.077H56.6077V26.0268H58.0412V30.0604H56.6077V31.1829H65.3332V28.2841H64.2861C64.2845 28.5201 64.2357 28.7533 64.1426 28.9705C64.0495 29.1877 63.9138 29.3846 63.7435 29.5497C63.5732 29.7148 63.3716 29.8449 63.1502 29.9325C62.9288 30.0202 62.6921 30.0636 62.4537 30.0604H60.9704V26.0268H62.4537V25.077ZM48.2811 25.077H43.856V26.0268H45.0028L43.1206 29.4436L41.1013 26.0268H42.5721V25.077H36.2773V26.0268H37.7856L40.5528 31.1459H43.9807L46.7354 26.0268H48.2063V25.077H48.2811Z" fill="#323230"/>
<path d="M33.5342 21.3503C32.9614 23.5261 32.66 25.7631 32.6367 28.0113C32.6367 28.1963 32.699 29.3311 32.699 29.5285L32.8611 31.2431C32.8611 31.0951 32.7863 28.3073 32.7863 28.1593C32.8422 25.9354 33.1772 23.7269 33.7835 21.5847L52.4809 21.4984L60.5956 21.3503H33.5342Z" fill="url(#paint17_linear_655_3810)"/>
<defs>
<radialGradient id="paint0_radial_655_3810" cx="0" cy="0" r="1" gradientUnits="userSpaceOnUse" gradientTransform="translate(40.937 22.7944) scale(55.6809 55.1009)">
<stop stop-color="white"/>
<stop offset="0.04" stop-color="#FDFCFC"/>
<stop offset="0.22" stop-color="#FCFBFA"/>
<stop offset="0.23" stop-color="#F9F8F7"/>
<stop offset="0.38" stop-color="#B7B6B5"/>
<stop offset="0.5" stop-color="#888784"/>
<stop offset="0.59" stop-color="#6A6966"/>
<stop offset="0.65" stop-color="#5F5E5B"/>
<stop offset="0.73" stop-color="#555451"/>
<stop offset="0.87" stop-color="#3A3935"/>
<stop offset="1" stop-color="#1D1C18"/>
</radialGradient>
<linearGradient id="paint1_linear_655_3810" x1="49.4796" y1="24.4962" x2="69.4039" y2="31.4212" gradientUnits="userSpaceOnUse">
<stop stop-color="#E4E2DC"/>
<stop offset="1" stop-color="white"/>
</linearGradient>
<radialGradient id="paint2_radial_655_3810" cx="0" cy="0" r="1" gradientUnits="userSpaceOnUse" gradientTransform="translate(75.8441 44.9975) scale(61.1032 60.4667)">
<stop stop-color="#C6C6C1"/>
<stop offset="1" stop-color="#87867E"/>
</radialGradient>
<radialGradient id="paint3_radial_655_3810" cx="0" cy="0" r="1" gradientUnits="userSpaceOnUse" gradientTransform="translate(69.6071 37.5964) scale(42.9044 42.4574)">
<stop stop-color="white"/>
<stop offset="0.21" stop-color="#F2F2F2"/>
<stop offset="0.3" stop-color="#E7E7E7"/>
<stop offset="0.38" stop-color="#C2C1C0"/>
<stop offset="0.45" stop-color="#A4A3A2"/>
<stop offset="0.51" stop-color="#8F8E8C"/>
<stop offset="0.58" stop-color="#82817E"/>
<stop offset="0.64" stop-color="#7E7D7A"/>
<stop offset="0.75" stop-color="#565552"/>
<stop offset="0.85" stop-color="#373632"/>
<stop offset="0.94" stop-color="#24231F"/>
<stop offset="1" stop-color="#1D1C18"/>
</radialGradient>
<linearGradient id="paint4_linear_655_3810" x1="35.7395" y1="34.5131" x2="35.7395" y2="34.3646" gradientUnits="userSpaceOnUse">
<stop stop-color="white"/>
<stop offset="0.17" stop-color="#FCFBFA"/>
<stop offset="0.43" stop-color="#BCBCB6"/>
<stop offset="0.52" stop-color="#90908A"/>
<stop offset="0.62" stop-color="#696964"/>
<stop offset="0.72" stop-color="#4B4A46"/>
<stop offset="0.82" stop-color="#353530"/>
<stop offset="0.91" stop-color="#282723"/>
<stop offset="1" stop-color="#24231F"/>
</linearGradient>
<linearGradient id="paint5_linear_655_3810" x1="40.1324" y1="36.4448" x2="40.1324" y2="36.4398" gradientUnits="userSpaceOnUse">
<stop stop-color="white"/>
<stop offset="0.17" stop-color="#FCFBFA"/>
<stop offset="0.43" stop-color="#BCBCB6"/>
<stop offset="0.52" stop-color="#90908A"/>
<stop offset="0.62" stop-color="#696964"/>
<stop offset="0.72" stop-color="#4B4A46"/>
<stop offset="0.82" stop-color="#353530"/>
<stop offset="0.91" stop-color="#282723"/>
<stop offset="1" stop-color="#24231F"/>
</linearGradient>
<linearGradient id="paint6_linear_655_3810" x1="40.1324" y1="36.9063" x2="40.1324" y2="36.8996" gradientUnits="userSpaceOnUse">
<stop stop-color="white"/>
<stop offset="0.17" stop-color="#FCFBFA"/>
<stop offset="0.43" stop-color="#BCBCB6"/>
<stop offset="0.52" stop-color="#90908A"/>
<stop offset="0.62" stop-color="#696964"/>
<stop offset="0.72" stop-color="#4B4A46"/>
<stop offset="0.82" stop-color="#353530"/>
<stop offset="0.91" stop-color="#282723"/>
<stop offset="1" stop-color="#24231F"/>
</linearGradient>
<linearGradient id="paint7_linear_655_3810" x1="37.3545" y1="39.6819" x2="37.3545" y2="39.6577" gradientUnits="userSpaceOnUse">
<stop stop-color="white"/>
<stop offset="0.17" stop-color="#FCFBFA"/>
<stop offset="0.43" stop-color="#BCBCB6"/>
<stop offset="0.52" stop-color="#90908A"/>
<stop offset="0.62" stop-color="#696964"/>
<stop offset="0.72" stop-color="#4B4A46"/>
<stop offset="0.82" stop-color="#353530"/>
<stop offset="0.91" stop-color="#282723"/>
<stop offset="1" stop-color="#24231F"/>
</linearGradient>
<linearGradient id="paint8_linear_655_3810" x1="42.1279" y1="38.2829" x2="42.1279" y2="38.2701" gradientUnits="userSpaceOnUse">
<stop stop-color="white"/>
<stop offset="0.17" stop-color="#FCFBFA"/>
<stop offset="0.43" stop-color="#BCBCB6"/>
<stop offset="0.52" stop-color="#90908A"/>
<stop offset="0.62" stop-color="#696964"/>
<stop offset="0.72" stop-color="#4B4A46"/>
<stop offset="0.82" stop-color="#353530"/>
<stop offset="0.91" stop-color="#282723"/>
<stop offset="1" stop-color="#24231F"/>
</linearGradient>
<linearGradient id="paint9_linear_655_3810" x1="95.2017" y1="126.298" x2="95.2017" y2="121.321" gradientUnits="userSpaceOnUse">
<stop stop-color="white"/>
<stop offset="0.17" stop-color="#FCFBFA"/>
<stop offset="0.43" stop-color="#BCBCB6"/>
<stop offset="0.52" stop-color="#90908A"/>
<stop offset="0.62" stop-color="#696964"/>
<stop offset="0.72" stop-color="#4B4A46"/>
<stop offset="0.82" stop-color="#353530"/>
<stop offset="0.91" stop-color="#282723"/>
<stop offset="1" stop-color="#24231F"/>
</linearGradient>
<linearGradient id="paint10_linear_655_3810" x1="42.1279" y1="37.7734" x2="42.1279" y2="37.763" gradientUnits="userSpaceOnUse">
<stop stop-color="white"/>
<stop offset="0.17" stop-color="#FCFBFA"/>
<stop offset="0.43" stop-color="#BCBCB6"/>
<stop offset="0.52" stop-color="#90908A"/>
<stop offset="0.62" stop-color="#696964"/>
<stop offset="0.72" stop-color="#4B4A46"/>
<stop offset="0.82" stop-color="#353530"/>
<stop offset="0.91" stop-color="#282723"/>
<stop offset="1" stop-color="#24231F"/>
</linearGradient>
<linearGradient id="paint11_linear_655_3810" x1="-153.684" y1="126.298" x2="-153.684" y2="121.321" gradientUnits="userSpaceOnUse">
<stop stop-color="white"/>
<stop offset="0.17" stop-color="#FCFBFA"/>
<stop offset="0.43" stop-color="#BCBCB6"/>
<stop offset="0.52" stop-color="#90908A"/>
<stop offset="0.62" stop-color="#696964"/>
<stop offset="0.72" stop-color="#4B4A46"/>
<stop offset="0.82" stop-color="#353530"/>
<stop offset="0.91" stop-color="#282723"/>
<stop offset="1" stop-color="#24231F"/>
</linearGradient>
<radialGradient id="paint12_radial_655_3810" cx="0" cy="0" r="1" gradientUnits="userSpaceOnUse" gradientTransform="translate(35.0196 22.7946) scale(34.6401 34.2792)">
<stop stop-color="#0069B4"/>
<stop offset="0.01" stop-color="#0068B3"/>
<stop offset="0.13" stop-color="#0061A6"/>
<stop offset="0.24" stop-color="#005EA1"/>
<stop offset="0.49" stop-color="#005490"/>
<stop offset="0.84" stop-color="#004273"/>
<stop offset="0.96" stop-color="#004072"/>
<stop offset="1" stop-color="#003B6E"/>
</radialGradient>
<linearGradient id="paint13_linear_655_3810" x1="85.6762" y1="15.5294" x2="72.3304" y2="2.03069" gradientUnits="userSpaceOnUse">
<stop offset="0.01" stop-color="#20200B"/>
<stop offset="0.65" stop-color="#43423E"/>
<stop offset="0.66" stop-color="#64635F"/>
<stop offset="0.67" stop-color="#A6A5A2"/>
<stop offset="0.68" stop-color="#F2F2EF"/>
<stop offset="0.69" stop-color="#6F6E68"/>
<stop offset="0.71" stop-color="#585752"/>
<stop offset="0.74" stop-color="#42423E"/>
<stop offset="0.77" stop-color="#31312E"/>
<stop offset="0.8" stop-color="#262623"/>
<stop offset="0.85" stop-color="#1F1F1D"/>
<stop offset="1" stop-color="#1D1D1B"/>
</linearGradient>
<radialGradient id="paint14_radial_655_3810" cx="0" cy="0" r="1" gradientUnits="userSpaceOnUse" gradientTransform="translate(84.5682 3.05815) scale(14.4718 14.3211)">
<stop stop-color="#55544F"/>
<stop offset="1" stop-color="#4F4F4A"/>
</radialGradient>
<linearGradient id="paint15_linear_655_3810" x1="74.1797" y1="1.57782" x2="86.8316" y2="1.57782" gradientUnits="userSpaceOnUse">
<stop stop-color="#5C5C5B"/>
<stop offset="0.07" stop-color="#51514F"/>
<stop offset="0.25" stop-color="#3D3D3A"/>
<stop offset="0.44" stop-color="#2F2E2B"/>
<stop offset="0.67" stop-color="#272622"/>
<stop offset="1" stop-color="#24231F"/>
</linearGradient>
<linearGradient id="paint16_linear_655_3810" x1="86.6996" y1="14.0486" x2="86.6996" y2="1.44214" gradientUnits="userSpaceOnUse">
<stop stop-color="#5C5C5B"/>
<stop offset="0.08" stop-color="#565554"/>
<stop offset="0.45" stop-color="#3A3A37"/>
<stop offset="0.77" stop-color="#2A2925"/>
<stop offset="1" stop-color="#24231F"/>
</linearGradient>
<linearGradient id="paint17_linear_655_3810" x1="39.8789" y1="17.0947" x2="47.8717" y2="28.0173" gradientUnits="userSpaceOnUse">
<stop stop-color="white"/>
<stop offset="0.11" stop-color="#D8E8F4"/>
<stop offset="0.34" stop-color="#8CBCDD"/>
<stop offset="0.54" stop-color="#5098CC"/>
<stop offset="0.71" stop-color="#257FBF"/>
<stop offset="0.85" stop-color="#0A6FB7"/>
<stop offset="0.93" stop-color="#066BB5"/>
<stop offset="0.95" stop-color="#2878BD"/>
<stop offset="0.97" stop-color="#4081C2"/>
<stop offset="0.99" stop-color="#4F86C6"/>
<stop offset="1" stop-color="#5488C7"/>
</linearGradient>
</defs>
</svg>
