<svg width="120" height="56" viewBox="0 0 120 56" fill="none" xmlns="http://www.w3.org/2000/svg">
<path d="M87.2739 27.9082C87.2219 13.1993 74.9685 1.31659 59.9053 1.36733C44.8421 1.41808 32.6731 13.3831 32.7251 28.092C32.7772 42.8008 45.0305 54.6836 60.0937 54.6328C75.1569 54.5821 87.3259 42.6171 87.2739 27.9082Z" fill="url(#paint0_linear_655_4752)" stroke="#141414" stroke-width="0.85103" stroke-linecap="square"/>
<path d="M60.0042 51.9139C53.4622 51.9139 47.312 49.4269 42.6863 44.9096C38.0605 40.3932 35.5127 34.3872 35.5127 28.0004C35.5127 21.612 38.0605 15.6067 42.6863 11.0903C47.312 6.57313 53.4622 4.08582 60.0042 4.08582C66.5463 4.08582 72.6963 6.57313 77.322 11.0903C81.9481 15.6068 84.4951 21.6119 84.4951 28.0004C84.4951 34.3872 81.9481 40.3924 77.322 44.9096C72.6963 49.4269 66.5463 51.9139 60.0042 51.9139Z" fill="#141414"/>
<path d="M60.0006 49.9738C53.9895 49.9738 48.3386 47.6883 44.0885 43.5382C39.8377 39.3881 37.4971 33.8699 37.4971 28.0011C37.4971 22.1316 39.8377 16.6137 44.0885 12.4634C48.3386 8.31345 53.9895 6.02722 60.0006 6.02722C66.0117 6.02722 71.6626 8.31345 75.9129 12.4634C80.1637 16.6137 82.5043 22.1316 82.5043 28.0011C82.5043 33.8699 80.1637 39.3881 75.9129 43.5383C71.6626 47.6883 66.0117 49.9738 60.0006 49.9738Z" fill="white"/>
<path d="M77.0845 38.5561C75.4208 37.0315 73.3233 36.0119 71.0385 35.6557C70.9617 35.644 70.8833 35.6487 70.8086 35.6693C70.7339 35.69 70.6647 35.7262 70.6057 35.7755C70.5467 35.8247 70.4992 35.8859 70.4667 35.9547C70.4341 36.0235 70.4172 36.0984 70.4171 36.1742V36.9842C70.4171 37.225 70.2286 37.4979 69.9812 37.4979C69.8019 37.4979 69.6225 37.5027 69.4422 37.4979C68.8049 37.4882 68.689 36.7239 68.8168 36.2739C70.1752 31.5177 70.5073 28.6327 70.4913 26.5323C70.4744 24.2994 70.4171 22.0751 69.3866 19.1303C68.3938 16.2973 67.4872 13.5236 62.6923 9.28416C62.3664 8.99751 62.0374 8.85833 61.5986 8.82738C61.1271 8.79544 60.7415 8.77905 60.2618 8.77905C58.2714 8.77905 56.3502 9.06438 54.5348 9.59646C53.8552 9.79672 53.9572 10.2581 54.3309 10.5729C56.1411 12.0848 58.5953 14.3574 60.2888 17.1963C59.2166 17.2977 58.3973 16.7153 57.7085 16.0709C55.4455 13.9677 53.0892 12.4679 51.2176 11.4416C50.8917 11.2636 50.5705 11.1889 50.2476 11.37C48.1846 12.5415 46.7946 13.6435 45.1567 15.4982C44.8782 15.8135 45.0585 16.0593 45.3311 16.2004C47.1215 17.1276 49.9254 18.8862 52.4967 21.1704C51.9727 21.6011 51.1422 21.4599 49.9384 20.8436C47.6249 19.6566 45.4006 18.9734 43.703 18.5467C43.3396 18.4557 42.9499 18.5554 42.7628 18.8728C41.6759 20.7168 40.9257 22.9226 40.571 25.1593C40.5037 25.5891 40.803 25.9693 41.2418 26.0438C45.1984 26.72 52.251 28.5359 53.4223 36.4693C53.5233 37.1639 52.8762 37.7745 52.0242 37.3837C50.835 36.8397 49.6471 36.297 48.459 35.7525C48.3342 35.6963 48.1925 35.648 48.0556 35.648H42.452C41.6554 35.648 41.3272 36.392 41.8455 36.9715C43.193 38.4866 44.4285 40.1214 45.4856 41.8544C45.5789 42.0083 45.686 42.0672 45.8692 42.0672H48.3156C48.482 42.0672 48.6246 42.0295 48.7685 41.9464C49.5373 41.506 50.3061 41.0668 51.0769 40.6267C51.2198 40.5435 51.3623 40.5453 51.5289 40.5453H69.9693C70.2169 40.5453 70.4173 40.701 70.4173 40.943V41.8292C70.4173 42.1515 70.7125 42.3961 71.0386 42.3469C73.3233 41.9908 75.4209 40.971 77.0846 39.4474C77.1473 39.3904 77.1972 39.3214 77.2313 39.2447C77.2655 39.168 77.2831 39.0853 77.2831 39.0017C77.2831 38.9181 77.2655 38.8354 77.2313 38.7588C77.1972 38.6821 77.1473 38.6131 77.0846 38.5561" fill="url(#paint1_linear_655_4752)"/>
<path d="M77.0845 38.5561C75.4208 37.0315 73.3233 36.0119 71.0385 35.6557C70.9617 35.644 70.8833 35.6487 70.8086 35.6693C70.7339 35.69 70.6647 35.7262 70.6057 35.7755C70.5467 35.8247 70.4992 35.8859 70.4667 35.9547C70.4341 36.0235 70.4172 36.0984 70.4171 36.1742V36.9842C70.4171 37.225 70.2286 37.4979 69.9812 37.4979C69.8019 37.4979 69.6225 37.5027 69.4422 37.4979C68.8049 37.4882 68.689 36.7239 68.8168 36.2739C70.1752 31.5177 70.5073 28.6327 70.4913 26.5323C70.4744 24.2994 70.4171 22.0751 69.3866 19.1303C68.3938 16.2973 67.4872 13.5236 62.6923 9.28416C62.3664 8.99751 62.0374 8.85833 61.5986 8.82738C61.1271 8.79544 60.7415 8.77905 60.2618 8.77905C58.2714 8.77905 56.3502 9.06438 54.5348 9.59646C53.8552 9.79672 53.9572 10.2581 54.3309 10.5729C56.1411 12.0848 58.5953 14.3574 60.2888 17.1963C59.2166 17.2977 58.3973 16.7153 57.7085 16.0709C55.4455 13.9677 53.0892 12.4679 51.2176 11.4416C50.8917 11.2636 50.5705 11.1889 50.2476 11.37C48.1846 12.5415 46.7946 13.6435 45.1567 15.4982C44.8782 15.8135 45.0585 16.0593 45.3311 16.2004C47.1215 17.1276 49.9254 18.8862 52.4967 21.1704C51.9727 21.6011 51.1422 21.4599 49.9384 20.8436C47.6249 19.6566 45.4006 18.9734 43.703 18.5467C43.3396 18.4557 42.9499 18.5554 42.7628 18.8728C41.6759 20.7168 40.9257 22.9226 40.571 25.1593C40.5037 25.5891 40.803 25.9693 41.2418 26.0438C45.1984 26.72 52.251 28.5359 53.4223 36.4693C53.5233 37.1639 52.8762 37.7745 52.0242 37.3837C50.835 36.8397 49.6471 36.297 48.459 35.7525C48.3342 35.6963 48.1925 35.648 48.0556 35.648H42.452C41.6554 35.648 41.3272 36.392 41.8455 36.9715C43.193 38.4866 44.4285 40.1214 45.4856 41.8544C45.5789 42.0083 45.686 42.0672 45.8692 42.0672H48.3156C48.482 42.0672 48.6246 42.0295 48.7685 41.9464C49.5373 41.506 50.3061 41.0668 51.0769 40.6267C51.2198 40.5435 51.3623 40.5453 51.5289 40.5453H69.9693C70.2169 40.5453 70.4173 40.701 70.4173 40.943V41.8292C70.4173 42.1515 70.7125 42.3961 71.0386 42.3469C73.3233 41.9908 75.4209 40.971 77.0846 39.4474C77.1473 39.3904 77.1972 39.3214 77.2313 39.2447C77.2655 39.168 77.2831 39.0853 77.2831 39.0017C77.2831 38.9181 77.2655 38.8354 77.2313 38.7588C77.1972 38.6821 77.1473 38.6131 77.0846 38.5561" stroke="#141414" stroke-width="0.850708"/>
<path d="M63.3451 35.9637C61.5288 35.9637 60.0585 34.5273 60.0585 32.7568C60.0585 30.9844 61.5288 29.5485 63.3451 29.5485C65.1571 29.5485 66.6297 30.9844 66.6297 32.7568C66.6297 34.5273 65.1571 35.9637 63.3451 35.9637ZM75.4211 38.9998C74.1739 38.0063 72.8589 37.3639 71.2615 37.0407C71.1169 37.0117 71.0466 37.066 71.0466 37.2112V37.2895C71.0466 37.6726 70.6543 38.1185 70.26 38.1185H69.2224C68.3465 38.1185 67.5649 37.4143 67.8889 36.2831C71.6374 23.2212 67.449 15.1449 62.16 10.6237C60.7234 9.39809 60.5943 9.33018 59.1625 9.38334C58.034 9.42503 56.7113 9.56039 55.5927 9.82551C55.3728 9.87773 55.1893 10.048 55.48 10.2862C58.1947 12.52 61.8238 16.3706 63.56 22.364C63.6195 22.572 63.4936 22.5577 63.3312 22.5664C61.7765 22.6582 61.2525 21.7284 60.7668 21.1373C57.2423 16.8543 53.2909 14.249 50.3334 12.5373C50.0392 12.3652 49.9914 12.3682 49.7674 12.4958C48.5788 13.1663 47.2438 14.2364 46.3036 15.2097C46.1074 15.4158 46.1571 15.5123 46.3739 15.6257C49.0491 17.0257 53.1175 19.7838 56.8984 24.4606C57.1334 24.7498 57.1493 24.8833 57.0164 24.9599C56.2892 25.3826 55.0754 25.3767 53.7459 24.5681C50.1411 22.3727 46.4799 20.8181 43.6155 20.0122C43.3102 19.9251 43.2567 19.9426 43.132 20.1979C42.4333 21.6317 41.6725 23.4952 41.3979 25.1107C41.3631 25.3217 41.3444 25.3381 41.5447 25.3777C49.4276 26.9414 53.7526 31.1635 54.246 36.8077C54.3323 37.7867 53.1979 38.73 52.0692 38.3815C50.8436 38.0014 49.6537 37.5747 48.4269 37.1956C48.2964 37.154 48.1598 37.1334 48.0226 37.1347C46.3286 37.1337 44.6322 37.1328 42.9358 37.1328C42.7098 37.1328 42.5772 37.2712 42.8019 37.549C44.0822 39.1298 44.8262 40.0256 45.729 41.5039C45.8211 41.6577 45.928 41.7168 46.1134 41.7168C46.7356 41.7168 47.3599 41.7158 47.9852 41.7158C48.2228 41.7187 48.4566 41.6564 48.6598 41.5359C49.3386 41.1479 50.0133 40.786 50.692 40.397C50.9079 40.2732 51.0925 40.1987 51.342 40.1987C57.497 40.1968 64.0941 40.1987 70.248 40.1977C70.6404 40.1977 71.0466 40.6458 71.0466 41.0315V41.1645C71.0466 41.3092 71.1169 41.3636 71.2615 41.3355C72.8589 41.0123 74.1737 40.2635 75.4214 39.2698C75.5341 39.179 75.5341 39.0919 75.4214 39.0001" fill="#42BD3B"/>
<path d="M66.7687 32.3896C67.065 34.3684 65.6628 36.2044 63.6365 36.4937C61.6116 36.7828 59.7297 35.416 59.4331 33.4372C59.1367 31.4587 60.5388 29.6206 62.5634 29.3314C64.5899 29.0421 66.4721 30.4108 66.7687 32.3896Z" fill="url(#paint2_linear_655_4752)"/>
<path d="M63.6974 29.339L62.583 36.5008C64.1795 36.7228 65.7985 35.8983 66.4886 34.3875C67.3226 32.5614 66.4833 30.4236 64.6144 29.6097C64.322 29.4811 64.0138 29.39 63.6974 29.3387V29.339Z" fill="url(#paint3_linear_655_4752)"/>
<path d="M66.2313 32.8221C66.2313 34.1598 65.1189 35.2475 63.7455 35.2475C62.3734 35.2475 61.2627 34.1601 61.2627 32.8221C61.2627 31.4811 62.3732 30.3944 63.7455 30.3944C65.1189 30.3944 66.2313 31.4811 66.2313 32.8221Z" fill="white" stroke="#141414" stroke-width="0.850817"/>
<defs>
<linearGradient id="paint0_linear_655_4752" x1="60.094" y1="54.7274" x2="59.914" y2="1.27272" gradientUnits="userSpaceOnUse">
<stop stop-color="#99A2A7"/>
<stop offset="0.476" stop-color="#98A3A8"/>
<stop offset="0.535" stop-color="#E6E6E6"/>
<stop offset="1" stop-color="#E6E6E6"/>
</linearGradient>
<linearGradient id="paint1_linear_655_4752" x1="40.8659" y1="41.7617" x2="76.3323" y2="8.52769" gradientUnits="userSpaceOnUse">
<stop stop-color="#151313"/>
<stop offset="0.085" stop-color="#151313"/>
<stop offset="0.128" stop-color="#F8F1F1"/>
<stop offset="0.229" stop-color="#151313"/>
<stop offset="0.304" stop-color="#141414"/>
<stop offset="0.382" stop-color="#F8F1F1"/>
<stop offset="0.45" stop-color="#151313"/>
<stop offset="0.565" stop-color="#F8F1F4"/>
<stop offset="0.627" stop-color="#141414"/>
<stop offset="0.787" stop-color="#F8F1F1"/>
<stop offset="1" stop-color="#F8F1F2"/>
</linearGradient>
<linearGradient id="paint2_linear_655_4752" x1="63.1277" y1="32.2388" x2="66.5082" y2="36.765" gradientUnits="userSpaceOnUse">
<stop stop-color="#151313"/>
<stop offset="0.163" stop-color="#CCC4C4"/>
<stop offset="0.496" stop-color="#B7ACAD"/>
<stop offset="1" stop-color="#151313"/>
</linearGradient>
<linearGradient id="paint3_linear_655_4752" x1="63.9625" y1="31.7433" x2="58.7997" y2="33.8912" gradientUnits="userSpaceOnUse">
<stop stop-color="#151313"/>
<stop offset="0.25" stop-color="#CCC4C4"/>
<stop offset="0.5" stop-color="#B7ACAD"/>
<stop offset="1" stop-color="#151313"/>
</linearGradient>
</defs>
</svg>
