<svg width="120" height="56" viewBox="0 0 120 56" fill="none" xmlns="http://www.w3.org/2000/svg">
<path d="M86.9897 27.6327C86.9377 12.9238 74.6843 1.04107 59.6211 1.09182C44.5579 1.14257 32.3889 13.1076 32.441 27.8165C32.493 42.5253 44.7463 54.4081 59.8095 54.3573C74.8727 54.3066 87.0417 42.3416 86.9897 27.6327Z" fill="url(#paint0_linear_596_7800)" stroke="#141414" stroke-width="0.85103" stroke-linecap="square"/>
<path d="M59.7219 51.6384C53.18 51.6384 47.0298 49.1514 42.4041 44.6341C37.7782 40.1177 35.2305 34.1117 35.2305 27.7249C35.2305 21.3365 37.7782 15.3312 42.4041 10.8148C47.0298 6.29762 53.18 3.8103 59.7219 3.8103C66.264 3.8103 72.4141 6.29762 77.0398 10.8148C81.6658 15.3313 84.2129 21.3364 84.2129 27.7249C84.2129 34.1117 81.6658 40.1169 77.0398 44.6341C72.4141 49.1514 66.264 51.6384 59.7219 51.6384Z" fill="#141414"/>
<path d="M59.7184 49.6983C53.7073 49.6983 48.0564 47.4128 43.8063 43.2627C39.5555 39.1126 37.2148 33.5944 37.2148 27.7256C37.2148 21.8561 39.5555 16.3381 43.8063 12.1879C48.0564 8.03794 53.7073 5.75171 59.7184 5.75171C65.7295 5.75171 71.3804 8.03794 75.6307 12.1879C79.8815 16.3381 82.2221 21.8561 82.2221 27.7256C82.2221 33.5944 79.8815 39.1125 75.6307 43.2628C71.3804 47.4127 65.7295 49.6983 59.7184 49.6983Z" fill="white"/>
<path d="M76.8003 38.2807C75.1366 36.7562 73.0392 35.7365 70.7543 35.3803C70.6776 35.3686 70.5992 35.3733 70.5245 35.394C70.4498 35.4146 70.3805 35.4508 70.3215 35.5001C70.2625 35.5493 70.2151 35.6105 70.1825 35.6793C70.15 35.7481 70.133 35.823 70.1329 35.8989V36.7088C70.1329 36.9496 69.9445 37.2225 69.697 37.2225C69.5177 37.2225 69.3384 37.2273 69.158 37.2225C68.5207 37.2128 68.4048 36.4485 68.5326 35.9985C69.8911 31.2423 70.2231 28.3573 70.2072 26.2569C70.1902 24.024 70.1329 21.7997 69.1024 18.8549C68.1096 16.0219 67.203 13.2482 62.4081 9.00877C62.0822 8.72212 61.7532 8.58294 61.3144 8.55199C60.8429 8.52005 60.4573 8.50366 59.9777 8.50366C57.9872 8.50366 56.066 8.78898 54.2506 9.32107C53.571 9.52133 53.673 9.98274 54.0467 10.2975C55.8569 11.8094 58.3111 14.082 60.0046 16.9209C58.9324 17.0223 58.1131 16.4399 57.4243 15.7955C55.1613 13.6923 52.8051 12.1925 50.9334 11.1662C50.6075 10.9882 50.2863 10.9135 49.9634 11.0946C47.9004 12.2662 46.5104 13.3681 44.8725 15.2228C44.594 15.5381 44.7743 15.7839 45.0469 15.9251C46.8374 16.8522 49.6412 18.6108 52.2125 20.895C51.6885 21.3257 50.858 21.1845 49.6543 20.5682C47.3407 19.3812 45.1164 18.698 43.4188 18.2714C43.0554 18.1803 42.6657 18.28 42.4786 18.5974C41.3917 20.4414 40.6415 22.6472 40.2868 24.8839C40.2195 25.3138 40.5188 25.6939 40.9576 25.7684C44.9142 26.4446 51.9668 28.2605 53.1381 36.1939C53.2391 36.8885 52.592 37.4991 51.74 37.1083C50.5509 36.5643 49.3629 36.0217 48.1748 35.4772C48.0501 35.4209 47.9084 35.3726 47.7714 35.3726H42.1678C41.3712 35.3726 41.043 36.1167 41.5613 36.6961C42.9088 38.2112 44.1444 39.8461 45.2015 41.579C45.2947 41.7329 45.4018 41.7918 45.585 41.7918H48.0314C48.1979 41.7918 48.3404 41.7541 48.4843 41.671C49.2531 41.2306 50.0219 40.7914 50.7927 40.3513C50.9356 40.2681 51.0781 40.2699 51.2448 40.2699H69.6851C69.9328 40.2699 70.1331 40.4256 70.1331 40.6676V41.5539C70.1331 41.8761 70.4283 42.1207 70.7544 42.0715C73.0392 41.7154 75.1367 40.6956 76.8005 39.172C76.8631 39.115 76.913 39.046 76.9472 38.9693C76.9813 38.8927 76.9989 38.81 76.9989 38.7264C76.9989 38.6428 76.9813 38.5601 76.9472 38.4834C76.913 38.4067 76.8631 38.3377 76.8005 38.2807" fill="url(#paint1_linear_596_7800)"/>
<path d="M76.8003 38.2807C75.1366 36.7562 73.0392 35.7365 70.7543 35.3803C70.6776 35.3686 70.5992 35.3733 70.5245 35.394C70.4498 35.4146 70.3805 35.4508 70.3215 35.5001C70.2625 35.5493 70.2151 35.6105 70.1825 35.6793C70.15 35.7481 70.133 35.823 70.1329 35.8989V36.7088C70.1329 36.9496 69.9445 37.2225 69.697 37.2225C69.5177 37.2225 69.3384 37.2273 69.158 37.2225C68.5207 37.2128 68.4048 36.4485 68.5326 35.9985C69.8911 31.2423 70.2231 28.3573 70.2072 26.2569C70.1902 24.024 70.1329 21.7997 69.1024 18.8549C68.1096 16.0219 67.203 13.2482 62.4081 9.00877C62.0822 8.72212 61.7532 8.58294 61.3144 8.55199C60.8429 8.52005 60.4573 8.50366 59.9777 8.50366C57.9872 8.50366 56.066 8.78898 54.2506 9.32107C53.571 9.52133 53.673 9.98274 54.0467 10.2975C55.8569 11.8094 58.3111 14.082 60.0046 16.9209C58.9324 17.0223 58.1131 16.4399 57.4243 15.7955C55.1613 13.6923 52.8051 12.1925 50.9334 11.1662C50.6075 10.9882 50.2863 10.9135 49.9634 11.0946C47.9004 12.2662 46.5104 13.3681 44.8725 15.2228C44.594 15.5381 44.7743 15.7839 45.0469 15.9251C46.8374 16.8522 49.6412 18.6108 52.2125 20.895C51.6885 21.3257 50.858 21.1845 49.6543 20.5682C47.3407 19.3812 45.1164 18.698 43.4188 18.2714C43.0554 18.1803 42.6657 18.28 42.4786 18.5974C41.3917 20.4414 40.6415 22.6472 40.2868 24.8839C40.2195 25.3138 40.5188 25.6939 40.9576 25.7684C44.9142 26.4446 51.9668 28.2605 53.1381 36.1939C53.2391 36.8885 52.592 37.4991 51.74 37.1083C50.5509 36.5643 49.3629 36.0217 48.1748 35.4772C48.0501 35.4209 47.9084 35.3726 47.7714 35.3726H42.1678C41.3712 35.3726 41.043 36.1167 41.5613 36.6961C42.9088 38.2112 44.1444 39.8461 45.2015 41.579C45.2947 41.7329 45.4018 41.7918 45.585 41.7918H48.0314C48.1979 41.7918 48.3404 41.7541 48.4843 41.671C49.2531 41.2306 50.0219 40.7914 50.7927 40.3513C50.9356 40.2681 51.0781 40.2699 51.2448 40.2699H69.6851C69.9328 40.2699 70.1331 40.4256 70.1331 40.6676V41.5539C70.1331 41.8761 70.4283 42.1207 70.7544 42.0715C73.0392 41.7154 75.1367 40.6956 76.8005 39.172C76.8631 39.115 76.913 39.046 76.9472 38.9693C76.9813 38.8927 76.9989 38.81 76.9989 38.7264C76.9989 38.6428 76.9813 38.5601 76.9472 38.4834C76.913 38.4067 76.8631 38.3377 76.8005 38.2807" stroke="#141414" stroke-width="0.850708"/>
<path d="M63.0629 35.6882C61.2465 35.6882 59.7763 34.2518 59.7763 32.4813C59.7763 30.7089 61.2465 29.273 63.0629 29.273C64.8749 29.273 66.3475 30.7089 66.3475 32.4813C66.3475 34.2518 64.8749 35.6882 63.0629 35.6882ZM75.1389 38.7243C73.8917 37.7308 72.5767 37.0884 70.9793 36.7652C70.8347 36.7362 70.7644 36.7905 70.7644 36.9357V37.014C70.7644 37.3971 70.372 37.843 69.9777 37.843H68.9402C68.0643 37.843 67.2826 37.1388 67.6067 36.0076C71.3551 22.9457 67.1668 14.8693 61.8778 10.3481C60.4412 9.12258 60.3121 9.05466 58.8803 9.10783C57.7518 9.14951 56.4291 9.28488 55.3105 9.54999C55.0905 9.60222 54.907 9.77248 55.1977 10.0107C57.9125 12.2444 61.5415 16.0951 63.2778 22.0885C63.3372 22.2965 63.2113 22.2822 63.049 22.2908C61.4943 22.3827 60.9702 21.4529 60.4846 20.8618C56.9601 16.5788 53.0087 13.9735 50.0512 12.2618C49.7569 12.0896 49.7092 12.0927 49.4852 12.2203C48.2965 12.8908 46.9616 13.9609 46.0214 14.9342C45.8252 15.1403 45.8749 15.2368 46.0917 15.3501C48.7669 16.7502 52.8353 19.5083 56.6162 24.185C56.8512 24.4743 56.867 24.6078 56.7342 24.6844C56.007 25.1071 54.7931 25.1012 53.4637 24.2925C49.8589 22.0972 46.1977 20.5426 43.3333 19.7367C43.0279 19.6496 42.9744 19.6671 42.8497 19.9224C42.1511 21.3562 41.3903 23.2197 41.1157 24.8352C41.0809 25.0462 41.0622 25.0626 41.2625 25.1022C49.1453 26.6659 53.4704 30.888 53.9638 36.5322C54.0501 37.5112 52.9156 38.4545 51.7869 38.106C50.5614 37.7259 49.3715 37.2992 48.1447 36.92C48.0142 36.8785 47.8776 36.8579 47.7403 36.8592C46.0463 36.8582 44.3499 36.8573 42.6535 36.8573C42.4276 36.8573 42.295 36.9957 42.5197 37.2734C43.8 38.8543 44.544 39.7501 45.4467 41.2284C45.5388 41.3822 45.6458 41.4412 45.8312 41.4412C46.4534 41.4412 47.0777 41.4403 47.7029 41.4403C47.9406 41.4432 48.1744 41.3809 48.3776 41.2604C49.0564 40.8724 49.731 40.5105 50.4098 40.1215C50.6256 39.9976 50.8103 39.9232 51.0597 39.9232C57.2148 39.9213 63.8119 39.9232 69.9657 39.9222C70.3581 39.9222 70.7644 40.3703 70.7644 40.756V40.889C70.7644 41.0337 70.8347 41.0881 70.9793 41.06C72.5767 40.7368 73.8915 39.988 75.1391 38.9943C75.2519 38.9035 75.2519 38.8163 75.1391 38.7245" fill="#898A8E"/>
<path d="M66.4845 32.1141C66.7809 34.0929 65.3786 35.9289 63.3523 36.2182C61.3275 36.5073 59.4455 35.1405 59.1489 33.1617C58.8526 31.1831 60.2546 29.345 62.2792 29.0559C64.3057 28.7666 66.188 30.1353 66.4845 32.1141Z" fill="url(#paint2_linear_596_7800)"/>
<path d="M63.4152 29.0635L62.3008 36.2253C63.8973 36.4472 65.5163 35.6228 66.2064 34.112C67.0404 32.2859 66.2011 30.1481 64.3321 29.3342C64.0398 29.2056 63.7315 29.1145 63.4152 29.0632V29.0635Z" fill="url(#paint3_linear_596_7800)"/>
<path d="M65.949 32.5468C65.949 33.8846 64.8366 34.9722 63.4633 34.9722C62.0912 34.9722 60.9805 33.8848 60.9805 32.5468C60.9805 31.2058 62.0909 30.1191 63.4633 30.1191C64.8366 30.1191 65.949 31.2058 65.949 32.5468Z" fill="white" stroke="#141414" stroke-width="0.850817"/>
<defs>
<linearGradient id="paint0_linear_596_7800" x1="59.8099" y1="54.4519" x2="59.6298" y2="0.997204" gradientUnits="userSpaceOnUse">
<stop stop-color="#99A2A7"/>
<stop offset="0.476" stop-color="#98A3A8"/>
<stop offset="0.535" stop-color="#E6E6E6"/>
<stop offset="1" stop-color="#E6E6E6"/>
</linearGradient>
<linearGradient id="paint1_linear_596_7800" x1="40.5818" y1="41.4863" x2="76.0481" y2="8.2523" gradientUnits="userSpaceOnUse">
<stop stop-color="#151313"/>
<stop offset="0.085" stop-color="#151313"/>
<stop offset="0.128" stop-color="#F8F1F1"/>
<stop offset="0.229" stop-color="#151313"/>
<stop offset="0.304" stop-color="#141414"/>
<stop offset="0.382" stop-color="#F8F1F1"/>
<stop offset="0.45" stop-color="#151313"/>
<stop offset="0.565" stop-color="#F8F1F4"/>
<stop offset="0.627" stop-color="#141414"/>
<stop offset="0.787" stop-color="#F8F1F1"/>
<stop offset="1" stop-color="#F8F1F2"/>
</linearGradient>
<linearGradient id="paint2_linear_596_7800" x1="62.8435" y1="31.9633" x2="66.224" y2="36.4894" gradientUnits="userSpaceOnUse">
<stop stop-color="#151313"/>
<stop offset="0.163" stop-color="#CCC4C4"/>
<stop offset="0.496" stop-color="#B7ACAD"/>
<stop offset="1" stop-color="#151313"/>
</linearGradient>
<linearGradient id="paint3_linear_596_7800" x1="63.6802" y1="31.4678" x2="58.5175" y2="33.6157" gradientUnits="userSpaceOnUse">
<stop stop-color="#151313"/>
<stop offset="0.25" stop-color="#CCC4C4"/>
<stop offset="0.5" stop-color="#B7ACAD"/>
<stop offset="1" stop-color="#151313"/>
</linearGradient>
</defs>
</svg>
