<svg xmlns="http://www.w3.org/2000/svg" width="10" height="6" viewBox="0 0 10 6" >
  <path d="M5.37182 5.82231L9.6209 1.30187C9.71925 1.19732 9.77344 1.05775 9.77344 0.90893C9.77344 0.760112 9.71925 0.620544 9.6209 0.515992L9.30805 0.183093C9.1042 -0.0335273 8.77288 -0.0335273 8.56934 0.183093L5.00122 3.97902L1.42915 0.178881C1.33079 0.0743284 1.19968 0.0166017 1.05987 0.0166017C0.919903 0.0166017 0.788788 0.0743284 0.690355 0.178881L0.377589 0.51178C0.279234 0.616415 0.22505 0.755901 0.22505 0.904719C0.22505 1.05354 0.279234 1.1931 0.377589 1.29766L4.63055 5.82231C4.72921 5.92711 4.86095 5.98467 5.00099 5.98434C5.14158 5.98467 5.27323 5.92711 5.37182 5.82231Z" />
</svg>