<svg width="15" height="14" viewBox="0 0 15 14" xmlns="http://www.w3.org/2000/svg">
<path d="M10.9863 8.47004C10.7561 8.32925 10.4111 8.36809 10.2193 8.55742L8.69416 10.0575C8.60172 10.1485 8.47636 10.1997 8.34565 10.1997C8.21494 10.1997 8.08958 10.1485 7.99714 10.0575L4.57075 6.68352C4.47834 6.59248 4.42642 6.46902 4.42642 6.34029C4.42642 6.21156 4.47834 6.08811 4.57075 5.99707L6.00667 4.58339C6.19891 4.39405 6.22701 4.06151 6.07075 3.84353L3.45819 0.196215C3.42206 0.144675 3.37549 0.101049 3.32142 0.0680741C3.26736 0.0350997 3.20695 0.0134895 3.144 0.00460007C3.08105 -0.00428933 3.01691 -0.000265932 2.95561 0.0164176C2.89431 0.0331012 2.83718 0.0620847 2.7878 0.101549C2.7878 0.101549 0.75 1.69388 0.75 3.15757C0.75 9.14581 5.67936 14 11.7587 14C13.2449 14 14.6907 11.3134 14.6907 11.3134C14.7517 11.1967 14.7662 11.0618 14.7316 10.935C14.697 10.8083 14.6156 10.6988 14.5034 10.6279L10.9863 8.47004Z" />
</svg>
