<svg width="12" height="16" viewBox="0 0 12 16"  xmlns="http://www.w3.org/2000/svg">
<path d="M5.51665 0C4.05354 0 2.65036 0.616442 1.61579 1.71372C0.581217 2.81099 0 4.29921 0 5.85099C0 10.5875 5.51665 15.0454 5.51665 15.0454C5.51665 15.0454 11.0333 10.5875 11.0333 5.85099C11.0333 4.29921 10.4521 2.81099 9.41751 1.71372C8.38294 0.616442 6.97976 0 5.51665 0ZM5.51665 8.63718C4.99708 8.63718 4.48918 8.47377 4.05718 8.16762C3.62518 7.86147 3.28847 7.42633 3.08964 6.91722C2.89081 6.40811 2.83879 5.8479 2.94015 5.30743C3.04151 4.76697 3.29171 4.27052 3.6591 3.88086C4.02649 3.49121 4.49457 3.22585 5.00415 3.11834C5.51374 3.01084 6.04193 3.06601 6.52195 3.27689C7.00197 3.48777 7.41224 3.84488 7.7009 4.30307C7.98956 4.76126 8.14362 5.29994 8.14362 5.85099C8.14362 6.58994 7.86686 7.29861 7.3742 7.82112C6.88155 8.34364 6.21337 8.63718 5.51665 8.63718Z" />
</svg>
