<svg width="156" height="48" viewBox="0 0 156 48" xmlns="http://www.w3.org/2000/svg">
<path d="M79.4336 21.3005V20.7489C79.6547 20.6417 79.8923 20.5505 80.1465 20.473C80.3979 20.3955 80.6411 20.3477 80.8759 20.3271V12.1203C80.6411 12.0815 80.3952 12.0268 80.1381 11.9538C79.8812 11.8809 79.6464 11.7965 79.4336 11.7008V11.1491H82.263C82.7078 11.1491 83.1306 11.1354 83.5285 11.1058C83.9263 11.0762 84.3849 11.0625 84.8989 11.0625C85.4626 11.0625 86.0068 11.0967 86.5347 11.1651C87.0624 11.2335 87.5292 11.3543 87.9409 11.5276C88.3499 11.7008 88.6787 11.947 88.9246 12.2593C89.1705 12.5739 89.2948 12.9774 89.2948 13.4698C89.2948 13.7799 89.2285 14.0671 89.0931 14.3338C88.9577 14.6006 88.7698 14.8354 88.5295 15.0383C88.2891 15.2412 88.0073 15.4098 87.6868 15.5466C87.3636 15.6834 87.0154 15.7792 86.6396 15.8361V15.8931C87.0154 15.9319 87.3938 16.0048 87.7724 16.112C88.1537 16.2191 88.4964 16.3741 88.8002 16.5748C89.1043 16.7776 89.3528 17.033 89.5462 17.3362C89.7396 17.6416 89.8364 18.0018 89.8364 18.4168C89.8364 18.9388 89.6955 19.3879 89.4137 19.7664C89.1319 20.1425 88.7533 20.4525 88.2809 20.6941C87.8055 20.9357 87.2641 21.1113 86.6562 21.223C86.0456 21.3347 85.4128 21.3894 84.758 21.3894C84.5121 21.3894 84.2413 21.3849 83.9484 21.3758C83.6555 21.3667 83.3626 21.3576 83.0698 21.3461C82.7769 21.337 82.4923 21.3279 82.216 21.3165C81.9397 21.3074 81.7104 21.3028 81.5225 21.3028H79.4336V21.3005ZM83.9706 15.6743C84.1695 15.6743 84.3684 15.6674 84.5673 15.6515C84.7662 15.6378 84.9541 15.6196 85.1309 15.6013C85.5869 15.4463 85.9572 15.207 86.239 14.8832C86.5208 14.5595 86.6617 14.1902 86.6617 13.773C86.6617 13.1644 86.4683 12.7175 86.0815 12.4326C85.6946 12.1476 85.1973 12.004 84.5867 12.004C84.3298 12.004 84.106 12.0086 83.9181 12.0177C83.7302 12.0268 83.5616 12.0428 83.4069 12.061V15.672H83.9706V15.6743ZM84.7442 20.4457C85.4819 20.4457 86.0621 20.2656 86.4849 19.9008C86.9076 19.5384 87.1175 19.0574 87.1175 18.4577C87.1175 18.0908 87.0485 17.7876 86.9076 17.5505C86.7667 17.3134 86.5733 17.1242 86.3274 16.9851C86.0815 16.846 85.7885 16.748 85.4487 16.6956C85.1089 16.6432 84.7386 16.6158 84.3408 16.6158H83.4096V20.3431C83.5726 20.3728 83.7467 20.3955 83.9291 20.4161C84.1086 20.4365 84.3794 20.4457 84.7442 20.4457Z" />
<path d="M91.0371 17.6736C91.0371 17.0832 91.1449 16.5543 91.3632 16.0847C91.5787 15.615 91.8909 15.2161 92.2943 14.8878C92.6977 14.5596 93.1867 14.3065 93.7615 14.1333C94.3362 13.96 94.9855 13.8711 95.7122 13.8711C96.5327 13.8711 97.2374 13.9646 97.8314 14.1538C98.4227 14.343 98.9089 14.6029 99.2902 14.938C99.6716 15.2708 99.9506 15.672 100.125 16.1416C100.301 16.6113 100.387 17.1196 100.387 17.6713C100.387 18.2618 100.282 18.7906 100.069 19.2602C99.8595 19.7298 99.55 20.1288 99.1466 20.4571C98.7431 20.7854 98.2487 21.0384 97.6712 21.2117C97.0908 21.3849 96.4388 21.4738 95.7122 21.4738C94.9137 21.4738 94.2229 21.3803 93.6371 21.1911C93.0513 21.0019 92.565 20.7421 92.1782 20.4069C91.7914 20.0742 91.5041 19.6729 91.3162 19.2033C91.131 18.7359 91.0371 18.2253 91.0371 17.6736ZM93.7642 17.6736C93.7642 18.109 93.7974 18.5079 93.8609 18.8705C93.9245 19.2329 94.0405 19.5406 94.2036 19.7914C94.3666 20.0422 94.5904 20.2383 94.8722 20.3796C95.154 20.5209 95.5159 20.5893 95.9609 20.5893C96.2178 20.5893 96.4526 20.5392 96.6654 20.4366C96.8754 20.334 97.0577 20.1699 97.2097 19.9441C97.3616 19.7162 97.4749 19.4176 97.5523 19.0459C97.6297 18.6744 97.6656 18.2162 97.6656 17.6759C97.6656 17.2313 97.6324 16.8301 97.5689 16.4722C97.5054 16.1143 97.392 15.8111 97.2346 15.5581C97.0771 15.3073 96.8615 15.1112 96.5935 14.9699C96.3228 14.8308 95.9829 14.7602 95.5739 14.7602C95.27 14.7602 95.0048 14.8103 94.7838 14.9129C94.56 15.0132 94.3748 15.1796 94.2228 15.4053C94.0709 15.6333 93.9549 15.9319 93.8802 16.3035C93.8001 16.6774 93.7642 17.1333 93.7642 17.6736Z" />
<path d="M102.112 11.5826L100.777 11.4663V10.9146C100.951 10.8576 101.184 10.7984 101.471 10.7414C101.758 10.6844 102.057 10.6319 102.366 10.5886C102.676 10.5453 102.982 10.5066 103.281 10.4724C103.579 10.4382 103.833 10.4131 104.046 10.3926H104.643V15.4102H104.679C104.914 14.9269 105.27 14.5484 105.751 14.2794C106.232 14.0082 106.801 13.8736 107.456 13.8736C108.486 13.8736 109.29 14.1677 109.865 14.7582C110.44 15.3486 110.727 16.2422 110.727 17.4414C110.727 18.7659 110.301 19.762 109.453 20.4301C108.602 21.098 107.359 21.4308 105.718 21.4308C105.425 21.4308 105.096 21.4149 104.734 21.3807C104.369 21.3465 104.018 21.3054 103.678 21.2575C103.339 21.2097 103.024 21.1504 102.739 21.0843C102.452 21.0159 102.244 20.9475 102.115 20.8813V11.5826H102.112ZM106.312 15.0363C105.867 15.0363 105.51 15.1685 105.24 15.4352C104.969 15.702 104.77 16.0371 104.643 16.4428V20.2864C104.806 20.3821 105.01 20.4596 105.251 20.5189C105.491 20.5759 105.762 20.6055 106.069 20.6055C106.737 20.6055 107.226 20.3593 107.536 19.8646C107.845 19.3723 108.003 18.5971 108.003 17.5439C108.003 16.7802 107.875 16.1716 107.624 15.7156C107.37 15.262 106.933 15.0363 106.312 15.0363Z" />
<path d="M116.367 15.718C116.226 15.7773 116.063 15.873 115.875 16.0098C115.688 16.1466 115.519 16.3677 115.367 16.6777V20.4028C115.602 20.4232 115.834 20.4574 116.069 20.5122C116.304 20.5646 116.539 20.6466 116.774 20.7516V21.3032H111.676V20.7492C111.886 20.6512 112.085 20.5782 112.273 20.5304C112.46 20.4825 112.648 20.437 112.836 20.3982V15.0637L111.676 14.9475V14.3958C111.864 14.3274 112.096 14.2658 112.369 14.2066C112.646 14.1496 112.927 14.0971 113.22 14.0538C113.513 14.0105 113.798 13.974 114.074 13.9444C114.35 13.9148 114.58 13.892 114.768 13.8715H115.364V15.8001H115.433C115.527 15.5881 115.666 15.3646 115.845 15.1321C116.028 14.8996 116.24 14.6876 116.486 14.4938C116.732 14.3 117.003 14.145 117.296 14.0288C117.589 13.9125 117.892 13.8601 118.21 13.8692C118.34 14.0037 118.451 14.1952 118.545 14.4414C118.638 14.6876 118.713 14.9224 118.774 15.1458V15.7112H116.367V15.718Z" />
<path d="M124.244 21.3011H119.393V20.7494C119.569 20.6719 119.749 20.6057 119.937 20.5533C120.125 20.5009 120.329 20.4485 120.553 20.4006V15.0662L119.393 14.9499V14.3982C119.569 14.3412 119.788 14.282 120.053 14.225C120.315 14.168 120.595 14.1155 120.887 14.0722C121.18 14.0289 121.468 13.9901 121.749 13.956C122.031 13.9218 122.277 13.8967 122.487 13.8762H123.084V20.4029C123.319 20.4507 123.529 20.5032 123.717 20.5556C123.905 20.6104 124.079 20.6741 124.244 20.7516V21.3011ZM120.288 11.6694C120.288 11.332 120.426 11.0653 120.705 10.8715C120.981 10.6778 121.343 10.582 121.783 10.582C122.222 10.582 122.581 10.6778 122.86 10.8715C123.139 11.0653 123.277 11.332 123.277 11.6694C123.277 11.9977 123.139 12.2599 122.86 12.4536C122.581 12.6474 122.222 12.7432 121.783 12.7432C121.343 12.7432 120.984 12.6474 120.705 12.4536C120.429 12.2599 120.288 12 120.288 11.6694Z" />
<path d="M130.343 14.0489H134.457V14.6005C134.234 14.678 134.026 14.7464 133.833 14.8057C133.64 14.865 133.427 14.9129 133.192 14.9516C133.015 15.1454 132.825 15.3392 132.619 15.5284C132.415 15.7176 132.211 15.9 132.003 16.0755C131.799 16.251 131.603 16.4197 131.416 16.5793C131.227 16.7389 131.059 16.8825 130.903 17.0102C131.081 17.2039 131.285 17.4387 131.519 17.71C131.754 17.9813 132.006 18.2708 132.277 18.5763C132.547 18.8818 132.83 19.1918 133.131 19.5086C133.429 19.8233 133.731 20.1219 134.037 20.4046L134.932 20.7534V21.3051H131.962L131.487 20.9563C131.217 20.6577 130.978 20.375 130.774 20.115C130.57 19.8529 130.385 19.6021 130.222 19.3605C130.055 19.1189 129.899 18.884 129.746 18.6561C129.594 18.4281 129.442 18.2047 129.29 17.9813L128.71 17.8354V20.4001C128.909 20.4297 129.091 20.473 129.254 20.5322C129.417 20.5915 129.594 20.6622 129.782 20.7511V21.3028H125.019V20.7489C125.406 20.5938 125.792 20.4776 126.179 20.4001V11.5845L124.842 11.4683V10.9166C125.005 10.8596 125.229 10.8003 125.511 10.7433C125.792 10.6863 126.091 10.6339 126.408 10.5906C126.726 10.5473 127.036 10.5085 127.34 10.4743C127.644 10.4401 127.903 10.415 128.113 10.3945H128.71V17.1971H129.166C129.553 16.8574 129.911 16.4813 130.246 16.0732C130.58 15.6651 130.877 15.2913 131.133 14.9493C130.982 14.9106 130.843 14.8627 130.719 14.8034C130.597 14.7464 130.47 14.678 130.34 14.5983V14.0489H130.343Z" />
<path d="M135.213 17.6736C135.213 17.0832 135.321 16.5543 135.539 16.0847C135.754 15.615 136.066 15.2161 136.471 14.8878C136.874 14.5596 137.362 14.3065 137.937 14.1333C138.512 13.96 139.162 13.8711 139.888 13.8711C140.708 13.8711 141.413 13.9646 142.007 14.1538C142.598 14.343 143.085 14.6029 143.466 14.938C143.847 15.2708 144.127 15.672 144.3 16.1416C144.477 16.6113 144.563 17.1196 144.563 17.6713C144.563 18.2618 144.458 18.7906 144.245 19.2602C144.036 19.7298 143.725 20.1288 143.322 20.4571C142.919 20.7854 142.424 21.0384 141.846 21.2117C141.266 21.3849 140.614 21.4738 139.888 21.4738C139.09 21.4738 138.398 21.3803 137.813 21.1911C137.228 21.0019 136.741 20.7421 136.354 20.4069C135.967 20.0742 135.68 19.6729 135.491 19.2033C135.307 18.7359 135.213 18.2253 135.213 17.6736ZM137.937 17.6736C137.937 18.109 137.971 18.5079 138.034 18.8705C138.098 19.2329 138.213 19.5406 138.376 19.7914C138.539 20.0422 138.764 20.2383 139.045 20.3796C139.327 20.5187 139.689 20.5893 140.134 20.5893C140.391 20.5893 140.626 20.5392 140.839 20.4366C141.048 20.334 141.23 20.1699 141.383 19.9441C141.535 19.7162 141.648 19.4176 141.726 19.0459C141.803 18.6744 141.839 18.2162 141.839 17.6759C141.839 17.2313 141.805 16.8301 141.742 16.4722C141.678 16.1143 141.565 15.8111 141.408 15.5581C141.25 15.3073 141.034 15.1112 140.767 14.9699C140.496 14.8308 140.156 14.7602 139.747 14.7602C139.443 14.7602 139.178 14.8103 138.956 14.9129C138.733 15.0132 138.548 15.1796 138.396 15.4053C138.244 15.6333 138.127 15.9319 138.053 16.3035C137.976 16.6774 137.937 17.1333 137.937 17.6736Z" />
<path d="M149.12 21.4774L145.602 14.9506C145.262 14.8549 144.953 14.7386 144.672 14.6018V14.0501H149.294V14.5859C149.142 14.6542 148.988 14.7204 148.827 14.7819C148.669 14.8457 148.49 14.9005 148.291 14.9483L149.927 18.6733L150.261 19.6467H150.297L150.579 18.6574L152.074 14.9483C151.885 14.9096 151.715 14.8617 151.554 14.8024C151.397 14.7432 151.248 14.677 151.107 14.5995V14.0479H154.5V14.5995C154.384 14.6679 154.24 14.7295 154.068 14.7887C153.898 14.8457 153.709 14.9005 153.496 14.9483L150.421 21.2996L149.12 21.4774Z" />
<path d="M79.4336 35.5059V34.9542C79.6574 34.847 79.8923 34.7559 80.1465 34.6784C80.3979 34.6008 80.6411 34.553 80.8759 34.5324V26.3234C80.6411 26.2846 80.3952 26.2299 80.1381 26.157C79.8812 26.084 79.6464 25.9996 79.4336 25.9039V25.3522H82.263C82.7078 25.3522 83.1306 25.3386 83.5285 25.3089C83.9263 25.2793 84.3849 25.2656 84.8989 25.2656C85.4626 25.2656 86.0068 25.2998 86.5347 25.3681C87.0624 25.4365 87.5292 25.5573 87.9409 25.7307C88.3499 25.9039 88.6787 26.1501 88.9246 26.4624C89.1705 26.777 89.2948 27.1805 89.2948 27.6729C89.2948 27.9829 89.2285 28.2702 89.0931 28.5369C88.9577 28.8036 88.7698 29.0385 88.5295 29.2413C88.2891 29.4442 88.0073 29.6129 87.6868 29.7497C87.3636 29.8865 87.0154 29.9822 86.6396 30.0393V30.0962C87.0154 30.135 87.3938 30.208 87.7724 30.3151C88.1537 30.4223 88.4964 30.5773 88.8002 30.7778C89.1043 30.9807 89.3528 31.2361 89.5462 31.5392C89.7396 31.8447 89.8364 32.2049 89.8364 32.6199C89.8364 33.1419 89.6955 33.5909 89.4137 33.9694C89.1319 34.3456 88.7533 34.6556 88.2809 34.8972C87.8055 35.1388 87.2641 35.3144 86.6562 35.4261C86.0456 35.5378 85.4128 35.5926 84.758 35.5926C84.5121 35.5926 84.2413 35.588 83.9484 35.5789C83.6555 35.5697 83.3626 35.5606 83.0698 35.5492C82.7769 35.5401 82.4923 35.5309 82.216 35.5196C81.9397 35.5105 81.7104 35.5059 81.5225 35.5059H79.4336ZM83.9706 29.8774C84.1695 29.8774 84.3684 29.8705 84.5673 29.8546C84.7662 29.8409 84.9541 29.8226 85.1309 29.8044C85.5869 29.6494 85.9572 29.41 86.239 29.0863C86.5208 28.7626 86.6617 28.3933 86.6617 27.9761C86.6617 27.3674 86.4683 26.9206 86.0815 26.6357C85.6946 26.3507 85.1973 26.207 84.5867 26.207C84.3298 26.207 84.106 26.2117 83.9181 26.2208C83.7302 26.2299 83.5616 26.2458 83.4069 26.2641V29.8751H83.9706V29.8774ZM84.7442 34.6487C85.4819 34.6487 86.0621 34.4686 86.4849 34.1039C86.9076 33.7414 87.1175 33.2605 87.1175 32.6608C87.1175 32.2939 87.0485 31.9906 86.9076 31.7535C86.7667 31.5165 86.5733 31.3272 86.3274 31.1882C86.0815 31.0491 85.7885 30.9511 85.4487 30.8986C85.1089 30.8462 84.7386 30.8189 84.3408 30.8189H83.4096V34.5461C83.5726 34.5758 83.7467 34.5986 83.9291 34.6191C84.1086 34.6396 84.3794 34.6487 84.7442 34.6487Z" />
<path d="M95.5892 29.9208C95.4483 29.98 95.2853 30.0758 95.0974 30.2126C94.9095 30.3494 94.741 30.5705 94.5891 30.8805V34.6055C94.8239 34.626 95.0588 34.6602 95.2936 34.715C95.5285 34.7674 95.7633 34.8494 95.9982 34.9542V35.506H90.9004V34.9542C91.1103 34.8563 91.3093 34.7834 91.4971 34.7355C91.685 34.6875 91.873 34.642 92.0609 34.6032V29.2687L90.9004 29.1525V28.6008C91.0883 28.5324 91.3203 28.4709 91.5939 28.4116C91.8702 28.3546 92.152 28.3022 92.4449 28.2589C92.7377 28.2156 93.0224 28.1791 93.2987 28.1494C93.575 28.1198 93.8043 28.097 93.9922 28.0765H94.5891V30.0051H94.6581C94.7521 29.7931 94.8901 29.5696 95.0698 29.3371C95.2522 29.1046 95.4649 28.8926 95.7108 28.6989C95.9567 28.5051 96.2275 28.3501 96.5204 28.2338C96.8132 28.1176 97.1172 28.0651 97.435 28.0743C97.5647 28.2087 97.6754 28.4003 97.7693 28.6464C97.8632 28.8926 97.9378 29.1275 97.9986 29.3509V29.9162H95.5892V29.9208Z" />
<path d="M98.6113 31.8788C98.6113 31.2883 98.7191 30.7594 98.9374 30.2898C99.1529 29.8202 99.4651 29.4212 99.8685 29.093C100.272 28.7647 100.761 28.5117 101.336 28.3383C101.91 28.1651 102.56 28.0762 103.286 28.0762C104.107 28.0762 104.812 28.1697 105.406 28.3589C105.997 28.5481 106.483 28.808 106.865 29.1432C107.246 29.476 107.525 29.8771 107.699 30.3467C107.876 30.8164 107.961 31.3248 107.961 31.8764C107.961 32.4668 107.856 32.9957 107.644 33.4654C107.434 33.935 107.124 34.334 106.721 34.6622C106.317 34.9905 105.823 35.2435 105.245 35.4168C104.665 35.5901 104.013 35.6789 103.286 35.6789C102.488 35.6789 101.797 35.5854 101.211 35.3963C100.626 35.2071 100.139 34.9472 99.7525 34.612C99.3657 34.2793 99.0783 33.878 98.8905 33.4084C98.7053 32.9411 98.6113 32.4304 98.6113 31.8788ZM101.338 31.8788C101.338 32.3142 101.372 32.7131 101.435 33.0756C101.499 33.438 101.615 33.7458 101.778 33.9965C101.941 34.2473 102.165 34.4434 102.446 34.5847C102.728 34.7261 103.09 34.7945 103.535 34.7945C103.792 34.7945 104.027 34.7443 104.24 34.6417C104.45 34.5391 104.632 34.375 104.784 34.1493C104.936 33.9214 105.049 33.6227 105.127 33.2511C105.204 32.8795 105.24 32.4213 105.24 31.881C105.24 31.4365 105.207 31.0352 105.143 30.6773C105.08 30.3194 104.966 30.0163 104.809 29.7632C104.651 29.5124 104.436 29.3164 104.168 29.175C103.897 29.036 103.557 28.9653 103.148 28.9653C102.844 28.9653 102.579 29.0155 102.358 29.1181C102.134 29.2183 101.949 29.3848 101.797 29.6104C101.645 29.8384 101.529 30.1371 101.455 30.5086C101.374 30.8802 101.338 31.3384 101.338 31.8788Z" />
<path d="M108.546 28.6143C108.991 28.3749 109.46 28.2062 109.952 28.1082V26.9341C110.021 26.8772 110.143 26.8202 110.311 26.7677C110.48 26.7153 110.662 26.6674 110.856 26.6218C111.049 26.5785 111.24 26.5375 111.428 26.4987C111.615 26.46 111.767 26.4303 111.883 26.4121H112.48V28.2541H114.801V29.1978H112.48V32.9342C112.48 33.5315 112.571 33.9441 112.754 34.1744C112.936 34.4046 113.237 34.5209 113.66 34.5209C113.87 34.5209 114.108 34.5094 114.373 34.4845C114.638 34.4594 114.879 34.4137 115.102 34.3477L115.224 34.8264C115.119 34.913 114.964 35.0065 114.757 35.1022C114.553 35.198 114.318 35.2914 114.055 35.378C113.79 35.4647 113.503 35.5377 113.193 35.5969C112.884 35.6539 112.558 35.6835 112.218 35.6835C111.455 35.6835 110.886 35.5194 110.513 35.1935C110.137 34.8651 109.949 34.3362 109.949 33.6045V29.1956H108.543V28.6143H108.546Z" />
<path d="M126.46 35.5059H121.801V34.9542C121.942 34.8858 122.089 34.8243 122.241 34.765C122.393 34.7081 122.569 34.6533 122.768 34.6055V31.6692C122.768 30.8348 122.672 30.2217 122.478 29.8295C122.285 29.4374 121.906 29.2414 121.345 29.2414C120.876 29.2414 120.478 29.3759 120.149 29.6403C119.82 29.907 119.585 30.2148 119.444 30.5636V34.6055C119.632 34.6442 119.798 34.6875 119.945 34.7354C120.091 34.7832 120.246 34.8562 120.412 34.9542V35.5059H115.753V34.9542C116.115 34.7992 116.502 34.683 116.914 34.6055V25.7877L115.576 25.6714V25.1197C115.753 25.0627 115.977 25.0034 116.253 24.9464C116.529 24.8895 116.82 24.8371 117.123 24.7938C117.427 24.7503 117.734 24.7116 118.038 24.6775C118.342 24.6433 118.613 24.6182 118.848 24.5977H119.444V29.7179H119.461C119.577 29.4945 119.737 29.2847 119.936 29.0864C120.135 28.8881 120.362 28.7147 120.613 28.5643C120.865 28.4138 121.138 28.2953 121.431 28.2087C121.724 28.122 122.033 28.0787 122.362 28.0787C122.832 28.0787 123.249 28.1243 123.619 28.2178C123.99 28.309 124.296 28.4709 124.542 28.7034C124.788 28.9359 124.976 29.2482 125.106 29.6403C125.236 30.0324 125.299 30.5294 125.299 31.129V34.6031C125.498 34.6419 125.697 34.6853 125.896 34.7331C126.095 34.781 126.283 34.854 126.46 34.952V35.5059Z" />
<path d="M135.214 34.2857C135.12 34.4499 134.971 34.6162 134.766 34.7872C134.562 34.9559 134.31 35.1064 134.009 35.2363C133.711 35.3663 133.366 35.4735 132.973 35.5555C132.58 35.6376 132.156 35.6786 131.699 35.6786C130.972 35.6786 130.329 35.5897 129.765 35.4096C129.201 35.2317 128.734 34.9741 128.359 34.6413C127.983 34.3085 127.698 33.9096 127.505 33.4445C127.311 32.9795 127.215 32.4574 127.215 31.8784C127.215 30.6405 127.607 29.699 128.392 29.0493C129.177 28.4018 130.268 28.0781 131.66 28.0781C132.257 28.0781 132.818 28.1465 133.34 28.281C133.862 28.4155 134.296 28.6389 134.641 28.9489C134.987 29.259 135.228 29.6648 135.363 30.1664C135.499 30.6702 135.487 31.2833 135.336 32.0083H129.939C129.951 32.7719 130.188 33.3807 130.651 33.8366C131.113 34.2902 131.799 34.5182 132.7 34.5182C133.086 34.5182 133.486 34.4703 133.903 34.3723C134.322 34.2765 134.645 34.149 134.88 33.9962L135.214 34.2857ZM131.583 28.9056C131.351 28.9056 131.144 28.9398 130.962 29.0082C130.782 29.0766 130.625 29.1997 130.488 29.3775C130.354 29.5576 130.249 29.797 130.165 30.1025C130.083 30.408 130.025 30.791 129.992 31.256H132.805C132.887 30.5014 132.834 29.9224 132.647 29.5143C132.462 29.1086 132.105 28.9056 131.583 28.9056Z" />
<path d="M141.207 29.9208C141.066 29.98 140.903 30.0758 140.715 30.2126C140.527 30.3494 140.359 30.5705 140.206 30.8805V34.6055C140.442 34.626 140.677 34.6602 140.912 34.715C141.147 34.7674 141.381 34.8494 141.616 34.9542V35.506H136.518V34.9542C136.728 34.8563 136.927 34.7834 137.114 34.7355C137.303 34.6875 137.49 34.642 137.678 34.6032V29.2687L136.518 29.1525V28.6008C136.706 28.5324 136.937 28.4709 137.212 28.4116C137.488 28.3546 137.77 28.3022 138.063 28.2589C138.355 28.2156 138.64 28.1791 138.916 28.1494C139.192 28.1198 139.422 28.097 139.609 28.0765H140.206V30.0051H140.275C140.37 29.7931 140.507 29.5696 140.687 29.3371C140.869 29.1046 141.082 28.8926 141.329 28.6989C141.574 28.5051 141.845 28.3501 142.137 28.2338C142.431 28.1176 142.734 28.0651 143.052 28.0743C143.182 28.2087 143.292 28.4003 143.387 28.6464C143.481 28.8926 143.555 29.1275 143.616 29.3509V29.9162H141.207V29.9208Z" />
<path d="M148.75 33.9236C148.75 33.6729 148.642 33.454 148.424 33.2716C148.205 33.0892 147.938 32.9182 147.614 32.7632C147.291 32.6082 146.939 32.4532 146.558 32.2982C146.177 32.1432 145.826 31.9631 145.503 31.7533C145.18 31.5459 144.911 31.3019 144.693 31.0215C144.475 30.7412 144.367 30.3969 144.367 29.9912C144.367 29.7016 144.451 29.4372 144.614 29.2001C144.777 28.9631 145 28.7624 145.282 28.5983C145.563 28.4342 145.901 28.3065 146.294 28.213C146.685 28.1218 147.111 28.0762 147.567 28.0762C148.199 28.0762 148.788 28.1173 149.333 28.1993C149.877 28.2814 150.354 28.3954 150.766 28.539C150.72 28.849 150.625 29.1796 150.485 29.5329C150.344 29.8863 150.208 30.2077 150.081 30.4972H149.484L148.746 29.0177C148.606 28.9698 148.46 28.938 148.307 28.9243C148.156 28.9105 147.984 28.9014 147.796 28.9014C147.445 28.9014 147.178 28.9858 146.998 29.1545C146.815 29.3232 146.724 29.5147 146.724 29.7267C146.724 29.9683 146.831 30.1781 147.049 30.3582C147.265 30.5383 147.536 30.7047 147.859 30.8574C148.183 31.0124 148.534 31.1674 148.915 31.3225C149.297 31.4775 149.647 31.653 149.97 31.8513C150.294 32.0497 150.562 32.2845 150.78 32.5558C150.998 32.8271 151.106 33.1507 151.106 33.527C151.106 34.1949 150.778 34.7192 150.123 35.1C149.465 35.4806 148.587 35.6722 147.487 35.6722C146.922 35.6722 146.342 35.6243 145.746 35.5262C145.149 35.4304 144.633 35.2937 144.199 35.1204C144.221 34.7716 144.322 34.4206 144.497 34.0604C144.674 33.7025 144.859 33.3833 145.06 33.1029H145.657L146.519 34.6828C146.649 34.7603 146.793 34.8058 146.951 34.8195C147.109 34.8332 147.257 34.8423 147.399 34.8423C147.739 34.8423 148.048 34.7603 148.329 34.5961C148.609 34.441 148.75 34.2131 148.75 33.9236Z" />
<path d="M40.7859 23.4205V23.3203C47.4171 22.4289 50.7327 19.707 50.7327 15.1613C50.7327 12.2136 49.3346 10.114 46.5412 8.87162C43.7478 7.62235 39.5618 7 33.9723 7H30.7285C33.5163 7.40806 36.1743 8.01446 37.2326 8.91721C37.2962 8.96965 37.3542 9.01752 37.4067 9.07223C37.5172 9.17937 37.6195 9.29564 37.7106 9.41646C38.4372 10.3944 38.7993 12.1088 38.7993 14.564V16.9007C38.7993 19.0573 38.4069 20.6667 37.5642 21.7039C36.2821 23.2701 31.6265 23.7238 31.6265 23.7238C31.6265 23.7238 37.2603 24.2754 38.7993 25.8598C39.8685 26.9654 40.4295 28.5954 40.4295 30.7839V33.4192C40.4295 35.8744 39.9845 37.7324 39.1031 38.993C38.2218 40.2515 36.6689 40.8852 34.4613 40.8852H31.6292V41.8312H33.6766C39.863 41.8312 44.6099 41.1086 47.9062 39.6633C51.2024 38.2225 52.852 35.6943 52.852 32.0765C52.8465 27.1342 48.8263 24.2503 40.7859 23.4205Z" />
<path d="M25.3479 23.4205V23.3203C31.9791 22.4289 35.2947 19.707 35.2947 15.1613C35.2947 12.2136 33.8966 10.114 31.1032 8.87162C28.3098 7.62235 24.1183 7 18.5288 7H0.5V7.94607H4.42073V40.8828H0.5V41.8289H18.2331C24.4195 41.8289 29.1663 41.1063 32.4627 39.6609C35.7589 38.2202 37.4085 35.692 37.4085 32.0742C37.4057 27.1342 33.3827 24.2503 25.3479 23.4205ZM16.1774 7.94607H18.1087C20.1561 7.94607 21.546 8.44076 22.2671 9.41874C22.9882 10.3967 23.3557 12.111 23.3557 14.5663V16.9029C23.3557 19.0595 22.9441 20.6598 22.1207 21.7063C21.2973 22.7481 19.8356 23.2724 17.7495 23.2724H16.1774V7.94607ZM24.9803 33.4192C24.9803 35.8744 24.5439 37.7324 23.6541 38.993C22.7727 40.2515 21.2254 40.8852 19.0122 40.8852H16.1774V24.2207H17.5672C20.3357 24.2207 22.2671 24.7678 23.3557 25.8621C24.4361 26.9563 24.9776 28.5977 24.9776 30.7862V33.4192H24.9803Z" />
<path d="M63.5501 8.16309H62.5234V42.0459H63.5501V8.16309Z" />
</svg>
