<svg xmlns="http://www.w3.org/2000/svg" width="20" height="14" viewBox="0 0 20 14">
  <path d="M13.9062 1.05857C13.5875 0.74782 13.0792 0.747819 12.7604 1.05857C12.4303 1.38045 12.4301 1.91105 12.7599 2.23322L16.8083 6.1875L0.812499 6.1875C0.363768 6.1875 -2.31539e-08 6.55127 -2.48708e-08 7C-2.65878e-08 7.44873 0.363769 7.8125 0.8125 7.8125L16.8083 7.8125L12.7599 11.7668C12.4301 12.089 12.4303 12.6196 12.7604 12.9414C13.0792 13.2522 13.5875 13.2522 13.9062 12.9414L19.2656 7.716C19.6682 7.32353 19.6682 6.67647 19.2656 6.284L13.9062 1.05857Z" />
</svg>