<svg width="72" height="72" viewBox="0 0 72 72" fill="none" xmlns="http://www.w3.org/2000/svg">
<path fill-rule="evenodd" clip-rule="evenodd" d="M3.03849 69.4006C6.51154 72.8737 12.1427 72.8737 15.6157 69.4006L32.9918 52.0246C33.2555 51.7609 33.4037 51.4032 33.4037 51.0302C33.4036 50.6572 33.2555 50.2996 32.9918 50.0358L22.4031 39.4473C21.8539 38.8982 20.9636 38.8982 20.4144 39.4473L3.03851 56.8234C-0.434725 60.2964 -0.43469 65.9275 3.03849 69.4006ZM13.627 67.4119C11.2523 69.7866 7.40192 69.7866 5.02722 67.4119C2.65237 65.037 2.65241 61.1868 5.0272 58.8122L21.4088 42.4305L30.0087 51.0302L13.627 67.4119Z" fill="#1C54C7"/>
<path fill-rule="evenodd" clip-rule="evenodd" d="M29.2279 50.2476C29.7771 50.7968 30.6674 50.7968 31.2166 50.2476L35.071 46.3934C35.6202 45.8442 35.6202 44.9538 35.071 44.4046C34.5219 43.8554 33.6315 43.8554 33.0823 44.4046L30.2223 47.2645L25.1762 42.2186L30.8488 36.5461C31.3979 35.9969 31.3979 35.1065 30.8488 34.5573C30.2996 34.0082 29.4092 34.0082 28.86 34.5573L22.1931 41.2242C21.9294 41.488 21.7812 41.8456 21.7812 42.2186C21.7813 42.5916 21.9294 42.9493 22.1931 43.213L29.2279 50.2476Z" fill="#1C54C7"/>
<path fill-rule="evenodd" clip-rule="evenodd" d="M44.2806 35.1958C44.8298 35.745 45.7202 35.745 46.2694 35.1958L52.5798 28.8854C52.8435 28.6217 52.9917 28.264 52.9917 27.8911C52.9917 27.5181 52.8435 27.1604 52.5798 26.8967L45.545 19.8621C44.9958 19.3129 44.1055 19.3129 43.5563 19.8621L34.5916 28.8266C34.0424 29.3758 34.0424 30.2662 34.5916 30.8154C35.1407 31.3645 36.0311 31.3645 36.5803 30.8154L44.5506 22.8452L49.5967 27.8911L44.2806 33.2071C43.7315 33.7563 43.7315 34.6467 44.2806 35.1958Z" fill="#1C54C7"/>
<path fill-rule="evenodd" clip-rule="evenodd" d="M59.0539 34.2039C60.4614 35.6112 62.7433 35.6112 64.1508 34.2039L70.9467 27.4079C72.354 26.0004 72.3541 23.7184 70.9468 22.3109L67.6876 19.0518C67.3335 18.6977 66.8178 18.5587 66.3337 18.6867L64.6268 19.138L63.6885 18.1997L64.2953 17.0871C64.594 16.5394 64.4962 15.8604 64.0551 15.4194L52.7627 4.12674C47.2634 -1.3724 38.3472 -1.37245 32.848 4.12672C32.848 4.12672 32.848 4.12671 32.848 4.12672L29.2224 7.75217C28.9587 8.01589 28.8106 8.37358 28.8105 8.74655C28.8105 9.11951 28.9587 9.4772 29.2224 9.74093L32.2615 12.78C32.8106 13.3291 33.701 13.3291 34.2502 12.78C35.9503 11.0799 38.7068 11.0799 40.4069 12.78L43.554 15.927C43.5541 15.927 43.554 15.927 43.554 15.927C44.6406 17.0137 44.6406 18.7757 43.5541 19.8623C43.0049 20.4114 43.0049 21.3018 43.5541 21.851L50.5887 28.8857C51.082 29.379 51.8623 29.4361 52.4222 29.0199L55.0575 27.0603L55.881 27.8838L55.4296 29.5908C55.3016 30.0749 55.4407 30.5905 55.7948 30.9446L59.0539 34.2039ZM61.0424 32.215C61.0424 32.2149 61.0425 32.215 61.0424 32.215L58.3554 29.5278L58.8068 27.8208C58.9348 27.3367 58.7957 26.8211 58.4417 26.467L56.1874 24.2128C55.6941 23.7195 54.9138 23.6624 54.354 24.0787L51.7186 26.0382L46.4112 20.7306C47.6738 18.5859 47.3843 15.7799 45.5429 13.9383L42.3956 10.7912C42.3956 10.7912 42.3956 10.7912 42.3956 10.7912C39.9375 8.33312 36.1378 8.03416 33.3534 9.8944L32.2056 8.74658L34.8367 6.11549C39.2375 1.71468 46.3729 1.71463 50.7739 6.11547C50.7739 6.11547 50.7739 6.11546 50.7739 6.11547L61.3224 16.6641L60.7155 17.7768C60.4168 18.3244 60.5146 19.0034 60.9557 19.4445L63.2099 21.6987C63.564 22.0528 64.0797 22.1919 64.5638 22.0638L66.2708 21.6125L68.9579 24.2995C68.9579 24.2995 68.9579 24.2994 68.9579 24.2995C69.2669 24.6087 69.267 25.11 68.958 25.4192M68.958 25.4192L62.1622 32.215C62.1622 32.215 62.1623 32.2149 62.1622 32.215C61.853 32.524 61.3516 32.524 61.0424 32.215" fill="#1C54C7"/>
<path fill-rule="evenodd" clip-rule="evenodd" d="M67.4052 67.4064C65.0305 69.7812 61.1803 69.7813 58.8055 67.4064L55.3385 63.9394C54.7893 63.3903 53.899 63.3903 53.3498 63.9395C52.8006 64.4886 52.8006 65.379 53.3498 65.9282L56.8168 69.3952C60.2899 72.8683 65.921 72.8684 69.394 69.3951C72.8672 65.9221 72.8672 60.2909 69.394 56.8179L50.8641 38.2879C50.6004 38.0242 50.2427 37.876 49.8697 37.876C49.4968 37.876 49.1391 38.0242 48.8754 38.2879L38.2869 48.8765C37.7377 49.4257 37.7377 50.3161 38.2869 50.8653L44.4007 56.9791C44.9499 57.5283 45.8403 57.5283 46.3894 56.9791C46.9386 56.4299 46.9386 55.5395 46.3894 54.9904L41.27 49.8709L49.8698 41.271L67.4053 58.8067C69.7801 61.1813 69.78 65.0317 67.4052 67.4064Z" fill="#1C54C7"/>
<path fill-rule="evenodd" clip-rule="evenodd" d="M38.2869 50.8653C38.8361 51.4145 39.727 51.4144 40.2761 50.8653L50.8646 40.2768C51.1284 40.013 51.2765 39.6554 51.2765 39.2824C51.2765 38.9094 51.1278 38.5516 50.8641 38.2879L45.8443 33.2677C44.4129 31.8361 42.092 31.8362 40.6606 33.2676L33.267 40.6612C31.8355 42.0927 31.8355 44.4134 33.267 45.8448L38.2869 50.8653ZM39.2818 47.8822L35.2557 43.8561C34.9226 43.523 34.9226 42.9831 35.2557 42.65L42.6493 35.2563C42.9825 34.9232 43.5225 34.9233 43.8554 35.2562L47.8815 39.2824L39.2818 47.8822Z" fill="#1C54C7"/>
<path fill-rule="evenodd" clip-rule="evenodd" d="M35.3121 42.012C35.685 42.012 36.0427 41.8639 36.3064 41.6001L41.6007 36.3059C42.1499 35.7567 42.1499 34.8663 41.6007 34.3171L15.3941 8.11055C14.8449 7.56138 13.9545 7.56138 13.4053 8.11055L8.1111 13.4048C7.56193 13.954 7.56193 14.8444 8.1111 15.3935L34.3177 41.6001C34.5814 41.8639 34.9391 42.012 35.3121 42.012ZM11.0942 14.3992L14.3997 11.0937L38.6176 35.3115L35.3121 38.617L11.0942 14.3992Z" fill="#1C54C7"/>
<path fill-rule="evenodd" clip-rule="evenodd" d="M8.37522 15.6012C8.92915 15.9376 9.64121 15.8518 10.0995 15.3936L15.3937 10.0993C15.8519 9.64107 15.9377 8.92901 15.6013 8.37508L13.2142 4.44376C13.0864 4.23316 12.9054 4.05985 12.6895 3.94119L5.83356 0.173849C5.28542 -0.127357 4.60422 -0.0303421 4.16196 0.411917L0.411916 4.16196C-0.0303507 4.60423 -0.12736 5.28545 0.173866 5.83359L3.94135 12.6893C4.06001 12.9053 4.23331 13.0862 4.4439 13.2141L8.37522 15.6012ZM6.22508 11.0052L3.14712 5.40424L5.40426 3.1471L11.0054 6.22495L12.6243 8.89119L8.89133 12.6242L6.22508 11.0052Z" fill="#1C54C7"/>
</svg>
