<svg width="80" height="80" viewBox="0 0 80 80"  xmlns="http://www.w3.org/2000/svg">
<mask id="mask0_256_17589" style="mask-type:alpha" maskUnits="userSpaceOnUse" x="0" y="0" width="80" height="80">
<rect width="80" height="80" />
</mask>
<g mask="url(#mask0_256_17589)">
<path d="M75.5645 75.75H4.43548C4.12107 75.75 3.81954 75.6251 3.59722 75.4028C3.3749 75.1805 3.25 74.8789 3.25 74.5645V3.43549C3.25 3.12108 3.3749 2.81954 3.59722 2.59722C3.81954 2.3749 4.12107 2.25 4.43548 2.25H75.5645C75.8789 2.25 76.1805 2.3749 76.4028 2.59722C76.6251 2.81954 76.75 3.12108 76.75 3.43549V74.5645C76.75 74.8789 76.6251 75.1805 76.4028 75.4028C76.1805 75.6251 75.8789 75.75 75.5645 75.75ZM74.379 41.8618L67.5495 48.6913C68.8567 49.7309 69.9295 51.0349 70.6977 52.518C71.4658 54.001 71.9119 55.6297 72.0067 57.2971C72.1015 58.9646 71.8429 60.6333 71.2478 62.1939C70.6527 63.7545 69.7346 65.1717 68.5536 66.3527C67.3726 67.5337 65.9554 68.4518 64.3948 69.0469C62.8342 69.642 61.1655 69.9006 59.498 69.8058C57.8306 69.711 56.2019 69.2649 54.7188 68.4968C53.2358 67.7287 51.9318 66.6558 50.8922 65.3486L42.8618 73.379H74.379V41.8618ZM63.7097 49.1738V53.2566C64.7049 54.0031 65.4401 55.0437 65.811 56.2312C66.182 57.4187 66.1699 58.6928 65.7765 59.873C65.3831 61.0532 64.6283 62.0797 63.619 62.8071C62.6098 63.5346 61.3973 63.926 60.1532 63.926C58.9092 63.926 57.6966 63.5346 56.6874 62.8071C55.6782 62.0797 54.9234 61.0532 54.53 59.873C54.1366 58.6928 54.1245 57.4187 54.4954 56.2312C54.8664 55.0437 55.6015 54.0031 56.5968 53.2566V49.1738C54.5565 49.9992 52.8668 51.5084 51.8172 53.4429C50.7676 55.3775 50.4236 57.6168 50.844 59.7772C51.2644 61.9376 52.4231 63.8845 54.1215 65.2842C55.8199 66.684 57.9523 67.4495 60.1532 67.4495C62.3541 67.4495 64.4865 66.684 66.1849 65.2842C67.8833 63.8845 69.0421 61.9376 69.4625 59.7772C69.8829 57.6168 69.5388 55.3775 68.4893 53.4429C67.4397 51.5084 65.75 49.9992 63.7097 49.1738ZM60.1532 54.4113C59.4498 54.4113 58.7622 54.6199 58.1774 55.0107C57.5925 55.4014 57.1367 55.9569 56.8675 56.6067C56.5983 57.2566 56.5279 57.9717 56.6651 58.6616C56.8023 59.3515 57.1411 59.9852 57.6384 60.4825C58.1358 60.9799 58.7695 61.3186 59.4594 61.4559C60.1493 61.5931 60.8644 61.5227 61.5142 61.2535C62.1641 60.9843 62.7195 60.5285 63.1103 59.9436C63.5011 59.3587 63.7097 58.6711 63.7097 57.9677C63.7097 57.0245 63.335 56.1199 62.668 55.453C62.001 54.786 61.0965 54.4113 60.1532 54.4113ZM60.1532 22.4032C60.8566 22.4032 61.5442 22.1946 62.1291 21.8039C62.7139 21.4131 63.1698 20.8576 63.439 20.2078C63.7081 19.5579 63.7786 18.8428 63.6413 18.153C63.5041 17.4631 63.1654 16.8294 62.668 16.332C62.1706 15.8346 61.5369 15.4959 60.847 15.3587C60.1572 15.2214 59.4421 15.2919 58.7922 15.561C58.1424 15.8302 57.5869 16.2861 57.1961 16.8709C56.8054 17.4558 56.5968 18.1434 56.5968 18.8468C56.5968 19.79 56.9715 20.6946 57.6384 21.3616C58.3054 22.0285 59.21 22.4032 60.1532 22.4032ZM60.1532 24.7742C59.7551 24.7746 59.3579 24.7349 58.9677 24.6557V52.1589C59.75 51.9992 60.5564 51.9992 61.3387 52.1589V24.6557C60.9485 24.7349 60.5514 24.7746 60.1532 24.7742ZM56.5968 46.6582V30.1563C55.0277 29.6639 53.5784 28.8501 52.3411 27.7668C51.1037 26.6836 50.1055 25.3545 49.41 23.8643C48.7145 22.3741 48.3369 20.7554 48.3012 19.1113C48.2656 17.4672 48.5726 15.8336 49.2029 14.3147L40 5.11176L6.11176 39L40 72.8882L49.5823 63.3024C48.8037 61.7694 48.3687 60.0851 48.3076 58.3668C48.2464 56.6485 48.5607 54.9375 49.2285 53.3531C49.8962 51.7687 50.9013 50.3489 52.1739 49.1927C53.4464 48.0364 54.9558 47.1715 56.5968 46.6582ZM50.6694 18.8468C50.6604 20.7382 51.221 22.5885 52.2782 24.157C53.3354 25.7254 54.8402 26.9393 56.5968 27.6407V23.5579C55.6015 22.8115 54.8664 21.7708 54.4954 20.5833C54.1245 19.3958 54.1366 18.1218 54.53 16.9415C54.9234 15.7613 55.6782 14.7348 56.6874 14.0074C57.6966 13.28 58.9092 12.8885 60.1532 12.8885C61.3973 12.8885 62.6098 13.28 63.619 14.0074C64.6283 14.7348 65.3831 15.7613 65.7765 16.9415C66.1699 18.1218 66.182 19.3958 65.811 20.5833C65.4401 21.7708 64.7049 22.8115 63.7097 23.5579V27.6407C65.3048 26.9954 66.6943 25.9284 67.7293 24.5538C68.7644 23.1793 69.406 21.5491 69.5854 19.8378C69.7648 18.1265 69.4753 16.3986 68.7478 14.8393C68.0203 13.28 66.8823 11.9479 65.4558 10.9859C64.0292 10.0239 62.3677 9.46805 60.6494 9.37803C58.9311 9.28801 57.2207 9.66716 55.7013 10.4749C54.182 11.2826 52.9111 12.4884 52.0247 13.9632C51.1382 15.438 50.6697 17.1261 50.6694 18.8468ZM63.7097 30.1563V46.6582C64.3266 46.8512 64.9268 47.0938 65.5045 47.3837L73.8882 39L64.6924 29.8042C64.3724 29.9346 64.044 30.052 63.7097 30.1563ZM37.1382 73.379L5.62097 41.8618V73.379H37.1382ZM5.62097 36.1382L37.1382 4.62097H5.62097V36.1382ZM42.8618 4.62097L50.3848 12.1441C51.3685 10.7065 52.6568 9.5034 54.1583 8.62029C55.6597 7.73719 57.3372 7.1958 59.0716 7.03463C60.806 6.87347 62.5546 7.09649 64.193 7.68783C65.8315 8.27917 67.3194 9.2243 68.5511 10.456C69.7828 11.6877 70.7279 13.1756 71.3193 14.8141C71.9106 16.4525 72.1336 18.2011 71.9725 19.9355C71.8113 21.6699 71.2699 23.3475 70.3868 24.8489C69.5037 26.3503 68.3006 27.6386 66.8631 28.6223L74.379 36.1382V4.62097H42.8618Z"/>
<path d="M40.0015 47.2983C38.3602 47.2983 36.7558 46.8116 35.3912 45.8998C34.0265 44.988 32.9629 43.6919 32.3348 42.1756C31.7067 40.6593 31.5424 38.9907 31.8626 37.381C32.1828 35.7713 32.9731 34.2927 34.1337 33.1321C35.2942 31.9716 36.7729 31.1812 38.3826 30.861C39.9923 30.5408 41.6608 30.7052 43.1772 31.3332C44.6935 31.9613 45.9895 33.025 46.9014 34.3896C47.8132 35.7543 48.2999 37.3587 48.2999 39C48.2974 41.2001 47.4223 43.3093 45.8666 44.865C44.3109 46.4207 42.2016 47.2958 40.0015 47.2983ZM40.0015 33.0725C38.8292 33.0725 37.6832 33.4202 36.7084 34.0715C35.7337 34.7228 34.9739 35.6485 34.5253 36.7316C34.0767 37.8147 33.9593 39.0065 34.188 40.1563C34.4167 41.3061 34.9812 42.3623 35.8102 43.1913C36.6392 44.0202 37.6953 44.5848 38.8451 44.8135C39.9949 45.0422 41.1867 44.9248 42.2698 44.4762C43.3529 44.0275 44.2787 43.2678 44.93 42.2931C45.5813 41.3183 45.9289 40.1723 45.9289 39C45.9271 37.4285 45.302 35.9219 44.1908 34.8107C43.0796 33.6995 41.573 33.0744 40.0015 33.0725Z"/>
</g>
</svg>
