<svg width="80" height="80" viewBox="0 0 80 80"  xmlns="http://www.w3.org/2000/svg">
<mask id="mask0_256_17598" style="mask-type:alpha" maskUnits="userSpaceOnUse" x="0" y="0" width="80" height="80">
<rect width="80" height="80" />
</mask>
<g mask="url(#mask0_256_17598)">
<path d="M74.4918 38.0584C74.1064 30.1598 71.0019 22.6374 65.7043 16.766L75.3465 7.47236L73.6869 5.7215L63.995 15.0317C57.8989 9.12993 49.8298 5.70004 41.35 5.40618V1H38.9104V5.40618C30.3044 5.72053 22.1283 9.24727 15.9937 15.2913C9.85906 21.3352 6.21104 29.458 5.76865 38.0584H1.84375V40.5478H5.74376C5.93924 49.3322 9.4852 57.7096 15.6557 63.965C21.8262 70.2203 30.1544 73.8803 38.9353 74.1957V79.0002H41.3749V74.1542C50.1558 73.8388 58.4841 70.1788 64.6546 63.9235C70.8251 57.6681 74.371 49.2907 74.5665 40.5063H78.4665V38.0169L74.4918 38.0584ZM72.0024 38.0584H65.9533C65.5799 32.378 63.3327 26.982 59.5639 22.7156L63.9369 18.4837C68.7964 23.8907 71.6575 30.7989 72.0439 38.0584H72.0024ZM55.4979 40.5478H63.5137C63.3255 46.4158 60.9453 52.0004 56.8425 56.2C52.7397 60.3996 47.2121 62.9093 41.35 63.2342V55.1604C45.0923 54.86 48.597 53.2067 51.2086 50.5096C53.8202 47.8124 55.3598 44.2563 55.5394 40.5063L55.4979 40.5478ZM55.4316 38.0584C55.0982 35.0878 53.9106 32.2775 52.0128 29.968L57.7633 24.4084C61.0937 28.2188 63.092 33.0107 63.4556 38.0584H55.4316ZM41.3251 7.84576C49.1578 8.14569 56.6052 11.3214 62.2441 16.766L57.8711 20.9896C53.382 16.7462 47.5204 14.2526 41.35 13.9613L41.3251 7.84576ZM41.3251 16.376C46.8321 16.6584 52.0615 18.8807 56.0871 22.6492L50.2786 28.2254C47.7952 26.017 44.6619 24.6746 41.35 24.4001L41.3251 16.376ZM38.9104 7.84576V13.9281C32.5645 14.235 26.5525 16.8624 22.0166 21.311C17.4807 25.7597 14.7372 31.7196 14.3072 38.0584H8.21653C8.65636 30.1062 12.0453 22.6037 17.7213 17.0168C23.3972 11.4298 30.9523 8.15986 38.9104 7.84576ZM38.9104 16.376V24.4001C35.341 24.6904 31.9831 26.211 29.4103 28.702C26.8375 31.1931 25.2094 34.5002 24.804 38.0584H16.7634C17.1872 32.3693 19.6696 27.0296 23.7461 23.0387C27.8225 19.0477 33.2137 16.6791 38.9104 16.376ZM38.9104 71.7147C30.7859 71.386 23.0911 67.9774 17.3887 62.181C11.6864 56.3846 8.40397 48.6351 8.20824 40.5063H14.2906C14.4794 47.0282 17.1223 53.2388 21.6912 57.8968C26.26 62.5549 32.4183 65.3174 38.9353 65.6323L38.9104 71.7147ZM38.9104 63.1927C33.041 62.8779 27.5032 60.3725 23.3917 56.1719C19.2803 51.9713 16.8942 46.3811 16.7053 40.5063H24.721C24.9007 44.2563 26.4403 47.8124 29.0519 50.5096C31.6634 53.2067 35.1682 54.86 38.9104 55.1604V63.1927ZM40.1302 52.7789C38.0322 52.7827 35.9644 52.2787 34.1033 51.31C32.2423 50.3414 30.6433 48.9368 29.4428 47.2161C28.2424 45.4954 27.4761 43.5098 27.2094 41.4288C26.9427 39.3478 27.1836 37.2331 27.9114 35.2654C28.6392 33.2976 29.8324 31.5352 31.3891 30.1286C32.9457 28.7219 34.8196 27.7129 36.8508 27.1875C38.8821 26.6622 41.0102 26.6361 43.0537 27.1116C45.0971 27.5871 46.9952 28.55 48.5858 29.9182L41.35 36.905V31.6275H38.9104V41.0042H48.5609V38.5148H43.1507L50.2786 31.7022C51.8039 33.6122 52.7589 35.9141 53.0335 38.3429C53.3081 40.7718 52.8912 43.2288 51.8308 45.4311C50.7704 47.6334 49.1096 49.4915 47.0396 50.7914C44.9696 52.0914 42.5746 52.7803 40.1302 52.7789ZM41.35 71.7147V65.6323C47.8671 65.3174 54.0254 62.5549 58.5942 57.8968C63.163 53.2388 65.8059 47.0282 65.9948 40.5063H72.0771C71.881 48.6392 68.5952 56.3922 62.8876 62.1892C57.1799 67.9863 49.4789 71.3922 41.35 71.7147Z"/>
</g>
</svg>
