<svg width="80" height="80" viewBox="0 0 80 80" xmlns="http://www.w3.org/2000/svg">
<mask id="mask0_256_17635" style="mask-type:alpha" maskUnits="userSpaceOnUse" x="0" y="0" width="80" height="80">
<rect width="80" height="80"/>
</mask>
<g mask="url(#mask0_256_17635)">
<path fill-rule="evenodd" clip-rule="evenodd" d="M57.7518 34.5005C58.399 34.5005 58.9237 33.9758 58.9237 33.3286V18.5433C58.9237 17.6918 58.7399 16.8587 58.3913 16.0974C58.1013 15.4596 57.6992 14.876 57.1968 14.3716L49.5553 6.73015C49.5548 6.72964 49.5543 6.72912 49.5538 6.72861C49.5538 6.72859 49.5538 6.72863 49.5538 6.72861C49.049 6.22225 48.4625 5.81998 47.8251 5.53178C47.0642 5.18386 46.2319 5.00016 45.3806 5.00016H13.1202C10.6708 5.00016 8.68555 6.98545 8.68555 9.43485V16.9527C8.68555 17.5999 9.21021 18.1245 9.85742 18.1245C10.5046 18.1245 11.0293 17.5999 11.0293 16.9527V9.43485C11.0293 8.27987 11.9653 7.34391 13.1202 7.34391H45.3806C45.8946 7.34391 46.3951 7.45481 46.852 7.66396L46.8576 7.66652C47.2414 7.83979 47.5927 8.08093 47.8949 8.38423L47.8965 8.38583L55.5363 16.0256C55.5367 16.0261 55.5371 16.0265 55.5375 16.0269C55.8421 16.3329 56.0839 16.6847 56.2583 17.0687L56.2599 17.0722C56.469 17.5286 56.58 18.0294 56.58 18.5433V33.3286C56.58 33.9758 57.1046 34.5005 57.7518 34.5005Z"/>
<path fill-rule="evenodd" clip-rule="evenodd" d="M9.85742 56.9844C10.5046 56.9844 11.0293 56.4597 11.0293 55.8125V22.7156C11.0293 22.0684 10.5046 21.5437 9.85742 21.5437C9.21021 21.5437 8.68555 22.0684 8.68555 22.7156V55.8125C8.68555 56.4597 9.21021 56.9844 9.85742 56.9844Z"/>
<path fill-rule="evenodd" clip-rule="evenodd" d="M46.168 13.473C46.168 15.8374 48.0864 17.7559 50.4508 17.7559H57.3258C57.7242 17.7559 58.0953 17.5535 58.311 17.2185C58.5267 16.8836 58.5575 16.462 58.3927 16.0993C58.1021 15.4595 57.7 14.8763 57.1967 14.371L49.556 6.73037C49.5557 6.73006 49.5554 6.72976 49.5551 6.72945C49.049 6.22158 48.4622 5.8188 47.8218 5.52987C47.4592 5.36623 47.0383 5.39777 46.704 5.61363C46.3698 5.82949 46.168 6.20018 46.168 6.59804V13.473ZM50.4508 15.4121C49.3808 15.4121 48.5117 14.543 48.5117 13.473V9.00063L54.9232 15.4121H50.4508Z"/>
<path fill-rule="evenodd" clip-rule="evenodd" d="M70.348 53.7683C70.6854 53.7456 70.9966 53.5782 71.2015 53.3092C72.1785 52.0263 72.9465 50.7789 73.6663 49.6063C74.9042 47.6104 74.6045 45.0249 72.944 43.3644L62.891 33.3114C61.2312 31.6516 58.6475 31.3517 56.6521 32.587C55.5295 33.2673 53.8837 34.3163 52.9317 35.0653C52.6684 35.2724 52.5063 35.5823 52.4864 35.9167C52.4666 36.2511 52.5907 36.5781 52.8276 36.8149L69.4406 53.4278C69.6797 53.6669 70.0105 53.7911 70.348 53.7683ZM55.4582 36.131C56.2329 35.6041 57.142 35.0305 57.8717 34.5884C57.8754 34.5862 57.879 34.584 57.8827 34.5817C58.9537 33.9168 60.342 34.077 61.2337 34.9687L71.2867 45.0217C72.1785 45.9134 72.3386 47.3018 71.6736 48.3725L71.6704 48.3778C71.1712 49.1909 70.6775 49.9921 70.1249 50.7975L55.4582 36.131Z"/>
<path fill-rule="evenodd" clip-rule="evenodd" d="M69.0957 42.3467C69.4066 42.3467 69.7046 42.2232 69.9244 42.0034L80.0244 31.902C80.482 31.4443 80.482 30.7023 80.0243 30.2447C79.5666 29.7871 78.8246 29.7871 78.367 30.2448L69.0956 39.5175L66.7374 37.1592L80.0244 23.8722C80.482 23.4145 80.482 22.6725 80.0244 22.2149C79.5667 21.7573 78.8247 21.7573 78.3671 22.2149L64.2514 36.3305C63.7938 36.7882 63.7938 37.5302 64.2514 37.9878L68.2671 42.0034C68.4868 42.2232 68.7849 42.3467 69.0957 42.3467Z"/>
<path fill-rule="evenodd" clip-rule="evenodd" d="M61.7819 68.2928C62.3512 68.6006 63.0622 68.3886 63.37 67.8193L71.2976 53.1563C71.544 52.7004 71.4618 52.1368 71.0953 51.7704L54.4823 35.1575C54.1159 34.7911 53.5523 34.7088 53.0964 34.9553L35.455 44.493C34.0214 45.2681 33.1055 46.5752 32.773 48.0036C32.6262 48.634 33.0183 49.2639 33.6486 49.4107C34.279 49.5574 34.9089 49.1654 35.0557 48.535C35.2441 47.7256 35.7573 46.9939 36.5696 46.5547C36.5696 46.5547 36.5696 46.5547 36.5696 46.5547L53.4427 37.4324L68.8204 52.81L61.3083 66.7046C61.0005 67.274 61.2125 67.985 61.7819 68.2928Z"/>
<path fill-rule="evenodd" clip-rule="evenodd" d="M9.85751 71.2773C5.91048 71.2773 2.71094 68.0778 2.71094 64.1309C2.71094 60.1841 5.91048 56.9845 9.85751 56.9845C10.5047 56.9845 11.0294 56.4599 11.0294 55.8126C11.0294 49.4658 16.1744 44.3206 22.5213 44.3206C24.4564 44.3206 26.2761 44.7986 27.8726 45.6417C28.4449 45.9439 29.1539 45.725 29.4561 45.1527C29.7583 44.5804 29.5394 43.8714 28.9671 43.5692C27.0415 42.5523 24.8471 41.9769 22.5213 41.9769C15.2521 41.9769 9.29236 47.5828 8.72915 54.7071C4.01962 55.265 0.367188 59.2714 0.367188 64.1309C0.367188 69.3722 4.61609 73.6211 9.85751 73.6211H57.7516C60.9527 73.6211 63.5477 71.0261 63.5477 67.825C63.5477 64.6239 60.9527 62.0289 57.7516 62.0289H53.3026C53.2111 56.6266 48.803 52.2755 43.3789 52.2755C42.8699 52.2755 42.3703 52.3146 41.8826 52.3891C40.916 49.2999 38.0344 47.058 34.6258 47.058C33.8942 47.058 33.188 47.1634 32.5202 47.3555C31.8982 47.5344 31.539 48.1836 31.7179 48.8056C31.8968 49.4276 32.546 49.7868 33.168 49.6079C33.6323 49.4744 34.1206 49.4017 34.6258 49.4017C37.2843 49.4017 39.483 51.3755 39.8355 53.938C39.8817 54.2738 40.0711 54.5732 40.3548 54.7589C40.6385 54.9445 40.9887 54.9982 41.315 54.906C41.9725 54.7203 42.6639 54.6192 43.3789 54.6192C47.566 54.6192 50.9603 58.0135 50.9603 62.2005C50.9603 62.4898 50.9422 62.7786 50.9092 63.0684C50.8716 63.4002 50.9771 63.7322 51.1995 63.9812C51.4218 64.2303 51.7398 64.3727 52.0736 64.3727H57.7516C59.6583 64.3727 61.2039 65.9183 61.2039 67.825C61.2039 69.7317 59.6583 71.2773 57.7516 71.2773H9.85751Z"/>
<path fill-rule="evenodd" clip-rule="evenodd" d="M13.4796 64.7562C13.9795 64.3451 14.0515 63.6066 13.6404 63.1067C12.0083 61.1221 11.0293 58.5832 11.0293 55.8128C11.0293 55.1655 10.5046 54.6409 9.85742 54.6409C9.21021 54.6409 8.68555 55.1655 8.68555 55.8128C8.68555 59.146 9.86589 62.2068 11.8301 64.5954C12.2412 65.0953 12.9797 65.1673 13.4796 64.7562Z"/>
<path fill-rule="evenodd" clip-rule="evenodd" d="M28.5587 57.1069C29.1928 56.9772 29.6018 56.3581 29.4721 55.724C29.4022 55.382 29.3652 55.0272 29.3652 54.6623C29.3652 52.2643 30.9708 50.2381 33.168 49.6059C33.79 49.4269 34.1491 48.7776 33.9702 48.1556C33.7912 47.5337 33.1419 47.1745 32.5199 47.3535C29.3456 48.2669 27.0215 51.1917 27.0215 54.6623C27.0215 55.1859 27.0745 55.698 27.1759 56.1935C27.3055 56.8276 27.9247 57.2365 28.5587 57.1069Z"/>
<path fill-rule="evenodd" clip-rule="evenodd" d="M36.107 57.1876C36.5862 57.6225 37.3273 57.5866 37.7623 57.1074C38.7049 56.0689 39.9297 55.2942 41.3132 54.9037C41.9361 54.7279 42.2985 54.0805 42.1227 53.4576C41.9469 52.8347 41.2994 52.4723 40.6765 52.6481C38.8603 53.1607 37.2576 54.1761 36.0268 55.5322C35.5918 56.0115 35.6277 56.7526 36.107 57.1876Z"/>
<path fill-rule="evenodd" clip-rule="evenodd" d="M54.5477 64.1802C55.0884 64.5358 55.8151 64.3857 56.1707 63.8449L63.1419 53.2437C63.4975 52.7029 63.3474 51.9762 62.8067 51.6206C62.2659 51.265 61.5393 51.4151 61.1837 51.9559L54.2124 62.5572C53.8568 63.0979 54.0069 63.8246 54.5477 64.1802Z"/>
<path fill-rule="evenodd" clip-rule="evenodd" d="M39.7632 53.3176C40.1188 53.8584 40.8455 54.0084 41.3862 53.6528L45.9126 50.6761C46.4534 50.3205 46.6035 49.5938 46.2479 49.0531C45.8922 48.5123 45.1656 48.3622 44.6248 48.7179L40.0984 51.6946C39.5577 52.0502 39.4076 52.7768 39.7632 53.3176Z"/>
<path fill-rule="evenodd" clip-rule="evenodd" d="M49.0952 47.1818C49.4508 47.7226 50.1775 47.8727 50.7182 47.5171L54.3542 45.1262C54.8949 44.7706 55.045 44.0439 54.6894 43.5031C54.3338 42.9624 53.6072 42.8123 53.0664 43.1679L49.4305 45.5588C48.8897 45.9144 48.7396 46.6411 49.0952 47.1818Z"/>
<path fill-rule="evenodd" clip-rule="evenodd" d="M49.0971 57.2124C49.5548 57.6701 50.2968 57.6701 50.7544 57.2124L58.6607 49.3062C59.1183 48.8485 59.1183 48.1065 58.6607 47.6489C58.203 47.1912 57.461 47.1912 57.0034 47.6489L49.0971 55.5551C48.6395 56.0128 48.6395 56.7548 49.0971 57.2124Z"/>
<path fill-rule="evenodd" clip-rule="evenodd" d="M16.8223 17.3047C16.8223 17.9519 17.3469 18.4766 17.9941 18.4766H30.5735C31.2207 18.4766 31.7454 17.9519 31.7454 17.3047C31.7454 16.6575 31.2207 16.1328 30.5735 16.1328H17.9941C17.3469 16.1328 16.8223 16.6575 16.8223 17.3047Z"/>
<path fill-rule="evenodd" clip-rule="evenodd" d="M16.8223 26.3022C16.8223 26.9495 17.3469 27.4741 17.9941 27.4741H45.2703C45.9175 27.4741 46.4421 26.9495 46.4421 26.3022C46.4421 25.655 45.9175 25.1304 45.2703 25.1304H17.9941C17.3469 25.1304 16.8223 25.655 16.8223 26.3022Z"/>
<path fill-rule="evenodd" clip-rule="evenodd" d="M16.8223 32.1094C16.8223 32.7566 17.3469 33.2812 17.9941 33.2812H45.2703C45.9175 33.2812 46.4421 32.7566 46.4421 32.1094C46.4421 31.4622 45.9175 30.9375 45.2703 30.9375H17.9941C17.3469 30.9375 16.8223 31.4622 16.8223 32.1094Z"/>
<path fill-rule="evenodd" clip-rule="evenodd" d="M16.8223 37.9165C16.8223 38.5637 17.3469 39.0884 17.9941 39.0884H36.8965C37.5437 39.0884 38.0684 38.5637 38.0684 37.9165C38.0684 37.2693 37.5437 36.7446 36.8965 36.7446H17.9941C17.3469 36.7446 16.8223 37.2693 16.8223 37.9165Z"/>
</g>
</svg>
