<svg width="80" height="80" viewBox="0 0 80 80" xmlns="http://www.w3.org/2000/svg">
<mask id="mask0_256_17606" style="mask-type:alpha" maskUnits="userSpaceOnUse" x="0" y="0" width="80" height="80">
<rect width="80" height="80" />
</mask>
<g mask="url(#mask0_256_17606)">
<mask id="mask1_256_17606" style="mask-type:luminance" maskUnits="userSpaceOnUse" x="4" y="2" width="72" height="73">
<path d="M4 2.8335H76V74.8335H4V2.8335Z"/>
</mask>
<g mask="url(#mask1_256_17606)">
<path fill-rule="evenodd" clip-rule="evenodd" d="M7.03849 72.2311C10.5115 75.7042 16.1427 75.7042 19.6157 72.2311L36.9918 54.8551C37.2555 54.5914 37.4037 54.2337 37.4037 53.8607C37.4036 53.4878 37.2555 53.1301 36.9918 52.8664L26.4031 42.2779C25.8539 41.7287 24.9636 41.7287 24.4144 42.2779L7.03851 59.6539C3.56527 63.127 3.56531 68.758 7.03849 72.2311ZM17.627 70.2424C15.2523 72.6171 11.4019 72.6171 9.02722 70.2424C6.65237 67.8676 6.6524 64.0174 9.0272 61.6427L9.02723 61.6426L25.4088 45.261L34.0087 53.8607L17.627 70.2424Z" />
<path fill-rule="evenodd" clip-rule="evenodd" d="M33.2279 53.0784C33.7771 53.6275 34.6674 53.6275 35.2166 53.0784L39.071 49.2241C39.6202 48.675 39.6202 47.7846 39.071 47.2354C38.5219 46.6862 37.6315 46.6862 37.0823 47.2353L34.2223 50.0953L29.1762 45.0493L34.8488 39.3768C35.3979 38.8277 35.3979 37.9373 34.8488 37.3881C34.2996 36.8389 33.4092 36.8389 32.86 37.3881L26.1931 44.055C25.9294 44.3187 25.7812 44.6764 25.7813 45.0494C25.7813 45.4223 25.9294 45.78 26.1931 46.0437L33.2279 53.0784Z" />
<path fill-rule="evenodd" clip-rule="evenodd" d="M48.2806 38.0266C48.8298 38.5758 49.7202 38.5758 50.2694 38.0266L56.5798 31.7162C56.8435 31.4525 56.9917 31.0948 56.9917 30.7218C56.9917 30.3489 56.8435 29.9912 56.5798 29.7274L49.545 22.6928C48.9958 22.1437 48.1055 22.1437 47.5563 22.6928L38.5916 31.6574C38.0424 32.2066 38.0424 33.0969 38.5916 33.6461C39.1407 34.1953 40.0311 34.1953 40.5803 33.6461L48.5506 25.6759L53.5967 30.7218L48.2806 36.0379C47.7315 36.587 47.7315 37.4774 48.2806 38.0266Z" />
<path fill-rule="evenodd" clip-rule="evenodd" d="M63.0539 37.0344C64.4614 38.4417 66.7433 38.4417 68.1508 37.0344L68.1509 37.0343L74.9467 30.2384L74.9468 30.2384C76.3541 28.8308 76.3541 26.5489 74.9468 25.1414L71.6876 21.8823C71.3335 21.5283 70.8178 21.3892 70.3337 21.5172L68.6268 21.9686L67.6885 21.0302L68.2953 19.9176C68.594 19.3699 68.4962 18.691 68.0551 18.2499L56.7627 6.95725C51.2634 1.45811 42.3472 1.45807 36.848 6.95723C36.848 6.95724 36.848 6.95723 36.848 6.95723L33.2224 10.5827C32.9587 10.8464 32.8106 11.2041 32.8105 11.5771C32.8105 11.95 32.9587 12.3077 33.2224 12.5714L36.2615 15.6105C36.8106 16.1597 37.701 16.1597 38.2502 15.6105C39.9503 13.9104 42.7068 13.9104 44.4069 15.6105L47.554 18.7575C47.554 18.7575 47.5541 18.7575 47.554 18.7575C48.6406 19.8442 48.6406 21.6062 47.5541 22.6928C47.0049 23.2419 47.0049 24.1323 47.5541 24.6815L54.5887 31.7163C55.082 32.2096 55.8623 32.2666 56.4222 31.8504L59.0575 29.8908L59.881 30.7143L59.4296 32.4213C59.3016 32.9054 59.4407 33.4211 59.7948 33.7751L63.0539 37.0344ZM65.0425 35.0456C65.0425 35.0455 65.0425 35.0455 65.0424 35.0455L62.3554 32.3584L62.8068 30.6514C62.9348 30.1672 62.7957 29.6516 62.4416 29.2975L60.1874 27.0433C59.6941 26.55 58.9138 26.4929 58.354 26.9092L55.7186 28.8687L50.4112 23.5611C51.6738 21.4164 51.3843 18.6104 49.5429 16.7688L46.3956 13.6218C46.3956 13.6217 46.3956 13.6218 46.3956 13.6218C43.9375 11.1636 40.1378 10.8647 37.3534 12.7249L36.2056 11.5771L38.8367 8.94601C43.2376 4.5452 50.3729 4.54515 54.7739 8.94598C54.7739 8.94598 54.7739 8.94599 54.7739 8.94598L65.3224 19.4946L64.7155 20.6073C64.4168 21.1549 64.5146 21.8339 64.9557 22.275L67.2099 24.5292C67.564 24.8833 68.0797 25.0224 68.5638 24.8944L70.2708 24.443L72.9579 27.13C72.9579 27.13 72.958 27.1301 72.958 27.1301C73.2671 27.4393 73.267 27.9405 72.958 28.2497M72.9579 28.2498L66.1622 35.0455C66.1622 35.0455 66.1622 35.0455 66.1621 35.0455C65.853 35.3546 65.3517 35.3546 65.0425 35.0456" />
<path fill-rule="evenodd" clip-rule="evenodd" d="M71.4052 70.237C69.0306 72.6118 65.1803 72.6118 62.8055 70.2369L59.3385 66.77C58.7893 66.2208 57.899 66.2208 57.3498 66.77C56.8006 67.3191 56.8006 68.2095 57.3498 68.7587L60.8168 72.2257C64.2899 75.6989 69.9209 75.6989 73.394 72.2256C76.8672 68.7526 76.8672 63.1215 73.394 59.6484L54.8641 41.1184C54.6004 40.8547 54.2427 40.7065 53.8697 40.7065C53.4968 40.7065 53.1391 40.8547 52.8754 41.1184L42.2869 51.7071C41.7377 52.2562 41.7377 53.1466 42.2869 53.6958L48.4007 59.8096C48.9499 60.3588 49.8403 60.3588 50.3894 59.8096C50.9386 59.2604 50.9386 58.37 50.3894 57.8209L45.27 52.7014L53.8698 44.1015L71.4053 61.6372L71.4053 61.6372C73.7801 64.0119 73.7801 67.8622 71.4053 70.2369L71.4052 70.237Z" />
<path fill-rule="evenodd" clip-rule="evenodd" d="M42.2874 53.6955C42.8366 54.2447 43.727 54.2447 44.2761 53.6955L54.8646 43.107C55.1284 42.8433 55.2765 42.4856 55.2765 42.1127C55.2765 41.7397 55.1284 41.382 54.8646 41.1183L49.8443 36.0979C48.4129 34.6663 46.092 34.6664 44.6606 36.0979L37.267 43.4915C35.8355 44.9229 35.8355 47.2436 37.267 48.6751L42.2874 53.6955ZM43.2818 50.7124L39.2557 46.6864C38.9226 46.3532 38.9226 45.8133 39.2557 45.4802L46.6493 38.0866C46.9825 37.7534 47.5225 37.7536 47.8554 38.0865L47.8555 38.0866L51.8815 42.1127L43.2818 50.7124Z" />
<path fill-rule="evenodd" clip-rule="evenodd" d="M39.3121 44.8428C39.685 44.8428 40.0427 44.6946 40.3064 44.4309L45.6007 39.1366C46.1499 38.5875 46.1499 37.6971 45.6007 37.1479L19.3941 10.9413C18.8449 10.3921 17.9545 10.3921 17.4053 10.9413L12.1111 16.2356C11.5619 16.7847 11.5619 17.6751 12.1111 18.2243L38.3177 44.4309C38.5814 44.6946 38.9391 44.8428 39.3121 44.8428ZM15.0942 17.2299L18.3997 13.9244L42.6176 38.1423L39.3121 41.4478L15.0942 17.2299Z" />
<path fill-rule="evenodd" clip-rule="evenodd" d="M12.3752 18.4315C12.9291 18.7678 13.6412 18.6821 14.0995 18.2238L19.3937 12.9296C19.8519 12.4713 19.9377 11.7593 19.6013 11.2053L17.2142 7.27403C17.0864 7.06343 16.9054 6.89012 16.6895 6.77146L9.83356 3.00412C9.28542 2.70291 8.60422 2.79993 8.16196 3.24219L4.41192 6.99223C3.96965 7.4345 3.87264 8.11572 4.17387 8.66386L7.94135 15.5196C8.06001 15.7355 8.23331 15.9165 8.4439 16.0444L12.3752 18.4315ZM10.2251 13.8355L7.14712 8.23451L9.40426 5.97737L15.0054 9.05522L16.6243 11.7215L12.8913 15.4545L10.2251 13.8355Z" />
</g>
</g>
</svg>
